<svg xmlns="http://www.w3.org/2000/svg"
  xmlns:xlink="http://www.w3.org/1999/xlink"
  width="1000" height="1000">
<path
                  d=" M 0 0 10.0 0  C 10.000000 -18.000000 26.000000 10.000000 26.000000 0  S 42.0 16.0 42.0 0  S 58.0 -16.0 58.0 0  S 74.0 14.0 74.0 0  S 90.0 19.0 90.0 0  M 90.0 0 100 0" stroke="black" fill="transparent"
                  transform="translate(514.000000 540.333333) rotate (-57.019002 0 0) scale (1.120580 1)"/>
                  <path
                  d=" M 0 0 10.0 0  C 10.000000 -16.000000 21.428571 16.000000 21.428571 0  S 32.85714285714286 12.0 32.85714285714286 0  S 44.85714285714286 -18.0 44.85714285714286 0  S 56.85714285714286 19.0 56.85714285714286 0  S 68.85714285714286 -10.0 68.85714285714286 0  S 80.85714285714286 11.0 80.85714285714286 0  S 90.0 14.0 90.0 0  M 90.0 0 100 0" stroke="black" fill="transparent"
                  transform="translate(555.666667 314.333333) rotate (81.667440 0 0) scale (1.334083 1)"/>
                  <path
                  d=" M 0 0 10.0 0  C 10.000000 -16.000000 21.428571 15.000000 21.428571 0  S 32.85714285714286 18.0 32.85714285714286 0  S 44.85714285714286 -11.0 44.85714285714286 0  S 56.85714285714286 13.0 56.85714285714286 0  S 68.85714285714286 -15.0 68.85714285714286 0  S 80.85714285714286 15.0 80.85714285714286 0  S 90.0 12.0 90.0 0  M 90.0 0 100 0" stroke="black" fill="transparent"
                  transform="translate(463.666667 212.000000) rotate (48.043736 0 0) scale (1.376085 1)"/>
                  <path
                  d=" M 0 0 10.0 0  C 10.000000 -14.000000 20.000000 14.000000 20.000000 0  S 30.0 12.0 30.0 0  S 40.0 -11.0 40.0 0  S 50.0 14.0 50.0 0  S 60.0 -13.0 60.0 0  S 70.0 10.0 70.0 0  S 80.0 -11.0 80.0 0  S 90.0 18.0 90.0 0  M 90.0 0 100 0" stroke="black" fill="transparent"
                  transform="translate(363.000000 209.333333) rotate (1.517414 0 0) scale (1.007020 1)"/>
                  <path
                  d=" M 0 0 10.0 0  C 10.000000 -12.000000 23.333333 11.000000 23.333333 0  S 36.66666666666667 16.0 36.66666666666667 0  S 50.66666666666667 -12.0 50.66666666666667 0  S 64.66666666666667 18.0 64.66666666666667 0  S 78.66666666666667 -18.0 78.66666666666667 0  S 90.0 12.0 90.0 0  M 90.0 0 100 0" stroke="black" fill="transparent"
                  transform="translate(291.333333 271.666667) rotate (-41.015684 0 0) scale (0.949819 1)"/>
                  <path
                  d=" M 0 0 10.0 0  C 10.000000 -16.000000 26.000000 11.000000 26.000000 0  S 42.0 19.0 42.0 0  S 58.0 -10.0 58.0 0  S 74.0 16.0 74.0 0  S 90.0 19.0 90.0 0  M 90.0 0 100 0" stroke="black" fill="transparent"
                  transform="translate(224.000000 375.000000) rotate (-56.911215 0 0) scale (1.233351 1)"/>
                  <path
                  d=" M 0 0 10.0 0  C 10.000000 -19.000000 20.000000 16.000000 20.000000 0  S 30.0 12.0 30.0 0  S 40.0 -13.0 40.0 0  S 50.0 16.0 50.0 0  S 60.0 -13.0 60.0 0  S 70.0 17.0 70.0 0  S 80.0 -14.0 80.0 0  S 90.0 14.0 90.0 0  M 90.0 0 100 0" stroke="black" fill="transparent"
                  transform="translate(224.000000 375.000000) rotate (89.619303 0 0) scale (1.003355 1)"/>
                  <path
                  d=" M 0 0 10.0 0  C 10.000000 -18.000000 23.333333 11.000000 23.333333 0  S 36.66666666666667 13.0 36.66666666666667 0  S 50.66666666666667 -12.0 50.66666666666667 0  S 64.66666666666667 12.0 64.66666666666667 0  S 78.66666666666667 -16.0 78.66666666666667 0  S 90.0 19.0 90.0 0  M 90.0 0 100 0" stroke="black" fill="transparent"
                  transform="translate(224.666667 475.333333) rotate (37.207922 0 0) scale (1.130020 1)"/>
                  <path
                  d=" M 0 0 10.0 0  C 10.000000 -13.000000 21.428571 11.000000 21.428571 0  S 32.85714285714286 14.0 32.85714285714286 0  S 44.85714285714286 -14.0 44.85714285714286 0  S 56.85714285714286 14.0 56.85714285714286 0  S 68.85714285714286 -13.0 68.85714285714286 0  S 80.85714285714286 11.0 80.85714285714286 0  S 90.0 13.0 90.0 0  M 90.0 0 100 0" stroke="black" fill="transparent"
                  transform="translate(314.666667 543.666667) rotate (18.266267 0 0) scale (1.074125 1)"/>
                  <path
                  d=" M 0 0 10.0 0  C 10.000000 -16.000000 26.000000 18.000000 26.000000 0  S 42.0 16.0 42.0 0  S 58.0 -12.0 58.0 0  S 74.0 16.0 74.0 0  S 90.0 14.0 90.0 0  M 90.0 0 100 0" stroke="black" fill="transparent"
                  transform="translate(416.666667 577.333333) rotate (-20.813649 0 0) scale (1.041287 1)"/>
                  <path
                  d=" M 0 0 10.0 0  C 10.000000 -16.000000 21.428571 17.000000 21.428571 0  S 32.85714285714286 11.0 32.85714285714286 0  S 44.85714285714286 -12.0 44.85714285714286 0  S 56.85714285714286 19.0 56.85714285714286 0  S 68.85714285714286 -16.0 68.85714285714286 0  S 80.85714285714286 16.0 80.85714285714286 0  S 90.0 13.0 90.0 0  M 90.0 0 100 0" stroke="black" fill="transparent"
                  transform="translate(205.000000 99.666667) rotate (34.350780 0 0) scale (0.561209 1)"/>
                  <path
                  d=" M 0 0 10.0 0  C 10.000000 -18.000000 26.000000 11.000000 26.000000 0  S 42.0 17.0 42.0 0  S 58.0 -15.0 58.0 0  S 74.0 11.0 74.0 0  S 90.0 13.0 90.0 0  M 90.0 0 100 0" stroke="black" fill="transparent"
                  transform="translate(212.333333 191.000000) rotate (-56.830113 0 0) scale (0.712819 1)"/>
                  <path
                  d=" M 0 0 10.0 0  C 10.000000 -14.000000 21.428571 19.000000 21.428571 0  S 32.85714285714286 10.0 32.85714285714286 0  S 44.85714285714286 -11.0 44.85714285714286 0  S 56.85714285714286 11.0 56.85714285714286 0  S 68.85714285714286 -14.0 68.85714285714286 0  S 80.85714285714286 12.0 80.85714285714286 0  S 90.0 19.0 90.0 0  M 90.0 0 100 0" stroke="black" fill="transparent"
                  transform="translate(141.666667 226.666667) rotate (-26.780853 0 0) scale (0.791574 1)"/>
                  <path
                  d=" M 0 0 10.0 0  C 10.000000 -15.000000 23.333333 16.000000 23.333333 0  S 36.66666666666667 16.0 36.66666666666667 0  S 50.66666666666667 -15.0 50.66666666666667 0  S 64.66666666666667 17.0 64.66666666666667 0  S 78.66666666666667 -13.0 78.66666666666667 0  S 90.0 18.0 90.0 0  M 90.0 0 100 0" stroke="black" fill="transparent"
                  transform="translate(105.666667 195.333333) rotate (41.035345 0 0) scale (0.477261 1)"/>
                  <path
                  d=" M 0 0 10.0 0  C 10.000000 -14.000000 20.000000 19.000000 20.000000 0  S 30.0 19.0 30.0 0  S 40.0 -11.0 40.0 0  S 50.0 12.0 50.0 0  S 60.0 -17.0 60.0 0  S 70.0 11.0 70.0 0  S 80.0 -17.0 80.0 0  S 90.0 11.0 90.0 0  M 90.0 0 100 0" stroke="black" fill="transparent"
                  transform="translate(101.333333 127.333333) rotate (86.353729 0 0) scale (0.681379 1)"/>
                  <path
                  d=" M 0 0 10.0 0  C 10.000000 -13.000000 20.000000 11.000000 20.000000 0  S 30.0 19.0 30.0 0  S 40.0 -16.0 40.0 0  S 50.0 16.0 50.0 0  S 60.0 -19.0 60.0 0  S 70.0 18.0 70.0 0  S 80.0 -14.0 80.0 0  S 90.0 14.0 90.0 0  M 90.0 0 100 0" stroke="black" fill="transparent"
                  transform="translate(101.333333 127.333333) rotate (-52.804099 0 0) scale (0.468674 1)"/>
                  <path
                  d=" M 0 0 10.0 0  C 10.000000 -11.000000 23.333333 12.000000 23.333333 0  S 36.66666666666667 19.0 36.66666666666667 0  S 50.66666666666667 -12.0 50.66666666666667 0  S 64.66666666666667 12.0 64.66666666666667 0  S 78.66666666666667 -14.0 78.66666666666667 0  S 90.0 13.0 90.0 0  M 90.0 0 100 0" stroke="black" fill="transparent"
                  transform="translate(129.666667 90.000000) rotate (7.312155 0 0) scale (0.759510 1)"/>
                  <path
                  d=" M 0 0 10.0 0  C 10.000000 -11.000000 21.428571 10.000000 21.428571 0  S 32.85714285714286 10.0 32.85714285714286 0  S 44.85714285714286 -16.0 44.85714285714286 0  S 56.85714285714286 19.0 56.85714285714286 0  S 68.85714285714286 -14.0 68.85714285714286 0  S 80.85714285714286 17.0 80.85714285714286 0  S 90.0 10.0 90.0 0  M 90.0 0 100 0" stroke="black" fill="transparent"
                  transform="translate(881.333333 67.333333) rotate (35.377006 0 0) scale (0.690901 1)"/>
                  <path
                  d=" M 0 0 10.0 0  C 10.000000 -19.000000 23.333333 16.000000 23.333333 0  S 36.66666666666667 15.0 36.66666666666667 0  S 50.66666666666667 -10.0 50.66666666666667 0  S 64.66666666666667 17.0 64.66666666666667 0  S 78.66666666666667 -18.0 78.66666666666667 0  S 90.0 19.0 90.0 0  M 90.0 0 100 0" stroke="black" fill="transparent"
                  transform="translate(937.666667 107.333333) rotate (65.344101 0 0) scale (0.671193 1)"/>
                  <path
                  d=" M 0 0 10.0 0  C 10.000000 -19.000000 26.000000 16.000000 26.000000 0  S 42.0 15.0 42.0 0  S 58.0 -10.0 58.0 0  S 74.0 16.0 74.0 0  S 90.0 15.0 90.0 0  M 90.0 0 100 0" stroke="black" fill="transparent"
                  transform="translate(965.666667 168.333333) rotate (86.896641 0 0) scale (0.554146 1)"/>
                  <path
                  d=" M 0 0 10.0 0  C 10.000000 -12.000000 23.333333 12.000000 23.333333 0  S 36.66666666666667 15.0 36.66666666666667 0  S 50.66666666666667 -14.0 50.66666666666667 0  S 64.66666666666667 15.0 64.66666666666667 0  S 78.66666666666667 -17.0 78.66666666666667 0  S 90.0 18.0 90.0 0  M 90.0 0 100 0" stroke="black" fill="transparent"
                  transform="translate(968.666667 223.666667) rotate (81.420934 0 0) scale (0.782084 1)"/>
                  <path
                  d=" M 0 0 10.0 0  C 10.000000 -15.000000 23.333333 18.000000 23.333333 0  S 36.66666666666667 13.0 36.66666666666667 0  S 50.66666666666667 -15.0 50.66666666666667 0  S 64.66666666666667 18.0 64.66666666666667 0  S 78.66666666666667 -14.0 78.66666666666667 0  S 90.0 19.0 90.0 0  M 90.0 0 100 0" stroke="black" fill="transparent"
                  transform="translate(881.333333 67.333333) rotate (67.038576 0 0) scale (2.537737 1)"/>
                  <path
                  d=" M 0 0 10.0 0  C 10.000000 -18.000000 23.333333 17.000000 23.333333 0  S 36.66666666666667 19.0 36.66666666666667 0  S 50.66666666666667 -18.0 50.66666666666667 0  S 64.66666666666667 11.0 64.66666666666667 0  S 78.66666666666667 -10.0 78.66666666666667 0  S 90.0 15.0 90.0 0  M 90.0 0 100 0" stroke="black" fill="transparent"
                  transform="translate(393.666667 813.333333) rotate (-88.768023 0 0) scale (0.620143 1)"/>
                  <path
                  d=" M 0 0 10.0 0  C 10.000000 -18.000000 21.428571 10.000000 21.428571 0  S 32.85714285714286 18.0 32.85714285714286 0  S 44.85714285714286 -14.0 44.85714285714286 0  S 56.85714285714286 18.0 56.85714285714286 0  S 68.85714285714286 -10.0 68.85714285714286 0  S 80.85714285714286 19.0 80.85714285714286 0  S 90.0 11.0 90.0 0  M 90.0 0 100 0" stroke="black" fill="transparent"
                  transform="translate(393.666667 813.333333) rotate (23.404690 0 0) scale (0.486712 1)"/>
                  <path
                  d=" M 0 0 10.0 0  C 10.000000 -12.000000 23.333333 12.000000 23.333333 0  S 36.66666666666667 13.0 36.66666666666667 0  S 50.66666666666667 -10.0 50.66666666666667 0  S 64.66666666666667 18.0 64.66666666666667 0  S 78.66666666666667 -10.0 78.66666666666667 0  S 90.0 17.0 90.0 0  M 90.0 0 100 0" stroke="black" fill="transparent"
                  transform="translate(438.333333 832.666667) rotate (-24.663815 0 0) scale (0.718919 1)"/>
                  <path
                  d=" M 0 0 10.0 0  C 10.000000 -14.000000 26.000000 13.000000 26.000000 0  S 42.0 11.0 42.0 0  S 58.0 -11.0 58.0 0  S 74.0 11.0 74.0 0  S 90.0 15.0 90.0 0  M 90.0 0 100 0" stroke="black" fill="transparent"
                  transform="translate(503.666667 802.666667) rotate (-89.690296 0 0) scale (0.616676 1)"/>
                  <path
                  d=" M 0 0 10.0 0  C 10.000000 -17.000000 21.428571 13.000000 21.428571 0  S 32.85714285714286 14.0 32.85714285714286 0  S 44.85714285714286 -18.0 44.85714285714286 0  S 56.85714285714286 18.0 56.85714285714286 0  S 68.85714285714286 -15.0 68.85714285714286 0  S 80.85714285714286 15.0 80.85714285714286 0  S 90.0 15.0 90.0 0  M 90.0 0 100 0" stroke="black" fill="transparent"
                  transform="translate(440.000000 709.000000) rotate (26.565051 0 0) scale (0.715542 1)"/>
                  <path
                  d=" M 0 0 10.0 0  C 10.000000 -18.000000 26.000000 19.000000 26.000000 0  S 42.0 13.0 42.0 0  S 58.0 -18.0 58.0 0  S 74.0 12.0 74.0 0  S 90.0 15.0 90.0 0  M 90.0 0 100 0" stroke="black" fill="transparent"
                  transform="translate(395.000000 751.333333) rotate (-43.251054 0 0) scale (0.617828 1)"/>
                  <path
                  d=" M 0 0 10.0 0  C 10.000000 -19.000000 21.428571 11.000000 21.428571 0  S 32.85714285714286 15.0 32.85714285714286 0  S 44.85714285714286 -18.0 44.85714285714286 0  S 56.85714285714286 11.0 56.85714285714286 0  S 68.85714285714286 -13.0 68.85714285714286 0  S 80.85714285714286 18.0 80.85714285714286 0  S 90.0 15.0 90.0 0  M 90.0 0 100 0" stroke="black" fill="transparent"
                  transform="translate(672.666667 465.666667) rotate (-49.930243 0 0) scale (0.740488 1)"/>
                  <path
                  d=" M 0 0 10.0 0  C 10.000000 -17.000000 21.428571 13.000000 21.428571 0  S 32.85714285714286 11.0 32.85714285714286 0  S 44.85714285714286 -10.0 44.85714285714286 0  S 56.85714285714286 16.0 56.85714285714286 0  S 68.85714285714286 -14.0 68.85714285714286 0  S 80.85714285714286 18.0 80.85714285714286 0  S 90.0 18.0 90.0 0  M 90.0 0 100 0" stroke="black" fill="transparent"
                  transform="translate(575.000000 446.333333) rotate (11.197072 0 0) scale (0.995618 1)"/>
                  <path
                  d=" M 0 0 10.0 0  C 10.000000 -19.000000 26.000000 16.000000 26.000000 0  S 42.0 18.0 42.0 0  S 58.0 -14.0 58.0 0  S 74.0 15.0 74.0 0  S 90.0 19.0 90.0 0  M 90.0 0 100 0" stroke="black" fill="transparent"
                  transform="translate(555.666667 314.333333) rotate (-24.502659 0 0) scale (1.076992 1)"/>
                  <path
                  d=" M 0 0 10.0 0  C 10.000000 -17.000000 21.428571 17.000000 21.428571 0  S 32.85714285714286 18.0 32.85714285714286 0  S 44.85714285714286 -14.0 44.85714285714286 0  S 56.85714285714286 17.0 56.85714285714286 0  S 68.85714285714286 -10.0 68.85714285714286 0  S 80.85714285714286 11.0 80.85714285714286 0  S 90.0 18.0 90.0 0  M 90.0 0 100 0" stroke="black" fill="transparent"
                  transform="translate(653.666667 269.666667) rotate (31.739141 0 0) scale (0.760380 1)"/>
                  <path
                  d=" M 0 0 10.0 0  C 10.000000 -12.000000 20.000000 19.000000 20.000000 0  S 30.0 18.0 30.0 0  S 40.0 -16.0 40.0 0  S 50.0 18.0 50.0 0  S 60.0 -19.0 60.0 0  S 70.0 17.0 70.0 0  S 80.0 -14.0 80.0 0  S 90.0 17.0 90.0 0  M 90.0 0 100 0" stroke="black" fill="transparent"
                  transform="translate(718.333333 309.666667) rotate (49.085617 0 0) scale (0.529318 1)"/>
                  <path
                  d=" M 0 0 10.0 0  C 10.000000 -13.000000 23.333333 10.000000 23.333333 0  S 36.66666666666667 11.0 36.66666666666667 0  S 50.66666666666667 -13.0 50.66666666666667 0  S 64.66666666666667 18.0 64.66666666666667 0  S 78.66666666666667 -16.0 78.66666666666667 0  S 90.0 19.0 90.0 0  M 90.0 0 100 0" stroke="black" fill="transparent"
                  transform="translate(720.333333 409.000000) rotate (-61.164499 0 0) scale (0.677315 1)"/>
                  <path
                  d=" M 0 0 10.0 0  C 10.000000 -17.000000 26.000000 16.000000 26.000000 0  S 42.0 11.0 42.0 0  S 58.0 -19.0 58.0 0  S 74.0 17.0 74.0 0  S 90.0 17.0 90.0 0  M 90.0 0 100 0" stroke="black" fill="transparent"
                  transform="translate(639.666667 137.000000) rotate (-1.397181 0 0) scale (0.546829 1)"/>
                  <path
                  d=" M 0 0 10.0 0  C 10.000000 -19.000000 26.000000 10.000000 26.000000 0  S 42.0 18.0 42.0 0  S 58.0 -15.0 58.0 0  S 74.0 14.0 74.0 0  S 90.0 18.0 90.0 0  M 90.0 0 100 0" stroke="black" fill="transparent"
                  transform="translate(694.333333 135.666667) rotate (-41.580017 0 0) scale (0.592668 1)"/>
                  <path
                  d=" M 0 0 10.0 0  C 10.000000 -18.000000 26.000000 13.000000 26.000000 0  S 42.0 13.0 42.0 0  S 58.0 -17.0 58.0 0  S 74.0 15.0 74.0 0  S 90.0 12.0 90.0 0  M 90.0 0 100 0" stroke="black" fill="transparent"
                  transform="translate(639.666667 137.000000) rotate (-22.331604 0 0) scale (1.070270 1)"/>
                  <path
                  d=" M 0 0 10.0 0  C 10.000000 -16.000000 26.000000 11.000000 26.000000 0  S 42.0 19.0 42.0 0  S 58.0 -15.0 58.0 0  S 74.0 11.0 74.0 0  S 90.0 17.0 90.0 0  M 90.0 0 100 0" stroke="black" fill="transparent"
                  transform="translate(938.000000 840.666667) rotate (42.302194 0 0) scale (0.450691 1)"/>
                  <path
                  d=" M 0 0 10.0 0  C 10.000000 -12.000000 26.000000 11.000000 26.000000 0  S 42.0 17.0 42.0 0  S 58.0 -11.0 58.0 0  S 74.0 11.0 74.0 0  S 90.0 16.0 90.0 0  M 90.0 0 100 0" stroke="black" fill="transparent"
                  transform="translate(971.333333 871.000000) rotate (-83.510834 0 0) scale (0.707868 1)"/>
                  <path
                  d=" M 0 0 10.0 0  C 10.000000 -10.000000 20.000000 17.000000 20.000000 0  S 30.0 16.0 30.0 0  S 40.0 -19.0 40.0 0  S 50.0 18.0 50.0 0  S 60.0 -16.0 60.0 0  S 70.0 15.0 70.0 0  S 80.0 -15.0 80.0 0  S 90.0 10.0 90.0 0  M 90.0 0 100 0" stroke="black" fill="transparent"
                  transform="translate(938.000000 730.666667) rotate (59.439161 0 0) scale (0.812923 1)"/>
                  <path
                  d=" M 0 0 10.0 0  C 10.000000 -11.000000 23.333333 10.000000 23.333333 0  S 36.66666666666667 16.0 36.66666666666667 0  S 50.66666666666667 -19.0 50.66666666666667 0  S 64.66666666666667 18.0 64.66666666666667 0  S 78.66666666666667 -11.0 78.66666666666667 0  S 90.0 12.0 90.0 0  M 90.0 0 100 0" stroke="black" fill="transparent"
                  transform="translate(909.666667 798.000000) rotate (-67.179027 0 0) scale (0.730517 1)"/>
                  <path
                  d=" M 0 0 10.0 0  C 10.000000 -13.000000 21.428571 12.000000 21.428571 0  S 32.85714285714286 14.0 32.85714285714286 0  S 44.85714285714286 -10.0 44.85714285714286 0  S 56.85714285714286 16.0 56.85714285714286 0  S 68.85714285714286 -17.0 68.85714285714286 0  S 80.85714285714286 14.0 80.85714285714286 0  S 90.0 13.0 90.0 0  M 90.0 0 100 0" stroke="black" fill="transparent"
                  transform="translate(909.666667 798.000000) rotate (56.413354 0 0) scale (0.512174 1)"/>
                  <path
                  d=" M 0 0 10.0 0  C 10.000000 -19.000000 20.000000 11.000000 20.000000 0  S 30.0 12.0 30.0 0  S 40.0 -16.0 40.0 0  S 50.0 13.0 50.0 0  S 60.0 -17.0 60.0 0  S 70.0 15.0 70.0 0  S 80.0 -19.0 80.0 0  S 90.0 12.0 90.0 0  M 90.0 0 100 0" stroke="black" fill="transparent"
                  transform="translate(951.333333 618.333333) rotate (-86.308614 0 0) scale (0.621289 1)"/>
                  <path
                  d=" M 0 0 10.0 0  C 10.000000 -18.000000 23.333333 17.000000 23.333333 0  S 36.66666666666667 11.0 36.66666666666667 0  S 50.66666666666667 -19.0 50.66666666666667 0  S 64.66666666666667 15.0 64.66666666666667 0  S 78.66666666666667 -19.0 78.66666666666667 0  S 90.0 17.0 90.0 0  M 90.0 0 100 0" stroke="black" fill="transparent"
                  transform="translate(951.333333 618.333333) rotate (73.635082 0 0) scale (1.313202 1)"/>
                  <path
                  d=" M 0 0 10.0 0  C 10.000000 -18.000000 23.333333 11.000000 23.333333 0  S 36.66666666666667 13.0 36.66666666666667 0  S 50.66666666666667 -12.0 50.66666666666667 0  S 64.66666666666667 17.0 64.66666666666667 0  S 78.66666666666667 -15.0 78.66666666666667 0  S 90.0 18.0 90.0 0  M 90.0 0 100 0" stroke="black" fill="transparent"
                  transform="translate(955.333333 556.333333) rotate (80.044186 0 0) scale (1.908743 1)"/>
                  <path
                  d=" M 0 0 10.0 0  C 10.000000 -15.000000 26.000000 10.000000 26.000000 0  S 42.0 14.0 42.0 0  S 58.0 -19.0 58.0 0  S 74.0 18.0 74.0 0  S 90.0 17.0 90.0 0  M 90.0 0 100 0" stroke="black" fill="transparent"
                  transform="translate(315.333333 938.666667) rotate (-54.877836 0 0) scale (0.480890 1)"/>
                  <path
                  d=" M 0 0 10.0 0  C 10.000000 -13.000000 20.000000 18.000000 20.000000 0  S 30.0 19.0 30.0 0  S 40.0 -11.0 40.0 0  S 50.0 15.0 50.0 0  S 60.0 -14.0 60.0 0  S 70.0 12.0 70.0 0  S 80.0 -14.0 80.0 0  S 90.0 13.0 90.0 0  M 90.0 0 100 0" stroke="black" fill="transparent"
                  transform="translate(246.000000 942.333333) rotate (-3.027245 0 0) scale (0.694302 1)"/>
                  <path
                  d=" M 0 0 10.0 0  C 10.000000 -13.000000 26.000000 17.000000 26.000000 0  S 42.0 16.0 42.0 0  S 58.0 -12.0 58.0 0  S 74.0 10.0 74.0 0  S 90.0 11.0 90.0 0  M 90.0 0 100 0" stroke="black" fill="transparent"
                  transform="translate(208.000000 908.666667) rotate (41.539817 0 0) scale (0.507685 1)"/>
                  <path
                  d=" M 0 0 10.0 0  C 10.000000 -14.000000 21.428571 12.000000 21.428571 0  S 32.85714285714286 10.0 32.85714285714286 0  S 44.85714285714286 -18.0 44.85714285714286 0  S 56.85714285714286 18.0 56.85714285714286 0  S 68.85714285714286 -18.0 68.85714285714286 0  S 80.85714285714286 11.0 80.85714285714286 0  S 90.0 13.0 90.0 0  M 90.0 0 100 0" stroke="black" fill="transparent"
                  transform="translate(208.000000 908.666667) rotate (-64.255078 0 0) scale (0.729033 1)"/>
                  <path
                  d=" M 0 0 10.0 0  C 10.000000 -18.000000 20.000000 10.000000 20.000000 0  S 30.0 18.0 30.0 0  S 40.0 -11.0 40.0 0  S 50.0 10.0 50.0 0  S 60.0 -10.0 60.0 0  S 70.0 18.0 70.0 0  S 80.0 -16.0 80.0 0  S 90.0 10.0 90.0 0  M 90.0 0 100 0" stroke="black" fill="transparent"
                  transform="translate(239.666667 843.000000) rotate (-22.319440 0 0) scale (0.684625 1)"/>
                  <path
                  d=" M 0 0 10.0 0  C 10.000000 -15.000000 20.000000 10.000000 20.000000 0  S 30.0 17.0 30.0 0  S 40.0 -18.0 40.0 0  S 50.0 12.0 50.0 0  S 60.0 -10.0 60.0 0  S 70.0 15.0 70.0 0  S 80.0 -11.0 80.0 0  S 90.0 16.0 90.0 0  M 90.0 0 100 0" stroke="black" fill="transparent"
                  transform="translate(303.000000 817.000000) rotate (43.111812 0 0) scale (0.429211 1)"/>
                  <path
                  d=" M 0 0 10.0 0  C 10.000000 -14.000000 20.000000 12.000000 20.000000 0  S 30.0 15.0 30.0 0  S 40.0 -14.0 40.0 0  S 50.0 18.0 50.0 0  S 60.0 -15.0 60.0 0  S 70.0 12.0 70.0 0  S 80.0 -16.0 80.0 0  S 90.0 13.0 90.0 0  M 90.0 0 100 0" stroke="black" fill="transparent"
                  transform="translate(334.333333 846.333333) rotate (80.713072 0 0) scale (0.537039 1)"/>
                  <path
                  d=" M 0 0 10.0 0  C 10.000000 -19.000000 26.000000 13.000000 26.000000 0  S 42.0 19.0 42.0 0  S 58.0 -15.0 58.0 0  S 74.0 11.0 74.0 0  S 90.0 13.0 90.0 0  M 90.0 0 100 0" stroke="black" fill="transparent"
                  transform="translate(936.666667 939.333333) rotate (-63.100541 0 0) scale (0.766239 1)"/>
                  <path
                  d=" M 0 0 10.0 0  C 10.000000 -11.000000 20.000000 18.000000 20.000000 0  S 30.0 19.0 30.0 0  S 40.0 -17.0 40.0 0  S 50.0 10.0 50.0 0  S 60.0 -18.0 60.0 0  S 70.0 12.0 70.0 0  S 80.0 -13.0 80.0 0  S 90.0 14.0 90.0 0  M 90.0 0 100 0" stroke="black" fill="transparent"
                  transform="translate(979.333333 800.666667) rotate (-80.922946 0 0) scale (0.570477 1)"/>
                  <path
                  d=" M 0 0 10.0 0  C 10.000000 -13.000000 20.000000 12.000000 20.000000 0  S 30.0 15.0 30.0 0  S 40.0 -15.0 40.0 0  S 50.0 18.0 50.0 0  S 60.0 -10.0 60.0 0  S 70.0 11.0 70.0 0  S 80.0 -16.0 80.0 0  S 90.0 15.0 90.0 0  M 90.0 0 100 0" stroke="black" fill="transparent"
                  transform="translate(936.666667 939.333333) rotate (-75.160061 0 0) scale (2.017286 1)"/>
                  <path
                  d=" M 0 0 10.0 0  C 10.000000 -18.000000 26.000000 12.000000 26.000000 0  S 42.0 15.0 42.0 0  S 58.0 -13.0 58.0 0  S 74.0 10.0 74.0 0  S 90.0 11.0 90.0 0  M 90.0 0 100 0" stroke="black" fill="transparent"
                  transform="translate(100.333333 942.000000) rotate (20.738709 0 0) scale (0.734242 1)"/>
                  <path
                  d=" M 0 0 10.0 0  C 10.000000 -12.000000 26.000000 10.000000 26.000000 0  S 42.0 13.0 42.0 0  S 58.0 -10.0 58.0 0  S 74.0 11.0 74.0 0  S 90.0 17.0 90.0 0  M 90.0 0 100 0" stroke="black" fill="transparent"
                  transform="translate(824.666667 319.000000) rotate (-73.084240 0 0) scale (0.675911 1)"/>
                  <path
                  d=" M 0 0 10.0 0  C 10.000000 -10.000000 20.000000 12.000000 20.000000 0  S 30.0 15.0 30.0 0  S 40.0 -15.0 40.0 0  S 50.0 17.0 50.0 0  S 60.0 -13.0 60.0 0  S 70.0 13.0 70.0 0  S 80.0 -13.0 80.0 0  S 90.0 11.0 90.0 0  M 90.0 0 100 0" stroke="black" fill="transparent"
                  transform="translate(803.000000 209.333333) rotate (47.431950 0 0) scale (0.611019 1)"/>
                  <path
                  d=" M 0 0 10.0 0  C 10.000000 -15.000000 26.000000 12.000000 26.000000 0  S 42.0 12.0 42.0 0  S 58.0 -17.0 58.0 0  S 74.0 15.0 74.0 0  S 90.0 10.0 90.0 0  M 90.0 0 100 0" stroke="black" fill="transparent"
                  transform="translate(748.666667 234.000000) rotate (-24.417466 0 0) scale (0.596704 1)"/>
                  <path
                  d=" M 0 0 10.0 0  C 10.000000 -12.000000 20.000000 17.000000 20.000000 0  S 30.0 12.0 30.0 0  S 40.0 -10.0 40.0 0  S 50.0 19.0 50.0 0  S 60.0 -10.0 60.0 0  S 70.0 12.0 70.0 0  S 80.0 -11.0 80.0 0  S 90.0 15.0 90.0 0  M 90.0 0 100 0" stroke="black" fill="transparent"
                  transform="translate(718.333333 309.666667) rotate (-68.155086 0 0) scale (0.815203 1)"/>
                  <path
                  d=" M 0 0 10.0 0  C 10.000000 -11.000000 26.000000 14.000000 26.000000 0  S 42.0 10.0 42.0 0  S 58.0 -15.0 58.0 0  S 74.0 10.0 74.0 0  S 90.0 12.0 90.0 0  M 90.0 0 100 0" stroke="black" fill="transparent"
                  transform="translate(753.000000 349.666667) rotate (-23.166420 0 0) scale (0.779523 1)"/>
                  <path
                  d=" M 0 0 10.0 0  C 10.000000 -15.000000 20.000000 12.000000 20.000000 0  S 30.0 14.0 30.0 0  S 40.0 -16.0 40.0 0  S 50.0 17.0 50.0 0  S 60.0 -12.0 60.0 0  S 70.0 17.0 70.0 0  S 80.0 -16.0 80.0 0  S 90.0 14.0 90.0 0  M 90.0 0 100 0" stroke="black" fill="transparent"
                  transform="translate(205.333333 737.333333) rotate (-37.385288 0 0) scale (0.444685 1)"/>
                  <path
                  d=" M 0 0 10.0 0  C 10.000000 -11.000000 20.000000 15.000000 20.000000 0  S 30.0 16.0 30.0 0  S 40.0 -16.0 40.0 0  S 50.0 10.0 50.0 0  S 60.0 -15.0 60.0 0  S 70.0 18.0 70.0 0  S 80.0 -10.0 80.0 0  S 90.0 17.0 90.0 0  M 90.0 0 100 0" stroke="black" fill="transparent"
                  transform="translate(240.666667 710.333333) rotate (-9.793827 0 0) scale (0.568282 1)"/>
                  <path
                  d=" M 0 0 10.0 0  C 10.000000 -18.000000 23.333333 14.000000 23.333333 0  S 36.66666666666667 12.0 36.66666666666667 0  S 50.66666666666667 -15.0 50.66666666666667 0  S 64.66666666666667 12.0 64.66666666666667 0  S 78.66666666666667 -16.0 78.66666666666667 0  S 90.0 11.0 90.0 0  M 90.0 0 100 0" stroke="black" fill="transparent"
                  transform="translate(296.666667 700.666667) rotate (53.583621 0 0) scale (0.505349 1)"/>
                  <path
                  d=" M 0 0 10.0 0  C 10.000000 -17.000000 26.000000 17.000000 26.000000 0  S 42.0 15.0 42.0 0  S 58.0 -12.0 58.0 0  S 74.0 14.0 74.0 0  S 90.0 19.0 90.0 0  M 90.0 0 100 0" stroke="black" fill="transparent"
                  transform="translate(303.000000 817.000000) rotate (-72.631605 0 0) scale (0.792815 1)"/>
                  <path
                  d=" M 0 0 10.0 0  C 10.000000 -16.000000 21.428571 18.000000 21.428571 0  S 32.85714285714286 15.0 32.85714285714286 0  S 44.85714285714286 -12.0 44.85714285714286 0  S 56.85714285714286 13.0 56.85714285714286 0  S 68.85714285714286 -15.0 68.85714285714286 0  S 80.85714285714286 18.0 80.85714285714286 0  S 90.0 12.0 90.0 0  M 90.0 0 100 0" stroke="black" fill="transparent"
                  transform="translate(194.333333 795.333333) rotate (46.437227 0 0) scale (0.657816 1)"/>
                  <path
                  d=" M 0 0 10.0 0  C 10.000000 -17.000000 20.000000 18.000000 20.000000 0  S 30.0 18.0 30.0 0  S 40.0 -12.0 40.0 0  S 50.0 18.0 50.0 0  S 60.0 -16.0 60.0 0  S 70.0 16.0 70.0 0  S 80.0 -12.0 80.0 0  S 90.0 17.0 90.0 0  M 90.0 0 100 0" stroke="black" fill="transparent"
                  transform="translate(194.333333 795.333333) rotate (-79.261103 0 0) scale (0.590339 1)"/>
                  <path
                  d=" M 0 0 10.0 0  C 10.000000 -13.000000 20.000000 14.000000 20.000000 0  S 30.0 14.0 30.0 0  S 40.0 -10.0 40.0 0  S 50.0 15.0 50.0 0  S 60.0 -13.0 60.0 0  S 70.0 13.0 70.0 0  S 80.0 -18.0 80.0 0  S 90.0 16.0 90.0 0  M 90.0 0 100 0" stroke="black" fill="transparent"
                  transform="translate(212.333333 191.000000) rotate (45.598055 0 0) scale (1.129075 1)"/>
                  <path
                  d=" M 0 0 10.0 0  C 10.000000 -13.000000 21.428571 11.000000 21.428571 0  S 32.85714285714286 19.0 32.85714285714286 0  S 44.85714285714286 -18.0 44.85714285714286 0  S 56.85714285714286 18.0 56.85714285714286 0  S 68.85714285714286 -15.0 68.85714285714286 0  S 80.85714285714286 13.0 80.85714285714286 0  S 90.0 14.0 90.0 0  M 90.0 0 100 0" stroke="black" fill="transparent"
                  transform="translate(328.333333 104.000000) rotate (71.782905 0 0) scale (1.108913 1)"/>
                  <path
                  d=" M 0 0 10.0 0  C 10.000000 -12.000000 26.000000 18.000000 26.000000 0  S 42.0 13.0 42.0 0  S 58.0 -18.0 58.0 0  S 74.0 16.0 74.0 0  S 90.0 17.0 90.0 0  M 90.0 0 100 0" stroke="black" fill="transparent"
                  transform="translate(251.333333 131.333333) rotate (-19.543761 0 0) scale (0.817075 1)"/>
                  <path
                  d=" M 0 0 10.0 0  C 10.000000 -15.000000 20.000000 18.000000 20.000000 0  S 30.0 11.0 30.0 0  S 40.0 -17.0 40.0 0  S 50.0 11.0 50.0 0  S 60.0 -10.0 60.0 0  S 70.0 17.0 70.0 0  S 80.0 -13.0 80.0 0  S 90.0 19.0 90.0 0  M 90.0 0 100 0" stroke="black" fill="transparent"
                  transform="translate(940.666667 407.000000) rotate (-69.483455 0 0) scale (1.131788 1)"/>
                  <path
                  d=" M 0 0 10.0 0  C 10.000000 -19.000000 26.000000 17.000000 26.000000 0  S 42.0 11.0 42.0 0  S 58.0 -16.0 58.0 0  S 74.0 11.0 74.0 0  S 90.0 12.0 90.0 0  M 90.0 0 100 0" stroke="black" fill="transparent"
                  transform="translate(908.000000 454.333333) rotate (-55.388858 0 0) scale (0.575114 1)"/>
                  <path
                  d=" M 0 0 10.0 0  C 10.000000 -12.000000 21.428571 11.000000 21.428571 0  S 32.85714285714286 16.0 32.85714285714286 0  S 44.85714285714286 -11.0 44.85714285714286 0  S 56.85714285714286 11.0 56.85714285714286 0  S 68.85714285714286 -12.0 68.85714285714286 0  S 80.85714285714286 10.0 80.85714285714286 0  S 90.0 14.0 90.0 0  M 90.0 0 100 0" stroke="black" fill="transparent"
                  transform="translate(908.000000 454.333333) rotate (86.913511 0 0) scale (0.680988 1)"/>
                  <path
                  d=" M 0 0 10.0 0  C 10.000000 -10.000000 21.428571 14.000000 21.428571 0  S 32.85714285714286 10.0 32.85714285714286 0  S 44.85714285714286 -11.0 44.85714285714286 0  S 56.85714285714286 11.0 56.85714285714286 0  S 68.85714285714286 -16.0 68.85714285714286 0  S 80.85714285714286 19.0 80.85714285714286 0  S 90.0 15.0 90.0 0  M 90.0 0 100 0" stroke="black" fill="transparent"
                  transform="translate(911.666667 522.333333) rotate (37.905251 0 0) scale (0.553424 1)"/>
                  <path
                  d=" M 0 0 10.0 0  C 10.000000 -13.000000 21.428571 13.000000 21.428571 0  S 32.85714285714286 16.0 32.85714285714286 0  S 44.85714285714286 -14.0 44.85714285714286 0  S 56.85714285714286 19.0 56.85714285714286 0  S 68.85714285714286 -18.0 68.85714285714286 0  S 80.85714285714286 15.0 80.85714285714286 0  S 90.0 16.0 90.0 0  M 90.0 0 100 0" stroke="black" fill="transparent"
                  transform="translate(955.333333 556.333333) rotate (-84.407924 0 0) scale (2.565543 1)"/>
                  <path
                  d=" M 0 0 10.0 0  C 10.000000 -12.000000 21.428571 17.000000 21.428571 0  S 32.85714285714286 15.0 32.85714285714286 0  S 44.85714285714286 -14.0 44.85714285714286 0  S 56.85714285714286 10.0 56.85714285714286 0  S 68.85714285714286 -13.0 68.85714285714286 0  S 80.85714285714286 18.0 80.85714285714286 0  S 90.0 11.0 90.0 0  M 90.0 0 100 0" stroke="black" fill="transparent"
                  transform="translate(268.666667 633.666667) rotate (67.319440 0 0) scale (0.726154 1)"/>
                  <path
                  d=" M 0 0 10.0 0  C 10.000000 -19.000000 21.428571 16.000000 21.428571 0  S 32.85714285714286 11.0 32.85714285714286 0  S 44.85714285714286 -12.0 44.85714285714286 0  S 56.85714285714286 12.0 56.85714285714286 0  S 68.85714285714286 -19.0 68.85714285714286 0  S 80.85714285714286 15.0 80.85714285714286 0  S 90.0 10.0 90.0 0  M 90.0 0 100 0" stroke="black" fill="transparent"
                  transform="translate(212.666667 643.333333) rotate (67.319440 0 0) scale (0.726154 1)"/>
                  <path
                  d=" M 0 0 10.0 0  C 10.000000 -16.000000 20.000000 12.000000 20.000000 0  S 30.0 17.0 30.0 0  S 40.0 -14.0 40.0 0  S 50.0 13.0 50.0 0  S 60.0 -12.0 60.0 0  S 70.0 16.0 70.0 0  S 80.0 -10.0 80.0 0  S 90.0 18.0 90.0 0  M 90.0 0 100 0" stroke="black" fill="transparent"
                  transform="translate(212.666667 643.333333) rotate (-9.793827 0 0) scale (0.568282 1)"/>
                  <path
                  d=" M 0 0 10.0 0  C 10.000000 -15.000000 20.000000 17.000000 20.000000 0  S 30.0 10.0 30.0 0  S 40.0 -11.0 40.0 0  S 50.0 10.0 50.0 0  S 60.0 -14.0 60.0 0  S 70.0 14.0 70.0 0  S 80.0 -11.0 80.0 0  S 90.0 18.0 90.0 0  M 90.0 0 100 0" stroke="black" fill="transparent"
                  transform="translate(903.333333 909.000000) rotate (42.302194 0 0) scale (0.450691 1)"/>
                  <path
                  d=" M 0 0 10.0 0  C 10.000000 -11.000000 26.000000 13.000000 26.000000 0  S 42.0 13.0 42.0 0  S 58.0 -10.0 58.0 0  S 74.0 13.0 74.0 0  S 90.0 19.0 90.0 0  M 90.0 0 100 0" stroke="black" fill="transparent"
                  transform="translate(843.333333 904.000000) rotate (4.763642 0 0) scale (0.602080 1)"/>
                  <path
                  d=" M 0 0 10.0 0  C 10.000000 -16.000000 26.000000 11.000000 26.000000 0  S 42.0 17.0 42.0 0  S 58.0 -12.0 58.0 0  S 74.0 15.0 74.0 0  S 90.0 12.0 90.0 0  M 90.0 0 100 0" stroke="black" fill="transparent"
                  transform="translate(800.666667 937.333333) rotate (-37.998732 0 0) scale (0.541438 1)"/>
                  <path
                  d=" M 0 0 10.0 0  C 10.000000 -17.000000 21.428571 19.000000 21.428571 0  S 32.85714285714286 12.0 32.85714285714286 0  S 44.85714285714286 -14.0 44.85714285714286 0  S 56.85714285714286 15.0 56.85714285714286 0  S 68.85714285714286 -15.0 68.85714285714286 0  S 80.85714285714286 19.0 80.85714285714286 0  S 90.0 12.0 90.0 0  M 90.0 0 100 0" stroke="black" fill="transparent"
                  transform="translate(800.666667 937.333333) rotate (0.842524 0 0) scale (1.360147 1)"/>
                  <path
                  d=" M 0 0 10.0 0  C 10.000000 -11.000000 26.000000 11.000000 26.000000 0  S 42.0 19.0 42.0 0  S 58.0 -11.0 58.0 0  S 74.0 11.0 74.0 0  S 90.0 19.0 90.0 0  M 90.0 0 100 0" stroke="black" fill="transparent"
                  transform="translate(904.000000 639.000000) rotate (-23.587031 0 0) scale (0.516484 1)"/>
                  <path
                  d=" M 0 0 10.0 0  C 10.000000 -18.000000 20.000000 11.000000 20.000000 0  S 30.0 14.0 30.0 0  S 40.0 -17.0 40.0 0  S 50.0 16.0 50.0 0  S 60.0 -11.0 60.0 0  S 70.0 17.0 70.0 0  S 80.0 -14.0 80.0 0  S 90.0 18.0 90.0 0  M 90.0 0 100 0" stroke="black" fill="transparent"
                  transform="translate(899.666667 695.000000) rotate (-85.575216 0 0) scale (0.561674 1)"/>
                  <path
                  d=" M 0 0 10.0 0  C 10.000000 -19.000000 21.428571 14.000000 21.428571 0  S 32.85714285714286 14.0 32.85714285714286 0  S 44.85714285714286 -19.0 44.85714285714286 0  S 56.85714285714286 14.0 56.85714285714286 0  S 68.85714285714286 -15.0 68.85714285714286 0  S 80.85714285714286 18.0 80.85714285714286 0  S 90.0 11.0 90.0 0  M 90.0 0 100 0" stroke="black" fill="transparent"
                  transform="translate(899.666667 695.000000) rotate (42.936180 0 0) scale (0.523599 1)"/>
                  <path
                  d=" M 0 0 10.0 0  C 10.000000 -10.000000 26.000000 15.000000 26.000000 0  S 42.0 17.0 42.0 0  S 58.0 -12.0 58.0 0  S 74.0 16.0 74.0 0  S 90.0 10.0 90.0 0  M 90.0 0 100 0" stroke="black" fill="transparent"
                  transform="translate(903.333333 909.000000) rotate (-63.100541 0 0) scale (0.766239 1)"/>
                  <path
                  d=" M 0 0 10.0 0  C 10.000000 -10.000000 23.333333 10.000000 23.333333 0  S 36.66666666666667 13.0 36.66666666666667 0  S 50.66666666666667 -13.0 50.66666666666667 0  S 64.66666666666667 11.0 64.66666666666667 0  S 78.66666666666667 -14.0 78.66666666666667 0  S 90.0 10.0 90.0 0  M 90.0 0 100 0" stroke="black" fill="transparent"
                  transform="translate(560.333333 977.666667) rotate (-40.827016 0 0) scale (0.550646 1)"/>
                  <path
                  d=" M 0 0 10.0 0  C 10.000000 -15.000000 26.000000 12.000000 26.000000 0  S 42.0 18.0 42.0 0  S 58.0 -18.0 58.0 0  S 74.0 19.0 74.0 0  S 90.0 16.0 90.0 0  M 90.0 0 100 0" stroke="black" fill="transparent"
                  transform="translate(602.000000 941.666667) rotate (-27.536073 0 0) scale (0.439823 1)"/>
                  <path
                  d=" M 0 0 10.0 0  C 10.000000 -11.000000 23.333333 18.000000 23.333333 0  S 36.66666666666667 11.0 36.66666666666667 0  S 50.66666666666667 -17.0 50.66666666666667 0  S 64.66666666666667 10.0 64.66666666666667 0  S 78.66666666666667 -18.0 78.66666666666667 0  S 90.0 13.0 90.0 0  M 90.0 0 100 0" stroke="black" fill="transparent"
                  transform="translate(641.000000 921.333333) rotate (25.691327 0 0) scale (0.684316 1)"/>
                  <path
                  d=" M 0 0 10.0 0  C 10.000000 -16.000000 26.000000 19.000000 26.000000 0  S 42.0 15.0 42.0 0  S 58.0 -14.0 58.0 0  S 74.0 12.0 74.0 0  S 90.0 15.0 90.0 0  M 90.0 0 100 0" stroke="black" fill="transparent"
                  transform="translate(560.333333 977.666667) rotate (-10.611553 0 0) scale (1.448098 1)"/>
                  <path
                  d=" M 0 0 10.0 0  C 10.000000 -19.000000 26.000000 10.000000 26.000000 0  S 42.0 16.0 42.0 0  S 58.0 -18.0 58.0 0  S 74.0 15.0 74.0 0  S 90.0 16.0 90.0 0  M 90.0 0 100 0" stroke="black" fill="transparent"
                  transform="translate(755.333333 442.000000) rotate (11.309932 0 0) scale (0.577889 1)"/>
                  <path
                  d=" M 0 0 10.0 0  C 10.000000 -14.000000 23.333333 15.000000 23.333333 0  S 36.66666666666667 17.0 36.66666666666667 0  S 50.66666666666667 -18.0 50.66666666666667 0  S 64.66666666666667 19.0 64.66666666666667 0  S 78.66666666666667 -13.0 78.66666666666667 0  S 90.0 17.0 90.0 0  M 90.0 0 100 0" stroke="black" fill="transparent"
                  transform="translate(810.000000 512.333333) rotate (-88.058514 0 0) scale (0.590339 1)"/>
                  <path
                  d=" M 0 0 10.0 0  C 10.000000 -19.000000 23.333333 13.000000 23.333333 0  S 36.66666666666667 11.0 36.66666666666667 0  S 50.66666666666667 -19.0 50.66666666666667 0  S 64.66666666666667 14.0 64.66666666666667 0  S 78.66666666666667 -12.0 78.66666666666667 0  S 90.0 14.0 90.0 0  M 90.0 0 100 0" stroke="black" fill="transparent"
                  transform="translate(740.666667 533.666667) rotate (-17.102729 0 0) scale (0.725412 1)"/>
                  <path
                  d=" M 0 0 10.0 0  C 10.000000 -18.000000 26.000000 12.000000 26.000000 0  S 42.0 18.0 42.0 0  S 58.0 -14.0 58.0 0  S 74.0 13.0 74.0 0  S 90.0 17.0 90.0 0  M 90.0 0 100 0" stroke="black" fill="transparent"
                  transform="translate(707.666667 498.666667) rotate (46.684684 0 0) scale (0.481041 1)"/>
                  <path
                  d=" M 0 0 10.0 0  C 10.000000 -15.000000 23.333333 14.000000 23.333333 0  S 36.66666666666667 10.0 36.66666666666667 0  S 50.66666666666667 -12.0 50.66666666666667 0  S 64.66666666666667 10.0 64.66666666666667 0  S 78.66666666666667 -12.0 78.66666666666667 0  S 90.0 10.0 90.0 0  M 90.0 0 100 0" stroke="black" fill="transparent"
                  transform="translate(707.666667 498.666667) rotate (-49.930243 0 0) scale (0.740488 1)"/>
                  <path
                  d=" M 0 0 10.0 0  C 10.000000 -19.000000 23.333333 13.000000 23.333333 0  S 36.66666666666667 15.0 36.66666666666667 0  S 50.66666666666667 -12.0 50.66666666666667 0  S 64.66666666666667 12.0 64.66666666666667 0  S 78.66666666666667 -14.0 78.66666666666667 0  S 90.0 18.0 90.0 0  M 90.0 0 100 0" stroke="black" fill="transparent"
                  transform="translate(74.000000 271.666667) rotate (41.035345 0 0) scale (0.477261 1)"/>
                  <path
                  d=" M 0 0 10.0 0  C 10.000000 -14.000000 26.000000 19.000000 26.000000 0  S 42.0 14.0 42.0 0  S 58.0 -16.0 58.0 0  S 74.0 12.0 74.0 0  S 90.0 14.0 90.0 0  M 90.0 0 100 0" stroke="black" fill="transparent"
                  transform="translate(110.000000 303.000000) rotate (-67.469021 0 0) scale (0.826411 1)"/>
                  <path
                  d=" M 0 0 10.0 0  C 10.000000 -14.000000 21.428571 18.000000 21.428571 0  S 32.85714285714286 10.0 32.85714285714286 0  S 44.85714285714286 -10.0 44.85714285714286 0  S 56.85714285714286 15.0 56.85714285714286 0  S 68.85714285714286 -17.0 68.85714285714286 0  S 80.85714285714286 18.0 80.85714285714286 0  S 90.0 17.0 90.0 0  M 90.0 0 100 0" stroke="black" fill="transparent"
                  transform="translate(74.000000 271.666667) rotate (-67.469021 0 0) scale (0.826411 1)"/>
                  <path
                  d=" M 0 0 10.0 0  C 10.000000 -16.000000 20.000000 12.000000 20.000000 0  S 30.0 18.0 30.0 0  S 40.0 -12.0 40.0 0  S 50.0 16.0 50.0 0  S 60.0 -15.0 60.0 0  S 70.0 11.0 70.0 0  S 80.0 -16.0 80.0 0  S 90.0 16.0 90.0 0  M 90.0 0 100 0" stroke="black" fill="transparent"
                  transform="translate(505.666667 934.000000) rotate (38.617177 0 0) scale (0.699659 1)"/>
                  <path
                  d=" M 0 0 10.0 0  C 10.000000 -17.000000 23.333333 17.000000 23.333333 0  S 36.66666666666667 12.0 36.66666666666667 0  S 50.66666666666667 -17.0 50.66666666666667 0  S 64.66666666666667 11.0 64.66666666666667 0  S 78.66666666666667 -17.0 78.66666666666667 0  S 90.0 19.0 90.0 0  M 90.0 0 100 0" stroke="black" fill="transparent"
                  transform="translate(439.666667 931.666667) rotate (2.024765 0 0) scale (0.660412 1)"/>
                  <path
                  d=" M 0 0 10.0 0  C 10.000000 -13.000000 21.428571 19.000000 21.428571 0  S 32.85714285714286 13.0 32.85714285714286 0  S 44.85714285714286 -19.0 44.85714285714286 0  S 56.85714285714286 14.0 56.85714285714286 0  S 68.85714285714286 -10.0 68.85714285714286 0  S 80.85714285714286 18.0 80.85714285714286 0  S 90.0 19.0 90.0 0  M 90.0 0 100 0" stroke="black" fill="transparent"
                  transform="translate(369.666667 972.000000) rotate (-29.950137 0 0) scale (0.807885 1)"/>
                  <path
                  d=" M 0 0 10.0 0  C 10.000000 -15.000000 26.000000 19.000000 26.000000 0  S 42.0 14.0 42.0 0  S 58.0 -19.0 58.0 0  S 74.0 17.0 74.0 0  S 90.0 19.0 90.0 0  M 90.0 0 100 0" stroke="black" fill="transparent"
                  transform="translate(369.666667 972.000000) rotate (1.702345 0 0) scale (1.907509 1)"/>
                  <path
                  d=" M 0 0 10.0 0  C 10.000000 -12.000000 23.333333 19.000000 23.333333 0  S 36.66666666666667 18.0 36.66666666666667 0  S 50.66666666666667 -15.0 50.66666666666667 0  S 64.66666666666667 13.0 64.66666666666667 0  S 78.66666666666667 -13.0 78.66666666666667 0  S 90.0 10.0 90.0 0  M 90.0 0 100 0" stroke="black" fill="transparent"
                  transform="translate(806.666667 689.333333) rotate (-85.914383 0 0) scale (0.654998 1)"/>
                  <path
                  d=" M 0 0 10.0 0  C 10.000000 -10.000000 20.000000 14.000000 20.000000 0  S 30.0 10.0 30.0 0  S 40.0 -14.0 40.0 0  S 50.0 16.0 50.0 0  S 60.0 -16.0 60.0 0  S 70.0 11.0 70.0 0  S 80.0 -10.0 80.0 0  S 90.0 10.0 90.0 0  M 90.0 0 100 0" stroke="black" fill="transparent"
                  transform="translate(745.666667 590.666667) rotate (26.912997 0 0) scale (0.736425 1)"/>
                  <path
                  d=" M 0 0 10.0 0  C 10.000000 -16.000000 26.000000 19.000000 26.000000 0  S 42.0 19.0 42.0 0  S 58.0 -19.0 58.0 0  S 74.0 11.0 74.0 0  S 90.0 14.0 90.0 0  M 90.0 0 100 0" stroke="black" fill="transparent"
                  transform="translate(713.333333 631.666667) rotate (-51.740056 0 0) scale (0.522154 1)"/>
                  <path
                  d=" M 0 0 10.0 0  C 10.000000 -17.000000 20.000000 15.000000 20.000000 0  S 30.0 14.0 30.0 0  S 40.0 -10.0 40.0 0  S 50.0 12.0 50.0 0  S 60.0 -15.0 60.0 0  S 70.0 11.0 70.0 0  S 80.0 -19.0 80.0 0  S 90.0 16.0 90.0 0  M 90.0 0 100 0" stroke="black" fill="transparent"
                  transform="translate(713.333333 631.666667) rotate (58.787853 0 0) scale (0.791188 1)"/>
                  <path
                  d=" M 0 0 10.0 0  C 10.000000 -14.000000 21.428571 10.000000 21.428571 0  S 32.85714285714286 18.0 32.85714285714286 0  S 44.85714285714286 -13.0 44.85714285714286 0  S 56.85714285714286 11.0 56.85714285714286 0  S 68.85714285714286 -13.0 68.85714285714286 0  S 80.85714285714286 15.0 80.85714285714286 0  S 90.0 13.0 90.0 0  M 90.0 0 100 0" stroke="black" fill="transparent"
                  transform="translate(754.333333 699.333333) rotate (-10.817834 0 0) scale (0.532802 1)"/>
                  <path
                  d=" M 0 0 10.0 0  C 10.000000 -10.000000 23.333333 14.000000 23.333333 0  S 36.66666666666667 10.0 36.66666666666667 0  S 50.66666666666667 -19.0 50.66666666666667 0  S 64.66666666666667 17.0 64.66666666666667 0  S 78.66666666666667 -16.0 78.66666666666667 0  S 90.0 11.0 90.0 0  M 90.0 0 100 0" stroke="black" fill="transparent"
                  transform="translate(648.666667 712.666667) rotate (30.354748 0 0) scale (0.699182 1)"/>
                  <path
                  d=" M 0 0 10.0 0  C 10.000000 -14.000000 20.000000 16.000000 20.000000 0  S 30.0 16.0 30.0 0  S 40.0 -15.0 40.0 0  S 50.0 17.0 50.0 0  S 60.0 -15.0 60.0 0  S 70.0 10.0 70.0 0  S 80.0 -14.0 80.0 0  S 90.0 14.0 90.0 0  M 90.0 0 100 0" stroke="black" fill="transparent"
                  transform="translate(648.666667 712.666667) rotate (-89.764216 0 0) scale (0.810007 1)"/>
                  <path
                  d=" M 0 0 10.0 0  C 10.000000 -13.000000 20.000000 15.000000 20.000000 0  S 30.0 10.0 30.0 0  S 40.0 -14.0 40.0 0  S 50.0 11.0 50.0 0  S 60.0 -12.0 60.0 0  S 70.0 16.0 70.0 0  S 80.0 -16.0 80.0 0  S 90.0 11.0 90.0 0  M 90.0 0 100 0" stroke="black" fill="transparent"
                  transform="translate(649.000000 631.666667) rotate (0.000000 0 0) scale (0.643333 1)"/>
                  <path
                  d=" M 0 0 10.0 0  C 10.000000 -11.000000 23.333333 15.000000 23.333333 0  S 36.66666666666667 12.0 36.66666666666667 0  S 50.66666666666667 -15.0 50.66666666666667 0  S 64.66666666666667 16.0 64.66666666666667 0  S 78.66666666666667 -18.0 78.66666666666667 0  S 90.0 16.0 90.0 0  M 90.0 0 100 0" stroke="black" fill="transparent"
                  transform="translate(709.000000 748.000000) rotate (-47.030914 0 0) scale (0.665098 1)"/>
                  <path
                  d=" M 0 0 10.0 0  C 10.000000 -15.000000 23.333333 14.000000 23.333333 0  S 36.66666666666667 19.0 36.66666666666667 0  S 50.66666666666667 -15.0 50.66666666666667 0  S 64.66666666666667 10.0 64.66666666666667 0  S 78.66666666666667 -13.0 78.66666666666667 0  S 90.0 18.0 90.0 0  M 90.0 0 100 0" stroke="black" fill="transparent"
                  transform="translate(642.333333 860.666667) rotate (-5.007972 0 0) scale (0.649145 1)"/>
                  <path
                  d=" M 0 0 10.0 0  C 10.000000 -11.000000 23.333333 18.000000 23.333333 0  S 36.66666666666667 17.0 36.66666666666667 0  S 50.66666666666667 -17.0 50.66666666666667 0  S 64.66666666666667 19.0 64.66666666666667 0  S 78.66666666666667 -16.0 78.66666666666667 0  S 90.0 14.0 90.0 0  M 90.0 0 100 0" stroke="black" fill="transparent"
                  transform="translate(707.000000 855.000000) rotate (57.761115 0 0) scale (0.693598 1)"/>
                  <path
                  d=" M 0 0 10.0 0  C 10.000000 -15.000000 20.000000 16.000000 20.000000 0  S 30.0 13.0 30.0 0  S 40.0 -11.0 40.0 0  S 50.0 15.0 50.0 0  S 60.0 -17.0 60.0 0  S 70.0 11.0 70.0 0  S 80.0 -11.0 80.0 0  S 90.0 14.0 90.0 0  M 90.0 0 100 0" stroke="black" fill="transparent"
                  transform="translate(702.666667 951.000000) rotate (-42.089162 0 0) scale (0.556976 1)"/>
                  <path
                  d=" M 0 0 10.0 0  C 10.000000 -19.000000 26.000000 15.000000 26.000000 0  S 42.0 12.0 42.0 0  S 58.0 -12.0 58.0 0  S 74.0 15.0 74.0 0  S 90.0 19.0 90.0 0  M 90.0 0 100 0" stroke="black" fill="transparent"
                  transform="translate(641.000000 921.333333) rotate (-88.740955 0 0) scale (0.606813 1)"/>
                  <path
                  d=" M 0 0 10.0 0  C 10.000000 -17.000000 21.428571 12.000000 21.428571 0  S 32.85714285714286 18.0 32.85714285714286 0  S 44.85714285714286 -13.0 44.85714285714286 0  S 56.85714285714286 18.0 56.85714285714286 0  S 68.85714285714286 -16.0 68.85714285714286 0  S 80.85714285714286 11.0 80.85714285714286 0  S 90.0 18.0 90.0 0  M 90.0 0 100 0" stroke="black" fill="transparent"
                  transform="translate(104.000000 606.333333) rotate (-84.897835 0 0) scale (0.749637 1)"/>
                  <path
                  d=" M 0 0 10.0 0  C 10.000000 -14.000000 20.000000 15.000000 20.000000 0  S 30.0 17.0 30.0 0  S 40.0 -13.0 40.0 0  S 50.0 13.0 50.0 0  S 60.0 -19.0 60.0 0  S 70.0 18.0 70.0 0  S 80.0 -10.0 80.0 0  S 90.0 11.0 90.0 0  M 90.0 0 100 0" stroke="black" fill="transparent"
                  transform="translate(67.000000 716.000000) rotate (-71.356324 0 0) scale (1.157401 1)"/>
                  <path
                  d=" M 0 0 10.0 0  C 10.000000 -11.000000 21.428571 15.000000 21.428571 0  S 32.85714285714286 11.0 32.85714285714286 0  S 44.85714285714286 -11.0 44.85714285714286 0  S 56.85714285714286 15.0 56.85714285714286 0  S 68.85714285714286 -19.0 68.85714285714286 0  S 80.85714285714286 19.0 80.85714285714286 0  S 90.0 15.0 90.0 0  M 90.0 0 100 0" stroke="black" fill="transparent"
                  transform="translate(67.000000 716.000000) rotate (-76.672887 0 0) scale (1.894348 1)"/>
                  <path
                  d=" M 0 0 10.0 0  C 10.000000 -16.000000 26.000000 18.000000 26.000000 0  S 42.0 14.0 42.0 0  S 58.0 -14.0 58.0 0  S 74.0 18.0 74.0 0  S 90.0 19.0 90.0 0  M 90.0 0 100 0" stroke="black" fill="transparent"
                  transform="translate(694.333333 135.666667) rotate (83.627889 0 0) scale (0.660749 1)"/>
                  <path
                  d=" M 0 0 10.0 0  C 10.000000 -11.000000 23.333333 15.000000 23.333333 0  S 36.66666666666667 10.0 36.66666666666667 0  S 50.66666666666667 -18.0 50.66666666666667 0  S 64.66666666666667 14.0 64.66666666666667 0  S 78.66666666666667 -19.0 78.66666666666667 0  S 90.0 19.0 90.0 0  M 90.0 0 100 0" stroke="black" fill="transparent"
                  transform="translate(639.666667 137.000000) rotate (83.627889 0 0) scale (0.660749 1)"/>
                  <path
                  d=" M 0 0 10.0 0  C 10.000000 -11.000000 21.428571 17.000000 21.428571 0  S 32.85714285714286 12.0 32.85714285714286 0  S 44.85714285714286 -19.0 44.85714285714286 0  S 56.85714285714286 10.0 56.85714285714286 0  S 68.85714285714286 -12.0 68.85714285714286 0  S 80.85714285714286 15.0 80.85714285714286 0  S 90.0 12.0 90.0 0  M 90.0 0 100 0" stroke="black" fill="transparent"
                  transform="translate(647.000000 202.666667) rotate (-1.397181 0 0) scale (0.546829 1)"/>
                  <path
                  d=" M 0 0 10.0 0  C 10.000000 -13.000000 26.000000 18.000000 26.000000 0  S 42.0 12.0 42.0 0  S 58.0 -11.0 58.0 0  S 74.0 19.0 74.0 0  S 90.0 19.0 90.0 0  M 90.0 0 100 0" stroke="black" fill="transparent"
                  transform="translate(740.666667 533.666667) rotate (84.986886 0 0) scale (0.572189 1)"/>
                  <path
                  d=" M 0 0 10.0 0  C 10.000000 -18.000000 26.000000 10.000000 26.000000 0  S 42.0 13.0 42.0 0  S 58.0 -19.0 58.0 0  S 74.0 11.0 74.0 0  S 90.0 13.0 90.0 0  M 90.0 0 100 0" stroke="black" fill="transparent"
                  transform="translate(810.000000 512.333333) rotate (44.731008 0 0) scale (0.502051 1)"/>
                  <path
                  d=" M 0 0 10.0 0  C 10.000000 -16.000000 26.000000 12.000000 26.000000 0  S 42.0 16.0 42.0 0  S 58.0 -18.0 58.0 0  S 74.0 15.0 74.0 0  S 90.0 19.0 90.0 0  M 90.0 0 100 0" stroke="black" fill="transparent"
                  transform="translate(842.000000 602.333333) rotate (-86.162738 0 0) scale (0.547895 1)"/>
                  <path
                  d=" M 0 0 10.0 0  C 10.000000 -19.000000 20.000000 15.000000 20.000000 0  S 30.0 19.0 30.0 0  S 40.0 -16.0 40.0 0  S 50.0 14.0 50.0 0  S 60.0 -16.0 60.0 0  S 70.0 17.0 70.0 0  S 80.0 -11.0 80.0 0  S 90.0 19.0 90.0 0  M 90.0 0 100 0" stroke="black" fill="transparent"
                  transform="translate(811.333333 624.000000) rotate (-35.242037 0 0) scale (0.375485 1)"/>
                  <path
                  d=" M 0 0 10.0 0  C 10.000000 -13.000000 23.333333 14.000000 23.333333 0  S 36.66666666666667 11.0 36.66666666666667 0  S 50.66666666666667 -13.0 50.66666666666667 0  S 64.66666666666667 18.0 64.66666666666667 0  S 78.66666666666667 -18.0 78.66666666666667 0  S 90.0 19.0 90.0 0  M 90.0 0 100 0" stroke="black" fill="transparent"
                  transform="translate(893.333333 149.333333) rotate (-43.451842 0 0) scale (0.610692 1)"/>
                  <path
                  d=" M 0 0 10.0 0  C 10.000000 -12.000000 20.000000 17.000000 20.000000 0  S 30.0 17.0 30.0 0  S 40.0 -18.0 40.0 0  S 50.0 13.0 50.0 0  S 60.0 -15.0 60.0 0  S 70.0 16.0 70.0 0  S 80.0 -15.0 80.0 0  S 90.0 16.0 90.0 0  M 90.0 0 100 0" stroke="black" fill="transparent"
                  transform="translate(921.333333 210.333333) rotate (-43.451842 0 0) scale (0.610692 1)"/>
                  <path
                  d=" M 0 0 10.0 0  C 10.000000 -12.000000 20.000000 16.000000 20.000000 0  S 30.0 11.0 30.0 0  S 40.0 -17.0 40.0 0  S 50.0 10.0 50.0 0  S 60.0 -10.0 60.0 0  S 70.0 13.0 70.0 0  S 80.0 -15.0 80.0 0  S 90.0 10.0 90.0 0  M 90.0 0 100 0" stroke="black" fill="transparent"
                  transform="translate(893.333333 149.333333) rotate (65.344101 0 0) scale (0.671193 1)"/>
                  <path
                  d=" M 0 0 10.0 0  C 10.000000 -11.000000 26.000000 14.000000 26.000000 0  S 42.0 13.0 42.0 0  S 58.0 -13.0 58.0 0  S 74.0 17.0 74.0 0  S 90.0 11.0 90.0 0  M 90.0 0 100 0" stroke="black" fill="transparent"
                  transform="translate(735.333333 809.000000) rotate (-11.309932 0 0) scale (0.730859 1)"/>
                  <path
                  d=" M 0 0 10.0 0  C 10.000000 -14.000000 23.333333 17.000000 23.333333 0  S 36.66666666666667 14.0 36.66666666666667 0  S 50.66666666666667 -19.0 50.66666666666667 0  S 64.66666666666667 17.0 64.66666666666667 0  S 78.66666666666667 -12.0 78.66666666666667 0  S 90.0 13.0 90.0 0  M 90.0 0 100 0" stroke="black" fill="transparent"
                  transform="translate(707.000000 855.000000) rotate (-58.369339 0 0) scale (0.540257 1)"/>
                  <path
                  d=" M 0 0 10.0 0  C 10.000000 -13.000000 20.000000 13.000000 20.000000 0  S 30.0 15.0 30.0 0  S 40.0 -19.0 40.0 0  S 50.0 12.0 50.0 0  S 60.0 -11.0 60.0 0  S 70.0 12.0 70.0 0  S 80.0 -17.0 80.0 0  S 90.0 18.0 90.0 0  M 90.0 0 100 0" stroke="black" fill="transparent"
                  transform="translate(744.000000 913.666667) rotate (22.667711 0 0) scale (0.614103 1)"/>
                  <path
                  d=" M 0 0 10.0 0  C 10.000000 -15.000000 26.000000 13.000000 26.000000 0  S 42.0 13.0 42.0 0  S 58.0 -11.0 58.0 0  S 74.0 16.0 74.0 0  S 90.0 10.0 90.0 0  M 90.0 0 100 0" stroke="black" fill="transparent"
                  transform="translate(843.333333 904.000000) rotate (-88.378854 0 0) scale (0.706950 1)"/>
                  <path
                  d=" M 0 0 10.0 0  C 10.000000 -13.000000 26.000000 15.000000 26.000000 0  S 42.0 13.0 42.0 0  S 58.0 -15.0 58.0 0  S 74.0 15.0 74.0 0  S 90.0 15.0 90.0 0  M 90.0 0 100 0" stroke="black" fill="transparent"
                  transform="translate(807.000000 794.666667) rotate (45.248032 0 0) scale (0.544477 1)"/>
                  <path
                  d=" M 0 0 10.0 0  C 10.000000 -18.000000 23.333333 19.000000 23.333333 0  S 36.66666666666667 14.0 36.66666666666667 0  S 50.66666666666667 -16.0 50.66666666666667 0  S 64.66666666666667 10.0 64.66666666666667 0  S 78.66666666666667 -16.0 78.66666666666667 0  S 90.0 19.0 90.0 0  M 90.0 0 100 0" stroke="black" fill="transparent"
                  transform="translate(720.333333 409.000000) rotate (43.315316 0 0) scale (0.481041 1)"/>
                  <path
                  d=" M 0 0 10.0 0  C 10.000000 -10.000000 26.000000 19.000000 26.000000 0  S 42.0 19.0 42.0 0  S 58.0 -13.0 58.0 0  S 74.0 10.0 74.0 0  S 90.0 12.0 90.0 0  M 90.0 0 100 0" stroke="black" fill="transparent"
                  transform="translate(672.666667 465.666667) rotate (43.315316 0 0) scale (0.481041 1)"/>
                  <path
                  d=" M 0 0 10.0 0  C 10.000000 -11.000000 23.333333 16.000000 23.333333 0  S 36.66666666666667 13.0 36.66666666666667 0  S 50.66666666666667 -15.0 50.66666666666667 0  S 64.66666666666667 15.0 64.66666666666667 0  S 78.66666666666667 -19.0 78.66666666666667 0  S 90.0 13.0 90.0 0  M 90.0 0 100 0" stroke="black" fill="transparent"
                  transform="translate(74.000000 271.666667) rotate (-79.276519 0 0) scale (1.468987 1)"/>
                  <path
                  d=" M 0 0 10.0 0  C 10.000000 -16.000000 20.000000 13.000000 20.000000 0  S 30.0 10.0 30.0 0  S 40.0 -15.0 40.0 0  S 50.0 19.0 50.0 0  S 60.0 -13.0 60.0 0  S 70.0 16.0 70.0 0  S 80.0 -18.0 80.0 0  S 90.0 11.0 90.0 0  M 90.0 0 100 0" stroke="black" fill="transparent"
                  transform="translate(169.000000 968.000000) rotate (-18.434949 0 0) scale (0.811651 1)"/>
                  <path
                  d=" M 0 0 10.0 0  C 10.000000 -10.000000 26.000000 14.000000 26.000000 0  S 42.0 13.0 42.0 0  S 58.0 -14.0 58.0 0  S 74.0 10.0 74.0 0  S 90.0 10.0 90.0 0  M 90.0 0 100 0" stroke="black" fill="transparent"
                  transform="translate(134.000000 908.333333) rotate (0.258087 0 0) scale (0.740008 1)"/>
                  <path
                  d=" M 0 0 10.0 0  C 10.000000 -17.000000 23.333333 16.000000 23.333333 0  S 36.66666666666667 17.0 36.66666666666667 0  S 50.66666666666667 -17.0 50.66666666666667 0  S 64.66666666666667 15.0 64.66666666666667 0  S 78.66666666666667 -15.0 78.66666666666667 0  S 90.0 17.0 90.0 0  M 90.0 0 100 0" stroke="black" fill="transparent"
                  transform="translate(100.333333 942.000000) rotate (-45.000000 0 0) scale (0.476119 1)"/>
                  <path
                  d=" M 0 0 10.0 0  C 10.000000 -16.000000 23.333333 16.000000 23.333333 0  S 36.66666666666667 17.0 36.66666666666667 0  S 50.66666666666667 -16.0 50.66666666666667 0  S 64.66666666666667 13.0 64.66666666666667 0  S 78.66666666666667 -10.0 78.66666666666667 0  S 90.0 16.0 90.0 0  M 90.0 0 100 0" stroke="black" fill="transparent"
                  transform="translate(812.000000 453.333333) rotate (-45.590657 0 0) scale (0.457287 1)"/>
                  <path
                  d=" M 0 0 10.0 0  C 10.000000 -18.000000 21.428571 11.000000 21.428571 0  S 32.85714285714286 11.0 32.85714285714286 0  S 44.85714285714286 -19.0 44.85714285714286 0  S 56.85714285714286 16.0 56.85714285714286 0  S 68.85714285714286 -16.0 68.85714285714286 0  S 80.85714285714286 15.0 80.85714285714286 0  S 90.0 12.0 90.0 0  M 90.0 0 100 0" stroke="black" fill="transparent"
                  transform="translate(844.000000 420.666667) rotate (-83.753684 0 0) scale (0.674001 1)"/>
                  <path
                  d=" M 0 0 10.0 0  C 10.000000 -19.000000 20.000000 18.000000 20.000000 0  S 30.0 19.0 30.0 0  S 40.0 -17.0 40.0 0  S 50.0 13.0 50.0 0  S 60.0 -15.0 60.0 0  S 70.0 13.0 70.0 0  S 80.0 -19.0 80.0 0  S 90.0 11.0 90.0 0  M 90.0 0 100 0" stroke="black" fill="transparent"
                  transform="translate(824.666667 319.000000) rotate (52.431408 0 0) scale (0.437366 1)"/>
                  <path
                  d=" M 0 0 10.0 0  C 10.000000 -11.000000 26.000000 17.000000 26.000000 0  S 42.0 14.0 42.0 0  S 58.0 -15.0 58.0 0  S 74.0 16.0 74.0 0  S 90.0 15.0 90.0 0  M 90.0 0 100 0" stroke="black" fill="transparent"
                  transform="translate(103.000000 740.666667) rotate (64.187148 0 0) scale (0.681314 1)"/>
                  <path
                  d=" M 0 0 10.0 0  C 10.000000 -16.000000 26.000000 12.000000 26.000000 0  S 42.0 15.0 42.0 0  S 58.0 -16.0 58.0 0  S 74.0 13.0 74.0 0  S 90.0 13.0 90.0 0  M 90.0 0 100 0" stroke="black" fill="transparent"
                  transform="translate(74.333333 788.000000) rotate (-58.799485 0 0) scale (0.553373 1)"/>
                  <path
                  d=" M 0 0 10.0 0  C 10.000000 -19.000000 20.000000 13.000000 20.000000 0  S 30.0 19.0 30.0 0  S 40.0 -15.0 40.0 0  S 50.0 16.0 50.0 0  S 60.0 -15.0 60.0 0  S 70.0 18.0 70.0 0  S 80.0 -13.0 80.0 0  S 90.0 15.0 90.0 0  M 90.0 0 100 0" stroke="black" fill="transparent"
                  transform="translate(74.333333 788.000000) rotate (64.187148 0 0) scale (0.681314 1)"/>
                  <path
                  d=" M 0 0 10.0 0  C 10.000000 -18.000000 26.000000 18.000000 26.000000 0  S 42.0 15.0 42.0 0  S 58.0 -16.0 58.0 0  S 74.0 10.0 74.0 0  S 90.0 17.0 90.0 0  M 90.0 0 100 0" stroke="black" fill="transparent"
                  transform="translate(104.000000 849.333333) rotate (-58.799485 0 0) scale (0.553373 1)"/>
                  <path
                  d=" M 0 0 10.0 0  C 10.000000 -14.000000 20.000000 19.000000 20.000000 0  S 30.0 18.0 30.0 0  S 40.0 -17.0 40.0 0  S 50.0 13.0 50.0 0  S 60.0 -16.0 60.0 0  S 70.0 17.0 70.0 0  S 80.0 -17.0 80.0 0  S 90.0 11.0 90.0 0  M 90.0 0 100 0" stroke="black" fill="transparent"
                  transform="translate(149.666667 648.666667) rotate (-4.838899 0 0) scale (0.632253 1)"/>
                  <path
                  d=" M 0 0 10.0 0  C 10.000000 -13.000000 26.000000 19.000000 26.000000 0  S 42.0 16.0 42.0 0  S 58.0 -16.0 58.0 0  S 74.0 11.0 74.0 0  S 90.0 15.0 90.0 0  M 90.0 0 100 0" stroke="black" fill="transparent"
                  transform="translate(141.333333 711.000000) rotate (-82.385288 0 0) scale (0.628879 1)"/>
                  <path
                  d=" M 0 0 10.0 0  C 10.000000 -18.000000 23.333333 16.000000 23.333333 0  S 36.66666666666667 17.0 36.66666666666667 0  S 50.66666666666667 -19.0 50.66666666666667 0  S 64.66666666666667 12.0 64.66666666666667 0  S 78.66666666666667 -14.0 78.66666666666667 0  S 90.0 10.0 90.0 0  M 90.0 0 100 0" stroke="black" fill="transparent"
                  transform="translate(141.333333 711.000000) rotate (22.365124 0 0) scale (0.692058 1)"/>
                  <path
                  d=" M 0 0 10.0 0  C 10.000000 -11.000000 20.000000 16.000000 20.000000 0  S 30.0 10.0 30.0 0  S 40.0 -19.0 40.0 0  S 50.0 19.0 50.0 0  S 60.0 -18.0 60.0 0  S 70.0 19.0 70.0 0  S 80.0 -15.0 80.0 0  S 90.0 17.0 90.0 0  M 90.0 0 100 0" stroke="black" fill="transparent"
                  transform="translate(544.333333 101.000000) rotate (-50.505478 0 0) scale (0.393079 1)"/>
                  <path
                  d=" M 0 0 10.0 0  C 10.000000 -14.000000 23.333333 11.000000 23.333333 0  S 36.66666666666667 16.0 36.66666666666667 0  S 50.66666666666667 -16.0 50.66666666666667 0  S 64.66666666666667 14.0 64.66666666666667 0  S 78.66666666666667 -10.0 78.66666666666667 0  S 90.0 10.0 90.0 0  M 90.0 0 100 0" stroke="black" fill="transparent"
                  transform="translate(544.333333 101.000000) rotate (2.302108 0 0) scale (0.663869 1)"/>
                  <path
                  d=" M 0 0 10.0 0  C 10.000000 -19.000000 21.428571 10.000000 21.428571 0  S 32.85714285714286 18.0 32.85714285714286 0  S 44.85714285714286 -10.0 44.85714285714286 0  S 56.85714285714286 10.0 56.85714285714286 0  S 68.85714285714286 -19.0 68.85714285714286 0  S 80.85714285714286 14.0 80.85714285714286 0  S 90.0 16.0 90.0 0  M 90.0 0 100 0" stroke="black" fill="transparent"
                  transform="translate(569.333333 70.666667) rotate (38.603415 0 0) scale (0.528909 1)"/>
                  <path
                  d=" M 0 0 10.0 0  C 10.000000 -15.000000 21.428571 12.000000 21.428571 0  S 32.85714285714286 13.0 32.85714285714286 0  S 44.85714285714286 -16.0 44.85714285714286 0  S 56.85714285714286 17.0 56.85714285714286 0  S 68.85714285714286 -18.0 68.85714285714286 0  S 80.85714285714286 18.0 80.85714285714286 0  S 90.0 17.0 90.0 0  M 90.0 0 100 0" stroke="black" fill="transparent"
                  transform="translate(343.000000 899.333333) rotate (-12.778733 0 0) scale (0.663090 1)"/>
                  <path
                  d=" M 0 0 10.0 0  C 10.000000 -16.000000 23.333333 12.000000 23.333333 0  S 36.66666666666667 13.0 36.66666666666667 0  S 50.66666666666667 -15.0 50.66666666666667 0  S 64.66666666666667 16.0 64.66666666666667 0  S 78.66666666666667 -13.0 78.66666666666667 0  S 90.0 17.0 90.0 0  M 90.0 0 100 0" stroke="black" fill="transparent"
                  transform="translate(407.666667 884.666667) rotate (55.750967 0 0) scale (0.568595 1)"/>
                  <path
                  d=" M 0 0 10.0 0  C 10.000000 -15.000000 23.333333 10.000000 23.333333 0  S 36.66666666666667 19.0 36.66666666666667 0  S 50.66666666666667 -19.0 50.66666666666667 0  S 64.66666666666667 19.0 64.66666666666667 0  S 78.66666666666667 -16.0 78.66666666666667 0  S 90.0 15.0 90.0 0  M 90.0 0 100 0" stroke="black" fill="transparent"
                  transform="translate(315.333333 938.666667) rotate (31.528988 0 0) scale (0.637434 1)"/>
                  <path
                  d=" M 0 0 10.0 0  C 10.000000 -18.000000 21.428571 18.000000 21.428571 0  S 32.85714285714286 14.0 32.85714285714286 0  S 44.85714285714286 -15.0 44.85714285714286 0  S 56.85714285714286 18.0 56.85714285714286 0  S 68.85714285714286 -16.0 68.85714285714286 0  S 80.85714285714286 15.0 80.85714285714286 0  S 90.0 19.0 90.0 0  M 90.0 0 100 0" stroke="black" fill="transparent"
                  transform="translate(844.333333 254.333333) rotate (-8.667387 0 0) scale (0.552982 1)"/>
                  <path
                  d=" M 0 0 10.0 0  C 10.000000 -14.000000 20.000000 11.000000 20.000000 0  S 30.0 16.0 30.0 0  S 40.0 -11.0 40.0 0  S 50.0 18.0 50.0 0  S 60.0 -13.0 60.0 0  S 70.0 15.0 70.0 0  S 80.0 -11.0 80.0 0  S 90.0 12.0 90.0 0  M 90.0 0 100 0" stroke="black" fill="transparent"
                  transform="translate(899.000000 246.000000) rotate (56.645974 0 0) scale (0.630520 1)"/>
                  <path
                  d=" M 0 0 10.0 0  C 10.000000 -12.000000 21.428571 18.000000 21.428571 0  S 32.85714285714286 11.0 32.85714285714286 0  S 44.85714285714286 -18.0 44.85714285714286 0  S 56.85714285714286 17.0 56.85714285714286 0  S 68.85714285714286 -15.0 68.85714285714286 0  S 80.85714285714286 18.0 80.85714285714286 0  S 90.0 13.0 90.0 0  M 90.0 0 100 0" stroke="black" fill="transparent"
                  transform="translate(905.666667 341.666667) rotate (-56.929322 0 0) scale (0.513128 1)"/>
                  <path
                  d=" M 0 0 10.0 0  C 10.000000 -16.000000 23.333333 10.000000 23.333333 0  S 36.66666666666667 15.0 36.66666666666667 0  S 50.66666666666667 -18.0 50.66666666666667 0  S 64.66666666666667 17.0 64.66666666666667 0  S 78.66666666666667 -11.0 78.66666666666667 0  S 90.0 11.0 90.0 0  M 90.0 0 100 0" stroke="black" fill="transparent"
                  transform="translate(851.333333 353.666667) rotate (-12.454349 0 0) scale (0.556427 1)"/>
                  <path
                  d=" M 0 0 10.0 0  C 10.000000 -16.000000 20.000000 17.000000 20.000000 0  S 30.0 18.0 30.0 0  S 40.0 -12.0 40.0 0  S 50.0 18.0 50.0 0  S 60.0 -17.0 60.0 0  S 70.0 16.0 70.0 0  S 80.0 -15.0 80.0 0  S 90.0 14.0 90.0 0  M 90.0 0 100 0" stroke="black" fill="transparent"
                  transform="translate(807.000000 794.666667) rotate (-69.887412 0 0) scale (0.756108 1)"/>
                  <path
                  d=" M 0 0 10.0 0  C 10.000000 -12.000000 23.333333 19.000000 23.333333 0  S 36.66666666666667 16.0 36.66666666666667 0  S 50.66666666666667 -13.0 50.66666666666667 0  S 64.66666666666667 17.0 64.66666666666667 0  S 78.66666666666667 -14.0 78.66666666666667 0  S 90.0 16.0 90.0 0  M 90.0 0 100 0" stroke="black" fill="transparent"
                  transform="translate(833.000000 723.666667) rotate (-23.267705 0 0) scale (0.725687 1)"/>
                  <path
                  d=" M 0 0 10.0 0  C 10.000000 -12.000000 21.428571 17.000000 21.428571 0  S 32.85714285714286 13.0 32.85714285714286 0  S 44.85714285714286 -16.0 44.85714285714286 0  S 56.85714285714286 12.0 56.85714285714286 0  S 68.85714285714286 -12.0 68.85714285714286 0  S 80.85714285714286 13.0 80.85714285714286 0  S 90.0 13.0 90.0 0  M 90.0 0 100 0" stroke="black" fill="transparent"
                  transform="translate(845.333333 833.333333) rotate (-28.776594 0 0) scale (0.733977 1)"/>
                  <path
                  d=" M 0 0 10.0 0  C 10.000000 -10.000000 21.428571 10.000000 21.428571 0  S 32.85714285714286 10.0 32.85714285714286 0  S 44.85714285714286 -19.0 44.85714285714286 0  S 56.85714285714286 15.0 56.85714285714286 0  S 68.85714285714286 -12.0 68.85714285714286 0  S 80.85714285714286 17.0 80.85714285714286 0  S 90.0 12.0 90.0 0  M 90.0 0 100 0" stroke="black" fill="transparent"
                  transform="translate(709.000000 748.000000) rotate (66.650433 0 0) scale (0.664413 1)"/>
                  <path
                  d=" M 0 0 10.0 0  C 10.000000 -15.000000 26.000000 14.000000 26.000000 0  S 42.0 15.0 42.0 0  S 58.0 -19.0 58.0 0  S 74.0 11.0 74.0 0  S 90.0 11.0 90.0 0  M 90.0 0 100 0" stroke="black" fill="transparent"
                  transform="translate(806.666667 689.333333) rotate (52.512144 0 0) scale (0.432692 1)"/>
                  <path
                  d=" M 0 0 10.0 0  C 10.000000 -11.000000 26.000000 15.000000 26.000000 0  S 42.0 19.0 42.0 0  S 58.0 -19.0 58.0 0  S 74.0 17.0 74.0 0  S 90.0 14.0 90.0 0  M 90.0 0 100 0" stroke="black" fill="transparent"
                  transform="translate(407.666667 884.666667) rotate (-59.470294 0 0) scale (0.603692 1)"/>
                  <path
                  d=" M 0 0 10.0 0  C 10.000000 -12.000000 26.000000 11.000000 26.000000 0  S 42.0 12.0 42.0 0  S 58.0 -13.0 58.0 0  S 74.0 15.0 74.0 0  S 90.0 16.0 90.0 0  M 90.0 0 100 0" stroke="black" fill="transparent"
                  transform="translate(334.333333 846.333333) rotate (-29.081927 0 0) scale (0.678929 1)"/>
                  <path
                  d=" M 0 0 10.0 0  C 10.000000 -12.000000 21.428571 11.000000 21.428571 0  S 32.85714285714286 19.0 32.85714285714286 0  S 44.85714285714286 -16.0 44.85714285714286 0  S 56.85714285714286 12.0 56.85714285714286 0  S 68.85714285714286 -13.0 68.85714285714286 0  S 80.85714285714286 14.0 80.85714285714286 0  S 90.0 11.0 90.0 0  M 90.0 0 100 0" stroke="black" fill="transparent"
                  transform="translate(905.666667 341.666667) rotate (61.821410 0 0) scale (0.741178 1)"/>
                  <path
                  d=" M 0 0 10.0 0  C 10.000000 -12.000000 21.428571 15.000000 21.428571 0  S 32.85714285714286 16.0 32.85714285714286 0  S 44.85714285714286 -12.0 44.85714285714286 0  S 56.85714285714286 12.0 56.85714285714286 0  S 68.85714285714286 -15.0 68.85714285714286 0  S 80.85714285714286 15.0 80.85714285714286 0  S 90.0 11.0 90.0 0  M 90.0 0 100 0" stroke="black" fill="transparent"
                  transform="translate(933.666667 298.666667) rotate (-64.983107 0 0) scale (0.827647 1)"/>
                  <path
                  d=" M 0 0 10.0 0  C 10.000000 -15.000000 23.333333 19.000000 23.333333 0  S 36.66666666666667 16.0 36.66666666666667 0  S 50.66666666666667 -10.0 50.66666666666667 0  S 64.66666666666667 12.0 64.66666666666667 0  S 78.66666666666667 -13.0 78.66666666666667 0  S 90.0 13.0 90.0 0  M 90.0 0 100 0" stroke="black" fill="transparent"
                  transform="translate(702.666667 951.000000) rotate (-7.939026 0 0) scale (0.989484 1)"/>
                  <path
                  d=" M 0 0 10.0 0  C 10.000000 -12.000000 21.428571 19.000000 21.428571 0  S 32.85714285714286 13.0 32.85714285714286 0  S 44.85714285714286 -12.0 44.85714285714286 0  S 56.85714285714286 15.0 56.85714285714286 0  S 68.85714285714286 -15.0 68.85714285714286 0  S 80.85714285714286 17.0 80.85714285714286 0  S 90.0 13.0 90.0 0  M 90.0 0 100 0" stroke="black" fill="transparent"
                  transform="translate(844.000000 420.666667) rotate (27.746240 0 0) scale (0.723149 1)"/>
                  <path
                  d=" M 0 0 10.0 0  C 10.000000 -10.000000 20.000000 11.000000 20.000000 0  S 30.0 10.0 30.0 0  S 40.0 -19.0 40.0 0  S 50.0 10.0 50.0 0  S 60.0 -18.0 60.0 0  S 70.0 10.0 70.0 0  S 80.0 -13.0 80.0 0  S 90.0 16.0 90.0 0  M 90.0 0 100 0" stroke="black" fill="transparent"
                  transform="translate(514.000000 540.333333) rotate (52.093673 0 0) scale (1.068842 1)"/>
                  <path
                  d=" M 0 0 10.0 0  C 10.000000 -19.000000 23.333333 19.000000 23.333333 0  S 36.66666666666667 11.0 36.66666666666667 0  S 50.66666666666667 -15.0 50.66666666666667 0  S 64.66666666666667 16.0 64.66666666666667 0  S 78.66666666666667 -16.0 78.66666666666667 0  S 90.0 16.0 90.0 0  M 90.0 0 100 0" stroke="black" fill="transparent"
                  transform="translate(579.666667 624.666667) rotate (5.765135 0 0) scale (0.696858 1)"/>
                  <path
                  d=" M 0 0 10.0 0  C 10.000000 -13.000000 21.428571 12.000000 21.428571 0  S 32.85714285714286 11.0 32.85714285714286 0  S 44.85714285714286 -19.0 44.85714285714286 0  S 56.85714285714286 12.0 56.85714285714286 0  S 68.85714285714286 -10.0 68.85714285714286 0  S 80.85714285714286 17.0 80.85714285714286 0  S 90.0 10.0 90.0 0  M 90.0 0 100 0" stroke="black" fill="transparent"
                  transform="translate(647.000000 202.666667) rotate (84.317631 0 0) scale (0.673309 1)"/>
                  <path
                  d=" M 0 0 10.0 0  C 10.000000 -14.000000 23.333333 13.000000 23.333333 0  S 36.66666666666667 16.0 36.66666666666667 0  S 50.66666666666667 -14.0 50.66666666666667 0  S 64.66666666666667 18.0 64.66666666666667 0  S 78.66666666666667 -15.0 78.66666666666667 0  S 90.0 14.0 90.0 0  M 90.0 0 100 0" stroke="black" fill="transparent"
                  transform="translate(610.666667 103.666667) rotate (48.976731 0 0) scale (0.441827 1)"/>
                  <path
                  d=" M 0 0 10.0 0  C 10.000000 -15.000000 21.428571 15.000000 21.428571 0  S 32.85714285714286 12.0 32.85714285714286 0  S 44.85714285714286 -10.0 44.85714285714286 0  S 56.85714285714286 19.0 56.85714285714286 0  S 68.85714285714286 -12.0 68.85714285714286 0  S 80.85714285714286 19.0 80.85714285714286 0  S 90.0 15.0 90.0 0  M 90.0 0 100 0" stroke="black" fill="transparent"
                  transform="translate(488.000000 99.000000) rotate (2.033316 0 0) scale (0.563688 1)"/>
                  <path
                  d=" M 0 0 10.0 0  C 10.000000 -18.000000 20.000000 18.000000 20.000000 0  S 30.0 16.0 30.0 0  S 40.0 -10.0 40.0 0  S 50.0 15.0 50.0 0  S 60.0 -12.0 60.0 0  S 70.0 19.0 70.0 0  S 80.0 -13.0 80.0 0  S 90.0 17.0 90.0 0  M 90.0 0 100 0" stroke="black" fill="transparent"
                  transform="translate(463.666667 212.000000) rotate (-77.847543 0 0) scale (1.155903 1)"/>
                  <path
                  d=" M 0 0 10.0 0  C 10.000000 -16.000000 21.428571 17.000000 21.428571 0  S 32.85714285714286 12.0 32.85714285714286 0  S 44.85714285714286 -10.0 44.85714285714286 0  S 56.85714285714286 16.0 56.85714285714286 0  S 68.85714285714286 -15.0 68.85714285714286 0  S 80.85714285714286 18.0 80.85714285714286 0  S 90.0 13.0 90.0 0  M 90.0 0 100 0" stroke="black" fill="transparent"
                  transform="translate(505.666667 934.000000) rotate (-40.827016 0 0) scale (0.550646 1)"/>
                  <path
                  d=" M 0 0 10.0 0  C 10.000000 -11.000000 21.428571 12.000000 21.428571 0  S 32.85714285714286 18.0 32.85714285714286 0  S 44.85714285714286 -16.0 44.85714285714286 0  S 56.85714285714286 12.0 56.85714285714286 0  S 68.85714285714286 -14.0 68.85714285714286 0  S 80.85714285714286 10.0 80.85714285714286 0  S 90.0 18.0 90.0 0  M 90.0 0 100 0" stroke="black" fill="transparent"
                  transform="translate(547.333333 898.000000) rotate (38.617177 0 0) scale (0.699659 1)"/>
                  <path
                  d=" M 0 0 10.0 0  C 10.000000 -16.000000 21.428571 10.000000 21.428571 0  S 32.85714285714286 12.0 32.85714285714286 0  S 44.85714285714286 -14.0 44.85714285714286 0  S 56.85714285714286 15.0 56.85714285714286 0  S 68.85714285714286 -19.0 68.85714285714286 0  S 80.85714285714286 13.0 80.85714285714286 0  S 90.0 11.0 90.0 0  M 90.0 0 100 0" stroke="black" fill="transparent"
                  transform="translate(596.333333 816.000000) rotate (-85.827016 0 0) scale (0.778731 1)"/>
                  <path
                  d=" M 0 0 10.0 0  C 10.000000 -11.000000 20.000000 14.000000 20.000000 0  S 30.0 11.0 30.0 0  S 40.0 -12.0 40.0 0  S 50.0 15.0 50.0 0  S 60.0 -14.0 60.0 0  S 70.0 11.0 70.0 0  S 80.0 -15.0 80.0 0  S 90.0 15.0 90.0 0  M 90.0 0 100 0" stroke="black" fill="transparent"
                  transform="translate(540.333333 833.000000) rotate (-16.886791 0 0) scale (0.585235 1)"/>
                  <path
                  d=" M 0 0 10.0 0  C 10.000000 -19.000000 23.333333 12.000000 23.333333 0  S 36.66666666666667 10.0 36.66666666666667 0  S 50.66666666666667 -18.0 50.66666666666667 0  S 64.66666666666667 12.0 64.66666666666667 0  S 78.66666666666667 -15.0 78.66666666666667 0  S 90.0 11.0 90.0 0  M 90.0 0 100 0" stroke="black" fill="transparent"
                  transform="translate(503.666667 802.666667) rotate (39.600027 0 0) scale (0.475873 1)"/>
                  <path
                  d=" M 0 0 10.0 0  C 10.000000 -18.000000 26.000000 15.000000 26.000000 0  S 42.0 18.0 42.0 0  S 58.0 -11.0 58.0 0  S 74.0 16.0 74.0 0  S 90.0 10.0 90.0 0  M 90.0 0 100 0" stroke="black" fill="transparent"
                  transform="translate(504.000000 741.000000) rotate (-48.191627 0 0) scale (0.635024 1)"/>
                  <path
                  d=" M 0 0 10.0 0  C 10.000000 -15.000000 20.000000 12.000000 20.000000 0  S 30.0 18.0 30.0 0  S 40.0 -11.0 40.0 0  S 50.0 12.0 50.0 0  S 60.0 -16.0 60.0 0  S 70.0 12.0 70.0 0  S 80.0 -14.0 80.0 0  S 90.0 17.0 90.0 0  M 90.0 0 100 0" stroke="black" fill="transparent"
                  transform="translate(546.333333 693.666667) rotate (38.743391 0 0) scale (0.713715 1)"/>
                  <path
                  d=" M 0 0 10.0 0  C 10.000000 -15.000000 26.000000 12.000000 26.000000 0  S 42.0 14.0 42.0 0  S 58.0 -16.0 58.0 0  S 74.0 19.0 74.0 0  S 90.0 17.0 90.0 0  M 90.0 0 100 0" stroke="black" fill="transparent"
                  transform="translate(341.000000 64.666667) rotate (13.146343 0 0) scale (1.509562 1)"/>
                  <path
                  d=" M 0 0 10.0 0  C 10.000000 -18.000000 23.333333 12.000000 23.333333 0  S 36.66666666666667 19.0 36.66666666666667 0  S 50.66666666666667 -15.0 50.66666666666667 0  S 64.66666666666667 10.0 64.66666666666667 0  S 78.66666666666667 -14.0 78.66666666666667 0  S 90.0 13.0 90.0 0  M 90.0 0 100 0" stroke="black" fill="transparent"
                  transform="translate(113.333333 370.666667) rotate (2.242364 0 0) scale (1.107515 1)"/>
                  <path
                  d=" M 0 0 10.0 0  C 10.000000 -10.000000 26.000000 18.000000 26.000000 0  S 42.0 10.0 42.0 0  S 58.0 -15.0 58.0 0  S 74.0 19.0 74.0 0  S 90.0 16.0 90.0 0  M 90.0 0 100 0" stroke="black" fill="transparent"
                  transform="translate(110.000000 303.000000) rotate (87.179828 0 0) scale (0.677487 1)"/>
                  <path
                  d=" M 0 0 10.0 0  C 10.000000 -18.000000 20.000000 19.000000 20.000000 0  S 30.0 17.0 30.0 0  S 40.0 -14.0 40.0 0  S 50.0 13.0 50.0 0  S 60.0 -13.0 60.0 0  S 70.0 11.0 70.0 0  S 80.0 -14.0 80.0 0  S 90.0 18.0 90.0 0  M 90.0 0 100 0" stroke="black" fill="transparent"
                  transform="translate(546.333333 693.666667) rotate (-64.215193 0 0) scale (0.766297 1)"/>
                  <path
                  d=" M 0 0 10.0 0  C 10.000000 -10.000000 26.000000 12.000000 26.000000 0  S 42.0 12.0 42.0 0  S 58.0 -17.0 58.0 0  S 74.0 12.0 74.0 0  S 90.0 11.0 90.0 0  M 90.0 0 100 0" stroke="black" fill="transparent"
                  transform="translate(602.000000 738.333333) rotate (-28.810794 0 0) scale (0.532593 1)"/>
                  <path
                  d=" M 0 0 10.0 0  C 10.000000 -14.000000 21.428571 12.000000 21.428571 0  S 32.85714285714286 19.0 32.85714285714286 0  S 44.85714285714286 -18.0 44.85714285714286 0  S 56.85714285714286 11.0 56.85714285714286 0  S 68.85714285714286 -17.0 68.85714285714286 0  S 80.85714285714286 13.0 80.85714285714286 0  S 90.0 12.0 90.0 0  M 90.0 0 100 0" stroke="black" fill="transparent"
                  transform="translate(842.000000 602.333333) rotate (30.599979 0 0) scale (0.720309 1)"/>
                  <path
                  d=" M 0 0 10.0 0  C 10.000000 -16.000000 26.000000 15.000000 26.000000 0  S 42.0 18.0 42.0 0  S 58.0 -13.0 58.0 0  S 74.0 13.0 74.0 0  S 90.0 10.0 90.0 0  M 90.0 0 100 0" stroke="black" fill="transparent"
                  transform="translate(326.666667 741.333333) rotate (8.325650 0 0) scale (0.690612 1)"/>
                  <path
                  d=" M 0 0 10.0 0  C 10.000000 -10.000000 20.000000 19.000000 20.000000 0  S 30.0 18.0 30.0 0  S 40.0 -10.0 40.0 0  S 50.0 13.0 50.0 0  S 60.0 -11.0 60.0 0  S 70.0 15.0 70.0 0  S 80.0 -17.0 80.0 0  S 90.0 14.0 90.0 0  M 90.0 0 100 0" stroke="black" fill="transparent"
                  transform="translate(416.666667 577.333333) rotate (79.950651 0 0) scale (1.337182 1)"/>
                  <path
                  d=" M 0 0 10.0 0  C 10.000000 -19.000000 21.428571 18.000000 21.428571 0  S 32.85714285714286 12.0 32.85714285714286 0  S 44.85714285714286 -18.0 44.85714285714286 0  S 56.85714285714286 15.0 56.85714285714286 0  S 68.85714285714286 -13.0 68.85714285714286 0  S 80.85714285714286 14.0 80.85714285714286 0  S 90.0 18.0 90.0 0  M 90.0 0 100 0" stroke="black" fill="transparent"
                  transform="translate(540.333333 833.000000) rotate (83.853374 0 0) scale (0.653758 1)"/>
                  <path
                  d=" M 0 0 10.0 0  C 10.000000 -16.000000 23.333333 11.000000 23.333333 0  S 36.66666666666667 14.0 36.66666666666667 0  S 50.66666666666667 -15.0 50.66666666666667 0  S 64.66666666666667 18.0 64.66666666666667 0  S 78.66666666666667 -17.0 78.66666666666667 0  S 90.0 16.0 90.0 0  M 90.0 0 100 0" stroke="black" fill="transparent"
                  transform="translate(596.333333 816.000000) rotate (44.157476 0 0) scale (0.641179 1)"/>
                  <path
                  d=" M 0 0 10.0 0  C 10.000000 -12.000000 21.428571 12.000000 21.428571 0  S 32.85714285714286 13.0 32.85714285714286 0  S 44.85714285714286 -19.0 44.85714285714286 0  S 56.85714285714286 17.0 56.85714285714286 0  S 68.85714285714286 -11.0 68.85714285714286 0  S 80.85714285714286 16.0 80.85714285714286 0  S 90.0 11.0 90.0 0  M 90.0 0 100 0" stroke="black" fill="transparent"
                  transform="translate(701.666667 201.333333) rotate (34.800671 0 0) scale (0.572373 1)"/>
                  <path
                  d=" M 0 0 10.0 0  C 10.000000 -10.000000 21.428571 11.000000 21.428571 0  S 32.85714285714286 15.0 32.85714285714286 0  S 44.85714285714286 -12.0 44.85714285714286 0  S 56.85714285714286 17.0 56.85714285714286 0  S 68.85714285714286 -18.0 68.85714285714286 0  S 80.85714285714286 19.0 80.85714285714286 0  S 90.0 17.0 90.0 0  M 90.0 0 100 0" stroke="black" fill="transparent"
                  transform="translate(110.666667 531.666667) rotate (-26.296374 0 0) scale (1.271591 1)"/>
                  <path
                  d=" M 0 0 10.0 0  C 10.000000 -14.000000 20.000000 15.000000 20.000000 0  S 30.0 17.0 30.0 0  S 40.0 -14.0 40.0 0  S 50.0 16.0 50.0 0  S 60.0 -13.0 60.0 0  S 70.0 12.0 70.0 0  S 80.0 -14.0 80.0 0  S 90.0 18.0 90.0 0  M 90.0 0 100 0" stroke="black" fill="transparent"
                  transform="translate(73.000000 472.666667) rotate (57.445103 0 0) scale (0.699984 1)"/>
                  <path
                  d=" M 0 0 10.0 0  C 10.000000 -17.000000 23.333333 19.000000 23.333333 0  S 36.66666666666667 14.0 36.66666666666667 0  S 50.66666666666667 -19.0 50.66666666666667 0  S 64.66666666666667 19.0 64.66666666666667 0  S 78.66666666666667 -12.0 78.66666666666667 0  S 90.0 10.0 90.0 0  M 90.0 0 100 0" stroke="black" fill="transparent"
                  transform="translate(73.000000 472.666667) rotate (-68.424927 0 0) scale (1.096849 1)"/>
                  <path
                  d=" M 0 0 10.0 0  C 10.000000 -14.000000 23.333333 15.000000 23.333333 0  S 36.66666666666667 18.0 36.66666666666667 0  S 50.66666666666667 -19.0 50.66666666666667 0  S 64.66666666666667 10.0 64.66666666666667 0  S 78.66666666666667 -14.0 78.66666666666667 0  S 90.0 12.0 90.0 0  M 90.0 0 100 0" stroke="black" fill="transparent"
                  transform="translate(67.000000 716.000000) rotate (84.184373 0 0) scale (0.723725 1)"/>
                  <path
                  d=" M 0 0 10.0 0  C 10.000000 -13.000000 23.333333 15.000000 23.333333 0  S 36.66666666666667 14.0 36.66666666666667 0  S 50.66666666666667 -11.0 50.66666666666667 0  S 64.66666666666667 13.0 64.66666666666667 0  S 78.66666666666667 -15.0 78.66666666666667 0  S 90.0 17.0 90.0 0  M 90.0 0 100 0" stroke="black" fill="transparent"
                  transform="translate(282.000000 72.333333) rotate (-7.403729 0 0) scale (0.594960 1)"/>
                  <path
                  d=" M 0 0 10.0 0  C 10.000000 -10.000000 20.000000 17.000000 20.000000 0  S 30.0 19.0 30.0 0  S 40.0 -14.0 40.0 0  S 50.0 17.0 50.0 0  S 60.0 -19.0 60.0 0  S 70.0 16.0 70.0 0  S 80.0 -17.0 80.0 0  S 90.0 17.0 90.0 0  M 90.0 0 100 0" stroke="black" fill="transparent"
                  transform="translate(282.000000 72.333333) rotate (34.350780 0 0) scale (0.561209 1)"/>
                  <path
                  d=" M 0 0 10.0 0  C 10.000000 -14.000000 23.333333 19.000000 23.333333 0  S 36.66666666666667 13.0 36.66666666666667 0  S 50.66666666666667 -14.0 50.66666666666667 0  S 64.66666666666667 12.0 64.66666666666667 0  S 78.66666666666667 -13.0 78.66666666666667 0  S 90.0 16.0 90.0 0  M 90.0 0 100 0" stroke="black" fill="transparent"
                  transform="translate(845.666667 547.666667) rotate (-20.998719 0 0) scale (0.706950 1)"/>
                  <path
                  d=" M 0 0 10.0 0  C 10.000000 -19.000000 26.000000 18.000000 26.000000 0  S 42.0 10.0 42.0 0  S 58.0 -12.0 58.0 0  S 74.0 12.0 74.0 0  S 90.0 10.0 90.0 0  M 90.0 0 100 0" stroke="black" fill="transparent"
                  transform="translate(104.000000 606.333333) rotate (42.830742 0 0) scale (0.622700 1)"/>
                  <path
                  d=" M 0 0 10.0 0  C 10.000000 -18.000000 26.000000 10.000000 26.000000 0  S 42.0 15.0 42.0 0  S 58.0 -14.0 58.0 0  S 74.0 13.0 74.0 0  S 90.0 17.0 90.0 0  M 90.0 0 100 0" stroke="black" fill="transparent"
                  transform="translate(103.000000 740.666667) rotate (-37.736755 0 0) scale (0.484722 1)"/>
                  <path
                  d=" M 0 0 10.0 0  C 10.000000 -10.000000 23.333333 13.000000 23.333333 0  S 36.66666666666667 11.0 36.66666666666667 0  S 50.66666666666667 -14.0 50.66666666666667 0  S 64.66666666666667 11.0 64.66666666666667 0  S 78.66666666666667 -12.0 78.66666666666667 0  S 90.0 18.0 90.0 0  M 90.0 0 100 0" stroke="black" fill="transparent"
                  transform="translate(268.666667 633.666667) rotate (-62.927920 0 0) scale (1.010742 1)"/>
                  <path
                  d=" M 0 0 10.0 0  C 10.000000 -14.000000 26.000000 12.000000 26.000000 0  S 42.0 15.0 42.0 0  S 58.0 -16.0 58.0 0  S 74.0 17.0 74.0 0  S 90.0 13.0 90.0 0  M 90.0 0 100 0" stroke="black" fill="transparent"
                  transform="translate(205.000000 99.666667) rotate (-19.543761 0 0) scale (0.817075 1)"/>
                  <path
                  d=" M 0 0 10.0 0  C 10.000000 -16.000000 23.333333 19.000000 23.333333 0  S 36.66666666666667 12.0 36.66666666666667 0  S 50.66666666666667 -17.0 50.66666666666667 0  S 64.66666666666667 14.0 64.66666666666667 0  S 78.66666666666667 -18.0 78.66666666666667 0  S 90.0 12.0 90.0 0  M 90.0 0 100 0" stroke="black" fill="transparent"
                  transform="translate(738.666667 96.333333) rotate (0.863690 0 0) scale (0.663409 1)"/>
                  <path
                  d=" M 0 0 10.0 0  C 10.000000 -17.000000 21.428571 16.000000 21.428571 0  S 32.85714285714286 14.0 32.85714285714286 0  S 44.85714285714286 -18.0 44.85714285714286 0  S 56.85714285714286 10.0 56.85714285714286 0  S 68.85714285714286 -19.0 68.85714285714286 0  S 80.85714285714286 15.0 80.85714285714286 0  S 90.0 16.0 90.0 0  M 90.0 0 100 0" stroke="black" fill="transparent"
                  transform="translate(805.000000 97.333333) rotate (59.966720 0 0) scale (0.492838 1)"/>
                  <path
                  d=" M 0 0 10.0 0  C 10.000000 -15.000000 26.000000 13.000000 26.000000 0  S 42.0 10.0 42.0 0  S 58.0 -19.0 58.0 0  S 74.0 16.0 74.0 0  S 90.0 17.0 90.0 0  M 90.0 0 100 0" stroke="black" fill="transparent"
                  transform="translate(803.000000 209.333333) rotate (-68.962489 0 0) scale (0.742847 1)"/>
                  <path
                  d=" M 0 0 10.0 0  C 10.000000 -10.000000 23.333333 14.000000 23.333333 0  S 36.66666666666667 10.0 36.66666666666667 0  S 50.66666666666667 -14.0 50.66666666666667 0  S 64.66666666666667 18.0 64.66666666666667 0  S 78.66666666666667 -12.0 78.66666666666667 0  S 90.0 13.0 90.0 0  M 90.0 0 100 0" stroke="black" fill="transparent"
                  transform="translate(132.666667 802.000000) rotate (-6.170175 0 0) scale (0.620260 1)"/>
                  <path
                  d=" M 0 0 10.0 0  C 10.000000 -10.000000 23.333333 18.000000 23.333333 0  S 36.66666666666667 10.0 36.66666666666667 0  S 50.66666666666667 -18.0 50.66666666666667 0  S 64.66666666666667 18.0 64.66666666666667 0  S 78.66666666666667 -12.0 78.66666666666667 0  S 90.0 16.0 90.0 0  M 90.0 0 100 0" stroke="black" fill="transparent"
                  transform="translate(104.000000 849.333333) rotate (63.047821 0 0) scale (0.661891 1)"/>
                  <path
                  d=" M 0 0 10.0 0  C 10.000000 -11.000000 26.000000 12.000000 26.000000 0  S 42.0 13.0 42.0 0  S 58.0 -16.0 58.0 0  S 74.0 13.0 74.0 0  S 90.0 18.0 90.0 0  M 90.0 0 100 0" stroke="black" fill="transparent"
                  transform="translate(74.000000 271.666667) rotate (68.331759 0 0) scale (1.065275 1)"/>
                  <path
                  d=" M 0 0 10.0 0  C 10.000000 -16.000000 23.333333 11.000000 23.333333 0  S 36.66666666666667 17.0 36.66666666666667 0  S 50.66666666666667 -13.0 50.66666666666667 0  S 64.66666666666667 17.0 64.66666666666667 0  S 78.66666666666667 -13.0 78.66666666666667 0  S 90.0 11.0 90.0 0  M 90.0 0 100 0" stroke="black" fill="transparent"
                  transform="translate(805.000000 97.333333) rotate (-21.455477 0 0) scale (0.820169 1)"/>
                  <path
                  d=" M 0 0 10.0 0  C 10.000000 -14.000000 26.000000 11.000000 26.000000 0  S 42.0 17.0 42.0 0  S 58.0 -11.0 58.0 0  S 74.0 17.0 74.0 0  S 90.0 17.0 90.0 0  M 90.0 0 100 0" stroke="black" fill="transparent"
                  transform="translate(829.666667 140.000000) rotate (8.339976 0 0) scale (0.643471 1)"/>
                  <path
                  d=" M 0 0 10.0 0  C 10.000000 -10.000000 23.333333 18.000000 23.333333 0  S 36.66666666666667 12.0 36.66666666666667 0  S 50.66666666666667 -19.0 50.66666666666667 0  S 64.66666666666667 12.0 64.66666666666667 0  S 78.66666666666667 -15.0 78.66666666666667 0  S 90.0 13.0 90.0 0  M 90.0 0 100 0" stroke="black" fill="transparent"
                  transform="translate(899.000000 246.000000) rotate (-57.946510 0 0) scale (0.420819 1)"/>
                  <path
                  d=" M 0 0 10.0 0  C 10.000000 -14.000000 21.428571 13.000000 21.428571 0  S 32.85714285714286 10.0 32.85714285714286 0  S 44.85714285714286 -10.0 44.85714285714286 0  S 56.85714285714286 10.0 56.85714285714286 0  S 68.85714285714286 -15.0 68.85714285714286 0  S 80.85714285714286 13.0 80.85714285714286 0  S 90.0 15.0 90.0 0  M 90.0 0 100 0" stroke="black" fill="transparent"
                  transform="translate(738.666667 96.333333) rotate (-11.490026 0 0) scale (1.455843 1)"/>
                  
  <path id="cat" fill="none" stroke="#000000" stroke-width="1" stroke-miterlimit="10" d="M55.571,141.777l55.54,0.994
        c0.142-7.894-0.396-9.472-13.47-9.706c2.201-6.229,10.96-21.235,15.679-21.15c4.177,0.075,9.152,0.395,8.982,9.915
        c-0.193,10.812,17.689,28.577,22.23,21.538c6.766-10.479-11.173-7.564-10.715-33.132c0.626-34.97,20.944-29.626,21.295-49.276
        c0.176-9.83-2.514-11.206-2.388-18.234c0.167-9.286,8.34-8.601,6.885-16.331c-1.006-5.339-1.79-9.62-2.313-16.064
        c-0.375-4.573-0.436-9.441-5.177-9.33c-5.573,0.13-7.862,9.897-16.535,10.445c-8.652,0.547-15.876-7.642-19.244-6.551
        c-3.333,1.082-2.453,10.097-0.601,16.521c2.912,10.098,9.417,23.274-2.906,25.02c-12.323,1.746-33.492,3.334-49.089,23.213
        c-15.597,19.878-15.46,43.54-21.557,50.747c-20.472,24.196-40.82,13.749-41.186,34.17c-0.164,9.146,15.213,16.005,17.724,13.1
        c2.51-2.905-20.671-12.105,5.628-22.024C46.823,137.176,48.846,135.403,55.571,141.777z"
        transform="translate(320.5 316.5)"
        />
  <path
                  d=" M 0 0 10.0 0  C 10.000000 -13.000000 26.000000 17.000000 26.000000 0  S 42.0 15.0 42.0 0  S 58.0 -19.0 58.0 0  S 74.0 17.0 74.0 0  S 90.0 18.0 90.0 0  M 90.0 0 100 0" stroke="black" fill="transparent"
                  transform="translate(339.230000 484.170000) rotate (112.433394 0 0) scale (0.643678 1)"/>
                  <path
                  d=" M 0 0 10.0 0  C 10.000000 -15.000000 23.333333 10.000000 23.333333 0  S 36.66666666666667 15.0 36.66666666666667 0  S 50.66666666666667 -13.0 50.66666666666667 0  S 64.66666666666667 13.0 64.66666666666667 0  S 78.66666666666667 -13.0 78.66666666666667 0  S 90.0 10.0 90.0 0  M 90.0 0 100 0" stroke="black" fill="transparent"
                  transform="translate(384.240000 386.150000) rotate (-129.060368 0 0) scale (1.474384 1)"/>
                  <path
                  d=" M 0 0 10.0 0  C 10.000000 -19.000000 21.428571 11.000000 21.428571 0  S 32.85714285714286 12.0 32.85714285714286 0  S 44.85714285714286 -12.0 44.85714285714286 0  S 56.85714285714286 19.0 56.85714285714286 0  S 68.85714285714286 -10.0 68.85714285714286 0  S 80.85714285714286 18.0 80.85714285714286 0  S 90.0 16.0 90.0 0  M 90.0 0 100 0" stroke="black" fill="transparent"
                  transform="translate(436.840000 321.390000) rotate (-76.220795 0 0) scale (1.126314 1)"/>
                  <path
                  d=" M 0 0 10.0 0  C 10.000000 -19.000000 26.000000 17.000000 26.000000 0  S 42.0 13.0 42.0 0  S 58.0 -14.0 58.0 0  S 74.0 15.0 74.0 0  S 90.0 11.0 90.0 0  M 90.0 0 100 0" stroke="black" fill="transparent"
                  transform="translate(465.030000 459.870000) rotate (58.675298 0 0) scale (0.941935 1)"/>
                  <path
                  d=" M 0 0 10.0 0  C 10.000000 -12.000000 26.000000 19.000000 26.000000 0  S 42.0 17.0 42.0 0  S 58.0 -19.0 58.0 0  S 74.0 18.0 74.0 0  S 90.0 11.0 90.0 0  M 90.0 0 100 0" stroke="black" fill="transparent"
                  transform="translate(475.610000 377.460000) rotate (-38.256655 0 0) scale (1.019512 1)"/>
                  
</svg>
