<svg xmlns="http://www.w3.org/2000/svg"
  xmlns:xlink="http://www.w3.org/1999/xlink"
  width="1500" height="1500">
<path
  d=" M 0 0 10.0 0 C 10.0 -19.0 17.0 11.0 20.0 0  S 30.0 15.0 30.0 0 S 40.0 -11.0 40.0 0 S 50.0 10.0 50.0 0 S 60.0 -17.0 60.0 0 S 70.0 11.0 70.0 0 S 80.0 -13.0 80.0 0 S 90.0 16.0 90.0 0 M 90.0 0 100 0" stroke="black" fill="transparent"
  transform="translate(569.239970 597.153870) rotate (43.119180 0 0) scale (0.715637 1)"/>
  <path
  d=" M 0 0 10.0 0 C 11.0 -11.0 21.0 17.0 26.0 0  S 42.0 19.0 42.0 0 S 58.0 -16.0 58.0 0 S 74.0 16.0 74.0 0 S 90.0 12.0 90.0 0 M 90.0 0 100 0" stroke="black" fill="transparent"
  transform="translate(536.352051 639.209127) rotate (-51.973994 0 0) scale (0.533878 1)"/>
  <path
  d=" M 0 0 10.0 0 C 3.0 -18.0 24.0 11.0 26.0 0  S 42.0 10.0 42.0 0 S 58.0 -17.0 58.0 0 S 74.0 17.0 74.0 0 S 90.0 11.0 90.0 0 M 90.0 0 100 0" stroke="black" fill="transparent"
  transform="translate(536.352051 639.209127) rotate (72.051537 0 0) scale (1.112171 1)"/>
  <path
  d=" M 0 0 10.0 0 C 10.0 -11.0 16.0 18.0 20.0 0  S 30.0 10.0 30.0 0 S 40.0 -18.0 40.0 0 S 50.0 12.0 50.0 0 S 60.0 -17.0 60.0 0 S 70.0 17.0 70.0 0 S 80.0 -14.0 80.0 0 S 90.0 13.0 90.0 0 M 90.0 0 100 0" stroke="black" fill="transparent"
  transform="translate(570.624858 745.013713) rotate (-12.989055 0 0) scale (0.634635 1)"/>
  <path
  d=" M 0 0 10.0 0 C 12.0 -11.0 26.0 17.0 26.0 0  S 42.0 16.0 42.0 0 S 58.0 -10.0 58.0 0 S 74.0 10.0 74.0 0 S 90.0 17.0 90.0 0 M 90.0 0 100 0" stroke="black" fill="transparent"
  transform="translate(621.476746 646.068990) rotate (82.606858 0 0) scale (0.853902 1)"/>
  <path
  d=" M 0 0 10.0 0 C 13.0 -19.0 22.0 14.0 20.0 0  S 30.0 18.0 30.0 0 S 40.0 -10.0 40.0 0 S 50.0 18.0 50.0 0 S 60.0 -13.0 60.0 0 S 70.0 18.0 70.0 0 S 80.0 -16.0 80.0 0 S 90.0 17.0 90.0 0 M 90.0 0 100 0" stroke="black" fill="transparent"
  transform="translate(629.744507 531.542419) rotate (21.011174 0 0) scale (1.144056 1)"/>
  <path
  d=" M 0 0 10.0 0 C 7.666666666666667 -15.0 18.000000000000004 10.0 23.333333333333336 0  S 36.66666666666667 13.0 36.66666666666667 0 S 50.66666666666667 -15.0 50.66666666666667 0 S 64.66666666666667 13.0 64.66666666666667 0 S 78.66666666666667 -14.0 78.66666666666667 0 S 90.0 10.0 90.0 0 M 90.0 0 100 0" stroke="black" fill="transparent"
  transform="translate(592.856588 567.597677) rotate (-44.345985 0 0) scale (0.515820 1)"/>
  <path
  d=" M 0 0 10.0 0 C 9.714285714285715 -10.0 24.142857142857146 10.0 21.42857142857143 0  S 32.85714285714286 14.0 32.85714285714286 0 S 44.85714285714286 -19.0 44.85714285714286 0 S 56.85714285714286 12.0 56.85714285714286 0 S 68.85714285714286 -17.0 68.85714285714286 0 S 80.85714285714286 10.0 80.85714285714286 0 S 90.0 14.0 90.0 0 M 90.0 0 100 0" stroke="black" fill="transparent"
  transform="translate(592.856588 567.597677) rotate (43.119180 0 0) scale (0.715637 1)"/>
  <path
  d=" M 0 0 10.0 0 C 9.0 -10.0 19.0 10.0 20.0 0  S 30.0 17.0 30.0 0 S 40.0 -13.0 40.0 0 S 50.0 16.0 50.0 0 S 60.0 -14.0 60.0 0 S 70.0 11.0 70.0 0 S 80.0 -17.0 80.0 0 S 90.0 17.0 90.0 0 M 90.0 0 100 0" stroke="black" fill="transparent"
  transform="translate(645.093363 616.512797) rotate (13.400073 0 0) scale (0.858510 1)"/>
  <path
  d=" M 0 0 10.0 0 C 6.0 -11.0 20.0 17.0 20.0 0  S 30.0 12.0 30.0 0 S 40.0 -14.0 40.0 0 S 50.0 19.0 50.0 0 S 60.0 -10.0 60.0 0 S 70.0 14.0 70.0 0 S 80.0 -16.0 80.0 0 S 90.0 17.0 90.0 0 M 90.0 0 100 0" stroke="black" fill="transparent"
  transform="translate(728.607117 636.408691) rotate (-82.914370 0 0) scale (0.643375 1)"/>
  <path
  d=" M 0 0 10.0 0 C 8.0 -18.0 18.0 14.0 20.0 0  S 30.0 16.0 30.0 0 S 40.0 -13.0 40.0 0 S 50.0 11.0 50.0 0 S 60.0 -13.0 60.0 0 S 70.0 12.0 70.0 0 S 80.0 -14.0 80.0 0 S 90.0 17.0 90.0 0 M 90.0 0 100 0" stroke="black" fill="transparent"
  transform="translate(467.171285 658.752441) rotate (-89.336895 0 0) scale (0.719480 1)"/>
  <path
  d=" M 0 0 10.0 0 C 11.0 -17.0 24.0 15.0 20.0 0  S 30.0 18.0 30.0 0 S 40.0 -13.0 40.0 0 S 50.0 17.0 50.0 0 S 60.0 -19.0 60.0 0 S 70.0 19.0 70.0 0 S 80.0 -11.0 80.0 0 S 90.0 13.0 90.0 0 M 90.0 0 100 0" stroke="black" fill="transparent"
  transform="translate(467.171285 658.752441) rotate (-15.774793 0 0) scale (0.718882 1)"/>
  <path
  d=" M 0 0 10.0 0 C 14.714285714285715 -15.0 22.142857142857146 11.0 21.42857142857143 0  S 32.85714285714286 16.0 32.85714285714286 0 S 44.85714285714286 -18.0 44.85714285714286 0 S 56.85714285714286 10.0 56.85714285714286 0 S 68.85714285714286 -12.0 68.85714285714286 0 S 80.85714285714286 11.0 80.85714285714286 0 S 90.0 11.0 90.0 0 M 90.0 0 100 0" stroke="black" fill="transparent"
  transform="translate(569.239970 597.153870) rotate (-51.373702 0 0) scale (0.378327 1)"/>
  <path
  d=" M 0 0 10.0 0 C 9.0 -17.0 31.0 13.0 26.0 0  S 42.0 16.0 42.0 0 S 58.0 -11.0 58.0 0 S 74.0 10.0 74.0 0 S 90.0 15.0 90.0 0 M 90.0 0 100 0" stroke="black" fill="transparent"
  transform="translate(581.547607 512.932597) rotate (21.112609 0 0) scale (0.516649 1)"/>
  <path
  d=" M 0 0 10.0 0 C 7.0 -15.0 17.0 10.0 20.0 0  S 30.0 17.0 30.0 0 S 40.0 -12.0 40.0 0 S 50.0 17.0 50.0 0 S 60.0 -11.0 60.0 0 S 70.0 11.0 70.0 0 S 80.0 -19.0 80.0 0 S 90.0 18.0 90.0 0 M 90.0 0 100 0" stroke="black" fill="transparent"
  transform="translate(468.003947 586.809265) rotate (-33.049858 0 0) scale (1.354619 1)"/>
  <path
  d=" M 0 0 10.0 0 C 15.0 -11.0 33.0 13.0 26.0 0  S 42.0 11.0 42.0 0 S 58.0 -15.0 58.0 0 S 74.0 12.0 74.0 0 S 90.0 14.0 90.0 0 M 90.0 0 100 0" stroke="black" fill="transparent"
  transform="translate(621.476746 646.068990) rotate (-51.373702 0 0) scale (0.378327 1)"/>
  <path
  d=" M 0 0 10.0 0 C 14.666666666666668 -19.0 23.000000000000004 13.0 23.333333333333336 0  S 36.66666666666667 11.0 36.66666666666667 0 S 50.66666666666667 -19.0 50.66666666666667 0 S 64.66666666666667 16.0 64.66666666666667 0 S 78.66666666666667 -17.0 78.66666666666667 0 S 90.0 13.0 90.0 0 M 90.0 0 100 0" stroke="black" fill="transparent"
  transform="translate(728.607117 636.408691) rotate (65.442916 0 0) scale (0.511236 1)"/>
  <path
  d=" M 0 0 10.0 0 C 4.666666666666667 -11.0 28.000000000000004 18.0 23.333333333333336 0  S 36.66666666666667 10.0 36.66666666666667 0 S 50.66666666666667 -10.0 50.66666666666667 0 S 64.66666666666667 14.0 64.66666666666667 0 S 78.66666666666667 -16.0 78.66666666666667 0 S 90.0 17.0 90.0 0 M 90.0 0 100 0" stroke="black" fill="transparent"
  transform="translate(677.328064 747.692505) rotate (-41.773092 0 0) scale (0.972474 1)"/>
  <path
  d=" M 0 0 10.0 0 C 8.0 -10.0 34.0 10.0 26.0 0  S 42.0 13.0 42.0 0 S 58.0 -15.0 58.0 0 S 74.0 18.0 74.0 0 S 90.0 15.0 90.0 0 M 90.0 0 100 0" stroke="black" fill="transparent"
  transform="translate(632.464498 730.749349) rotate (20.689525 0 0) scale (0.479563 1)"/>
  <path
  d=" M 0 0 10.0 0 C 15.0 -10.0 24.0 11.0 26.0 0  S 42.0 15.0 42.0 0 S 58.0 -16.0 58.0 0 S 74.0 16.0 74.0 0 S 90.0 16.0 90.0 0 M 90.0 0 100 0" stroke="black" fill="transparent"
  transform="translate(778.248067 493.873138) rotate (60.025046 0 0) scale (0.800437 1)"/>
  <path
  d=" M 0 0 10.0 0 C 6.714285714285714 -12.0 23.142857142857146 10.0 21.42857142857143 0  S 32.85714285714286 10.0 32.85714285714286 0 S 44.85714285714286 -10.0 44.85714285714286 0 S 56.85714285714286 16.0 56.85714285714286 0 S 68.85714285714286 -18.0 68.85714285714286 0 S 80.85714285714286 12.0 80.85714285714286 0 S 90.0 15.0 90.0 0 M 90.0 0 100 0" stroke="black" fill="transparent"
  transform="translate(736.543315 572.562541) rotate (-6.530416 0 0) scale (0.822298 1)"/>
  <path
  d=" M 0 0 10.0 0 C 8.0 -15.0 19.0 13.0 26.0 0  S 42.0 17.0 42.0 0 S 58.0 -14.0 58.0 0 S 74.0 10.0 74.0 0 S 90.0 13.0 90.0 0 M 90.0 0 100 0" stroke="black" fill="transparent"
  transform="translate(581.547607 512.932597) rotate (-22.970363 0 0) scale (0.725609 1)"/>
  <path
  d=" M 0 0 10.0 0 C 15.0 -15.0 27.0 18.0 26.0 0  S 42.0 18.0 42.0 0 S 58.0 -12.0 58.0 0 S 74.0 18.0 74.0 0 S 90.0 12.0 90.0 0 M 90.0 0 100 0" stroke="black" fill="transparent"
  transform="translate(648.354879 484.615367) rotate (4.076702 0 0) scale (1.302227 1)"/>
  <path
  d=" M 0 0 10.0 0 C 12.666666666666668 -14.0 24.000000000000004 15.0 23.333333333333336 0  S 36.66666666666667 12.0 36.66666666666667 0 S 50.66666666666667 -12.0 50.66666666666667 0 S 64.66666666666667 16.0 64.66666666666667 0 S 78.66666666666667 -13.0 78.66666666666667 0 S 90.0 16.0 90.0 0 M 90.0 0 100 0" stroke="black" fill="transparent"
  transform="translate(749.854065 682.908040) rotate (29.504288 0 0) scale (0.346498 1)"/>
  <path
  d=" M 0 0 10.0 0 C 12.0 -12.0 24.0 15.0 26.0 0  S 42.0 18.0 42.0 0 S 58.0 -14.0 58.0 0 S 74.0 18.0 74.0 0 S 90.0 14.0 90.0 0 M 90.0 0 100 0" stroke="black" fill="transparent"
  transform="translate(707.484477 764.757161) rotate (-41.773092 0 0) scale (0.972474 1)"/>
  <path
  d=" M 0 0 10.0 0 C 12.666666666666668 -14.0 19.000000000000004 17.0 23.333333333333336 0  S 36.66666666666667 15.0 36.66666666666667 0 S 50.66666666666667 -14.0 50.66666666666667 0 S 64.66666666666667 17.0 64.66666666666667 0 S 78.66666666666667 -14.0 78.66666666666667 0 S 90.0 16.0 90.0 0 M 90.0 0 100 0" stroke="black" fill="transparent"
  transform="translate(677.328064 747.692505) rotate (29.504288 0 0) scale (0.346498 1)"/>
  <path
  d=" M 0 0 10.0 0 C 8.714285714285715 -11.0 17.142857142857146 10.0 21.42857142857143 0  S 32.85714285714286 17.0 32.85714285714286 0 S 44.85714285714286 -10.0 44.85714285714286 0 S 56.85714285714286 19.0 56.85714285714286 0 S 68.85714285714286 -14.0 68.85714285714286 0 S 80.85714285714286 13.0 80.85714285714286 0 S 90.0 14.0 90.0 0 M 90.0 0 100 0" stroke="black" fill="transparent"
  transform="translate(450.267466 733.651469) rotate (-77.282097 0 0) scale (0.767828 1)"/>
  <path
  d=" M 0 0 10.0 0 C 9.0 -17.0 25.0 17.0 20.0 0  S 30.0 15.0 30.0 0 S 40.0 -13.0 40.0 0 S 50.0 12.0 50.0 0 S 60.0 -14.0 60.0 0 S 70.0 19.0 70.0 0 S 80.0 -10.0 80.0 0 S 90.0 16.0 90.0 0 M 90.0 0 100 0" stroke="black" fill="transparent"
  transform="translate(450.267466 733.651469) rotate (28.131368 0 0) scale (0.993838 1)"/>
  <path
  d=" M 0 0 10.0 0 C 13.0 -12.0 23.0 16.0 20.0 0  S 30.0 13.0 30.0 0 S 40.0 -10.0 40.0 0 S 50.0 10.0 50.0 0 S 60.0 -16.0 60.0 0 S 70.0 10.0 70.0 0 S 80.0 -16.0 80.0 0 S 90.0 16.0 90.0 0 M 90.0 0 100 0" stroke="black" fill="transparent"
  transform="translate(537.910960 780.510417) rotate (-47.336216 0 0) scale (0.482723 1)"/>
  <path
  d=" M 0 0 10.0 0 C 9.714285714285715 -18.0 19.142857142857146 11.0 21.42857142857143 0  S 32.85714285714286 12.0 32.85714285714286 0 S 44.85714285714286 -10.0 44.85714285714286 0 S 56.85714285714286 15.0 56.85714285714286 0 S 68.85714285714286 -13.0 68.85714285714286 0 S 80.85714285714286 18.0 80.85714285714286 0 S 90.0 13.0 90.0 0 M 90.0 0 100 0" stroke="black" fill="transparent"
  transform="translate(440.180878 569.077952) rotate (32.508880 0 0) scale (0.329928 1)"/>
  <path
  d=" M 0 0 10.0 0 C 13.0 -17.0 23.0 18.0 20.0 0  S 30.0 11.0 30.0 0 S 40.0 -16.0 40.0 0 S 50.0 18.0 50.0 0 S 60.0 -15.0 60.0 0 S 70.0 12.0 70.0 0 S 80.0 -18.0 80.0 0 S 90.0 17.0 90.0 0 M 90.0 0 100 0" stroke="black" fill="transparent"
  transform="translate(440.180878 569.077952) rotate (-74.972444 0 0) scale (1.023851 1)"/>
  <path
  d=" M 0 0 10.0 0 C 14.714285714285715 -16.0 22.142857142857146 19.0 21.42857142857143 0  S 32.85714285714286 14.0 32.85714285714286 0 S 44.85714285714286 -10.0 44.85714285714286 0 S 56.85714285714286 18.0 56.85714285714286 0 S 68.85714285714286 -10.0 68.85714285714286 0 S 80.85714285714286 18.0 80.85714285714286 0 S 90.0 16.0 90.0 0 M 90.0 0 100 0" stroke="black" fill="transparent"
  transform="translate(466.727661 470.194265) rotate (-85.005109 0 0) scale (0.441957 1)"/>
  <path
  d=" M 0 0 10.0 0 C 18.0 -15.0 23.0 15.0 26.0 0  S 42.0 11.0 42.0 0 S 58.0 -18.0 58.0 0 S 74.0 15.0 74.0 0 S 90.0 13.0 90.0 0 M 90.0 0 100 0" stroke="black" fill="transparent"
  transform="translate(470.575643 426.166412) rotate (-16.044601 0 0) scale (0.951753 1)"/>
  <path
  d=" M 0 0 10.0 0 C 6.714285714285714 -12.0 21.142857142857146 15.0 21.42857142857143 0  S 32.85714285714286 13.0 32.85714285714286 0 S 44.85714285714286 -14.0 44.85714285714286 0 S 56.85714285714286 10.0 56.85714285714286 0 S 68.85714285714286 -13.0 68.85714285714286 0 S 80.85714285714286 15.0 80.85714285714286 0 S 90.0 19.0 90.0 0 M 90.0 0 100 0" stroke="black" fill="transparent"
  transform="translate(562.043549 399.861338) rotate (20.222527 0 0) scale (0.967461 1)"/>
  <path
  d=" M 0 0 10.0 0 C 10.0 -16.0 16.0 10.0 20.0 0  S 30.0 13.0 30.0 0 S 40.0 -14.0 40.0 0 S 50.0 16.0 50.0 0 S 60.0 -19.0 60.0 0 S 70.0 10.0 70.0 0 S 80.0 -10.0 80.0 0 S 90.0 15.0 90.0 0 M 90.0 0 100 0" stroke="black" fill="transparent"
  transform="translate(648.354879 484.615367) rotate (-85.020166 0 0) scale (0.515065 1)"/>
  <path
  d=" M 0 0 10.0 0 C 10.0 -11.0 20.0 11.0 20.0 0  S 30.0 15.0 30.0 0 S 40.0 -13.0 40.0 0 S 50.0 10.0 50.0 0 S 60.0 -14.0 60.0 0 S 70.0 11.0 70.0 0 S 80.0 -16.0 80.0 0 S 90.0 13.0 90.0 0 M 90.0 0 100 0" stroke="black" fill="transparent"
  transform="translate(374.944753 584.497447) rotate (-13.298609 0 0) scale (0.670337 1)"/>
  <path
  d=" M 0 0 10.0 0 C 11.714285714285715 -16.0 20.142857142857146 16.0 21.42857142857143 0  S 32.85714285714286 18.0 32.85714285714286 0 S 44.85714285714286 -13.0 44.85714285714286 0 S 56.85714285714286 19.0 56.85714285714286 0 S 68.85714285714286 -16.0 68.85714285714286 0 S 80.85714285714286 14.0 80.85714285714286 0 S 90.0 13.0 90.0 0 M 90.0 0 100 0" stroke="black" fill="transparent"
  transform="translate(345.992981 513.809377) rotate (67.727424 0 0) scale (0.763872 1)"/>
  <path
  d=" M 0 0 10.0 0 C 9.0 -19.0 32.0 12.0 26.0 0  S 42.0 18.0 42.0 0 S 58.0 -19.0 58.0 0 S 74.0 10.0 74.0 0 S 90.0 16.0 90.0 0 M 90.0 0 100 0" stroke="black" fill="transparent"
  transform="translate(345.992981 513.809377) rotate (-44.640397 0 0) scale (0.663111 1)"/>
  <path
  d=" M 0 0 10.0 0 C 8.0 -18.0 25.0 13.0 20.0 0  S 30.0 17.0 30.0 0 S 40.0 -14.0 40.0 0 S 50.0 13.0 50.0 0 S 60.0 -17.0 60.0 0 S 70.0 14.0 70.0 0 S 80.0 -18.0 80.0 0 S 90.0 16.0 90.0 0 M 90.0 0 100 0" stroke="black" fill="transparent"
  transform="translate(393.175405 467.215525) rotate (2.319113 0 0) scale (0.736125 1)"/>
  <path
  d=" M 0 0 10.0 0 C 15.666666666666668 -11.0 28.000000000000004 18.0 23.333333333333336 0  S 36.66666666666667 14.0 36.66666666666667 0 S 50.66666666666667 -17.0 50.66666666666667 0 S 64.66666666666667 17.0 64.66666666666667 0 S 78.66666666666667 -10.0 78.66666666666667 0 S 90.0 12.0 90.0 0 M 90.0 0 100 0" stroke="black" fill="transparent"
  transform="translate(652.825907 433.303274) rotate (-24.054877 0 0) scale (0.894172 1)"/>
  <path
  d=" M 0 0 10.0 0 C 6.0 -13.0 22.0 17.0 26.0 0  S 42.0 12.0 42.0 0 S 58.0 -12.0 58.0 0 S 74.0 14.0 74.0 0 S 90.0 12.0 90.0 0 M 90.0 0 100 0" stroke="black" fill="transparent"
  transform="translate(734.477702 396.855804) rotate (30.386250 0 0) scale (0.789436 1)"/>
  <path
  d=" M 0 0 10.0 0 C 10.666666666666668 -12.0 26.000000000000004 17.0 23.333333333333336 0  S 36.66666666666667 10.0 36.66666666666667 0 S 50.66666666666667 -16.0 50.66666666666667 0 S 64.66666666666667 19.0 64.66666666666667 0 S 78.66666666666667 -17.0 78.66666666666667 0 S 90.0 19.0 90.0 0 M 90.0 0 100 0" stroke="black" fill="transparent"
  transform="translate(802.577250 436.787608) rotate (43.453637 0 0) scale (0.664545 1)"/>
  <path
  d=" M 0 0 10.0 0 C 6.666666666666667 -13.0 29.000000000000004 17.0 23.333333333333336 0  S 36.66666666666667 10.0 36.66666666666667 0 S 50.66666666666667 -14.0 50.66666666666667 0 S 64.66666666666667 18.0 64.66666666666667 0 S 78.66666666666667 -14.0 78.66666666666667 0 S 90.0 11.0 90.0 0 M 90.0 0 100 0" stroke="black" fill="transparent"
  transform="translate(778.248067 493.873138) rotate (-8.912361 0 0) scale (0.734575 1)"/>
  <path
  d=" M 0 0 10.0 0 C 14.0 -18.0 31.0 13.0 26.0 0  S 42.0 15.0 42.0 0 S 58.0 -11.0 58.0 0 S 74.0 14.0 74.0 0 S 90.0 17.0 90.0 0 M 90.0 0 100 0" stroke="black" fill="transparent"
  transform="translate(780.010478 699.972697) rotate (34.546300 0 0) scale (0.535285 1)"/>
  <path
  d=" M 0 0 10.0 0 C 3.666666666666667 -15.0 23.000000000000004 14.0 23.333333333333336 0  S 36.66666666666667 13.0 36.66666666666667 0 S 50.66666666666667 -12.0 50.66666666666667 0 S 64.66666666666667 17.0 64.66666666666667 0 S 78.66666666666667 -17.0 78.66666666666667 0 S 90.0 18.0 90.0 0 M 90.0 0 100 0" stroke="black" fill="transparent"
  transform="translate(707.484477 764.757161) rotate (77.288174 0 0) scale (0.774694 1)"/>
  <path
  d=" M 0 0 10.0 0 C 7.0 -18.0 20.0 15.0 20.0 0  S 30.0 14.0 30.0 0 S 40.0 -18.0 40.0 0 S 50.0 19.0 50.0 0 S 60.0 -18.0 60.0 0 S 70.0 17.0 70.0 0 S 80.0 -18.0 80.0 0 S 90.0 13.0 90.0 0 M 90.0 0 100 0" stroke="black" fill="transparent"
  transform="translate(724.531433 840.327738) rotate (-15.164215 0 0) scale (0.730336 1)"/>
  <path
  d=" M 0 0 10.0 0 C 15.0 -12.0 17.0 16.0 20.0 0  S 30.0 15.0 30.0 0 S 40.0 -10.0 40.0 0 S 50.0 12.0 50.0 0 S 60.0 -19.0 60.0 0 S 70.0 15.0 70.0 0 S 80.0 -13.0 80.0 0 S 90.0 16.0 90.0 0 M 90.0 0 100 0" stroke="black" fill="transparent"
  transform="translate(795.021993 821.223145) rotate (-72.260185 0 0) scale (0.954338 1)"/>
  <path
  d=" M 0 0 10.0 0 C 13.714285714285715 -16.0 25.142857142857146 19.0 21.42857142857143 0  S 32.85714285714286 15.0 32.85714285714286 0 S 44.85714285714286 -13.0 44.85714285714286 0 S 56.85714285714286 18.0 56.85714285714286 0 S 68.85714285714286 -15.0 68.85714285714286 0 S 80.85714285714286 10.0 80.85714285714286 0 S 90.0 16.0 90.0 0 M 90.0 0 100 0" stroke="black" fill="transparent"
  transform="translate(407.350189 761.116516) rotate (-32.617339 0 0) scale (0.509531 1)"/>
  <path
  d=" M 0 0 10.0 0 C 15.714285714285715 -10.0 20.142857142857146 18.0 21.42857142857143 0  S 32.85714285714286 18.0 32.85714285714286 0 S 44.85714285714286 -16.0 44.85714285714286 0 S 56.85714285714286 12.0 56.85714285714286 0 S 68.85714285714286 -16.0 68.85714285714286 0 S 80.85714285714286 19.0 80.85714285714286 0 S 90.0 18.0 90.0 0 M 90.0 0 100 0" stroke="black" fill="transparent"
  transform="translate(532.932220 854.062663) rotate (-86.127565 0 0) scale (0.737206 1)"/>
  <path
  d=" M 0 0 10.0 0 C 9.0 -11.0 23.0 10.0 20.0 0  S 30.0 15.0 30.0 0 S 40.0 -18.0 40.0 0 S 50.0 10.0 50.0 0 S 60.0 -17.0 60.0 0 S 70.0 10.0 70.0 0 S 80.0 -12.0 80.0 0 S 90.0 17.0 90.0 0 M 90.0 0 100 0" stroke="black" fill="transparent"
  transform="translate(446.139272 838.902608) rotate (9.907854 0 0) scale (0.881070 1)"/>
  <path
  d=" M 0 0 10.0 0 C 8.714285714285715 -16.0 21.142857142857146 19.0 21.42857142857143 0  S 32.85714285714286 13.0 32.85714285714286 0 S 44.85714285714286 -19.0 44.85714285714286 0 S 56.85714285714286 11.0 56.85714285714286 0 S 68.85714285714286 -12.0 68.85714285714286 0 S 80.85714285714286 16.0 80.85714285714286 0 S 90.0 16.0 90.0 0 M 90.0 0 100 0" stroke="black" fill="transparent"
  transform="translate(407.350189 761.116516) rotate (63.496243 0 0) scale (0.869211 1)"/>
  <path
  d=" M 0 0 10.0 0 C 15.0 -17.0 22.0 18.0 20.0 0  S 30.0 13.0 30.0 0 S 40.0 -10.0 40.0 0 S 50.0 12.0 50.0 0 S 60.0 -19.0 60.0 0 S 70.0 15.0 70.0 0 S 80.0 -17.0 80.0 0 S 90.0 17.0 90.0 0 M 90.0 0 100 0" stroke="black" fill="transparent"
  transform="translate(348.080556 764.777262) rotate (-3.534343 0 0) scale (0.593826 1)"/>
  <path
  d=" M 0 0 10.0 0 C 16.666666666666668 -16.0 23.000000000000004 10.0 23.333333333333336 0  S 36.66666666666667 13.0 36.66666666666667 0 S 50.66666666666667 -18.0 50.66666666666667 0 S 64.66666666666667 12.0 64.66666666666667 0 S 78.66666666666667 -16.0 78.66666666666667 0 S 90.0 11.0 90.0 0 M 90.0 0 100 0" stroke="black" fill="transparent"
  transform="translate(279.242035 701.886454) rotate (42.414793 0 0) scale (0.932416 1)"/>
  <path
  d=" M 0 0 10.0 0 C 7.714285714285714 -16.0 24.142857142857146 12.0 21.42857142857143 0  S 32.85714285714286 14.0 32.85714285714286 0 S 44.85714285714286 -13.0 44.85714285714286 0 S 56.85714285714286 11.0 56.85714285714286 0 S 68.85714285714286 -11.0 68.85714285714286 0 S 80.85714285714286 19.0 80.85714285714286 0 S 90.0 12.0 90.0 0 M 90.0 0 100 0" stroke="black" fill="transparent"
  transform="translate(279.242035 701.886454) rotate (-88.273677 0 0) scale (0.719366 1)"/>
  <path
  d=" M 0 0 10.0 0 C 3.0 -11.0 27.0 15.0 26.0 0  S 42.0 18.0 42.0 0 S 58.0 -11.0 58.0 0 S 74.0 13.0 74.0 0 S 90.0 12.0 90.0 0 M 90.0 0 100 0" stroke="black" fill="transparent"
  transform="translate(281.409159 629.982483) rotate (-25.932999 0 0) scale (1.040086 1)"/>
  <path
  d=" M 0 0 10.0 0 C 10.0 -11.0 23.0 13.0 20.0 0  S 30.0 15.0 30.0 0 S 40.0 -13.0 40.0 0 S 50.0 11.0 50.0 0 S 60.0 -11.0 60.0 0 S 70.0 10.0 70.0 0 S 80.0 -16.0 80.0 0 S 90.0 12.0 90.0 0 M 90.0 0 100 0" stroke="black" fill="transparent"
  transform="translate(353.279556 349.085826) rotate (0.945694 0 0) scale (0.728354 1)"/>
  <path
  d=" M 0 0 10.0 0 C 3.666666666666667 -14.0 22.000000000000004 12.0 23.333333333333336 0  S 36.66666666666667 16.0 36.66666666666667 0 S 50.66666666666667 -16.0 50.66666666666667 0 S 64.66666666666667 14.0 64.66666666666667 0 S 78.66666666666667 -12.0 78.66666666666667 0 S 90.0 11.0 90.0 0 M 90.0 0 100 0" stroke="black" fill="transparent"
  transform="translate(426.104991 350.287954) rotate (59.626395 0 0) scale (0.879499 1)"/>
  <path
  d=" M 0 0 10.0 0 C 11.714285714285715 -16.0 17.142857142857146 15.0 21.42857142857143 0  S 32.85714285714286 10.0 32.85714285714286 0 S 44.85714285714286 -11.0 44.85714285714286 0 S 56.85714285714286 16.0 56.85714285714286 0 S 68.85714285714286 -19.0 68.85714285714286 0 S 80.85714285714286 18.0 80.85714285714286 0 S 90.0 19.0 90.0 0 M 90.0 0 100 0" stroke="black" fill="transparent"
  transform="translate(324.197952 421.985545) rotate (33.253707 0 0) scale (0.824842 1)"/>
  <path
  d=" M 0 0 10.0 0 C 9.714285714285715 -11.0 23.142857142857146 16.0 21.42857142857143 0  S 32.85714285714286 12.0 32.85714285714286 0 S 44.85714285714286 -14.0 44.85714285714286 0 S 56.85714285714286 10.0 56.85714285714286 0 S 68.85714285714286 -16.0 68.85714285714286 0 S 80.85714285714286 11.0 80.85714285714286 0 S 90.0 18.0 90.0 0 M 90.0 0 100 0" stroke="black" fill="transparent"
  transform="translate(324.197952 421.985545) rotate (-68.251651 0 0) scale (0.784864 1)"/>
  <path
  d=" M 0 0 10.0 0 C 9.714285714285715 -10.0 18.142857142857146 12.0 21.42857142857143 0  S 32.85714285714286 11.0 32.85714285714286 0 S 44.85714285714286 -17.0 44.85714285714286 0 S 56.85714285714286 16.0 56.85714285714286 0 S 68.85714285714286 -11.0 68.85714285714286 0 S 80.85714285714286 17.0 80.85714285714286 0 S 90.0 12.0 90.0 0 M 90.0 0 100 0" stroke="black" fill="transparent"
  transform="translate(802.577250 436.787608) rotate (-38.239083 0 0) scale (0.715910 1)"/>
  <path
  d=" M 0 0 10.0 0 C 14.714285714285715 -11.0 23.142857142857146 15.0 21.42857142857143 0  S 32.85714285714286 16.0 32.85714285714286 0 S 44.85714285714286 -19.0 44.85714285714286 0 S 56.85714285714286 18.0 56.85714285714286 0 S 68.85714285714286 -13.0 68.85714285714286 0 S 80.85714285714286 12.0 80.85714285714286 0 S 90.0 14.0 90.0 0 M 90.0 0 100 0" stroke="black" fill="transparent"
  transform="translate(734.477702 396.855804) rotate (-38.239083 0 0) scale (0.715910 1)"/>
  <path
  d=" M 0 0 10.0 0 C 13.714285714285715 -14.0 25.142857142857146 16.0 21.42857142857143 0  S 32.85714285714286 18.0 32.85714285714286 0 S 44.85714285714286 -14.0 44.85714285714286 0 S 56.85714285714286 11.0 56.85714285714286 0 S 68.85714285714286 -15.0 68.85714285714286 0 S 80.85714285714286 15.0 80.85714285714286 0 S 90.0 10.0 90.0 0 M 90.0 0 100 0" stroke="black" fill="transparent"
  transform="translate(790.707784 352.544952) rotate (30.386250 0 0) scale (0.789436 1)"/>
  <path
  d=" M 0 0 10.0 0 C 9.0 -11.0 17.0 14.0 20.0 0  S 30.0 15.0 30.0 0 S 40.0 -13.0 40.0 0 S 50.0 12.0 50.0 0 S 60.0 -18.0 60.0 0 S 70.0 15.0 70.0 0 S 80.0 -11.0 80.0 0 S 90.0 14.0 90.0 0 M 90.0 0 100 0" stroke="black" fill="transparent"
  transform="translate(818.239604 563.210490) rotate (14.343721 0 0) scale (1.010867 1)"/>
  <path
  d=" M 0 0 10.0 0 C 6.666666666666667 -12.0 19.000000000000004 15.0 23.333333333333336 0  S 36.66666666666667 17.0 36.66666666666667 0 S 50.66666666666667 -14.0 50.66666666666667 0 S 64.66666666666667 12.0 64.66666666666667 0 S 78.66666666666667 -10.0 78.66666666666667 0 S 90.0 19.0 90.0 0 M 90.0 0 100 0" stroke="black" fill="transparent"
  transform="translate(916.175110 588.253540) rotate (76.052649 0 0) scale (0.654257 1)"/>
  <path
  d=" M 0 0 10.0 0 C 15.0 -11.0 22.0 19.0 26.0 0  S 42.0 14.0 42.0 0 S 58.0 -14.0 58.0 0 S 74.0 19.0 74.0 0 S 90.0 15.0 90.0 0 M 90.0 0 100 0" stroke="black" fill="transparent"
  transform="translate(878.599569 728.338318) rotate (-55.141987 0 0) scale (0.933350 1)"/>
  <path
  d=" M 0 0 10.0 0 C 14.0 -14.0 23.0 16.0 20.0 0  S 30.0 15.0 30.0 0 S 40.0 -14.0 40.0 0 S 50.0 18.0 50.0 0 S 60.0 -12.0 60.0 0 S 70.0 14.0 70.0 0 S 80.0 -14.0 80.0 0 S 90.0 18.0 90.0 0 M 90.0 0 100 0" stroke="black" fill="transparent"
  transform="translate(824.100199 730.327209) rotate (-2.090016 0 0) scale (0.545356 1)"/>
  <path
  d=" M 0 0 10.0 0 C 12.0 -15.0 21.0 16.0 26.0 0  S 42.0 19.0 42.0 0 S 58.0 -17.0 58.0 0 S 74.0 12.0 74.0 0 S 90.0 15.0 90.0 0 M 90.0 0 100 0" stroke="black" fill="transparent"
  transform="translate(580.135946 904.541097) rotate (-2.986579 0 0) scale (0.924277 1)"/>
  <path
  d=" M 0 0 10.0 0 C 5.666666666666667 -11.0 21.000000000000004 15.0 23.333333333333336 0  S 36.66666666666667 17.0 36.66666666666667 0 S 50.66666666666667 -19.0 50.66666666666667 0 S 64.66666666666667 12.0 64.66666666666667 0 S 78.66666666666667 -13.0 78.66666666666667 0 S 90.0 11.0 90.0 0 M 90.0 0 100 0" stroke="black" fill="transparent"
  transform="translate(672.438151 899.725423) rotate (-48.748413 0 0) scale (0.790050 1)"/>
  <path
  d=" M 0 0 10.0 0 C 11.714285714285715 -15.0 27.142857142857146 17.0 21.42857142857143 0  S 32.85714285714286 15.0 32.85714285714286 0 S 44.85714285714286 -11.0 44.85714285714286 0 S 56.85714285714286 18.0 56.85714285714286 0 S 68.85714285714286 -13.0 68.85714285714286 0 S 80.85714285714286 13.0 80.85714285714286 0 S 90.0 17.0 90.0 0 M 90.0 0 100 0" stroke="black" fill="transparent"
  transform="translate(532.932220 854.062663) rotate (46.920072 0 0) scale (0.691105 1)"/>
  <path
  d=" M 0 0 10.0 0 C 6.0 -16.0 17.0 19.0 20.0 0  S 30.0 12.0 30.0 0 S 40.0 -11.0 40.0 0 S 50.0 19.0 50.0 0 S 60.0 -15.0 60.0 0 S 70.0 13.0 70.0 0 S 80.0 -10.0 80.0 0 S 90.0 16.0 90.0 0 M 90.0 0 100 0" stroke="black" fill="transparent"
  transform="translate(546.996592 330.624084) rotate (77.738877 0 0) scale (0.708534 1)"/>
  <path
  d=" M 0 0 10.0 0 C 5.714285714285714 -13.0 17.142857142857146 13.0 21.42857142857143 0  S 32.85714285714286 12.0 32.85714285714286 0 S 44.85714285714286 -13.0 44.85714285714286 0 S 56.85714285714286 15.0 56.85714285714286 0 S 68.85714285714286 -11.0 68.85714285714286 0 S 80.85714285714286 16.0 80.85714285714286 0 S 90.0 15.0 90.0 0 M 90.0 0 100 0" stroke="black" fill="transparent"
  transform="translate(429.111735 312.225057) rotate (8.870942 0 0) scale (1.193120 1)"/>
  <path
  d=" M 0 0 10.0 0 C 16.0 -17.0 33.0 16.0 26.0 0  S 42.0 16.0 42.0 0 S 58.0 -15.0 58.0 0 S 74.0 19.0 74.0 0 S 90.0 12.0 90.0 0 M 90.0 0 100 0" stroke="black" fill="transparent"
  transform="translate(426.104991 350.287954) rotate (-85.483350 0 0) scale (0.381815 1)"/>
  <path
  d=" M 0 0 10.0 0 C 4.0 -18.0 19.0 12.0 26.0 0  S 42.0 16.0 42.0 0 S 58.0 -17.0 58.0 0 S 74.0 19.0 74.0 0 S 90.0 14.0 90.0 0 M 90.0 0 100 0" stroke="black" fill="transparent"
  transform="translate(546.996592 330.624084) rotate (-37.005580 0 0) scale (0.796488 1)"/>
  <path
  d=" M 0 0 10.0 0 C 13.0 -18.0 18.0 15.0 20.0 0  S 30.0 18.0 30.0 0 S 40.0 -11.0 40.0 0 S 50.0 14.0 50.0 0 S 60.0 -11.0 60.0 0 S 70.0 19.0 70.0 0 S 80.0 -14.0 80.0 0 S 90.0 19.0 90.0 0 M 90.0 0 100 0" stroke="black" fill="transparent"
  transform="translate(610.602275 282.684052) rotate (-7.062261 0 0) scale (0.879696 1)"/>
  <path
  d=" M 0 0 10.0 0 C 9.0 -17.0 24.0 10.0 26.0 0  S 42.0 13.0 42.0 0 S 58.0 -19.0 58.0 0 S 74.0 15.0 74.0 0 S 90.0 16.0 90.0 0 M 90.0 0 100 0" stroke="black" fill="transparent"
  transform="translate(697.904480 271.868378) rotate (23.963318 0 0) scale (0.912741 1)"/>
  <path
  d=" M 0 0 10.0 0 C 7.0 -13.0 16.0 12.0 20.0 0  S 30.0 10.0 30.0 0 S 40.0 -15.0 40.0 0 S 50.0 15.0 50.0 0 S 60.0 -13.0 60.0 0 S 70.0 15.0 70.0 0 S 80.0 -13.0 80.0 0 S 90.0 14.0 90.0 0 M 90.0 0 100 0" stroke="black" fill="transparent"
  transform="translate(781.311239 308.939494) rotate (77.839282 0 0) scale (0.446064 1)"/>
  <path
  d=" M 0 0 10.0 0 C 11.0 -12.0 21.0 14.0 20.0 0  S 30.0 13.0 30.0 0 S 40.0 -16.0 40.0 0 S 50.0 19.0 50.0 0 S 60.0 -14.0 60.0 0 S 70.0 12.0 70.0 0 S 80.0 -18.0 80.0 0 S 90.0 10.0 90.0 0 M 90.0 0 100 0" stroke="black" fill="transparent"
  transform="translate(916.175110 588.253540) rotate (-68.926890 0 0) scale (0.721571 1)"/>
  <path
  d=" M 0 0 10.0 0 C 10.0 -13.0 23.0 10.0 26.0 0  S 42.0 10.0 42.0 0 S 58.0 -16.0 58.0 0 S 74.0 16.0 74.0 0 S 90.0 11.0 90.0 0 M 90.0 0 100 0" stroke="black" fill="transparent"
  transform="translate(850.818644 482.492849) rotate (22.826530 0 0) scale (0.990592 1)"/>
  <path
  d=" M 0 0 10.0 0 C 10.0 -14.0 20.0 16.0 20.0 0  S 30.0 16.0 30.0 0 S 40.0 -10.0 40.0 0 S 50.0 19.0 50.0 0 S 60.0 -13.0 60.0 0 S 70.0 11.0 70.0 0 S 80.0 -16.0 80.0 0 S 90.0 14.0 90.0 0 M 90.0 0 100 0" stroke="black" fill="transparent"
  transform="translate(878.599569 728.338318) rotate (62.460939 0 0) scale (0.668737 1)"/>
  <path
  d=" M 0 0 10.0 0 C 13.714285714285715 -16.0 19.142857142857146 16.0 21.42857142857143 0  S 32.85714285714286 12.0 32.85714285714286 0 S 44.85714285714286 -13.0 44.85714285714286 0 S 56.85714285714286 12.0 56.85714285714286 0 S 68.85714285714286 -10.0 68.85714285714286 0 S 80.85714285714286 16.0 80.85714285714286 0 S 90.0 17.0 90.0 0 M 90.0 0 100 0" stroke="black" fill="transparent"
  transform="translate(850.346903 855.560160) rotate (-48.939755 0 0) scale (0.900841 1)"/>
  <path
  d=" M 0 0 10.0 0 C 16.0 -11.0 33.0 12.0 26.0 0  S 42.0 14.0 42.0 0 S 58.0 -10.0 58.0 0 S 74.0 16.0 74.0 0 S 90.0 10.0 90.0 0 M 90.0 0 100 0" stroke="black" fill="transparent"
  transform="translate(795.021993 821.223145) rotate (31.825515 0 0) scale (0.651143 1)"/>
  <path
  d=" M 0 0 10.0 0 C 6.0 -16.0 24.0 17.0 20.0 0  S 30.0 13.0 30.0 0 S 40.0 -19.0 40.0 0 S 50.0 11.0 50.0 0 S 60.0 -12.0 60.0 0 S 70.0 19.0 70.0 0 S 80.0 -10.0 80.0 0 S 90.0 17.0 90.0 0 M 90.0 0 100 0" stroke="black" fill="transparent"
  transform="translate(672.438151 899.725423) rotate (61.439346 0 0) scale (0.509542 1)"/>
  <path
  d=" M 0 0 10.0 0 C 7.0 -13.0 19.0 13.0 20.0 0  S 30.0 18.0 30.0 0 S 40.0 -19.0 40.0 0 S 50.0 12.0 50.0 0 S 60.0 -18.0 60.0 0 S 70.0 19.0 70.0 0 S 80.0 -14.0 80.0 0 S 90.0 16.0 90.0 0 M 90.0 0 100 0" stroke="black" fill="transparent"
  transform="translate(603.312592 978.437215) rotate (-19.963131 0 0) scale (0.994627 1)"/>
  <path
  d=" M 0 0 10.0 0 C 7.714285714285714 -10.0 17.142857142857146 10.0 21.42857142857143 0  S 32.85714285714286 17.0 32.85714285714286 0 S 44.85714285714286 -16.0 44.85714285714286 0 S 56.85714285714286 19.0 56.85714285714286 0 S 68.85714285714286 -14.0 68.85714285714286 0 S 80.85714285714286 11.0 80.85714285714286 0 S 90.0 10.0 90.0 0 M 90.0 0 100 0" stroke="black" fill="transparent"
  transform="translate(530.097524 964.610657) rotate (10.694278 0 0) scale (0.745092 1)"/>
  <path
  d=" M 0 0 10.0 0 C 10.714285714285715 -11.0 26.142857142857146 17.0 21.42857142857143 0  S 32.85714285714286 16.0 32.85714285714286 0 S 44.85714285714286 -14.0 44.85714285714286 0 S 56.85714285714286 14.0 56.85714285714286 0 S 68.85714285714286 -14.0 68.85714285714286 0 S 80.85714285714286 10.0 80.85714285714286 0 S 90.0 12.0 90.0 0 M 90.0 0 100 0" stroke="black" fill="transparent"
  transform="translate(530.097524 964.610657) rotate (-50.205433 0 0) scale (0.781805 1)"/>
  <path
  d=" M 0 0 10.0 0 C 4.714285714285714 -18.0 21.142857142857146 14.0 21.42857142857143 0  S 32.85714285714286 18.0 32.85714285714286 0 S 44.85714285714286 -17.0 44.85714285714286 0 S 56.85714285714286 13.0 56.85714285714286 0 S 68.85714285714286 -15.0 68.85714285714286 0 S 80.85714285714286 16.0 80.85714285714286 0 S 90.0 15.0 90.0 0 M 90.0 0 100 0" stroke="black" fill="transparent"
  transform="translate(305.075216 822.962646) rotate (-53.531560 0 0) scale (0.723533 1)"/>
  <path
  d=" M 0 0 10.0 0 C 4.714285714285714 -18.0 19.142857142857146 10.0 21.42857142857143 0  S 32.85714285714286 11.0 32.85714285714286 0 S 44.85714285714286 -16.0 44.85714285714286 0 S 56.85714285714286 12.0 56.85714285714286 0 S 68.85714285714286 -13.0 68.85714285714286 0 S 80.85714285714286 13.0 80.85714285714286 0 S 90.0 17.0 90.0 0 M 90.0 0 100 0" stroke="black" fill="transparent"
  transform="translate(305.075216 822.962646) rotate (56.350430 0 0) scale (0.796969 1)"/>
  <path
  d=" M 0 0 10.0 0 C 8.0 -10.0 28.0 15.0 26.0 0  S 42.0 13.0 42.0 0 S 58.0 -17.0 58.0 0 S 74.0 17.0 74.0 0 S 90.0 12.0 90.0 0 M 90.0 0 100 0" stroke="black" fill="transparent"
  transform="translate(349.236206 889.305684) rotate (13.475892 0 0) scale (0.841101 1)"/>
  <path
  d=" M 0 0 10.0 0 C 15.0 -14.0 18.0 18.0 20.0 0  S 30.0 10.0 30.0 0 S 40.0 -18.0 40.0 0 S 50.0 13.0 50.0 0 S 60.0 -11.0 60.0 0 S 70.0 17.0 70.0 0 S 80.0 -18.0 80.0 0 S 90.0 19.0 90.0 0 M 90.0 0 100 0" stroke="black" fill="transparent"
  transform="translate(431.030629 908.906392) rotate (-77.820888 0 0) scale (0.716156 1)"/>
  <path
  d=" M 0 0 10.0 0 C 15.0 -17.0 21.0 15.0 20.0 0  S 30.0 18.0 30.0 0 S 40.0 -17.0 40.0 0 S 50.0 13.0 50.0 0 S 60.0 -13.0 60.0 0 S 70.0 18.0 70.0 0 S 80.0 -19.0 80.0 0 S 90.0 18.0 90.0 0 M 90.0 0 100 0" stroke="black" fill="transparent"
  transform="translate(269.333710 523.316498) rotate (-7.069604 0 0) scale (0.772465 1)"/>
  <path
  d=" M 0 0 10.0 0 C 7.0 -15.0 19.0 10.0 20.0 0  S 30.0 12.0 30.0 0 S 40.0 -10.0 40.0 0 S 50.0 16.0 50.0 0 S 60.0 -12.0 60.0 0 S 70.0 10.0 70.0 0 S 80.0 -16.0 80.0 0 S 90.0 11.0 90.0 0 M 90.0 0 100 0" stroke="black" fill="transparent"
  transform="translate(230.297506 562.812653) rotate (-45.335568 0 0) scale (0.555317 1)"/>
  <path
  d=" M 0 0 10.0 0 C 10.0 -19.0 22.0 10.0 20.0 0  S 30.0 13.0 30.0 0 S 40.0 -13.0 40.0 0 S 50.0 12.0 50.0 0 S 60.0 -14.0 60.0 0 S 70.0 16.0 70.0 0 S 80.0 -18.0 80.0 0 S 90.0 18.0 90.0 0 M 90.0 0 100 0" stroke="black" fill="transparent"
  transform="translate(230.297506 562.812653) rotate (52.731343 0 0) scale (0.844049 1)"/>
  <path
  d=" M 0 0 10.0 0 C 8.714285714285715 -14.0 19.142857142857146 18.0 21.42857142857143 0  S 32.85714285714286 18.0 32.85714285714286 0 S 44.85714285714286 -14.0 44.85714285714286 0 S 56.85714285714286 17.0 56.85714285714286 0 S 68.85714285714286 -16.0 68.85714285714286 0 S 80.85714285714286 16.0 80.85714285714286 0 S 90.0 11.0 90.0 0 M 90.0 0 100 0" stroke="black" fill="transparent"
  transform="translate(850.346903 855.560160) rotate (65.277962 0 0) scale (0.701959 1)"/>
  <path
  d=" M 0 0 10.0 0 C 16.666666666666668 -11.0 21.000000000000004 18.0 23.333333333333336 0  S 36.66666666666667 16.0 36.66666666666667 0 S 50.66666666666667 -12.0 50.66666666666667 0 S 64.66666666666667 13.0 64.66666666666667 0 S 78.66666666666667 -16.0 78.66666666666667 0 S 90.0 12.0 90.0 0 M 90.0 0 100 0" stroke="black" fill="transparent"
  transform="translate(816.989868 987.587972) rotate (-47.426976 0 0) scale (0.926998 1)"/>
  <path
  d=" M 0 0 10.0 0 C 11.0 -16.0 28.0 16.0 26.0 0  S 42.0 15.0 42.0 0 S 58.0 -15.0 58.0 0 S 74.0 10.0 74.0 0 S 90.0 15.0 90.0 0 M 90.0 0 100 0" stroke="black" fill="transparent"
  transform="translate(741.502889 987.684021) rotate (-0.072903 0 0) scale (0.754870 1)"/>
  <path
  d=" M 0 0 10.0 0 C 6.714285714285714 -16.0 21.142857142857146 12.0 21.42857142857143 0  S 32.85714285714286 12.0 32.85714285714286 0 S 44.85714285714286 -17.0 44.85714285714286 0 S 56.85714285714286 14.0 56.85714285714286 0 S 68.85714285714286 -12.0 68.85714285714286 0 S 80.85714285714286 19.0 80.85714285714286 0 S 90.0 14.0 90.0 0 M 90.0 0 100 0" stroke="black" fill="transparent"
  transform="translate(696.798808 944.479126) rotate (44.022981 0 0) scale (0.621701 1)"/>
  <path
  d=" M 0 0 10.0 0 C 9.714285714285715 -11.0 19.142857142857146 10.0 21.42857142857143 0  S 32.85714285714286 11.0 32.85714285714286 0 S 44.85714285714286 -18.0 44.85714285714286 0 S 56.85714285714286 19.0 56.85714285714286 0 S 68.85714285714286 -17.0 68.85714285714286 0 S 80.85714285714286 13.0 80.85714285714286 0 S 90.0 18.0 90.0 0 M 90.0 0 100 0" stroke="black" fill="transparent"
  transform="translate(431.030629 908.906392) rotate (63.961503 0 0) scale (0.837281 1)"/>
  <path
  d=" M 0 0 10.0 0 C 15.0 -19.0 16.0 10.0 20.0 0  S 30.0 13.0 30.0 0 S 40.0 -18.0 40.0 0 S 50.0 12.0 50.0 0 S 60.0 -11.0 60.0 0 S 70.0 15.0 70.0 0 S 80.0 -17.0 80.0 0 S 90.0 12.0 90.0 0 M 90.0 0 100 0" stroke="black" fill="transparent"
  transform="translate(467.785156 984.136007) rotate (-17.398189 0 0) scale (0.652999 1)"/>
  <path
  d=" M 0 0 10.0 0 C 11.714285714285715 -17.0 23.142857142857146 16.0 21.42857142857143 0  S 32.85714285714286 12.0 32.85714285714286 0 S 44.85714285714286 -13.0 44.85714285714286 0 S 56.85714285714286 10.0 56.85714285714286 0 S 68.85714285714286 -12.0 68.85714285714286 0 S 80.85714285714286 17.0 80.85714285714286 0 S 90.0 19.0 90.0 0 M 90.0 0 100 0" stroke="black" fill="transparent"
  transform="translate(263.435170 815.073181) rotate (10.728557 0 0) scale (0.423809 1)"/>
  <path
  d=" M 0 0 10.0 0 C 8.714285714285715 -17.0 21.142857142857146 14.0 21.42857142857143 0  S 32.85714285714286 15.0 32.85714285714286 0 S 44.85714285714286 -18.0 44.85714285714286 0 S 56.85714285714286 18.0 56.85714285714286 0 S 68.85714285714286 -13.0 68.85714285714286 0 S 80.85714285714286 15.0 80.85714285714286 0 S 90.0 10.0 90.0 0 M 90.0 0 100 0" stroke="black" fill="transparent"
  transform="translate(238.452535 725.695882) rotate (-30.272735 0 0) scale (0.472300 1)"/>
  <path
  d=" M 0 0 10.0 0 C 6.714285714285714 -14.0 25.142857142857146 17.0 21.42857142857143 0  S 32.85714285714286 15.0 32.85714285714286 0 S 44.85714285714286 -14.0 44.85714285714286 0 S 56.85714285714286 19.0 56.85714285714286 0 S 68.85714285714286 -17.0 68.85714285714286 0 S 80.85714285714286 12.0 80.85714285714286 0 S 90.0 10.0 90.0 0 M 90.0 0 100 0" stroke="black" fill="transparent"
  transform="translate(238.452535 725.695882) rotate (74.383323 0 0) scale (0.928032 1)"/>
  <path
  d=" M 0 0 10.0 0 C 10.666666666666668 -10.0 18.000000000000004 17.0 23.333333333333336 0  S 36.66666666666667 17.0 36.66666666666667 0 S 50.66666666666667 -17.0 50.66666666666667 0 S 64.66666666666667 14.0 64.66666666666667 0 S 78.66666666666667 -19.0 78.66666666666667 0 S 90.0 17.0 90.0 0 M 90.0 0 100 0" stroke="black" fill="transparent"
  transform="translate(246.539515 453.699402) rotate (-22.213935 0 0) scale (0.838845 1)"/>
  <path
  d=" M 0 0 10.0 0 C 10.666666666666668 -15.0 24.000000000000004 10.0 23.333333333333336 0  S 36.66666666666667 12.0 36.66666666666667 0 S 50.66666666666667 -15.0 50.66666666666667 0 S 64.66666666666667 11.0 64.66666666666667 0 S 78.66666666666667 -11.0 78.66666666666667 0 S 90.0 14.0 90.0 0 M 90.0 0 100 0" stroke="black" fill="transparent"
  transform="translate(246.539515 453.699402) rotate (71.870396 0 0) scale (0.732538 1)"/>
  <path
  d=" M 0 0 10.0 0 C 9.0 -19.0 31.0 15.0 26.0 0  S 42.0 19.0 42.0 0 S 58.0 -17.0 58.0 0 S 74.0 12.0 74.0 0 S 90.0 16.0 90.0 0 M 90.0 0 100 0" stroke="black" fill="transparent"
  transform="translate(428.986277 253.983653) rotate (89.876579 0 0) scale (0.582415 1)"/>
  <path
  d=" M 0 0 10.0 0 C 10.0 -17.0 30.0 10.0 26.0 0  S 42.0 18.0 42.0 0 S 58.0 -11.0 58.0 0 S 74.0 19.0 74.0 0 S 90.0 13.0 90.0 0 M 90.0 0 100 0" stroke="black" fill="transparent"
  transform="translate(428.986277 253.983653) rotate (-15.099084 0 0) scale (0.961923 1)"/>
  <path
  d=" M 0 0 10.0 0 C 7.666666666666667 -18.0 23.000000000000004 17.0 23.333333333333336 0  S 36.66666666666667 17.0 36.66666666666667 0 S 50.66666666666667 -14.0 50.66666666666667 0 S 64.66666666666667 10.0 64.66666666666667 0 S 78.66666666666667 -13.0 78.66666666666667 0 S 90.0 19.0 90.0 0 M 90.0 0 100 0" stroke="black" fill="transparent"
  transform="translate(521.857727 228.926605) rotate (31.205592 0 0) scale (1.037567 1)"/>
  <path
  d=" M 0 0 10.0 0 C 9.714285714285715 -12.0 21.142857142857146 16.0 21.42857142857143 0  S 32.85714285714286 12.0 32.85714285714286 0 S 44.85714285714286 -12.0 44.85714285714286 0 S 56.85714285714286 10.0 56.85714285714286 0 S 68.85714285714286 -18.0 68.85714285714286 0 S 80.85714285714286 15.0 80.85714285714286 0 S 90.0 11.0 90.0 0 M 90.0 0 100 0" stroke="black" fill="transparent"
  transform="translate(697.904480 271.868378) rotate (-84.714607 0 0) scale (0.509325 1)"/>
  <path
  d=" M 0 0 10.0 0 C 6.0 -19.0 17.0 16.0 20.0 0  S 30.0 19.0 30.0 0 S 40.0 -18.0 40.0 0 S 50.0 18.0 50.0 0 S 60.0 -17.0 60.0 0 S 70.0 17.0 70.0 0 S 80.0 -12.0 80.0 0 S 90.0 16.0 90.0 0 M 90.0 0 100 0" stroke="black" fill="transparent"
  transform="translate(781.311239 308.939494) rotate (-84.714607 0 0) scale (0.509325 1)"/>
  <path
  d=" M 0 0 10.0 0 C 8.714285714285715 -10.0 21.142857142857146 15.0 21.42857142857143 0  S 32.85714285714286 18.0 32.85714285714286 0 S 44.85714285714286 -10.0 44.85714285714286 0 S 56.85714285714286 19.0 56.85714285714286 0 S 68.85714285714286 -15.0 68.85714285714286 0 S 80.85714285714286 11.0 80.85714285714286 0 S 90.0 11.0 90.0 0 M 90.0 0 100 0" stroke="black" fill="transparent"
  transform="translate(702.596212 221.152476) rotate (23.963318 0 0) scale (0.912741 1)"/>
  <path
  d=" M 0 0 10.0 0 C 11.0 -18.0 17.0 12.0 20.0 0  S 30.0 11.0 30.0 0 S 40.0 -17.0 40.0 0 S 50.0 11.0 50.0 0 S 60.0 -19.0 60.0 0 S 70.0 10.0 70.0 0 S 80.0 -12.0 80.0 0 S 90.0 12.0 90.0 0 M 90.0 0 100 0" stroke="black" fill="transparent"
  transform="translate(931.538554 370.138682) rotate (37.224767 0 0) scale (0.849586 1)"/>
  <path
  d=" M 0 0 10.0 0 C 8.666666666666668 -13.0 24.000000000000004 19.0 23.333333333333336 0  S 36.66666666666667 11.0 36.66666666666667 0 S 50.66666666666667 -10.0 50.66666666666667 0 S 64.66666666666667 12.0 64.66666666666667 0 S 78.66666666666667 -19.0 78.66666666666667 0 S 90.0 17.0 90.0 0 M 90.0 0 100 0" stroke="black" fill="transparent"
  transform="translate(858.807332 392.476756) rotate (-17.073389 0 0) scale (0.760843 1)"/>
  <path
  d=" M 0 0 10.0 0 C 13.714285714285715 -16.0 18.142857142857146 10.0 21.42857142857143 0  S 32.85714285714286 10.0 32.85714285714286 0 S 44.85714285714286 -18.0 44.85714285714286 0 S 56.85714285714286 15.0 56.85714285714286 0 S 68.85714285714286 -11.0 68.85714285714286 0 S 80.85714285714286 13.0 80.85714285714286 0 S 90.0 16.0 90.0 0 M 90.0 0 100 0" stroke="black" fill="transparent"
  transform="translate(942.119853 520.922099) rotate (-17.345149 0 0) scale (0.728783 1)"/>
  <path
  d=" M 0 0 10.0 0 C 12.714285714285715 -16.0 26.142857142857146 12.0 21.42857142857143 0  S 32.85714285714286 19.0 32.85714285714286 0 S 44.85714285714286 -12.0 44.85714285714286 0 S 56.85714285714286 19.0 56.85714285714286 0 S 68.85714285714286 -14.0 68.85714285714286 0 S 80.85714285714286 15.0 80.85714285714286 0 S 90.0 10.0 90.0 0 M 90.0 0 100 0" stroke="black" fill="transparent"
  transform="translate(999.188436 421.533844) rotate (80.859472 0 0) scale (0.786601 1)"/>
  <path
  d=" M 0 0 10.0 0 C 7.0 -12.0 25.0 16.0 20.0 0  S 30.0 11.0 30.0 0 S 40.0 -11.0 40.0 0 S 50.0 15.0 50.0 0 S 60.0 -14.0 60.0 0 S 70.0 16.0 70.0 0 S 80.0 -14.0 80.0 0 S 90.0 11.0 90.0 0 M 90.0 0 100 0" stroke="black" fill="transparent"
  transform="translate(931.944682 651.750346) rotate (-16.208446 0 0) scale (0.723386 1)"/>
  <path
  d=" M 0 0 10.0 0 C 11.714285714285715 -13.0 23.142857142857146 17.0 21.42857142857143 0  S 32.85714285714286 15.0 32.85714285714286 0 S 44.85714285714286 -19.0 44.85714285714286 0 S 56.85714285714286 16.0 56.85714285714286 0 S 68.85714285714286 -15.0 68.85714285714286 0 S 80.85714285714286 13.0 80.85714285714286 0 S 90.0 16.0 90.0 0 M 90.0 0 100 0" stroke="black" fill="transparent"
  transform="translate(1001.407979 631.558289) rotate (66.775108 0 0) scale (0.706619 1)"/>
  <path
  d=" M 0 0 10.0 0 C 10.0 -14.0 20.0 17.0 26.0 0  S 42.0 19.0 42.0 0 S 58.0 -16.0 58.0 0 S 74.0 14.0 74.0 0 S 90.0 19.0 90.0 0 M 90.0 0 100 0" stroke="black" fill="transparent"
  transform="translate(1005.381388 784.209025) rotate (-74.763606 0 0) scale (0.909105 1)"/>
  <path
  d=" M 0 0 10.0 0 C 11.666666666666668 -17.0 28.000000000000004 14.0 23.333333333333336 0  S 36.66666666666667 10.0 36.66666666666667 0 S 50.66666666666667 -17.0 50.66666666666667 0 S 64.66666666666667 16.0 64.66666666666667 0 S 78.66666666666667 -10.0 78.66666666666667 0 S 90.0 12.0 90.0 0 M 90.0 0 100 0" stroke="black" fill="transparent"
  transform="translate(957.126119 809.478068) rotate (-27.638962 0 0) scale (0.544711 1)"/>
  <path
  d=" M 0 0 10.0 0 C 8.666666666666668 -16.0 24.000000000000004 18.0 23.333333333333336 0  S 36.66666666666667 10.0 36.66666666666667 0 S 50.66666666666667 -14.0 50.66666666666667 0 S 64.66666666666667 19.0 64.66666666666667 0 S 78.66666666666667 -14.0 78.66666666666667 0 S 90.0 11.0 90.0 0 M 90.0 0 100 0" stroke="black" fill="transparent"
  transform="translate(909.518860 787.634989) rotate (24.646520 0 0) scale (0.523791 1)"/>
  <path
  d=" M 0 0 10.0 0 C 16.0 -18.0 30.0 15.0 26.0 0  S 42.0 19.0 42.0 0 S 58.0 -19.0 58.0 0 S 74.0 10.0 74.0 0 S 90.0 12.0 90.0 0 M 90.0 0 100 0" stroke="black" fill="transparent"
  transform="translate(436.786133 1023.625509) rotate (-51.868298 0 0) scale (0.502032 1)"/>
  <path
  d=" M 0 0 10.0 0 C 13.714285714285715 -13.0 22.142857142857146 12.0 21.42857142857143 0  S 32.85714285714286 17.0 32.85714285714286 0 S 44.85714285714286 -14.0 44.85714285714286 0 S 56.85714285714286 18.0 56.85714285714286 0 S 68.85714285714286 -14.0 68.85714285714286 0 S 80.85714285714286 12.0 80.85714285714286 0 S 90.0 10.0 90.0 0 M 90.0 0 100 0" stroke="black" fill="transparent"
  transform="translate(356.175720 974.882385) rotate (31.160316 0 0) scale (0.942015 1)"/>
  <path
  d=" M 0 0 10.0 0 C 6.0 -11.0 16.0 16.0 20.0 0  S 30.0 18.0 30.0 0 S 40.0 -17.0 40.0 0 S 50.0 14.0 50.0 0 S 60.0 -14.0 60.0 0 S 70.0 13.0 70.0 0 S 80.0 -16.0 80.0 0 S 90.0 18.0 90.0 0 M 90.0 0 100 0" stroke="black" fill="transparent"
  transform="translate(349.236206 889.305684) rotate (85.363963 0 0) scale (0.858576 1)"/>
  <path
  d=" M 0 0 10.0 0 C 6.666666666666667 -14.0 24.000000000000004 16.0 23.333333333333336 0  S 36.66666666666667 14.0 36.66666666666667 0 S 50.66666666666667 -16.0 50.66666666666667 0 S 64.66666666666667 14.0 64.66666666666667 0 S 78.66666666666667 -16.0 78.66666666666667 0 S 90.0 15.0 90.0 0 M 90.0 0 100 0" stroke="black" fill="transparent"
  transform="translate(222.127833 850.202494) rotate (-40.379090 0 0) scale (0.542251 1)"/>
  <path
  d=" M 0 0 10.0 0 C 14.0 -13.0 27.0 13.0 26.0 0  S 42.0 12.0 42.0 0 S 58.0 -19.0 58.0 0 S 74.0 15.0 74.0 0 S 90.0 12.0 90.0 0 M 90.0 0 100 0" stroke="black" fill="transparent"
  transform="translate(161.374414 768.825521) rotate (53.256170 0 0) scale (1.015539 1)"/>
  <path
  d=" M 0 0 10.0 0 C 9.0 -10.0 29.0 17.0 26.0 0  S 42.0 19.0 42.0 0 S 58.0 -13.0 58.0 0 S 74.0 17.0 74.0 0 S 90.0 13.0 90.0 0 M 90.0 0 100 0" stroke="black" fill="transparent"
  transform="translate(157.496540 682.890157) rotate (87.416254 0 0) scale (0.860228 1)"/>
  <path
  d=" M 0 0 10.0 0 C 13.0 -19.0 32.0 10.0 26.0 0  S 42.0 11.0 42.0 0 S 58.0 -12.0 58.0 0 S 74.0 13.0 74.0 0 S 90.0 11.0 90.0 0 M 90.0 0 100 0" stroke="black" fill="transparent"
  transform="translate(157.496540 682.890157) rotate (27.867781 0 0) scale (0.915762 1)"/>
  <path
  d=" M 0 0 10.0 0 C 8.666666666666668 -18.0 24.000000000000004 12.0 23.333333333333336 0  S 36.66666666666667 13.0 36.66666666666667 0 S 50.66666666666667 -15.0 50.66666666666667 0 S 64.66666666666667 19.0 64.66666666666667 0 S 78.66666666666667 -17.0 78.66666666666667 0 S 90.0 15.0 90.0 0 M 90.0 0 100 0" stroke="black" fill="transparent"
  transform="translate(165.932541 581.755931) rotate (-16.399704 0 0) scale (0.670947 1)"/>
  <path
  d=" M 0 0 10.0 0 C 9.714285714285715 -11.0 18.142857142857146 15.0 21.42857142857143 0  S 32.85714285714286 16.0 32.85714285714286 0 S 44.85714285714286 -17.0 44.85714285714286 0 S 56.85714285714286 17.0 56.85714285714286 0 S 68.85714285714286 -11.0 68.85714285714286 0 S 80.85714285714286 19.0 80.85714285714286 0 S 90.0 18.0 90.0 0 M 90.0 0 100 0" stroke="black" fill="transparent"
  transform="translate(152.297724 495.592183) rotate (81.007901 0 0) scale (0.872359 1)"/>
  <path
  d=" M 0 0 10.0 0 C 18.0 -13.0 24.0 10.0 26.0 0  S 42.0 18.0 42.0 0 S 58.0 -11.0 58.0 0 S 74.0 15.0 74.0 0 S 90.0 18.0 90.0 0 M 90.0 0 100 0" stroke="black" fill="transparent"
  transform="translate(152.297724 495.592183) rotate (-64.854358 0 0) scale (0.978318 1)"/>
  <path
  d=" M 0 0 10.0 0 C 15.0 -12.0 23.0 19.0 20.0 0  S 30.0 18.0 30.0 0 S 40.0 -12.0 40.0 0 S 50.0 17.0 50.0 0 S 60.0 -11.0 60.0 0 S 70.0 19.0 70.0 0 S 80.0 -11.0 80.0 0 S 90.0 18.0 90.0 0 M 90.0 0 100 0" stroke="black" fill="transparent"
  transform="translate(193.868495 407.031809) rotate (41.541594 0 0) scale (0.703712 1)"/>
  <path
  d=" M 0 0 10.0 0 C 8.0 -10.0 22.0 13.0 20.0 0  S 30.0 10.0 30.0 0 S 40.0 -10.0 40.0 0 S 50.0 13.0 50.0 0 S 60.0 -13.0 60.0 0 S 70.0 14.0 70.0 0 S 80.0 -11.0 80.0 0 S 90.0 18.0 90.0 0 M 90.0 0 100 0" stroke="black" fill="transparent"
  transform="translate(303.841599 256.499385) rotate (61.899325 0 0) scale (1.049589 1)"/>
  <path
  d=" M 0 0 10.0 0 C 7.666666666666667 -16.0 18.000000000000004 17.0 23.333333333333336 0  S 36.66666666666667 12.0 36.66666666666667 0 S 50.66666666666667 -18.0 50.66666666666667 0 S 64.66666666666667 13.0 64.66666666666667 0 S 78.66666666666667 -14.0 78.66666666666667 0 S 90.0 15.0 90.0 0 M 90.0 0 100 0" stroke="black" fill="transparent"
  transform="translate(303.841599 256.499385) rotate (-49.646148 0 0) scale (0.868989 1)"/>
  <path
  d=" M 0 0 10.0 0 C 9.666666666666668 -12.0 27.000000000000004 19.0 23.333333333333336 0  S 36.66666666666667 17.0 36.66666666666667 0 S 50.66666666666667 -11.0 50.66666666666667 0 S 64.66666666666667 13.0 64.66666666666667 0 S 78.66666666666667 -17.0 78.66666666666667 0 S 90.0 11.0 90.0 0 M 90.0 0 100 0" stroke="black" fill="transparent"
  transform="translate(360.109212 190.277171) rotate (13.501139 0 0) scale (0.536437 1)"/>
  <path
  d=" M 0 0 10.0 0 C 5.0 -18.0 23.0 13.0 26.0 0  S 42.0 19.0 42.0 0 S 58.0 -10.0 58.0 0 S 74.0 19.0 74.0 0 S 90.0 12.0 90.0 0 M 90.0 0 100 0" stroke="black" fill="transparent"
  transform="translate(412.270528 202.801092) rotate (71.913443 0 0) scale (0.538430 1)"/>
  <path
  d=" M 0 0 10.0 0 C 17.0 -19.0 30.0 19.0 26.0 0  S 42.0 14.0 42.0 0 S 58.0 -12.0 58.0 0 S 74.0 10.0 74.0 0 S 90.0 10.0 90.0 0 M 90.0 0 100 0" stroke="black" fill="transparent"
  transform="translate(521.857727 228.926605) rotate (-61.751082 0 0) scale (0.911447 1)"/>
  <path
  d=" M 0 0 10.0 0 C 5.714285714285714 -14.0 21.142857142857146 12.0 21.42857142857143 0  S 32.85714285714286 11.0 32.85714285714286 0 S 44.85714285714286 -16.0 44.85714285714286 0 S 56.85714285714286 19.0 56.85714285714286 0 S 68.85714285714286 -18.0 68.85714285714286 0 S 80.85714285714286 10.0 80.85714285714286 0 S 90.0 11.0 90.0 0 M 90.0 0 100 0" stroke="black" fill="transparent"
  transform="translate(564.996785 148.637277) rotate (-14.686915 0 0) scale (0.758494 1)"/>
  <path
  d=" M 0 0 10.0 0 C 14.0 -13.0 16.0 11.0 20.0 0  S 30.0 13.0 30.0 0 S 40.0 -15.0 40.0 0 S 50.0 17.0 50.0 0 S 60.0 -19.0 60.0 0 S 70.0 19.0 70.0 0 S 80.0 -11.0 80.0 0 S 90.0 13.0 90.0 0 M 90.0 0 100 0" stroke="black" fill="transparent"
  transform="translate(638.367818 129.406656) rotate (39.570202 0 0) scale (0.648819 1)"/>
  <path
  d=" M 0 0 10.0 0 C 9.0 -12.0 19.0 19.0 20.0 0  S 30.0 12.0 30.0 0 S 40.0 -17.0 40.0 0 S 50.0 15.0 50.0 0 S 60.0 -11.0 60.0 0 S 70.0 10.0 70.0 0 S 80.0 -19.0 80.0 0 S 90.0 13.0 90.0 0 M 90.0 0 100 0" stroke="black" fill="transparent"
  transform="translate(688.381653 170.737905) rotate (74.254022 0 0) scale (0.523802 1)"/>
  <path
  d=" M 0 0 10.0 0 C 6.0 -12.0 21.0 19.0 20.0 0  S 30.0 14.0 30.0 0 S 40.0 -13.0 40.0 0 S 50.0 10.0 50.0 0 S 60.0 -16.0 60.0 0 S 70.0 17.0 70.0 0 S 80.0 -14.0 80.0 0 S 90.0 11.0 90.0 0 M 90.0 0 100 0" stroke="black" fill="transparent"
  transform="translate(931.538554 370.138682) rotate (-88.280130 0 0) scale (0.728345 1)"/>
  <path
  d=" M 0 0 10.0 0 C 6.0 -16.0 24.0 14.0 20.0 0  S 30.0 14.0 30.0 0 S 40.0 -13.0 40.0 0 S 50.0 12.0 50.0 0 S 60.0 -10.0 60.0 0 S 70.0 11.0 70.0 0 S 80.0 -12.0 80.0 0 S 90.0 10.0 90.0 0 M 90.0 0 100 0" stroke="black" fill="transparent"
  transform="translate(786.002970 258.223592) rotate (-8.200865 0 0) scale (0.721826 1)"/>
  <path
  d=" M 0 0 10.0 0 C 12.714285714285715 -15.0 26.142857142857146 16.0 21.42857142857143 0  S 32.85714285714286 12.0 32.85714285714286 0 S 44.85714285714286 -16.0 44.85714285714286 0 S 56.85714285714286 12.0 56.85714285714286 0 S 68.85714285714286 -12.0 68.85714285714286 0 S 80.85714285714286 13.0 80.85714285714286 0 S 90.0 18.0 90.0 0 M 90.0 0 100 0" stroke="black" fill="transparent"
  transform="translate(857.447449 247.927185) rotate (32.933843 0 0) scale (0.908819 1)"/>
  <path
  d=" M 0 0 10.0 0 C 12.714285714285715 -10.0 16.142857142857146 11.0 21.42857142857143 0  S 32.85714285714286 14.0 32.85714285714286 0 S 44.85714285714286 -18.0 44.85714285714286 0 S 56.85714285714286 17.0 56.85714285714286 0 S 68.85714285714286 -17.0 68.85714285714286 0 S 80.85714285714286 10.0 80.85714285714286 0 S 90.0 18.0 90.0 0 M 90.0 0 100 0" stroke="black" fill="transparent"
  transform="translate(1001.407979 631.558289) rotate (-57.739201 0 0) scale (1.007818 1)"/>
  <path
  d=" M 0 0 10.0 0 C 8.0 -11.0 24.0 18.0 20.0 0  S 30.0 14.0 30.0 0 S 40.0 -13.0 40.0 0 S 50.0 18.0 50.0 0 S 60.0 -17.0 60.0 0 S 70.0 19.0 70.0 0 S 80.0 -18.0 80.0 0 S 90.0 19.0 90.0 0 M 90.0 0 100 0" stroke="black" fill="transparent"
  transform="translate(1011.684102 499.195099) rotate (47.287147 0 0) scale (0.641560 1)"/>
  <path
  d=" M 0 0 10.0 0 C 8.0 -14.0 20.0 12.0 26.0 0  S 42.0 18.0 42.0 0 S 58.0 -10.0 58.0 0 S 74.0 14.0 74.0 0 S 90.0 11.0 90.0 0 M 90.0 0 100 0" stroke="black" fill="transparent"
  transform="translate(879.703979 919.322408) rotate (-17.385382 0 0) scale (0.782235 1)"/>
  <path
  d=" M 0 0 10.0 0 C 11.0 -12.0 32.0 19.0 26.0 0  S 42.0 17.0 42.0 0 S 58.0 -18.0 58.0 0 S 74.0 14.0 74.0 0 S 90.0 13.0 90.0 0 M 90.0 0 100 0" stroke="black" fill="transparent"
  transform="translate(954.354004 895.949422) rotate (-88.163830 0 0) scale (0.865158 1)"/>
  <path
  d=" M 0 0 10.0 0 C 8.714285714285715 -12.0 23.142857142857146 10.0 21.42857142857143 0  S 32.85714285714286 17.0 32.85714285714286 0 S 44.85714285714286 -17.0 44.85714285714286 0 S 56.85714285714286 17.0 56.85714285714286 0 S 68.85714285714286 -11.0 68.85714285714286 0 S 80.85714285714286 15.0 80.85714285714286 0 S 90.0 16.0 90.0 0 M 90.0 0 100 0" stroke="black" fill="transparent"
  transform="translate(618.937388 1046.068380) rotate (1.708976 0 0) scale (0.908100 1)"/>
  <path
  d=" M 0 0 10.0 0 C 7.0 -13.0 23.0 12.0 20.0 0  S 30.0 13.0 30.0 0 S 40.0 -16.0 40.0 0 S 50.0 11.0 50.0 0 S 60.0 -11.0 60.0 0 S 70.0 12.0 70.0 0 S 80.0 -18.0 80.0 0 S 90.0 19.0 90.0 0 M 90.0 0 100 0" stroke="black" fill="transparent"
  transform="translate(603.312592 978.437215) rotate (76.991224 0 0) scale (0.694126 1)"/>
  <path
  d=" M 0 0 10.0 0 C 5.0 -16.0 30.0 19.0 26.0 0  S 42.0 16.0 42.0 0 S 58.0 -13.0 58.0 0 S 74.0 14.0 74.0 0 S 90.0 13.0 90.0 0 M 90.0 0 100 0" stroke="black" fill="transparent"
  transform="translate(709.706991 1048.776591) rotate (-62.505077 0 0) scale (0.688715 1)"/>
  <path
  d=" M 0 0 10.0 0 C 6.714285714285714 -19.0 26.142857142857146 11.0 21.42857142857143 0  S 32.85714285714286 13.0 32.85714285714286 0 S 44.85714285714286 -19.0 44.85714285714286 0 S 56.85714285714286 19.0 56.85714285714286 0 S 68.85714285714286 -14.0 68.85714285714286 0 S 80.85714285714286 19.0 80.85714285714286 0 S 90.0 19.0 90.0 0 M 90.0 0 100 0" stroke="black" fill="transparent"
  transform="translate(412.270528 202.801092) rotate (-45.425317 0 0) scale (1.033896 1)"/>
  <path
  d=" M 0 0 10.0 0 C 12.0 -15.0 18.0 13.0 20.0 0  S 30.0 15.0 30.0 0 S 40.0 -11.0 40.0 0 S 50.0 17.0 50.0 0 S 60.0 -18.0 60.0 0 S 70.0 12.0 70.0 0 S 80.0 -18.0 80.0 0 S 90.0 15.0 90.0 0 M 90.0 0 100 0" stroke="black" fill="transparent"
  transform="translate(484.833282 129.152968) rotate (13.661237 0 0) scale (0.824974 1)"/>
  <path
  d=" M 0 0 10.0 0 C 13.714285714285715 -12.0 27.142857142857146 11.0 21.42857142857143 0  S 32.85714285714286 12.0 32.85714285714286 0 S 44.85714285714286 -16.0 44.85714285714286 0 S 56.85714285714286 19.0 56.85714285714286 0 S 68.85714285714286 -14.0 68.85714285714286 0 S 80.85714285714286 15.0 80.85714285714286 0 S 90.0 18.0 90.0 0 M 90.0 0 100 0" stroke="black" fill="transparent"
  transform="translate(688.381653 170.737905) rotate (-22.270301 0 0) scale (0.733250 1)"/>
  <path
  d=" M 0 0 10.0 0 C 6.666666666666667 -15.0 27.000000000000004 13.0 23.333333333333336 0  S 36.66666666666667 17.0 36.66666666666667 0 S 50.66666666666667 -14.0 50.66666666666667 0 S 64.66666666666667 17.0 64.66666666666667 0 S 78.66666666666667 -18.0 78.66666666666667 0 S 90.0 17.0 90.0 0 M 90.0 0 100 0" stroke="black" fill="transparent"
  transform="translate(841.896077 183.067627) rotate (76.516732 0 0) scale (0.666979 1)"/>
  <path
  d=" M 0 0 10.0 0 C 12.0 -17.0 19.0 13.0 20.0 0  S 30.0 16.0 30.0 0 S 40.0 -19.0 40.0 0 S 50.0 14.0 50.0 0 S 60.0 -14.0 60.0 0 S 70.0 16.0 70.0 0 S 80.0 -15.0 80.0 0 S 90.0 15.0 90.0 0 M 90.0 0 100 0" stroke="black" fill="transparent"
  transform="translate(756.237040 142.949463) rotate (25.095907 0 0) scale (0.945883 1)"/>
  <path
  d=" M 0 0 10.0 0 C 17.0 -14.0 34.0 18.0 26.0 0  S 42.0 14.0 42.0 0 S 58.0 -12.0 58.0 0 S 74.0 11.0 74.0 0 S 90.0 14.0 90.0 0 M 90.0 0 100 0" stroke="black" fill="transparent"
  transform="translate(933.724528 297.336975) rotate (-4.931905 0 0) scale (0.557696 1)"/>
  <path
  d=" M 0 0 10.0 0 C 8.0 -13.0 24.0 11.0 20.0 0  S 30.0 11.0 30.0 0 S 40.0 -15.0 40.0 0 S 50.0 18.0 50.0 0 S 60.0 -12.0 60.0 0 S 70.0 15.0 70.0 0 S 80.0 -17.0 80.0 0 S 90.0 10.0 90.0 0 M 90.0 0 100 0" stroke="black" fill="transparent"
  transform="translate(989.287618 292.542369) rotate (54.399499 0 0) scale (0.957822 1)"/>
  <path
  d=" M 0 0 10.0 0 C 7.666666666666667 -13.0 19.000000000000004 11.0 23.333333333333336 0  S 36.66666666666667 19.0 36.66666666666667 0 S 50.66666666666667 -11.0 50.66666666666667 0 S 64.66666666666667 15.0 64.66666666666667 0 S 78.66666666666667 -13.0 78.66666666666667 0 S 90.0 14.0 90.0 0 M 90.0 0 100 0" stroke="black" fill="transparent"
  transform="translate(999.188436 421.533844) rotate (-48.101686 0 0) scale (0.686675 1)"/>
  <path
  d=" M 0 0 10.0 0 C 7.666666666666667 -13.0 17.000000000000004 17.0 23.333333333333336 0  S 36.66666666666667 12.0 36.66666666666667 0 S 50.66666666666667 -19.0 50.66666666666667 0 S 64.66666666666667 13.0 64.66666666666667 0 S 78.66666666666667 -19.0 78.66666666666667 0 S 90.0 13.0 90.0 0 M 90.0 0 100 0" stroke="black" fill="transparent"
  transform="translate(1055.202657 546.334483) rotate (8.411443 0 0) scale (0.504673 1)"/>
  <path
  d=" M 0 0 10.0 0 C 10.714285714285715 -19.0 23.142857142857146 15.0 21.42857142857143 0  S 32.85714285714286 10.0 32.85714285714286 0 S 44.85714285714286 -12.0 44.85714285714286 0 S 56.85714285714286 10.0 56.85714285714286 0 S 68.85714285714286 -10.0 68.85714285714286 0 S 80.85714285714286 10.0 80.85714285714286 0 S 90.0 18.0 90.0 0 M 90.0 0 100 0" stroke="black" fill="transparent"
  transform="translate(1100.413208 649.997538) rotate (-87.197057 0 0) scale (0.963960 1)"/>
  <path
  d=" M 0 0 10.0 0 C 11.0 -15.0 24.0 19.0 20.0 0  S 30.0 10.0 30.0 0 S 40.0 -14.0 40.0 0 S 50.0 12.0 50.0 0 S 60.0 -13.0 60.0 0 S 70.0 10.0 70.0 0 S 80.0 -10.0 80.0 0 S 90.0 18.0 90.0 0 M 90.0 0 100 0" stroke="black" fill="transparent"
  transform="translate(1029.272868 696.494019) rotate (-33.168153 0 0) scale (0.849875 1)"/>
  <path
  d=" M 0 0 10.0 0 C 9.0 -12.0 20.0 14.0 20.0 0  S 30.0 16.0 30.0 0 S 40.0 -16.0 40.0 0 S 50.0 14.0 50.0 0 S 60.0 -19.0 60.0 0 S 70.0 12.0 70.0 0 S 80.0 -16.0 80.0 0 S 90.0 12.0 90.0 0 M 90.0 0 100 0" stroke="black" fill="transparent"
  transform="translate(1007.199483 905.957784) rotate (-55.488658 0 0) scale (0.915209 1)"/>
  <path
  d=" M 0 0 10.0 0 C 6.714285714285714 -17.0 19.142857142857146 11.0 21.42857142857143 0  S 32.85714285714286 13.0 32.85714285714286 0 S 44.85714285714286 -17.0 44.85714285714286 0 S 56.85714285714286 16.0 56.85714285714286 0 S 68.85714285714286 -17.0 68.85714285714286 0 S 80.85714285714286 13.0 80.85714285714286 0 S 90.0 16.0 90.0 0 M 90.0 0 100 0" stroke="black" fill="transparent"
  transform="translate(1005.381388 784.209025) rotate (40.804090 0 0) scale (0.709045 1)"/>
  <path
  d=" M 0 0 10.0 0 C 14.714285714285715 -14.0 24.142857142857146 19.0 21.42857142857143 0  S 32.85714285714286 10.0 32.85714285714286 0 S 44.85714285714286 -15.0 44.85714285714286 0 S 56.85714285714286 18.0 56.85714285714286 0 S 68.85714285714286 -18.0 68.85714285714286 0 S 80.85714285714286 13.0 80.85714285714286 0 S 90.0 13.0 90.0 0 M 90.0 0 100 0" stroke="black" fill="transparent"
  transform="translate(954.354004 895.949422) rotate (10.724185 0 0) scale (0.537849 1)"/>
  <path
  d=" M 0 0 10.0 0 C 11.0 -10.0 28.0 14.0 26.0 0  S 42.0 10.0 42.0 0 S 58.0 -10.0 58.0 0 S 74.0 10.0 74.0 0 S 90.0 18.0 90.0 0 M 90.0 0 100 0" stroke="black" fill="transparent"
  transform="translate(709.706991 1048.776591) rotate (22.391326 0 0) scale (0.723177 1)"/>
  <path
  d=" M 0 0 10.0 0 C 5.714285714285714 -19.0 19.142857142857146 13.0 21.42857142857143 0  S 32.85714285714286 11.0 32.85714285714286 0 S 44.85714285714286 -11.0 44.85714285714286 0 S 56.85714285714286 12.0 56.85714285714286 0 S 68.85714285714286 -17.0 68.85714285714286 0 S 80.85714285714286 17.0 80.85714285714286 0 S 90.0 17.0 90.0 0 M 90.0 0 100 0" stroke="black" fill="transparent"
  transform="translate(776.572164 1076.324585) rotate (-25.753063 0 0) scale (0.979218 1)"/>
  <path
  d=" M 0 0 10.0 0 C 9.0 -17.0 24.0 18.0 20.0 0  S 30.0 10.0 30.0 0 S 40.0 -16.0 40.0 0 S 50.0 12.0 50.0 0 S 60.0 -12.0 60.0 0 S 70.0 16.0 70.0 0 S 80.0 -10.0 80.0 0 S 90.0 17.0 90.0 0 M 90.0 0 100 0" stroke="black" fill="transparent"
  transform="translate(816.989868 987.587972) rotate (44.031949 0 0) scale (0.664551 1)"/>
  <path
  d=" M 0 0 10.0 0 C 11.0 -16.0 21.0 12.0 20.0 0  S 30.0 10.0 30.0 0 S 40.0 -12.0 40.0 0 S 50.0 11.0 50.0 0 S 60.0 -17.0 60.0 0 S 70.0 17.0 70.0 0 S 80.0 -14.0 80.0 0 S 90.0 10.0 90.0 0 M 90.0 0 100 0" stroke="black" fill="transparent"
  transform="translate(436.786133 1023.625509) rotate (42.884615 0 0) scale (0.949796 1)"/>
  <path
  d=" M 0 0 10.0 0 C 8.0 -12.0 31.0 14.0 26.0 0  S 42.0 12.0 42.0 0 S 58.0 -16.0 58.0 0 S 74.0 11.0 74.0 0 S 90.0 16.0 90.0 0 M 90.0 0 100 0" stroke="black" fill="transparent"
  transform="translate(506.380137 1088.261434) rotate (10.395774 0 0) scale (0.930325 1)"/>
  <path
  d=" M 0 0 10.0 0 C 8.714285714285715 -16.0 27.142857142857146 11.0 21.42857142857143 0  S 32.85714285714286 17.0 32.85714285714286 0 S 44.85714285714286 -11.0 44.85714285714286 0 S 56.85714285714286 11.0 56.85714285714286 0 S 68.85714285714286 -10.0 68.85714285714286 0 S 80.85714285714286 13.0 80.85714285714286 0 S 90.0 15.0 90.0 0 M 90.0 0 100 0" stroke="black" fill="transparent"
  transform="translate(597.885468 1105.048828) rotate (-70.356968 0 0) scale (0.626249 1)"/>
  <path
  d=" M 0 0 10.0 0 C 4.714285714285714 -10.0 17.142857142857146 14.0 21.42857142857143 0  S 32.85714285714286 15.0 32.85714285714286 0 S 44.85714285714286 -13.0 44.85714285714286 0 S 56.85714285714286 18.0 56.85714285714286 0 S 68.85714285714286 -17.0 68.85714285714286 0 S 80.85714285714286 10.0 80.85714285714286 0 S 90.0 14.0 90.0 0 M 90.0 0 100 0" stroke="black" fill="transparent"
  transform="translate(185.924357 895.118571) rotate (-51.130321 0 0) scale (0.576901 1)"/>
  <path
  d=" M 0 0 10.0 0 C 7.714285714285714 -14.0 19.142857142857146 11.0 21.42857142857143 0  S 32.85714285714286 15.0 32.85714285714286 0 S 44.85714285714286 -18.0 44.85714285714286 0 S 56.85714285714286 14.0 56.85714285714286 0 S 68.85714285714286 -16.0 68.85714285714286 0 S 80.85714285714286 10.0 80.85714285714286 0 S 90.0 11.0 90.0 0 M 90.0 0 100 0" stroke="black" fill="transparent"
  transform="translate(185.924357 895.118571) rotate (51.725993 0 0) scale (0.934713 1)"/>
  <path
  d=" M 0 0 10.0 0 C 8.0 -17.0 31.0 13.0 26.0 0  S 42.0 17.0 42.0 0 S 58.0 -18.0 58.0 0 S 74.0 14.0 74.0 0 S 90.0 15.0 90.0 0 M 90.0 0 100 0" stroke="black" fill="transparent"
  transform="translate(243.822617 968.498901) rotate (29.797144 0 0) scale (0.976999 1)"/>
  <path
  d=" M 0 0 10.0 0 C 11.666666666666668 -13.0 23.000000000000004 16.0 23.333333333333336 0  S 36.66666666666667 10.0 36.66666666666667 0 S 50.66666666666667 -16.0 50.66666666666667 0 S 64.66666666666667 11.0 64.66666666666667 0 S 78.66666666666667 -15.0 78.66666666666667 0 S 90.0 10.0 90.0 0 M 90.0 0 100 0" stroke="black" fill="transparent"
  transform="translate(328.605652 1017.048991) rotate (-56.821873 0 0) scale (0.503799 1)"/>
  <path
  d=" M 0 0 10.0 0 C 14.0 -16.0 20.0 11.0 20.0 0  S 30.0 10.0 30.0 0 S 40.0 -10.0 40.0 0 S 50.0 10.0 50.0 0 S 60.0 -13.0 60.0 0 S 70.0 17.0 70.0 0 S 80.0 -16.0 80.0 0 S 90.0 16.0 90.0 0 M 90.0 0 100 0" stroke="black" fill="transparent"
  transform="translate(113.285435 625.734172) rotate (52.277452 0 0) scale (0.722595 1)"/>
  <path
  d=" M 0 0 10.0 0 C 9.714285714285715 -16.0 21.142857142857146 15.0 21.42857142857143 0  S 32.85714285714286 16.0 32.85714285714286 0 S 44.85714285714286 -14.0 44.85714285714286 0 S 56.85714285714286 14.0 56.85714285714286 0 S 68.85714285714286 -13.0 68.85714285714286 0 S 80.85714285714286 14.0 80.85714285714286 0 S 90.0 11.0 90.0 0 M 90.0 0 100 0" stroke="black" fill="transparent"
  transform="translate(113.285435 625.734172) rotate (-39.873362 0 0) scale (0.685989 1)"/>
  <path
  d=" M 0 0 10.0 0 C 9.714285714285715 -12.0 27.142857142857146 12.0 21.42857142857143 0  S 32.85714285714286 19.0 32.85714285714286 0 S 44.85714285714286 -18.0 44.85714285714286 0 S 56.85714285714286 19.0 56.85714285714286 0 S 68.85714285714286 -18.0 68.85714285714286 0 S 80.85714285714286 10.0 80.85714285714286 0 S 90.0 14.0 90.0 0 M 90.0 0 100 0" stroke="black" fill="transparent"
  transform="translate(245.277868 272.574000) rotate (-15.348587 0 0) scale (0.607298 1)"/>
  <path
  d=" M 0 0 10.0 0 C 3.0 -12.0 28.0 18.0 26.0 0  S 42.0 11.0 42.0 0 S 58.0 -14.0 58.0 0 S 74.0 13.0 74.0 0 S 90.0 17.0 90.0 0 M 90.0 0 100 0" stroke="black" fill="transparent"
  transform="translate(186.546249 346.688466) rotate (-51.605121 0 0) scale (0.945640 1)"/>
  <path
  d=" M 0 0 10.0 0 C 11.0 -18.0 26.0 14.0 26.0 0  S 42.0 16.0 42.0 0 S 58.0 -13.0 58.0 0 S 74.0 16.0 74.0 0 S 90.0 14.0 90.0 0 M 90.0 0 100 0" stroke="black" fill="transparent"
  transform="translate(186.546249 346.688466) rotate (83.081380 0 0) scale (0.607860 1)"/>
  <path
  d=" M 0 0 10.0 0 C 9.0 -15.0 17.0 18.0 20.0 0  S 30.0 14.0 30.0 0 S 40.0 -13.0 40.0 0 S 50.0 16.0 50.0 0 S 60.0 -12.0 60.0 0 S 70.0 15.0 70.0 0 S 80.0 -18.0 80.0 0 S 90.0 18.0 90.0 0 M 90.0 0 100 0" stroke="black" fill="transparent"
  transform="translate(1100.413208 649.997538) rotate (80.920998 0 0) scale (0.906326 1)"/>
  <path
  d=" M 0 0 10.0 0 C 13.0 -19.0 25.0 18.0 20.0 0  S 30.0 11.0 30.0 0 S 40.0 -12.0 40.0 0 S 50.0 18.0 50.0 0 S 60.0 -12.0 60.0 0 S 70.0 12.0 70.0 0 S 80.0 -15.0 80.0 0 S 90.0 15.0 90.0 0 M 90.0 0 100 0" stroke="black" fill="transparent"
  transform="translate(1059.052409 830.543294) rotate (-58.560621 0 0) scale (1.067153 1)"/>
  <path
  d=" M 0 0 10.0 0 C 14.714285714285715 -11.0 19.142857142857146 13.0 21.42857142857143 0  S 32.85714285714286 19.0 32.85714285714286 0 S 44.85714285714286 -10.0 44.85714285714286 0 S 56.85714285714286 14.0 56.85714285714286 0 S 68.85714285714286 -16.0 68.85714285714286 0 S 80.85714285714286 16.0 80.85714285714286 0 S 90.0 16.0 90.0 0 M 90.0 0 100 0" stroke="black" fill="transparent"
  transform="translate(864.767904 1033.778198) rotate (-26.754101 0 0) scale (1.294138 1)"/>
  <path
  d=" M 0 0 10.0 0 C 11.666666666666668 -14.0 17.000000000000004 17.0 23.333333333333336 0  S 36.66666666666667 15.0 36.66666666666667 0 S 50.66666666666667 -12.0 50.66666666666667 0 S 64.66666666666667 13.0 64.66666666666667 0 S 78.66666666666667 -15.0 78.66666666666667 0 S 90.0 13.0 90.0 0 M 90.0 0 100 0" stroke="black" fill="transparent"
  transform="translate(980.327494 975.520996) rotate (-68.878654 0 0) scale (0.745731 1)"/>
  <path
  d=" M 0 0 10.0 0 C 7.666666666666667 -10.0 25.000000000000004 19.0 23.333333333333336 0  S 36.66666666666667 18.0 36.66666666666667 0 S 50.66666666666667 -12.0 50.66666666666667 0 S 64.66666666666667 17.0 64.66666666666667 0 S 78.66666666666667 -14.0 78.66666666666667 0 S 90.0 17.0 90.0 0 M 90.0 0 100 0" stroke="black" fill="transparent"
  transform="translate(597.885468 1105.048828) rotate (4.948924 0 0) scale (1.417929 1)"/>
  <path
  d=" M 0 0 10.0 0 C 14.0 -12.0 30.0 17.0 26.0 0  S 42.0 10.0 42.0 0 S 58.0 -12.0 58.0 0 S 74.0 10.0 74.0 0 S 90.0 10.0 90.0 0 M 90.0 0 100 0" stroke="black" fill="transparent"
  transform="translate(739.149719 1117.280965) rotate (-47.581597 0 0) scale (0.554785 1)"/>
  <path
  d=" M 0 0 10.0 0 C 11.666666666666668 -15.0 24.000000000000004 13.0 23.333333333333336 0  S 36.66666666666667 10.0 36.66666666666667 0 S 50.66666666666667 -12.0 50.66666666666667 0 S 64.66666666666667 13.0 64.66666666666667 0 S 78.66666666666667 -12.0 78.66666666666667 0 S 90.0 16.0 90.0 0 M 90.0 0 100 0" stroke="black" fill="transparent"
  transform="translate(462.563222 1109.456706) rotate (-25.814146 0 0) scale (0.486740 1)"/>
  <path
  d=" M 0 0 10.0 0 C 4.714285714285714 -14.0 22.142857142857146 12.0 21.42857142857143 0  S 32.85714285714286 13.0 32.85714285714286 0 S 44.85714285714286 -10.0 44.85714285714286 0 S 56.85714285714286 15.0 56.85714285714286 0 S 68.85714285714286 -18.0 68.85714285714286 0 S 80.85714285714286 12.0 80.85714285714286 0 S 90.0 12.0 90.0 0 M 90.0 0 100 0" stroke="black" fill="transparent"
  transform="translate(328.605652 1017.048991) rotate (34.599008 0 0) scale (1.627385 1)"/>
  <path
  d=" M 0 0 10.0 0 C 11.666666666666668 -16.0 18.000000000000004 19.0 23.333333333333336 0  S 36.66666666666667 14.0 36.66666666666667 0 S 50.66666666666667 -12.0 50.66666666666667 0 S 64.66666666666667 15.0 64.66666666666667 0 S 78.66666666666667 -16.0 78.66666666666667 0 S 90.0 10.0 90.0 0 M 90.0 0 100 0" stroke="black" fill="transparent"
  transform="translate(125.170938 813.741597) rotate (53.256170 0 0) scale (1.015539 1)"/>
  <path
  d=" M 0 0 10.0 0 C 10.714285714285715 -19.0 27.142857142857146 17.0 21.42857142857143 0  S 32.85714285714286 16.0 32.85714285714286 0 S 44.85714285714286 -18.0 44.85714285714286 0 S 56.85714285714286 15.0 56.85714285714286 0 S 68.85714285714286 -12.0 68.85714285714286 0 S 80.85714285714286 14.0 80.85714285714286 0 S 90.0 18.0 90.0 0 M 90.0 0 100 0" stroke="black" fill="transparent"
  transform="translate(125.170938 813.741597) rotate (-51.130321 0 0) scale (0.576901 1)"/>
  <path
  d=" M 0 0 10.0 0 C 14.0 -12.0 25.0 19.0 20.0 0  S 30.0 17.0 30.0 0 S 40.0 -10.0 40.0 0 S 50.0 16.0 50.0 0 S 60.0 -18.0 60.0 0 S 70.0 17.0 70.0 0 S 80.0 -16.0 80.0 0 S 90.0 17.0 90.0 0 M 90.0 0 100 0" stroke="black" fill="transparent"
  transform="translate(99.650618 539.570424) rotate (-39.873362 0 0) scale (0.685989 1)"/>
  <path
  d=" M 0 0 10.0 0 C 10.714285714285715 -15.0 20.142857142857146 16.0 21.42857142857143 0  S 32.85714285714286 19.0 32.85714285714286 0 S 44.85714285714286 -18.0 44.85714285714286 0 S 56.85714285714286 18.0 56.85714285714286 0 S 68.85714285714286 -14.0 68.85714285714286 0 S 80.85714285714286 10.0 80.85714285714286 0 S 90.0 15.0 90.0 0 M 90.0 0 100 0" stroke="black" fill="transparent"
  transform="translate(99.650618 539.570424) rotate (81.007901 0 0) scale (0.872359 1)"/>
  <path
  d=" M 0 0 10.0 0 C 10.714285714285715 -14.0 27.142857142857146 18.0 21.42857142857143 0  S 32.85714285714286 12.0 32.85714285714286 0 S 44.85714285714286 -19.0 44.85714285714286 0 S 56.85714285714286 11.0 56.85714285714286 0 S 68.85714285714286 -13.0 68.85714285714286 0 S 80.85714285714286 17.0 80.85714285714286 0 S 90.0 11.0 90.0 0 M 90.0 0 100 0" stroke="black" fill="transparent"
  transform="translate(186.546249 346.688466) rotate (-73.550668 0 0) scale (0.725319 1)"/>
  <path
  d=" M 0 0 10.0 0 C 13.0 -14.0 19.0 19.0 26.0 0  S 42.0 17.0 42.0 0 S 58.0 -19.0 58.0 0 S 74.0 15.0 74.0 0 S 90.0 16.0 90.0 0 M 90.0 0 100 0" stroke="black" fill="transparent"
  transform="translate(207.084910 277.125270) rotate (-6.795614 0 0) scale (0.384632 1)"/>
  <path
  d=" M 0 0 10.0 0 C 15.0 -18.0 20.0 15.0 26.0 0  S 42.0 16.0 42.0 0 S 58.0 -14.0 58.0 0 S 74.0 11.0 74.0 0 S 90.0 14.0 90.0 0 M 90.0 0 100 0" stroke="black" fill="transparent"
  transform="translate(360.109212 190.277171) rotate (-45.425317 0 0) scale (1.033896 1)"/>
  <path
  d=" M 0 0 10.0 0 C 13.0 -17.0 22.0 11.0 20.0 0  S 30.0 15.0 30.0 0 S 40.0 -12.0 40.0 0 S 50.0 15.0 50.0 0 S 60.0 -11.0 60.0 0 S 70.0 13.0 70.0 0 S 80.0 -15.0 80.0 0 S 90.0 16.0 90.0 0 M 90.0 0 100 0" stroke="black" fill="transparent"
  transform="translate(432.671967 116.629047) rotate (13.501139 0 0) scale (0.536437 1)"/>
  <path
  d=" M 0 0 10.0 0 C 14.0 -18.0 23.0 11.0 20.0 0  S 30.0 14.0 30.0 0 S 40.0 -17.0 40.0 0 S 50.0 12.0 50.0 0 S 60.0 -18.0 60.0 0 S 70.0 17.0 70.0 0 S 80.0 -10.0 80.0 0 S 90.0 14.0 90.0 0 M 90.0 0 100 0" stroke="black" fill="transparent"
  transform="translate(638.367818 129.406656) rotate (-22.270301 0 0) scale (0.733250 1)"/>
  <path
  d=" M 0 0 10.0 0 C 9.0 -10.0 23.0 11.0 20.0 0  S 30.0 15.0 30.0 0 S 40.0 -12.0 40.0 0 S 50.0 17.0 50.0 0 S 60.0 -12.0 60.0 0 S 70.0 19.0 70.0 0 S 80.0 -11.0 80.0 0 S 90.0 17.0 90.0 0 M 90.0 0 100 0" stroke="black" fill="transparent"
  transform="translate(706.223206 101.618214) rotate (39.570202 0 0) scale (0.648819 1)"/>
  <path
  d=" M 0 0 10.0 0 C 11.666666666666668 -12.0 23.000000000000004 16.0 23.333333333333336 0  S 36.66666666666667 16.0 36.66666666666667 0 S 50.66666666666667 -18.0 50.66666666666667 0 S 64.66666666666667 14.0 64.66666666666667 0 S 78.66666666666667 -17.0 78.66666666666667 0 S 90.0 11.0 90.0 0 M 90.0 0 100 0" stroke="black" fill="transparent"
  transform="translate(841.896077 183.067627) rotate (19.892148 0 0) scale (1.161977 1)"/>
  <path
  d=" M 0 0 10.0 0 C 6.0 -17.0 24.0 13.0 20.0 0  S 30.0 10.0 30.0 0 S 40.0 -15.0 40.0 0 S 50.0 10.0 50.0 0 S 60.0 -14.0 60.0 0 S 70.0 10.0 70.0 0 S 80.0 -16.0 80.0 0 S 90.0 11.0 90.0 0 M 90.0 0 100 0" stroke="black" fill="transparent"
  transform="translate(951.160787 222.603963) rotate (61.403047 0 0) scale (0.796557 1)"/>
  <path
  d=" M 0 0 10.0 0 C 13.714285714285715 -14.0 20.142857142857146 15.0 21.42857142857143 0  S 32.85714285714286 12.0 32.85714285714286 0 S 44.85714285714286 -18.0 44.85714285714286 0 S 56.85714285714286 19.0 56.85714285714286 0 S 68.85714285714286 -11.0 68.85714285714286 0 S 80.85714285714286 13.0 80.85714285714286 0 S 90.0 15.0 90.0 0 M 90.0 0 100 0" stroke="black" fill="transparent"
  transform="translate(1105.127075 553.716868) rotate (-88.636635 0 0) scale (0.982786 1)"/>
  <path
  d=" M 0 0 10.0 0 C 16.0 -18.0 33.0 10.0 26.0 0  S 42.0 14.0 42.0 0 S 58.0 -18.0 58.0 0 S 74.0 15.0 74.0 0 S 90.0 15.0 90.0 0 M 90.0 0 100 0" stroke="black" fill="transparent"
  transform="translate(1045.045329 370.422475) rotate (53.722184 0 0) scale (1.054926 1)"/>
  <path
  d=" M 0 0 10.0 0 C 9.666666666666668 -12.0 30.000000000000004 10.0 23.333333333333336 0  S 36.66666666666667 16.0 36.66666666666667 0 S 50.66666666666667 -10.0 50.66666666666667 0 S 64.66666666666667 17.0 64.66666666666667 0 S 78.66666666666667 -17.0 78.66666666666667 0 S 90.0 11.0 90.0 0 M 90.0 0 100 0" stroke="black" fill="transparent"
  transform="translate(951.160787 222.603963) rotate (56.129207 0 0) scale (2.804566 1)"/>
  <path
  d=" M 0 0 10.0 0 C 12.0 -10.0 33.0 14.0 26.0 0  S 42.0 19.0 42.0 0 S 58.0 -13.0 58.0 0 S 74.0 10.0 74.0 0 S 90.0 14.0 90.0 0 M 90.0 0 100 0" stroke="black" fill="transparent"
  transform="translate(1107.465413 455.466115) rotate (88.537956 0 0) scale (2.841210 1)"/>
  <path
  d=" M 0 0 10.0 0 C 5.666666666666667 -13.0 22.000000000000004 15.0 23.333333333333336 0  S 36.66666666666667 19.0 36.66666666666667 0 S 50.66666666666667 -18.0 50.66666666666667 0 S 64.66666666666667 12.0 64.66666666666667 0 S 78.66666666666667 -11.0 78.66666666666667 0 S 90.0 17.0 90.0 0 M 90.0 0 100 0" stroke="black" fill="transparent"
  transform="translate(980.327494 975.520996) rotate (-60.343955 0 0) scale (2.716033 1)"/>
  <path
  d=" M 0 0 10.0 0 C 11.0 -10.0 22.0 15.0 20.0 0  S 30.0 16.0 30.0 0 S 40.0 -13.0 40.0 0 S 50.0 12.0 50.0 0 S 60.0 -18.0 60.0 0 S 70.0 15.0 70.0 0 S 80.0 -16.0 80.0 0 S 90.0 16.0 90.0 0 M 90.0 0 100 0" stroke="black" fill="transparent"
  transform="translate(739.149719 1117.280965) rotate (-30.446248 0 0) scale (2.797545 1)"/>
  <path
  d=" M 0 0 10.0 0 C 9.666666666666668 -12.0 19.000000000000004 15.0 23.333333333333336 0  S 36.66666666666667 16.0 36.66666666666667 0 S 50.66666666666667 -11.0 50.66666666666667 0 S 64.66666666666667 14.0 64.66666666666667 0 S 78.66666666666667 -14.0 78.66666666666667 0 S 90.0 11.0 90.0 0 M 90.0 0 100 0" stroke="black" fill="transparent"
  transform="translate(462.563222 1109.456706) rotate (-1.865647 0 0) scale (1.353940 1)"/>
  <path
  d=" M 0 0 10.0 0 C 9.0 -19.0 17.0 12.0 20.0 0  S 30.0 11.0 30.0 0 S 40.0 -17.0 40.0 0 S 50.0 19.0 50.0 0 S 60.0 -18.0 60.0 0 S 70.0 18.0 70.0 0 S 80.0 -16.0 80.0 0 S 90.0 11.0 90.0 0 M 90.0 0 100 0" stroke="black" fill="transparent"
  transform="translate(303.841599 256.499385) rotate (-47.352759 0 0) scale (1.901604 1)"/>
  <path
  d=" M 0 0 10.0 0 C 15.0 -16.0 21.0 15.0 26.0 0  S 42.0 12.0 42.0 0 S 58.0 -18.0 58.0 0 S 74.0 16.0 74.0 0 S 90.0 13.0 90.0 0 M 90.0 0 100 0" stroke="black" fill="transparent"
  transform="translate(432.671967 116.629047) rotate (3.554586 0 0) scale (2.060923 1)"/>
  <path
  d=" M 0 0 10.0 0 C 10.714285714285715 -12.0 23.142857142857146 15.0 21.42857142857143 0  S 32.85714285714286 18.0 32.85714285714286 0 S 44.85714285714286 -12.0 44.85714285714286 0 S 56.85714285714286 11.0 56.85714285714286 0 S 68.85714285714286 -10.0 68.85714285714286 0 S 80.85714285714286 10.0 80.85714285714286 0 S 90.0 10.0 90.0 0 M 90.0 0 100 0" stroke="black" fill="transparent"
  transform="translate(706.223206 101.618214) rotate (26.286849 0 0) scale (2.731885 1)"/>
  
</svg>
