<svg xmlns="http://www.w3.org/2000/svg"
  xmlns:xlink="http://www.w3.org/1999/xlink"
  width="1500" height="1500">
<path
  d=" M 0 0 10.0 0 C 23.0 -24.0 64.0 27.0 50.0 0  S 90.0 26.0 90.0 0 M 90.0 0 100 0" stroke="black" fill="transparent"
  transform="translate(935.666667 135.000000) rotate (43.007906 0 0) scale (0.542443 1)"/>
  <path
  d=" M 0 0 10.0 0 C 27.0 -28.0 59.0 25.0 50.0 0  S 90.0 21.0 90.0 0 M 90.0 0 100 0" stroke="black" fill="transparent"
  transform="translate(899.666667 98.333333) rotate (45.525635 0 0) scale (0.513853 1)"/>
  <path
  d=" M 0 0 10.0 0 C 22.0 -22.0 67.0 29.0 50.0 0  S 90.0 22.0 90.0 0 M 90.0 0 100 0" stroke="black" fill="transparent"
  transform="translate(866.333333 72.666667) rotate (37.596271 0 0) scale (0.420700 1)"/>
  <path
  d=" M 0 0 10.0 0 C 26.0 -27.0 58.0 20.0 50.0 0  S 90.0 25.0 90.0 0 M 90.0 0 100 0" stroke="black" fill="transparent"
  transform="translate(800.666667 78.000000) rotate (-4.643273 0 0) scale (0.658829 1)"/>
  <path
  d=" M 0 0 10.0 0 C 26.0 -21.0 66.0 24.0 50.0 0  S 90.0 25.0 90.0 0 M 90.0 0 100 0" stroke="black" fill="transparent"
  transform="translate(704.666667 78.333333) rotate (-0.198943 0 0) scale (0.960006 1)"/>
  <path
  d=" M 0 0 10.0 0 C 23.0 -26.0 64.0 25.0 50.0 0  S 90.0 29.0 90.0 0 M 90.0 0 100 0" stroke="black" fill="transparent"
  transform="translate(704.666667 78.333333) rotate (19.088645 0 0) scale (2.864156 1)"/>
  <path
  d=" M 0 0 10.0 0 C 11.0 -29.0 64.0 21.0 50.0 0  S 90.0 29.0 90.0 0 M 90.0 0 100 0" stroke="black" fill="transparent"
  transform="translate(646.333333 335.333333) rotate (-20.843528 0 0) scale (0.777553 1)"/>
  <path
  d=" M 0 0 10.0 0 C 19.0 -24.0 56.0 27.0 50.0 0  S 90.0 27.0 90.0 0 M 90.0 0 100 0" stroke="black" fill="transparent"
  transform="translate(603.000000 301.666667) rotate (37.844458 0 0) scale (0.548746 1)"/>
  <path
  d=" M 0 0 10.0 0 C 16.0 -26.0 70.0 20.0 50.0 0  S 90.0 26.0 90.0 0 M 90.0 0 100 0" stroke="black" fill="transparent"
  transform="translate(603.000000 301.666667) rotate (-84.181029 0 0) scale (0.526044 1)"/>
  <path
  d=" M 0 0 10.0 0 C 14.0 -26.0 52.0 29.0 50.0 0  S 90.0 25.0 90.0 0 M 90.0 0 100 0" stroke="black" fill="transparent"
  transform="translate(608.333333 249.333333) rotate (-39.075418 0 0) scale (0.502372 1)"/>
  <path
  d=" M 0 0 10.0 0 C 25.0 -26.0 59.0 28.0 50.0 0  S 90.0 25.0 90.0 0 M 90.0 0 100 0" stroke="black" fill="transparent"
  transform="translate(647.333333 217.666667) rotate (-9.619728 0 0) scale (0.598415 1)"/>
  <path
  d=" M 0 0 10.0 0 C 23.0 -21.0 59.0 20.0 50.0 0  S 90.0 21.0 90.0 0 M 90.0 0 100 0" stroke="black" fill="transparent"
  transform="translate(706.333333 207.666667) rotate (46.344724 0 0) scale (0.502184 1)"/>
  <path
  d=" M 0 0 10.0 0 C 17.0 -22.0 60.0 23.0 50.0 0  S 90.0 25.0 90.0 0 M 90.0 0 100 0" stroke="black" fill="transparent"
  transform="translate(719.000000 307.666667) rotate (-70.937423 0 0) scale (0.673606 1)"/>
  <path
  d=" M 0 0 10.0 0 C 29.0 -28.0 67.0 26.0 50.0 0  S 90.0 29.0 90.0 0 M 90.0 0 100 0" stroke="black" fill="transparent"
  transform="translate(197.000000 323.666667) rotate (84.345579 0 0) scale (0.676626 1)"/>
  <path
  d=" M 0 0 10.0 0 C 13.0 -21.0 69.0 25.0 50.0 0  S 90.0 24.0 90.0 0 M 90.0 0 100 0" stroke="black" fill="transparent"
  transform="translate(197.000000 323.666667) rotate (-31.682366 0 0) scale (0.501387 1)"/>
  <path
  d=" M 0 0 10.0 0 C 28.0 -26.0 63.0 27.0 50.0 0  S 90.0 28.0 90.0 0 M 90.0 0 100 0" stroke="black" fill="transparent"
  transform="translate(239.666667 297.333333) rotate (30.735488 0 0) scale (0.860930 1)"/>
  <path
  d=" M 0 0 10.0 0 C 11.0 -23.0 54.0 20.0 50.0 0  S 90.0 22.0 90.0 0 M 90.0 0 100 0" stroke="black" fill="transparent"
  transform="translate(302.666667 410.333333) rotate (-80.942112 0 0) scale (0.698713 1)"/>
  <path
  d=" M 0 0 10.0 0 C 24.0 -26.0 57.0 20.0 50.0 0  S 90.0 23.0 90.0 0 M 90.0 0 100 0" stroke="black" fill="transparent"
  transform="translate(235.333333 433.666667) rotate (-19.112974 0 0) scale (0.712616 1)"/>
  <path
  d=" M 0 0 10.0 0 C 20.0 -26.0 54.0 20.0 50.0 0  S 90.0 25.0 90.0 0 M 90.0 0 100 0" stroke="black" fill="transparent"
  transform="translate(203.666667 391.000000) rotate (53.417657 0 0) scale (0.531340 1)"/>
  <path
  d=" M 0 0 10.0 0 C 22.0 -23.0 57.0 22.0 50.0 0  S 90.0 27.0 90.0 0 M 90.0 0 100 0" stroke="black" fill="transparent"
  transform="translate(915.333333 346.000000) rotate (87.682938 0 0) scale (0.577139 1)"/>
  <path
  d=" M 0 0 10.0 0 C 19.0 -25.0 70.0 29.0 50.0 0  S 90.0 22.0 90.0 0 M 90.0 0 100 0" stroke="black" fill="transparent"
  transform="translate(917.666667 403.666667) rotate (48.447387 0 0) scale (0.587963 1)"/>
  <path
  d=" M 0 0 10.0 0 C 27.0 -23.0 59.0 29.0 50.0 0  S 90.0 26.0 90.0 0 M 90.0 0 100 0" stroke="black" fill="transparent"
  transform="translate(915.333333 346.000000) rotate (67.875437 0 0) scale (1.097477 1)"/>
  <path
  d=" M 0 0 10.0 0 C 17.0 -29.0 60.0 20.0 50.0 0  S 90.0 22.0 90.0 0 M 90.0 0 100 0" stroke="black" fill="transparent"
  transform="translate(448.000000 405.000000) rotate (32.386373 0 0) scale (0.690781 1)"/>
  <path
  d=" M 0 0 10.0 0 C 21.0 -29.0 64.0 27.0 50.0 0  S 90.0 20.0 90.0 0 M 90.0 0 100 0" stroke="black" fill="transparent"
  transform="translate(448.000000 405.000000) rotate (-83.250825 0 0) scale (0.567264 1)"/>
  <path
  d=" M 0 0 10.0 0 C 23.0 -24.0 60.0 29.0 50.0 0  S 90.0 22.0 90.0 0 M 90.0 0 100 0" stroke="black" fill="transparent"
  transform="translate(454.666667 348.666667) rotate (-9.090277 0 0) scale (0.590753 1)"/>
  <path
  d=" M 0 0 10.0 0 C 23.0 -22.0 54.0 25.0 50.0 0  S 90.0 26.0 90.0 0 M 90.0 0 100 0" stroke="black" fill="transparent"
  transform="translate(513.000000 339.333333) rotate (68.629378 0 0) scale (0.740945 1)"/>
  <path
  d=" M 0 0 10.0 0 C 25.0 -22.0 65.0 25.0 50.0 0  S 90.0 26.0 90.0 0 M 90.0 0 100 0" stroke="black" fill="transparent"
  transform="translate(506.333333 442.000000) rotate (-45.000000 0 0) scale (0.476119 1)"/>
  <path
  d=" M 0 0 10.0 0 C 23.0 -25.0 64.0 22.0 50.0 0  S 90.0 23.0 90.0 0 M 90.0 0 100 0" stroke="black" fill="transparent"
  transform="translate(802.000000 760.000000) rotate (-50.906141 0 0) scale (0.549747 1)"/>
  <path
  d=" M 0 0 10.0 0 C 28.0 -20.0 56.0 27.0 50.0 0  S 90.0 21.0 90.0 0 M 90.0 0 100 0" stroke="black" fill="transparent"
  transform="translate(836.666667 717.333333) rotate (23.428693 0 0) scale (0.762897 1)"/>
  <path
  d=" M 0 0 10.0 0 C 22.0 -27.0 67.0 24.0 50.0 0  S 90.0 21.0 90.0 0 M 90.0 0 100 0" stroke="black" fill="transparent"
  transform="translate(906.666667 747.666667) rotate (61.260205 0 0) scale (0.824958 1)"/>
  <path
  d=" M 0 0 10.0 0 C 21.0 -20.0 52.0 25.0 50.0 0  S 90.0 26.0 90.0 0 M 90.0 0 100 0" stroke="black" fill="transparent"
  transform="translate(904.333333 858.000000) rotate (-42.137595 0 0) scale (0.566392 1)"/>
  <path
  d=" M 0 0 10.0 0 C 27.0 -27.0 57.0 20.0 50.0 0  S 90.0 26.0 90.0 0 M 90.0 0 100 0" stroke="black" fill="transparent"
  transform="translate(830.000000 828.333333) rotate (21.757097 0 0) scale (0.800347 1)"/>
  <path
  d=" M 0 0 10.0 0 C 23.0 -27.0 60.0 21.0 50.0 0  S 90.0 28.0 90.0 0 M 90.0 0 100 0" stroke="black" fill="transparent"
  transform="translate(802.000000 760.000000) rotate (67.718335 0 0) scale (0.738474 1)"/>
  <path
  d=" M 0 0 10.0 0 C 24.0 -21.0 58.0 29.0 50.0 0  S 90.0 24.0 90.0 0 M 90.0 0 100 0" stroke="black" fill="transparent"
  transform="translate(204.666667 202.333333) rotate (-85.143396 0 0) scale (0.511838 1)"/>
  <path
  d=" M 0 0 10.0 0 C 18.0 -24.0 60.0 24.0 50.0 0  S 90.0 27.0 90.0 0 M 90.0 0 100 0" stroke="black" fill="transparent"
  transform="translate(140.333333 141.333333) rotate (8.285797 0 0) scale (0.693910 1)"/>
  <path
  d=" M 0 0 10.0 0 C 11.0 -25.0 52.0 29.0 50.0 0  S 90.0 25.0 90.0 0 M 90.0 0 100 0" stroke="black" fill="transparent"
  transform="translate(136.000000 192.333333) rotate (-85.143396 0 0) scale (0.511838 1)"/>
  <path
  d=" M 0 0 10.0 0 C 25.0 -23.0 54.0 29.0 50.0 0  S 90.0 24.0 90.0 0 M 90.0 0 100 0" stroke="black" fill="transparent"
  transform="translate(136.000000 192.333333) rotate (8.285797 0 0) scale (0.693910 1)"/>
  <path
  d=" M 0 0 10.0 0 C 15.0 -23.0 52.0 22.0 50.0 0  S 90.0 25.0 90.0 0 M 90.0 0 100 0" stroke="black" fill="transparent"
  transform="translate(313.666667 341.333333) rotate (-37.385288 0 0) scale (0.444685 1)"/>
  <path
  d=" M 0 0 10.0 0 C 13.0 -26.0 55.0 28.0 50.0 0  S 90.0 23.0 90.0 0 M 90.0 0 100 0" stroke="black" fill="transparent"
  transform="translate(349.000000 314.333333) rotate (-0.599934 0 0) scale (0.636702 1)"/>
  <path
  d=" M 0 0 10.0 0 C 26.0 -21.0 60.0 28.0 50.0 0  S 90.0 21.0 90.0 0 M 90.0 0 100 0" stroke="black" fill="transparent"
  transform="translate(412.666667 313.666667) rotate (39.805571 0 0) scale (0.546717 1)"/>
  <path
  d=" M 0 0 10.0 0 C 11.0 -28.0 66.0 20.0 50.0 0  S 90.0 21.0 90.0 0 M 90.0 0 100 0" stroke="black" fill="transparent"
  transform="translate(415.000000 438.000000) rotate (-45.000000 0 0) scale (0.466690 1)"/>
  <path
  d=" M 0 0 10.0 0 C 12.0 -23.0 66.0 21.0 50.0 0  S 90.0 27.0 90.0 0 M 90.0 0 100 0" stroke="black" fill="transparent"
  transform="translate(347.000000 451.333333) rotate (-11.093723 0 0) scale (0.692949 1)"/>
  <path
  d=" M 0 0 10.0 0 C 25.0 -26.0 57.0 24.0 50.0 0  S 90.0 23.0 90.0 0 M 90.0 0 100 0" stroke="black" fill="transparent"
  transform="translate(302.666667 410.333333) rotate (42.763021 0 0) scale (0.603858 1)"/>
  <path
  d=" M 0 0 10.0 0 C 30.0 -22.0 67.0 21.0 50.0 0  S 90.0 27.0 90.0 0 M 90.0 0 100 0" stroke="black" fill="transparent"
  transform="translate(204.666667 202.333333) rotate (46.296063 0 0) scale (0.521035 1)"/>
  <path
  d=" M 0 0 10.0 0 C 23.0 -27.0 61.0 20.0 50.0 0  S 90.0 28.0 90.0 0 M 90.0 0 100 0" stroke="black" fill="transparent"
  transform="translate(102.333333 230.666667) rotate (-48.708428 0 0) scale (0.510185 1)"/>
  <path
  d=" M 0 0 10.0 0 C 12.0 -20.0 70.0 29.0 50.0 0  S 90.0 28.0 90.0 0 M 90.0 0 100 0" stroke="black" fill="transparent"
  transform="translate(102.333333 230.666667) rotate (62.904448 0 0) scale (0.805019 1)"/>
  <path
  d=" M 0 0 10.0 0 C 30.0 -27.0 64.0 24.0 50.0 0  S 90.0 26.0 90.0 0 M 90.0 0 100 0" stroke="black" fill="transparent"
  transform="translate(139.000000 302.333333) rotate (20.194334 0 0) scale (0.617990 1)"/>
  <path
  d=" M 0 0 10.0 0 C 27.0 -21.0 67.0 28.0 50.0 0  S 90.0 28.0 90.0 0 M 90.0 0 100 0" stroke="black" fill="transparent"
  transform="translate(239.666667 297.333333) rotate (-89.000756 0 0) scale (0.573421 1)"/>
  <path
  d=" M 0 0 10.0 0 C 18.0 -24.0 69.0 20.0 50.0 0  S 90.0 25.0 90.0 0 M 90.0 0 100 0" stroke="black" fill="transparent"
  transform="translate(90.666667 619.333333) rotate (-89.716360 0 0) scale (0.673342 1)"/>
  <path
  d=" M 0 0 10.0 0 C 27.0 -26.0 57.0 26.0 50.0 0  S 90.0 20.0 90.0 0 M 90.0 0 100 0" stroke="black" fill="transparent"
  transform="translate(507.000000 506.666667) rotate (46.672394 0 0) scale (0.646099 1)"/>
  <path
  d=" M 0 0 10.0 0 C 12.0 -28.0 62.0 28.0 50.0 0  S 90.0 25.0 90.0 0 M 90.0 0 100 0" stroke="black" fill="transparent"
  transform="translate(551.333333 553.666667) rotate (89.664941 0 0) scale (0.570010 1)"/>
  <path
  d=" M 0 0 10.0 0 C 24.0 -29.0 66.0 27.0 50.0 0  S 90.0 23.0 90.0 0 M 90.0 0 100 0" stroke="black" fill="transparent"
  transform="translate(503.000000 636.333333) rotate (-27.807042 0 0) scale (0.550202 1)"/>
  <path
  d=" M 0 0 10.0 0 C 16.0 -24.0 61.0 27.0 50.0 0  S 90.0 20.0 90.0 0 M 90.0 0 100 0" stroke="black" fill="transparent"
  transform="translate(447.333333 598.333333) rotate (34.318803 0 0) scale (0.674001 1)"/>
  <path
  d=" M 0 0 10.0 0 C 25.0 -28.0 60.0 28.0 50.0 0  S 90.0 29.0 90.0 0 M 90.0 0 100 0" stroke="black" fill="transparent"
  transform="translate(447.333333 598.333333) rotate (-86.587321 0 0) scale (0.727958 1)"/>
  <path
  d=" M 0 0 10.0 0 C 21.0 -26.0 58.0 23.0 50.0 0  S 90.0 28.0 90.0 0 M 90.0 0 100 0" stroke="black" fill="transparent"
  transform="translate(451.666667 525.666667) rotate (-18.951113 0 0) scale (0.585045 1)"/>
  <path
  d=" M 0 0 10.0 0 C 14.0 -27.0 61.0 28.0 50.0 0  S 90.0 20.0 90.0 0 M 90.0 0 100 0" stroke="black" fill="transparent"
  transform="translate(847.333333 242.000000) rotate (-24.048176 0 0) scale (0.678929 1)"/>
  <path
  d=" M 0 0 10.0 0 C 24.0 -24.0 63.0 27.0 50.0 0  S 90.0 22.0 90.0 0 M 90.0 0 100 0" stroke="black" fill="transparent"
  transform="translate(909.333333 214.333333) rotate (-71.637303 0 0) scale (0.835896 1)"/>
  <path
  d=" M 0 0 10.0 0 C 15.0 -22.0 52.0 23.0 50.0 0  S 90.0 24.0 90.0 0 M 90.0 0 100 0" stroke="black" fill="transparent"
  transform="translate(837.666667 110.333333) rotate (-10.954063 0 0) scale (0.631506 1)"/>
  <path
  d=" M 0 0 10.0 0 C 18.0 -28.0 61.0 20.0 50.0 0  S 90.0 26.0 90.0 0 M 90.0 0 100 0" stroke="black" fill="transparent"
  transform="translate(803.333333 140.000000) rotate (-40.829563 0 0) scale (0.453750 1)"/>
  <path
  d=" M 0 0 10.0 0 C 23.0 -21.0 68.0 23.0 50.0 0  S 90.0 25.0 90.0 0 M 90.0 0 100 0" stroke="black" fill="transparent"
  transform="translate(803.333333 140.000000) rotate (87.809426 0 0) scale (0.610446 1)"/>
  <path
  d=" M 0 0 10.0 0 C 23.0 -20.0 52.0 22.0 50.0 0  S 90.0 22.0 90.0 0 M 90.0 0 100 0" stroke="black" fill="transparent"
  transform="translate(805.666667 201.000000) rotate (44.537947 0 0) scale (0.584561 1)"/>
  <path
  d=" M 0 0 10.0 0 C 17.0 -29.0 62.0 28.0 50.0 0  S 90.0 23.0 90.0 0 M 90.0 0 100 0" stroke="black" fill="transparent"
  transform="translate(336.000000 147.666667) rotate (-22.278502 0 0) scale (0.817707 1)"/>
  <path
  d=" M 0 0 10.0 0 C 20.0 -21.0 52.0 20.0 50.0 0  S 90.0 27.0 90.0 0 M 90.0 0 100 0" stroke="black" fill="transparent"
  transform="translate(301.000000 118.000000) rotate (40.285245 0 0) scale (0.458815 1)"/>
  <path
  d=" M 0 0 10.0 0 C 15.0 -29.0 60.0 25.0 50.0 0  S 90.0 22.0 90.0 0 M 90.0 0 100 0" stroke="black" fill="transparent"
  transform="translate(301.000000 118.000000) rotate (-22.278502 0 0) scale (0.817707 1)"/>
  <path
  d=" M 0 0 10.0 0 C 16.0 -21.0 67.0 20.0 50.0 0  S 90.0 22.0 90.0 0 M 90.0 0 100 0" stroke="black" fill="transparent"
  transform="translate(376.666667 87.000000) rotate (40.285245 0 0) scale (0.458815 1)"/>
  <path
  d=" M 0 0 10.0 0 C 23.0 -20.0 67.0 26.0 50.0 0  S 90.0 24.0 90.0 0 M 90.0 0 100 0" stroke="black" fill="transparent"
  transform="translate(636.000000 512.000000) rotate (17.862827 0 0) scale (0.738956 1)"/>
  <path
  d=" M 0 0 10.0 0 C 17.0 -25.0 60.0 27.0 50.0 0  S 90.0 25.0 90.0 0 M 90.0 0 100 0" stroke="black" fill="transparent"
  transform="translate(706.333333 534.666667) rotate (-31.817035 0 0) scale (0.537422 1)"/>
  <path
  d=" M 0 0 10.0 0 C 19.0 -23.0 60.0 29.0 50.0 0  S 90.0 25.0 90.0 0 M 90.0 0 100 0" stroke="black" fill="transparent"
  transform="translate(752.000000 506.333333) rotate (-90.000000 0 0) scale (0.556667 1)"/>
  <path
  d=" M 0 0 10.0 0 C 22.0 -28.0 52.0 29.0 50.0 0  S 90.0 26.0 90.0 0 M 90.0 0 100 0" stroke="black" fill="transparent"
  transform="translate(720.333333 407.666667) rotate (53.630802 0 0) scale (0.534020 1)"/>
  <path
  d=" M 0 0 10.0 0 C 12.0 -23.0 61.0 21.0 50.0 0  S 90.0 25.0 90.0 0 M 90.0 0 100 0" stroke="black" fill="transparent"
  transform="translate(650.000000 394.333333) rotate (10.734378 0 0) scale (0.715860 1)"/>
  <path
  d=" M 0 0 10.0 0 C 17.0 -25.0 57.0 29.0 50.0 0  S 90.0 22.0 90.0 0 M 90.0 0 100 0" stroke="black" fill="transparent"
  transform="translate(607.666667 439.333333) rotate (-46.748946 0 0) scale (0.617828 1)"/>
  <path
  d=" M 0 0 10.0 0 C 14.0 -20.0 51.0 22.0 50.0 0  S 90.0 24.0 90.0 0 M 90.0 0 100 0" stroke="black" fill="transparent"
  transform="translate(607.666667 439.333333) rotate (68.698779 0 0) scale (0.779950 1)"/>
  <path
  d=" M 0 0 10.0 0 C 13.0 -22.0 66.0 24.0 50.0 0  S 90.0 29.0 90.0 0 M 90.0 0 100 0" stroke="black" fill="transparent"
  transform="translate(65.666667 264.333333) rotate (62.904448 0 0) scale (0.805019 1)"/>
  <path
  d=" M 0 0 10.0 0 C 12.0 -29.0 61.0 21.0 50.0 0  S 90.0 27.0 90.0 0 M 90.0 0 100 0" stroke="black" fill="transparent"
  transform="translate(102.333333 336.000000) rotate (-42.557585 0 0) scale (0.497784 1)"/>
  <path
  d=" M 0 0 10.0 0 C 14.0 -28.0 69.0 26.0 50.0 0  S 90.0 22.0 90.0 0 M 90.0 0 100 0" stroke="black" fill="transparent"
  transform="translate(65.666667 264.333333) rotate (-42.557585 0 0) scale (0.497784 1)"/>
  <path
  d=" M 0 0 10.0 0 C 29.0 -21.0 55.0 21.0 50.0 0  S 90.0 20.0 90.0 0 M 90.0 0 100 0" stroke="black" fill="transparent"
  transform="translate(899.333333 631.000000) rotate (61.016986 0 0) scale (0.777353 1)"/>
  <path
  d=" M 0 0 10.0 0 C 26.0 -29.0 66.0 26.0 50.0 0  S 90.0 25.0 90.0 0 M 90.0 0 100 0" stroke="black" fill="transparent"
  transform="translate(839.333333 600.333333) rotate (27.072080 0 0) scale (0.673828 1)"/>
  <path
  d=" M 0 0 10.0 0 C 11.0 -27.0 57.0 21.0 50.0 0  S 90.0 25.0 90.0 0 M 90.0 0 100 0" stroke="black" fill="transparent"
  transform="translate(807.000000 638.000000) rotate (-49.356975 0 0) scale (0.496409 1)"/>
  <path
  d=" M 0 0 10.0 0 C 18.0 -27.0 60.0 27.0 50.0 0  S 90.0 28.0 90.0 0 M 90.0 0 100 0" stroke="black" fill="transparent"
  transform="translate(807.000000 638.000000) rotate (69.496738 0 0) scale (0.846988 1)"/>
  <path
  d=" M 0 0 10.0 0 C 20.0 -20.0 56.0 27.0 50.0 0  S 90.0 27.0 90.0 0 M 90.0 0 100 0" stroke="black" fill="transparent"
  transform="translate(906.666667 747.666667) rotate (-58.065222 0 0) scale (0.573459 1)"/>
  <path
  d=" M 0 0 10.0 0 C 28.0 -27.0 67.0 21.0 50.0 0  S 90.0 26.0 90.0 0 M 90.0 0 100 0" stroke="black" fill="transparent"
  transform="translate(646.333333 335.333333) rotate (86.443819 0 0) scale (0.591138 1)"/>
  <path
  d=" M 0 0 10.0 0 C 18.0 -24.0 60.0 21.0 50.0 0  S 90.0 25.0 90.0 0 M 90.0 0 100 0" stroke="black" fill="transparent"
  transform="translate(720.333333 407.666667) rotate (-65.772255 0 0) scale (0.731057 1)"/>
  <path
  d=" M 0 0 10.0 0 C 13.0 -24.0 64.0 22.0 50.0 0  S 90.0 22.0 90.0 0 M 90.0 0 100 0" stroke="black" fill="transparent"
  transform="translate(719.000000 307.666667) rotate (46.771470 0 0) scale (0.457481 1)"/>
  <path
  d=" M 0 0 10.0 0 C 12.0 -22.0 54.0 25.0 50.0 0  S 90.0 23.0 90.0 0 M 90.0 0 100 0" stroke="black" fill="transparent"
  transform="translate(238.666667 556.333333) rotate (85.807806 0 0) scale (0.638375 1)"/>
  <path
  d=" M 0 0 10.0 0 C 23.0 -25.0 53.0 27.0 50.0 0  S 90.0 27.0 90.0 0 M 90.0 0 100 0" stroke="black" fill="transparent"
  transform="translate(204.000000 514.666667) rotate (50.239544 0 0) scale (0.542023 1)"/>
  <path
  d=" M 0 0 10.0 0 C 21.0 -24.0 56.0 23.0 50.0 0  S 90.0 29.0 90.0 0 M 90.0 0 100 0" stroke="black" fill="transparent"
  transform="translate(136.000000 514.333333) rotate (0.280859 0 0) scale (0.680008 1)"/>
  <path
  d=" M 0 0 10.0 0 C 13.0 -24.0 67.0 24.0 50.0 0  S 90.0 28.0 90.0 0 M 90.0 0 100 0" stroke="black" fill="transparent"
  transform="translate(91.000000 552.000000) rotate (-39.930580 0 0) scale (0.586837 1)"/>
  <path
  d=" M 0 0 10.0 0 C 15.0 -27.0 57.0 29.0 50.0 0  S 90.0 27.0 90.0 0 M 90.0 0 100 0" stroke="black" fill="transparent"
  transform="translate(90.666667 619.333333) rotate (41.155864 0 0) scale (0.597671 1)"/>
  <path
  d=" M 0 0 10.0 0 C 26.0 -22.0 60.0 26.0 50.0 0  S 90.0 26.0 90.0 0 M 90.0 0 100 0" stroke="black" fill="transparent"
  transform="translate(135.666667 658.666667) rotate (-2.614430 0 0) scale (0.730761 1)"/>
  <path
  d=" M 0 0 10.0 0 C 25.0 -22.0 57.0 29.0 50.0 0  S 90.0 24.0 90.0 0 M 90.0 0 100 0" stroke="black" fill="transparent"
  transform="translate(208.666667 655.333333) rotate (-45.545658 0 0) scale (0.494997 1)"/>
  <path
  d=" M 0 0 10.0 0 C 13.0 -22.0 69.0 25.0 50.0 0  S 90.0 23.0 90.0 0 M 90.0 0 100 0" stroke="black" fill="transparent"
  transform="translate(604.000000 553.666667) rotate (-52.475737 0 0) scale (0.525368 1)"/>
  <path
  d=" M 0 0 10.0 0 C 15.0 -20.0 52.0 28.0 50.0 0  S 90.0 22.0 90.0 0 M 90.0 0 100 0" stroke="black" fill="transparent"
  transform="translate(604.000000 553.666667) rotate (63.189046 0 0) scale (0.694678 1)"/>
  <path
  d=" M 0 0 10.0 0 C 16.0 -25.0 58.0 29.0 50.0 0  S 90.0 21.0 90.0 0 M 90.0 0 100 0" stroke="black" fill="transparent"
  transform="translate(635.333333 615.666667) rotate (-11.063501 0 0) scale (0.607966 1)"/>
  <path
  d=" M 0 0 10.0 0 C 22.0 -24.0 65.0 26.0 50.0 0  S 90.0 21.0 90.0 0 M 90.0 0 100 0" stroke="black" fill="transparent"
  transform="translate(695.000000 604.000000) rotate (-80.716447 0 0) scale (0.702535 1)"/>
  <path
  d=" M 0 0 10.0 0 C 28.0 -26.0 63.0 26.0 50.0 0  S 90.0 27.0 90.0 0 M 90.0 0 100 0" stroke="black" fill="transparent"
  transform="translate(589.000000 843.333333) rotate (-52.471559 0 0) scale (0.580038 1)"/>
  <path
  d=" M 0 0 10.0 0 C 29.0 -29.0 68.0 24.0 50.0 0  S 90.0 29.0 90.0 0 M 90.0 0 100 0" stroke="black" fill="transparent"
  transform="translate(594.666667 732.666667) rotate (65.356100 0 0) scale (0.711470 1)"/>
  <path
  d=" M 0 0 10.0 0 C 29.0 -24.0 69.0 23.0 50.0 0  S 90.0 27.0 90.0 0 M 90.0 0 100 0" stroke="black" fill="transparent"
  transform="translate(531.666667 736.333333) rotate (-3.330917 0 0) scale (0.631066 1)"/>
  <path
  d=" M 0 0 10.0 0 C 21.0 -28.0 55.0 28.0 50.0 0  S 90.0 28.0 90.0 0 M 90.0 0 100 0" stroke="black" fill="transparent"
  transform="translate(507.333333 799.666667) rotate (-68.982699 0 0) scale (0.678471 1)"/>
  <path
  d=" M 0 0 10.0 0 C 28.0 -21.0 61.0 26.0 50.0 0  S 90.0 24.0 90.0 0 M 90.0 0 100 0" stroke="black" fill="transparent"
  transform="translate(507.333333 799.666667) rotate (56.833645 0 0) scale (0.505723 1)"/>
  <path
  d=" M 0 0 10.0 0 C 24.0 -25.0 63.0 24.0 50.0 0  S 90.0 20.0 90.0 0 M 90.0 0 100 0" stroke="black" fill="transparent"
  transform="translate(535.000000 842.000000) rotate (1.414423 0 0) scale (0.540165 1)"/>
  <path
  d=" M 0 0 10.0 0 C 23.0 -21.0 68.0 27.0 50.0 0  S 90.0 21.0 90.0 0 M 90.0 0 100 0" stroke="black" fill="transparent"
  transform="translate(109.333333 843.000000) rotate (-34.003727 0 0) scale (0.506634 1)"/>
  <path
  d=" M 0 0 10.0 0 C 20.0 -25.0 51.0 29.0 50.0 0  S 90.0 27.0 90.0 0 M 90.0 0 100 0" stroke="black" fill="transparent"
  transform="translate(151.333333 814.666667) rotate (21.630887 0 0) scale (0.623939 1)"/>
  <path
  d=" M 0 0 10.0 0 C 26.0 -20.0 58.0 29.0 50.0 0  S 90.0 26.0 90.0 0 M 90.0 0 100 0" stroke="black" fill="transparent"
  transform="translate(209.333333 837.666667) rotate (64.523574 0 0) scale (0.627703 1)"/>
  <path
  d=" M 0 0 10.0 0 C 12.0 -22.0 58.0 29.0 50.0 0  S 90.0 21.0 90.0 0 M 90.0 0 100 0" stroke="black" fill="transparent"
  transform="translate(204.666667 937.666667) rotate (-53.841815 0 0) scale (0.536708 1)"/>
  <path
  d=" M 0 0 10.0 0 C 12.0 -21.0 53.0 22.0 50.0 0  S 90.0 21.0 90.0 0 M 90.0 0 100 0" stroke="black" fill="transparent"
  transform="translate(135.666667 909.333333) rotate (22.324427 0 0) scale (0.745907 1)"/>
  <path
  d=" M 0 0 10.0 0 C 13.0 -25.0 55.0 20.0 50.0 0  S 90.0 28.0 90.0 0 M 90.0 0 100 0" stroke="black" fill="transparent"
  transform="translate(109.333333 843.000000) rotate (68.347669 0 0) scale (0.713691 1)"/>
  <path
  d=" M 0 0 10.0 0 C 24.0 -28.0 69.0 27.0 50.0 0  S 90.0 20.0 90.0 0 M 90.0 0 100 0" stroke="black" fill="transparent"
  transform="translate(792.333333 856.666667) rotate (87.833085 0 0) scale (0.617108 1)"/>
  <path
  d=" M 0 0 10.0 0 C 27.0 -26.0 58.0 25.0 50.0 0  S 90.0 26.0 90.0 0 M 90.0 0 100 0" stroke="black" fill="transparent"
  transform="translate(794.666667 918.333333) rotate (39.390726 0 0) scale (0.530513 1)"/>
  <path
  d=" M 0 0 10.0 0 C 14.0 -25.0 67.0 29.0 50.0 0  S 90.0 27.0 90.0 0 M 90.0 0 100 0" stroke="black" fill="transparent"
  transform="translate(835.666667 952.000000) rotate (5.710593 0 0) scale (0.636492 1)"/>
  <path
  d=" M 0 0 10.0 0 C 12.0 -20.0 53.0 25.0 50.0 0  S 90.0 23.0 90.0 0 M 90.0 0 100 0" stroke="black" fill="transparent"
  transform="translate(899.000000 958.333333) rotate (-42.466441 0 0) scale (0.533208 1)"/>
  <path
  d=" M 0 0 10.0 0 C 18.0 -26.0 64.0 22.0 50.0 0  S 90.0 21.0 90.0 0 M 90.0 0 100 0" stroke="black" fill="transparent"
  transform="translate(904.333333 858.000000) rotate (62.143664 0 0) scale (0.727652 1)"/>
  <path
  d=" M 0 0 10.0 0 C 19.0 -26.0 61.0 23.0 50.0 0  S 90.0 29.0 90.0 0 M 90.0 0 100 0" stroke="black" fill="transparent"
  transform="translate(792.333333 856.666667) rotate (-36.950938 0 0) scale (0.471334 1)"/>
  <path
  d=" M 0 0 10.0 0 C 26.0 -27.0 65.0 25.0 50.0 0  S 90.0 22.0 90.0 0 M 90.0 0 100 0" stroke="black" fill="transparent"
  transform="translate(597.333333 937.333333) rotate (19.942385 0 0) scale (0.801388 1)"/>
  <path
  d=" M 0 0 10.0 0 C 16.0 -26.0 65.0 22.0 50.0 0  S 90.0 27.0 90.0 0 M 90.0 0 100 0" stroke="black" fill="transparent"
  transform="translate(672.666667 964.666667) rotate (-22.047947 0 0) scale (0.719267 1)"/>
  <path
  d=" M 0 0 10.0 0 C 25.0 -27.0 67.0 22.0 50.0 0  S 90.0 27.0 90.0 0 M 90.0 0 100 0" stroke="black" fill="transparent"
  transform="translate(698.666667 899.333333) rotate (43.308211 0 0) scale (0.558858 1)"/>
  <path
  d=" M 0 0 10.0 0 C 27.0 -26.0 62.0 29.0 50.0 0  S 90.0 22.0 90.0 0 M 90.0 0 100 0" stroke="black" fill="transparent"
  transform="translate(631.666667 901.666667) rotate (-1.994569 0 0) scale (0.670406 1)"/>
  <path
  d=" M 0 0 10.0 0 C 25.0 -24.0 59.0 25.0 50.0 0  S 90.0 23.0 90.0 0 M 90.0 0 100 0" stroke="black" fill="transparent"
  transform="translate(597.333333 937.333333) rotate (-46.091216 0 0) scale (0.495065 1)"/>
  <path
  d=" M 0 0 10.0 0 C 29.0 -28.0 57.0 22.0 50.0 0  S 90.0 22.0 90.0 0 M 90.0 0 100 0" stroke="black" fill="transparent"
  transform="translate(136.333333 437.666667) rotate (-34.724642 0 0) scale (0.819241 1)"/>
  <path
  d=" M 0 0 10.0 0 C 22.0 -26.0 63.0 22.0 50.0 0  S 90.0 27.0 90.0 0 M 90.0 0 100 0" stroke="black" fill="transparent"
  transform="translate(136.000000 514.333333) rotate (-89.750889 0 0) scale (0.766674 1)"/>
  <path
  d=" M 0 0 10.0 0 C 15.0 -22.0 68.0 24.0 50.0 0  S 90.0 25.0 90.0 0 M 90.0 0 100 0" stroke="black" fill="transparent"
  transform="translate(204.000000 514.666667) rotate (-68.851971 0 0) scale (0.868492 1)"/>
  <path
  d=" M 0 0 10.0 0 C 28.0 -21.0 60.0 22.0 50.0 0  S 90.0 29.0 90.0 0 M 90.0 0 100 0" stroke="black" fill="transparent"
  transform="translate(528.666667 160.000000) rotate (86.780505 0 0) scale (0.534176 1)"/>
  <path
  d=" M 0 0 10.0 0 C 13.0 -29.0 70.0 20.0 50.0 0  S 90.0 20.0 90.0 0 M 90.0 0 100 0" stroke="black" fill="transparent"
  transform="translate(528.666667 160.000000) rotate (-23.459024 0 0) scale (0.770339 1)"/>
  <path
  d=" M 0 0 10.0 0 C 11.0 -21.0 64.0 24.0 50.0 0  S 90.0 22.0 90.0 0 M 90.0 0 100 0" stroke="black" fill="transparent"
  transform="translate(599.333333 129.333333) rotate (27.287988 0 0) scale (0.472593 1)"/>
  <path
  d=" M 0 0 10.0 0 C 11.0 -23.0 53.0 27.0 50.0 0  S 90.0 22.0 90.0 0 M 90.0 0 100 0" stroke="black" fill="transparent"
  transform="translate(641.333333 151.000000) rotate (84.857235 0 0) scale (0.669361 1)"/>
  <path
  d=" M 0 0 10.0 0 C 17.0 -24.0 63.0 21.0 50.0 0  S 90.0 26.0 90.0 0 M 90.0 0 100 0" stroke="black" fill="transparent"
  transform="translate(531.666667 213.333333) rotate (25.153117 0 0) scale (0.846982 1)"/>
  <path
  d=" M 0 0 10.0 0 C 24.0 -25.0 60.0 23.0 50.0 0  S 90.0 26.0 90.0 0 M 90.0 0 100 0" stroke="black" fill="transparent"
  transform="translate(151.333333 814.666667) rotate (-82.554675 0 0) scale (0.591655 1)"/>
  <path
  d=" M 0 0 10.0 0 C 30.0 -24.0 62.0 26.0 50.0 0  S 90.0 23.0 90.0 0 M 90.0 0 100 0" stroke="black" fill="transparent"
  transform="translate(111.000000 722.666667) rotate (34.777831 0 0) scale (0.584390 1)"/>
  <path
  d=" M 0 0 10.0 0 C 18.0 -22.0 61.0 28.0 50.0 0  S 90.0 28.0 90.0 0 M 90.0 0 100 0" stroke="black" fill="transparent"
  transform="translate(72.666667 788.666667) rotate (-59.851634 0 0) scale (0.763246 1)"/>
  <path
  d=" M 0 0 10.0 0 C 22.0 -21.0 66.0 24.0 50.0 0  S 90.0 25.0 90.0 0 M 90.0 0 100 0" stroke="black" fill="transparent"
  transform="translate(72.666667 788.666667) rotate (55.986688 0 0) scale (0.655481 1)"/>
  <path
  d=" M 0 0 10.0 0 C 24.0 -24.0 56.0 25.0 50.0 0  S 90.0 20.0 90.0 0 M 90.0 0 100 0" stroke="black" fill="transparent"
  transform="translate(306.000000 247.666667) rotate (-51.050236 0 0) scale (0.514339 1)"/>
  <path
  d=" M 0 0 10.0 0 C 12.0 -26.0 56.0 28.0 50.0 0  S 90.0 25.0 90.0 0 M 90.0 0 100 0" stroke="black" fill="transparent"
  transform="translate(306.000000 247.666667) rotate (57.177984 0 0) scale (0.793312 1)"/>
  <path
  d=" M 0 0 10.0 0 C 16.0 -28.0 63.0 28.0 50.0 0  S 90.0 23.0 90.0 0 M 90.0 0 100 0" stroke="black" fill="transparent"
  transform="translate(412.666667 313.666667) rotate (-72.446455 0 0) scale (0.685241 1)"/>
  <path
  d=" M 0 0 10.0 0 C 27.0 -25.0 51.0 29.0 50.0 0  S 90.0 21.0 90.0 0 M 90.0 0 100 0" stroke="black" fill="transparent"
  transform="translate(402.000000 209.000000) rotate (51.458816 0 0) scale (0.502881 1)"/>
  <path
  d=" M 0 0 10.0 0 C 12.0 -29.0 61.0 24.0 50.0 0  S 90.0 24.0 90.0 0 M 90.0 0 100 0" stroke="black" fill="transparent"
  transform="translate(338.333333 207.666667) rotate (1.199736 0 0) scale (0.636806 1)"/>
  <path
  d=" M 0 0 10.0 0 C 16.0 -24.0 57.0 20.0 50.0 0  S 90.0 24.0 90.0 0 M 90.0 0 100 0" stroke="black" fill="transparent"
  transform="translate(695.000000 604.000000) rotate (45.000000 0 0) scale (0.570399 1)"/>
  <path
  d=" M 0 0 10.0 0 C 25.0 -20.0 59.0 21.0 50.0 0  S 90.0 29.0 90.0 0 M 90.0 0 100 0" stroke="black" fill="transparent"
  transform="translate(752.000000 506.333333) rotate (31.917009 0 0) scale (0.687233 1)"/>
  <path
  d=" M 0 0 10.0 0 C 17.0 -24.0 65.0 22.0 50.0 0  S 90.0 20.0 90.0 0 M 90.0 0 100 0" stroke="black" fill="transparent"
  transform="translate(810.333333 542.666667) rotate (63.302626 0 0) scale (0.645480 1)"/>
  <path
  d=" M 0 0 10.0 0 C 28.0 -29.0 66.0 24.0 50.0 0  S 90.0 21.0 90.0 0 M 90.0 0 100 0" stroke="black" fill="transparent"
  transform="translate(735.333333 644.333333) rotate (-5.050228 0 0) scale (0.719460 1)"/>
  <path
  d=" M 0 0 10.0 0 C 29.0 -29.0 63.0 29.0 50.0 0  S 90.0 25.0 90.0 0 M 90.0 0 100 0" stroke="black" fill="transparent"
  transform="translate(506.333333 442.000000) rotate (89.409343 0 0) scale (0.646701 1)"/>
  <path
  d=" M 0 0 10.0 0 C 13.0 -21.0 55.0 22.0 50.0 0  S 90.0 29.0 90.0 0 M 90.0 0 100 0" stroke="black" fill="transparent"
  transform="translate(415.000000 438.000000) rotate (86.933514 0 0) scale (0.560803 1)"/>
  <path
  d=" M 0 0 10.0 0 C 22.0 -25.0 69.0 22.0 50.0 0  S 90.0 23.0 90.0 0 M 90.0 0 100 0" stroke="black" fill="transparent"
  transform="translate(418.000000 494.000000) rotate (43.246595 0 0) scale (0.462193 1)"/>
  <path
  d=" M 0 0 10.0 0 C 19.0 -24.0 64.0 25.0 50.0 0  S 90.0 23.0 90.0 0 M 90.0 0 100 0" stroke="black" fill="transparent"
  transform="translate(551.333333 553.666667) rotate (0.000000 0 0) scale (0.526667 1)"/>
  <path
  d=" M 0 0 10.0 0 C 21.0 -23.0 62.0 21.0 50.0 0  S 90.0 29.0 90.0 0 M 90.0 0 100 0" stroke="black" fill="transparent"
  transform="translate(540.000000 408.333333) rotate (24.613845 0 0) scale (0.744297 1)"/>
  <path
  d=" M 0 0 10.0 0 C 17.0 -20.0 52.0 28.0 50.0 0  S 90.0 28.0 90.0 0 M 90.0 0 100 0" stroke="black" fill="transparent"
  transform="translate(463.000000 978.000000) rotate (0.375705 0 0) scale (1.016689 1)"/>
  <path
  d=" M 0 0 10.0 0 C 12.0 -28.0 64.0 24.0 50.0 0  S 90.0 29.0 90.0 0 M 90.0 0 100 0" stroke="black" fill="transparent"
  transform="translate(407.333333 947.000000) rotate (29.112831 0 0) scale (0.637164 1)"/>
  <path
  d=" M 0 0 10.0 0 C 17.0 -28.0 61.0 22.0 50.0 0  S 90.0 24.0 90.0 0 M 90.0 0 100 0" stroke="black" fill="transparent"
  transform="translate(343.333333 945.333333) rotate (1.491740 0 0) scale (0.640217 1)"/>
  <path
  d=" M 0 0 10.0 0 C 11.0 -27.0 58.0 22.0 50.0 0  S 90.0 23.0 90.0 0 M 90.0 0 100 0" stroke="black" fill="transparent"
  transform="translate(271.333333 984.000000) rotate (-28.237446 0 0) scale (0.817258 1)"/>
  <path
  d=" M 0 0 10.0 0 C 26.0 -25.0 54.0 24.0 50.0 0  S 90.0 26.0 90.0 0 M 90.0 0 100 0" stroke="black" fill="transparent"
  transform="translate(205.000000 995.000000) rotate (-9.415626 0 0) scale (0.672392 1)"/>
  <path
  d=" M 0 0 10.0 0 C 15.0 -29.0 52.0 28.0 50.0 0  S 90.0 24.0 90.0 0 M 90.0 0 100 0" stroke="black" fill="transparent"
  transform="translate(205.000000 995.000000) rotate (-2.600154 0 0) scale (3.600373 1)"/>
  <path
  d=" M 0 0 10.0 0 C 17.0 -28.0 65.0 22.0 50.0 0  S 90.0 22.0 90.0 0 M 90.0 0 100 0" stroke="black" fill="transparent"
  transform="translate(739.333333 937.666667) rotate (-19.259292 0 0) scale (0.586136 1)"/>
  <path
  d=" M 0 0 10.0 0 C 22.0 -21.0 53.0 28.0 50.0 0  S 90.0 24.0 90.0 0 M 90.0 0 100 0" stroke="black" fill="transparent"
  transform="translate(698.666667 899.333333) rotate (-64.259292 0 0) scale (0.621691 1)"/>
  <path
  d=" M 0 0 10.0 0 C 14.0 -20.0 68.0 23.0 50.0 0  S 90.0 29.0 90.0 0 M 90.0 0 100 0" stroke="black" fill="transparent"
  transform="translate(725.666667 843.333333) rotate (11.309932 0 0) scale (0.679869 1)"/>
  <path
  d=" M 0 0 10.0 0 C 16.0 -23.0 51.0 24.0 50.0 0  S 90.0 23.0 90.0 0 M 90.0 0 100 0" stroke="black" fill="transparent"
  transform="translate(348.333333 838.333333) rotate (-1.000698 0 0) scale (0.763450 1)"/>
  <path
  d=" M 0 0 10.0 0 C 21.0 -24.0 69.0 23.0 50.0 0  S 90.0 25.0 90.0 0 M 90.0 0 100 0" stroke="black" fill="transparent"
  transform="translate(309.666667 898.666667) rotate (-57.344840 0 0) scale (0.716605 1)"/>
  <path
  d=" M 0 0 10.0 0 C 21.0 -28.0 61.0 22.0 50.0 0  S 90.0 28.0 90.0 0 M 90.0 0 100 0" stroke="black" fill="transparent"
  transform="translate(309.666667 898.666667) rotate (54.192243 0 0) scale (0.575432 1)"/>
  <path
  d=" M 0 0 10.0 0 C 14.0 -21.0 56.0 26.0 50.0 0  S 90.0 29.0 90.0 0 M 90.0 0 100 0" stroke="black" fill="transparent"
  transform="translate(407.333333 947.000000) rotate (-48.366461 0 0) scale (0.642218 1)"/>
  <path
  d=" M 0 0 10.0 0 C 19.0 -28.0 67.0 24.0 50.0 0  S 90.0 24.0 90.0 0 M 90.0 0 100 0" stroke="black" fill="transparent"
  transform="translate(424.666667 837.000000) rotate (67.774970 0 0) scale (0.669759 1)"/>
  <path
  d=" M 0 0 10.0 0 C 16.0 -23.0 66.0 25.0 50.0 0  S 90.0 23.0 90.0 0 M 90.0 0 100 0" stroke="black" fill="transparent"
  transform="translate(937.000000 699.000000) rotate (-37.678092 0 0) scale (0.425376 1)"/>
  <path
  d=" M 0 0 10.0 0 C 26.0 -24.0 67.0 23.0 50.0 0  S 90.0 20.0 90.0 0 M 90.0 0 100 0" stroke="black" fill="transparent"
  transform="translate(946.333333 820.000000) rotate (-68.875281 0 0) scale (1.100631 1)"/>
  <path
  d=" M 0 0 10.0 0 C 14.0 -24.0 69.0 26.0 50.0 0  S 90.0 21.0 90.0 0 M 90.0 0 100 0" stroke="black" fill="transparent"
  transform="translate(980.000000 619.000000) rotate (86.508315 0 0) scale (0.985162 1)"/>
  <path
  d=" M 0 0 10.0 0 C 28.0 -26.0 59.0 21.0 50.0 0  S 90.0 27.0 90.0 0 M 90.0 0 100 0" stroke="black" fill="transparent"
  transform="translate(970.666667 673.000000) rotate (-80.193907 0 0) scale (0.548006 1)"/>
  <path
  d=" M 0 0 10.0 0 C 26.0 -25.0 63.0 24.0 50.0 0  S 90.0 29.0 90.0 0 M 90.0 0 100 0" stroke="black" fill="transparent"
  transform="translate(551.666667 610.666667) rotate (32.648441 0 0) scale (0.661127 1)"/>
  <path
  d=" M 0 0 10.0 0 C 15.0 -23.0 59.0 21.0 50.0 0  S 90.0 23.0 90.0 0 M 90.0 0 100 0" stroke="black" fill="transparent"
  transform="translate(607.333333 646.333333) rotate (-47.602562 0 0) scale (0.415264 1)"/>
  <path
  d=" M 0 0 10.0 0 C 25.0 -27.0 70.0 22.0 50.0 0  S 90.0 21.0 90.0 0 M 90.0 0 100 0" stroke="black" fill="transparent"
  transform="translate(242.333333 119.333333) rotate (-1.301953 0 0) scale (0.586818 1)"/>
  <path
  d=" M 0 0 10.0 0 C 23.0 -24.0 55.0 23.0 50.0 0  S 90.0 23.0 90.0 0 M 90.0 0 100 0" stroke="black" fill="transparent"
  transform="translate(178.666667 75.333333) rotate (34.648331 0 0) scale (0.773915 1)"/>
  <path
  d=" M 0 0 10.0 0 C 25.0 -20.0 62.0 21.0 50.0 0  S 90.0 21.0 90.0 0 M 90.0 0 100 0" stroke="black" fill="transparent"
  transform="translate(178.666667 75.333333) rotate (19.227436 0 0) scale (1.295604 1)"/>
  <path
  d=" M 0 0 10.0 0 C 11.0 -20.0 61.0 27.0 50.0 0  S 90.0 26.0 90.0 0 M 90.0 0 100 0" stroke="black" fill="transparent"
  transform="translate(424.666667 837.000000) rotate (-52.457055 0 0) scale (0.454031 1)"/>
  <path
  d=" M 0 0 10.0 0 C 18.0 -29.0 60.0 27.0 50.0 0  S 90.0 23.0 90.0 0 M 90.0 0 100 0" stroke="black" fill="transparent"
  transform="translate(438.333333 740.666667) rotate (76.936046 0 0) scale (0.619363 1)"/>
  <path
  d=" M 0 0 10.0 0 C 29.0 -26.0 61.0 29.0 50.0 0  S 90.0 27.0 90.0 0 M 90.0 0 100 0" stroke="black" fill="transparent"
  transform="translate(402.666667 715.333333) rotate (35.385431 0 0) scale (0.437480 1)"/>
  <path
  d=" M 0 0 10.0 0 C 30.0 -22.0 68.0 21.0 50.0 0  S 90.0 25.0 90.0 0 M 90.0 0 100 0" stroke="black" fill="transparent"
  transform="translate(342.666667 748.000000) rotate (-28.565837 0 0) scale (0.683163 1)"/>
  <path
  d=" M 0 0 10.0 0 C 11.0 -23.0 62.0 26.0 50.0 0  S 90.0 29.0 90.0 0 M 90.0 0 100 0" stroke="black" fill="transparent"
  transform="translate(310.333333 804.666667) rotate (-60.291428 0 0) scale (0.652423 1)"/>
  <path
  d=" M 0 0 10.0 0 C 18.0 -24.0 60.0 27.0 50.0 0  S 90.0 28.0 90.0 0 M 90.0 0 100 0" stroke="black" fill="transparent"
  transform="translate(310.333333 804.666667) rotate (41.539817 0 0) scale (0.507685 1)"/>
  <path
  d=" M 0 0 10.0 0 C 23.0 -23.0 58.0 27.0 50.0 0  S 90.0 22.0 90.0 0 M 90.0 0 100 0" stroke="black" fill="transparent"
  transform="translate(914.000000 511.333333) rotate (54.462322 0 0) scale (0.487465 1)"/>
  <path
  d=" M 0 0 10.0 0 C 30.0 -29.0 58.0 24.0 50.0 0  S 90.0 23.0 90.0 0 M 90.0 0 100 0" stroke="black" fill="transparent"
  transform="translate(914.000000 511.333333) rotate (-56.171704 0 0) scale (0.766413 1)"/>
  <path
  d=" M 0 0 10.0 0 C 19.0 -24.0 62.0 22.0 50.0 0  S 90.0 25.0 90.0 0 M 90.0 0 100 0" stroke="black" fill="transparent"
  transform="translate(942.333333 551.000000) rotate (-82.102911 0 0) scale (1.043227 1)"/>
  <path
  d=" M 0 0 10.0 0 C 11.0 -26.0 67.0 25.0 50.0 0  S 90.0 26.0 90.0 0 M 90.0 0 100 0" stroke="black" fill="transparent"
  transform="translate(208.666667 655.333333) rotate (58.410874 0 0) scale (0.680890 1)"/>
  <path
  d=" M 0 0 10.0 0 C 30.0 -26.0 67.0 23.0 50.0 0  S 90.0 25.0 90.0 0 M 90.0 0 100 0" stroke="black" fill="transparent"
  transform="translate(244.333333 713.333333) rotate (1.655487 0 0) scale (0.576907 1)"/>
  <path
  d=" M 0 0 10.0 0 C 27.0 -22.0 64.0 24.0 50.0 0  S 90.0 25.0 90.0 0 M 90.0 0 100 0" stroke="black" fill="transparent"
  transform="translate(302.000000 715.000000) rotate (-83.821935 0 0) scale (0.650444 1)"/>
  <path
  d=" M 0 0 10.0 0 C 17.0 -24.0 55.0 21.0 50.0 0  S 90.0 24.0 90.0 0 M 90.0 0 100 0" stroke="black" fill="transparent"
  transform="translate(243.333333 620.000000) rotate (24.793581 0 0) scale (0.723341 1)"/>
  <path
  d=" M 0 0 10.0 0 C 30.0 -28.0 68.0 27.0 50.0 0  S 90.0 21.0 90.0 0 M 90.0 0 100 0" stroke="black" fill="transparent"
  transform="translate(564.666667 978.666667) rotate (-7.386043 0 0) scale (1.089036 1)"/>
  <path
  d=" M 0 0 10.0 0 C 12.0 -29.0 67.0 25.0 50.0 0  S 90.0 29.0 90.0 0 M 90.0 0 100 0" stroke="black" fill="transparent"
  transform="translate(564.666667 978.666667) rotate (-5.619869 0 0) scale (2.723089 1)"/>
  <path
  d=" M 0 0 10.0 0 C 28.0 -21.0 58.0 23.0 50.0 0  S 90.0 27.0 90.0 0 M 90.0 0 100 0" stroke="black" fill="transparent"
  transform="translate(848.333333 510.000000) rotate (1.163206 0 0) scale (0.656802 1)"/>
  <path
  d=" M 0 0 10.0 0 C 16.0 -21.0 59.0 20.0 50.0 0  S 90.0 21.0 90.0 0 M 90.0 0 100 0" stroke="black" fill="transparent"
  transform="translate(810.333333 542.666667) rotate (-40.683972 0 0) scale (0.501110 1)"/>
  <path
  d=" M 0 0 10.0 0 C 28.0 -22.0 54.0 21.0 50.0 0  S 90.0 22.0 90.0 0 M 90.0 0 100 0" stroke="black" fill="transparent"
  transform="translate(899.333333 631.000000) rotate (-37.678092 0 0) scale (0.425376 1)"/>
  <path
  d=" M 0 0 10.0 0 C 29.0 -20.0 56.0 23.0 50.0 0  S 90.0 27.0 90.0 0 M 90.0 0 100 0" stroke="black" fill="transparent"
  transform="translate(933.000000 605.000000) rotate (-80.193907 0 0) scale (0.548006 1)"/>
  <path
  d=" M 0 0 10.0 0 C 11.0 -23.0 70.0 26.0 50.0 0  S 90.0 26.0 90.0 0 M 90.0 0 100 0" stroke="black" fill="transparent"
  transform="translate(938.333333 922.333333) rotate (-76.910162 0 0) scale (2.104688 1)"/>
  <path
  d=" M 0 0 10.0 0 C 14.0 -24.0 55.0 26.0 50.0 0  S 90.0 24.0 90.0 0 M 90.0 0 100 0" stroke="black" fill="transparent"
  transform="translate(706.333333 207.666667) rotate (-65.472280 0 0) scale (0.754777 1)"/>
  <path
  d=" M 0 0 10.0 0 C 30.0 -29.0 52.0 23.0 50.0 0  S 90.0 28.0 90.0 0 M 90.0 0 100 0" stroke="black" fill="transparent"
  transform="translate(706.333333 114.666667) rotate (37.832761 0 0) scale (0.396723 1)"/>
  <path
  d=" M 0 0 10.0 0 C 23.0 -29.0 64.0 22.0 50.0 0  S 90.0 21.0 90.0 0 M 90.0 0 100 0" stroke="black" fill="transparent"
  transform="translate(641.333333 151.000000) rotate (-29.204071 0 0) scale (0.744655 1)"/>
  <path
  d=" M 0 0 10.0 0 C 19.0 -21.0 55.0 24.0 50.0 0  S 90.0 22.0 90.0 0 M 90.0 0 100 0" stroke="black" fill="transparent"
  transform="translate(837.666667 110.333333) rotate (-52.726618 0 0) scale (0.473345 1)"/>
  <path
  d=" M 0 0 10.0 0 C 13.0 -21.0 59.0 29.0 50.0 0  S 90.0 28.0 90.0 0 M 90.0 0 100 0" stroke="black" fill="transparent"
  transform="translate(525.000000 942.333333) rotate (-3.954248 0 0) scale (0.725059 1)"/>
  <path
  d=" M 0 0 10.0 0 C 21.0 -29.0 66.0 20.0 50.0 0  S 90.0 20.0 90.0 0 M 90.0 0 100 0" stroke="black" fill="transparent"
  transform="translate(463.000000 978.000000) rotate (-29.910476 0 0) scale (0.715270 1)"/>
  <path
  d=" M 0 0 10.0 0 C 12.0 -23.0 66.0 22.0 50.0 0  S 90.0 27.0 90.0 0 M 90.0 0 100 0" stroke="black" fill="transparent"
  transform="translate(93.000000 404.000000) rotate (-82.184706 0 0) scale (0.686375 1)"/>
  <path
  d=" M 0 0 10.0 0 C 12.0 -22.0 52.0 20.0 50.0 0  S 90.0 25.0 90.0 0 M 90.0 0 100 0" stroke="black" fill="transparent"
  transform="translate(93.000000 404.000000) rotate (37.844458 0 0) scale (0.548746 1)"/>
  <path
  d=" M 0 0 10.0 0 C 14.0 -29.0 59.0 21.0 50.0 0  S 90.0 29.0 90.0 0 M 90.0 0 100 0" stroke="black" fill="transparent"
  transform="translate(505.333333 905.333333) rotate (-64.900619 0 0) scale (0.699373 1)"/>
  <path
  d=" M 0 0 10.0 0 C 14.0 -24.0 60.0 29.0 50.0 0  S 90.0 27.0 90.0 0 M 90.0 0 100 0" stroke="black" fill="transparent"
  transform="translate(505.333333 905.333333) rotate (62.007947 0 0) scale (0.419020 1)"/>
  <path
  d=" M 0 0 10.0 0 C 25.0 -20.0 53.0 27.0 50.0 0  S 90.0 20.0 90.0 0 M 90.0 0 100 0" stroke="black" fill="transparent"
  transform="translate(589.000000 843.333333) rotate (53.817196 0 0) scale (0.722719 1)"/>
  <path
  d=" M 0 0 10.0 0 C 29.0 -25.0 70.0 28.0 50.0 0  S 90.0 22.0 90.0 0 M 90.0 0 100 0" stroke="black" fill="transparent"
  transform="translate(949.000000 251.333333) rotate (-71.637303 0 0) scale (0.835896 1)"/>
  <path
  d=" M 0 0 10.0 0 C 17.0 -25.0 55.0 24.0 50.0 0  S 90.0 20.0 90.0 0 M 90.0 0 100 0" stroke="black" fill="transparent"
  transform="translate(949.000000 251.333333) rotate (82.349349 0 0) scale (0.676018 1)"/>
  <path
  d=" M 0 0 10.0 0 C 14.0 -21.0 68.0 22.0 50.0 0  S 90.0 28.0 90.0 0 M 90.0 0 100 0" stroke="black" fill="transparent"
  transform="translate(958.000000 318.333333) rotate (-83.244732 0 0) scale (1.473563 1)"/>
  <path
  d=" M 0 0 10.0 0 C 13.0 -29.0 61.0 28.0 50.0 0  S 90.0 21.0 90.0 0 M 90.0 0 100 0" stroke="black" fill="transparent"
  transform="translate(933.000000 605.000000) rotate (61.016986 0 0) scale (0.777353 1)"/>
  <path
  d=" M 0 0 10.0 0 C 30.0 -24.0 60.0 23.0 50.0 0  S 90.0 28.0 90.0 0 M 90.0 0 100 0" stroke="black" fill="transparent"
  transform="translate(433.333333 248.333333) rotate (-4.619923 0 0) scale (0.662151 1)"/>
  <path
  d=" M 0 0 10.0 0 C 24.0 -21.0 65.0 25.0 50.0 0  S 90.0 29.0 90.0 0 M 90.0 0 100 0" stroke="black" fill="transparent"
  transform="translate(513.000000 339.333333) rotate (-59.245606 0 0) scale (0.469338 1)"/>
  <path
  d=" M 0 0 10.0 0 C 18.0 -28.0 70.0 27.0 50.0 0  S 90.0 23.0 90.0 0 M 90.0 0 100 0" stroke="black" fill="transparent"
  transform="translate(499.333333 243.000000) rotate (56.074472 0 0) scale (0.674891 1)"/>
  <path
  d=" M 0 0 10.0 0 C 19.0 -22.0 57.0 27.0 50.0 0  S 90.0 25.0 90.0 0 M 90.0 0 100 0" stroke="black" fill="transparent"
  transform="translate(244.666667 808.333333) rotate (-3.195938 0 0) scale (0.657690 1)"/>
  <path
  d=" M 0 0 10.0 0 C 30.0 -24.0 58.0 26.0 50.0 0  S 90.0 29.0 90.0 0 M 90.0 0 100 0" stroke="black" fill="transparent"
  transform="translate(219.333333 750.000000) rotate (66.525382 0 0) scale (0.635968 1)"/>
  <path
  d=" M 0 0 10.0 0 C 30.0 -20.0 63.0 23.0 50.0 0  S 90.0 25.0 90.0 0 M 90.0 0 100 0" stroke="black" fill="transparent"
  transform="translate(219.333333 750.000000) rotate (-55.713123 0 0) scale (0.443784 1)"/>
  <path
  d=" M 0 0 10.0 0 C 27.0 -29.0 66.0 22.0 50.0 0  S 90.0 27.0 90.0 0 M 90.0 0 100 0" stroke="black" fill="transparent"
  transform="translate(302.000000 715.000000) rotate (39.058480 0 0) scale (0.523715 1)"/>
  <path
  d=" M 0 0 10.0 0 C 18.0 -20.0 57.0 26.0 50.0 0  S 90.0 25.0 90.0 0 M 90.0 0 100 0" stroke="black" fill="transparent"
  transform="translate(499.333333 243.000000) rotate (-42.537183 0 0) scale (0.438812 1)"/>
  <path
  d=" M 0 0 10.0 0 C 21.0 -29.0 57.0 22.0 50.0 0  S 90.0 27.0 90.0 0 M 90.0 0 100 0" stroke="black" fill="transparent"
  transform="translate(537.000000 299.000000) rotate (2.313722 0 0) scale (0.660539 1)"/>
  <path
  d=" M 0 0 10.0 0 C 23.0 -26.0 70.0 20.0 50.0 0  S 90.0 25.0 90.0 0 M 90.0 0 100 0" stroke="black" fill="transparent"
  transform="translate(452.333333 801.000000) rotate (-1.388717 0 0) scale (0.550162 1)"/>
  <path
  d=" M 0 0 10.0 0 C 27.0 -21.0 68.0 21.0 50.0 0  S 90.0 29.0 90.0 0 M 90.0 0 100 0" stroke="black" fill="transparent"
  transform="translate(450.000000 899.000000) rotate (6.529536 0 0) scale (0.556946 1)"/>
  <path
  d=" M 0 0 10.0 0 C 30.0 -22.0 65.0 26.0 50.0 0  S 90.0 21.0 90.0 0 M 90.0 0 100 0" stroke="black" fill="transparent"
  transform="translate(102.000000 99.666667) rotate (-17.608986 0 0) scale (0.804356 1)"/>
  <path
  d=" M 0 0 10.0 0 C 19.0 -24.0 70.0 21.0 50.0 0  S 90.0 29.0 90.0 0 M 90.0 0 100 0" stroke="black" fill="transparent"
  transform="translate(209.000000 151.333333) rotate (-43.830861 0 0) scale (0.462073 1)"/>
  <path
  d=" M 0 0 10.0 0 C 19.0 -28.0 61.0 20.0 50.0 0  S 90.0 28.0 90.0 0 M 90.0 0 100 0" stroke="black" fill="transparent"
  transform="translate(102.000000 99.666667) rotate (47.385944 0 0) scale (0.566176 1)"/>
  <path
  d=" M 0 0 10.0 0 C 15.0 -22.0 66.0 27.0 50.0 0  S 90.0 23.0 90.0 0 M 90.0 0 100 0" stroke="black" fill="transparent"
  transform="translate(909.333333 214.333333) rotate (43.007906 0 0) scale (0.542443 1)"/>
  <path
  d=" M 0 0 10.0 0 C 15.0 -20.0 64.0 22.0 50.0 0  S 90.0 25.0 90.0 0 M 90.0 0 100 0" stroke="black" fill="transparent"
  transform="translate(236.333333 894.333333) rotate (3.381727 0 0) scale (0.734613 1)"/>
  <path
  d=" M 0 0 10.0 0 C 30.0 -21.0 68.0 21.0 50.0 0  S 90.0 23.0 90.0 0 M 90.0 0 100 0" stroke="black" fill="transparent"
  transform="translate(204.666667 937.666667) rotate (34.799301 0 0) scale (0.811863 1)"/>
  <path
  d=" M 0 0 10.0 0 C 15.0 -20.0 60.0 28.0 50.0 0  S 90.0 23.0 90.0 0 M 90.0 0 100 0" stroke="black" fill="transparent"
  transform="translate(107.666667 956.000000) rotate (21.835232 0 0) scale (1.048560 1)"/>
  <path
  d=" M 0 0 10.0 0 C 13.0 -28.0 70.0 25.0 50.0 0  S 90.0 26.0 90.0 0 M 90.0 0 100 0" stroke="black" fill="transparent"
  transform="translate(238.666667 556.333333) rotate (-27.862469 0 0) scale (0.855888 1)"/>
  <path
  d=" M 0 0 10.0 0 C 29.0 -23.0 55.0 25.0 50.0 0  S 90.0 24.0 90.0 0 M 90.0 0 100 0" stroke="black" fill="transparent"
  transform="translate(314.333333 516.333333) rotate (21.587886 0 0) scale (0.498286 1)"/>
  <path
  d=" M 0 0 10.0 0 C 25.0 -20.0 57.0 28.0 50.0 0  S 90.0 29.0 90.0 0 M 90.0 0 100 0" stroke="black" fill="transparent"
  transform="translate(350.666667 605.000000) rotate (-81.907917 0 0) scale (0.710407 1)"/>
  <path
  d=" M 0 0 10.0 0 C 24.0 -26.0 53.0 20.0 50.0 0  S 90.0 26.0 90.0 0 M 90.0 0 100 0" stroke="black" fill="transparent"
  transform="translate(309.000000 650.333333) rotate (-47.413336 0 0) scale (0.615729 1)"/>
  <path
  d=" M 0 0 10.0 0 C 30.0 -29.0 68.0 22.0 50.0 0  S 90.0 21.0 90.0 0 M 90.0 0 100 0" stroke="black" fill="transparent"
  transform="translate(568.333333 93.333333) rotate (-6.278683 0 0) scale (1.371560 1)"/>
  <path
  d=" M 0 0 10.0 0 C 20.0 -26.0 63.0 20.0 50.0 0  S 90.0 23.0 90.0 0 M 90.0 0 100 0" stroke="black" fill="transparent"
  transform="translate(706.333333 114.666667) rotate (-21.240735 0 0) scale (1.012088 1)"/>
  <path
  d=" M 0 0 10.0 0 C 27.0 -29.0 69.0 23.0 50.0 0  S 90.0 21.0 90.0 0 M 90.0 0 100 0" stroke="black" fill="transparent"
  transform="translate(568.333333 93.333333) rotate (49.267893 0 0) scale (0.475079 1)"/>
  <path
  d=" M 0 0 10.0 0 C 24.0 -24.0 70.0 20.0 50.0 0  S 90.0 22.0 90.0 0 M 90.0 0 100 0" stroke="black" fill="transparent"
  transform="translate(240.666667 240.000000) rotate (6.692875 0 0) scale (0.657816 1)"/>
  <path
  d=" M 0 0 10.0 0 C 14.0 -25.0 52.0 22.0 50.0 0  S 90.0 21.0 90.0 0 M 90.0 0 100 0" stroke="black" fill="transparent"
  transform="translate(695.666667 708.333333) rotate (-58.209710 0 0) scale (0.752957 1)"/>
  <path
  d=" M 0 0 10.0 0 C 19.0 -23.0 67.0 21.0 50.0 0  S 90.0 28.0 90.0 0 M 90.0 0 100 0" stroke="black" fill="transparent"
  transform="translate(627.333333 698.666667) rotate (8.051829 0 0) scale (0.690137 1)"/>
  <path
  d=" M 0 0 10.0 0 C 12.0 -23.0 67.0 21.0 50.0 0  S 90.0 24.0 90.0 0 M 90.0 0 100 0" stroke="black" fill="transparent"
  transform="translate(607.333333 646.333333) rotate (69.084863 0 0) scale (0.560248 1)"/>
  <path
  d=" M 0 0 10.0 0 C 17.0 -23.0 70.0 24.0 50.0 0  S 90.0 26.0 90.0 0 M 90.0 0 100 0" stroke="black" fill="transparent"
  transform="translate(737.666667 139.000000) rotate (0.872457 0 0) scale (0.656743 1)"/>
  <path
  d=" M 0 0 10.0 0 C 30.0 -23.0 60.0 23.0 50.0 0  S 90.0 27.0 90.0 0 M 90.0 0 100 0" stroke="black" fill="transparent"
  transform="translate(741.000000 244.000000) rotate (-33.621858 0 0) scale (0.776581 1)"/>
  <path
  d=" M 0 0 10.0 0 C 22.0 -21.0 67.0 24.0 50.0 0  S 90.0 21.0 90.0 0 M 90.0 0 100 0" stroke="black" fill="transparent"
  transform="translate(336.000000 147.666667) rotate (87.772953 0 0) scale (0.600454 1)"/>
  <path
  d=" M 0 0 10.0 0 C 17.0 -23.0 55.0 27.0 50.0 0  S 90.0 22.0 90.0 0 M 90.0 0 100 0" stroke="black" fill="transparent"
  transform="translate(402.000000 209.000000) rotate (-56.023456 0 0) scale (0.739610 1)"/>
  <path
  d=" M 0 0 10.0 0 C 27.0 -21.0 69.0 22.0 50.0 0  S 90.0 20.0 90.0 0 M 90.0 0 100 0" stroke="black" fill="transparent"
  transform="translate(411.666667 116.666667) rotate (44.390493 0 0) scale (0.443145 1)"/>
  <path
  d=" M 0 0 10.0 0 C 25.0 -22.0 57.0 24.0 50.0 0  S 90.0 29.0 90.0 0 M 90.0 0 100 0" stroke="black" fill="transparent"
  transform="translate(817.666667 448.000000) rotate (-57.994617 0 0) scale (0.503146 1)"/>
  <path
  d=" M 0 0 10.0 0 C 17.0 -26.0 64.0 29.0 50.0 0  S 90.0 28.0 90.0 0 M 90.0 0 100 0" stroke="black" fill="transparent"
  transform="translate(817.666667 448.000000) rotate (63.681912 0 0) scale (0.691697 1)"/>
  <path
  d=" M 0 0 10.0 0 C 20.0 -29.0 70.0 24.0 50.0 0  S 90.0 28.0 90.0 0 M 90.0 0 100 0" stroke="black" fill="transparent"
  transform="translate(844.333333 405.333333) rotate (-1.301953 0 0) scale (0.733523 1)"/>
  <path
  d=" M 0 0 10.0 0 C 26.0 -23.0 58.0 21.0 50.0 0  S 90.0 25.0 90.0 0 M 90.0 0 100 0" stroke="black" fill="transparent"
  transform="translate(209.333333 837.666667) rotate (-39.699073 0 0) scale (0.459226 1)"/>
  <path
  d=" M 0 0 10.0 0 C 13.0 -27.0 60.0 28.0 50.0 0  S 90.0 27.0 90.0 0 M 90.0 0 100 0" stroke="black" fill="transparent"
  transform="translate(942.333333 551.000000) rotate (61.016986 0 0) scale (0.777353 1)"/>
  <path
  d=" M 0 0 10.0 0 C 19.0 -25.0 67.0 20.0 50.0 0  S 90.0 22.0 90.0 0 M 90.0 0 100 0" stroke="black" fill="transparent"
  transform="translate(808.666667 341.333333) rotate (60.869440 0 0) scale (0.732674 1)"/>
  <path
  d=" M 0 0 10.0 0 C 11.0 -25.0 58.0 22.0 50.0 0  S 90.0 28.0 90.0 0 M 90.0 0 100 0" stroke="black" fill="transparent"
  transform="translate(752.000000 450.666667) rotate (-2.325454 0 0) scale (0.657208 1)"/>
  <path
  d=" M 0 0 10.0 0 C 20.0 -20.0 63.0 20.0 50.0 0  S 90.0 22.0 90.0 0 M 90.0 0 100 0" stroke="black" fill="transparent"
  transform="translate(750.333333 341.000000) rotate (0.327401 0 0) scale (0.583343 1)"/>
  <path
  d=" M 0 0 10.0 0 C 15.0 -22.0 62.0 27.0 50.0 0  S 90.0 28.0 90.0 0 M 90.0 0 100 0" stroke="black" fill="transparent"
  transform="translate(495.000000 700.333333) rotate (44.474365 0 0) scale (0.513853 1)"/>
  <path
  d=" M 0 0 10.0 0 C 30.0 -20.0 54.0 21.0 50.0 0  S 90.0 21.0 90.0 0 M 90.0 0 100 0" stroke="black" fill="transparent"
  transform="translate(438.333333 740.666667) rotate (-35.441919 0 0) scale (0.695549 1)"/>
  <path
  d=" M 0 0 10.0 0 C 15.0 -22.0 56.0 26.0 50.0 0  S 90.0 26.0 90.0 0 M 90.0 0 100 0" stroke="black" fill="transparent"
  transform="translate(314.333333 516.333333) rotate (-63.317540 0 0) scale (0.727469 1)"/>
  <path
  d=" M 0 0 10.0 0 C 15.0 -29.0 69.0 23.0 50.0 0  S 90.0 22.0 90.0 0 M 90.0 0 100 0" stroke="black" fill="transparent"
  transform="translate(360.666667 534.666667) rotate (-35.348167 0 0) scale (0.702915 1)"/>
  <path
  d=" M 0 0 10.0 0 C 20.0 -23.0 62.0 26.0 50.0 0  S 90.0 20.0 90.0 0 M 90.0 0 100 0" stroke="black" fill="transparent"
  transform="translate(403.666667 637.000000) rotate (-41.524767 0 0) scale (0.583257 1)"/>
  <path
  d=" M 0 0 10.0 0 C 23.0 -22.0 52.0 20.0 50.0 0  S 90.0 27.0 90.0 0 M 90.0 0 100 0" stroke="black" fill="transparent"
  transform="translate(350.666667 605.000000) rotate (31.122470 0 0) scale (0.619112 1)"/>
  <path
  d=" M 0 0 10.0 0 C 17.0 -29.0 51.0 27.0 50.0 0  S 90.0 21.0 90.0 0 M 90.0 0 100 0" stroke="black" fill="transparent"
  transform="translate(694.000000 799.666667) rotate (54.050722 0 0) scale (0.539403 1)"/>
  <path
  d=" M 0 0 10.0 0 C 21.0 -24.0 54.0 21.0 50.0 0  S 90.0 22.0 90.0 0 M 90.0 0 100 0" stroke="black" fill="transparent"
  transform="translate(694.000000 799.666667) rotate (-54.891620 0 0) scale (0.672318 1)"/>
  <path
  d=" M 0 0 10.0 0 C 28.0 -27.0 63.0 23.0 50.0 0  S 90.0 20.0 90.0 0 M 90.0 0 100 0" stroke="black" fill="transparent"
  transform="translate(732.666667 744.666667) rotate (12.470462 0 0) scale (0.710086 1)"/>
  <path
  d=" M 0 0 10.0 0 C 28.0 -20.0 63.0 20.0 50.0 0  S 90.0 28.0 90.0 0 M 90.0 0 100 0" stroke="black" fill="transparent"
  transform="translate(402.666667 715.333333) rotate (-89.268604 0 0) scale (0.783397 1)"/>
  <path
  d=" M 0 0 10.0 0 C 12.0 -29.0 56.0 28.0 50.0 0  S 90.0 29.0 90.0 0 M 90.0 0 100 0" stroke="black" fill="transparent"
  transform="translate(495.000000 700.333333) rotate (-82.874984 0 0) scale (0.644981 1)"/>
  <path
  d=" M 0 0 10.0 0 C 14.0 -24.0 64.0 25.0 50.0 0  S 90.0 27.0 90.0 0 M 90.0 0 100 0" stroke="black" fill="transparent"
  transform="translate(91.000000 552.000000) rotate (-89.225780 0 0) scale (1.480135 1)"/>
  <path
  d=" M 0 0 10.0 0 C 17.0 -25.0 60.0 25.0 50.0 0  S 90.0 28.0 90.0 0 M 90.0 0 100 0" stroke="black" fill="transparent"
  transform="translate(107.666667 956.000000) rotate (-59.036243 0 0) scale (0.544222 1)"/>
  <path
  d=" M 0 0 10.0 0 C 28.0 -23.0 63.0 23.0 50.0 0  S 90.0 20.0 90.0 0 M 90.0 0 100 0" stroke="black" fill="transparent"
  transform="translate(497.666667 124.000000) rotate (49.267893 0 0) scale (0.475079 1)"/>
  <path
  d=" M 0 0 10.0 0 C 26.0 -24.0 63.0 25.0 50.0 0  S 90.0 21.0 90.0 0 M 90.0 0 100 0" stroke="black" fill="transparent"
  transform="translate(497.666667 124.000000) rotate (-23.459024 0 0) scale (0.770339 1)"/>
  <path
  d=" M 0 0 10.0 0 C 28.0 -22.0 52.0 22.0 50.0 0  S 90.0 27.0 90.0 0 M 90.0 0 100 0" stroke="black" fill="transparent"
  transform="translate(159.000000 756.000000) rotate (-5.679250 0 0) scale (0.606309 1)"/>
  <path
  d=" M 0 0 10.0 0 C 26.0 -28.0 59.0 28.0 50.0 0  S 90.0 23.0 90.0 0 M 90.0 0 100 0" stroke="black" fill="transparent"
  transform="translate(111.000000 722.666667) rotate (-68.922506 0 0) scale (0.685890 1)"/>
  <path
  d=" M 0 0 10.0 0 C 28.0 -25.0 53.0 21.0 50.0 0  S 90.0 26.0 90.0 0 M 90.0 0 100 0" stroke="black" fill="transparent"
  transform="translate(72.666667 788.666667) rotate (-83.932289 0 0) scale (1.702873 1)"/>
  <path
  d=" M 0 0 10.0 0 C 20.0 -28.0 61.0 26.0 50.0 0  S 90.0 24.0 90.0 0 M 90.0 0 100 0" stroke="black" fill="transparent"
  transform="translate(808.666667 341.333333) rotate (-44.185423 0 0) scale (0.497382 1)"/>
  <path
  d=" M 0 0 10.0 0 C 29.0 -28.0 65.0 25.0 50.0 0  S 90.0 23.0 90.0 0 M 90.0 0 100 0" stroke="black" fill="transparent"
  transform="translate(844.333333 306.666667) rotate (-87.343853 0 0) scale (0.647362 1)"/>
  <path
  d=" M 0 0 10.0 0 C 20.0 -22.0 63.0 20.0 50.0 0  S 90.0 29.0 90.0 0 M 90.0 0 100 0" stroke="black" fill="transparent"
  transform="translate(107.666667 956.000000) rotate (-89.154991 0 0) scale (1.130123 1)"/>
  <path
  d=" M 0 0 10.0 0 C 19.0 -21.0 53.0 25.0 50.0 0  S 90.0 23.0 90.0 0 M 90.0 0 100 0" stroke="black" fill="transparent"
  transform="translate(844.333333 306.666667) rotate (28.986041 0 0) scale (0.811672 1)"/>
  <path
  d=" M 0 0 10.0 0 C 29.0 -28.0 62.0 22.0 50.0 0  S 90.0 21.0 90.0 0 M 90.0 0 100 0" stroke="black" fill="transparent"
  transform="translate(443.333333 147.666667) rotate (-23.537114 0 0) scale (0.592640 1)"/>
  <path
  d=" M 0 0 10.0 0 C 18.0 -20.0 64.0 29.0 50.0 0  S 90.0 27.0 90.0 0 M 90.0 0 100 0" stroke="black" fill="transparent"
  transform="translate(624.333333 797.333333) rotate (1.918280 0 0) scale (0.697057 1)"/>
  <path
  d=" M 0 0 10.0 0 C 21.0 -25.0 51.0 21.0 50.0 0  S 90.0 23.0 90.0 0 M 90.0 0 100 0" stroke="black" fill="transparent"
  transform="translate(695.666667 708.333333) rotate (44.479144 0 0) scale (0.518566 1)"/>
  <path
  d=" M 0 0 10.0 0 C 12.0 -27.0 61.0 28.0 50.0 0  S 90.0 29.0 90.0 0 M 90.0 0 100 0" stroke="black" fill="transparent"
  transform="translate(594.666667 732.666667) rotate (-46.145763 0 0) scale (0.471499 1)"/>
  <path
  d=" M 0 0 10.0 0 C 22.0 -23.0 68.0 21.0 50.0 0  S 90.0 28.0 90.0 0 M 90.0 0 100 0" stroke="black" fill="transparent"
  transform="translate(65.666667 264.333333) rotate (-77.557185 0 0) scale (1.686275 1)"/>
  <path
  d=" M 0 0 10.0 0 C 28.0 -29.0 63.0 27.0 50.0 0  S 90.0 27.0 90.0 0 M 90.0 0 100 0" stroke="black" fill="transparent"
  transform="translate(915.333333 346.000000) rotate (-32.960888 0 0) scale (0.508516 1)"/>
  <path
  d=" M 0 0 10.0 0 C 18.0 -29.0 60.0 22.0 50.0 0  S 90.0 26.0 90.0 0 M 90.0 0 100 0" stroke="black" fill="transparent"
  transform="translate(65.666667 264.333333) rotate (78.926934 0 0) scale (1.423162 1)"/>
  
</svg>
