<svg xmlns="http://www.w3.org/2000/svg"
  xmlns:xlink="http://www.w3.org/1999/xlink"
  width="1500" height="1500">
<path
  d=" M 0 0 10.0 0 C 19.0 -20.0 69.0 21.0 50.0 0  S 90.0 27.0 90.0 0 M 90.0 0 100 0" stroke="black" fill="transparent"
  transform="translate(609.331380 589.376811) rotate (-31.978640 0 0) scale (0.382661 1)"/>
  <path
  d=" M 0 0 10.0 0 C 15.0 -21.0 62.0 24.0 50.0 0  S 90.0 26.0 90.0 0 M 90.0 0 100 0" stroke="black" fill="transparent"
  transform="translate(641.790405 569.110982) rotate (-0.012411 0 0) scale (0.477130 1)"/>
  <path
  d=" M 0 0 10.0 0 C 24.0 -28.0 67.0 22.0 50.0 0  S 90.0 26.0 90.0 0 M 90.0 0 100 0" stroke="black" fill="transparent"
  transform="translate(663.109558 628.035583) rotate (-65.874951 0 0) scale (0.645752 1)"/>
  <path
  d=" M 0 0 10.0 0 C 19.0 -20.0 57.0 27.0 50.0 0  S 90.0 25.0 90.0 0 M 90.0 0 100 0" stroke="black" fill="transparent"
  transform="translate(610.536621 639.531047) rotate (-12.334025 0 0) scale (0.538150 1)"/>
  <path
  d=" M 0 0 10.0 0 C 18.0 -22.0 52.0 24.0 50.0 0  S 90.0 20.0 90.0 0 M 90.0 0 100 0" stroke="black" fill="transparent"
  transform="translate(609.331380 589.376811) rotate (88.623408 0 0) scale (0.501687 1)"/>
  <path
  d=" M 0 0 10.0 0 C 25.0 -22.0 65.0 20.0 50.0 0  S 90.0 29.0 90.0 0 M 90.0 0 100 0" stroke="black" fill="transparent"
  transform="translate(575.669067 581.111572) rotate (13.795154 0 0) scale (0.346622 1)"/>
  <path
  d=" M 0 0 10.0 0 C 30.0 -21.0 52.0 21.0 50.0 0  S 90.0 26.0 90.0 0 M 90.0 0 100 0" stroke="black" fill="transparent"
  transform="translate(538.763784 550.204580) rotate (39.945095 0 0) scale (0.481377 1)"/>
  <path
  d=" M 0 0 10.0 0 C 25.0 -22.0 60.0 29.0 50.0 0  S 90.0 25.0 90.0 0 M 90.0 0 100 0" stroke="black" fill="transparent"
  transform="translate(538.763784 550.204580) rotate (-66.330892 0 0) scale (0.630667 1)"/>
  <path
  d=" M 0 0 10.0 0 C 25.0 -25.0 61.0 27.0 50.0 0  S 90.0 29.0 90.0 0 M 90.0 0 100 0" stroke="black" fill="transparent"
  transform="translate(564.082163 492.443105) rotate (8.721737 0 0) scale (0.701758 1)"/>
  <path
  d=" M 0 0 10.0 0 C 30.0 -28.0 60.0 21.0 50.0 0  S 90.0 22.0 90.0 0 M 90.0 0 100 0" stroke="black" fill="transparent"
  transform="translate(633.446472 503.084269) rotate (82.797592 0 0) scale (0.665518 1)"/>
  <path
  d=" M 0 0 10.0 0 C 18.0 -21.0 63.0 27.0 50.0 0  S 90.0 23.0 90.0 0 M 90.0 0 100 0" stroke="black" fill="transparent"
  transform="translate(572.539978 683.001587) rotate (62.513445 0 0) scale (0.896927 1)"/>
  <path
  d=" M 0 0 10.0 0 C 14.0 -28.0 52.0 28.0 50.0 0  S 90.0 23.0 90.0 0 M 90.0 0 100 0" stroke="black" fill="transparent"
  transform="translate(613.936768 762.569661) rotate (-8.769790 0 0) scale (0.868125 1)"/>
  <path
  d=" M 0 0 10.0 0 C 27.0 -24.0 66.0 28.0 50.0 0  S 90.0 21.0 90.0 0 M 90.0 0 100 0" stroke="black" fill="transparent"
  transform="translate(699.734294 749.333822) rotate (-54.213967 0 0) scale (0.945554 1)"/>
  <path
  d=" M 0 0 10.0 0 C 28.0 -22.0 62.0 26.0 50.0 0  S 90.0 23.0 90.0 0 M 90.0 0 100 0" stroke="black" fill="transparent"
  transform="translate(726.136271 622.634440) rotate (59.978173 0 0) scale (0.577424 1)"/>
  <path
  d=" M 0 0 10.0 0 C 15.0 -24.0 59.0 29.0 50.0 0  S 90.0 29.0 90.0 0 M 90.0 0 100 0" stroke="black" fill="transparent"
  transform="translate(663.109558 628.035583) rotate (-4.898058 0 0) scale (0.632577 1)"/>
  <path
  d=" M 0 0 10.0 0 C 27.0 -29.0 54.0 29.0 50.0 0  S 90.0 22.0 90.0 0 M 90.0 0 100 0" stroke="black" fill="transparent"
  transform="translate(576.874308 631.265808) rotate (13.795154 0 0) scale (0.346622 1)"/>
  <path
  d=" M 0 0 10.0 0 C 26.0 -21.0 69.0 20.0 50.0 0  S 90.0 25.0 90.0 0 M 90.0 0 100 0" stroke="black" fill="transparent"
  transform="translate(572.539978 683.001587) rotate (-85.211046 0 0) scale (0.519170 1)"/>
  <path
  d=" M 0 0 10.0 0 C 13.0 -28.0 65.0 29.0 50.0 0  S 90.0 21.0 90.0 0 M 90.0 0 100 0" stroke="black" fill="transparent"
  transform="translate(500.643311 655.205017) rotate (21.137416 0 0) scale (0.770829 1)"/>
  <path
  d=" M 0 0 10.0 0 C 24.0 -27.0 53.0 22.0 50.0 0  S 90.0 20.0 90.0 0 M 90.0 0 100 0" stroke="black" fill="transparent"
  transform="translate(575.669067 581.111572) rotate (88.623408 0 0) scale (0.501687 1)"/>
  <path
  d=" M 0 0 10.0 0 C 25.0 -22.0 51.0 27.0 50.0 0  S 90.0 21.0 90.0 0 M 90.0 0 100 0" stroke="black" fill="transparent"
  transform="translate(468.072357 572.562246) rotate (-17.550666 0 0) scale (0.741427 1)"/>
  <path
  d=" M 0 0 10.0 0 C 11.0 -22.0 60.0 23.0 50.0 0  S 90.0 21.0 90.0 0 M 90.0 0 100 0" stroke="black" fill="transparent"
  transform="translate(468.072357 572.562246) rotate (68.489738 0 0) scale (0.888296 1)"/>
  <path
  d=" M 0 0 10.0 0 C 23.0 -28.0 60.0 22.0 50.0 0  S 90.0 25.0 90.0 0 M 90.0 0 100 0" stroke="black" fill="transparent"
  transform="translate(677.846619 431.352671) rotate (15.510669 0 0) scale (0.809633 1)"/>
  <path
  d=" M 0 0 10.0 0 C 29.0 -23.0 54.0 27.0 50.0 0  S 90.0 22.0 90.0 0 M 90.0 0 100 0" stroke="black" fill="transparent"
  transform="translate(633.446472 503.084269) rotate (-58.243481 0 0) scale (0.843611 1)"/>
  <path
  d=" M 0 0 10.0 0 C 17.0 -29.0 55.0 23.0 50.0 0  S 90.0 26.0 90.0 0 M 90.0 0 100 0" stroke="black" fill="transparent"
  transform="translate(689.503357 569.100647) rotate (-32.494472 0 0) scale (0.826027 1)"/>
  <path
  d=" M 0 0 10.0 0 C 25.0 -24.0 51.0 22.0 50.0 0  S 90.0 26.0 90.0 0 M 90.0 0 100 0" stroke="black" fill="transparent"
  transform="translate(755.861267 453.003693) rotate (87.355388 0 0) scale (0.717977 1)"/>
  <path
  d=" M 0 0 10.0 0 C 15.0 -24.0 64.0 24.0 50.0 0  S 90.0 27.0 90.0 0 M 90.0 0 100 0" stroke="black" fill="transparent"
  transform="translate(484.930094 797.132914) rotate (22.160339 0 0) scale (0.861611 1)"/>
  <path
  d=" M 0 0 10.0 0 C 27.0 -27.0 51.0 27.0 50.0 0  S 90.0 27.0 90.0 0 M 90.0 0 100 0" stroke="black" fill="transparent"
  transform="translate(564.726613 829.632853) rotate (-20.519625 0 0) scale (0.581559 1)"/>
  <path
  d=" M 0 0 10.0 0 C 19.0 -25.0 57.0 28.0 50.0 0  S 90.0 24.0 90.0 0 M 90.0 0 100 0" stroke="black" fill="transparent"
  transform="translate(613.936768 762.569661) rotate (83.575645 0 0) scale (0.469729 1)"/>
  <path
  d=" M 0 0 10.0 0 C 17.0 -25.0 66.0 27.0 50.0 0  S 90.0 20.0 90.0 0 M 90.0 0 100 0" stroke="black" fill="transparent"
  transform="translate(461.358795 715.455404) rotate (-56.894807 0 0) scale (0.719262 1)"/>
  <path
  d=" M 0 0 10.0 0 C 13.0 -27.0 66.0 25.0 50.0 0  S 90.0 28.0 90.0 0 M 90.0 0 100 0" stroke="black" fill="transparent"
  transform="translate(461.358795 715.455404) rotate (73.902398 0 0) scale (0.850107 1)"/>
  <path
  d=" M 0 0 10.0 0 C 29.0 -25.0 59.0 27.0 50.0 0  S 90.0 28.0 90.0 0 M 90.0 0 100 0" stroke="black" fill="transparent"
  transform="translate(507.543640 423.891388) rotate (50.485647 0 0) scale (0.888591 1)"/>
  <path
  d=" M 0 0 10.0 0 C 13.0 -28.0 51.0 20.0 50.0 0  S 90.0 23.0 90.0 0 M 90.0 0 100 0" stroke="black" fill="transparent"
  transform="translate(424.133423 549.465607) rotate (27.728801 0 0) scale (0.496395 1)"/>
  <path
  d=" M 0 0 10.0 0 C 17.0 -21.0 55.0 29.0 50.0 0  S 90.0 29.0 90.0 0 M 90.0 0 100 0" stroke="black" fill="transparent"
  transform="translate(424.133423 549.465607) rotate (-81.151144 0 0) scale (0.920045 1)"/>
  <path
  d=" M 0 0 10.0 0 C 16.0 -20.0 69.0 25.0 50.0 0  S 90.0 26.0 90.0 0 M 90.0 0 100 0" stroke="black" fill="transparent"
  transform="translate(438.286326 458.556224) rotate (-26.588990 0 0) scale (0.774482 1)"/>
  <path
  d=" M 0 0 10.0 0 C 23.0 -24.0 57.0 24.0 50.0 0  S 90.0 22.0 90.0 0 M 90.0 0 100 0" stroke="black" fill="transparent"
  transform="translate(759.174072 524.724955) rotate (24.172017 0 0) scale (0.384066 1)"/>
  <path
  d=" M 0 0 10.0 0 C 11.0 -26.0 66.0 25.0 50.0 0  S 90.0 25.0 90.0 0 M 90.0 0 100 0" stroke="black" fill="transparent"
  transform="translate(726.136271 622.634440) rotate (-50.363054 0 0) scale (1.067168 1)"/>
  <path
  d=" M 0 0 10.0 0 C 26.0 -24.0 64.0 28.0 50.0 0  S 90.0 24.0 90.0 0 M 90.0 0 100 0" stroke="black" fill="transparent"
  transform="translate(360.766693 588.885824) rotate (86.803703 0 0) scale (0.834769 1)"/>
  <path
  d=" M 0 0 10.0 0 C 13.0 -23.0 66.0 23.0 50.0 0  S 90.0 21.0 90.0 0 M 90.0 0 100 0" stroke="black" fill="transparent"
  transform="translate(365.421112 672.232849) rotate (24.252869 0 0) scale (1.052247 1)"/>
  <path
  d=" M 0 0 10.0 0 C 22.0 -20.0 51.0 27.0 50.0 0  S 90.0 20.0 90.0 0 M 90.0 0 100 0" stroke="black" fill="transparent"
  transform="translate(360.766693 588.885824) rotate (-31.885596 0 0) scale (0.746277 1)"/>
  <path
  d=" M 0 0 10.0 0 C 11.0 -20.0 69.0 29.0 50.0 0  S 90.0 27.0 90.0 0 M 90.0 0 100 0" stroke="black" fill="transparent"
  transform="translate(642.733175 369.271474) rotate (60.507277 0 0) scale (0.713234 1)"/>
  <path
  d=" M 0 0 10.0 0 C 11.0 -24.0 51.0 29.0 50.0 0  S 90.0 24.0 90.0 0 M 90.0 0 100 0" stroke="black" fill="transparent"
  transform="translate(541.794505 372.451355) rotate (-1.804398 0 0) scale (1.009887 1)"/>
  <path
  d=" M 0 0 10.0 0 C 28.0 -23.0 65.0 22.0 50.0 0  S 90.0 29.0 90.0 0 M 90.0 0 100 0" stroke="black" fill="transparent"
  transform="translate(507.543640 423.891388) rotate (-56.342710 0 0) scale (0.617997 1)"/>
  <path
  d=" M 0 0 10.0 0 C 18.0 -21.0 59.0 26.0 50.0 0  S 90.0 20.0 90.0 0 M 90.0 0 100 0" stroke="black" fill="transparent"
  transform="translate(794.213155 540.451579) rotate (9.437504 0 0) scale (0.527463 1)"/>
  <path
  d=" M 0 0 10.0 0 C 17.0 -24.0 66.0 29.0 50.0 0  S 90.0 29.0 90.0 0 M 90.0 0 100 0" stroke="black" fill="transparent"
  transform="translate(755.026530 672.629842) rotate (-22.846044 0 0) scale (1.069285 1)"/>
  <path
  d=" M 0 0 10.0 0 C 27.0 -27.0 70.0 23.0 50.0 0  S 90.0 24.0 90.0 0 M 90.0 0 100 0" stroke="black" fill="transparent"
  transform="translate(846.245565 549.100484) rotate (84.898920 0 0) scale (0.823398 1)"/>
  <path
  d=" M 0 0 10.0 0 C 24.0 -27.0 60.0 23.0 50.0 0  S 90.0 22.0 90.0 0 M 90.0 0 100 0" stroke="black" fill="transparent"
  transform="translate(619.192627 809.247579) rotate (29.911519 0 0) scale (0.734654 1)"/>
  <path
  d=" M 0 0 10.0 0 C 13.0 -28.0 64.0 29.0 50.0 0  S 90.0 26.0 90.0 0 M 90.0 0 100 0" stroke="black" fill="transparent"
  transform="translate(699.734294 749.333822) rotate (43.009591 0 0) scale (0.728626 1)"/>
  <path
  d=" M 0 0 10.0 0 C 30.0 -25.0 51.0 23.0 50.0 0  S 90.0 28.0 90.0 0 M 90.0 0 100 0" stroke="black" fill="transparent"
  transform="translate(682.872172 845.881978) rotate (-33.738493 0 0) scale (0.843479 1)"/>
  <path
  d=" M 0 0 10.0 0 C 12.0 -25.0 61.0 24.0 50.0 0  S 90.0 28.0 90.0 0 M 90.0 0 100 0" stroke="black" fill="transparent"
  transform="translate(310.203262 520.511892) rotate (53.516583 0 0) scale (0.850391 1)"/>
  <path
  d=" M 0 0 10.0 0 C 27.0 -24.0 51.0 28.0 50.0 0  S 90.0 29.0 90.0 0 M 90.0 0 100 0" stroke="black" fill="transparent"
  transform="translate(310.203262 520.511892) rotate (-81.248809 0 0) scale (0.772528 1)"/>
  <path
  d=" M 0 0 10.0 0 C 14.0 -28.0 59.0 29.0 50.0 0  S 90.0 24.0 90.0 0 M 90.0 0 100 0" stroke="black" fill="transparent"
  transform="translate(321.956813 444.158407) rotate (-19.199084 0 0) scale (0.685277 1)"/>
  <path
  d=" M 0 0 10.0 0 C 24.0 -24.0 58.0 29.0 50.0 0  S 90.0 21.0 90.0 0 M 90.0 0 100 0" stroke="black" fill="transparent"
  transform="translate(386.673147 421.622955) rotate (35.586685 0 0) scale (0.634664 1)"/>
  <path
  d=" M 0 0 10.0 0 C 13.0 -21.0 63.0 27.0 50.0 0  S 90.0 20.0 90.0 0 M 90.0 0 100 0" stroke="black" fill="transparent"
  transform="translate(535.735708 326.925557) rotate (82.419341 0 0) scale (0.459272 1)"/>
  <path
  d=" M 0 0 10.0 0 C 25.0 -29.0 56.0 23.0 50.0 0  S 90.0 22.0 90.0 0 M 90.0 0 100 0" stroke="black" fill="transparent"
  transform="translate(535.735708 326.925557) rotate (-1.804398 0 0) scale (1.009887 1)"/>
  <path
  d=" M 0 0 10.0 0 C 29.0 -21.0 64.0 27.0 50.0 0  S 90.0 28.0 90.0 0 M 90.0 0 100 0" stroke="black" fill="transparent"
  transform="translate(636.674377 323.745677) rotate (82.419341 0 0) scale (0.459272 1)"/>
  <path
  d=" M 0 0 10.0 0 C 23.0 -29.0 67.0 27.0 50.0 0  S 90.0 25.0 90.0 0 M 90.0 0 100 0" stroke="black" fill="transparent"
  transform="translate(846.245565 549.100484) rotate (-6.594444 0 0) scale (0.498556 1)"/>
  <path
  d=" M 0 0 10.0 0 C 26.0 -24.0 54.0 25.0 50.0 0  S 90.0 25.0 90.0 0 M 90.0 0 100 0" stroke="black" fill="transparent"
  transform="translate(895.771362 543.375020) rotate (-51.496105 0 0) scale (0.420349 1)"/>
  <path
  d=" M 0 0 10.0 0 C 26.0 -22.0 55.0 25.0 50.0 0  S 90.0 21.0 90.0 0 M 90.0 0 100 0" stroke="black" fill="transparent"
  transform="translate(921.940918 510.479970) rotate (-82.973999 0 0) scale (0.713567 1)"/>
  <path
  d=" M 0 0 10.0 0 C 23.0 -29.0 51.0 24.0 50.0 0  S 90.0 26.0 90.0 0 M 90.0 0 100 0" stroke="black" fill="transparent"
  transform="translate(874.401265 389.548930) rotate (41.687079 0 0) scale (0.753466 1)"/>
  <path
  d=" M 0 0 10.0 0 C 21.0 -29.0 52.0 24.0 50.0 0  S 90.0 29.0 90.0 0 M 90.0 0 100 0" stroke="black" fill="transparent"
  transform="translate(797.909159 387.417725) rotate (1.595949 0 0) scale (0.765218 1)"/>
  <path
  d=" M 0 0 10.0 0 C 29.0 -28.0 61.0 21.0 50.0 0  S 90.0 25.0 90.0 0 M 90.0 0 100 0" stroke="black" fill="transparent"
  transform="translate(755.861267 453.003693) rotate (-57.335617 0 0) scale (0.779073 1)"/>
  <path
  d=" M 0 0 10.0 0 C 29.0 -29.0 51.0 25.0 50.0 0  S 90.0 25.0 90.0 0 M 90.0 0 100 0" stroke="black" fill="transparent"
  transform="translate(836.993530 801.710368) rotate (-19.529076 0 0) scale (0.644224 1)"/>
  <path
  d=" M 0 0 10.0 0 C 18.0 -29.0 62.0 26.0 50.0 0  S 90.0 23.0 90.0 0 M 90.0 0 100 0" stroke="black" fill="transparent"
  transform="translate(753.014282 799.034892) rotate (1.824756 0 0) scale (0.840219 1)"/>
  <path
  d=" M 0 0 10.0 0 C 26.0 -21.0 67.0 28.0 50.0 0  S 90.0 27.0 90.0 0 M 90.0 0 100 0" stroke="black" fill="transparent"
  transform="translate(853.566650 631.114176) rotate (53.630154 0 0) scale (0.886406 1)"/>
  <path
  d=" M 0 0 10.0 0 C 17.0 -21.0 56.0 25.0 50.0 0  S 90.0 28.0 90.0 0 M 90.0 0 100 0" stroke="black" fill="transparent"
  transform="translate(897.709859 780.174906) rotate (-83.814040 0 0) scale (0.781418 1)"/>
  <path
  d=" M 0 0 10.0 0 C 16.0 -23.0 61.0 27.0 50.0 0  S 90.0 29.0 90.0 0 M 90.0 0 100 0" stroke="black" fill="transparent"
  transform="translate(682.872172 845.881978) rotate (82.742314 0 0) scale (0.505979 1)"/>
  <path
  d=" M 0 0 10.0 0 C 14.0 -29.0 51.0 24.0 50.0 0  S 90.0 20.0 90.0 0 M 90.0 0 100 0" stroke="black" fill="transparent"
  transform="translate(587.658946 900.254313) rotate (-2.355722 0 0) scale (1.016913 1)"/>
  <path
  d=" M 0 0 10.0 0 C 24.0 -25.0 61.0 28.0 50.0 0  S 90.0 26.0 90.0 0 M 90.0 0 100 0" stroke="black" fill="transparent"
  transform="translate(564.726613 829.632853) rotate (72.010253 0 0) scale (0.742515 1)"/>
  <path
  d=" M 0 0 10.0 0 C 12.0 -26.0 65.0 25.0 50.0 0  S 90.0 21.0 90.0 0 M 90.0 0 100 0" stroke="black" fill="transparent"
  transform="translate(415.424164 840.915588) rotate (-32.207350 0 0) scale (0.821462 1)"/>
  <path
  d=" M 0 0 10.0 0 C 15.0 -22.0 70.0 25.0 50.0 0  S 90.0 24.0 90.0 0 M 90.0 0 100 0" stroke="black" fill="transparent"
  transform="translate(331.576065 790.440491) rotate (31.047210 0 0) scale (0.978685 1)"/>
  <path
  d=" M 0 0 10.0 0 C 25.0 -22.0 63.0 22.0 50.0 0  S 90.0 29.0 90.0 0 M 90.0 0 100 0" stroke="black" fill="transparent"
  transform="translate(294.059087 713.520040) rotate (63.999779 0 0) scale (0.855820 1)"/>
  <path
  d=" M 0 0 10.0 0 C 28.0 -28.0 64.0 25.0 50.0 0  S 90.0 25.0 90.0 0 M 90.0 0 100 0" stroke="black" fill="transparent"
  transform="translate(294.059087 713.520040) rotate (-52.410484 0 0) scale (0.423545 1)"/>
  <path
  d=" M 0 0 10.0 0 C 29.0 -23.0 59.0 29.0 50.0 0  S 90.0 27.0 90.0 0 M 90.0 0 100 0" stroke="black" fill="transparent"
  transform="translate(319.895315 679.958313) rotate (-9.631016 0 0) scale (0.461766 1)"/>
  <path
  d=" M 0 0 10.0 0 C 20.0 -26.0 62.0 22.0 50.0 0  S 90.0 26.0 90.0 0 M 90.0 0 100 0" stroke="black" fill="transparent"
  transform="translate(252.782740 492.670675) rotate (86.212656 0 0) scale (0.762660 1)"/>
  <path
  d=" M 0 0 10.0 0 C 11.0 -20.0 52.0 20.0 50.0 0  S 90.0 29.0 90.0 0 M 90.0 0 100 0" stroke="black" fill="transparent"
  transform="translate(257.820374 568.770070) rotate (60.825948 0 0) scale (1.273425 1)"/>
  <path
  d=" M 0 0 10.0 0 C 21.0 -29.0 54.0 28.0 50.0 0  S 90.0 27.0 90.0 0 M 90.0 0 100 0" stroke="black" fill="transparent"
  transform="translate(252.782740 492.670675) rotate (25.867136 0 0) scale (0.638142 1)"/>
  <path
  d=" M 0 0 10.0 0 C 20.0 -26.0 51.0 26.0 50.0 0  S 90.0 23.0 90.0 0 M 90.0 0 100 0" stroke="black" fill="transparent"
  transform="translate(499.981852 282.831009) rotate (50.963296 0 0) scale (0.567685 1)"/>
  <path
  d=" M 0 0 10.0 0 C 30.0 -29.0 57.0 28.0 50.0 0  S 90.0 22.0 90.0 0 M 90.0 0 100 0" stroke="black" fill="transparent"
  transform="translate(363.232259 322.570277) rotate (76.685852 0 0) scale (1.017885 1)"/>
  <path
  d=" M 0 0 10.0 0 C 13.0 -27.0 55.0 28.0 50.0 0  S 90.0 26.0 90.0 0 M 90.0 0 100 0" stroke="black" fill="transparent"
  transform="translate(363.232259 322.570277) rotate (-69.322809 0 0) scale (0.713031 1)"/>
  <path
  d=" M 0 0 10.0 0 C 19.0 -21.0 56.0 24.0 50.0 0  S 90.0 28.0 90.0 0 M 90.0 0 100 0" stroke="black" fill="transparent"
  transform="translate(388.409566 255.860163) rotate (3.061768 0 0) scale (0.582456 1)"/>
  <path
  d=" M 0 0 10.0 0 C 19.0 -27.0 52.0 22.0 50.0 0  S 90.0 23.0 90.0 0 M 90.0 0 100 0" stroke="black" fill="transparent"
  transform="translate(446.572032 258.971207) rotate (24.071778 0 0) scale (0.584970 1)"/>
  <path
  d=" M 0 0 10.0 0 C 25.0 -26.0 64.0 28.0 50.0 0  S 90.0 25.0 90.0 0 M 90.0 0 100 0" stroke="black" fill="transparent"
  transform="translate(636.674377 323.745677) rotate (-50.831034 0 0) scale (0.733309 1)"/>
  <path
  d=" M 0 0 10.0 0 C 17.0 -21.0 57.0 29.0 50.0 0  S 90.0 22.0 90.0 0 M 90.0 0 100 0" stroke="black" fill="transparent"
  transform="translate(682.990865 266.893209) rotate (-6.277324 0 0) scale (0.765584 1)"/>
  <path
  d=" M 0 0 10.0 0 C 16.0 -23.0 58.0 29.0 50.0 0  S 90.0 29.0 90.0 0 M 90.0 0 100 0" stroke="black" fill="transparent"
  transform="translate(759.090251 258.522242) rotate (59.964135 0 0) scale (0.616229 1)"/>
  <path
  d=" M 0 0 10.0 0 C 24.0 -22.0 63.0 23.0 50.0 0  S 90.0 28.0 90.0 0 M 90.0 0 100 0" stroke="black" fill="transparent"
  transform="translate(789.935099 311.869939) rotate (83.974746 0 0) scale (0.759675 1)"/>
  <path
  d=" M 0 0 10.0 0 C 22.0 -25.0 65.0 22.0 50.0 0  S 90.0 29.0 90.0 0 M 90.0 0 100 0" stroke="black" fill="transparent"
  transform="translate(906.130086 702.488098) rotate (-15.530093 0 0) scale (0.760743 1)"/>
  <path
  d=" M 0 0 10.0 0 C 25.0 -20.0 69.0 26.0 50.0 0  S 90.0 27.0 90.0 0 M 90.0 0 100 0" stroke="black" fill="transparent"
  transform="translate(895.771362 543.375020) rotate (37.403671 0 0) scale (1.014859 1)"/>
  <path
  d=" M 0 0 10.0 0 C 19.0 -21.0 62.0 28.0 50.0 0  S 90.0 29.0 90.0 0 M 90.0 0 100 0" stroke="black" fill="transparent"
  transform="translate(976.389262 605.020243) rotate (87.743771 0 0) scale (0.771592 1)"/>
  <path
  d=" M 0 0 10.0 0 C 25.0 -29.0 56.0 21.0 50.0 0  S 90.0 20.0 90.0 0 M 90.0 0 100 0" stroke="black" fill="transparent"
  transform="translate(689.264303 896.074443) rotate (54.102846 0 0) scale (0.581363 1)"/>
  <path
  d=" M 0 0 10.0 0 C 29.0 -28.0 59.0 24.0 50.0 0  S 90.0 21.0 90.0 0 M 90.0 0 100 0" stroke="black" fill="transparent"
  transform="translate(723.351501 943.168986) rotate (-8.443629 0 0) scale (0.895770 1)"/>
  <path
  d=" M 0 0 10.0 0 C 13.0 -22.0 60.0 21.0 50.0 0  S 90.0 28.0 90.0 0 M 90.0 0 100 0" stroke="black" fill="transparent"
  transform="translate(811.957581 930.015828) rotate (-48.603111 0 0) scale (0.767867 1)"/>
  <path
  d=" M 0 0 10.0 0 C 16.0 -25.0 66.0 26.0 50.0 0  S 90.0 25.0 90.0 0 M 90.0 0 100 0" stroke="black" fill="transparent"
  transform="translate(836.993530 801.710368) rotate (69.995219 0 0) scale (0.752441 1)"/>
  <path
  d=" M 0 0 10.0 0 C 30.0 -29.0 56.0 24.0 50.0 0  S 90.0 25.0 90.0 0 M 90.0 0 100 0" stroke="black" fill="transparent"
  transform="translate(520.503133 935.968831) rotate (-28.004748 0 0) scale (0.760620 1)"/>
  <path
  d=" M 0 0 10.0 0 C 15.0 -22.0 58.0 26.0 50.0 0  S 90.0 26.0 90.0 0 M 90.0 0 100 0" stroke="black" fill="transparent"
  transform="translate(428.064870 909.130046) rotate (16.190276 0 0) scale (0.962557 1)"/>
  <path
  d=" M 0 0 10.0 0 C 21.0 -20.0 62.0 23.0 50.0 0  S 90.0 26.0 90.0 0 M 90.0 0 100 0" stroke="black" fill="transparent"
  transform="translate(415.424164 840.915588) rotate (79.501702 0 0) scale (0.693758 1)"/>
  <path
  d=" M 0 0 10.0 0 C 22.0 -27.0 61.0 25.0 50.0 0  S 90.0 22.0 90.0 0 M 90.0 0 100 0" stroke="black" fill="transparent"
  transform="translate(327.259354 946.748494) rotate (-1.308993 0 0) scale (0.619963 1)"/>
  <path
  d=" M 0 0 10.0 0 C 27.0 -29.0 51.0 23.0 50.0 0  S 90.0 26.0 90.0 0 M 90.0 0 100 0" stroke="black" fill="transparent"
  transform="translate(389.239492 945.332235) rotate (-42.997583 0 0) scale (0.530849 1)"/>
  <path
  d=" M 0 0 10.0 0 C 14.0 -21.0 67.0 20.0 50.0 0  S 90.0 22.0 90.0 0 M 90.0 0 100 0" stroke="black" fill="transparent"
  transform="translate(282.236633 860.071208) rotate (-54.679104 0 0) scale (0.853394 1)"/>
  <path
  d=" M 0 0 10.0 0 C 15.0 -20.0 63.0 27.0 50.0 0  S 90.0 26.0 90.0 0 M 90.0 0 100 0" stroke="black" fill="transparent"
  transform="translate(282.236633 860.071208) rotate (62.551314 0 0) scale (0.976729 1)"/>
  <path
  d=" M 0 0 10.0 0 C 11.0 -21.0 68.0 23.0 50.0 0  S 90.0 27.0 90.0 0 M 90.0 0 100 0" stroke="black" fill="transparent"
  transform="translate(142.751077 672.716980) rotate (-84.233166 0 0) scale (0.920860 1)"/>
  <path
  d=" M 0 0 10.0 0 C 14.0 -25.0 66.0 25.0 50.0 0  S 90.0 27.0 90.0 0 M 90.0 0 100 0" stroke="black" fill="transparent"
  transform="translate(142.751077 672.716980) rotate (27.638724 0 0) scale (0.474980 1)"/>
  <path
  d=" M 0 0 10.0 0 C 23.0 -28.0 64.0 22.0 50.0 0  S 90.0 22.0 90.0 0 M 90.0 0 100 0" stroke="black" fill="transparent"
  transform="translate(184.829051 694.751038) rotate (9.125195 0 0) scale (0.373115 1)"/>
  <path
  d=" M 0 0 10.0 0 C 23.0 -29.0 54.0 23.0 50.0 0  S 90.0 25.0 90.0 0 M 90.0 0 100 0" stroke="black" fill="transparent"
  transform="translate(221.668360 700.668355) rotate (10.066958 0 0) scale (0.735227 1)"/>
  <path
  d=" M 0 0 10.0 0 C 25.0 -25.0 55.0 22.0 50.0 0  S 90.0 23.0 90.0 0 M 90.0 0 100 0" stroke="black" fill="transparent"
  transform="translate(204.397675 504.794515) rotate (50.136477 0 0) scale (0.833478 1)"/>
  <path
  d=" M 0 0 10.0 0 C 16.0 -27.0 56.0 29.0 50.0 0  S 90.0 25.0 90.0 0 M 90.0 0 100 0" stroke="black" fill="transparent"
  transform="translate(152.003915 581.097015) rotate (-55.524230 0 0) scale (0.925590 1)"/>
  <path
  d=" M 0 0 10.0 0 C 28.0 -23.0 52.0 23.0 50.0 0  S 90.0 24.0 90.0 0 M 90.0 0 100 0" stroke="black" fill="transparent"
  transform="translate(298.515925 345.105728) rotate (-19.199084 0 0) scale (0.685277 1)"/>
  <path
  d=" M 0 0 10.0 0 C 26.0 -20.0 63.0 29.0 50.0 0  S 90.0 23.0 90.0 0 M 90.0 0 100 0" stroke="black" fill="transparent"
  transform="translate(298.515925 345.105728) rotate (76.685852 0 0) scale (1.017885 1)"/>
  <path
  d=" M 0 0 10.0 0 C 19.0 -28.0 67.0 29.0 50.0 0  S 90.0 28.0 90.0 0 M 90.0 0 100 0" stroke="black" fill="transparent"
  transform="translate(630.246155 188.398206) rotate (56.100876 0 0) scale (0.945699 1)"/>
  <path
  d=" M 0 0 10.0 0 C 23.0 -22.0 54.0 24.0 50.0 0  S 90.0 29.0 90.0 0 M 90.0 0 100 0" stroke="black" fill="transparent"
  transform="translate(548.175812 201.156125) rotate (-8.835967 0 0) scale (0.830560 1)"/>
  <path
  d=" M 0 0 10.0 0 C 23.0 -24.0 59.0 27.0 50.0 0  S 90.0 22.0 90.0 0 M 90.0 0 100 0" stroke="black" fill="transparent"
  transform="translate(499.981852 282.831009) rotate (-59.456388 0 0) scale (0.948338 1)"/>
  <path
  d=" M 0 0 10.0 0 C 30.0 -22.0 62.0 23.0 50.0 0  S 90.0 27.0 90.0 0 M 90.0 0 100 0" stroke="black" fill="transparent"
  transform="translate(824.060323 255.251450) rotate (-25.948368 0 0) scale (0.537874 1)"/>
  <path
  d=" M 0 0 10.0 0 C 11.0 -28.0 65.0 21.0 50.0 0  S 90.0 29.0 90.0 0 M 90.0 0 100 0" stroke="black" fill="transparent"
  transform="translate(872.425334 231.716187) rotate (54.203037 0 0) scale (0.724326 1)"/>
  <path
  d=" M 0 0 10.0 0 C 18.0 -27.0 60.0 28.0 50.0 0  S 90.0 25.0 90.0 0 M 90.0 0 100 0" stroke="black" fill="transparent"
  transform="translate(874.401265 389.548930) rotate (-67.821860 0 0) scale (1.069994 1)"/>
  <path
  d=" M 0 0 10.0 0 C 23.0 -20.0 66.0 22.0 50.0 0  S 90.0 20.0 90.0 0 M 90.0 0 100 0" stroke="black" fill="transparent"
  transform="translate(789.935099 311.869939) rotate (-58.921695 0 0) scale (0.661074 1)"/>
  <path
  d=" M 0 0 10.0 0 C 23.0 -29.0 64.0 25.0 50.0 0  S 90.0 22.0 90.0 0 M 90.0 0 100 0" stroke="black" fill="transparent"
  transform="translate(976.389262 605.020243) rotate (-51.496105 0 0) scale (0.420349 1)"/>
  <path
  d=" M 0 0 10.0 0 C 21.0 -29.0 53.0 22.0 50.0 0  S 90.0 23.0 90.0 0 M 90.0 0 100 0" stroke="black" fill="transparent"
  transform="translate(921.940918 510.479970) rotate (37.403671 0 0) scale (1.014859 1)"/>
  <path
  d=" M 0 0 10.0 0 C 27.0 -21.0 57.0 21.0 50.0 0  S 90.0 21.0 90.0 0 M 90.0 0 100 0" stroke="black" fill="transparent"
  transform="translate(862.734416 872.414510) rotate (-19.529076 0 0) scale (0.644224 1)"/>
  <path
  d=" M 0 0 10.0 0 C 25.0 -23.0 55.0 23.0 50.0 0  S 90.0 26.0 90.0 0 M 90.0 0 100 0" stroke="black" fill="transparent"
  transform="translate(897.709859 780.174906) rotate (69.995219 0 0) scale (0.752441 1)"/>
  <path
  d=" M 0 0 10.0 0 C 11.0 -20.0 68.0 22.0 50.0 0  S 90.0 20.0 90.0 0 M 90.0 0 100 0" stroke="black" fill="transparent"
  transform="translate(604.754333 1041.828512) rotate (-22.967230 0 0) scale (0.844079 1)"/>
  <path
  d=" M 0 0 10.0 0 C 14.0 -23.0 66.0 26.0 50.0 0  S 90.0 20.0 90.0 0 M 90.0 0 100 0" stroke="black" fill="transparent"
  transform="translate(530.454803 1008.796712) rotate (23.968790 0 0) scale (0.813113 1)"/>
  <path
  d=" M 0 0 10.0 0 C 13.0 -21.0 67.0 21.0 50.0 0  S 90.0 28.0 90.0 0 M 90.0 0 100 0" stroke="black" fill="transparent"
  transform="translate(520.503133 935.968831) rotate (82.218927 0 0) scale (0.735047 1)"/>
  <path
  d=" M 0 0 10.0 0 C 13.0 -27.0 70.0 25.0 50.0 0  S 90.0 29.0 90.0 0 M 90.0 0 100 0" stroke="black" fill="transparent"
  transform="translate(682.471090 1008.892151) rotate (-58.118009 0 0) scale (0.773999 1)"/>
  <path
  d=" M 0 0 10.0 0 C 18.0 -25.0 51.0 20.0 50.0 0  S 90.0 20.0 90.0 0 M 90.0 0 100 0" stroke="black" fill="transparent"
  transform="translate(965.272563 882.343506) rotate (-38.784678 0 0) scale (1.004984 1)"/>
  <path
  d=" M 0 0 10.0 0 C 19.0 -20.0 59.0 23.0 50.0 0  S 90.0 27.0 90.0 0 M 90.0 0 100 0" stroke="black" fill="transparent"
  transform="translate(1043.611654 819.391744) rotate (-79.241935 0 0) scale (0.897507 1)"/>
  <path
  d=" M 0 0 10.0 0 C 13.0 -24.0 70.0 23.0 50.0 0  S 90.0 24.0 90.0 0 M 90.0 0 100 0" stroke="black" fill="transparent"
  transform="translate(979.426900 682.119629) rotate (31.242031 0 0) scale (0.946659 1)"/>
  <path
  d=" M 0 0 10.0 0 C 13.0 -23.0 61.0 20.0 50.0 0  S 90.0 21.0 90.0 0 M 90.0 0 100 0" stroke="black" fill="transparent"
  transform="translate(923.450745 850.879049) rotate (36.955809 0 0) scale (0.523362 1)"/>
  <path
  d=" M 0 0 10.0 0 C 23.0 -26.0 56.0 28.0 50.0 0  S 90.0 23.0 90.0 0 M 90.0 0 100 0" stroke="black" fill="transparent"
  transform="translate(682.471090 1008.892151) rotate (47.369823 0 0) scale (0.559372 1)"/>
  <path
  d=" M 0 0 10.0 0 C 17.0 -20.0 59.0 26.0 50.0 0  S 90.0 28.0 90.0 0 M 90.0 0 100 0" stroke="black" fill="transparent"
  transform="translate(720.355347 1050.047445) rotate (-26.832824 0 0) scale (0.994470 1)"/>
  <path
  d=" M 0 0 10.0 0 C 21.0 -28.0 51.0 21.0 50.0 0  S 90.0 28.0 90.0 0 M 90.0 0 100 0" stroke="black" fill="transparent"
  transform="translate(809.094625 1005.158183) rotate (-87.818062 0 0) scale (0.751969 1)"/>
  <path
  d=" M 0 0 10.0 0 C 17.0 -24.0 62.0 24.0 50.0 0  S 90.0 20.0 90.0 0 M 90.0 0 100 0" stroke="black" fill="transparent"
  transform="translate(448.795878 1063.759989) rotate (-33.943847 0 0) scale (0.984334 1)"/>
  <path
  d=" M 0 0 10.0 0 C 29.0 -20.0 55.0 28.0 50.0 0  S 90.0 25.0 90.0 0 M 90.0 0 100 0" stroke="black" fill="transparent"
  transform="translate(400.018829 1027.134298) rotate (36.902139 0 0) scale (0.609971 1)"/>
  <path
  d=" M 0 0 10.0 0 C 19.0 -21.0 65.0 26.0 50.0 0  S 90.0 21.0 90.0 0 M 90.0 0 100 0" stroke="black" fill="transparent"
  transform="translate(389.239492 945.332235) rotate (82.493190 0 0) scale (0.825092 1)"/>
  <path
  d=" M 0 0 10.0 0 C 11.0 -22.0 68.0 23.0 50.0 0  S 90.0 20.0 90.0 0 M 90.0 0 100 0" stroke="black" fill="transparent"
  transform="translate(188.695821 797.067037) rotate (74.385956 0 0) scale (0.856429 1)"/>
  <path
  d=" M 0 0 10.0 0 C 17.0 -24.0 53.0 28.0 50.0 0  S 90.0 25.0 90.0 0 M 90.0 0 100 0" stroke="black" fill="transparent"
  transform="translate(188.695821 797.067037) rotate (-71.117082 0 0) scale (1.018818 1)"/>
  <path
  d=" M 0 0 10.0 0 C 20.0 -23.0 66.0 21.0 50.0 0  S 90.0 28.0 90.0 0 M 90.0 0 100 0" stroke="black" fill="transparent"
  transform="translate(211.747116 879.549438) rotate (-15.446969 0 0) scale (0.731312 1)"/>
  <path
  d=" M 0 0 10.0 0 C 14.0 -20.0 64.0 28.0 50.0 0  S 90.0 22.0 90.0 0 M 90.0 0 100 0" stroke="black" fill="transparent"
  transform="translate(194.458061 398.619151) rotate (58.195484 0 0) scale (1.106682 1)"/>
  <path
  d=" M 0 0 10.0 0 C 22.0 -20.0 67.0 27.0 50.0 0  S 90.0 29.0 90.0 0 M 90.0 0 100 0" stroke="black" fill="transparent"
  transform="translate(194.458061 398.619151) rotate (-64.491145 0 0) scale (0.789030 1)"/>
  <path
  d=" M 0 0 10.0 0 C 11.0 -25.0 62.0 20.0 50.0 0  S 90.0 25.0 90.0 0 M 90.0 0 100 0" stroke="black" fill="transparent"
  transform="translate(228.437696 327.407689) rotate (14.173503 0 0) scale (0.722785 1)"/>
  <path
  d=" M 0 0 10.0 0 C 21.0 -24.0 58.0 22.0 50.0 0  S 90.0 27.0 90.0 0 M 90.0 0 100 0" stroke="black" fill="transparent"
  transform="translate(446.572032 258.971207) rotate (-59.456388 0 0) scale (0.948338 1)"/>
  <path
  d=" M 0 0 10.0 0 C 23.0 -22.0 66.0 27.0 50.0 0  S 90.0 20.0 90.0 0 M 90.0 0 100 0" stroke="black" fill="transparent"
  transform="translate(494.765991 177.296323) rotate (24.071778 0 0) scale (0.584970 1)"/>
  <path
  d=" M 0 0 10.0 0 C 22.0 -27.0 62.0 20.0 50.0 0  S 90.0 28.0 90.0 0 M 90.0 0 100 0" stroke="black" fill="transparent"
  transform="translate(793.215474 201.903753) rotate (59.964135 0 0) scale (0.616229 1)"/>
  <path
  d=" M 0 0 10.0 0 C 15.0 -24.0 51.0 24.0 50.0 0  S 90.0 23.0 90.0 0 M 90.0 0 100 0" stroke="black" fill="transparent"
  transform="translate(759.090251 258.522242) rotate (-58.921695 0 0) scale (0.661074 1)"/>
  <path
  d=" M 0 0 10.0 0 C 11.0 -20.0 68.0 26.0 50.0 0  S 90.0 29.0 90.0 0 M 90.0 0 100 0" stroke="black" fill="transparent"
  transform="translate(1002.558818 572.125193) rotate (27.415530 0 0) scale (0.578859 1)"/>
  <path
  d=" M 0 0 10.0 0 C 30.0 -21.0 61.0 27.0 50.0 0  S 90.0 22.0 90.0 0 M 90.0 0 100 0" stroke="black" fill="transparent"
  transform="translate(930.669250 439.659119) rotate (-24.174662 0 0) scale (0.833740 1)"/>
  <path
  d=" M 0 0 10.0 0 C 16.0 -25.0 53.0 25.0 50.0 0  S 90.0 25.0 90.0 0 M 90.0 0 100 0" stroke="black" fill="transparent"
  transform="translate(1006.731486 405.515818) rotate (23.589859 0 0) scale (0.513416 1)"/>
  <path
  d=" M 0 0 10.0 0 C 23.0 -22.0 52.0 21.0 50.0 0  S 90.0 26.0 90.0 0 M 90.0 0 100 0" stroke="black" fill="transparent"
  transform="translate(1053.782633 426.062042) rotate (79.044757 0 0) scale (0.957911 1)"/>
  <path
  d=" M 0 0 10.0 0 C 23.0 -20.0 66.0 28.0 50.0 0  S 90.0 22.0 90.0 0 M 90.0 0 100 0" stroke="black" fill="transparent"
  transform="translate(1053.943604 598.778208) rotate (-77.082449 0 0) scale (0.807134 1)"/>
  <path
  d=" M 0 0 10.0 0 C 29.0 -20.0 60.0 28.0 50.0 0  S 90.0 26.0 90.0 0 M 90.0 0 100 0" stroke="black" fill="transparent"
  transform="translate(965.272563 882.343506) rotate (79.170434 0 0) scale (0.703489 1)"/>
  <path
  d=" M 0 0 10.0 0 C 14.0 -25.0 59.0 21.0 50.0 0  S 90.0 20.0 90.0 0 M 90.0 0 100 0" stroke="black" fill="transparent"
  transform="translate(896.965617 1008.647380) rotate (-35.058261 0 0) scale (0.995942 1)"/>
  <path
  d=" M 0 0 10.0 0 C 26.0 -28.0 64.0 28.0 50.0 0  S 90.0 23.0 90.0 0 M 90.0 0 100 0" stroke="black" fill="transparent"
  transform="translate(809.094625 1005.158183) rotate (2.273916 0 0) scale (0.879402 1)"/>
  <path
  d=" M 0 0 10.0 0 C 19.0 -21.0 70.0 24.0 50.0 0  S 90.0 21.0 90.0 0 M 90.0 0 100 0" stroke="black" fill="transparent"
  transform="translate(604.754333 1041.828512) rotate (71.260525 0 0) scale (0.654873 1)"/>
  <path
  d=" M 0 0 10.0 0 C 29.0 -21.0 61.0 25.0 50.0 0  S 90.0 29.0 90.0 0 M 90.0 0 100 0" stroke="black" fill="transparent"
  transform="translate(625.793132 1103.844238) rotate (-1.203545 0 0) scale (0.888103 1)"/>
  <path
  d=" M 0 0 10.0 0 C 19.0 -20.0 54.0 28.0 50.0 0  S 90.0 27.0 90.0 0 M 90.0 0 100 0" stroke="black" fill="transparent"
  transform="translate(714.583862 1101.978841) rotate (-83.658360 0 0) scale (0.522511 1)"/>
  <path
  d=" M 0 0 10.0 0 C 16.0 -23.0 52.0 28.0 50.0 0  S 90.0 23.0 90.0 0 M 90.0 0 100 0" stroke="black" fill="transparent"
  transform="translate(327.259354 946.748494) rotate (82.493190 0 0) scale (0.825092 1)"/>
  <path
  d=" M 0 0 10.0 0 C 25.0 -22.0 57.0 23.0 50.0 0  S 90.0 28.0 90.0 0 M 90.0 0 100 0" stroke="black" fill="transparent"
  transform="translate(338.038691 1028.550557) rotate (-1.308993 0 0) scale (0.619963 1)"/>
  <path
  d=" M 0 0 10.0 0 C 16.0 -29.0 52.0 24.0 50.0 0  S 90.0 29.0 90.0 0 M 90.0 0 100 0" stroke="black" fill="transparent"
  transform="translate(151.856511 791.149719) rotate (9.125195 0 0) scale (0.373115 1)"/>
  <path
  d=" M 0 0 10.0 0 C 13.0 -26.0 63.0 20.0 50.0 0  S 90.0 26.0 90.0 0 M 90.0 0 100 0" stroke="black" fill="transparent"
  transform="translate(151.856511 791.149719) rotate (-71.117082 0 0) scale (1.018818 1)"/>
  <path
  d=" M 0 0 10.0 0 C 18.0 -22.0 66.0 23.0 50.0 0  S 90.0 28.0 90.0 0 M 90.0 0 100 0" stroke="black" fill="transparent"
  transform="translate(157.158221 400.658213) rotate (-3.129062 0 0) scale (0.373555 1)"/>
  <path
  d=" M 0 0 10.0 0 C 24.0 -28.0 67.0 23.0 50.0 0  S 90.0 28.0 90.0 0 M 90.0 0 100 0" stroke="black" fill="transparent"
  transform="translate(157.158221 400.658213) rotate (65.599483 0 0) scale (1.143501 1)"/>
  <path
  d=" M 0 0 10.0 0 C 17.0 -29.0 51.0 28.0 50.0 0  S 90.0 23.0 90.0 0 M 90.0 0 100 0" stroke="black" fill="transparent"
  transform="translate(448.352498 141.688560) rotate (37.494900 0 0) scale (0.584989 1)"/>
  <path
  d=" M 0 0 10.0 0 C 27.0 -28.0 65.0 29.0 50.0 0  S 90.0 28.0 90.0 0 M 90.0 0 100 0" stroke="black" fill="transparent"
  transform="translate(355.266337 173.847672) rotate (67.995177 0 0) scale (0.884563 1)"/>
  <path
  d=" M 0 0 10.0 0 C 13.0 -26.0 61.0 22.0 50.0 0  S 90.0 29.0 90.0 0 M 90.0 0 100 0" stroke="black" fill="transparent"
  transform="translate(355.266337 173.847672) rotate (-19.058845 0 0) scale (0.984847 1)"/>
  <path
  d=" M 0 0 10.0 0 C 26.0 -25.0 65.0 28.0 50.0 0  S 90.0 21.0 90.0 0 M 90.0 0 100 0" stroke="black" fill="transparent"
  transform="translate(655.135111 119.311260) rotate (14.134920 0 0) scale (0.895822 1)"/>
  <path
  d=" M 0 0 10.0 0 C 23.0 -21.0 65.0 27.0 50.0 0  S 90.0 27.0 90.0 0 M 90.0 0 100 0" stroke="black" fill="transparent"
  transform="translate(742.005046 141.187773) rotate (49.854298 0 0) scale (0.794288 1)"/>
  <path
  d=" M 0 0 10.0 0 C 16.0 -27.0 68.0 25.0 50.0 0  S 90.0 20.0 90.0 0 M 90.0 0 100 0" stroke="black" fill="transparent"
  transform="translate(630.246155 188.398206) rotate (-70.188162 0 0) scale (0.734334 1)"/>
  <path
  d=" M 0 0 10.0 0 C 24.0 -24.0 61.0 29.0 50.0 0  S 90.0 29.0 90.0 0 M 90.0 0 100 0" stroke="black" fill="transparent"
  transform="translate(914.792216 290.465881) rotate (6.178582 0 0) scale (0.761397 1)"/>
  <path
  d=" M 0 0 10.0 0 C 24.0 -20.0 61.0 26.0 50.0 0  S 90.0 27.0 90.0 0 M 90.0 0 100 0" stroke="black" fill="transparent"
  transform="translate(990.489644 298.660624) rotate (81.357275 0 0) scale (1.080825 1)"/>
  <path
  d=" M 0 0 10.0 0 C 23.0 -28.0 70.0 23.0 50.0 0  S 90.0 29.0 90.0 0 M 90.0 0 100 0" stroke="black" fill="transparent"
  transform="translate(1060.364726 731.218506) rotate (-46.217271 0 0) scale (0.698733 1)"/>
  <path
  d=" M 0 0 10.0 0 C 30.0 -22.0 68.0 23.0 50.0 0  S 90.0 23.0 90.0 0 M 90.0 0 100 0" stroke="black" fill="transparent"
  transform="translate(1053.943604 598.778208) rotate (56.258852 0 0) scale (0.986031 1)"/>
  <path
  d=" M 0 0 10.0 0 C 21.0 -23.0 56.0 23.0 50.0 0  S 90.0 20.0 90.0 0 M 90.0 0 100 0" stroke="black" fill="transparent"
  transform="translate(448.795878 1063.759989) rotate (33.550130 0 0) scale (1.145563 1)"/>
  <path
  d=" M 0 0 10.0 0 C 30.0 -27.0 64.0 27.0 50.0 0  S 90.0 27.0 90.0 0 M 90.0 0 100 0" stroke="black" fill="transparent"
  transform="translate(544.267405 1127.071411) rotate (-15.902573 0 0) scale (0.847700 1)"/>
  <path
  d=" M 0 0 10.0 0 C 14.0 -29.0 67.0 25.0 50.0 0  S 90.0 24.0 90.0 0 M 90.0 0 100 0" stroke="black" fill="transparent"
  transform="translate(274.794434 1014.795003) rotate (12.270658 0 0) scale (0.647229 1)"/>
  <path
  d=" M 0 0 10.0 0 C 17.0 -26.0 56.0 26.0 50.0 0  S 90.0 24.0 90.0 0 M 90.0 0 100 0" stroke="black" fill="transparent"
  transform="translate(211.747116 879.549438) rotate (65.006516 0 0) scale (1.492191 1)"/>
  <path
  d=" M 0 0 10.0 0 C 23.0 -26.0 64.0 22.0 50.0 0  S 90.0 28.0 90.0 0 M 90.0 0 100 0" stroke="black" fill="transparent"
  transform="translate(109.778538 769.115662) rotate (-71.117082 0 0) scale (1.018818 1)"/>
  <path
  d=" M 0 0 10.0 0 C 28.0 -22.0 67.0 25.0 50.0 0  S 90.0 26.0 90.0 0 M 90.0 0 100 0" stroke="black" fill="transparent"
  transform="translate(109.778538 769.115662) rotate (27.638724 0 0) scale (0.474980 1)"/>
  <path
  d=" M 0 0 10.0 0 C 15.0 -25.0 59.0 27.0 50.0 0  S 90.0 27.0 90.0 0 M 90.0 0 100 0" stroke="black" fill="transparent"
  transform="translate(104.764462 476.960714) rotate (65.599483 0 0) scale (1.143501 1)"/>
  <path
  d=" M 0 0 10.0 0 C 27.0 -22.0 51.0 23.0 50.0 0  S 90.0 26.0 90.0 0 M 90.0 0 100 0" stroke="black" fill="transparent"
  transform="translate(104.764462 476.960714) rotate (-55.524230 0 0) scale (0.925590 1)"/>
  <path
  d=" M 0 0 10.0 0 C 20.0 -21.0 57.0 24.0 50.0 0  S 90.0 26.0 90.0 0 M 90.0 0 100 0" stroke="black" fill="transparent"
  transform="translate(228.437696 327.407689) rotate (-73.195872 0 0) scale (1.092114 1)"/>
  <path
  d=" M 0 0 10.0 0 C 22.0 -28.0 54.0 21.0 50.0 0  S 90.0 27.0 90.0 0 M 90.0 0 100 0" stroke="black" fill="transparent"
  transform="translate(260.010801 222.859746) rotate (-27.227295 0 0) scale (1.071252 1)"/>
  <path
  d=" M 0 0 10.0 0 C 17.0 -20.0 54.0 26.0 50.0 0  S 90.0 27.0 90.0 0 M 90.0 0 100 0" stroke="black" fill="transparent"
  transform="translate(526.651276 96.461417) rotate (10.084174 0 0) scale (1.304999 1)"/>
  <path
  d=" M 0 0 10.0 0 C 30.0 -26.0 56.0 21.0 50.0 0  S 90.0 24.0 90.0 0 M 90.0 0 100 0" stroke="black" fill="transparent"
  transform="translate(448.352498 141.688560) rotate (-30.011701 0 0) scale (0.904223 1)"/>
  <path
  d=" M 0 0 10.0 0 C 23.0 -25.0 54.0 24.0 50.0 0  S 90.0 27.0 90.0 0 M 90.0 0 100 0" stroke="black" fill="transparent"
  transform="translate(742.005046 141.187773) rotate (-2.744459 0 0) scale (0.709524 1)"/>
  <path
  d=" M 0 0 10.0 0 C 30.0 -26.0 65.0 29.0 50.0 0  S 90.0 21.0 90.0 0 M 90.0 0 100 0" stroke="black" fill="transparent"
  transform="translate(812.876038 137.790465) rotate (57.625134 0 0) scale (1.112122 1)"/>
  <path
  d=" M 0 0 10.0 0 C 17.0 -20.0 53.0 26.0 50.0 0  S 90.0 23.0 90.0 0 M 90.0 0 100 0" stroke="black" fill="transparent"
  transform="translate(990.489644 298.660624) rotate (23.589859 0 0) scale (0.513416 1)"/>
  <path
  d=" M 0 0 10.0 0 C 29.0 -23.0 70.0 28.0 50.0 0  S 90.0 25.0 90.0 0 M 90.0 0 100 0" stroke="black" fill="transparent"
  transform="translate(1037.540792 319.206848) rotate (81.357275 0 0) scale (1.080825 1)"/>
  <path
  d=" M 0 0 10.0 0 C 27.0 -29.0 67.0 20.0 50.0 0  S 90.0 24.0 90.0 0 M 90.0 0 100 0" stroke="black" fill="transparent"
  transform="translate(1071.986979 520.107442) rotate (56.258852 0 0) scale (0.986031 1)"/>
  <path
  d=" M 0 0 10.0 0 C 12.0 -22.0 57.0 28.0 50.0 0  S 90.0 23.0 90.0 0 M 90.0 0 100 0" stroke="black" fill="transparent"
  transform="translate(1108.711873 680.772135) rotate (-77.082449 0 0) scale (0.807134 1)"/>
  <path
  d=" M 0 0 10.0 0 C 21.0 -21.0 57.0 24.0 50.0 0  S 90.0 28.0 90.0 0 M 90.0 0 100 0" stroke="black" fill="transparent"
  transform="translate(978.490295 951.439555) rotate (-38.784678 0 0) scale (1.004984 1)"/>
  <path
  d=" M 0 0 10.0 0 C 19.0 -24.0 63.0 20.0 50.0 0  S 90.0 22.0 90.0 0 M 90.0 0 100 0" stroke="black" fill="transparent"
  transform="translate(1043.611654 819.391744) rotate (79.170434 0 0) scale (0.703489 1)"/>
  <path
  d=" M 0 0 10.0 0 C 19.0 -21.0 68.0 29.0 50.0 0  S 90.0 23.0 90.0 0 M 90.0 0 100 0" stroke="black" fill="transparent"
  transform="translate(829.398336 1083.816264) rotate (-48.048483 0 0) scale (1.010727 1)"/>
  <path
  d=" M 0 0 10.0 0 C 14.0 -22.0 63.0 21.0 50.0 0  S 90.0 24.0 90.0 0 M 90.0 0 100 0" stroke="black" fill="transparent"
  transform="translate(714.583862 1101.978841) rotate (-8.989169 0 0) scale (1.162422 1)"/>
  <path
  d=" M 0 0 10.0 0 C 21.0 -25.0 69.0 27.0 50.0 0  S 90.0 28.0 90.0 0 M 90.0 0 100 0" stroke="black" fill="transparent"
  transform="translate(104.764462 476.960714) rotate (-41.135113 0 0) scale (1.190896 1)"/>
  <path
  d=" M 0 0 10.0 0 C 21.0 -25.0 59.0 25.0 50.0 0  S 90.0 23.0 90.0 0 M 90.0 0 100 0" stroke="black" fill="transparent"
  transform="translate(655.135111 119.311260) rotate (6.681693 0 0) scale (1.588196 1)"/>
  <path
  d=" M 0 0 10.0 0 C 17.0 -22.0 67.0 22.0 50.0 0  S 90.0 24.0 90.0 0 M 90.0 0 100 0" stroke="black" fill="transparent"
  transform="translate(914.792216 290.465881) rotate (13.178119 0 0) scale (1.260685 1)"/>
  <path
  d=" M 0 0 10.0 0 C 14.0 -22.0 61.0 24.0 50.0 0  S 90.0 29.0 90.0 0 M 90.0 0 100 0" stroke="black" fill="transparent"
  transform="translate(1037.540792 319.206848) rotate (72.496655 0 0) scale (2.966286 1)"/>
  <path
  d=" M 0 0 10.0 0 C 15.0 -22.0 61.0 29.0 50.0 0  S 90.0 29.0 90.0 0 M 90.0 0 100 0" stroke="black" fill="transparent"
  transform="translate(1056.829386 888.487793) rotate (-76.278780 0 0) scale (2.947996 1)"/>
  <path
  d=" M 0 0 10.0 0 C 13.0 -21.0 61.0 23.0 50.0 0  S 90.0 27.0 90.0 0 M 90.0 0 100 0" stroke="black" fill="transparent"
  transform="translate(829.398336 1083.816264) rotate (-40.657533 0 0) scale (2.997968 1)"/>
  <path
  d=" M 0 0 10.0 0 C 24.0 -22.0 62.0 21.0 50.0 0  S 90.0 25.0 90.0 0 M 90.0 0 100 0" stroke="black" fill="transparent"
  transform="translate(544.267405 1127.071411) rotate (-8.626155 0 0) scale (2.883932 1)"/>
  <path
  d=" M 0 0 10.0 0 C 25.0 -25.0 62.0 28.0 50.0 0  S 90.0 23.0 90.0 0 M 90.0 0 100 0" stroke="black" fill="transparent"
  transform="translate(338.038691 1028.550557) rotate (25.535027 0 0) scale (2.285534 1)"/>
  <path
  d=" M 0 0 10.0 0 C 30.0 -29.0 58.0 27.0 50.0 0  S 90.0 26.0 90.0 0 M 90.0 0 100 0" stroke="black" fill="transparent"
  transform="translate(109.778538 769.115662) rotate (56.111854 0 0) scale (2.959537 1)"/>
  <path
  d=" M 0 0 10.0 0 C 13.0 -26.0 52.0 29.0 50.0 0  S 90.0 24.0 90.0 0 M 90.0 0 100 0" stroke="black" fill="transparent"
  transform="translate(104.764462 476.960714) rotate (89.016764 0 0) scale (2.921980 1)"/>
  
</svg>
