<svg xmlns="http://www.w3.org/2000/svg"
  xmlns:xlink="http://www.w3.org/1999/xlink"
  width="1500" height="1500">
<path
  d=" M 0 0 10.0 0 C 29.0 -24.0 61.0 25.0 50.0 0  S 90.0 22.0 90.0 0 M 90.0 0 100 0" stroke="black" fill="transparent"
  transform="translate(492.666667 345.666667) rotate (-12.414293 0 0) scale (0.542689 1)"/>
  <path
  d=" M 0 0 10.0 0 C 26.0 -22.0 60.0 22.0 50.0 0  S 90.0 26.0 90.0 0 M 90.0 0 100 0" stroke="black" fill="transparent"
  transform="translate(545.666667 334.000000) rotate (-82.226108 0 0) scale (0.985726 1)"/>
  <path
  d=" M 0 0 10.0 0 C 15.0 -22.0 63.0 23.0 50.0 0  S 90.0 25.0 90.0 0 M 90.0 0 100 0" stroke="black" fill="transparent"
  transform="translate(513.000000 208.000000) rotate (31.630661 0 0) scale (0.540257 1)"/>
  <path
  d=" M 0 0 10.0 0 C 26.0 -22.0 61.0 23.0 50.0 0  S 90.0 24.0 90.0 0 M 90.0 0 100 0" stroke="black" fill="transparent"
  transform="translate(468.333333 227.666667) rotate (-23.763822 0 0) scale (0.488046 1)"/>
  <path
  d=" M 0 0 10.0 0 C 19.0 -22.0 56.0 26.0 50.0 0  S 90.0 24.0 90.0 0 M 90.0 0 100 0" stroke="black" fill="transparent"
  transform="translate(461.333333 267.666667) rotate (-80.073754 0 0) scale (0.406079 1)"/>
  <path
  d=" M 0 0 10.0 0 C 25.0 -24.0 53.0 27.0 50.0 0  S 90.0 26.0 90.0 0 M 90.0 0 100 0" stroke="black" fill="transparent"
  transform="translate(461.333333 267.666667) rotate (68.114208 0 0) scale (0.840582 1)"/>
  <path
  d=" M 0 0 10.0 0 C 24.0 -21.0 62.0 29.0 50.0 0  S 90.0 22.0 90.0 0 M 90.0 0 100 0" stroke="black" fill="transparent"
  transform="translate(955.000000 748.333333) rotate (53.901716 0 0) scale (0.594054 1)"/>
  <path
  d=" M 0 0 10.0 0 C 14.0 -23.0 62.0 20.0 50.0 0  S 90.0 22.0 90.0 0 M 90.0 0 100 0" stroke="black" fill="transparent"
  transform="translate(913.000000 788.666667) rotate (-43.840325 0 0) scale (0.582304 1)"/>
  <path
  d=" M 0 0 10.0 0 C 19.0 -22.0 52.0 20.0 50.0 0  S 90.0 24.0 90.0 0 M 90.0 0 100 0" stroke="black" fill="transparent"
  transform="translate(913.000000 788.666667) rotate (54.304772 0 0) scale (0.422756 1)"/>
  <path
  d=" M 0 0 10.0 0 C 25.0 -22.0 63.0 20.0 50.0 0  S 90.0 24.0 90.0 0 M 90.0 0 100 0" stroke="black" fill="transparent"
  transform="translate(937.666667 823.000000) rotate (36.384352 0 0) scale (0.314678 1)"/>
  <path
  d=" M 0 0 10.0 0 C 24.0 -24.0 55.0 23.0 50.0 0  S 90.0 28.0 90.0 0 M 90.0 0 100 0" stroke="black" fill="transparent"
  transform="translate(963.000000 841.666667) rotate (-59.222470 0 0) scale (0.527647 1)"/>
  <path
  d=" M 0 0 10.0 0 C 27.0 -27.0 61.0 21.0 50.0 0  S 90.0 24.0 90.0 0 M 90.0 0 100 0" stroke="black" fill="transparent"
  transform="translate(389.000000 272.333333) rotate (-3.691386 0 0) scale (0.724837 1)"/>
  <path
  d=" M 0 0 10.0 0 C 23.0 -24.0 55.0 23.0 50.0 0  S 90.0 21.0 90.0 0 M 90.0 0 100 0" stroke="black" fill="transparent"
  transform="translate(469.000000 390.333333) rotate (-62.083087 0 0) scale (0.505492 1)"/>
  <path
  d=" M 0 0 10.0 0 C 23.0 -24.0 70.0 21.0 50.0 0  S 90.0 29.0 90.0 0 M 90.0 0 100 0" stroke="black" fill="transparent"
  transform="translate(404.333333 386.666667) rotate (3.245255 0 0) scale (0.647705 1)"/>
  <path
  d=" M 0 0 10.0 0 C 25.0 -22.0 70.0 25.0 50.0 0  S 90.0 26.0 90.0 0 M 90.0 0 100 0" stroke="black" fill="transparent"
  transform="translate(355.666667 346.666667) rotate (39.417394 0 0) scale (0.629956 1)"/>
  <path
  d=" M 0 0 10.0 0 C 12.0 -24.0 65.0 20.0 50.0 0  S 90.0 26.0 90.0 0 M 90.0 0 100 0" stroke="black" fill="transparent"
  transform="translate(355.666667 346.666667) rotate (-65.847081 0 0) scale (0.814651 1)"/>
  <path
  d=" M 0 0 10.0 0 C 25.0 -26.0 69.0 28.0 50.0 0  S 90.0 25.0 90.0 0 M 90.0 0 100 0" stroke="black" fill="transparent"
  transform="translate(557.000000 1020.666667) rotate (-20.897765 0 0) scale (0.981212 1)"/>
  <path
  d=" M 0 0 10.0 0 C 18.0 -26.0 56.0 25.0 50.0 0  S 90.0 28.0 90.0 0 M 90.0 0 100 0" stroke="black" fill="transparent"
  transform="translate(89.333333 351.666667) rotate (-61.179603 0 0) scale (0.871251 1)"/>
  <path
  d=" M 0 0 10.0 0 C 29.0 -21.0 61.0 23.0 50.0 0  S 90.0 23.0 90.0 0 M 90.0 0 100 0" stroke="black" fill="transparent"
  transform="translate(59.333333 458.333333) rotate (-74.291362 0 0) scale (1.108051 1)"/>
  <path
  d=" M 0 0 10.0 0 C 16.0 -29.0 60.0 22.0 50.0 0  S 90.0 20.0 90.0 0 M 90.0 0 100 0" stroke="black" fill="transparent"
  transform="translate(59.333333 458.333333) rotate (-68.523209 0 0) scale (1.966545 1)"/>
  <path
  d=" M 0 0 10.0 0 C 19.0 -27.0 58.0 23.0 50.0 0  S 90.0 29.0 90.0 0 M 90.0 0 100 0" stroke="black" fill="transparent"
  transform="translate(240.666667 416.000000) rotate (-55.831815 0 0) scale (0.664739 1)"/>
  <path
  d=" M 0 0 10.0 0 C 11.0 -26.0 70.0 24.0 50.0 0  S 90.0 29.0 90.0 0 M 90.0 0 100 0" stroke="black" fill="transparent"
  transform="translate(240.666667 416.000000) rotate (61.626210 0 0) scale (0.708441 1)"/>
  <path
  d=" M 0 0 10.0 0 C 24.0 -28.0 60.0 21.0 50.0 0  S 90.0 21.0 90.0 0 M 90.0 0 100 0" stroke="black" fill="transparent"
  transform="translate(274.333333 478.333333) rotate (6.488115 0 0) scale (0.855479 1)"/>
  <path
  d=" M 0 0 10.0 0 C 22.0 -25.0 70.0 27.0 50.0 0  S 90.0 26.0 90.0 0 M 90.0 0 100 0" stroke="black" fill="transparent"
  transform="translate(359.333333 488.000000) rotate (-51.918386 0 0) scale (0.567460 1)"/>
  <path
  d=" M 0 0 10.0 0 C 13.0 -21.0 51.0 23.0 50.0 0  S 90.0 25.0 90.0 0 M 90.0 0 100 0" stroke="black" fill="transparent"
  transform="translate(394.333333 443.333333) rotate (-79.992020 0 0) scale (0.575423 1)"/>
  <path
  d=" M 0 0 10.0 0 C 26.0 -26.0 55.0 25.0 50.0 0  S 90.0 25.0 90.0 0 M 90.0 0 100 0" stroke="black" fill="transparent"
  transform="translate(278.000000 361.000000) rotate (-10.456251 0 0) scale (0.789782 1)"/>
  <path
  d=" M 0 0 10.0 0 C 12.0 -27.0 67.0 25.0 50.0 0  S 90.0 29.0 90.0 0 M 90.0 0 100 0" stroke="black" fill="transparent"
  transform="translate(552.666667 497.666667) rotate (-18.698983 0 0) scale (0.457481 1)"/>
  <path
  d=" M 0 0 10.0 0 C 17.0 -22.0 51.0 25.0 50.0 0  S 90.0 23.0 90.0 0 M 90.0 0 100 0" stroke="black" fill="transparent"
  transform="translate(596.000000 483.000000) rotate (11.469530 0 0) scale (0.469373 1)"/>
  <path
  d=" M 0 0 10.0 0 C 27.0 -20.0 59.0 25.0 50.0 0  S 90.0 20.0 90.0 0 M 90.0 0 100 0" stroke="black" fill="transparent"
  transform="translate(642.000000 492.333333) rotate (74.054604 0 0) scale (0.558142 1)"/>
  <path
  d=" M 0 0 10.0 0 C 16.0 -20.0 67.0 28.0 50.0 0  S 90.0 20.0 90.0 0 M 90.0 0 100 0" stroke="black" fill="transparent"
  transform="translate(607.666667 613.000000) rotate (-53.450699 0 0) scale (0.834013 1)"/>
  <path
  d=" M 0 0 10.0 0 C 13.0 -20.0 70.0 23.0 50.0 0  S 90.0 20.0 90.0 0 M 90.0 0 100 0" stroke="black" fill="transparent"
  transform="translate(543.000000 605.333333) rotate (6.761239 0 0) scale (0.651195 1)"/>
  <path
  d=" M 0 0 10.0 0 C 16.0 -22.0 65.0 26.0 50.0 0  S 90.0 28.0 90.0 0 M 90.0 0 100 0" stroke="black" fill="transparent"
  transform="translate(533.333333 547.333333) rotate (80.537678 0 0) scale (0.588000 1)"/>
  <path
  d=" M 0 0 10.0 0 C 22.0 -29.0 70.0 25.0 50.0 0  S 90.0 20.0 90.0 0 M 90.0 0 100 0" stroke="black" fill="transparent"
  transform="translate(533.333333 547.333333) rotate (-68.730940 0 0) scale (0.532969 1)"/>
  <path
  d=" M 0 0 10.0 0 C 28.0 -26.0 62.0 27.0 50.0 0  S 90.0 27.0 90.0 0 M 90.0 0 100 0" stroke="black" fill="transparent"
  transform="translate(496.333333 990.000000) rotate (-36.769025 0 0) scale (0.757335 1)"/>
  <path
  d=" M 0 0 10.0 0 C 27.0 -24.0 55.0 21.0 50.0 0  S 90.0 25.0 90.0 0 M 90.0 0 100 0" stroke="black" fill="transparent"
  transform="translate(518.666667 898.333333) rotate (50.397749 0 0) scale (0.601350 1)"/>
  <path
  d=" M 0 0 10.0 0 C 13.0 -27.0 54.0 23.0 50.0 0  S 90.0 25.0 90.0 0 M 90.0 0 100 0" stroke="black" fill="transparent"
  transform="translate(456.000000 918.333333) rotate (-17.700428 0 0) scale (0.657808 1)"/>
  <path
  d=" M 0 0 10.0 0 C 22.0 -22.0 69.0 20.0 50.0 0  S 90.0 25.0 90.0 0 M 90.0 0 100 0" stroke="black" fill="transparent"
  transform="translate(445.000000 975.666667) rotate (-79.139185 0 0) scale (0.583790 1)"/>
  <path
  d=" M 0 0 10.0 0 C 21.0 -22.0 65.0 21.0 50.0 0  S 90.0 29.0 90.0 0 M 90.0 0 100 0" stroke="black" fill="transparent"
  transform="translate(445.000000 975.666667) rotate (15.600838 0 0) scale (0.532969 1)"/>
  <path
  d=" M 0 0 10.0 0 C 26.0 -25.0 67.0 25.0 50.0 0  S 90.0 29.0 90.0 0 M 90.0 0 100 0" stroke="black" fill="transparent"
  transform="translate(89.333333 351.666667) rotate (68.380915 0 0) scale (0.778067 1)"/>
  <path
  d=" M 0 0 10.0 0 C 29.0 -25.0 59.0 24.0 50.0 0  S 90.0 29.0 90.0 0 M 90.0 0 100 0" stroke="black" fill="transparent"
  transform="translate(118.000000 424.000000) rotate (79.963098 0 0) scale (0.382521 1)"/>
  <path
  d=" M 0 0 10.0 0 C 30.0 -27.0 70.0 20.0 50.0 0  S 90.0 26.0 90.0 0 M 90.0 0 100 0" stroke="black" fill="transparent"
  transform="translate(112.000000 528.333333) rotate (-79.242033 0 0) scale (0.678593 1)"/>
  <path
  d=" M 0 0 10.0 0 C 21.0 -20.0 68.0 23.0 50.0 0  S 90.0 27.0 90.0 0 M 90.0 0 100 0" stroke="black" fill="transparent"
  transform="translate(75.333333 597.333333) rotate (-62.013780 0 0) scale (0.781373 1)"/>
  <path
  d=" M 0 0 10.0 0 C 30.0 -22.0 60.0 21.0 50.0 0  S 90.0 26.0 90.0 0 M 90.0 0 100 0" stroke="black" fill="transparent"
  transform="translate(59.333333 458.333333) rotate (83.433701 0 0) scale (1.399178 1)"/>
  <path
  d=" M 0 0 10.0 0 C 30.0 -25.0 67.0 26.0 50.0 0  S 90.0 24.0 90.0 0 M 90.0 0 100 0" stroke="black" fill="transparent"
  transform="translate(634.666667 356.666667) rotate (-49.993744 0 0) scale (0.487397 1)"/>
  <path
  d=" M 0 0 10.0 0 C 17.0 -26.0 65.0 28.0 50.0 0  S 90.0 26.0 90.0 0 M 90.0 0 100 0" stroke="black" fill="transparent"
  transform="translate(666.000000 319.333333) rotate (-85.436770 0 0) scale (0.712258 1)"/>
  <path
  d=" M 0 0 10.0 0 C 15.0 -25.0 54.0 25.0 50.0 0  S 90.0 26.0 90.0 0 M 90.0 0 100 0" stroke="black" fill="transparent"
  transform="translate(622.000000 194.666667) rotate (47.216794 0 0) scale (0.731224 1)"/>
  <path
  d=" M 0 0 10.0 0 C 21.0 -24.0 70.0 20.0 50.0 0  S 90.0 22.0 90.0 0 M 90.0 0 100 0" stroke="black" fill="transparent"
  transform="translate(559.000000 236.333333) rotate (-33.479680 0 0) scale (0.755322 1)"/>
  <path
  d=" M 0 0 10.0 0 C 28.0 -20.0 53.0 20.0 50.0 0  S 90.0 20.0 90.0 0 M 90.0 0 100 0" stroke="black" fill="transparent"
  transform="translate(545.666667 334.000000) rotate (46.416921 0 0) scale (0.667241 1)"/>
  <path
  d=" M 0 0 10.0 0 C 27.0 -26.0 62.0 20.0 50.0 0  S 90.0 26.0 90.0 0 M 90.0 0 100 0" stroke="black" fill="transparent"
  transform="translate(591.666667 382.333333) rotate (-30.832944 0 0) scale (0.500777 1)"/>
  <path
  d=" M 0 0 10.0 0 C 23.0 -22.0 55.0 23.0 50.0 0  S 90.0 26.0 90.0 0 M 90.0 0 100 0" stroke="black" fill="transparent"
  transform="translate(125.666667 943.333333) rotate (-17.102729 0 0) scale (0.589397 1)"/>
  <path
  d=" M 0 0 10.0 0 C 19.0 -22.0 60.0 21.0 50.0 0  S 90.0 20.0 90.0 0 M 90.0 0 100 0" stroke="black" fill="transparent"
  transform="translate(99.666667 897.666667) rotate (60.345277 0 0) scale (0.525494 1)"/>
  <path
  d=" M 0 0 10.0 0 C 19.0 -27.0 69.0 27.0 50.0 0  S 90.0 22.0 90.0 0 M 90.0 0 100 0" stroke="black" fill="transparent"
  transform="translate(99.666667 897.666667) rotate (-17.102729 0 0) scale (0.589397 1)"/>
  <path
  d=" M 0 0 10.0 0 C 20.0 -26.0 52.0 21.0 50.0 0  S 90.0 25.0 90.0 0 M 90.0 0 100 0" stroke="black" fill="transparent"
  transform="translate(156.000000 880.333333) rotate (60.345277 0 0) scale (0.525494 1)"/>
  <path
  d=" M 0 0 10.0 0 C 27.0 -29.0 60.0 20.0 50.0 0  S 90.0 22.0 90.0 0 M 90.0 0 100 0" stroke="black" fill="transparent"
  transform="translate(273.666667 99.333333) rotate (24.157637 0 0) scale (0.496846 1)"/>
  <path
  d=" M 0 0 10.0 0 C 22.0 -22.0 62.0 28.0 50.0 0  S 90.0 22.0 90.0 0 M 90.0 0 100 0" stroke="black" fill="transparent"
  transform="translate(224.000000 146.333333) rotate (-43.419828 0 0) scale (0.683797 1)"/>
  <path
  d=" M 0 0 10.0 0 C 16.0 -22.0 69.0 28.0 50.0 0  S 90.0 28.0 90.0 0 M 90.0 0 100 0" stroke="black" fill="transparent"
  transform="translate(224.000000 146.333333) rotate (24.157637 0 0) scale (0.496846 1)"/>
  <path
  d=" M 0 0 10.0 0 C 28.0 -29.0 62.0 21.0 50.0 0  S 90.0 24.0 90.0 0 M 90.0 0 100 0" stroke="black" fill="transparent"
  transform="translate(269.333333 166.666667) rotate (-43.419828 0 0) scale (0.683797 1)"/>
  <path
  d=" M 0 0 10.0 0 C 26.0 -27.0 60.0 22.0 50.0 0  S 90.0 22.0 90.0 0 M 90.0 0 100 0" stroke="black" fill="transparent"
  transform="translate(732.666667 667.000000) rotate (-33.111342 0 0) scale (0.640711 1)"/>
  <path
  d=" M 0 0 10.0 0 C 30.0 -25.0 55.0 25.0 50.0 0  S 90.0 21.0 90.0 0 M 90.0 0 100 0" stroke="black" fill="transparent"
  transform="translate(779.666667 582.000000) rotate (82.405357 0 0) scale (0.504425 1)"/>
  <path
  d=" M 0 0 10.0 0 C 30.0 -26.0 66.0 21.0 50.0 0  S 90.0 23.0 90.0 0 M 90.0 0 100 0" stroke="black" fill="transparent"
  transform="translate(723.333333 537.000000) rotate (38.618439 0 0) scale (0.721002 1)"/>
  <path
  d=" M 0 0 10.0 0 C 17.0 -29.0 64.0 27.0 50.0 0  S 90.0 26.0 90.0 0 M 90.0 0 100 0" stroke="black" fill="transparent"
  transform="translate(657.333333 546.000000) rotate (-7.765166 0 0) scale (0.666108 1)"/>
  <path
  d=" M 0 0 10.0 0 C 21.0 -26.0 62.0 25.0 50.0 0  S 90.0 25.0 90.0 0 M 90.0 0 100 0" stroke="black" fill="transparent"
  transform="translate(607.666667 613.000000) rotate (70.597672 0 0) scale (0.561911 1)"/>
  <path
  d=" M 0 0 10.0 0 C 13.0 -22.0 69.0 28.0 50.0 0  S 90.0 21.0 90.0 0 M 90.0 0 100 0" stroke="black" fill="transparent"
  transform="translate(626.333333 666.000000) rotate (0.538816 0 0) scale (1.063380 1)"/>
  <path
  d=" M 0 0 10.0 0 C 11.0 -26.0 55.0 27.0 50.0 0  S 90.0 25.0 90.0 0 M 90.0 0 100 0" stroke="black" fill="transparent"
  transform="translate(978.666667 237.000000) rotate (55.491477 0 0) scale (0.711938 1)"/>
  <path
  d=" M 0 0 10.0 0 C 29.0 -26.0 56.0 28.0 50.0 0  S 90.0 29.0 90.0 0 M 90.0 0 100 0" stroke="black" fill="transparent"
  transform="translate(880.333333 345.666667) rotate (28.162527 0 0) scale (0.748628 1)"/>
  <path
  d=" M 0 0 10.0 0 C 12.0 -26.0 56.0 22.0 50.0 0  S 90.0 21.0 90.0 0 M 90.0 0 100 0" stroke="black" fill="transparent"
  transform="translate(850.666667 384.000000) rotate (-52.263245 0 0) scale (0.484722 1)"/>
  <path
  d=" M 0 0 10.0 0 C 19.0 -26.0 60.0 29.0 50.0 0  S 90.0 21.0 90.0 0 M 90.0 0 100 0" stroke="black" fill="transparent"
  transform="translate(850.666667 384.000000) rotate (65.968508 0 0) scale (0.843076 1)"/>
  <path
  d=" M 0 0 10.0 0 C 15.0 -28.0 62.0 20.0 50.0 0  S 90.0 25.0 90.0 0 M 90.0 0 100 0" stroke="black" fill="transparent"
  transform="translate(885.000000 461.000000) rotate (-11.828172 0 0) scale (0.650478 1)"/>
  <path
  d=" M 0 0 10.0 0 C 26.0 -20.0 62.0 26.0 50.0 0  S 90.0 28.0 90.0 0 M 90.0 0 100 0" stroke="black" fill="transparent"
  transform="translate(946.333333 381.000000) rotate (87.995466 0 0) scale (0.667075 1)"/>
  <path
  d=" M 0 0 10.0 0 C 18.0 -27.0 54.0 25.0 50.0 0  S 90.0 21.0 90.0 0 M 90.0 0 100 0" stroke="black" fill="transparent"
  transform="translate(622.000000 194.666667) rotate (-83.837011 0 0) scale (0.714127 1)"/>
  <path
  d=" M 0 0 10.0 0 C 16.0 -23.0 65.0 22.0 50.0 0  S 90.0 25.0 90.0 0 M 90.0 0 100 0" stroke="black" fill="transparent"
  transform="translate(585.000000 120.000000) rotate (4.692863 0 0) scale (0.448169 1)"/>
  <path
  d=" M 0 0 10.0 0 C 28.0 -21.0 57.0 26.0 50.0 0  S 90.0 22.0 90.0 0 M 90.0 0 100 0" stroke="black" fill="transparent"
  transform="translate(531.333333 162.666667) rotate (-38.485790 0 0) scale (0.685606 1)"/>
  <path
  d=" M 0 0 10.0 0 C 11.0 -20.0 70.0 20.0 50.0 0  S 90.0 24.0 90.0 0 M 90.0 0 100 0" stroke="black" fill="transparent"
  transform="translate(513.000000 208.000000) rotate (-67.981013 0 0) scale (0.489001 1)"/>
  <path
  d=" M 0 0 10.0 0 C 23.0 -26.0 64.0 27.0 50.0 0  S 90.0 23.0 90.0 0 M 90.0 0 100 0" stroke="black" fill="transparent"
  transform="translate(596.000000 483.000000) rotate (-87.780344 0 0) scale (0.430323 1)"/>
  <path
  d=" M 0 0 10.0 0 C 19.0 -27.0 65.0 29.0 50.0 0  S 90.0 26.0 90.0 0 M 90.0 0 100 0" stroke="black" fill="transparent"
  transform="translate(591.666667 382.333333) rotate (84.059963 0 0) scale (0.579780 1)"/>
  <path
  d=" M 0 0 10.0 0 C 28.0 -27.0 65.0 20.0 50.0 0  S 90.0 26.0 90.0 0 M 90.0 0 100 0" stroke="black" fill="transparent"
  transform="translate(469.000000 390.333333) rotate (75.520185 0 0) scale (0.626569 1)"/>
  <path
  d=" M 0 0 10.0 0 C 22.0 -24.0 57.0 29.0 50.0 0  S 90.0 20.0 90.0 0 M 90.0 0 100 0" stroke="black" fill="transparent"
  transform="translate(484.666667 451.000000) rotate (34.460816 0 0) scale (0.824729 1)"/>
  <path
  d=" M 0 0 10.0 0 C 27.0 -25.0 59.0 25.0 50.0 0  S 90.0 28.0 90.0 0 M 90.0 0 100 0" stroke="black" fill="transparent"
  transform="translate(251.333333 529.666667) rotate (52.678964 0 0) scale (0.846693 1)"/>
  <path
  d=" M 0 0 10.0 0 C 17.0 -25.0 59.0 24.0 50.0 0  S 90.0 25.0 90.0 0 M 90.0 0 100 0" stroke="black" fill="transparent"
  transform="translate(226.000000 547.666667) rotate (-35.394796 0 0) scale (0.310770 1)"/>
  <path
  d=" M 0 0 10.0 0 C 19.0 -24.0 61.0 27.0 50.0 0  S 90.0 27.0 90.0 0 M 90.0 0 100 0" stroke="black" fill="transparent"
  transform="translate(226.000000 547.666667) rotate (52.678964 0 0) scale (0.846693 1)"/>
  <path
  d=" M 0 0 10.0 0 C 13.0 -28.0 62.0 21.0 50.0 0  S 90.0 21.0 90.0 0 M 90.0 0 100 0" stroke="black" fill="transparent"
  transform="translate(277.333333 615.000000) rotate (-35.394796 0 0) scale (0.310770 1)"/>
  <path
  d=" M 0 0 10.0 0 C 26.0 -20.0 54.0 29.0 50.0 0  S 90.0 29.0 90.0 0 M 90.0 0 100 0" stroke="black" fill="transparent"
  transform="translate(266.333333 838.666667) rotate (-71.291565 0 0) scale (0.883340 1)"/>
  <path
  d=" M 0 0 10.0 0 C 28.0 -21.0 60.0 27.0 50.0 0  S 90.0 22.0 90.0 0 M 90.0 0 100 0" stroke="black" fill="transparent"
  transform="translate(266.333333 838.666667) rotate (49.784530 0 0) scale (0.536915 1)"/>
  <path
  d=" M 0 0 10.0 0 C 16.0 -24.0 56.0 23.0 50.0 0  S 90.0 28.0 90.0 0 M 90.0 0 100 0" stroke="black" fill="transparent"
  transform="translate(301.000000 879.666667) rotate (-24.559891 0 0) scale (0.681673 1)"/>
  <path
  d=" M 0 0 10.0 0 C 28.0 -25.0 59.0 22.0 50.0 0  S 90.0 23.0 90.0 0 M 90.0 0 100 0" stroke="black" fill="transparent"
  transform="translate(363.000000 851.333333) rotate (-71.794539 0 0) scale (0.789522 1)"/>
  <path
  d=" M 0 0 10.0 0 C 15.0 -24.0 64.0 29.0 50.0 0  S 90.0 25.0 90.0 0 M 90.0 0 100 0" stroke="black" fill="transparent"
  transform="translate(354.000000 721.000000) rotate (58.682258 0 0) scale (0.647705 1)"/>
  <path
  d=" M 0 0 10.0 0 C 30.0 -20.0 62.0 24.0 50.0 0  S 90.0 27.0 90.0 0 M 90.0 0 100 0" stroke="black" fill="transparent"
  transform="translate(294.666667 755.000000) rotate (-29.814163 0 0) scale (0.683845 1)"/>
  <path
  d=" M 0 0 10.0 0 C 13.0 -24.0 69.0 27.0 50.0 0  S 90.0 28.0 90.0 0 M 90.0 0 100 0" stroke="black" fill="transparent"
  transform="translate(421.666667 159.000000) rotate (-32.295976 0 0) scale (0.417998 1)"/>
  <path
  d=" M 0 0 10.0 0 C 23.0 -26.0 68.0 27.0 50.0 0  S 90.0 25.0 90.0 0 M 90.0 0 100 0" stroke="black" fill="transparent"
  transform="translate(457.000000 136.666667) rotate (-38.485790 0 0) scale (0.685606 1)"/>
  <path
  d=" M 0 0 10.0 0 C 16.0 -24.0 70.0 26.0 50.0 0  S 90.0 24.0 90.0 0 M 90.0 0 100 0" stroke="black" fill="transparent"
  transform="translate(421.666667 159.000000) rotate (-36.142041 0 0) scale (1.102089 1)"/>
  <path
  d=" M 0 0 10.0 0 C 26.0 -24.0 68.0 29.0 50.0 0  S 90.0 25.0 90.0 0 M 90.0 0 100 0" stroke="black" fill="transparent"
  transform="translate(802.000000 348.333333) rotate (36.236821 0 0) scale (0.603370 1)"/>
  <path
  d=" M 0 0 10.0 0 C 26.0 -24.0 66.0 20.0 50.0 0  S 90.0 28.0 90.0 0 M 90.0 0 100 0" stroke="black" fill="transparent"
  transform="translate(869.333333 496.666667) rotate (-66.286405 0 0) scale (0.389558 1)"/>
  <path
  d=" M 0 0 10.0 0 C 25.0 -23.0 60.0 28.0 50.0 0  S 90.0 24.0 90.0 0 M 90.0 0 100 0" stroke="black" fill="transparent"
  transform="translate(780.666667 478.666667) rotate (11.475527 0 0) scale (0.904753 1)"/>
  <path
  d=" M 0 0 10.0 0 C 25.0 -26.0 59.0 23.0 50.0 0  S 90.0 25.0 90.0 0 M 90.0 0 100 0" stroke="black" fill="transparent"
  transform="translate(727.666667 425.666667) rotate (45.000000 0 0) scale (0.749533 1)"/>
  <path
  d=" M 0 0 10.0 0 C 18.0 -20.0 70.0 28.0 50.0 0  S 90.0 21.0 90.0 0 M 90.0 0 100 0" stroke="black" fill="transparent"
  transform="translate(727.666667 425.666667) rotate (-72.320319 0 0) scale (0.559772 1)"/>
  <path
  d=" M 0 0 10.0 0 C 15.0 -21.0 52.0 24.0 50.0 0  S 90.0 21.0 90.0 0 M 90.0 0 100 0" stroke="black" fill="transparent"
  transform="translate(744.666667 372.333333) rotate (-22.714412 0 0) scale (0.621539 1)"/>
  <path
  d=" M 0 0 10.0 0 C 11.0 -29.0 63.0 20.0 50.0 0  S 90.0 27.0 90.0 0 M 90.0 0 100 0" stroke="black" fill="transparent"
  transform="translate(256.333333 696.666667) rotate (-86.802442 0 0) scale (0.597597 1)"/>
  <path
  d=" M 0 0 10.0 0 C 18.0 -26.0 65.0 23.0 50.0 0  S 90.0 26.0 90.0 0 M 90.0 0 100 0" stroke="black" fill="transparent"
  transform="translate(184.000000 693.000000) rotate (2.901910 0 0) scale (0.724262 1)"/>
  <path
  d=" M 0 0 10.0 0 C 28.0 -23.0 64.0 26.0 50.0 0  S 90.0 28.0 90.0 0 M 90.0 0 100 0" stroke="black" fill="transparent"
  transform="translate(184.000000 693.000000) rotate (-86.802442 0 0) scale (0.597597 1)"/>
  <path
  d=" M 0 0 10.0 0 C 15.0 -24.0 51.0 22.0 50.0 0  S 90.0 28.0 90.0 0 M 90.0 0 100 0" stroke="black" fill="transparent"
  transform="translate(187.333333 633.333333) rotate (2.901910 0 0) scale (0.724262 1)"/>
  <path
  d=" M 0 0 10.0 0 C 19.0 -20.0 69.0 26.0 50.0 0  S 90.0 24.0 90.0 0 M 90.0 0 100 0" stroke="black" fill="transparent"
  transform="translate(118.000000 424.000000) rotate (-39.844416 0 0) scale (0.629515 1)"/>
  <path
  d=" M 0 0 10.0 0 C 28.0 -21.0 63.0 27.0 50.0 0  S 90.0 27.0 90.0 0 M 90.0 0 100 0" stroke="black" fill="transparent"
  transform="translate(124.666667 461.666667) rotate (-39.844416 0 0) scale (0.629515 1)"/>
  <path
  d=" M 0 0 10.0 0 C 18.0 -23.0 52.0 21.0 50.0 0  S 90.0 29.0 90.0 0 M 90.0 0 100 0" stroke="black" fill="transparent"
  transform="translate(166.333333 383.666667) rotate (79.963098 0 0) scale (0.382521 1)"/>
  <path
  d=" M 0 0 10.0 0 C 30.0 -21.0 68.0 25.0 50.0 0  S 90.0 26.0 90.0 0 M 90.0 0 100 0" stroke="black" fill="transparent"
  transform="translate(131.333333 275.333333) rotate (38.141699 0 0) scale (0.690837 1)"/>
  <path
  d=" M 0 0 10.0 0 C 17.0 -29.0 53.0 27.0 50.0 0  S 90.0 25.0 90.0 0 M 90.0 0 100 0" stroke="black" fill="transparent"
  transform="translate(185.666667 318.000000) rotate (-21.501434 0 0) scale (0.472911 1)"/>
  <path
  d=" M 0 0 10.0 0 C 11.0 -20.0 63.0 20.0 50.0 0  S 90.0 23.0 90.0 0 M 90.0 0 100 0" stroke="black" fill="transparent"
  transform="translate(225.666667 252.000000) rotate (85.301319 0 0) scale (0.488308 1)"/>
  <path
  d=" M 0 0 10.0 0 C 19.0 -20.0 70.0 25.0 50.0 0  S 90.0 27.0 90.0 0 M 90.0 0 100 0" stroke="black" fill="transparent"
  transform="translate(151.333333 231.666667) rotate (15.298590 0 0) scale (0.770642 1)"/>
  <path
  d=" M 0 0 10.0 0 C 30.0 -28.0 65.0 27.0 50.0 0  S 90.0 20.0 90.0 0 M 90.0 0 100 0" stroke="black" fill="transparent"
  transform="translate(131.333333 275.333333) rotate (-65.391497 0 0) scale (0.480289 1)"/>
  <path
  d=" M 0 0 10.0 0 C 16.0 -27.0 51.0 29.0 50.0 0  S 90.0 28.0 90.0 0 M 90.0 0 100 0" stroke="black" fill="transparent"
  transform="translate(723.333333 537.000000) rotate (-45.495340 0 0) scale (0.817917 1)"/>
  <path
  d=" M 0 0 10.0 0 C 14.0 -20.0 57.0 22.0 50.0 0  S 90.0 20.0 90.0 0 M 90.0 0 100 0" stroke="black" fill="transparent"
  transform="translate(642.000000 492.333333) rotate (-87.780344 0 0) scale (0.430323 1)"/>
  <path
  d=" M 0 0 10.0 0 C 27.0 -20.0 53.0 27.0 50.0 0  S 90.0 21.0 90.0 0 M 90.0 0 100 0" stroke="black" fill="transparent"
  transform="translate(643.666667 449.333333) rotate (-66.097950 0 0) scale (0.320850 1)"/>
  <path
  d=" M 0 0 10.0 0 C 29.0 -22.0 54.0 25.0 50.0 0  S 90.0 20.0 90.0 0 M 90.0 0 100 0" stroke="black" fill="transparent"
  transform="translate(656.666667 420.000000) rotate (4.563230 0 0) scale (0.712258 1)"/>
  <path
  d=" M 0 0 10.0 0 C 29.0 -27.0 52.0 20.0 50.0 0  S 90.0 24.0 90.0 0 M 90.0 0 100 0" stroke="black" fill="transparent"
  transform="translate(597.666667 440.000000) rotate (11.469530 0 0) scale (0.469373 1)"/>
  <path
  d=" M 0 0 10.0 0 C 28.0 -24.0 51.0 25.0 50.0 0  S 90.0 20.0 90.0 0 M 90.0 0 100 0" stroke="black" fill="transparent"
  transform="translate(943.666667 273.666667) rotate (-46.332220 0 0) scale (0.506897 1)"/>
  <path
  d=" M 0 0 10.0 0 C 17.0 -26.0 60.0 26.0 50.0 0  S 90.0 28.0 90.0 0 M 90.0 0 100 0" stroke="black" fill="transparent"
  transform="translate(894.666667 281.000000) rotate (-8.511705 0 0) scale (0.495457 1)"/>
  <path
  d=" M 0 0 10.0 0 C 21.0 -21.0 67.0 24.0 50.0 0  S 90.0 27.0 90.0 0 M 90.0 0 100 0" stroke="black" fill="transparent"
  transform="translate(864.000000 223.333333) rotate (61.996316 0 0) scale (0.653138 1)"/>
  <path
  d=" M 0 0 10.0 0 C 12.0 -24.0 63.0 27.0 50.0 0  S 90.0 26.0 90.0 0 M 90.0 0 100 0" stroke="black" fill="transparent"
  transform="translate(864.000000 223.333333) rotate (-66.062357 0 0) scale (0.780463 1)"/>
  <path
  d=" M 0 0 10.0 0 C 30.0 -21.0 65.0 20.0 50.0 0  S 90.0 28.0 90.0 0 M 90.0 0 100 0" stroke="black" fill="transparent"
  transform="translate(895.666667 152.000000) rotate (-8.972627 0 0) scale (0.512944 1)"/>
  <path
  d=" M 0 0 10.0 0 C 23.0 -20.0 56.0 20.0 50.0 0  S 90.0 22.0 90.0 0 M 90.0 0 100 0" stroke="black" fill="transparent"
  transform="translate(946.333333 144.000000) rotate (51.861522 0 0) scale (0.572140 1)"/>
  <path
  d=" M 0 0 10.0 0 C 15.0 -28.0 53.0 24.0 50.0 0  S 90.0 23.0 90.0 0 M 90.0 0 100 0" stroke="black" fill="transparent"
  transform="translate(978.666667 237.000000) rotate (-86.423666 0 0) scale (0.480937 1)"/>
  <path
  d=" M 0 0 10.0 0 C 24.0 -21.0 59.0 20.0 50.0 0  S 90.0 27.0 90.0 0 M 90.0 0 100 0" stroke="black" fill="transparent"
  transform="translate(510.666667 94.000000) rotate (19.278601 0 0) scale (0.787493 1)"/>
  <path
  d=" M 0 0 10.0 0 C 26.0 -26.0 53.0 24.0 50.0 0  S 90.0 20.0 90.0 0 M 90.0 0 100 0" stroke="black" fill="transparent"
  transform="translate(629.666667 123.666667) rotate (-29.310007 0 0) scale (0.653682 1)"/>
  <path
  d=" M 0 0 10.0 0 C 16.0 -23.0 58.0 22.0 50.0 0  S 90.0 27.0 90.0 0 M 90.0 0 100 0" stroke="black" fill="transparent"
  transform="translate(510.666667 94.000000) rotate (-0.759559 0 0) scale (1.760155 1)"/>
  <path
  d=" M 0 0 10.0 0 C 29.0 -21.0 51.0 26.0 50.0 0  S 90.0 20.0 90.0 0 M 90.0 0 100 0" stroke="black" fill="transparent"
  transform="translate(934.333333 860.666667) rotate (-33.536047 0 0) scale (0.343915 1)"/>
  <path
  d=" M 0 0 10.0 0 C 24.0 -24.0 52.0 22.0 50.0 0  S 90.0 22.0 90.0 0 M 90.0 0 100 0" stroke="black" fill="transparent"
  transform="translate(934.333333 860.666667) rotate (-84.942751 0 0) scale (0.378139 1)"/>
  <path
  d=" M 0 0 10.0 0 C 14.0 -21.0 59.0 20.0 50.0 0  S 90.0 23.0 90.0 0 M 90.0 0 100 0" stroke="black" fill="transparent"
  transform="translate(630.666667 933.666667) rotate (70.906508 0 0) scale (0.550273 1)"/>
  <path
  d=" M 0 0 10.0 0 C 22.0 -25.0 56.0 20.0 50.0 0  S 90.0 24.0 90.0 0 M 90.0 0 100 0" stroke="black" fill="transparent"
  transform="translate(496.333333 990.000000) rotate (26.816347 0 0) scale (0.679771 1)"/>
  <path
  d=" M 0 0 10.0 0 C 24.0 -23.0 66.0 20.0 50.0 0  S 90.0 20.0 90.0 0 M 90.0 0 100 0" stroke="black" fill="transparent"
  transform="translate(557.000000 944.666667) rotate (-8.492729 0 0) scale (0.744834 1)"/>
  <path
  d=" M 0 0 10.0 0 C 19.0 -28.0 58.0 22.0 50.0 0  S 90.0 20.0 90.0 0 M 90.0 0 100 0" stroke="black" fill="transparent"
  transform="translate(946.333333 381.000000) rotate (-52.261111 0 0) scale (0.615404 1)"/>
  <path
  d=" M 0 0 10.0 0 C 11.0 -27.0 57.0 29.0 50.0 0  S 90.0 27.0 90.0 0 M 90.0 0 100 0" stroke="black" fill="transparent"
  transform="translate(948.666667 447.666667) rotate (23.931025 0 0) scale (0.616315 1)"/>
  <path
  d=" M 0 0 10.0 0 C 19.0 -20.0 57.0 27.0 50.0 0  S 90.0 20.0 90.0 0 M 90.0 0 100 0" stroke="black" fill="transparent"
  transform="translate(984.000000 332.333333) rotate (81.489200 0 0) scale (1.418959 1)"/>
  <path
  d=" M 0 0 10.0 0 C 20.0 -23.0 62.0 25.0 50.0 0  S 90.0 29.0 90.0 0 M 90.0 0 100 0" stroke="black" fill="transparent"
  transform="translate(341.000000 222.000000) rotate (46.359306 0 0) scale (0.695517 1)"/>
  <path
  d=" M 0 0 10.0 0 C 27.0 -24.0 59.0 22.0 50.0 0  S 90.0 29.0 90.0 0 M 90.0 0 100 0" stroke="black" fill="transparent"
  transform="translate(261.666667 223.333333) rotate (-0.962864 0 0) scale (0.793445 1)"/>
  <path
  d=" M 0 0 10.0 0 C 12.0 -20.0 60.0 24.0 50.0 0  S 90.0 20.0 90.0 0 M 90.0 0 100 0" stroke="black" fill="transparent"
  transform="translate(225.666667 252.000000) rotate (-38.530180 0 0) scale (0.460193 1)"/>
  <path
  d=" M 0 0 10.0 0 C 30.0 -20.0 67.0 25.0 50.0 0  S 90.0 29.0 90.0 0 M 90.0 0 100 0" stroke="black" fill="transparent"
  transform="translate(229.666667 300.666667) rotate (51.301609 0 0) scale (0.773060 1)"/>
  <path
  d=" M 0 0 10.0 0 C 13.0 -20.0 56.0 24.0 50.0 0  S 90.0 29.0 90.0 0 M 90.0 0 100 0" stroke="black" fill="transparent"
  transform="translate(445.666667 465.333333) rotate (79.969787 0 0) scale (0.497605 1)"/>
  <path
  d=" M 0 0 10.0 0 C 16.0 -26.0 61.0 22.0 50.0 0  S 90.0 27.0 90.0 0 M 90.0 0 100 0" stroke="black" fill="transparent"
  transform="translate(394.333333 443.333333) rotate (23.198591 0 0) scale (0.558490 1)"/>
  <path
  d=" M 0 0 10.0 0 C 19.0 -28.0 67.0 26.0 50.0 0  S 90.0 28.0 90.0 0 M 90.0 0 100 0" stroke="black" fill="transparent"
  transform="translate(359.333333 488.000000) rotate (50.150082 0 0) scale (0.551412 1)"/>
  <path
  d=" M 0 0 10.0 0 C 24.0 -25.0 59.0 25.0 50.0 0  S 90.0 22.0 90.0 0 M 90.0 0 100 0" stroke="black" fill="transparent"
  transform="translate(394.666667 530.333333) rotate (-15.011078 0 0) scale (0.617747 1)"/>
  <path
  d=" M 0 0 10.0 0 C 26.0 -20.0 51.0 29.0 50.0 0  S 90.0 21.0 90.0 0 M 90.0 0 100 0" stroke="black" fill="transparent"
  transform="translate(474.000000 549.666667) rotate (-2.252044 0 0) scale (0.593792 1)"/>
  <path
  d=" M 0 0 10.0 0 C 14.0 -25.0 70.0 24.0 50.0 0  S 90.0 29.0 90.0 0 M 90.0 0 100 0" stroke="black" fill="transparent"
  transform="translate(454.333333 514.333333) rotate (60.899523 0 0) scale (0.404379 1)"/>
  <path
  d=" M 0 0 10.0 0 C 20.0 -29.0 62.0 29.0 50.0 0  S 90.0 26.0 90.0 0 M 90.0 0 100 0" stroke="black" fill="transparent"
  transform="translate(445.666667 465.333333) rotate (-20.179459 0 0) scale (0.415505 1)"/>
  <path
  d=" M 0 0 10.0 0 C 15.0 -28.0 59.0 29.0 50.0 0  S 90.0 26.0 90.0 0 M 90.0 0 100 0" stroke="black" fill="transparent"
  transform="translate(977.333333 522.666667) rotate (-61.042782 0 0) scale (0.571441 1)"/>
  <path
  d=" M 0 0 10.0 0 C 15.0 -27.0 61.0 23.0 50.0 0  S 90.0 25.0 90.0 0 M 90.0 0 100 0" stroke="black" fill="transparent"
  transform="translate(930.333333 560.000000) rotate (-38.461038 0 0) scale (0.600231 1)"/>
  <path
  d=" M 0 0 10.0 0 C 21.0 -24.0 59.0 23.0 50.0 0  S 90.0 23.0 90.0 0 M 90.0 0 100 0" stroke="black" fill="transparent"
  transform="translate(887.666667 551.666667) rotate (11.051457 0 0) scale (0.434729 1)"/>
  <path
  d=" M 0 0 10.0 0 C 12.0 -20.0 68.0 22.0 50.0 0  S 90.0 24.0 90.0 0 M 90.0 0 100 0" stroke="black" fill="transparent"
  transform="translate(869.333333 496.666667) rotate (71.565051 0 0) scale (0.579751 1)"/>
  <path
  d=" M 0 0 10.0 0 C 25.0 -20.0 62.0 26.0 50.0 0  S 90.0 25.0 90.0 0 M 90.0 0 100 0" stroke="black" fill="transparent"
  transform="translate(634.666667 356.666667) rotate (70.844388 0 0) scale (0.670456 1)"/>
  <path
  d=" M 0 0 10.0 0 C 18.0 -28.0 58.0 21.0 50.0 0  S 90.0 20.0 90.0 0 M 90.0 0 100 0" stroke="black" fill="transparent"
  transform="translate(421.666667 159.000000) rotate (55.799516 0 0) scale (0.830234 1)"/>
  <path
  d=" M 0 0 10.0 0 C 24.0 -21.0 54.0 25.0 50.0 0  S 90.0 23.0 90.0 0 M 90.0 0 100 0" stroke="black" fill="transparent"
  transform="translate(457.000000 136.666667) rotate (19.278601 0 0) scale (0.787493 1)"/>
  <path
  d=" M 0 0 10.0 0 C 27.0 -24.0 56.0 23.0 50.0 0  S 90.0 29.0 90.0 0 M 90.0 0 100 0" stroke="black" fill="transparent"
  transform="translate(313.333333 979.000000) rotate (-0.767308 0 0) scale (0.746734 1)"/>
  <path
  d=" M 0 0 10.0 0 C 11.0 -20.0 57.0 21.0 50.0 0  S 90.0 25.0 90.0 0 M 90.0 0 100 0" stroke="black" fill="transparent"
  transform="translate(230.666667 979.666667) rotate (-0.462053 0 0) scale (0.826694 1)"/>
  <path
  d=" M 0 0 10.0 0 C 24.0 -24.0 66.0 23.0 50.0 0  S 90.0 24.0 90.0 0 M 90.0 0 100 0" stroke="black" fill="transparent"
  transform="translate(230.666667 979.666667) rotate (-0.606924 0 0) scale (1.573422 1)"/>
  <path
  d=" M 0 0 10.0 0 C 22.0 -27.0 57.0 21.0 50.0 0  S 90.0 24.0 90.0 0 M 90.0 0 100 0" stroke="black" fill="transparent"
  transform="translate(882.333333 888.333333) rotate (-28.015267 0 0) scale (0.589020 1)"/>
  <path
  d=" M 0 0 10.0 0 C 13.0 -29.0 62.0 20.0 50.0 0  S 90.0 24.0 90.0 0 M 90.0 0 100 0" stroke="black" fill="transparent"
  transform="translate(812.000000 858.000000) rotate (23.329552 0 0) scale (0.765956 1)"/>
  <path
  d=" M 0 0 10.0 0 C 27.0 -29.0 70.0 28.0 50.0 0  S 90.0 26.0 90.0 0 M 90.0 0 100 0" stroke="black" fill="transparent"
  transform="translate(812.000000 858.000000) rotate (-66.209226 0 0) scale (0.677577 1)"/>
  <path
  d=" M 0 0 10.0 0 C 21.0 -26.0 51.0 22.0 50.0 0  S 90.0 22.0 90.0 0 M 90.0 0 100 0" stroke="black" fill="transparent"
  transform="translate(839.333333 796.000000) rotate (-5.684923 0 0) scale (0.740308 1)"/>
  <path
  d=" M 0 0 10.0 0 C 17.0 -25.0 58.0 24.0 50.0 0  S 90.0 23.0 90.0 0 M 90.0 0 100 0" stroke="black" fill="transparent"
  transform="translate(526.000000 744.666667) rotate (68.380915 0 0) scale (0.778067 1)"/>
  <path
  d=" M 0 0 10.0 0 C 17.0 -23.0 70.0 22.0 50.0 0  S 90.0 27.0 90.0 0 M 90.0 0 100 0" stroke="black" fill="transparent"
  transform="translate(526.000000 744.666667) rotate (-29.104732 0 0) scale (0.740120 1)"/>
  <path
  d=" M 0 0 10.0 0 C 29.0 -27.0 59.0 28.0 50.0 0  S 90.0 20.0 90.0 0 M 90.0 0 100 0" stroke="black" fill="transparent"
  transform="translate(590.666667 708.666667) rotate (39.805571 0 0) scale (0.520683 1)"/>
  <path
  d=" M 0 0 10.0 0 C 23.0 -28.0 61.0 25.0 50.0 0  S 90.0 27.0 90.0 0 M 90.0 0 100 0" stroke="black" fill="transparent"
  transform="translate(607.000000 801.333333) rotate (-68.254110 0 0) scale (0.638792 1)"/>
  <path
  d=" M 0 0 10.0 0 C 23.0 -24.0 60.0 26.0 50.0 0  S 90.0 28.0 90.0 0 M 90.0 0 100 0" stroke="black" fill="transparent"
  transform="translate(554.666667 817.000000) rotate (-16.665758 0 0) scale (0.546280 1)"/>
  <path
  d=" M 0 0 10.0 0 C 19.0 -21.0 66.0 23.0 50.0 0  S 90.0 21.0 90.0 0 M 90.0 0 100 0" stroke="black" fill="transparent"
  transform="translate(732.666667 667.000000) rotate (72.110709 0 0) scale (0.553424 1)"/>
  <path
  d=" M 0 0 10.0 0 C 30.0 -24.0 67.0 25.0 50.0 0  S 90.0 26.0 90.0 0 M 90.0 0 100 0" stroke="black" fill="transparent"
  transform="translate(683.333333 752.000000) rotate (-25.986326 0 0) scale (0.737940 1)"/>
  <path
  d=" M 0 0 10.0 0 C 27.0 -25.0 67.0 27.0 50.0 0  S 90.0 26.0 90.0 0 M 90.0 0 100 0" stroke="black" fill="transparent"
  transform="translate(630.666667 742.000000) rotate (10.750967 0 0) scale (0.536076 1)"/>
  <path
  d=" M 0 0 10.0 0 C 22.0 -28.0 55.0 22.0 50.0 0  S 90.0 26.0 90.0 0 M 90.0 0 100 0" stroke="black" fill="transparent"
  transform="translate(590.666667 708.666667) rotate (-50.106485 0 0) scale (0.556108 1)"/>
  <path
  d=" M 0 0 10.0 0 C 27.0 -21.0 64.0 26.0 50.0 0  S 90.0 24.0 90.0 0 M 90.0 0 100 0" stroke="black" fill="transparent"
  transform="translate(977.333333 522.666667) rotate (67.273717 0 0) scale (0.690258 1)"/>
  <path
  d=" M 0 0 10.0 0 C 24.0 -20.0 52.0 22.0 50.0 0  S 90.0 26.0 90.0 0 M 90.0 0 100 0" stroke="black" fill="transparent"
  transform="translate(1004.000000 586.333333) rotate (-89.495945 0 0) scale (1.136711 1)"/>
  <path
  d=" M 0 0 10.0 0 C 21.0 -27.0 59.0 20.0 50.0 0  S 90.0 27.0 90.0 0 M 90.0 0 100 0" stroke="black" fill="transparent"
  transform="translate(865.000000 116.666667) rotate (49.044486 0 0) scale (0.467856 1)"/>
  <path
  d=" M 0 0 10.0 0 C 29.0 -29.0 66.0 22.0 50.0 0  S 90.0 23.0 90.0 0 M 90.0 0 100 0" stroke="black" fill="transparent"
  transform="translate(833.666667 84.000000) rotate (46.193489 0 0) scale (0.452647 1)"/>
  <path
  d=" M 0 0 10.0 0 C 14.0 -24.0 68.0 29.0 50.0 0  S 90.0 21.0 90.0 0 M 90.0 0 100 0" stroke="black" fill="transparent"
  transform="translate(833.666667 84.000000) rotate (28.037282 0 0) scale (1.276471 1)"/>
  <path
  d=" M 0 0 10.0 0 C 28.0 -23.0 56.0 23.0 50.0 0  S 90.0 29.0 90.0 0 M 90.0 0 100 0" stroke="black" fill="transparent"
  transform="translate(110.666667 136.000000) rotate (-27.923590 0 0) scale (1.131769 1)"/>
  <path
  d=" M 0 0 10.0 0 C 16.0 -21.0 68.0 21.0 50.0 0  S 90.0 20.0 90.0 0 M 90.0 0 100 0" stroke="black" fill="transparent"
  transform="translate(356.666667 937.000000) rotate (52.611938 0 0) scale (0.516021 1)"/>
  <path
  d=" M 0 0 10.0 0 C 21.0 -22.0 59.0 21.0 50.0 0  S 90.0 20.0 90.0 0 M 90.0 0 100 0" stroke="black" fill="transparent"
  transform="translate(248.000000 940.666667) rotate (30.401627 0 0) scale (0.757489 1)"/>
  <path
  d=" M 0 0 10.0 0 C 30.0 -28.0 53.0 25.0 50.0 0  S 90.0 28.0 90.0 0 M 90.0 0 100 0" stroke="black" fill="transparent"
  transform="translate(248.000000 940.666667) rotate (-20.185803 0 0) scale (0.483000 1)"/>
  <path
  d=" M 0 0 10.0 0 C 15.0 -24.0 64.0 27.0 50.0 0  S 90.0 29.0 90.0 0 M 90.0 0 100 0" stroke="black" fill="transparent"
  transform="translate(293.333333 924.000000) rotate (11.599595 0 0) scale (0.646538 1)"/>
  <path
  d=" M 0 0 10.0 0 C 27.0 -26.0 55.0 20.0 50.0 0  S 90.0 25.0 90.0 0 M 90.0 0 100 0" stroke="black" fill="transparent"
  transform="translate(781.666667 141.000000) rotate (-16.277804 0 0) scale (0.868133 1)"/>
  <path
  d=" M 0 0 10.0 0 C 27.0 -25.0 57.0 23.0 50.0 0  S 90.0 25.0 90.0 0 M 90.0 0 100 0" stroke="black" fill="transparent"
  transform="translate(749.333333 205.333333) rotate (-63.316324 0 0) scale (0.720015 1)"/>
  <path
  d=" M 0 0 10.0 0 C 25.0 -26.0 67.0 23.0 50.0 0  S 90.0 25.0 90.0 0 M 90.0 0 100 0" stroke="black" fill="transparent"
  transform="translate(749.333333 205.333333) rotate (42.292083 0 0) scale (0.698459 1)"/>
  <path
  d=" M 0 0 10.0 0 C 26.0 -21.0 65.0 21.0 50.0 0  S 90.0 25.0 90.0 0 M 90.0 0 100 0" stroke="black" fill="transparent"
  transform="translate(801.000000 252.333333) rotate (-24.717441 0 0) scale (0.693542 1)"/>
  <path
  d=" M 0 0 10.0 0 C 22.0 -20.0 63.0 20.0 50.0 0  S 90.0 29.0 90.0 0 M 90.0 0 100 0" stroke="black" fill="transparent"
  transform="translate(256.333333 696.666667) rotate (56.689369 0 0) scale (0.698013 1)"/>
  <path
  d=" M 0 0 10.0 0 C 17.0 -25.0 57.0 21.0 50.0 0  S 90.0 27.0 90.0 0 M 90.0 0 100 0" stroke="black" fill="transparent"
  transform="translate(259.666667 637.000000) rotate (-51.234480 0 0) scale (0.282154 1)"/>
  <path
  d=" M 0 0 10.0 0 C 21.0 -27.0 53.0 29.0 50.0 0  S 90.0 27.0 90.0 0 M 90.0 0 100 0" stroke="black" fill="transparent"
  transform="translate(302.666667 597.000000) rotate (33.787179 0 0) scale (0.545456 1)"/>
  <path
  d=" M 0 0 10.0 0 C 18.0 -25.0 64.0 21.0 50.0 0  S 90.0 21.0 90.0 0 M 90.0 0 100 0" stroke="black" fill="transparent"
  transform="translate(348.000000 627.333333) rotate (86.334815 0 0) scale (0.938586 1)"/>
  <path
  d=" M 0 0 10.0 0 C 21.0 -24.0 68.0 21.0 50.0 0  S 90.0 23.0 90.0 0 M 90.0 0 100 0" stroke="black" fill="transparent"
  transform="translate(92.000000 709.000000) rotate (33.012488 0 0) scale (0.703594 1)"/>
  <path
  d=" M 0 0 10.0 0 C 28.0 -21.0 52.0 21.0 50.0 0  S 90.0 26.0 90.0 0 M 90.0 0 100 0" stroke="black" fill="transparent"
  transform="translate(79.666667 813.666667) rotate (-83.279576 0 0) scale (1.053908 1)"/>
  <path
  d=" M 0 0 10.0 0 C 22.0 -29.0 70.0 23.0 50.0 0  S 90.0 28.0 90.0 0 M 90.0 0 100 0" stroke="black" fill="transparent"
  transform="translate(79.666667 813.666667) rotate (76.607502 0 0) scale (0.863481 1)"/>
  <path
  d=" M 0 0 10.0 0 C 14.0 -24.0 55.0 29.0 50.0 0  S 90.0 21.0 90.0 0 M 90.0 0 100 0" stroke="black" fill="transparent"
  transform="translate(156.000000 880.333333) rotate (-49.502189 0 0) scale (0.600537 1)"/>
  <path
  d=" M 0 0 10.0 0 C 16.0 -24.0 51.0 26.0 50.0 0  S 90.0 21.0 90.0 0 M 90.0 0 100 0" stroke="black" fill="transparent"
  transform="translate(151.000000 747.333333) rotate (63.260267 0 0) scale (0.977912 1)"/>
  <path
  d=" M 0 0 10.0 0 C 26.0 -26.0 61.0 20.0 50.0 0  S 90.0 23.0 90.0 0 M 90.0 0 100 0" stroke="black" fill="transparent"
  transform="translate(671.666667 248.333333) rotate (-28.971022 0 0) scale (0.887756 1)"/>
  <path
  d=" M 0 0 10.0 0 C 15.0 -21.0 68.0 24.0 50.0 0  S 90.0 29.0 90.0 0 M 90.0 0 100 0" stroke="black" fill="transparent"
  transform="translate(686.666667 91.666667) rotate (14.669709 0 0) scale (0.658120 1)"/>
  <path
  d=" M 0 0 10.0 0 C 11.0 -25.0 65.0 29.0 50.0 0  S 90.0 23.0 90.0 0 M 90.0 0 100 0" stroke="black" fill="transparent"
  transform="translate(750.333333 108.333333) rotate (46.193489 0 0) scale (0.452647 1)"/>
  <path
  d=" M 0 0 10.0 0 C 15.0 -29.0 62.0 26.0 50.0 0  S 90.0 25.0 90.0 0 M 90.0 0 100 0" stroke="black" fill="transparent"
  transform="translate(862.000000 628.666667) rotate (31.859667 0 0) scale (0.694654 1)"/>
  <path
  d=" M 0 0 10.0 0 C 26.0 -29.0 53.0 27.0 50.0 0  S 90.0 25.0 90.0 0 M 90.0 0 100 0" stroke="black" fill="transparent"
  transform="translate(921.000000 665.333333) rotate (-49.172984 0 0) scale (0.550646 1)"/>
  <path
  d=" M 0 0 10.0 0 C 15.0 -29.0 56.0 24.0 50.0 0  S 90.0 23.0 90.0 0 M 90.0 0 100 0" stroke="black" fill="transparent"
  transform="translate(930.333333 560.000000) rotate (67.273717 0 0) scale (0.690258 1)"/>
  <path
  d=" M 0 0 10.0 0 C 12.0 -28.0 53.0 25.0 50.0 0  S 90.0 26.0 90.0 0 M 90.0 0 100 0" stroke="black" fill="transparent"
  transform="translate(855.333333 578.666667) rotate (-39.863622 0 0) scale (0.421242 1)"/>
  <path
  d=" M 0 0 10.0 0 C 13.0 -20.0 53.0 29.0 50.0 0  S 90.0 24.0 90.0 0 M 90.0 0 100 0" stroke="black" fill="transparent"
  transform="translate(855.333333 578.666667) rotate (82.405357 0 0) scale (0.504425 1)"/>
  <path
  d=" M 0 0 10.0 0 C 14.0 -27.0 62.0 26.0 50.0 0  S 90.0 27.0 90.0 0 M 90.0 0 100 0" stroke="black" fill="transparent"
  transform="translate(957.000000 623.666667) rotate (-38.461038 0 0) scale (0.600231 1)"/>
  <path
  d=" M 0 0 10.0 0 C 26.0 -27.0 51.0 22.0 50.0 0  S 90.0 22.0 90.0 0 M 90.0 0 100 0" stroke="black" fill="transparent"
  transform="translate(829.333333 988.333333) rotate (31.013884 0 0) scale (0.653410 1)"/>
  <path
  d=" M 0 0 10.0 0 C 24.0 -28.0 63.0 28.0 50.0 0  S 90.0 28.0 90.0 0 M 90.0 0 100 0" stroke="black" fill="transparent"
  transform="translate(829.333333 988.333333) rotate (-30.673759 0 0) scale (0.790619 1)"/>
  <path
  d=" M 0 0 10.0 0 C 23.0 -28.0 52.0 20.0 50.0 0  S 90.0 29.0 90.0 0 M 90.0 0 100 0" stroke="black" fill="transparent"
  transform="translate(897.333333 948.000000) rotate (31.013884 0 0) scale (0.653410 1)"/>
  <path
  d=" M 0 0 10.0 0 C 26.0 -20.0 58.0 28.0 50.0 0  S 90.0 23.0 90.0 0 M 90.0 0 100 0" stroke="black" fill="transparent"
  transform="translate(885.333333 1022.000000) rotate (-30.673759 0 0) scale (0.790619 1)"/>
  <path
  d=" M 0 0 10.0 0 C 29.0 -29.0 57.0 27.0 50.0 0  S 90.0 29.0 90.0 0 M 90.0 0 100 0" stroke="black" fill="transparent"
  transform="translate(151.000000 747.333333) rotate (-58.727097 0 0) scale (0.635697 1)"/>
  <path
  d=" M 0 0 10.0 0 C 16.0 -21.0 55.0 20.0 50.0 0  S 90.0 28.0 90.0 0 M 90.0 0 100 0" stroke="black" fill="transparent"
  transform="translate(168.666667 568.333333) rotate (73.977020 0 0) scale (0.676272 1)"/>
  <path
  d=" M 0 0 10.0 0 C 14.0 -28.0 70.0 25.0 50.0 0  S 90.0 22.0 90.0 0 M 90.0 0 100 0" stroke="black" fill="transparent"
  transform="translate(112.000000 528.333333) rotate (35.217593 0 0) scale (0.693622 1)"/>
  <path
  d=" M 0 0 10.0 0 C 17.0 -20.0 56.0 29.0 50.0 0  S 90.0 25.0 90.0 0 M 90.0 0 100 0" stroke="black" fill="transparent"
  transform="translate(75.333333 597.333333) rotate (81.511056 0 0) scale (1.129036 1)"/>
  <path
  d=" M 0 0 10.0 0 C 20.0 -28.0 64.0 22.0 50.0 0  S 90.0 27.0 90.0 0 M 90.0 0 100 0" stroke="black" fill="transparent"
  transform="translate(909.666667 713.333333) rotate (37.670252 0 0) scale (0.572723 1)"/>
  <path
  d=" M 0 0 10.0 0 C 28.0 -22.0 67.0 22.0 50.0 0  S 90.0 25.0 90.0 0 M 90.0 0 100 0" stroke="black" fill="transparent"
  transform="translate(909.666667 713.333333) rotate (-76.715134 0 0) scale (0.493198 1)"/>
  <path
  d=" M 0 0 10.0 0 C 30.0 -21.0 60.0 28.0 50.0 0  S 90.0 20.0 90.0 0 M 90.0 0 100 0" stroke="black" fill="transparent"
  transform="translate(990.000000 796.333333) rotate (-86.185925 0 0) scale (2.104661 1)"/>
  <path
  d=" M 0 0 10.0 0 C 15.0 -23.0 69.0 27.0 50.0 0  S 90.0 23.0 90.0 0 M 90.0 0 100 0" stroke="black" fill="transparent"
  transform="translate(801.000000 252.333333) rotate (89.403191 0 0) scale (0.960052 1)"/>
  <path
  d=" M 0 0 10.0 0 C 30.0 -26.0 60.0 28.0 50.0 0  S 90.0 20.0 90.0 0 M 90.0 0 100 0" stroke="black" fill="transparent"
  transform="translate(880.333333 345.666667) rotate (-77.502467 0 0) scale (0.662361 1)"/>
  <path
  d=" M 0 0 10.0 0 C 13.0 -21.0 51.0 22.0 50.0 0  S 90.0 20.0 90.0 0 M 90.0 0 100 0" stroke="black" fill="transparent"
  transform="translate(319.000000 119.666667) rotate (31.315980 0 0) scale (0.557953 1)"/>
  <path
  d=" M 0 0 10.0 0 C 12.0 -22.0 56.0 20.0 50.0 0  S 90.0 23.0 90.0 0 M 90.0 0 100 0" stroke="black" fill="transparent"
  transform="translate(341.000000 222.000000) rotate (-70.709954 0 0) scale (0.776953 1)"/>
  <path
  d=" M 0 0 10.0 0 C 21.0 -26.0 52.0 20.0 50.0 0  S 90.0 27.0 90.0 0 M 90.0 0 100 0" stroke="black" fill="transparent"
  transform="translate(261.666667 223.333333) rotate (-82.295003 0 0) scale (0.571829 1)"/>
  <path
  d=" M 0 0 10.0 0 C 23.0 -23.0 54.0 21.0 50.0 0  S 90.0 24.0 90.0 0 M 90.0 0 100 0" stroke="black" fill="transparent"
  transform="translate(251.333333 529.666667) rotate (-65.865142 0 0) scale (0.562504 1)"/>
  <path
  d=" M 0 0 10.0 0 C 19.0 -29.0 54.0 25.0 50.0 0  S 90.0 20.0 90.0 0 M 90.0 0 100 0" stroke="black" fill="transparent"
  transform="translate(391.333333 594.000000) rotate (-87.002957 0 0) scale (0.637539 1)"/>
  <path
  d=" M 0 0 10.0 0 C 26.0 -28.0 67.0 22.0 50.0 0  S 90.0 20.0 90.0 0 M 90.0 0 100 0" stroke="black" fill="transparent"
  transform="translate(348.000000 627.333333) rotate (-37.568592 0 0) scale (0.546707 1)"/>
  <path
  d=" M 0 0 10.0 0 C 28.0 -28.0 58.0 28.0 50.0 0  S 90.0 24.0 90.0 0 M 90.0 0 100 0" stroke="black" fill="transparent"
  transform="translate(943.666667 273.666667) rotate (55.491477 0 0) scale (0.711938 1)"/>
  <path
  d=" M 0 0 10.0 0 C 15.0 -23.0 55.0 23.0 50.0 0  S 90.0 20.0 90.0 0 M 90.0 0 100 0" stroke="black" fill="transparent"
  transform="translate(110.666667 136.000000) rotate (56.121460 0 0) scale (0.562099 1)"/>
  <path
  d=" M 0 0 10.0 0 C 18.0 -28.0 56.0 26.0 50.0 0  S 90.0 25.0 90.0 0 M 90.0 0 100 0" stroke="black" fill="transparent"
  transform="translate(210.666667 83.000000) rotate (14.534455 0 0) scale (0.650829 1)"/>
  <path
  d=" M 0 0 10.0 0 C 14.0 -25.0 54.0 23.0 50.0 0  S 90.0 20.0 90.0 0 M 90.0 0 100 0" stroke="black" fill="transparent"
  transform="translate(142.000000 182.666667) rotate (-23.897626 0 0) scale (0.896890 1)"/>
  <path
  d=" M 0 0 10.0 0 C 30.0 -24.0 65.0 24.0 50.0 0  S 90.0 29.0 90.0 0 M 90.0 0 100 0" stroke="black" fill="transparent"
  transform="translate(750.333333 108.333333) rotate (-16.277804 0 0) scale (0.868133 1)"/>
  <path
  d=" M 0 0 10.0 0 C 25.0 -26.0 65.0 23.0 50.0 0  S 90.0 21.0 90.0 0 M 90.0 0 100 0" stroke="black" fill="transparent"
  transform="translate(686.666667 91.666667) rotate (-2.985510 0 0) scale (1.471998 1)"/>
  <path
  d=" M 0 0 10.0 0 C 25.0 -23.0 69.0 23.0 50.0 0  S 90.0 24.0 90.0 0 M 90.0 0 100 0" stroke="black" fill="transparent"
  transform="translate(749.666667 719.666667) rotate (49.763642 0 0) scale (0.397352 1)"/>
  <path
  d=" M 0 0 10.0 0 C 30.0 -20.0 63.0 28.0 50.0 0  S 90.0 26.0 90.0 0 M 90.0 0 100 0" stroke="black" fill="transparent"
  transform="translate(775.333333 750.000000) rotate (-9.593134 0 0) scale (0.480046 1)"/>
  <path
  d=" M 0 0 10.0 0 C 13.0 -24.0 56.0 20.0 50.0 0  S 90.0 22.0 90.0 0 M 90.0 0 100 0" stroke="black" fill="transparent"
  transform="translate(822.666667 742.000000) rotate (-18.237151 0 0) scale (0.916012 1)"/>
  <path
  d=" M 0 0 10.0 0 C 18.0 -29.0 61.0 26.0 50.0 0  S 90.0 21.0 90.0 0 M 90.0 0 100 0" stroke="black" fill="transparent"
  transform="translate(786.333333 632.000000) rotate (-2.522412 0 0) scale (0.757401 1)"/>
  <path
  d=" M 0 0 10.0 0 C 18.0 -25.0 53.0 24.0 50.0 0  S 90.0 23.0 90.0 0 M 90.0 0 100 0" stroke="black" fill="transparent"
  transform="translate(168.666667 568.333333) rotate (-19.822465 0 0) scale (0.609444 1)"/>
  <path
  d=" M 0 0 10.0 0 C 29.0 -20.0 62.0 26.0 50.0 0  S 90.0 20.0 90.0 0 M 90.0 0 100 0" stroke="black" fill="transparent"
  transform="translate(173.000000 421.333333) rotate (-4.506607 0 0) scale (0.678765 1)"/>
  <path
  d=" M 0 0 10.0 0 C 22.0 -21.0 63.0 28.0 50.0 0  S 90.0 24.0 90.0 0 M 90.0 0 100 0" stroke="black" fill="transparent"
  transform="translate(166.333333 383.666667) rotate (-73.594715 0 0) scale (0.684536 1)"/>
  <path
  d=" M 0 0 10.0 0 C 29.0 -29.0 57.0 27.0 50.0 0  S 90.0 22.0 90.0 0 M 90.0 0 100 0" stroke="black" fill="transparent"
  transform="translate(630.666667 933.666667) rotate (-72.824096 0 0) scale (0.767565 1)"/>
  <path
  d=" M 0 0 10.0 0 C 23.0 -29.0 54.0 22.0 50.0 0  S 90.0 21.0 90.0 0 M 90.0 0 100 0" stroke="black" fill="transparent"
  transform="translate(607.000000 801.333333) rotate (51.857072 0 0) scale (0.750185 1)"/>
  <path
  d=" M 0 0 10.0 0 C 28.0 -22.0 60.0 24.0 50.0 0  S 90.0 27.0 90.0 0 M 90.0 0 100 0" stroke="black" fill="transparent"
  transform="translate(520.333333 853.666667) rotate (-46.882282 0 0) scale (0.502317 1)"/>
  <path
  d=" M 0 0 10.0 0 C 16.0 -20.0 59.0 25.0 50.0 0  S 90.0 23.0 90.0 0 M 90.0 0 100 0" stroke="black" fill="transparent"
  transform="translate(518.666667 898.333333) rotate (-87.863089 0 0) scale (0.446978 1)"/>
  <path
  d=" M 0 0 10.0 0 C 17.0 -24.0 67.0 29.0 50.0 0  S 90.0 24.0 90.0 0 M 90.0 0 100 0" stroke="black" fill="transparent"
  transform="translate(751.000000 956.333333) rotate (22.220537 0 0) scale (0.846174 1)"/>
  <path
  d=" M 0 0 10.0 0 C 18.0 -28.0 67.0 29.0 50.0 0  S 90.0 27.0 90.0 0 M 90.0 0 100 0" stroke="black" fill="transparent"
  transform="translate(882.333333 888.333333) rotate (75.888466 0 0) scale (0.615233 1)"/>
  <path
  d=" M 0 0 10.0 0 C 29.0 -22.0 55.0 24.0 50.0 0  S 90.0 26.0 90.0 0 M 90.0 0 100 0" stroke="black" fill="transparent"
  transform="translate(748.666667 885.666667) rotate (-23.597731 0 0) scale (0.691126 1)"/>
  <path
  d=" M 0 0 10.0 0 C 17.0 -22.0 62.0 26.0 50.0 0  S 90.0 22.0 90.0 0 M 90.0 0 100 0" stroke="black" fill="transparent"
  transform="translate(748.666667 885.666667) rotate (88.108845 0 0) scale (0.707052 1)"/>
  <path
  d=" M 0 0 10.0 0 C 21.0 -26.0 59.0 22.0 50.0 0  S 90.0 27.0 90.0 0 M 90.0 0 100 0" stroke="black" fill="transparent"
  transform="translate(356.666667 937.000000) rotate (-51.599917 0 0) scale (0.574205 1)"/>
  <path
  d=" M 0 0 10.0 0 C 13.0 -24.0 66.0 24.0 50.0 0  S 90.0 27.0 90.0 0 M 90.0 0 100 0" stroke="black" fill="transparent"
  transform="translate(363.000000 851.333333) rotate (54.196656 0 0) scale (0.501420 1)"/>
  <path
  d=" M 0 0 10.0 0 C 11.0 -27.0 57.0 23.0 50.0 0  S 90.0 22.0 90.0 0 M 90.0 0 100 0" stroke="black" fill="transparent"
  transform="translate(293.333333 924.000000) rotate (-80.188743 0 0) scale (0.449914 1)"/>
  <path
  d=" M 0 0 10.0 0 C 12.0 -21.0 66.0 26.0 50.0 0  S 90.0 26.0 90.0 0 M 90.0 0 100 0" stroke="black" fill="transparent"
  transform="translate(59.333333 458.333333) rotate (86.724920 0 0) scale (3.559146 1)"/>
  <path
  d=" M 0 0 10.0 0 C 18.0 -22.0 52.0 28.0 50.0 0  S 90.0 29.0 90.0 0 M 90.0 0 100 0" stroke="black" fill="transparent"
  transform="translate(666.000000 319.333333) rotate (33.969285 0 0) scale (0.948549 1)"/>
  <path
  d=" M 0 0 10.0 0 C 16.0 -22.0 53.0 27.0 50.0 0  S 90.0 22.0 90.0 0 M 90.0 0 100 0" stroke="black" fill="transparent"
  transform="translate(195.000000 834.666667) rotate (3.209486 0 0) scale (0.714454 1)"/>
  <path
  d=" M 0 0 10.0 0 C 15.0 -22.0 52.0 22.0 50.0 0  S 90.0 26.0 90.0 0 M 90.0 0 100 0" stroke="black" fill="transparent"
  transform="translate(445.000000 609.333333) rotate (55.728859 0 0) scale (0.455802 1)"/>
  <path
  d=" M 0 0 10.0 0 C 25.0 -20.0 55.0 21.0 50.0 0  S 90.0 24.0 90.0 0 M 90.0 0 100 0" stroke="black" fill="transparent"
  transform="translate(470.666667 647.000000) rotate (-29.943529 0 0) scale (0.834759 1)"/>
  <path
  d=" M 0 0 10.0 0 C 19.0 -26.0 62.0 25.0 50.0 0  S 90.0 26.0 90.0 0 M 90.0 0 100 0" stroke="black" fill="transparent"
  transform="translate(445.000000 609.333333) rotate (-64.078695 0 0) scale (0.663409 1)"/>
  <path
  d=" M 0 0 10.0 0 C 29.0 -21.0 65.0 21.0 50.0 0  S 90.0 25.0 90.0 0 M 90.0 0 100 0" stroke="black" fill="transparent"
  transform="translate(474.000000 722.666667) rotate (22.932100 0 0) scale (0.564624 1)"/>
  <path
  d=" M 0 0 10.0 0 C 28.0 -21.0 54.0 20.0 50.0 0  S 90.0 24.0 90.0 0 M 90.0 0 100 0" stroke="black" fill="transparent"
  transform="translate(470.666667 647.000000) rotate (87.477588 0 0) scale (0.757401 1)"/>
  <path
  d=" M 0 0 10.0 0 C 29.0 -25.0 69.0 26.0 50.0 0  S 90.0 24.0 90.0 0 M 90.0 0 100 0" stroke="black" fill="transparent"
  transform="translate(392.333333 892.000000) rotate (-21.097950 0 0) scale (0.453750 1)"/>
  <path
  d=" M 0 0 10.0 0 C 19.0 -28.0 67.0 21.0 50.0 0  S 90.0 27.0 90.0 0 M 90.0 0 100 0" stroke="black" fill="transparent"
  transform="translate(434.666667 875.666667) rotate (63.434949 0 0) scale (0.477028 1)"/>
  <path
  d=" M 0 0 10.0 0 C 12.0 -23.0 59.0 22.0 50.0 0  S 90.0 23.0 90.0 0 M 90.0 0 100 0" stroke="black" fill="transparent"
  transform="translate(388.000000 978.000000) rotate (-2.344132 0 0) scale (0.570477 1)"/>
  <path
  d=" M 0 0 10.0 0 C 24.0 -21.0 57.0 28.0 50.0 0  S 90.0 25.0 90.0 0 M 90.0 0 100 0" stroke="black" fill="transparent"
  transform="translate(142.000000 182.666667) rotate (79.215702 0 0) scale (0.498810 1)"/>
  <path
  d=" M 0 0 10.0 0 C 11.0 -28.0 59.0 21.0 50.0 0  S 90.0 27.0 90.0 0 M 90.0 0 100 0" stroke="black" fill="transparent"
  transform="translate(182.000000 926.000000) rotate (12.528808 0 0) scale (0.676100 1)"/>
  <path
  d=" M 0 0 10.0 0 C 24.0 -22.0 61.0 22.0 50.0 0  S 90.0 22.0 90.0 0 M 90.0 0 100 0" stroke="black" fill="transparent"
  transform="translate(125.666667 943.333333) rotate (19.087245 0 0) scale (1.111086 1)"/>
  <path
  d=" M 0 0 10.0 0 C 21.0 -20.0 51.0 27.0 50.0 0  S 90.0 26.0 90.0 0 M 90.0 0 100 0" stroke="black" fill="transparent"
  transform="translate(391.333333 594.000000) rotate (15.945396 0 0) scale (0.558142 1)"/>
  <path
  d=" M 0 0 10.0 0 C 21.0 -27.0 70.0 24.0 50.0 0  S 90.0 29.0 90.0 0 M 90.0 0 100 0" stroke="black" fill="transparent"
  transform="translate(728.666667 831.666667) rotate (69.676863 0 0) scale (0.575847 1)"/>
  <path
  d=" M 0 0 10.0 0 C 22.0 -21.0 64.0 27.0 50.0 0  S 90.0 25.0 90.0 0 M 90.0 0 100 0" stroke="black" fill="transparent"
  transform="translate(728.666667 831.666667) rotate (-60.255119 0 0) scale (0.940597 1)"/>
  <path
  d=" M 0 0 10.0 0 C 29.0 -28.0 69.0 20.0 50.0 0  S 90.0 27.0 90.0 0 M 90.0 0 100 0" stroke="black" fill="transparent"
  transform="translate(822.666667 742.000000) rotate (72.847578 0 0) scale (0.565135 1)"/>
  <path
  d=" M 0 0 10.0 0 C 19.0 -20.0 64.0 28.0 50.0 0  S 90.0 23.0 90.0 0 M 90.0 0 100 0" stroke="black" fill="transparent"
  transform="translate(794.000000 1031.666667) rotate (-6.041659 0 0) scale (0.918435 1)"/>
  <path
  d=" M 0 0 10.0 0 C 24.0 -22.0 69.0 21.0 50.0 0  S 90.0 25.0 90.0 0 M 90.0 0 100 0" stroke="black" fill="transparent"
  transform="translate(711.666667 993.000000) rotate (25.156422 0 0) scale (0.909609 1)"/>
  <path
  d=" M 0 0 10.0 0 C 19.0 -25.0 61.0 25.0 50.0 0  S 90.0 27.0 90.0 0 M 90.0 0 100 0" stroke="black" fill="transparent"
  transform="translate(711.666667 993.000000) rotate (-42.990446 0 0) scale (0.537732 1)"/>
  <path
  d=" M 0 0 10.0 0 C 19.0 -22.0 56.0 20.0 50.0 0  S 90.0 24.0 90.0 0 M 90.0 0 100 0" stroke="black" fill="transparent"
  transform="translate(779.666667 582.000000) rotate (-2.522412 0 0) scale (0.757401 1)"/>
  <path
  d=" M 0 0 10.0 0 C 25.0 -24.0 59.0 23.0 50.0 0  S 90.0 22.0 90.0 0 M 90.0 0 100 0" stroke="black" fill="transparent"
  transform="translate(653.333333 860.333333) rotate (-46.005086 0 0) scale (0.537484 1)"/>
  <path
  d=" M 0 0 10.0 0 C 12.0 -29.0 70.0 28.0 50.0 0  S 90.0 28.0 90.0 0 M 90.0 0 100 0" stroke="black" fill="transparent"
  transform="translate(683.333333 752.000000) rotate (83.990994 0 0) scale (0.700516 1)"/>
  <path
  d=" M 0 0 10.0 0 C 11.0 -26.0 60.0 29.0 50.0 0  S 90.0 27.0 90.0 0 M 90.0 0 100 0" stroke="black" fill="transparent"
  transform="translate(434.666667 875.666667) rotate (-63.434949 0 0) scale (0.484481 1)"/>
  <path
  d=" M 0 0 10.0 0 C 29.0 -24.0 55.0 29.0 50.0 0  S 90.0 28.0 90.0 0 M 90.0 0 100 0" stroke="black" fill="transparent"
  transform="translate(438.666667 773.666667) rotate (73.241042 0 0) scale (0.612690 1)"/>
  <path
  d=" M 0 0 10.0 0 C 16.0 -27.0 62.0 28.0 50.0 0  S 90.0 22.0 90.0 0 M 90.0 0 100 0" stroke="black" fill="transparent"
  transform="translate(387.666667 776.333333) rotate (-2.993132 0 0) scale (0.510697 1)"/>
  <path
  d=" M 0 0 10.0 0 C 15.0 -21.0 66.0 26.0 50.0 0  S 90.0 24.0 90.0 0 M 90.0 0 100 0" stroke="black" fill="transparent"
  transform="translate(438.666667 773.666667) rotate (-55.285378 0 0) scale (0.620439 1)"/>
  <path
  d=" M 0 0 10.0 0 C 22.0 -29.0 61.0 29.0 50.0 0  S 90.0 28.0 90.0 0 M 90.0 0 100 0" stroke="black" fill="transparent"
  transform="translate(456.333333 832.333333) rotate (18.434949 0 0) scale (0.674619 1)"/>
  <path
  d=" M 0 0 10.0 0 C 16.0 -26.0 52.0 21.0 50.0 0  S 90.0 25.0 90.0 0 M 90.0 0 100 0" stroke="black" fill="transparent"
  transform="translate(690.666667 821.666667) rotate (14.743563 0 0) scale (0.392938 1)"/>
  <path
  d=" M 0 0 10.0 0 C 15.0 -28.0 57.0 22.0 50.0 0  S 90.0 25.0 90.0 0 M 90.0 0 100 0" stroke="black" fill="transparent"
  transform="translate(648.666667 985.666667) rotate (6.639471 0 0) scale (0.634254 1)"/>
  <path
  d=" M 0 0 10.0 0 C 17.0 -21.0 61.0 26.0 50.0 0  S 90.0 24.0 90.0 0 M 90.0 0 100 0" stroke="black" fill="transparent"
  transform="translate(934.333333 860.666667) rotate (-49.130856 0 0) scale (0.850738 1)"/>
  <path
  d=" M 0 0 10.0 0 C 25.0 -21.0 60.0 20.0 50.0 0  S 90.0 29.0 90.0 0 M 90.0 0 100 0" stroke="black" fill="transparent"
  transform="translate(984.000000 332.333333) rotate (-46.332220 0 0) scale (0.506897 1)"/>
  <path
  d=" M 0 0 10.0 0 C 22.0 -28.0 59.0 20.0 50.0 0  S 90.0 26.0 90.0 0 M 90.0 0 100 0" stroke="black" fill="transparent"
  transform="translate(366.666667 148.666667) rotate (10.640620 0 0) scale (0.559623 1)"/>
  
</svg>
