<?xml version="1.0" encoding="UTF-8" standalone="no"?>
<svg
   xmlns:dc="http://purl.org/dc/elements/1.1/"
   xmlns:cc="http://creativecommons.org/ns#"
   xmlns:rdf="http://www.w3.org/1999/02/22-rdf-syntax-ns#"
   xmlns:svg="http://www.w3.org/2000/svg"
   xmlns="http://www.w3.org/2000/svg"
   xmlns:sodipodi="http://sodipodi.sourceforge.net/DTD/sodipodi-0.dtd"
   xmlns:inkscape="http://www.inkscape.org/namespaces/inkscape"
   width="32in"
   height="20in"
   id="svg2"
   version="1.1"
   inkscape:version="0.91 r13725"
   sodipodi:docname="small.svg">
  <metadata
     id="metadata102">
    <rdf:RDF>
      <cc:Work
         rdf:about="">
        <dc:format>image/svg+xml</dc:format>
        <dc:type
           rdf:resource="http://purl.org/dc/dcmitype/StillImage" />
        <dc:title></dc:title>
      </cc:Work>
    </rdf:RDF>
  </metadata>
  <defs
     id="defs100" />
  <sodipodi:namedview
     pagecolor="#ffffff"
     bordercolor="#666666"
     borderopacity="1"
     objecttolerance="10"
     gridtolerance="10"
     guidetolerance="10"
     inkscape:pageopacity="0"
     inkscape:pageshadow="2"
     inkscape:window-width="1280"
     inkscape:window-height="756"
     id="namedview98"
     showgrid="false"
     units="in"
     inkscape:zoom="0.36933333"
     inkscape:cx="750"
     inkscape:cy="425.09025"
     inkscape:window-x="0"
     inkscape:window-y="1"
     inkscape:window-maximized="1"
     inkscape:current-layer="svg2" />
  <path
     d="m 259.42647,1517.212 5.27161,-0.2687 c -0.16757,-24.0226 30.31761,24.4882 21.08646,-1.075 -9.23115,-25.5631 22.35927,23.8926 21.08646,-1.0749 m 0,0 5.27161,-0.2688"
     id="path4"
     style="fill:none;stroke:#000000;stroke-width:0.15625;stroke-miterlimit:4;stroke-dasharray:none"
     inkscape:connector-curvature="0" />
  <path
     d="m 312.14261,1514.5246 2.86614,6.8417 c 28.85316,1.5846 -11.43218,42.5882 11.46457,27.3665 22.89675,-15.2217 -12.51614,37.4127 11.46457,27.3665 m 0,0 2.86615,6.8417"
     id="path6"
     style="fill:none;stroke:#000000;stroke-width:0.15625;stroke-miterlimit:4;stroke-dasharray:none"
     inkscape:connector-curvature="0" />
  <path
     d="m 304.28584,1636.3025 3.65182,-5.3361 c -13.58358,-15.5643 34.49385,-13.2199 14.60728,-21.3446 -19.88656,-8.1248 34.41333,-7.7903 14.60729,-21.3447 m 0,0 3.65182,-5.3361"
     id="path8"
     style="fill:none;stroke:#000000;stroke-width:0.15625;stroke-miterlimit:4;stroke-dasharray:none"
     inkscape:connector-curvature="0" />
  <path
     d="m 248.41361,1606.4251 5.58722,2.9877 c 18.31928,-20.8218 15.32693,33.144 22.34887,11.951 7.02195,-21.193 11.50305,32.2332 22.34888,11.951 m 0,0 5.58722,2.9877"
     id="path10"
     style="fill:none;stroke:#000000;stroke-width:0.15625;stroke-miterlimit:4;stroke-dasharray:none"
     inkscape:connector-curvature="0" />
  <path
     d="m 232.21567,1555.7509 1.61979,5.0674 c 22.43264,1.2072 -14.61891,29.8063 6.47918,20.2697 21.09809,-9.5366 -15.42882,27.2725 6.47917,20.2696 m 0,0 1.61979,5.0674"
     id="path12"
     style="fill:none;stroke:#000000;stroke-width:0.15625;stroke-miterlimit:4;stroke-dasharray:none"
     inkscape:connector-curvature="0" />
  <path
     d="m 232.21567,1555.7509 2.72108,-3.8539 c -15.79492,-15.7723 33.48196,-9.278 10.88433,-15.4155 -22.59762,-6.1376 31.30681,-0.9961 10.88433,-15.4156 m 0,0 2.72108,-3.8539"
     id="path14"
     style="fill:none;stroke:#000000;stroke-width:0.15625;stroke-miterlimit:4;stroke-dasharray:none"
     inkscape:connector-curvature="0" />
  <path
     d="m 211.33025,1460.5669 4.80962,5.6645 c 27.99578,-7.1986 7.95843,44.9085 19.23849,22.6581 11.28006,-22.2504 1.70592,37.5446 19.23849,22.658 m 0,0 4.80962,5.6645"
     id="path16"
     style="fill:none;stroke:#000000;stroke-width:0.15625;stroke-miterlimit:4;stroke-dasharray:none"
     inkscape:connector-curvature="0" />
  <path
     d="m 151.58056,1477.5617 5.97497,-1.6995 c -1.5124,-23.4821 33.12938,16.5685 23.89986,-6.7979 -9.22952,-23.3664 29.3715,12.4391 23.89987,-6.7979 m 0,0 5.97497,-1.6995"
     id="path18"
     style="fill:none;stroke:#000000;stroke-width:0.15625;stroke-miterlimit:4;stroke-dasharray:none"
     inkscape:connector-curvature="0" />
  <path
     d="m 151.58056,1477.5617 2.32777,4.9118 c 23.37216,-2.0538 -9.87106,30.5425 9.3111,19.6474 19.18216,-10.8951 -15.99134,31.6385 9.3111,19.6474 m 0,0 2.32778,4.9118"
     id="path20"
     style="fill:none;stroke:#000000;stroke-width:0.15625;stroke-miterlimit:4;stroke-dasharray:none"
     inkscape:connector-curvature="0" />
  <path
     d="m 174.85831,1526.6801 5.73574,2.9071 c 17.24697,-22.6496 14.63018,36.5639 22.94295,11.6283 8.31276,-24.9356 13.44916,30.3598 22.94294,11.6283 m 0,0 5.73574,2.9071"
     id="path22"
     style="fill:none;stroke:#000000;stroke-width:0.15625;stroke-miterlimit:4;stroke-dasharray:none"
     inkscape:connector-curvature="0" />
  <path
     d="m 304.28584,1636.3025 0.74593,6.3259 c 25.87229,5.9285 -20.2544,33.1746 2.98372,25.3034 23.23812,-7.8712 -18.86491,27.8798 2.98371,25.3034 m 0,0 0.74593,6.3259"
     id="path24"
     style="fill:none;stroke:#000000;stroke-width:0.15625;stroke-miterlimit:4;stroke-dasharray:none"
     inkscape:connector-curvature="0" />
  <path
     d="m 237.99544,1727.2225 7.37497,-2.7662 c 3.82816,-32.4086 44.63601,4.6188 29.49989,-11.0646 -15.13612,-15.6833 38.63063,13.2794 29.49989,-11.0645 m 0,0 7.37497,-2.7662"
     id="path26"
     style="fill:none;stroke:#000000;stroke-width:0.15625;stroke-miterlimit:4;stroke-dasharray:none"
     inkscape:connector-curvature="0" />
  <path
     d="m 205.71768,1656.4373 3.22778,7.0785 c 22.98057,-0.2186 -3.497,47.7666 12.9111,28.3141 16.40809,-19.4525 -8.01588,37.8567 12.9111,28.314 m 0,0 3.22777,7.0786"
     id="path28"
     style="fill:none;stroke:#000000;stroke-width:0.15624999;stroke-miterlimit:4;stroke-dasharray:none"
     inkscape:connector-curvature="0" />
  <path
     d="m 205.71768,1656.4373 4.26959,-5.0012 c -12.94283,-24.8834 44.44445,-10.4762 17.07837,-20.0049 -27.36607,-9.5288 33.81037,-5.7207 17.07837,-20.0049 m 0,0 4.26959,-5.0012"
     id="path30"
     style="fill:none;stroke:#000000;stroke-width:0.15625;stroke-miterlimit:4;stroke-dasharray:none"
     inkscape:connector-curvature="0" />
  <path
     d="m 59.69651,1541.096 7.17569,1.8681 c 14.69564,-24.0741 28.86236,33.3473 28.70274,7.4724 -0.15961,-25.8748 22.15231,32.6338 28.70275,7.4725 m 0,0 7.17569,1.8681"
     id="path32"
     style="fill:none;stroke:#000000;stroke-width:0.15624999;stroke-miterlimit:4;stroke-dasharray:none"
     inkscape:connector-curvature="0" />
  <path
     d="m 37.7836,1598.5846 2.19129,-5.7489 c -21.22712,-17.3089 31.89404,-24.7139 8.76516,-22.9954 -23.12889,1.7185 27.45355,-15.8719 8.76515,-22.9954 m 0,0 2.19129,-5.7489"
     id="path34"
     style="fill:none;stroke:#000000;stroke-width:0.15625;stroke-miterlimit:4;stroke-dasharray:none"
     inkscape:connector-curvature="0" />
  <path
     d="m 37.7836,1598.5846 5.38794,7.622 c 16.87036,-10.7825 4.92564,46.8131 21.55177,30.4879 16.62612,-16.3252 0.32072,45.4961 21.55176,30.488 m 0,0 5.38794,7.622"
     id="path36"
     style="fill:none;stroke:#000000;stroke-width:0.15625;stroke-miterlimit:4;stroke-dasharray:none"
     inkscape:connector-curvature="0" />
  <path
     d="m 91.66304,1674.8045 5.44518,-3.5944 c -7.80219,-28.4001 43.19587,5.0362 21.78073,-14.3778 -21.41515,-19.4139 37.75707,9.8246 21.78072,-14.3778 m 0,0 5.44518,-3.5944"
     id="path38"
     style="fill:none;stroke:#000000;stroke-width:0.15625;stroke-miterlimit:4;stroke-dasharray:none"
     inkscape:connector-curvature="0" />
  <path
     d="m 131.4534,1559.7771 1.46614,7.9083 c 29.58348,5.9676 -19.61369,47.8088 5.86458,31.6332 25.47827,-16.1757 -17.73332,36.0081 5.86457,31.6332 m 0,0 1.46615,7.9083"
     id="path40"
     style="fill:none;stroke:#000000;stroke-width:0.15625;stroke-miterlimit:4;stroke-dasharray:none"
     inkscape:connector-curvature="0" />
  <path
     d="m 131.4534,1559.7771 4.34049,-3.3097 c -9.51613,-24.1826 36.17201,-1.1732 17.36196,-13.2388 -18.81005,-12.0656 31.91437,5.846 17.36196,-13.2388 m 0,0 4.34049,-3.3096"
     id="path42"
     style="fill:none;stroke:#000000;stroke-width:0.15625;stroke-miterlimit:4;stroke-dasharray:none"
     inkscape:connector-curvature="0" />
  <path
     d="m 68.75467,1481.1376 8.28258,-0.3576 c 14.52915,-28.6533 42.53442,24.1879 33.13034,-1.4303 -9.40408,-25.6182 34.29496,25.5444 33.13034,-1.4304 m 0,0 8.28258,-0.3576"
     id="path44"
     style="fill:none;stroke:#000000;stroke-width:0.15625;stroke-miterlimit:4;stroke-dasharray:none"
     inkscape:connector-curvature="0" />
  <path
     d="m 59.69651,1541.096 0.90582,-5.9958 c -26.24416,-7.0312 30.69026,-29.0932 3.62326,-23.9833 -27.067,5.1098 31.3091,-19.8008 3.62326,-23.9834 m 0,0 0.90582,-5.9958"
     id="path46"
     style="fill:none;stroke:#000000;stroke-width:0.15625;stroke-miterlimit:4;stroke-dasharray:none"
     inkscape:connector-curvature="0" />
  <path
     d="m 312.14261,1514.5246 4.42438,-5.4302 c -9.97655,-22.5847 38.40614,-7.5587 17.69751,-21.7209 -20.70862,-14.1622 39.40458,-4.0346 17.69752,-21.7209 m 0,0 4.42438,-5.4302"
     id="path48"
     style="fill:none;stroke:#000000;stroke-width:0.15625;stroke-miterlimit:4;stroke-dasharray:none"
     inkscape:connector-curvature="0" />
  <path
     d="m 189.23331,1400.3672 2.20969,6.02 c 31.42236,1.4451 -8.00251,39.142 8.83878,24.0799 16.84129,-15.0622 -11.81387,31.6606 8.83877,24.0798 m 0,0 2.2097,6.02"
     id="path54"
     style="fill:none;stroke:#000000;stroke-width:0.15625;stroke-miterlimit:4;stroke-dasharray:none"
     inkscape:connector-curvature="0" />
  <path
     d="m 311.74513,1699.561 6.08233,0.9931 c 13.59901,-22.0975 25.61391,30.5262 24.32934,3.9722 -1.28456,-26.554 21.10662,23.7109 24.32934,3.9723 m 0,0 6.08234,0.993"
     id="path56"
     style="fill:none;stroke:#000000;stroke-width:0.15625;stroke-miterlimit:4;stroke-dasharray:none"
     inkscape:connector-curvature="0" />
  <path
     d="m 340.80405,1582.941 6.32718,3.0821 c 17.22702,-16.0797 18.74121,40.2746 25.30872,12.3284 6.56751,-27.9462 13.48468,36.6017 25.30872,12.3285 m 0,0 6.32718,3.0821"
     id="path58"
     style="fill:none;stroke:#000000;stroke-width:0.15624999;stroke-miterlimit:4;stroke-dasharray:none"
     inkscape:connector-curvature="0" />
  <path
     d="m 372.56843,1709.4916 3.15074,-9.5729 c -26.91621,-10.9809 37.58686,-50.2279 12.60296,-38.2919 -24.9839,11.936 37.2997,-30.1634 12.60296,-38.2918 m 0,0 3.15074,-9.573"
     id="path60"
     style="fill:none;stroke:#000000;stroke-width:0.15625;stroke-miterlimit:4;stroke-dasharray:none"
     inkscape:connector-curvature="0" />
  <path
     d="m 237.99544,1727.2225 0.009,5.6373 c 20.01507,8.9861 -23.94902,30.4815 0.0377,22.5491 23.98676,-7.9324 -24.96222,22.591 0.0377,22.5492 m 0,0 0.009,5.6373"
     id="path62"
     style="fill:none;stroke:#000000;stroke-width:0.15625;stroke-miterlimit:4;stroke-dasharray:none"
     inkscape:connector-curvature="0" />
  <path
     d="m 146.11484,1638.8601 5.96028,1.7577 c 16.35544,-18.1134 22.76017,34.8618 23.84113,7.0309 1.08096,-27.8308 16.20386,32.9282 23.84113,7.0309 m 0,0 5.96028,1.7577"
     id="path64"
     style="fill:none;stroke:#000000;stroke-width:0.15625;stroke-miterlimit:4;stroke-dasharray:none"
     inkscape:connector-curvature="0" />
  <path
     d="m 66.27001,1729.7403 2.5393,-5.4936 c -19.75383,-14.4647 29.32734,-15.7802 10.15722,-21.9743 -19.17012,-6.1941 28.31161,-13.5828 10.15721,-21.9743 m 0,0 2.53931,-5.4936"
     id="path66"
     style="fill:none;stroke:#000000;stroke-width:0.15625;stroke-miterlimit:4;stroke-dasharray:none"
     inkscape:connector-curvature="0" />
  <path
     d="m 148.0831,1778.5859 9.00067,0.5009 c 9.54545,-25.509 47.32549,25.6696 36.00268,2.0038 -11.3228,-23.6658 34.83569,22.9714 36.00268,2.0038 m 0,0 9.00067,0.501"
     id="path70"
     style="fill:none;stroke:#000000;stroke-width:0.15625;stroke-miterlimit:4;stroke-dasharray:none"
     inkscape:connector-curvature="0" />
  <path
     d="m 404.07582,1613.7621 1.319,-7.6654 c -19.04334,-19.0614 32.80825,-31.4482 5.27602,-30.6612 -27.53224,0.787 30.89943,-26.2521 5.27601,-30.6612 m 0,0 1.319,-7.6653"
     id="path74"
     style="fill:none;stroke:#000000;stroke-width:0.15625;stroke-miterlimit:4;stroke-dasharray:none"
     inkscape:connector-curvature="0" />
  <path
     d="m 344.05749,1764.4042 2.8511,-5.4913 c -19.58946,-14.3539 35.52342,-18.5053 11.40438,-21.965 -24.11904,-3.4597 35.36702,-9.5235 11.40439,-21.9651 m 0,0 2.85109,-5.4912"
     id="path76"
     style="fill:none;stroke:#000000;stroke-width:0.15625;stroke-miterlimit:4;stroke-dasharray:none"
     inkscape:connector-curvature="0" />
  <path
     d="m 238.0898,1783.5954 10.59677,-1.9192 c 3.30947,-30.0711 49.6744,20.4756 42.38709,-7.6764 -7.28731,-28.152 47.37683,19.8753 42.38709,-7.6765 m 0,0 10.59677,-1.9191"
     id="path78"
     style="fill:none;stroke:#000000;stroke-width:0.15625;stroke-miterlimit:4;stroke-dasharray:none"
     inkscape:connector-curvature="0" />
  <path
     d="m 12.39058,1653.5203 2.5393,-5.4936 c -17.4684604,-19.4089 35.64345,-17.5278 10.15722,-21.9743 -25.48623043,-4.4465 36.48109,-9.8066 10.15721,-21.9743 m 0,0 2.53931,-5.4936"
     id="path80"
     style="fill:none;stroke:#000000;stroke-width:0.15625;stroke-miterlimit:4;stroke-dasharray:none"
     inkscape:connector-curvature="0" />
  <path
     d="m 68.75467,1481.1376 2.15109,-6.0912 c -22.41521,-8.6009 36.26471,-27.6136 8.60438,-24.365 -27.66033,3.2486 35.94935,-14.7083 8.60437,-24.365 m 0,0 2.1511,-6.0913"
     id="path84"
     style="fill:none;stroke:#000000;stroke-width:0.15625;stroke-miterlimit:4;stroke-dasharray:none"
     inkscape:connector-curvature="0" />
  <path
     d="m 90.26562,1420.2251 19.13077,-1.7515 c 18.94687,-24.8309 107.13386,11.2793 76.52308,-7.006 -30.61079,-18.2853 78.62004,15.8982 76.52307,-7.006 m 0,0 19.13077,-1.7515"
     id="path90"
     style="fill:none;stroke:#000000;stroke-width:0.15625;stroke-miterlimit:4;stroke-dasharray:none"
     inkscape:connector-curvature="0" />
  <path
     d="m 281.57334,1402.7101 13.56926,13.4399 c 37.99717,-0.3673 61.76209,97.768 54.27702,53.7595 -7.48508,-44.0084 38.09164,70.1008 54.27702,53.7596 m 0,0 13.56925,13.4399"
     id="path92"
     style="fill:none;stroke:#000000;stroke-width:0.15625;stroke-miterlimit:4;stroke-dasharray:none"
     inkscape:connector-curvature="0" />
  <path
     d="m 12.39058,1653.5203 13.56925,12.5066 c 23.05302,-5.9517 42.08089,68.7044 54.27702,50.0262 12.19614,-18.6782 40.04477,65.4678 54.27702,50.0262 m 0,0 13.56926,12.5066"
     id="path96"
     style="fill:none;stroke:#000000;stroke-width:0.15625;stroke-miterlimit:4;stroke-dasharray:none"
     inkscape:connector-curvature="0" />
</svg>
