<svg xmlns="http://www.w3.org/2000/svg"
  xmlns:xlink="http://www.w3.org/1999/xlink"
  width="500" height="500">
<polygon fill="none" stroke="black" stroke-width="2" points="83.33,83.33 "/><polygon fill="none" stroke="black" stroke-width="2" points="83.33,183.33 116.67,116.67 83.33,83.33 "/><polygon fill="none" stroke="black" stroke-width="2" points="116.67,216.67 83.33,183.33 "/><polygon fill="none" stroke="black" stroke-width="2" points="116.67,316.67 83.33,283.33 "/><polygon fill="none" stroke="black" stroke-width="2" points="83.33,83.33 116.67,116.67 183.33,83.33 "/><polygon fill="none" stroke="black" stroke-width="2" points="116.67,216.67 83.33,183.33 116.67,116.67 183.33,83.33 216.67,116.67 183.33,183.33 "/><polygon fill="none" stroke="black" stroke-width="2" points="116.67,216.67 183.33,183.33 216.67,216.67 183.33,283.33 116.67,316.67 83.33,283.33 "/><polygon fill="none" stroke="black" stroke-width="2" points="116.67,316.67 183.33,283.33 216.67,316.67 "/><polygon fill="none" stroke="black" stroke-width="2" points="216.67,116.67 183.33,83.33 "/><polygon fill="none" stroke="black" stroke-width="2" points="283.33,183.33 316.67,116.67 283.33,83.33 216.67,116.67 183.33,183.33 216.67,216.67 "/><polygon fill="none" stroke="black" stroke-width="2" points="283.33,283.33 316.67,216.67 283.33,183.33 216.67,216.67 183.33,283.33 216.67,316.67 "/><polygon fill="none" stroke="black" stroke-width="2" points="316.67,316.67 283.33,283.33 216.67,316.67 "/><polygon fill="none" stroke="black" stroke-width="2" points="316.67,116.67 283.33,83.33 "/><polygon fill="none" stroke="black" stroke-width="2" points="283.33,183.33 316.67,216.67 "/><polygon fill="none" stroke="black" stroke-width="2" points="316.67,316.67 283.33,283.33 316.67,216.67 "/><polygon fill="none" stroke="black" stroke-width="2" points="316.67,316.67 "/><ellipse
      cx="50.00"
      cy="50.00"
      rx="1"
      ry="1"
      stroke="#fc8d62"
      stroke-width="4"
    /><ellipse
      cx="50.00"
      cy="150.00"
      rx="1"
      ry="1"
      stroke="#fc8d62"
      stroke-width="4"
    /><ellipse
      cx="50.00"
      cy="250.00"
      rx="1"
      ry="1"
      stroke="#fc8d62"
      stroke-width="4"
    /><ellipse
      cx="50.00"
      cy="350.00"
      rx="1"
      ry="1"
      stroke="#fc8d62"
      stroke-width="4"
    /><ellipse
      cx="150.00"
      cy="50.00"
      rx="1"
      ry="1"
      stroke="#fc8d62"
      stroke-width="4"
    /><ellipse
      cx="150.00"
      cy="150.00"
      rx="1"
      ry="1"
      stroke="#fc8d62"
      stroke-width="4"
    /><ellipse
      cx="150.00"
      cy="250.00"
      rx="1"
      ry="1"
      stroke="#fc8d62"
      stroke-width="4"
    /><ellipse
      cx="150.00"
      cy="350.00"
      rx="1"
      ry="1"
      stroke="#fc8d62"
      stroke-width="4"
    /><ellipse
      cx="250.00"
      cy="50.00"
      rx="1"
      ry="1"
      stroke="#fc8d62"
      stroke-width="4"
    /><ellipse
      cx="250.00"
      cy="150.00"
      rx="1"
      ry="1"
      stroke="#fc8d62"
      stroke-width="4"
    /><ellipse
      cx="250.00"
      cy="250.00"
      rx="1"
      ry="1"
      stroke="#fc8d62"
      stroke-width="4"
    /><ellipse
      cx="250.00"
      cy="350.00"
      rx="1"
      ry="1"
      stroke="#fc8d62"
      stroke-width="4"
    /><ellipse
      cx="350.00"
      cy="50.00"
      rx="1"
      ry="1"
      stroke="#fc8d62"
      stroke-width="4"
    /><ellipse
      cx="350.00"
      cy="150.00"
      rx="1"
      ry="1"
      stroke="#fc8d62"
      stroke-width="4"
    /><ellipse
      cx="350.00"
      cy="250.00"
      rx="1"
      ry="1"
      stroke="#fc8d62"
      stroke-width="4"
    /><ellipse
      cx="350.00"
      cy="350.00"
      rx="1"
      ry="1"
      stroke="#fc8d62"
      stroke-width="4"
    />
</svg>
