<svg xmlns="http://www.w3.org/2000/svg"
  xmlns:xlink="http://www.w3.org/1999/xlink"
  width="1000" height="1000">
<path 
        d="M0,21 C30,28 45,28 45,21 C45,17 34,16 35,11 C36,6 42.5,1 50,1 C57.5,1 64,6 65,11 C66,16 55,20 55,21 C55,24 70,24 100,21"
        id="path-113.67-99.00-176.00-65.00"
        stroke="#979797"
        fill="none"
        transform="translate(113.666667 78.000000) rotate(-28.610460 0 21) scale(0.710031 1)">
      </path><path 
        d="M0,21 C30,28 45,28 45,21 C45,17 34,16 35,11 C36,6 42.5,1 50,1 C57.5,1 64,6 65,11 C66,16 55,20 55,21 C55,24 70,24 100,21"
        id="path-142.00-210.67-149.00-136.67"
        stroke="#979797"
        fill="none"
        transform="translate(142.000000 189.666667) rotate(-84.596209 0 21) scale(0.743303 1)">
      </path><path 
        d="M0,21 C30,28 45,28 45,21 C45,17 34,16 35,11 C36,6 42.5,1 50,1 C57.5,1 64,6 65,11 C66,16 55,20 55,21 C55,24 70,24 100,21"
        id="path-113.67-99.00-149.00-136.67"
        stroke="#979797"
        fill="none"
        transform="translate(113.666667 78.000000) rotate(46.830749 0 21) scale(0.516452 1)">
      </path><path 
        d="M0,21 C30,28 45,28 45,21 C45,17 34,16 35,11 C36,6 42.5,1 50,1 C57.5,1 64,6 65,11 C66,16 55,20 55,21 C55,24 70,24 100,21"
        id="path-113.67-99.00-142.00-210.67"
        stroke="#979797"
        fill="none"
        transform="translate(113.666667 78.000000) rotate(75.762720 0 21) scale(1.152051 1)">
      </path><path 
        d="M0,21 C30,28 45,28 45,21 C45,17 34,16 35,11 C36,6 42.5,1 50,1 C57.5,1 64,6 65,11 C66,16 55,20 55,21 C55,24 70,24 100,21"
        id="path-66.33-384.00-97.33-320.00"
        stroke="#979797"
        fill="none"
        transform="translate(66.333333 363.000000) rotate(-64.155612 0 21) scale(0.711126 1)">
      </path><path 
        d="M0,21 C30,28 45,28 45,21 C45,17 34,16 35,11 C36,6 42.5,1 50,1 C57.5,1 64,6 65,11 C66,16 55,20 55,21 C55,24 70,24 100,21"
        id="path-94.00-248.00-97.33-320.00"
        stroke="#979797"
        fill="none"
        transform="translate(94.000000 227.000000) rotate(87.349310 0 21) scale(0.720771 1)">
      </path><path 
        d="M0,21 C30,28 45,28 45,21 C45,17 34,16 35,11 C36,6 42.5,1 50,1 C57.5,1 64,6 65,11 C66,16 55,20 55,21 C55,24 70,24 100,21"
        id="path-66.33-384.00-94.00-248.00"
        stroke="#979797"
        fill="none"
        transform="translate(66.333333 363.000000) rotate(-78.501151 0 21) scale(1.387856 1)">
      </path><path 
        d="M0,21 C30,28 45,28 45,21 C45,17 34,16 35,11 C36,6 42.5,1 50,1 C57.5,1 64,6 65,11 C66,16 55,20 55,21 C55,24 70,24 100,21"
        id="path-66.33-384.00-109.67-437.67"
        stroke="#979797"
        fill="none"
        transform="translate(66.333333 363.000000) rotate(51.080741 0 21) scale(0.689775 1)">
      </path><path 
        d="M0,21 C30,28 45,28 45,21 C45,17 34,16 35,11 C36,6 42.5,1 50,1 C57.5,1 64,6 65,11 C66,16 55,20 55,21 C55,24 70,24 100,21"
        id="path-109.67-437.67-143.67-395.67"
        stroke="#979797"
        fill="none"
        transform="translate(109.666667 416.666667) rotate(-51.009006 0 21) scale(0.540370 1)">
      </path><path 
        d="M0,21 C30,28 45,28 45,21 C45,17 34,16 35,11 C36,6 42.5,1 50,1 C57.5,1 64,6 65,11 C66,16 55,20 55,21 C55,24 70,24 100,21"
        id="path-132.33-343.67-143.67-395.67"
        stroke="#979797"
        fill="none"
        transform="translate(132.333333 322.666667) rotate(77.704734 0 21) scale(0.532207 1)">
      </path><path 
        d="M0,21 C30,28 45,28 45,21 C45,17 34,16 35,11 C36,6 42.5,1 50,1 C57.5,1 64,6 65,11 C66,16 55,20 55,21 C55,24 70,24 100,21"
        id="path-97.33-320.00-132.33-343.67"
        stroke="#979797"
        fill="none"
        transform="translate(97.333333 299.000000) rotate(34.066183 0 21) scale(0.422506 1)">
      </path><path 
        d="M0,21 C30,28 45,28 45,21 C45,17 34,16 35,11 C36,6 42.5,1 50,1 C57.5,1 64,6 65,11 C66,16 55,20 55,21 C55,24 70,24 100,21"
        id="path-109.67-437.67-134.67-501.00"
        stroke="#979797"
        fill="none"
        transform="translate(109.666667 416.666667) rotate(68.459024 0 21) scale(0.680890 1)">
      </path><path 
        d="M0,21 C30,28 45,28 45,21 C45,17 34,16 35,11 C36,6 42.5,1 50,1 C57.5,1 64,6 65,11 C66,16 55,20 55,21 C55,24 70,24 100,21"
        id="path-91.33-548.00-134.67-501.00"
        stroke="#979797"
        fill="none"
        transform="translate(91.333333 527.000000) rotate(-47.324383 0 21) scale(0.639279 1)">
      </path><path 
        d="M0,21 C30,28 45,28 45,21 C45,17 34,16 35,11 C36,6 42.5,1 50,1 C57.5,1 64,6 65,11 C66,16 55,20 55,21 C55,24 70,24 100,21"
        id="path-66.33-384.00-91.33-548.00"
        stroke="#979797"
        fill="none"
        transform="translate(66.333333 363.000000) rotate(81.332613 0 21) scale(1.658945 1)">
      </path><path 
        d="M0,21 C30,28 45,28 45,21 C45,17 34,16 35,11 C36,6 42.5,1 50,1 C57.5,1 64,6 65,11 C66,16 55,20 55,21 C55,24 70,24 100,21"
        id="path-91.33-548.00-99.33-603.00"
        stroke="#979797"
        fill="none"
        transform="translate(91.333333 527.000000) rotate(81.724107 0 21) scale(0.555788 1)">
      </path><path 
        d="M0,21 C30,28 45,28 45,21 C45,17 34,16 35,11 C36,6 42.5,1 50,1 C57.5,1 64,6 65,11 C66,16 55,20 55,21 C55,24 70,24 100,21"
        id="path-99.33-603.00-146.67-632.67"
        stroke="#979797"
        fill="none"
        transform="translate(99.333333 582.000000) rotate(32.077864 0 21) scale(0.558619 1)">
      </path><path 
        d="M0,21 C30,28 45,28 45,21 C45,17 34,16 35,11 C36,6 42.5,1 50,1 C57.5,1 64,6 65,11 C66,16 55,20 55,21 C55,24 70,24 100,21"
        id="path-176.00-65.00-211.33-102.67"
        stroke="#979797"
        fill="none"
        transform="translate(176.000000 44.000000) rotate(46.830749 0 21) scale(0.516452 1)">
      </path><path 
        d="M0,21 C30,28 45,28 45,21 C45,17 34,16 35,11 C36,6 42.5,1 50,1 C57.5,1 64,6 65,11 C66,16 55,20 55,21 C55,24 70,24 100,21"
        id="path-149.00-136.67-211.33-102.67"
        stroke="#979797"
        fill="none"
        transform="translate(149.000000 115.666667) rotate(-28.610460 0 21) scale(0.710031 1)">
      </path><path 
        d="M0,21 C30,28 45,28 45,21 C45,17 34,16 35,11 C36,6 42.5,1 50,1 C57.5,1 64,6 65,11 C66,16 55,20 55,21 C55,24 70,24 100,21"
        id="path-211.33-102.67-244.33-137.67"
        stroke="#979797"
        fill="none"
        transform="translate(211.333333 81.666667) rotate(46.684684 0 21) scale(0.481041 1)">
      </path><path 
        d="M0,21 C30,28 45,28 45,21 C45,17 34,16 35,11 C36,6 42.5,1 50,1 C57.5,1 64,6 65,11 C66,16 55,20 55,21 C55,24 70,24 100,21"
        id="path-244.33-137.67-252.00-209.00"
        stroke="#979797"
        fill="none"
        transform="translate(244.333333 116.666667) rotate(83.865590 0 21) scale(0.717441 1)">
      </path><path 
        d="M0,21 C30,28 45,28 45,21 C45,17 34,16 35,11 C36,6 42.5,1 50,1 C57.5,1 64,6 65,11 C66,16 55,20 55,21 C55,24 70,24 100,21"
        id="path-212.00-248.00-252.00-209.00"
        stroke="#979797"
        fill="none"
        transform="translate(212.000000 227.000000) rotate(-44.274776 0 21) scale(0.558659 1)">
      </path><path 
        d="M0,21 C30,28 45,28 45,21 C45,17 34,16 35,11 C36,6 42.5,1 50,1 C57.5,1 64,6 65,11 C66,16 55,20 55,21 C55,24 70,24 100,21"
        id="path-142.00-210.67-212.00-248.00"
        stroke="#979797"
        fill="none"
        transform="translate(142.000000 189.666667) rotate(28.072487 0 21) scale(0.793333 1)">
      </path><path 
        d="M0,21 C30,28 45,28 45,21 C45,17 34,16 35,11 C36,6 42.5,1 50,1 C57.5,1 64,6 65,11 C66,16 55,20 55,21 C55,24 70,24 100,21"
        id="path-199.00-309.00-212.00-248.00"
        stroke="#979797"
        fill="none"
        transform="translate(199.000000 288.000000) rotate(-77.969404 0 21) scale(0.623699 1)">
      </path><path 
        d="M0,21 C30,28 45,28 45,21 C45,17 34,16 35,11 C36,6 42.5,1 50,1 C57.5,1 64,6 65,11 C66,16 55,20 55,21 C55,24 70,24 100,21"
        id="path-132.33-343.67-199.00-309.00"
        stroke="#979797"
        fill="none"
        transform="translate(132.333333 322.666667) rotate(-27.474432 0 21) scale(0.751413 1)">
      </path><path 
        d="M0,21 C30,28 45,28 45,21 C45,17 34,16 35,11 C36,6 42.5,1 50,1 C57.5,1 64,6 65,11 C66,16 55,20 55,21 C55,24 70,24 100,21"
        id="path-94.00-248.00-142.00-210.67"
        stroke="#979797"
        fill="none"
        transform="translate(94.000000 227.000000) rotate(-37.874984 0 21) scale(0.608094 1)">
      </path><path 
        d="M0,21 C30,28 45,28 45,21 C45,17 34,16 35,11 C36,6 42.5,1 50,1 C57.5,1 64,6 65,11 C66,16 55,20 55,21 C55,24 70,24 100,21"
        id="path-199.00-309.00-247.33-332.00"
        stroke="#979797"
        fill="none"
        transform="translate(199.000000 288.000000) rotate(25.448005 0 21) scale(0.535267 1)">
      </path><path 
        d="M0,21 C30,28 45,28 45,21 C45,17 34,16 35,11 C36,6 42.5,1 50,1 C57.5,1 64,6 65,11 C66,16 55,20 55,21 C55,24 70,24 100,21"
        id="path-213.67-394.00-247.33-332.00"
        stroke="#979797"
        fill="none"
        transform="translate(213.666667 373.000000) rotate(-61.497564 0 21) scale(0.705510 1)">
      </path><path 
        d="M0,21 C30,28 45,28 45,21 C45,17 34,16 35,11 C36,6 42.5,1 50,1 C57.5,1 64,6 65,11 C66,16 55,20 55,21 C55,24 70,24 100,21"
        id="path-143.67-395.67-213.67-394.00"
        stroke="#979797"
        fill="none"
        transform="translate(143.666667 374.666667) rotate(-1.363928 0 21) scale(0.700198 1)">
      </path><path 
        d="M0,21 C30,28 45,28 45,21 C45,17 34,16 35,11 C36,6 42.5,1 50,1 C57.5,1 64,6 65,11 C66,16 55,20 55,21 C55,24 70,24 100,21"
        id="path-213.67-394.00-244.00-438.67"
        stroke="#979797"
        fill="none"
        transform="translate(213.666667 373.000000) rotate(55.819398 0 21) scale(0.539928 1)">
      </path><path 
        d="M0,21 C30,28 45,28 45,21 C45,17 34,16 35,11 C36,6 42.5,1 50,1 C57.5,1 64,6 65,11 C66,16 55,20 55,21 C55,24 70,24 100,21"
        id="path-199.00-503.67-244.00-438.67"
        stroke="#979797"
        fill="none"
        transform="translate(199.000000 482.666667) rotate(-55.304846 0 21) scale(0.790569 1)">
      </path><path 
        d="M0,21 C30,28 45,28 45,21 C45,17 34,16 35,11 C36,6 42.5,1 50,1 C57.5,1 64,6 65,11 C66,16 55,20 55,21 C55,24 70,24 100,21"
        id="path-134.67-501.00-199.00-503.67"
        stroke="#979797"
        fill="none"
        transform="translate(134.666667 480.000000) rotate(2.373596 0 21) scale(0.643886 1)">
      </path><path 
        d="M0,21 C30,28 45,28 45,21 C45,17 34,16 35,11 C36,6 42.5,1 50,1 C57.5,1 64,6 65,11 C66,16 55,20 55,21 C55,24 70,24 100,21"
        id="path-199.00-503.67-234.00-546.00"
        stroke="#979797"
        fill="none"
        transform="translate(199.000000 482.666667) rotate(50.417022 0 21) scale(0.549282 1)">
      </path><path 
        d="M0,21 C30,28 45,28 45,21 C45,17 34,16 35,11 C36,6 42.5,1 50,1 C57.5,1 64,6 65,11 C66,16 55,20 55,21 C55,24 70,24 100,21"
        id="path-146.67-632.67-216.00-608.00"
        stroke="#979797"
        fill="none"
        transform="translate(146.666667 611.666667) rotate(-19.583994 0 21) scale(0.735905 1)">
      </path><path 
        d="M0,21 C30,28 45,28 45,21 C45,17 34,16 35,11 C36,6 42.5,1 50,1 C57.5,1 64,6 65,11 C66,16 55,20 55,21 C55,24 70,24 100,21"
        id="path-216.00-608.00-234.00-546.00"
        stroke="#979797"
        fill="none"
        transform="translate(216.000000 587.000000) rotate(-73.810794 0 21) scale(0.645600 1)">
      </path><path 
        d="M0,21 C30,28 45,28 45,21 C45,17 34,16 35,11 C36,6 42.5,1 50,1 C57.5,1 64,6 65,11 C66,16 55,20 55,21 C55,24 70,24 100,21"
        id="path-257.33-640.00-293.33-670.67"
        stroke="#979797"
        fill="none"
        transform="translate(257.333333 619.000000) rotate(40.426079 0 21) scale(0.472911 1)">
      </path><path 
        d="M0,21 C30,28 45,28 45,21 C45,17 34,16 35,11 C36,6 42.5,1 50,1 C57.5,1 64,6 65,11 C66,16 55,20 55,21 C55,24 70,24 100,21"
        id="path-216.00-608.00-257.33-640.00"
        stroke="#979797"
        fill="none"
        transform="translate(216.000000 587.000000) rotate(37.746805 0 21) scale(0.522728 1)">
      </path><path 
        d="M0,21 C30,28 45,28 45,21 C45,17 34,16 35,11 C36,6 42.5,1 50,1 C57.5,1 64,6 65,11 C66,16 55,20 55,21 C55,24 70,24 100,21"
        id="path-146.67-632.67-293.33-670.67"
        stroke="#979797"
        fill="none"
        transform="translate(146.666667 611.666667) rotate(14.525416 0 21) scale(1.515094 1)">
      </path><path 
        d="M0,21 C30,28 45,28 45,21 C45,17 34,16 35,11 C36,6 42.5,1 50,1 C57.5,1 64,6 65,11 C66,16 55,20 55,21 C55,24 70,24 100,21"
        id="path-244.33-137.67-303.67-100.33"
        stroke="#979797"
        fill="none"
        transform="translate(244.333333 116.666667) rotate(-32.178656 0 21) scale(0.701015 1)">
      </path><path 
        d="M0,21 C30,28 45,28 45,21 C45,17 34,16 35,11 C36,6 42.5,1 50,1 C57.5,1 64,6 65,11 C66,16 55,20 55,21 C55,24 70,24 100,21"
        id="path-176.00-65.00-303.67-100.33"
        stroke="#979797"
        fill="none"
        transform="translate(176.000000 44.000000) rotate(15.470088 0 21) scale(1.324659 1)">
      </path><path 
        d="M0,21 C30,28 45,28 45,21 C45,17 34,16 35,11 C36,6 42.5,1 50,1 C57.5,1 64,6 65,11 C66,16 55,20 55,21 C55,24 70,24 100,21"
        id="path-252.00-209.00-316.33-213.67"
        stroke="#979797"
        fill="none"
        transform="translate(252.000000 188.000000) rotate(4.148904 0 21) scale(0.645024 1)">
      </path><path 
        d="M0,21 C30,28 45,28 45,21 C45,17 34,16 35,11 C36,6 42.5,1 50,1 C57.5,1 64,6 65,11 C66,16 55,20 55,21 C55,24 70,24 100,21"
        id="path-316.33-213.67-346.67-147.33"
        stroke="#979797"
        fill="none"
        transform="translate(316.333333 192.666667) rotate(-65.426025 0 21) scale(0.729399 1)">
      </path><path 
        d="M0,21 C30,28 45,28 45,21 C45,17 34,16 35,11 C36,6 42.5,1 50,1 C57.5,1 64,6 65,11 C66,16 55,20 55,21 C55,24 70,24 100,21"
        id="path-303.67-100.33-346.67-147.33"
        stroke="#979797"
        fill="none"
        transform="translate(303.666667 79.333333) rotate(47.544804 0 21) scale(0.637024 1)">
      </path><path 
        d="M0,21 C30,28 45,28 45,21 C45,17 34,16 35,11 C36,6 42.5,1 50,1 C57.5,1 64,6 65,11 C66,16 55,20 55,21 C55,24 70,24 100,21"
        id="path-316.33-213.67-358.67-238.33"
        stroke="#979797"
        fill="none"
        transform="translate(316.333333 192.666667) rotate(30.228379 0 21) scale(0.489955 1)">
      </path><path 
        d="M0,21 C30,28 45,28 45,21 C45,17 34,16 35,11 C36,6 42.5,1 50,1 C57.5,1 64,6 65,11 C66,16 55,20 55,21 C55,24 70,24 100,21"
        id="path-347.33-298.33-358.67-238.33"
        stroke="#979797"
        fill="none"
        transform="translate(347.333333 277.333333) rotate(-79.303489 0 21) scale(0.610610 1)">
      </path><path 
        d="M0,21 C30,28 45,28 45,21 C45,17 34,16 35,11 C36,6 42.5,1 50,1 C57.5,1 64,6 65,11 C66,16 55,20 55,21 C55,24 70,24 100,21"
        id="path-313.33-335.67-347.33-298.33"
        stroke="#979797"
        fill="none"
        transform="translate(313.333333 314.666667) rotate(-47.675427 0 21) scale(0.504953 1)">
      </path><path 
        d="M0,21 C30,28 45,28 45,21 C45,17 34,16 35,11 C36,6 42.5,1 50,1 C57.5,1 64,6 65,11 C66,16 55,20 55,21 C55,24 70,24 100,21"
        id="path-247.33-332.00-313.33-335.67"
        stroke="#979797"
        fill="none"
        transform="translate(247.333333 311.000000) rotate(3.179830 0 21) scale(0.661018 1)">
      </path><path 
        d="M0,21 C30,28 45,28 45,21 C45,17 34,16 35,11 C36,6 42.5,1 50,1 C57.5,1 64,6 65,11 C66,16 55,20 55,21 C55,24 70,24 100,21"
        id="path-313.33-335.67-344.00-401.00"
        stroke="#979797"
        fill="none"
        transform="translate(313.333333 314.666667) rotate(64.855214 0 21) scale(0.721726 1)">
      </path><path 
        d="M0,21 C30,28 45,28 45,21 C45,17 34,16 35,11 C36,6 42.5,1 50,1 C57.5,1 64,6 65,11 C66,16 55,20 55,21 C55,24 70,24 100,21"
        id="path-308.33-442.00-344.00-401.00"
        stroke="#979797"
        fill="none"
        transform="translate(308.333333 421.000000) rotate(-48.979382 0 21) scale(0.543425 1)">
      </path><path 
        d="M0,21 C30,28 45,28 45,21 C45,17 34,16 35,11 C36,6 42.5,1 50,1 C57.5,1 64,6 65,11 C66,16 55,20 55,21 C55,24 70,24 100,21"
        id="path-244.00-438.67-308.33-442.00"
        stroke="#979797"
        fill="none"
        transform="translate(244.000000 417.666667) rotate(2.966041 0 21) scale(0.644196 1)">
      </path><path 
        d="M0,21 C30,28 45,28 45,21 C45,17 34,16 35,11 C36,6 42.5,1 50,1 C57.5,1 64,6 65,11 C66,16 55,20 55,21 C55,24 70,24 100,21"
        id="path-234.00-546.00-306.33-513.33"
        stroke="#979797"
        fill="none"
        transform="translate(234.000000 525.000000) rotate(-24.304549 0 21) scale(0.793676 1)">
      </path><path 
        d="M0,21 C30,28 45,28 45,21 C45,17 34,16 35,11 C36,6 42.5,1 50,1 C57.5,1 64,6 65,11 C66,16 55,20 55,21 C55,24 70,24 100,21"
        id="path-306.33-513.33-308.33-442.00"
        stroke="#979797"
        fill="none"
        transform="translate(306.333333 492.333333) rotate(-88.393997 0 21) scale(0.713614 1)">
      </path><path 
        d="M0,21 C30,28 45,28 45,21 C45,17 34,16 35,11 C36,6 42.5,1 50,1 C57.5,1 64,6 65,11 C66,16 55,20 55,21 C55,24 70,24 100,21"
        id="path-306.33-513.33-346.00-545.67"
        stroke="#979797"
        fill="none"
        transform="translate(306.333333 492.333333) rotate(39.184373 0 21) scale(0.511751 1)">
      </path><path 
        d="M0,21 C30,28 45,28 45,21 C45,17 34,16 35,11 C36,6 42.5,1 50,1 C57.5,1 64,6 65,11 C66,16 55,20 55,21 C55,24 70,24 100,21"
        id="path-315.00-610.33-346.00-545.67"
        stroke="#979797"
        fill="none"
        transform="translate(315.000000 589.333333) rotate(-64.387805 0 21) scale(0.717132 1)">
      </path><path 
        d="M0,21 C30,28 45,28 45,21 C45,17 34,16 35,11 C36,6 42.5,1 50,1 C57.5,1 64,6 65,11 C66,16 55,20 55,21 C55,24 70,24 100,21"
        id="path-257.33-640.00-315.00-610.33"
        stroke="#979797"
        fill="none"
        transform="translate(257.333333 619.000000) rotate(-27.223594 0 21) scale(0.648503 1)">
      </path><path 
        d="M0,21 C30,28 45,28 45,21 C45,17 34,16 35,11 C36,6 42.5,1 50,1 C57.5,1 64,6 65,11 C66,16 55,20 55,21 C55,24 70,24 100,21"
        id="path-293.33-670.67-351.00-641.00"
        stroke="#979797"
        fill="none"
        transform="translate(293.333333 649.666667) rotate(-27.223594 0 21) scale(0.648503 1)">
      </path><path 
        d="M0,21 C30,28 45,28 45,21 C45,17 34,16 35,11 C36,6 42.5,1 50,1 C57.5,1 64,6 65,11 C66,16 55,20 55,21 C55,24 70,24 100,21"
        id="path-315.00-610.33-351.00-641.00"
        stroke="#979797"
        fill="none"
        transform="translate(315.000000 589.333333) rotate(40.426079 0 21) scale(0.472911 1)">
      </path><path 
        d="M0,21 C30,28 45,28 45,21 C45,17 34,16 35,11 C36,6 42.5,1 50,1 C57.5,1 64,6 65,11 C66,16 55,20 55,21 C55,24 70,24 100,21"
        id="path-411.33-114.67-512.00-74.00"
        stroke="#979797"
        fill="none"
        transform="translate(411.333333 93.666667) rotate(-21.997403 0 21) scale(1.085705 1)">
      </path><path 
        d="M0,21 C30,28 45,28 45,21 C45,17 34,16 35,11 C36,6 42.5,1 50,1 C57.5,1 64,6 65,11 C66,16 55,20 55,21 C55,24 70,24 100,21"
        id="path-346.67-147.33-411.33-114.67"
        stroke="#979797"
        fill="none"
        transform="translate(346.666667 126.333333) rotate(-26.800835 0 21) scale(0.724492 1)">
      </path><path 
        d="M0,21 C30,28 45,28 45,21 C45,17 34,16 35,11 C36,6 42.5,1 50,1 C57.5,1 64,6 65,11 C66,16 55,20 55,21 C55,24 70,24 100,21"
        id="path-303.67-100.33-512.00-74.00"
        stroke="#979797"
        fill="none"
        transform="translate(303.666667 79.333333) rotate(-7.203983 0 21) scale(2.099910 1)">
      </path><path 
        d="M0,21 C30,28 45,28 45,21 C45,17 34,16 35,11 C36,6 42.5,1 50,1 C57.5,1 64,6 65,11 C66,16 55,20 55,21 C55,24 70,24 100,21"
        id="path-411.33-114.67-446.67-153.67"
        stroke="#979797"
        fill="none"
        transform="translate(411.333333 93.666667) rotate(47.823960 0 21) scale(0.526255 1)">
      </path><path 
        d="M0,21 C30,28 45,28 45,21 C45,17 34,16 35,11 C36,6 42.5,1 50,1 C57.5,1 64,6 65,11 C66,16 55,20 55,21 C55,24 70,24 100,21"
        id="path-424.33-211.00-446.67-153.67"
        stroke="#979797"
        fill="none"
        transform="translate(424.333333 190.000000) rotate(-68.717351 0 21) scale(0.615296 1)">
      </path><path 
        d="M0,21 C30,28 45,28 45,21 C45,17 34,16 35,11 C36,6 42.5,1 50,1 C57.5,1 64,6 65,11 C66,16 55,20 55,21 C55,24 70,24 100,21"
        id="path-358.67-238.33-424.33-211.00"
        stroke="#979797"
        fill="none"
        transform="translate(358.666667 217.333333) rotate(-22.599210 0 21) scale(0.711282 1)">
      </path><path 
        d="M0,21 C30,28 45,28 45,21 C45,17 34,16 35,11 C36,6 42.5,1 50,1 C57.5,1 64,6 65,11 C66,16 55,20 55,21 C55,24 70,24 100,21"
        id="path-424.33-211.00-447.67-243.33"
        stroke="#979797"
        fill="none"
        transform="translate(424.333333 190.000000) rotate(54.183919 0 21) scale(0.398734 1)">
      </path><path 
        d="M0,21 C30,28 45,28 45,21 C45,17 34,16 35,11 C36,6 42.5,1 50,1 C57.5,1 64,6 65,11 C66,16 55,20 55,21 C55,24 70,24 100,21"
        id="path-406.00-306.33-447.67-243.33"
        stroke="#979797"
        fill="none"
        transform="translate(406.000000 285.333333) rotate(-56.520320 0 21) scale(0.755322 1)">
      </path><path 
        d="M0,21 C30,28 45,28 45,21 C45,17 34,16 35,11 C36,6 42.5,1 50,1 C57.5,1 64,6 65,11 C66,16 55,20 55,21 C55,24 70,24 100,21"
        id="path-347.33-298.33-406.00-306.33"
        stroke="#979797"
        fill="none"
        transform="translate(347.333333 277.333333) rotate(7.765166 0 21) scale(0.592096 1)">
      </path><path 
        d="M0,21 C30,28 45,28 45,21 C45,17 34,16 35,11 C36,6 42.5,1 50,1 C57.5,1 64,6 65,11 C66,16 55,20 55,21 C55,24 70,24 100,21"
        id="path-344.00-401.00-400.33-406.33"
        stroke="#979797"
        fill="none"
        transform="translate(344.000000 380.000000) rotate(5.408332 0 21) scale(0.565852 1)">
      </path><path 
        d="M0,21 C30,28 45,28 45,21 C45,17 34,16 35,11 C36,6 42.5,1 50,1 C57.5,1 64,6 65,11 C66,16 55,20 55,21 C55,24 70,24 100,21"
        id="path-400.33-406.33-428.33-349.00"
        stroke="#979797"
        fill="none"
        transform="translate(400.333333 385.333333) rotate(-63.970408 0 21) scale(0.638053 1)">
      </path><path 
        d="M0,21 C30,28 45,28 45,21 C45,17 34,16 35,11 C36,6 42.5,1 50,1 C57.5,1 64,6 65,11 C66,16 55,20 55,21 C55,24 70,24 100,21"
        id="path-406.00-306.33-428.33-349.00"
        stroke="#979797"
        fill="none"
        transform="translate(406.000000 285.333333) rotate(62.370753 0 21) scale(0.481583 1)">
      </path><path 
        d="M0,21 C30,28 45,28 45,21 C45,17 34,16 35,11 C36,6 42.5,1 50,1 C57.5,1 64,6 65,11 C66,16 55,20 55,21 C55,24 70,24 100,21"
        id="path-346.00-545.67-415.33-517.00"
        stroke="#979797"
        fill="none"
        transform="translate(346.000000 524.666667) rotate(-22.463212 0 21) scale(0.750259 1)">
      </path><path 
        d="M0,21 C30,28 45,28 45,21 C45,17 34,16 35,11 C36,6 42.5,1 50,1 C57.5,1 64,6 65,11 C66,16 55,20 55,21 C55,24 70,24 100,21"
        id="path-415.33-517.00-447.00-446.33"
        stroke="#979797"
        fill="none"
        transform="translate(415.333333 496.000000) rotate(-65.862219 0 21) scale(0.774374 1)">
      </path><path 
        d="M0,21 C30,28 45,28 45,21 C45,17 34,16 35,11 C36,6 42.5,1 50,1 C57.5,1 64,6 65,11 C66,16 55,20 55,21 C55,24 70,24 100,21"
        id="path-400.33-406.33-447.00-446.33"
        stroke="#979797"
        fill="none"
        transform="translate(400.333333 385.333333) rotate(40.601295 0 21) scale(0.614636 1)">
      </path><path 
        d="M0,21 C30,28 45,28 45,21 C45,17 34,16 35,11 C36,6 42.5,1 50,1 C57.5,1 64,6 65,11 C66,16 55,20 55,21 C55,24 70,24 100,21"
        id="path-415.33-517.00-450.67-559.00"
        stroke="#979797"
        fill="none"
        transform="translate(415.333333 496.000000) rotate(49.927110 0 21) scale(0.548857 1)">
      </path><path 
        d="M0,21 C30,28 45,28 45,21 C45,17 34,16 35,11 C36,6 42.5,1 50,1 C57.5,1 64,6 65,11 C66,16 55,20 55,21 C55,24 70,24 100,21"
        id="path-417.33-618.33-450.67-559.00"
        stroke="#979797"
        fill="none"
        transform="translate(417.333333 597.333333) rotate(-60.672821 0 21) scale(0.680555 1)">
      </path><path 
        d="M0,21 C30,28 45,28 45,21 C45,17 34,16 35,11 C36,6 42.5,1 50,1 C57.5,1 64,6 65,11 C66,16 55,20 55,21 C55,24 70,24 100,21"
        id="path-351.00-641.00-417.33-618.33"
        stroke="#979797"
        fill="none"
        transform="translate(351.000000 620.000000) rotate(-18.865736 0 21) scale(0.700991 1)">
      </path><path 
        d="M0,21 C30,28 45,28 45,21 C45,17 34,16 35,11 C36,6 42.5,1 50,1 C57.5,1 64,6 65,11 C66,16 55,20 55,21 C55,24 70,24 100,21"
        id="path-293.33-670.67-417.33-618.33"
        stroke="#979797"
        fill="none"
        transform="translate(293.333333 649.666667) rotate(-22.881837 0 21) scale(1.345912 1)">
      </path><path 
        d="M0,21 C30,28 45,28 45,21 C45,17 34,16 35,11 C36,6 42.5,1 50,1 C57.5,1 64,6 65,11 C66,16 55,20 55,21 C55,24 70,24 100,21"
        id="path-446.67-153.67-511.67-117.67"
        stroke="#979797"
        fill="none"
        transform="translate(446.666667 132.666667) rotate(-28.979708 0 21) scale(0.743034 1)">
      </path><path 
        d="M0,21 C30,28 45,28 45,21 C45,17 34,16 35,11 C36,6 42.5,1 50,1 C57.5,1 64,6 65,11 C66,16 55,20 55,21 C55,24 70,24 100,21"
        id="path-511.67-117.67-582.00-80.00"
        stroke="#979797"
        fill="none"
        transform="translate(511.666667 96.666667) rotate(-28.171054 0 21) scale(0.797844 1)">
      </path><path 
        d="M0,21 C30,28 45,28 45,21 C45,17 34,16 35,11 C36,6 42.5,1 50,1 C57.5,1 64,6 65,11 C66,16 55,20 55,21 C55,24 70,24 100,21"
        id="path-512.00-74.00-582.00-80.00"
        stroke="#979797"
        fill="none"
        transform="translate(512.000000 53.000000) rotate(4.899092 0 21) scale(0.702567 1)">
      </path><path 
        d="M0,21 C30,28 45,28 45,21 C45,17 34,16 35,11 C36,6 42.5,1 50,1 C57.5,1 64,6 65,11 C66,16 55,20 55,21 C55,24 70,24 100,21"
        id="path-511.67-117.67-556.00-154.33"
        stroke="#979797"
        fill="none"
        transform="translate(511.666667 96.666667) rotate(39.593051 0 21) scale(0.575316 1)">
      </path><path 
        d="M0,21 C30,28 45,28 45,21 C45,17 34,16 35,11 C36,6 42.5,1 50,1 C57.5,1 64,6 65,11 C66,16 55,20 55,21 C55,24 70,24 100,21"
        id="path-551.33-217.67-556.00-154.33"
        stroke="#979797"
        fill="none"
        transform="translate(551.333333 196.666667) rotate(-85.785821 0 21) scale(0.635050 1)">
      </path><path 
        d="M0,21 C30,28 45,28 45,21 C45,17 34,16 35,11 C36,6 42.5,1 50,1 C57.5,1 64,6 65,11 C66,16 55,20 55,21 C55,24 70,24 100,21"
        id="path-506.00-250.67-551.33-217.67"
        stroke="#979797"
        fill="none"
        transform="translate(506.000000 229.666667) rotate(-36.052415 0 21) scale(0.560724 1)">
      </path><path 
        d="M0,21 C30,28 45,28 45,21 C45,17 34,16 35,11 C36,6 42.5,1 50,1 C57.5,1 64,6 65,11 C66,16 55,20 55,21 C55,24 70,24 100,21"
        id="path-447.67-243.33-506.00-250.67"
        stroke="#979797"
        fill="none"
        transform="translate(447.666667 222.333333) rotate(7.165309 0 21) scale(0.587925 1)">
      </path><path 
        d="M0,21 C30,28 45,28 45,21 C45,17 34,16 35,11 C36,6 42.5,1 50,1 C57.5,1 64,6 65,11 C66,16 55,20 55,21 C55,24 70,24 100,21"
        id="path-428.33-349.00-494.33-351.33"
        stroke="#979797"
        fill="none"
        transform="translate(428.333333 328.000000) rotate(2.024765 0 21) scale(0.660412 1)">
      </path><path 
        d="M0,21 C30,28 45,28 45,21 C45,17 34,16 35,11 C36,6 42.5,1 50,1 C57.5,1 64,6 65,11 C66,16 55,20 55,21 C55,24 70,24 100,21"
        id="path-494.33-351.33-530.33-316.00"
        stroke="#979797"
        fill="none"
        transform="translate(494.333333 330.333333) rotate(-44.464541 0 21) scale(0.504425 1)">
      </path><path 
        d="M0,21 C30,28 45,28 45,21 C45,17 34,16 35,11 C36,6 42.5,1 50,1 C57.5,1 64,6 65,11 C66,16 55,20 55,21 C55,24 70,24 100,21"
        id="path-506.00-250.67-530.33-316.00"
        stroke="#979797"
        fill="none"
        transform="translate(506.000000 229.666667) rotate(69.572205 0 21) scale(0.697177 1)">
      </path><path 
        d="M0,21 C30,28 45,28 45,21 C45,17 34,16 35,11 C36,6 42.5,1 50,1 C57.5,1 64,6 65,11 C66,16 55,20 55,21 C55,24 70,24 100,21"
        id="path-494.33-351.33-506.33-419.00"
        stroke="#979797"
        fill="none"
        transform="translate(494.333333 330.333333) rotate(79.943724 0 21) scale(0.687225 1)">
      </path><path 
        d="M0,21 C30,28 45,28 45,21 C45,17 34,16 35,11 C36,6 42.5,1 50,1 C57.5,1 64,6 65,11 C66,16 55,20 55,21 C55,24 70,24 100,21"
        id="path-447.00-446.33-506.33-419.00"
        stroke="#979797"
        fill="none"
        transform="translate(447.000000 425.333333) rotate(-24.734303 0 21) scale(0.653265 1)">
      </path><path 
        d="M0,21 C30,28 45,28 45,21 C45,17 34,16 35,11 C36,6 42.5,1 50,1 C57.5,1 64,6 65,11 C66,16 55,20 55,21 C55,24 70,24 100,21"
        id="path-450.67-559.00-520.67-553.67"
        stroke="#979797"
        fill="none"
        transform="translate(450.666667 538.000000) rotate(-4.356975 0 21) scale(0.702029 1)">
      </path><path 
        d="M0,21 C30,28 45,28 45,21 C45,17 34,16 35,11 C36,6 42.5,1 50,1 C57.5,1 64,6 65,11 C66,16 55,20 55,21 C55,24 70,24 100,21"
        id="path-520.67-553.67-550.67-516.67"
        stroke="#979797"
        fill="none"
        transform="translate(520.666667 532.666667) rotate(-50.964487 0 21) scale(0.476340 1)">
      </path><path 
        d="M0,21 C30,28 45,28 45,21 C45,17 34,16 35,11 C36,6 42.5,1 50,1 C57.5,1 64,6 65,11 C66,16 55,20 55,21 C55,24 70,24 100,21"
        id="path-542.67-451.00-550.67-516.67"
        stroke="#979797"
        fill="none"
        transform="translate(542.666667 430.000000) rotate(83.054032 0 21) scale(0.661522 1)">
      </path><path 
        d="M0,21 C30,28 45,28 45,21 C45,17 34,16 35,11 C36,6 42.5,1 50,1 C57.5,1 64,6 65,11 C66,16 55,20 55,21 C55,24 70,24 100,21"
        id="path-506.33-419.00-542.67-451.00"
        stroke="#979797"
        fill="none"
        transform="translate(506.333333 398.000000) rotate(41.371468 0 21) scale(0.484160 1)">
      </path><path 
        d="M0,21 C30,28 45,28 45,21 C45,17 34,16 35,11 C36,6 42.5,1 50,1 C57.5,1 64,6 65,11 C66,16 55,20 55,21 C55,24 70,24 100,21"
        id="path-516.33-609.00-520.67-553.67"
        stroke="#979797"
        fill="none"
        transform="translate(516.333333 588.000000) rotate(-85.522120 0 21) scale(0.555028 1)">
      </path><path 
        d="M0,21 C30,28 45,28 45,21 C45,17 34,16 35,11 C36,6 42.5,1 50,1 C57.5,1 64,6 65,11 C66,16 55,20 55,21 C55,24 70,24 100,21"
        id="path-455.67-640.33-516.33-609.00"
        stroke="#979797"
        fill="none"
        transform="translate(455.666667 619.333333) rotate(-27.315608 0 21) scale(0.682805 1)">
      </path><path 
        d="M0,21 C30,28 45,28 45,21 C45,17 34,16 35,11 C36,6 42.5,1 50,1 C57.5,1 64,6 65,11 C66,16 55,20 55,21 C55,24 70,24 100,21"
        id="path-417.33-618.33-455.67-640.33"
        stroke="#979797"
        fill="none"
        transform="translate(417.333333 597.333333) rotate(29.852076 0 21) scale(0.441978 1)">
      </path><path 
        d="M0,21 C30,28 45,28 45,21 C45,17 34,16 35,11 C36,6 42.5,1 50,1 C57.5,1 64,6 65,11 C66,16 55,20 55,21 C55,24 70,24 100,21"
        id="path-455.67-640.33-488.33-670.33"
        stroke="#979797"
        fill="none"
        transform="translate(455.666667 619.333333) rotate(42.563352 0 21) scale(0.443521 1)">
      </path><path 
        d="M0,21 C30,28 45,28 45,21 C45,17 34,16 35,11 C36,6 42.5,1 50,1 C57.5,1 64,6 65,11 C66,16 55,20 55,21 C55,24 70,24 100,21"
        id="path-516.33-609.00-549.00-639.00"
        stroke="#979797"
        fill="none"
        transform="translate(516.333333 588.000000) rotate(42.563352 0 21) scale(0.443521 1)">
      </path><path 
        d="M0,21 C30,28 45,28 45,21 C45,17 34,16 35,11 C36,6 42.5,1 50,1 C57.5,1 64,6 65,11 C66,16 55,20 55,21 C55,24 70,24 100,21"
        id="path-488.33-670.33-549.00-639.00"
        stroke="#979797"
        fill="none"
        transform="translate(488.333333 649.333333) rotate(-27.315608 0 21) scale(0.682805 1)">
      </path><path 
        d="M0,21 C30,28 45,28 45,21 C45,17 34,16 35,11 C36,6 42.5,1 50,1 C57.5,1 64,6 65,11 C66,16 55,20 55,21 C55,24 70,24 100,21"
        id="path-622.33-153.00-654.33-113.00"
        stroke="#979797"
        fill="none"
        transform="translate(622.333333 132.000000) rotate(-51.340192 0 21) scale(0.512250 1)">
      </path><path 
        d="M0,21 C30,28 45,28 45,21 C45,17 34,16 35,11 C36,6 42.5,1 50,1 C57.5,1 64,6 65,11 C66,16 55,20 55,21 C55,24 70,24 100,21"
        id="path-582.00-80.00-654.33-113.00"
        stroke="#979797"
        fill="none"
        transform="translate(582.000000 59.000000) rotate(24.523477 0 21) scale(0.795054 1)">
      </path><path 
        d="M0,21 C30,28 45,28 45,21 C45,17 34,16 35,11 C36,6 42.5,1 50,1 C57.5,1 64,6 65,11 C66,16 55,20 55,21 C55,24 70,24 100,21"
        id="path-556.00-154.33-622.33-153.00"
        stroke="#979797"
        fill="none"
        transform="translate(556.000000 133.333333) rotate(-1.151519 0 21) scale(0.663467 1)">
      </path><path 
        d="M0,21 C30,28 45,28 45,21 C45,17 34,16 35,11 C36,6 42.5,1 50,1 C57.5,1 64,6 65,11 C66,16 55,20 55,21 C55,24 70,24 100,21"
        id="path-619.67-249.33-656.00-217.67"
        stroke="#979797"
        fill="none"
        transform="translate(619.666667 228.333333) rotate(-41.074092 0 21) scale(0.481964 1)">
      </path><path 
        d="M0,21 C30,28 45,28 45,21 C45,17 34,16 35,11 C36,6 42.5,1 50,1 C57.5,1 64,6 65,11 C66,16 55,20 55,21 C55,24 70,24 100,21"
        id="path-622.33-153.00-656.00-217.67"
        stroke="#979797"
        fill="none"
        transform="translate(622.333333 132.000000) rotate(62.497678 0 21) scale(0.729056 1)">
      </path><path 
        d="M0,21 C30,28 45,28 45,21 C45,17 34,16 35,11 C36,6 42.5,1 50,1 C57.5,1 64,6 65,11 C66,16 55,20 55,21 C55,24 70,24 100,21"
        id="path-551.33-217.67-619.67-249.33"
        stroke="#979797"
        fill="none"
        transform="translate(551.333333 196.666667) rotate(24.863697 0 21) scale(0.753142 1)">
      </path><path 
        d="M0,21 C30,28 45,28 45,21 C45,17 34,16 35,11 C36,6 42.5,1 50,1 C57.5,1 64,6 65,11 C66,16 55,20 55,21 C55,24 70,24 100,21"
        id="path-619.67-249.33-649.33-308.67"
        stroke="#979797"
        fill="none"
        transform="translate(619.666667 228.333333) rotate(63.434949 0 21) scale(0.663367 1)">
      </path><path 
        d="M0,21 C30,28 45,28 45,21 C45,17 34,16 35,11 C36,6 42.5,1 50,1 C57.5,1 64,6 65,11 C66,16 55,20 55,21 C55,24 70,24 100,21"
        id="path-605.33-342.33-649.33-308.67"
        stroke="#979797"
        fill="none"
        transform="translate(605.333333 321.333333) rotate(-37.421465 0 21) scale(0.554026 1)">
      </path><path 
        d="M0,21 C30,28 45,28 45,21 C45,17 34,16 35,11 C36,6 42.5,1 50,1 C57.5,1 64,6 65,11 C66,16 55,20 55,21 C55,24 70,24 100,21"
        id="path-530.33-316.00-605.33-342.33"
        stroke="#979797"
        fill="none"
        transform="translate(530.333333 295.000000) rotate(19.346741 0 21) scale(0.794886 1)">
      </path><path 
        d="M0,21 C30,28 45,28 45,21 C45,17 34,16 35,11 C36,6 42.5,1 50,1 C57.5,1 64,6 65,11 C66,16 55,20 55,21 C55,24 70,24 100,21"
        id="path-605.33-342.33-605.67-409.67"
        stroke="#979797"
        fill="none"
        transform="translate(605.333333 321.333333) rotate(89.716360 0 21) scale(0.673342 1)">
      </path><path 
        d="M0,21 C30,28 45,28 45,21 C45,17 34,16 35,11 C36,6 42.5,1 50,1 C57.5,1 64,6 65,11 C66,16 55,20 55,21 C55,24 70,24 100,21"
        id="path-542.67-451.00-605.67-409.67"
        stroke="#979797"
        fill="none"
        transform="translate(542.666667 430.000000) rotate(-33.268266 0 21) scale(0.753488 1)">
      </path><path 
        d="M0,21 C30,28 45,28 45,21 C45,17 34,16 35,11 C36,6 42.5,1 50,1 C57.5,1 64,6 65,11 C66,16 55,20 55,21 C55,24 70,24 100,21"
        id="path-610.67-539.00-646.00-505.33"
        stroke="#979797"
        fill="none"
        transform="translate(610.666667 518.000000) rotate(-43.616313 0 21) scale(0.488046 1)">
      </path><path 
        d="M0,21 C30,28 45,28 45,21 C45,17 34,16 35,11 C36,6 42.5,1 50,1 C57.5,1 64,6 65,11 C66,16 55,20 55,21 C55,24 70,24 100,21"
        id="path-646.00-505.33-649.00-441.67"
        stroke="#979797"
        fill="none"
        transform="translate(646.000000 484.333333) rotate(-87.302194 0 21) scale(0.637373 1)">
      </path><path 
        d="M0,21 C30,28 45,28 45,21 C45,17 34,16 35,11 C36,6 42.5,1 50,1 C57.5,1 64,6 65,11 C66,16 55,20 55,21 C55,24 70,24 100,21"
        id="path-605.67-409.67-649.00-441.67"
        stroke="#979797"
        fill="none"
        transform="translate(605.666667 388.666667) rotate(36.444442 0 21) scale(0.538682 1)">
      </path><path 
        d="M0,21 C30,28 45,28 45,21 C45,17 34,16 35,11 C36,6 42.5,1 50,1 C57.5,1 64,6 65,11 C66,16 55,20 55,21 C55,24 70,24 100,21"
        id="path-550.67-516.67-610.67-539.00"
        stroke="#979797"
        fill="none"
        transform="translate(550.666667 495.666667) rotate(20.416385 0 21) scale(0.640217 1)">
      </path><path 
        d="M0,21 C30,28 45,28 45,21 C45,17 34,16 35,11 C36,6 42.5,1 50,1 C57.5,1 64,6 65,11 C66,16 55,20 55,21 C55,24 70,24 100,21"
        id="path-610.67-539.00-646.00-605.33"
        stroke="#979797"
        fill="none"
        transform="translate(610.666667 518.000000) rotate(61.957409 0 21) scale(0.751569 1)">
      </path><path 
        d="M0,21 C30,28 45,28 45,21 C45,17 34,16 35,11 C36,6 42.5,1 50,1 C57.5,1 64,6 65,11 C66,16 55,20 55,21 C55,24 70,24 100,21"
        id="path-614.00-644.67-646.00-605.33"
        stroke="#979797"
        fill="none"
        transform="translate(614.000000 623.666667) rotate(-50.869600 0 21) scale(0.507061 1)">
      </path><path 
        d="M0,21 C30,28 45,28 45,21 C45,17 34,16 35,11 C36,6 42.5,1 50,1 C57.5,1 64,6 65,11 C66,16 55,20 55,21 C55,24 70,24 100,21"
        id="path-549.00-639.00-614.00-644.67"
        stroke="#979797"
        fill="none"
        transform="translate(549.000000 618.000000) rotate(4.982420 0 21) scale(0.652465 1)">
      </path><path 
        d="M0,21 C30,28 45,28 45,21 C45,17 34,16 35,11 C36,6 42.5,1 50,1 C57.5,1 64,6 65,11 C66,16 55,20 55,21 C55,24 70,24 100,21"
        id="path-488.33-670.33-614.00-644.67"
        stroke="#979797"
        fill="none"
        transform="translate(488.333333 649.333333) rotate(-11.543553 0 21) scale(1.282610 1)">
      </path><path 
        d="M0,21 C30,28 45,28 45,21 C45,17 34,16 35,11 C36,6 42.5,1 50,1 C57.5,1 64,6 65,11 C66,16 55,20 55,21 C55,24 70,24 100,21"
        id="path-654.33-113.00-688.00-177.67"
        stroke="#979797"
        fill="none"
        transform="translate(654.333333 92.000000) rotate(62.497678 0 21) scale(0.729056 1)">
      </path><path 
        d="M0,21 C30,28 45,28 45,21 C45,17 34,16 35,11 C36,6 42.5,1 50,1 C57.5,1 64,6 65,11 C66,16 55,20 55,21 C55,24 70,24 100,21"
        id="path-512.00-74.00-688.00-177.67"
        stroke="#979797"
        fill="none"
        transform="translate(512.000000 53.000000) rotate(30.498730 0 21) scale(2.042615 1)">
      </path><path 
        d="M0,21 C30,28 45,28 45,21 C45,17 34,16 35,11 C36,6 42.5,1 50,1 C57.5,1 64,6 65,11 C66,16 55,20 55,21 C55,24 70,24 100,21"
        id="path-656.00-217.67-688.00-177.67"
        stroke="#979797"
        fill="none"
        transform="translate(656.000000 196.666667) rotate(-51.340192 0 21) scale(0.512250 1)">
      </path><path 
        d="M0,21 C30,28 45,28 45,21 C45,17 34,16 35,11 C36,6 42.5,1 50,1 C57.5,1 64,6 65,11 C66,16 55,20 55,21 C55,24 70,24 100,21"
        id="path-619.67-249.33-688.00-177.67"
        stroke="#979797"
        fill="none"
        transform="translate(619.666667 228.333333) rotate(-46.363928 0 21) scale(0.990230 1)">
      </path><path 
        d="M0,21 C30,28 45,28 45,21 C45,17 34,16 35,11 C36,6 42.5,1 50,1 C57.5,1 64,6 65,11 C66,16 55,20 55,21 C55,24 70,24 100,21"
        id="path-605.33-342.33-649.00-441.67"
        stroke="#979797"
        fill="none"
        transform="translate(605.333333 321.333333) rotate(66.269838 0 21) scale(1.085076 1)">
      </path><path 
        d="M0,21 C30,28 45,28 45,21 C45,17 34,16 35,11 C36,6 42.5,1 50,1 C57.5,1 64,6 65,11 C66,16 55,20 55,21 C55,24 70,24 100,21"
        id="path-646.00-505.33-681.33-571.67"
        stroke="#979797"
        fill="none"
        transform="translate(646.000000 484.333333) rotate(61.957409 0 21) scale(0.751569 1)">
      </path><path 
        d="M0,21 C30,28 45,28 45,21 C45,17 34,16 35,11 C36,6 42.5,1 50,1 C57.5,1 64,6 65,11 C66,16 55,20 55,21 C55,24 70,24 100,21"
        id="path-649.00-441.67-681.33-571.67"
        stroke="#979797"
        fill="none"
        transform="translate(649.000000 420.666667) rotate(76.032913 0 21) scale(1.339606 1)">
      </path><path 
        d="M0,21 C30,28 45,28 45,21 C45,17 34,16 35,11 C36,6 42.5,1 50,1 C57.5,1 64,6 65,11 C66,16 55,20 55,21 C55,24 70,24 100,21"
        id="path-646.00-605.33-681.33-571.67"
        stroke="#979797"
        fill="none"
        transform="translate(646.000000 584.333333) rotate(-43.616313 0 21) scale(0.488046 1)">
      </path><ellipse
      cx="93.00"
      cy="67.00"
      rx="1"
      ry="1"
      stroke="#fc8d62"
      stroke-width="4"
    /><ellipse
      cx="76.00"
      cy="155.00"
      rx="1"
      ry="1"
      stroke="#fc8d62"
      stroke-width="4"
    /><ellipse
      cx="55.00"
      cy="292.00"
      rx="1"
      ry="1"
      stroke="#fc8d62"
      stroke-width="4"
    /><ellipse
      cx="86.00"
      cy="371.00"
      rx="1"
      ry="1"
      stroke="#fc8d62"
      stroke-width="4"
    /><ellipse
      cx="58.00"
      cy="489.00"
      rx="1"
      ry="1"
      stroke="#fc8d62"
      stroke-width="4"
    /><ellipse
      cx="55.00"
      cy="594.00"
      rx="1"
      ry="1"
      stroke="#fc8d62"
      stroke-width="4"
    /><ellipse
      cx="82.00"
      cy="654.00"
      rx="1"
      ry="1"
      stroke="#fc8d62"
      stroke-width="4"
    /><ellipse
      cx="172.00"
      cy="75.00"
      rx="1"
      ry="1"
      stroke="#fc8d62"
      stroke-width="4"
    /><ellipse
      cx="199.00"
      cy="180.00"
      rx="1"
      ry="1"
      stroke="#fc8d62"
      stroke-width="4"
    /><ellipse
      cx="151.00"
      cy="297.00"
      rx="1"
      ry="1"
      stroke="#fc8d62"
      stroke-width="4"
    /><ellipse
      cx="160.00"
      cy="363.00"
      rx="1"
      ry="1"
      stroke="#fc8d62"
      stroke-width="4"
    /><ellipse
      cx="185.00"
      cy="453.00"
      rx="1"
      ry="1"
      stroke="#fc8d62"
      stroke-width="4"
    /><ellipse
      cx="161.00"
      cy="561.00"
      rx="1"
      ry="1"
      stroke="#fc8d62"
      stroke-width="4"
    /><ellipse
      cx="197.00"
      cy="683.00"
      rx="1"
      ry="1"
      stroke="#fc8d62"
      stroke-width="4"
    /><ellipse
      cx="263.00"
      cy="53.00"
      rx="1"
      ry="1"
      stroke="#fc8d62"
      stroke-width="4"
    /><ellipse
      cx="271.00"
      cy="180.00"
      rx="1"
      ry="1"
      stroke="#fc8d62"
      stroke-width="4"
    /><ellipse
      cx="286.00"
      cy="267.00"
      rx="1"
      ry="1"
      stroke="#fc8d62"
      stroke-width="4"
    /><ellipse
      cx="296.00"
      cy="366.00"
      rx="1"
      ry="1"
      stroke="#fc8d62"
      stroke-width="4"
    /><ellipse
      cx="251.00"
      cy="497.00"
      rx="1"
      ry="1"
      stroke="#fc8d62"
      stroke-width="4"
    /><ellipse
      cx="290.00"
      cy="580.00"
      rx="1"
      ry="1"
      stroke="#fc8d62"
      stroke-width="4"
    /><ellipse
      cx="285.00"
      cy="657.00"
      rx="1"
      ry="1"
      stroke="#fc8d62"
      stroke-width="4"
    /><ellipse
      cx="377.00"
      cy="68.00"
      rx="1"
      ry="1"
      stroke="#fc8d62"
      stroke-width="4"
    /><ellipse
      cx="392.00"
      cy="194.00"
      rx="1"
      ry="1"
      stroke="#fc8d62"
      stroke-width="4"
    /><ellipse
      cx="398.00"
      cy="254.00"
      rx="1"
      ry="1"
      stroke="#fc8d62"
      stroke-width="4"
    /><ellipse
      cx="358.00"
      cy="374.00"
      rx="1"
      ry="1"
      stroke="#fc8d62"
      stroke-width="4"
    /><ellipse
      cx="378.00"
      cy="463.00"
      rx="1"
      ry="1"
      stroke="#fc8d62"
      stroke-width="4"
    /><ellipse
      cx="370.00"
      cy="594.00"
      rx="1"
      ry="1"
      stroke="#fc8d62"
      stroke-width="4"
    /><ellipse
      cx="398.00"
      cy="672.00"
      rx="1"
      ry="1"
      stroke="#fc8d62"
      stroke-width="4"
    /><ellipse
      cx="465.00"
      cy="82.00"
      rx="1"
      ry="1"
      stroke="#fc8d62"
      stroke-width="4"
    /><ellipse
      cx="483.00"
      cy="185.00"
      rx="1"
      ry="1"
      stroke="#fc8d62"
      stroke-width="4"
    /><ellipse
      cx="462.00"
      cy="291.00"
      rx="1"
      ry="1"
      stroke="#fc8d62"
      stroke-width="4"
    /><ellipse
      cx="465.00"
      cy="382.00"
      rx="1"
      ry="1"
      stroke="#fc8d62"
      stroke-width="4"
    /><ellipse
      cx="498.00"
      cy="494.00"
      rx="1"
      ry="1"
      stroke="#fc8d62"
      stroke-width="4"
    /><ellipse
      cx="484.00"
      cy="589.00"
      rx="1"
      ry="1"
      stroke="#fc8d62"
      stroke-width="4"
    /><ellipse
      cx="485.00"
      cy="660.00"
      rx="1"
      ry="1"
      stroke="#fc8d62"
      stroke-width="4"
    /><ellipse
      cx="587.00"
      cy="86.00"
      rx="1"
      ry="1"
      stroke="#fc8d62"
      stroke-width="4"
    /><ellipse
      cx="598.00"
      cy="192.00"
      rx="1"
      ry="1"
      stroke="#fc8d62"
      stroke-width="4"
    /><ellipse
      cx="573.00"
      cy="276.00"
      rx="1"
      ry="1"
      stroke="#fc8d62"
      stroke-width="4"
    /><ellipse
      cx="556.00"
      cy="381.00"
      rx="1"
      ry="1"
      stroke="#fc8d62"
      stroke-width="4"
    /><ellipse
      cx="574.00"
      cy="478.00"
      rx="1"
      ry="1"
      stroke="#fc8d62"
      stroke-width="4"
    /><ellipse
      cx="580.00"
      cy="578.00"
      rx="1"
      ry="1"
      stroke="#fc8d62"
      stroke-width="4"
    /><ellipse
      cx="582.00"
      cy="679.00"
      rx="1"
      ry="1"
      stroke="#fc8d62"
      stroke-width="4"
    /><ellipse
      cx="694.00"
      cy="72.00"
      rx="1"
      ry="1"
      stroke="#fc8d62"
      stroke-width="4"
    /><ellipse
      cx="682.00"
      cy="181.00"
      rx="1"
      ry="1"
      stroke="#fc8d62"
      stroke-width="4"
    /><ellipse
      cx="688.00"
      cy="280.00"
      rx="1"
      ry="1"
      stroke="#fc8d62"
      stroke-width="4"
    /><ellipse
      cx="687.00"
      cy="370.00"
      rx="1"
      ry="1"
      stroke="#fc8d62"
      stroke-width="4"
    /><ellipse
      cx="686.00"
      cy="477.00"
      rx="1"
      ry="1"
      stroke="#fc8d62"
      stroke-width="4"
    /><ellipse
      cx="678.00"
      cy="561.00"
      rx="1"
      ry="1"
      stroke="#fc8d62"
      stroke-width="4"
    /><ellipse
      cx="680.00"
      cy="677.00"
      rx="1"
      ry="1"
      stroke="#fc8d62"
      stroke-width="4"
    />
</svg>
