<svg xmlns="http://www.w3.org/2000/svg"
  xmlns:xlink="http://www.w3.org/1999/xlink"
  width="500" height="500">
<polygon fill="none" stroke="black" stroke-width="2" points="121.33,86.33 85.33,120.00 "/><polygon fill="none" stroke="black" stroke-width="2" points="87.00,186.00 53.67,253.67 "/><polygon fill="none" stroke="black" stroke-width="2" points="87.67,288.33 121.00,220.67 87.00,186.00 53.67,253.67 "/><polygon fill="none" stroke="black" stroke-width="2" points="87.67,288.33 120.67,323.00 120.67,388.00 86.67,421.00 "/><polygon fill="none" stroke="black" stroke-width="2" points="86.67,421.00 "/><polygon fill="none" stroke="black" stroke-width="2" points="189.00,118.67 121.33,86.33 "/><polygon fill="none" stroke="black" stroke-width="2" points="189.00,118.67 121.33,86.33 85.33,120.00 87.00,186.00 121.00,220.67 188.33,220.67 222.33,184.67 "/><polygon fill="none" stroke="black" stroke-width="2" points="87.67,288.33 120.67,323.00 187.67,322.33 222.00,287.67 188.33,220.67 121.00,220.67 "/><polygon fill="none" stroke="black" stroke-width="2" points="120.67,323.00 187.67,322.33 220.33,386.67 186.67,419.67 120.67,388.00 "/><polygon fill="none" stroke="black" stroke-width="2" points="86.67,421.00 120.67,388.00 186.67,419.67 "/><polygon fill="none" stroke="black" stroke-width="2" points="287.33,83.67 223.33,84.33 "/><polygon fill="none" stroke="black" stroke-width="2" points="189.00,118.67 222.33,184.67 290.00,186.67 320.67,120.00 287.33,83.67 223.33,84.33 "/><polygon fill="none" stroke="black" stroke-width="2" points="222.33,184.67 188.33,220.67 222.00,287.67 290.67,288.00 324.67,223.00 290.00,186.67 "/><polygon fill="none" stroke="black" stroke-width="2" points="286.67,419.67 220.33,386.67 187.67,322.33 222.00,287.67 290.67,288.00 323.33,322.67 322.00,387.67 "/><polygon fill="none" stroke="black" stroke-width="2" points="286.67,419.67 220.33,386.67 186.67,419.67 "/><polygon fill="none" stroke="black" stroke-width="2" points="287.33,83.67 320.67,120.00 386.67,120.00 419.67,85.33 "/><polygon fill="none" stroke="black" stroke-width="2" points="391.00,225.33 422.33,189.00 386.67,120.00 320.67,120.00 290.00,186.67 324.67,223.00 "/><polygon fill="none" stroke="black" stroke-width="2" points="391.00,225.33 423.33,289.67 389.67,322.00 323.33,322.67 290.67,288.00 324.67,223.00 "/><polygon fill="none" stroke="black" stroke-width="2" points="323.33,322.67 322.00,387.67 389.33,421.33 422.00,387.33 389.67,322.00 "/><polygon fill="none" stroke="black" stroke-width="2" points="286.67,419.67 322.00,387.67 389.33,421.33 "/><polygon fill="none" stroke="black" stroke-width="2" points="419.67,85.33 "/><polygon fill="none" stroke="black" stroke-width="2" points="386.67,120.00 422.33,189.00 "/><polygon fill="none" stroke="black" stroke-width="2" points="391.00,225.33 423.33,289.67 "/><polygon fill="none" stroke="black" stroke-width="2" points="423.33,289.67 389.67,322.00 422.00,387.33 "/><polygon fill="none" stroke="black" stroke-width="2" points="389.33,421.33 422.00,387.33 "/><ellipse
      cx="52.00"
      cy="53.00"
      rx="3"
      ry="3"
      stroke="#fc8d62"
      stroke-width="2"
    /><ellipse
      cx="51.00"
      cy="154.00"
      rx="3"
      ry="3"
      stroke="#fc8d62"
      stroke-width="2"
    /><ellipse
      cx="57.00"
      cy="251.00"
      rx="3"
      ry="3"
      stroke="#fc8d62"
      stroke-width="2"
    /><ellipse
      cx="53.00"
      cy="356.00"
      rx="3"
      ry="3"
      stroke="#fc8d62"
      stroke-width="2"
    /><ellipse
      cx="54.00"
      cy="454.00"
      rx="3"
      ry="3"
      stroke="#fc8d62"
      stroke-width="2"
    /><ellipse
      cx="159.00"
      cy="53.00"
      rx="3"
      ry="3"
      stroke="#fc8d62"
      stroke-width="2"
    /><ellipse
      cx="153.00"
      cy="153.00"
      rx="3"
      ry="3"
      stroke="#fc8d62"
      stroke-width="2"
    /><ellipse
      cx="153.00"
      cy="258.00"
      rx="3"
      ry="3"
      stroke="#fc8d62"
      stroke-width="2"
    /><ellipse
      cx="156.00"
      cy="355.00"
      rx="3"
      ry="3"
      stroke="#fc8d62"
      stroke-width="2"
    /><ellipse
      cx="153.00"
      cy="453.00"
      rx="3"
      ry="3"
      stroke="#fc8d62"
      stroke-width="2"
    /><ellipse
      cx="256.00"
      cy="50.00"
      rx="3"
      ry="3"
      stroke="#fc8d62"
      stroke-width="2"
    /><ellipse
      cx="255.00"
      cy="150.00"
      rx="3"
      ry="3"
      stroke="#fc8d62"
      stroke-width="2"
    /><ellipse
      cx="259.00"
      cy="251.00"
      rx="3"
      ry="3"
      stroke="#fc8d62"
      stroke-width="2"
    /><ellipse
      cx="254.00"
      cy="354.00"
      rx="3"
      ry="3"
      stroke="#fc8d62"
      stroke-width="2"
    /><ellipse
      cx="251.00"
      cy="451.00"
      rx="3"
      ry="3"
      stroke="#fc8d62"
      stroke-width="2"
    /><ellipse
      cx="351.00"
      cy="51.00"
      rx="3"
      ry="3"
      stroke="#fc8d62"
      stroke-width="2"
    /><ellipse
      cx="356.00"
      cy="159.00"
      rx="3"
      ry="3"
      stroke="#fc8d62"
      stroke-width="2"
    /><ellipse
      cx="359.00"
      cy="259.00"
      rx="3"
      ry="3"
      stroke="#fc8d62"
      stroke-width="2"
    /><ellipse
      cx="357.00"
      cy="355.00"
      rx="3"
      ry="3"
      stroke="#fc8d62"
      stroke-width="2"
    /><ellipse
      cx="355.00"
      cy="454.00"
      rx="3"
      ry="3"
      stroke="#fc8d62"
      stroke-width="2"
    /><ellipse
      cx="455.00"
      cy="55.00"
      rx="3"
      ry="3"
      stroke="#fc8d62"
      stroke-width="2"
    /><ellipse
      cx="453.00"
      cy="150.00"
      rx="3"
      ry="3"
      stroke="#fc8d62"
      stroke-width="2"
    /><ellipse
      cx="458.00"
      cy="258.00"
      rx="3"
      ry="3"
      stroke="#fc8d62"
      stroke-width="2"
    /><ellipse
      cx="453.00"
      cy="352.00"
      rx="3"
      ry="3"
      stroke="#fc8d62"
      stroke-width="2"
    /><ellipse
      cx="456.00"
      cy="455.00"
      rx="3"
      ry="3"
      stroke="#fc8d62"
      stroke-width="2"
    />
</svg>
