<svg xmlns="http://www.w3.org/2000/svg"
  xmlns:xlink="http://www.w3.org/1999/xlink"
  width="1000" height="1000">
<path
                  d=" M 0 0 10.0 0  C 10.000000 -11.000000 23.333333 10.000000 23.333333 0  S 36.66666666666667 12.0 36.66666666666667 0  S 50.66666666666667 -11.0 50.66666666666667 0  S 64.66666666666667 17.0 64.66666666666667 0  S 78.66666666666667 -15.0 78.66666666666667 0  S 90.0 19.0 90.0 0  M 90.0 0 100 0" stroke="black" fill="transparent"
                  transform="translate(305.333333 221.333333) rotate (-20.329255 0 0) scale (1.084200 1)"/>
                  <path
                  d=" M 0 0 10.0 0  C 10.000000 -17.000000 23.333333 14.000000 23.333333 0  S 36.66666666666667 18.0 36.66666666666667 0  S 50.66666666666667 -18.0 50.66666666666667 0  S 64.66666666666667 17.0 64.66666666666667 0  S 78.66666666666667 -13.0 78.66666666666667 0  S 90.0 16.0 90.0 0  M 90.0 0 100 0" stroke="black" fill="transparent"
                  transform="translate(217.000000 284.333333) rotate (-35.496752 0 0) scale (1.084978 1)"/>
                  <path
                  d=" M 0 0 10.0 0  C 10.000000 -15.000000 20.000000 13.000000 20.000000 0  S 30.0 15.0 30.0 0  S 40.0 -14.0 40.0 0  S 50.0 16.0 50.0 0  S 60.0 -13.0 60.0 0  S 70.0 14.0 70.0 0  S 80.0 -15.0 80.0 0  S 90.0 18.0 90.0 0  M 90.0 0 100 0" stroke="black" fill="transparent"
                  transform="translate(189.000000 345.666667) rotate (-65.462272 0 0) scale (0.674224 1)"/>
                  <path
                  d=" M 0 0 10.0 0  C 10.000000 -17.000000 26.000000 11.000000 26.000000 0  S 42.0 14.0 42.0 0  S 58.0 -12.0 58.0 0  S 74.0 13.0 74.0 0  S 90.0 13.0 90.0 0  M 90.0 0 100 0" stroke="black" fill="transparent"
                  transform="translate(189.000000 345.666667) rotate (77.786001 0 0) scale (1.118655 1)"/>
                  <path
                  d=" M 0 0 10.0 0  C 10.000000 -15.000000 23.333333 11.000000 23.333333 0  S 36.66666666666667 18.0 36.66666666666667 0  S 50.66666666666667 -19.0 50.66666666666667 0  S 64.66666666666667 12.0 64.66666666666667 0  S 78.66666666666667 -19.0 78.66666666666667 0  S 90.0 14.0 90.0 0  M 90.0 0 100 0" stroke="black" fill="transparent"
                  transform="translate(212.666667 455.000000) rotate (60.995832 0 0) scale (1.471175 1)"/>
                  <path
                  d=" M 0 0 10.0 0  C 10.000000 -14.000000 21.428571 10.000000 21.428571 0  S 32.85714285714286 17.0 32.85714285714286 0  S 44.85714285714286 -12.0 44.85714285714286 0  S 56.85714285714286 16.0 56.85714285714286 0  S 68.85714285714286 -15.0 68.85714285714286 0  S 80.85714285714286 13.0 80.85714285714286 0  S 90.0 12.0 90.0 0  M 90.0 0 100 0" stroke="black" fill="transparent"
                  transform="translate(284.000000 583.666667) rotate (39.594246 0 0) scale (0.925713 1)"/>
                  <path
                  d=" M 0 0 10.0 0  C 10.000000 -11.000000 21.428571 14.000000 21.428571 0  S 32.85714285714286 19.0 32.85714285714286 0  S 44.85714285714286 -14.0 44.85714285714286 0  S 56.85714285714286 17.0 56.85714285714286 0  S 68.85714285714286 -18.0 68.85714285714286 0  S 80.85714285714286 14.0 80.85714285714286 0  S 90.0 11.0 90.0 0  M 90.0 0 100 0" stroke="black" fill="transparent"
                  transform="translate(355.333333 642.666667) rotate (-12.506745 0 0) scale (0.938947 1)"/>
                  <path
                  d=" M 0 0 10.0 0  C 10.000000 -19.000000 23.333333 15.000000 23.333333 0  S 36.66666666666667 10.0 36.66666666666667 0  S 50.66666666666667 -13.0 50.66666666666667 0  S 64.66666666666667 17.0 64.66666666666667 0  S 78.66666666666667 -10.0 78.66666666666667 0  S 90.0 13.0 90.0 0  M 90.0 0 100 0" stroke="black" fill="transparent"
                  transform="translate(447.000000 622.333333) rotate (-32.053490 0 0) scale (1.262458 1)"/>
                  <path
                  d=" M 0 0 10.0 0  C 10.000000 -14.000000 21.428571 18.000000 21.428571 0  S 32.85714285714286 10.0 32.85714285714286 0  S 44.85714285714286 -15.0 44.85714285714286 0  S 56.85714285714286 14.0 56.85714285714286 0  S 68.85714285714286 -11.0 68.85714285714286 0  S 80.85714285714286 12.0 80.85714285714286 0  S 90.0 19.0 90.0 0  M 90.0 0 100 0" stroke="black" fill="transparent"
                  transform="translate(554.000000 555.333333) rotate (-58.884668 0 0) scale (1.296534 1)"/>
                  <path
                  d=" M 0 0 10.0 0  C 10.000000 -13.000000 20.000000 10.000000 20.000000 0  S 30.0 16.0 30.0 0  S 40.0 -13.0 40.0 0  S 50.0 11.0 50.0 0  S 60.0 -11.0 60.0 0  S 70.0 14.0 70.0 0  S 80.0 -11.0 80.0 0  S 90.0 16.0 90.0 0  M 90.0 0 100 0" stroke="black" fill="transparent"
                  transform="translate(621.000000 444.333333) rotate (-89.856402 0 0) scale (1.330004 1)"/>
                  <path
                  d=" M 0 0 10.0 0  C 10.000000 -14.000000 23.333333 15.000000 23.333333 0  S 36.66666666666667 17.0 36.66666666666667 0  S 50.66666666666667 -16.0 50.66666666666667 0  S 64.66666666666667 15.0 64.66666666666667 0  S 78.66666666666667 -17.0 78.66666666666667 0  S 90.0 10.0 90.0 0  M 90.0 0 100 0" stroke="black" fill="transparent"
                  transform="translate(521.000000 215.000000) rotate (43.834823 0 0) scale (1.390931 1)"/>
                  <path
                  d=" M 0 0 10.0 0  C 10.000000 -10.000000 21.428571 19.000000 21.428571 0  S 32.85714285714286 10.0 32.85714285714286 0  S 44.85714285714286 -13.0 44.85714285714286 0  S 56.85714285714286 17.0 56.85714285714286 0  S 68.85714285714286 -13.0 68.85714285714286 0  S 80.85714285714286 13.0 80.85714285714286 0  S 90.0 19.0 90.0 0  M 90.0 0 100 0" stroke="black" fill="transparent"
                  transform="translate(407.000000 183.666667) rotate (15.368463 0 0) scale (1.182277 1)"/>
                  <path
                  d=" M 0 0 10.0 0  C 10.000000 -12.000000 26.000000 12.000000 26.000000 0  S 42.0 13.0 42.0 0  S 58.0 -14.0 58.0 0  S 74.0 17.0 74.0 0  S 90.0 15.0 90.0 0  M 90.0 0 100 0" stroke="black" fill="transparent"
                  transform="translate(711.666667 917.000000) rotate (-21.627126 0 0) scale (0.813968 1)"/>
                  <path
                  d=" M 0 0 10.0 0  C 10.000000 -10.000000 20.000000 18.000000 20.000000 0  S 30.0 11.0 30.0 0  S 40.0 -19.0 40.0 0  S 50.0 19.0 50.0 0  S 60.0 -14.0 60.0 0  S 70.0 14.0 70.0 0  S 80.0 -10.0 80.0 0  S 90.0 16.0 90.0 0  M 90.0 0 100 0" stroke="black" fill="transparent"
                  transform="translate(648.666667 911.333333) rotate (5.139757 0 0) scale (0.632543 1)"/>
                  <path
                  d=" M 0 0 10.0 0  C 10.000000 -18.000000 20.000000 19.000000 20.000000 0  S 30.0 16.0 30.0 0  S 40.0 -11.0 40.0 0  S 50.0 10.0 50.0 0  S 60.0 -15.0 60.0 0  S 70.0 10.0 70.0 0  S 80.0 -12.0 80.0 0  S 90.0 11.0 90.0 0  M 90.0 0 100 0" stroke="black" fill="transparent"
                  transform="translate(615.333333 880.000000) rotate (43.228530 0 0) scale (0.457481 1)"/>
                  <path
                  d=" M 0 0 10.0 0  C 10.000000 -17.000000 26.000000 17.000000 26.000000 0  S 42.0 11.0 42.0 0  S 58.0 -11.0 58.0 0  S 74.0 10.0 74.0 0  S 90.0 15.0 90.0 0  M 90.0 0 100 0" stroke="black" fill="transparent"
                  transform="translate(606.333333 793.666667) rotate (84.048578 0 0) scale (0.868012 1)"/>
                  <path
                  d=" M 0 0 10.0 0  C 10.000000 -18.000000 23.333333 16.000000 23.333333 0  S 36.66666666666667 16.0 36.66666666666667 0  S 50.66666666666667 -18.0 50.66666666666667 0  S 64.66666666666667 10.0 64.66666666666667 0  S 78.66666666666667 -16.0 78.66666666666667 0  S 90.0 18.0 90.0 0  M 90.0 0 100 0" stroke="black" fill="transparent"
                  transform="translate(606.333333 793.666667) rotate (-46.153450 0 0) scale (1.053803 1)"/>
                  <path
                  d=" M 0 0 10.0 0  C 10.000000 -14.000000 23.333333 16.000000 23.333333 0  S 36.66666666666667 19.0 36.66666666666667 0  S 50.66666666666667 -18.0 50.66666666666667 0  S 64.66666666666667 10.0 64.66666666666667 0  S 78.66666666666667 -13.0 78.66666666666667 0  S 90.0 15.0 90.0 0  M 90.0 0 100 0" stroke="black" fill="transparent"
                  transform="translate(679.333333 717.666667) rotate (13.021875 0 0) scale (1.050344 1)"/>
                  <path
                  d=" M 0 0 10.0 0  C 10.000000 -18.000000 21.428571 11.000000 21.428571 0  S 32.85714285714286 16.0 32.85714285714286 0  S 44.85714285714286 -14.0 44.85714285714286 0  S 56.85714285714286 18.0 56.85714285714286 0  S 68.85714285714286 -12.0 68.85714285714286 0  S 80.85714285714286 11.0 80.85714285714286 0  S 90.0 18.0 90.0 0  M 90.0 0 100 0" stroke="black" fill="transparent"
                  transform="translate(781.666667 741.333333) rotate (65.037210 0 0) scale (0.853021 1)"/>
                  <path
                  d=" M 0 0 10.0 0  C 10.000000 -13.000000 20.000000 17.000000 20.000000 0  S 30.0 19.0 30.0 0  S 40.0 -17.0 40.0 0  S 50.0 19.0 50.0 0  S 60.0 -16.0 60.0 0  S 70.0 13.0 70.0 0  S 80.0 -15.0 80.0 0  S 90.0 12.0 90.0 0  M 90.0 0 100 0" stroke="black" fill="transparent"
                  transform="translate(787.333333 887.000000) rotate (-66.063448 0 0) scale (0.747633 1)"/>
                  <path
                  d=" M 0 0 10.0 0  C 10.000000 -12.000000 21.428571 11.000000 21.428571 0  S 32.85714285714286 17.0 32.85714285714286 0  S 44.85714285714286 -14.0 44.85714285714286 0  S 56.85714285714286 11.0 56.85714285714286 0  S 68.85714285714286 -16.0 68.85714285714286 0  S 80.85714285714286 11.0 80.85714285714286 0  S 90.0 14.0 90.0 0  M 90.0 0 100 0" stroke="black" fill="transparent"
                  transform="translate(546.000000 934.666667) rotate (-38.254420 0 0) scale (0.882924 1)"/>
                  <path
                  d=" M 0 0 10.0 0  C 10.000000 -10.000000 23.333333 19.000000 23.333333 0  S 36.66666666666667 12.0 36.66666666666667 0  S 50.66666666666667 -10.0 50.66666666666667 0  S 64.66666666666667 17.0 64.66666666666667 0  S 78.66666666666667 -12.0 78.66666666666667 0  S 90.0 15.0 90.0 0  M 90.0 0 100 0" stroke="black" fill="transparent"
                  transform="translate(579.333333 966.000000) rotate (-38.254420 0 0) scale (0.882924 1)"/>
                  <path
                  d=" M 0 0 10.0 0  C 10.000000 -13.000000 21.428571 15.000000 21.428571 0  S 32.85714285714286 15.0 32.85714285714286 0  S 44.85714285714286 -14.0 44.85714285714286 0  S 56.85714285714286 14.0 56.85714285714286 0  S 68.85714285714286 -11.0 68.85714285714286 0  S 80.85714285714286 16.0 80.85714285714286 0  S 90.0 13.0 90.0 0  M 90.0 0 100 0" stroke="black" fill="transparent"
                  transform="translate(546.000000 934.666667) rotate (43.228530 0 0) scale (0.457481 1)"/>
                  <path
                  d=" M 0 0 10.0 0  C 10.000000 -18.000000 21.428571 17.000000 21.428571 0  S 32.85714285714286 14.0 32.85714285714286 0  S 44.85714285714286 -10.0 44.85714285714286 0  S 56.85714285714286 19.0 56.85714285714286 0  S 68.85714285714286 -15.0 68.85714285714286 0  S 80.85714285714286 15.0 80.85714285714286 0  S 90.0 14.0 90.0 0  M 90.0 0 100 0" stroke="black" fill="transparent"
                  transform="translate(311.000000 805.666667) rotate (-74.784546 0 0) scale (1.689214 1)"/>
                  <path
                  d=" M 0 0 10.0 0  C 10.000000 -10.000000 21.428571 11.000000 21.428571 0  S 32.85714285714286 19.0 32.85714285714286 0  S 44.85714285714286 -15.0 44.85714285714286 0  S 56.85714285714286 14.0 56.85714285714286 0  S 68.85714285714286 -16.0 68.85714285714286 0  S 80.85714285714286 10.0 80.85714285714286 0  S 90.0 16.0 90.0 0  M 90.0 0 100 0" stroke="black" fill="transparent"
                  transform="translate(447.000000 622.333333) rotate (82.327588 0 0) scale (1.298289 1)"/>
                  <path
                  d=" M 0 0 10.0 0  C 10.000000 -12.000000 21.428571 19.000000 21.428571 0  S 32.85714285714286 13.0 32.85714285714286 0  S 44.85714285714286 -17.0 44.85714285714286 0  S 56.85714285714286 18.0 56.85714285714286 0  S 68.85714285714286 -14.0 68.85714285714286 0  S 80.85714285714286 11.0 80.85714285714286 0  S 90.0 18.0 90.0 0  M 90.0 0 100 0" stroke="black" fill="transparent"
                  transform="translate(409.333333 818.333333) rotate (-50.756961 0 0) scale (0.869412 1)"/>
                  <path
                  d=" M 0 0 10.0 0  C 10.000000 -15.000000 21.428571 10.000000 21.428571 0  S 32.85714285714286 17.0 32.85714285714286 0  S 44.85714285714286 -11.0 44.85714285714286 0  S 56.85714285714286 16.0 56.85714285714286 0  S 68.85714285714286 -19.0 68.85714285714286 0  S 80.85714285714286 12.0 80.85714285714286 0  S 90.0 10.0 90.0 0  M 90.0 0 100 0" stroke="black" fill="transparent"
                  transform="translate(347.666667 852.666667) rotate (-29.107169 0 0) scale (0.705801 1)"/>
                  <path
                  d=" M 0 0 10.0 0  C 10.000000 -10.000000 26.000000 18.000000 26.000000 0  S 42.0 10.0 42.0 0  S 58.0 -15.0 58.0 0  S 74.0 18.0 74.0 0  S 90.0 16.0 90.0 0  M 90.0 0 100 0" stroke="black" fill="transparent"
                  transform="translate(311.000000 805.666667) rotate (52.040717 0 0) scale (0.596108 1)"/>
                  <path
                  d=" M 0 0 10.0 0  C 10.000000 -19.000000 20.000000 17.000000 20.000000 0  S 30.0 13.0 30.0 0  S 40.0 -13.0 40.0 0  S 50.0 19.0 50.0 0  S 60.0 -19.0 60.0 0  S 70.0 15.0 70.0 0  S 80.0 -15.0 80.0 0  S 90.0 16.0 90.0 0  M 90.0 0 100 0" stroke="black" fill="transparent"
                  transform="translate(746.666667 593.666667) rotate (7.125016 0 0) scale (0.644981 1)"/>
                  <path
                  d=" M 0 0 10.0 0  C 10.000000 -14.000000 21.428571 14.000000 21.428571 0  S 32.85714285714286 18.0 32.85714285714286 0  S 44.85714285714286 -13.0 44.85714285714286 0  S 56.85714285714286 13.0 56.85714285714286 0  S 68.85714285714286 -18.0 68.85714285714286 0  S 80.85714285714286 12.0 80.85714285714286 0  S 90.0 10.0 90.0 0  M 90.0 0 100 0" stroke="black" fill="transparent"
                  transform="translate(746.666667 593.666667) rotate (-85.890002 0 0) scale (0.558102 1)"/>
                  <path
                  d=" M 0 0 10.0 0  C 10.000000 -12.000000 21.428571 17.000000 21.428571 0  S 32.85714285714286 17.0 32.85714285714286 0  S 44.85714285714286 -12.0 44.85714285714286 0  S 56.85714285714286 15.0 56.85714285714286 0  S 68.85714285714286 -12.0 68.85714285714286 0  S 80.85714285714286 11.0 80.85714285714286 0  S 90.0 15.0 90.0 0  M 90.0 0 100 0" stroke="black" fill="transparent"
                  transform="translate(750.666667 538.000000) rotate (-25.572402 0 0) scale (0.602338 1)"/>
                  <path
                  d=" M 0 0 10.0 0  C 10.000000 -16.000000 21.428571 16.000000 21.428571 0  S 32.85714285714286 17.0 32.85714285714286 0  S 44.85714285714286 -14.0 44.85714285714286 0  S 56.85714285714286 19.0 56.85714285714286 0  S 68.85714285714286 -19.0 68.85714285714286 0  S 80.85714285714286 12.0 80.85714285714286 0  S 90.0 15.0 90.0 0  M 90.0 0 100 0" stroke="black" fill="transparent"
                  transform="translate(805.000000 512.000000) rotate (45.000000 0 0) scale (0.490261 1)"/>
                  <path
                  d=" M 0 0 10.0 0  C 10.000000 -14.000000 26.000000 16.000000 26.000000 0  S 42.0 16.0 42.0 0  S 58.0 -17.0 58.0 0  S 74.0 13.0 74.0 0  S 90.0 13.0 90.0 0  M 90.0 0 100 0" stroke="black" fill="transparent"
                  transform="translate(810.666667 601.666667) rotate (-62.198541 0 0) scale (0.621772 1)"/>
                  <path
                  d=" M 0 0 10.0 0  C 10.000000 -18.000000 23.333333 19.000000 23.333333 0  S 36.66666666666667 13.0 36.66666666666667 0  S 50.66666666666667 -14.0 50.66666666666667 0  S 64.66666666666667 13.0 64.66666666666667 0  S 78.66666666666667 -19.0 78.66666666666667 0  S 90.0 16.0 90.0 0  M 90.0 0 100 0" stroke="black" fill="transparent"
                  transform="translate(754.000000 271.333333) rotate (45.430787 0 0) scale (0.940479 1)"/>
                  <path
                  d=" M 0 0 10.0 0  C 10.000000 -12.000000 21.428571 19.000000 21.428571 0  S 32.85714285714286 15.0 32.85714285714286 0  S 44.85714285714286 -12.0 44.85714285714286 0  S 56.85714285714286 10.0 56.85714285714286 0  S 68.85714285714286 -11.0 68.85714285714286 0  S 80.85714285714286 13.0 80.85714285714286 0  S 90.0 10.0 90.0 0  M 90.0 0 100 0" stroke="black" fill="transparent"
                  transform="translate(754.000000 271.333333) rotate (-79.611142 0 0) scale (0.610000 1)"/>
                  <path
                  d=" M 0 0 10.0 0  C 10.000000 -15.000000 20.000000 19.000000 20.000000 0  S 30.0 10.0 30.0 0  S 40.0 -19.0 40.0 0  S 50.0 19.0 50.0 0  S 60.0 -18.0 60.0 0  S 70.0 15.0 70.0 0  S 80.0 -10.0 80.0 0  S 90.0 18.0 90.0 0  M 90.0 0 100 0" stroke="black" fill="transparent"
                  transform="translate(765.000000 211.333333) rotate (1.888188 0 0) scale (0.606996 1)"/>
                  <path
                  d=" M 0 0 10.0 0  C 10.000000 -10.000000 26.000000 11.000000 26.000000 0  S 42.0 14.0 42.0 0  S 58.0 -17.0 58.0 0  S 74.0 14.0 74.0 0  S 90.0 17.0 90.0 0  M 90.0 0 100 0" stroke="black" fill="transparent"
                  transform="translate(825.666667 213.333333) rotate (44.700025 0 0) scale (0.450197 1)"/>
                  <path
                  d=" M 0 0 10.0 0  C 10.000000 -16.000000 26.000000 10.000000 26.000000 0  S 42.0 11.0 42.0 0  S 58.0 -11.0 58.0 0  S 74.0 18.0 74.0 0  S 90.0 17.0 90.0 0  M 90.0 0 100 0" stroke="black" fill="transparent"
                  transform="translate(857.666667 245.000000) rotate (85.309316 0 0) scale (0.652184 1)"/>
                  <path
                  d=" M 0 0 10.0 0  C 10.000000 -11.000000 23.333333 16.000000 23.333333 0  S 36.66666666666667 15.0 36.66666666666667 0  S 50.66666666666667 -15.0 50.66666666666667 0  S 64.66666666666667 17.0 64.66666666666667 0  S 78.66666666666667 -10.0 78.66666666666667 0  S 90.0 18.0 90.0 0  M 90.0 0 100 0" stroke="black" fill="transparent"
                  transform="translate(820.000000 338.333333) rotate (-33.381476 0 0) scale (0.514954 1)"/>
                  <path
                  d=" M 0 0 10.0 0  C 10.000000 -10.000000 21.428571 12.000000 21.428571 0  S 32.85714285714286 19.0 32.85714285714286 0  S 44.85714285714286 -10.0 44.85714285714286 0  S 56.85714285714286 11.0 56.85714285714286 0  S 68.85714285714286 -11.0 68.85714285714286 0  S 80.85714285714286 12.0 80.85714285714286 0  S 90.0 18.0 90.0 0  M 90.0 0 100 0" stroke="black" fill="transparent"
                  transform="translate(114.333333 929.000000) rotate (-45.919105 0 0) scale (0.440820 1)"/>
                  <path
                  d=" M 0 0 10.0 0  C 10.000000 -15.000000 21.428571 13.000000 21.428571 0  S 32.85714285714286 14.0 32.85714285714286 0  S 44.85714285714286 -12.0 44.85714285714286 0  S 56.85714285714286 17.0 56.85714285714286 0  S 68.85714285714286 -12.0 68.85714285714286 0  S 80.85714285714286 19.0 80.85714285714286 0  S 90.0 12.0 90.0 0  M 90.0 0 100 0" stroke="black" fill="transparent"
                  transform="translate(83.333333 868.666667) rotate (62.805350 0 0) scale (0.678315 1)"/>
                  <path
                  d=" M 0 0 10.0 0  C 10.000000 -18.000000 21.428571 11.000000 21.428571 0  S 32.85714285714286 13.0 32.85714285714286 0  S 44.85714285714286 -18.0 44.85714285714286 0  S 56.85714285714286 18.0 56.85714285714286 0  S 68.85714285714286 -10.0 68.85714285714286 0  S 80.85714285714286 10.0 80.85714285714286 0  S 90.0 11.0 90.0 0  M 90.0 0 100 0" stroke="black" fill="transparent"
                  transform="translate(83.333333 868.666667) rotate (-64.081114 0 0) scale (0.793109 1)"/>
                  <path
                  d=" M 0 0 10.0 0  C 10.000000 -11.000000 21.428571 16.000000 21.428571 0  S 32.85714285714286 12.0 32.85714285714286 0  S 44.85714285714286 -13.0 44.85714285714286 0  S 56.85714285714286 18.0 56.85714285714286 0  S 68.85714285714286 -13.0 68.85714285714286 0  S 80.85714285714286 13.0 80.85714285714286 0  S 90.0 10.0 90.0 0  M 90.0 0 100 0" stroke="black" fill="transparent"
                  transform="translate(118.000000 797.333333) rotate (36.369198 0 0) scale (0.534020 1)"/>
                  <path
                  d=" M 0 0 10.0 0  C 10.000000 -10.000000 20.000000 17.000000 20.000000 0  S 30.0 18.0 30.0 0  S 40.0 -14.0 40.0 0  S 50.0 19.0 50.0 0  S 60.0 -12.0 60.0 0  S 70.0 18.0 70.0 0  S 80.0 -13.0 80.0 0  S 90.0 10.0 90.0 0  M 90.0 0 100 0" stroke="black" fill="transparent"
                  transform="translate(145.000000 897.333333) rotate (-76.821809 0 0) scale (0.701815 1)"/>
                  <path
                  d=" M 0 0 10.0 0  C 10.000000 -15.000000 20.000000 17.000000 20.000000 0  S 30.0 15.0 30.0 0  S 40.0 -15.0 40.0 0  S 50.0 14.0 50.0 0  S 60.0 -19.0 60.0 0  S 70.0 14.0 70.0 0  S 80.0 -11.0 80.0 0  S 90.0 13.0 90.0 0  M 90.0 0 100 0" stroke="black" fill="transparent"
                  transform="translate(749.666667 474.666667) rotate (89.095405 0 0) scale (0.633412 1)"/>
                  <path
                  d=" M 0 0 10.0 0  C 10.000000 -18.000000 26.000000 12.000000 26.000000 0  S 42.0 12.0 42.0 0  S 58.0 -16.0 58.0 0  S 74.0 16.0 74.0 0  S 90.0 14.0 90.0 0  M 90.0 0 100 0" stroke="black" fill="transparent"
                  transform="translate(621.000000 444.333333) rotate (13.265338 0 0) scale (1.321939 1)"/>
                  <path
                  d=" M 0 0 10.0 0  C 10.000000 -14.000000 21.428571 15.000000 21.428571 0  S 32.85714285714286 16.0 32.85714285714286 0  S 44.85714285714286 -18.0 44.85714285714286 0  S 56.85714285714286 12.0 56.85714285714286 0  S 68.85714285714286 -11.0 68.85714285714286 0  S 80.85714285714286 14.0 80.85714285714286 0  S 90.0 11.0 90.0 0  M 90.0 0 100 0" stroke="black" fill="transparent"
                  transform="translate(554.000000 555.333333) rotate (34.599448 0 0) scale (1.514522 1)"/>
                  <path
                  d=" M 0 0 10.0 0  C 10.000000 -19.000000 20.000000 12.000000 20.000000 0  S 30.0 11.0 30.0 0  S 40.0 -16.0 40.0 0  S 50.0 18.0 50.0 0  S 60.0 -16.0 60.0 0  S 70.0 17.0 70.0 0  S 80.0 -16.0 80.0 0  S 90.0 13.0 90.0 0  M 90.0 0 100 0" stroke="black" fill="transparent"
                  transform="translate(678.666667 641.333333) rotate (-35.029702 0 0) scale (0.830428 1)"/>
                  <path
                  d=" M 0 0 10.0 0  C 10.000000 -11.000000 20.000000 14.000000 20.000000 0  S 30.0 18.0 30.0 0  S 40.0 -17.0 40.0 0  S 50.0 19.0 50.0 0  S 60.0 -14.0 60.0 0  S 70.0 13.0 70.0 0  S 80.0 -10.0 80.0 0  S 90.0 17.0 90.0 0  M 90.0 0 100 0" stroke="black" fill="transparent"
                  transform="translate(839.666667 546.666667) rotate (-23.089317 0 0) scale (0.688485 1)"/>
                  <path
                  d=" M 0 0 10.0 0  C 10.000000 -11.000000 23.333333 15.000000 23.333333 0  S 36.66666666666667 18.0 36.66666666666667 0  S 50.66666666666667 -12.0 50.66666666666667 0  S 64.66666666666667 12.0 64.66666666666667 0  S 78.66666666666667 -10.0 78.66666666666667 0  S 90.0 13.0 90.0 0  M 90.0 0 100 0" stroke="black" fill="transparent"
                  transform="translate(804.000000 448.666667) rotate (89.095405 0 0) scale (0.633412 1)"/>
                  <path
                  d=" M 0 0 10.0 0  C 10.000000 -10.000000 23.333333 16.000000 23.333333 0  S 36.66666666666667 16.0 36.66666666666667 0  S 50.66666666666667 -14.0 50.66666666666667 0  S 64.66666666666667 14.0 64.66666666666667 0  S 78.66666666666667 -13.0 78.66666666666667 0  S 90.0 11.0 90.0 0  M 90.0 0 100 0" stroke="black" fill="transparent"
                  transform="translate(804.000000 448.666667) rotate (-46.750854 0 0) scale (0.540010 1)"/>
                  <path
                  d=" M 0 0 10.0 0  C 10.000000 -14.000000 26.000000 17.000000 26.000000 0  S 42.0 14.0 42.0 0  S 58.0 -15.0 58.0 0  S 74.0 15.0 74.0 0  S 90.0 10.0 90.0 0  M 90.0 0 100 0" stroke="black" fill="transparent"
                  transform="translate(841.000000 409.333333) rotate (29.456321 0 0) scale (0.738843 1)"/>
                  <path
                  d=" M 0 0 10.0 0  C 10.000000 -18.000000 20.000000 11.000000 20.000000 0  S 30.0 12.0 30.0 0  S 40.0 -10.0 40.0 0  S 50.0 15.0 50.0 0  S 60.0 -10.0 60.0 0  S 70.0 19.0 70.0 0  S 80.0 -15.0 80.0 0  S 90.0 11.0 90.0 0  M 90.0 0 100 0" stroke="black" fill="transparent"
                  transform="translate(903.000000 519.666667) rotate (-88.193975 0 0) scale (0.740368 1)"/>
                  <path
                  d=" M 0 0 10.0 0  C 10.000000 -15.000000 20.000000 14.000000 20.000000 0  S 30.0 18.0 30.0 0  S 40.0 -16.0 40.0 0  S 50.0 11.0 50.0 0  S 60.0 -12.0 60.0 0  S 70.0 18.0 70.0 0  S 80.0 -17.0 80.0 0  S 90.0 11.0 90.0 0  M 90.0 0 100 0" stroke="black" fill="transparent"
                  transform="translate(422.333333 952.666667) rotate (-52.480886 0 0) scale (0.470697 1)"/>
                  <path
                  d=" M 0 0 10.0 0  C 10.000000 -11.000000 23.333333 15.000000 23.333333 0  S 36.66666666666667 14.0 36.66666666666667 0  S 50.66666666666667 -10.0 50.66666666666667 0  S 64.66666666666667 10.0 64.66666666666667 0  S 78.66666666666667 -10.0 78.66666666666667 0  S 90.0 13.0 90.0 0  M 90.0 0 100 0" stroke="black" fill="transparent"
                  transform="translate(451.000000 915.333333) rotate (-4.033411 0 0) scale (0.521291 1)"/>
                  <path
                  d=" M 0 0 10.0 0  C 10.000000 -19.000000 20.000000 11.000000 20.000000 0  S 30.0 11.0 30.0 0  S 40.0 -11.0 40.0 0  S 50.0 16.0 50.0 0  S 60.0 -16.0 60.0 0  S 70.0 18.0 70.0 0  S 80.0 -11.0 80.0 0  S 90.0 10.0 90.0 0  M 90.0 0 100 0" stroke="black" fill="transparent"
                  transform="translate(503.000000 911.666667) rotate (28.141601 0 0) scale (0.487647 1)"/>
                  <path
                  d=" M 0 0 10.0 0  C 10.000000 -12.000000 26.000000 16.000000 26.000000 0  S 42.0 18.0 42.0 0  S 58.0 -19.0 58.0 0  S 74.0 18.0 74.0 0  S 90.0 10.0 90.0 0  M 90.0 0 100 0" stroke="black" fill="transparent"
                  transform="translate(507.666667 980.333333) rotate (-11.309932 0 0) scale (0.730859 1)"/>
                  <path
                  d=" M 0 0 10.0 0  C 10.000000 -19.000000 26.000000 14.000000 26.000000 0  S 42.0 14.0 42.0 0  S 58.0 -19.0 58.0 0  S 74.0 16.0 74.0 0  S 90.0 19.0 90.0 0  M 90.0 0 100 0" stroke="black" fill="transparent"
                  transform="translate(422.333333 952.666667) rotate (17.963666 0 0) scale (0.897063 1)"/>
                  <path
                  d=" M 0 0 10.0 0  C 10.000000 -10.000000 21.428571 19.000000 21.428571 0  S 32.85714285714286 18.0 32.85714285714286 0  S 44.85714285714286 -15.0 44.85714285714286 0  S 56.85714285714286 14.0 56.85714285714286 0  S 68.85714285714286 -15.0 68.85714285714286 0  S 80.85714285714286 16.0 80.85714285714286 0  S 90.0 15.0 90.0 0  M 90.0 0 100 0" stroke="black" fill="transparent"
                  transform="translate(761.333333 135.000000) rotate (87.249915 0 0) scale (0.764213 1)"/>
                  <path
                  d=" M 0 0 10.0 0  C 10.000000 -10.000000 21.428571 12.000000 21.428571 0  S 32.85714285714286 14.0 32.85714285714286 0  S 44.85714285714286 -14.0 44.85714285714286 0  S 56.85714285714286 10.0 56.85714285714286 0  S 68.85714285714286 -17.0 68.85714285714286 0  S 80.85714285714286 12.0 80.85714285714286 0  S 90.0 10.0 90.0 0  M 90.0 0 100 0" stroke="black" fill="transparent"
                  transform="translate(761.333333 135.000000) rotate (-26.687478 0 0) scale (0.697655 1)"/>
                  <path
                  d=" M 0 0 10.0 0  C 10.000000 -19.000000 23.333333 14.000000 23.333333 0  S 36.66666666666667 12.0 36.66666666666667 0  S 50.66666666666667 -17.0 50.66666666666667 0  S 64.66666666666667 11.0 64.66666666666667 0  S 78.66666666666667 -16.0 78.66666666666667 0  S 90.0 12.0 90.0 0  M 90.0 0 100 0" stroke="black" fill="transparent"
                  transform="translate(823.666667 103.666667) rotate (53.492729 0 0) scale (0.526677 1)"/>
                  <path
                  d=" M 0 0 10.0 0  C 10.000000 -11.000000 26.000000 13.000000 26.000000 0  S 42.0 19.0 42.0 0  S 58.0 -16.0 58.0 0  S 74.0 14.0 74.0 0  S 90.0 18.0 90.0 0  M 90.0 0 100 0" stroke="black" fill="transparent"
                  transform="translate(825.666667 213.333333) rotate (-66.459961 0 0) scale (0.734454 1)"/>
                  <path
                  d=" M 0 0 10.0 0  C 10.000000 -15.000000 26.000000 13.000000 26.000000 0  S 42.0 12.0 42.0 0  S 58.0 -16.0 58.0 0  S 74.0 15.0 74.0 0  S 90.0 10.0 90.0 0  M 90.0 0 100 0" stroke="black" fill="transparent"
                  transform="translate(251.666667 800.666667) rotate (4.816915 0 0) scale (0.595436 1)"/>
                  <path
                  d=" M 0 0 10.0 0  C 10.000000 -13.000000 26.000000 13.000000 26.000000 0  S 42.0 13.0 42.0 0  S 58.0 -13.0 58.0 0  S 74.0 15.0 74.0 0  S 90.0 11.0 90.0 0  M 90.0 0 100 0" stroke="black" fill="transparent"
                  transform="translate(217.333333 733.333333) rotate (62.982920 0 0) scale (0.755814 1)"/>
                  <path
                  d=" M 0 0 10.0 0  C 10.000000 -15.000000 26.000000 12.000000 26.000000 0  S 42.0 14.0 42.0 0  S 58.0 -15.0 58.0 0  S 74.0 11.0 74.0 0  S 90.0 10.0 90.0 0  M 90.0 0 100 0" stroke="black" fill="transparent"
                  transform="translate(205.333333 679.333333) rotate (77.471192 0 0) scale (0.553173 1)"/>
                  <path
                  d=" M 0 0 10.0 0  C 10.000000 -14.000000 23.333333 13.000000 23.333333 0  S 36.66666666666667 19.0 36.66666666666667 0  S 50.66666666666667 -16.0 50.66666666666667 0  S 64.66666666666667 17.0 64.66666666666667 0  S 78.66666666666667 -16.0 78.66666666666667 0  S 90.0 18.0 90.0 0  M 90.0 0 100 0" stroke="black" fill="transparent"
                  transform="translate(205.333333 679.333333) rotate (-50.569551 0 0) scale (1.238570 1)"/>
                  <path
                  d=" M 0 0 10.0 0  C 10.000000 -11.000000 20.000000 19.000000 20.000000 0  S 30.0 14.0 30.0 0  S 40.0 -14.0 40.0 0  S 50.0 18.0 50.0 0  S 60.0 -18.0 60.0 0  S 70.0 15.0 70.0 0  S 80.0 -14.0 80.0 0  S 90.0 19.0 90.0 0  M 90.0 0 100 0" stroke="black" fill="transparent"
                  transform="translate(409.333333 818.333333) rotate (53.049062 0 0) scale (0.471334 1)"/>
                  <path
                  d=" M 0 0 10.0 0  C 10.000000 -18.000000 26.000000 13.000000 26.000000 0  S 42.0 14.0 42.0 0  S 58.0 -13.0 58.0 0  S 74.0 15.0 74.0 0  S 90.0 17.0 90.0 0  M 90.0 0 100 0" stroke="black" fill="transparent"
                  transform="translate(437.666667 856.000000) rotate (77.334936 0 0) scale (0.608130 1)"/>
                  <path
                  d=" M 0 0 10.0 0  C 10.000000 -12.000000 26.000000 16.000000 26.000000 0  S 42.0 14.0 42.0 0  S 58.0 -18.0 58.0 0  S 74.0 17.0 74.0 0  S 90.0 15.0 90.0 0  M 90.0 0 100 0" stroke="black" fill="transparent"
                  transform="translate(351.333333 948.666667) rotate (3.224523 0 0) scale (0.711126 1)"/>
                  <path
                  d=" M 0 0 10.0 0  C 10.000000 -12.000000 20.000000 12.000000 20.000000 0  S 30.0 14.0 30.0 0  S 40.0 -15.0 40.0 0  S 50.0 13.0 50.0 0  S 60.0 -12.0 60.0 0  S 70.0 17.0 70.0 0  S 80.0 -15.0 80.0 0  S 90.0 18.0 90.0 0  M 90.0 0 100 0" stroke="black" fill="transparent"
                  transform="translate(315.000000 912.666667) rotate (44.735966 0 0) scale (0.511479 1)"/>
                  <path
                  d=" M 0 0 10.0 0  C 10.000000 -16.000000 26.000000 12.000000 26.000000 0  S 42.0 14.0 42.0 0  S 58.0 -19.0 58.0 0  S 74.0 11.0 74.0 0  S 90.0 10.0 90.0 0  M 90.0 0 100 0" stroke="black" fill="transparent"
                  transform="translate(315.000000 912.666667) rotate (-61.434163 0 0) scale (0.683163 1)"/>
                  <path
                  d=" M 0 0 10.0 0  C 10.000000 -15.000000 23.333333 19.000000 23.333333 0  S 36.66666666666667 16.0 36.66666666666667 0  S 50.66666666666667 -12.0 50.66666666666667 0  S 64.66666666666667 10.0 64.66666666666667 0  S 78.66666666666667 -15.0 78.66666666666667 0  S 90.0 19.0 90.0 0  M 90.0 0 100 0" stroke="black" fill="transparent"
                  transform="translate(711.666667 917.000000) rotate (50.132554 0 0) scale (0.790415 1)"/>
                  <path
                  d=" M 0 0 10.0 0  C 10.000000 -19.000000 26.000000 16.000000 26.000000 0  S 42.0 16.0 42.0 0  S 58.0 -15.0 58.0 0  S 74.0 15.0 74.0 0  S 90.0 13.0 90.0 0  M 90.0 0 100 0" stroke="black" fill="transparent"
                  transform="translate(507.666667 980.333333) rotate (-0.599934 0 0) scale (2.546806 1)"/>
                  <path
                  d=" M 0 0 10.0 0  C 10.000000 -12.000000 20.000000 13.000000 20.000000 0  S 30.0 19.0 30.0 0  S 40.0 -16.0 40.0 0  S 50.0 16.0 50.0 0  S 60.0 -16.0 60.0 0  S 70.0 12.0 70.0 0  S 80.0 -10.0 80.0 0  S 90.0 13.0 90.0 0  M 90.0 0 100 0" stroke="black" fill="transparent"
                  transform="translate(217.666667 840.666667) rotate (67.693795 0 0) scale (0.702575 1)"/>
                  <path
                  d=" M 0 0 10.0 0  C 10.000000 -17.000000 23.333333 18.000000 23.333333 0  S 36.66666666666667 16.0 36.66666666666667 0  S 50.66666666666667 -11.0 50.66666666666667 0  S 64.66666666666667 19.0 64.66666666666667 0  S 78.66666666666667 -15.0 78.66666666666667 0  S 90.0 10.0 90.0 0  M 90.0 0 100 0" stroke="black" fill="transparent"
                  transform="translate(217.666667 840.666667) rotate (-49.635463 0 0) scale (0.524976 1)"/>
                  <path
                  d=" M 0 0 10.0 0  C 10.000000 -11.000000 26.000000 11.000000 26.000000 0  S 42.0 19.0 42.0 0  S 58.0 -11.0 58.0 0  S 74.0 11.0 74.0 0  S 90.0 12.0 90.0 0  M 90.0 0 100 0" stroke="black" fill="transparent"
                  transform="translate(244.333333 905.666667) rotate (5.657071 0 0) scale (0.710125 1)"/>
                  <path
                  d=" M 0 0 10.0 0  C 10.000000 -13.000000 26.000000 15.000000 26.000000 0  S 42.0 16.0 42.0 0  S 58.0 -10.0 58.0 0  S 74.0 17.0 74.0 0  S 90.0 12.0 90.0 0  M 90.0 0 100 0" stroke="black" fill="transparent"
                  transform="translate(833.000000 698.666667) rotate (-83.659808 0 0) scale (0.573508 1)"/>
                  <path
                  d=" M 0 0 10.0 0  C 10.000000 -13.000000 23.333333 19.000000 23.333333 0  S 36.66666666666667 16.0 36.66666666666667 0  S 50.66666666666667 -19.0 50.66666666666667 0  S 64.66666666666667 13.0 64.66666666666667 0  S 78.66666666666667 -19.0 78.66666666666667 0  S 90.0 10.0 90.0 0  M 90.0 0 100 0" stroke="black" fill="transparent"
                  transform="translate(833.000000 698.666667) rotate (-0.803159 0 0) scale (0.713403 1)"/>
                  <path
                  d=" M 0 0 10.0 0  C 10.000000 -11.000000 21.428571 19.000000 21.428571 0  S 32.85714285714286 14.0 32.85714285714286 0  S 44.85714285714286 -10.0 44.85714285714286 0  S 56.85714285714286 14.0 56.85714285714286 0  S 68.85714285714286 -13.0 68.85714285714286 0  S 80.85714285714286 17.0 80.85714285714286 0  S 90.0 14.0 90.0 0  M 90.0 0 100 0" stroke="black" fill="transparent"
                  transform="translate(904.333333 697.666667) rotate (-83.659808 0 0) scale (0.573508 1)"/>
                  <path
                  d=" M 0 0 10.0 0  C 10.000000 -10.000000 21.428571 14.000000 21.428571 0  S 32.85714285714286 10.0 32.85714285714286 0  S 44.85714285714286 -13.0 44.85714285714286 0  S 56.85714285714286 15.0 56.85714285714286 0  S 68.85714285714286 -15.0 68.85714285714286 0  S 80.85714285714286 16.0 80.85714285714286 0  S 90.0 12.0 90.0 0  M 90.0 0 100 0" stroke="black" fill="transparent"
                  transform="translate(839.333333 641.666667) rotate (-0.803159 0 0) scale (0.713403 1)"/>
                  <path
                  d=" M 0 0 10.0 0  C 10.000000 -13.000000 21.428571 18.000000 21.428571 0  S 32.85714285714286 14.0 32.85714285714286 0  S 44.85714285714286 -17.0 44.85714285714286 0  S 56.85714285714286 17.0 56.85714285714286 0  S 68.85714285714286 -14.0 68.85714285714286 0  S 80.85714285714286 10.0 80.85714285714286 0  S 90.0 10.0 90.0 0  M 90.0 0 100 0" stroke="black" fill="transparent"
                  transform="translate(125.666667 651.666667) rotate (19.151109 0 0) scale (0.843340 1)"/>
                  <path
                  d=" M 0 0 10.0 0  C 10.000000 -15.000000 26.000000 15.000000 26.000000 0  S 42.0 11.0 42.0 0  S 58.0 -18.0 58.0 0  S 74.0 10.0 74.0 0  S 90.0 19.0 90.0 0  M 90.0 0 100 0" stroke="black" fill="transparent"
                  transform="translate(97.666667 488.000000) rotate (-16.011177 0 0) scale (1.196411 1)"/>
                  <path
                  d=" M 0 0 10.0 0  C 10.000000 -11.000000 21.428571 15.000000 21.428571 0  S 32.85714285714286 11.0 32.85714285714286 0  S 44.85714285714286 -18.0 44.85714285714286 0  S 56.85714285714286 18.0 56.85714285714286 0  S 68.85714285714286 -13.0 68.85714285714286 0  S 80.85714285714286 12.0 80.85714285714286 0  S 90.0 13.0 90.0 0  M 90.0 0 100 0" stroke="black" fill="transparent"
                  transform="translate(95.666667 551.666667) rotate (-88.200724 0 0) scale (0.636981 1)"/>
                  <path
                  d=" M 0 0 10.0 0  C 10.000000 -19.000000 23.333333 16.000000 23.333333 0  S 36.66666666666667 11.0 36.66666666666667 0  S 50.66666666666667 -17.0 50.66666666666667 0  S 64.66666666666667 14.0 64.66666666666667 0  S 78.66666666666667 -15.0 78.66666666666667 0  S 90.0 11.0 90.0 0  M 90.0 0 100 0" stroke="black" fill="transparent"
                  transform="translate(94.000000 609.666667) rotate (-88.354023 0 0) scale (0.580239 1)"/>
                  <path
                  d=" M 0 0 10.0 0  C 10.000000 -16.000000 21.428571 11.000000 21.428571 0  S 32.85714285714286 12.0 32.85714285714286 0  S 44.85714285714286 -15.0 44.85714285714286 0  S 56.85714285714286 18.0 56.85714285714286 0  S 68.85714285714286 -11.0 68.85714285714286 0  S 80.85714285714286 12.0 80.85714285714286 0  S 90.0 11.0 90.0 0  M 90.0 0 100 0" stroke="black" fill="transparent"
                  transform="translate(94.000000 609.666667) rotate (52.984866 0 0) scale (0.526002 1)"/>
                  <path
                  d=" M 0 0 10.0 0  C 10.000000 -12.000000 20.000000 12.000000 20.000000 0  S 30.0 13.0 30.0 0  S 40.0 -11.0 40.0 0  S 50.0 10.0 50.0 0  S 60.0 -16.0 60.0 0  S 70.0 13.0 70.0 0  S 80.0 -15.0 80.0 0  S 90.0 18.0 90.0 0  M 90.0 0 100 0" stroke="black" fill="transparent"
                  transform="translate(820.000000 338.333333) rotate (73.523119 0 0) scale (0.740405 1)"/>
                  <path
                  d=" M 0 0 10.0 0  C 10.000000 -14.000000 26.000000 18.000000 26.000000 0  S 42.0 12.0 42.0 0  S 58.0 -19.0 58.0 0  S 74.0 11.0 74.0 0  S 90.0 10.0 90.0 0  M 90.0 0 100 0" stroke="black" fill="transparent"
                  transform="translate(905.333333 445.666667) rotate (-47.489553 0 0) scale (0.542627 1)"/>
                  <path
                  d=" M 0 0 10.0 0  C 10.000000 -19.000000 23.333333 15.000000 23.333333 0  S 36.66666666666667 19.0 36.66666666666667 0  S 50.66666666666667 -10.0 50.66666666666667 0  S 64.66666666666667 10.0 64.66666666666667 0  S 78.66666666666667 -18.0 78.66666666666667 0  S 90.0 16.0 90.0 0  M 90.0 0 100 0" stroke="black" fill="transparent"
                  transform="translate(920.666667 341.000000) rotate (71.742437 0 0) scale (0.680947 1)"/>
                  <path
                  d=" M 0 0 10.0 0  C 10.000000 -16.000000 20.000000 15.000000 20.000000 0  S 30.0 16.0 30.0 0  S 40.0 -18.0 40.0 0  S 50.0 18.0 50.0 0  S 60.0 -12.0 60.0 0  S 70.0 12.0 70.0 0  S 80.0 -15.0 80.0 0  S 90.0 14.0 90.0 0  M 90.0 0 100 0" stroke="black" fill="transparent"
                  transform="translate(863.000000 310.000000) rotate (28.261241 0 0) scale (0.654709 1)"/>
                  <path
                  d=" M 0 0 10.0 0  C 10.000000 -18.000000 26.000000 19.000000 26.000000 0  S 42.0 14.0 42.0 0  S 58.0 -12.0 58.0 0  S 74.0 17.0 74.0 0  S 90.0 16.0 90.0 0  M 90.0 0 100 0" stroke="black" fill="transparent"
                  transform="translate(82.333333 173.666667) rotate (43.754636 0 0) scale (0.433795 1)"/>
                  <path
                  d=" M 0 0 10.0 0  C 10.000000 -14.000000 21.428571 19.000000 21.428571 0  S 32.85714285714286 13.0 32.85714285714286 0  S 44.85714285714286 -12.0 44.85714285714286 0  S 56.85714285714286 13.0 56.85714285714286 0  S 68.85714285714286 -14.0 68.85714285714286 0  S 80.85714285714286 16.0 80.85714285714286 0  S 90.0 19.0 90.0 0  M 90.0 0 100 0" stroke="black" fill="transparent"
                  transform="translate(77.333333 244.333333) rotate (-85.952798 0 0) scale (0.708433 1)"/>
                  <path
                  d=" M 0 0 10.0 0  C 10.000000 -11.000000 26.000000 12.000000 26.000000 0  S 42.0 14.0 42.0 0  S 58.0 -15.0 58.0 0  S 74.0 16.0 74.0 0  S 90.0 11.0 90.0 0  M 90.0 0 100 0" stroke="black" fill="transparent"
                  transform="translate(77.333333 244.333333) rotate (42.222570 0 0) scale (1.507909 1)"/>
                  <path
                  d=" M 0 0 10.0 0  C 10.000000 -16.000000 26.000000 10.000000 26.000000 0  S 42.0 19.0 42.0 0  S 58.0 -15.0 58.0 0  S 74.0 10.0 74.0 0  S 90.0 16.0 90.0 0  M 90.0 0 100 0" stroke="black" fill="transparent"
                  transform="translate(113.666667 203.666667) rotate (37.977206 0 0) scale (1.310911 1)"/>
                  <path
                  d=" M 0 0 10.0 0  C 10.000000 -19.000000 21.428571 12.000000 21.428571 0  S 32.85714285714286 16.0 32.85714285714286 0  S 44.85714285714286 -11.0 44.85714285714286 0  S 56.85714285714286 11.0 56.85714285714286 0  S 68.85714285714286 -11.0 68.85714285714286 0  S 80.85714285714286 17.0 80.85714285714286 0  S 90.0 14.0 90.0 0  M 90.0 0 100 0" stroke="black" fill="transparent"
                  transform="translate(140.333333 741.666667) rotate (-6.176801 0 0) scale (0.774496 1)"/>
                  <path
                  d=" M 0 0 10.0 0  C 10.000000 -15.000000 21.428571 11.000000 21.428571 0  S 32.85714285714286 14.0 32.85714285714286 0  S 44.85714285714286 -10.0 44.85714285714286 0  S 56.85714285714286 16.0 56.85714285714286 0  S 68.85714285714286 -18.0 68.85714285714286 0  S 80.85714285714286 12.0 80.85714285714286 0  S 90.0 18.0 90.0 0  M 90.0 0 100 0" stroke="black" fill="transparent"
                  transform="translate(161.000000 829.000000) rotate (11.633634 0 0) scale (0.578552 1)"/>
                  <path
                  d=" M 0 0 10.0 0  C 10.000000 -14.000000 26.000000 10.000000 26.000000 0  S 42.0 16.0 42.0 0  S 58.0 -14.0 58.0 0  S 74.0 16.0 74.0 0  S 90.0 17.0 90.0 0  M 90.0 0 100 0" stroke="black" fill="transparent"
                  transform="translate(118.000000 797.333333) rotate (-68.139462 0 0) scale (0.599796 1)"/>
                  <path
                  d=" M 0 0 10.0 0  C 10.000000 -13.000000 26.000000 17.000000 26.000000 0  S 42.0 10.0 42.0 0  S 58.0 -16.0 58.0 0  S 74.0 15.0 74.0 0  S 90.0 13.0 90.0 0  M 90.0 0 100 0" stroke="black" fill="transparent"
                  transform="translate(145.000000 897.333333) rotate (28.300756 0 0) scale (0.689025 1)"/>
                  <path
                  d=" M 0 0 10.0 0  C 10.000000 -13.000000 21.428571 18.000000 21.428571 0  S 32.85714285714286 15.0 32.85714285714286 0  S 44.85714285714286 -18.0 44.85714285714286 0  S 56.85714285714286 11.0 56.85714285714286 0  S 68.85714285714286 -10.0 68.85714285714286 0  S 80.85714285714286 13.0 80.85714285714286 0  S 90.0 13.0 90.0 0  M 90.0 0 100 0" stroke="black" fill="transparent"
                  transform="translate(205.666667 930.000000) rotate (-32.182632 0 0) scale (0.456861 1)"/>
                  <path
                  d=" M 0 0 10.0 0  C 10.000000 -15.000000 26.000000 11.000000 26.000000 0  S 42.0 13.0 42.0 0  S 58.0 -13.0 58.0 0  S 74.0 18.0 74.0 0  S 90.0 19.0 90.0 0  M 90.0 0 100 0" stroke="black" fill="transparent"
                  transform="translate(895.333333 952.333333) rotate (-43.867820 0 0) scale (0.596443 1)"/>
                  <path
                  d=" M 0 0 10.0 0  C 10.000000 -10.000000 20.000000 16.000000 20.000000 0  S 30.0 14.0 30.0 0  S 40.0 -18.0 40.0 0  S 50.0 10.0 50.0 0  S 60.0 -11.0 60.0 0  S 70.0 14.0 70.0 0  S 80.0 -18.0 80.0 0  S 90.0 18.0 90.0 0  M 90.0 0 100 0" stroke="black" fill="transparent"
                  transform="translate(90.666667 713.666667) rotate (29.412495 0 0) scale (0.570156 1)"/>
                  <path
                  d=" M 0 0 10.0 0  C 10.000000 -11.000000 23.333333 18.000000 23.333333 0  S 36.66666666666667 18.0 36.66666666666667 0  S 50.66666666666667 -14.0 50.66666666666667 0  S 64.66666666666667 15.0 64.66666666666667 0  S 78.66666666666667 -12.0 78.66666666666667 0  S 90.0 10.0 90.0 0  M 90.0 0 100 0" stroke="black" fill="transparent"
                  transform="translate(90.666667 713.666667) rotate (-60.554571 0 0) scale (0.711969 1)"/>
                  <path
                  d=" M 0 0 10.0 0  C 10.000000 -12.000000 20.000000 15.000000 20.000000 0  S 30.0 17.0 30.0 0  S 40.0 -16.0 40.0 0  S 50.0 19.0 50.0 0  S 60.0 -11.0 60.0 0  S 70.0 16.0 70.0 0  S 80.0 -17.0 80.0 0  S 90.0 10.0 90.0 0  M 90.0 0 100 0" stroke="black" fill="transparent"
                  transform="translate(200.666667 110.333333) rotate (-2.602562 0 0) scale (0.587272 1)"/>
                  <path
                  d=" M 0 0 10.0 0  C 10.000000 -17.000000 23.333333 16.000000 23.333333 0  S 36.66666666666667 15.0 36.66666666666667 0  S 50.66666666666667 -13.0 50.66666666666667 0  S 64.66666666666667 19.0 64.66666666666667 0  S 78.66666666666667 -11.0 78.66666666666667 0  S 90.0 18.0 90.0 0  M 90.0 0 100 0" stroke="black" fill="transparent"
                  transform="translate(259.333333 107.666667) rotate (-20.329255 0 0) scale (1.084200 1)"/>
                  <path
                  d=" M 0 0 10.0 0  C 10.000000 -12.000000 26.000000 15.000000 26.000000 0  S 42.0 13.0 42.0 0  S 58.0 -12.0 58.0 0  S 74.0 11.0 74.0 0  S 90.0 15.0 90.0 0  M 90.0 0 100 0" stroke="black" fill="transparent"
                  transform="translate(361.000000 70.000000) rotate (-3.221040 0 0) scale (0.771218 1)"/>
                  <path
                  d=" M 0 0 10.0 0  C 10.000000 -15.000000 21.428571 14.000000 21.428571 0  S 32.85714285714286 15.0 32.85714285714286 0  S 44.85714285714286 -15.0 44.85714285714286 0  S 56.85714285714286 14.0 56.85714285714286 0  S 68.85714285714286 -14.0 68.85714285714286 0  S 80.85714285714286 17.0 80.85714285714286 0  S 90.0 16.0 90.0 0  M 90.0 0 100 0" stroke="black" fill="transparent"
                  transform="translate(200.666667 110.333333) rotate (-10.658520 0 0) scale (2.414999 1)"/>
                  <path
                  d=" M 0 0 10.0 0  C 10.000000 -13.000000 20.000000 15.000000 20.000000 0  S 30.0 12.0 30.0 0  S 40.0 -12.0 40.0 0  S 50.0 10.0 50.0 0  S 60.0 -14.0 60.0 0  S 70.0 11.0 70.0 0  S 80.0 -18.0 80.0 0  S 90.0 15.0 90.0 0  M 90.0 0 100 0" stroke="black" fill="transparent"
                  transform="translate(948.333333 110.666667) rotate (73.926426 0 0) scale (1.023339 1)"/>
                  <path
                  d=" M 0 0 10.0 0  C 10.000000 -15.000000 20.000000 17.000000 20.000000 0  S 30.0 16.0 30.0 0  S 40.0 -17.0 40.0 0  S 50.0 13.0 50.0 0  S 60.0 -11.0 60.0 0  S 70.0 18.0 70.0 0  S 80.0 -11.0 80.0 0  S 90.0 16.0 90.0 0  M 90.0 0 100 0" stroke="black" fill="transparent"
                  transform="translate(964.000000 275.333333) rotate (-79.189244 0 0) scale (0.675319 1)"/>
                  <path
                  d=" M 0 0 10.0 0  C 10.000000 -17.000000 23.333333 12.000000 23.333333 0  S 36.66666666666667 10.0 36.66666666666667 0  S 50.66666666666667 -14.0 50.66666666666667 0  S 64.66666666666667 18.0 64.66666666666667 0  S 78.66666666666667 -19.0 78.66666666666667 0  S 90.0 19.0 90.0 0  M 90.0 0 100 0" stroke="black" fill="transparent"
                  transform="translate(934.000000 210.333333) rotate (65.224859 0 0) scale (0.715891 1)"/>
                  <path
                  d=" M 0 0 10.0 0  C 10.000000 -14.000000 21.428571 11.000000 21.428571 0  S 32.85714285714286 15.0 32.85714285714286 0  S 44.85714285714286 -13.0 44.85714285714286 0  S 56.85714285714286 16.0 56.85714285714286 0  S 68.85714285714286 -16.0 68.85714285714286 0  S 80.85714285714286 16.0 80.85714285714286 0  S 90.0 12.0 90.0 0  M 90.0 0 100 0" stroke="black" fill="transparent"
                  transform="translate(912.000000 149.333333) rotate (70.167870 0 0) scale (0.648460 1)"/>
                  <path
                  d=" M 0 0 10.0 0  C 10.000000 -14.000000 26.000000 11.000000 26.000000 0  S 42.0 13.0 42.0 0  S 58.0 -10.0 58.0 0  S 74.0 10.0 74.0 0  S 90.0 16.0 90.0 0  M 90.0 0 100 0" stroke="black" fill="transparent"
                  transform="translate(912.000000 149.333333) rotate (-46.781961 0 0) scale (0.530587 1)"/>
                  <path
                  d=" M 0 0 10.0 0  C 10.000000 -16.000000 20.000000 14.000000 20.000000 0  S 30.0 12.0 30.0 0  S 40.0 -12.0 40.0 0  S 50.0 14.0 50.0 0  S 60.0 -15.0 60.0 0  S 70.0 15.0 70.0 0  S 80.0 -16.0 80.0 0  S 90.0 16.0 90.0 0  M 90.0 0 100 0" stroke="black" fill="transparent"
                  transform="translate(903.000000 519.666667) rotate (41.539817 0 0) scale (0.507685 1)"/>
                  <path
                  d=" M 0 0 10.0 0  C 10.000000 -10.000000 26.000000 14.000000 26.000000 0  S 42.0 11.0 42.0 0  S 58.0 -10.0 58.0 0  S 74.0 14.0 74.0 0  S 90.0 17.0 90.0 0  M 90.0 0 100 0" stroke="black" fill="transparent"
                  transform="translate(941.000000 553.333333) rotate (-69.954751 0 0) scale (0.787718 1)"/>
                  <path
                  d=" M 0 0 10.0 0  C 10.000000 -11.000000 26.000000 19.000000 26.000000 0  S 42.0 16.0 42.0 0  S 58.0 -16.0 58.0 0  S 74.0 10.0 74.0 0  S 90.0 18.0 90.0 0  M 90.0 0 100 0" stroke="black" fill="transparent"
                  transform="translate(942.000000 405.666667) rotate (70.559965 0 0) scale (0.781203 1)"/>
                  <path
                  d=" M 0 0 10.0 0  C 10.000000 -12.000000 26.000000 11.000000 26.000000 0  S 42.0 10.0 42.0 0  S 58.0 -15.0 58.0 0  S 74.0 17.0 74.0 0  S 90.0 12.0 90.0 0  M 90.0 0 100 0" stroke="black" fill="transparent"
                  transform="translate(438.000000 65.666667) rotate (14.498048 0 0) scale (1.504578 1)"/>
                  <path
                  d=" M 0 0 10.0 0  C 10.000000 -19.000000 26.000000 15.000000 26.000000 0  S 42.0 12.0 42.0 0  S 58.0 -18.0 58.0 0  S 74.0 11.0 74.0 0  S 90.0 10.0 90.0 0  M 90.0 0 100 0" stroke="black" fill="transparent"
                  transform="translate(361.000000 70.000000) rotate (67.967211 0 0) scale (1.226218 1)"/>
                  <path
                  d=" M 0 0 10.0 0  C 10.000000 -13.000000 20.000000 10.000000 20.000000 0  S 30.0 15.0 30.0 0  S 40.0 -11.0 40.0 0  S 50.0 12.0 50.0 0  S 60.0 -13.0 60.0 0  S 70.0 10.0 70.0 0  S 80.0 -12.0 80.0 0  S 90.0 12.0 90.0 0  M 90.0 0 100 0" stroke="black" fill="transparent"
                  transform="translate(521.000000 215.000000) rotate (-60.699120 0 0) scale (1.280490 1)"/>
                  <path
                  d=" M 0 0 10.0 0  C 10.000000 -18.000000 23.333333 11.000000 23.333333 0  S 36.66666666666667 16.0 36.66666666666667 0  S 50.66666666666667 -19.0 50.66666666666667 0  S 64.66666666666667 16.0 64.66666666666667 0  S 78.66666666666667 -10.0 78.66666666666667 0  S 90.0 17.0 90.0 0  M 90.0 0 100 0" stroke="black" fill="transparent"
                  transform="translate(855.000000 146.000000) rotate (3.346819 0 0) scale (0.570974 1)"/>
                  <path
                  d=" M 0 0 10.0 0  C 10.000000 -14.000000 26.000000 17.000000 26.000000 0  S 42.0 11.0 42.0 0  S 58.0 -10.0 58.0 0  S 74.0 17.0 74.0 0  S 90.0 11.0 90.0 0  M 90.0 0 100 0" stroke="black" fill="transparent"
                  transform="translate(857.666667 245.000000) rotate (-7.033416 0 0) scale (0.517226 1)"/>
                  <path
                  d=" M 0 0 10.0 0  C 10.000000 -12.000000 26.000000 15.000000 26.000000 0  S 42.0 10.0 42.0 0  S 58.0 -13.0 58.0 0  S 74.0 10.0 74.0 0  S 90.0 19.0 90.0 0  M 90.0 0 100 0" stroke="black" fill="transparent"
                  transform="translate(909.000000 238.666667) rotate (-48.576334 0 0) scale (0.377859 1)"/>
                  <path
                  d=" M 0 0 10.0 0  C 10.000000 -11.000000 21.428571 16.000000 21.428571 0  S 32.85714285714286 13.0 32.85714285714286 0  S 44.85714285714286 -10.0 44.85714285714286 0  S 56.85714285714286 19.0 56.85714285714286 0  S 68.85714285714286 -10.0 68.85714285714286 0  S 80.85714285714286 16.0 80.85714285714286 0  S 90.0 10.0 90.0 0  M 90.0 0 100 0" stroke="black" fill="transparent"
                  transform="translate(259.333333 107.666667) rotate (67.967211 0 0) scale (1.226218 1)"/>
                  <path
                  d=" M 0 0 10.0 0  C 10.000000 -19.000000 21.428571 15.000000 21.428571 0  S 32.85714285714286 13.0 32.85714285714286 0  S 44.85714285714286 -16.0 44.85714285714286 0  S 56.85714285714286 19.0 56.85714285714286 0  S 68.85714285714286 -10.0 68.85714285714286 0  S 80.85714285714286 17.0 80.85714285714286 0  S 90.0 17.0 90.0 0  M 90.0 0 100 0" stroke="black" fill="transparent"
                  transform="translate(65.000000 321.666667) rotate (78.888934 0 0) scale (1.695107 1)"/>
                  <path
                  d=" M 0 0 10.0 0  C 10.000000 -11.000000 26.000000 12.000000 26.000000 0  S 42.0 10.0 42.0 0  S 58.0 -16.0 58.0 0  S 74.0 14.0 74.0 0  S 90.0 12.0 90.0 0  M 90.0 0 100 0" stroke="black" fill="transparent"
                  transform="translate(65.000000 321.666667) rotate (-80.938621 0 0) scale (0.783106 1)"/>
                  <path
                  d=" M 0 0 10.0 0  C 10.000000 -17.000000 26.000000 18.000000 26.000000 0  S 42.0 11.0 42.0 0  S 58.0 -18.0 58.0 0  S 74.0 12.0 74.0 0  S 90.0 14.0 90.0 0  M 90.0 0 100 0" stroke="black" fill="transparent"
                  transform="translate(523.666667 789.000000) rotate (3.231010 0 0) scale (0.827983 1)"/>
                  <path
                  d=" M 0 0 10.0 0  C 10.000000 -18.000000 20.000000 15.000000 20.000000 0  S 30.0 16.0 30.0 0  S 40.0 -15.0 40.0 0  S 50.0 14.0 50.0 0  S 60.0 -16.0 60.0 0  S 70.0 13.0 70.0 0  S 80.0 -15.0 80.0 0  S 90.0 12.0 90.0 0  M 90.0 0 100 0" stroke="black" fill="transparent"
                  transform="translate(464.333333 751.000000) rotate (32.637508 0 0) scale (0.704588 1)"/>
                  <path
                  d=" M 0 0 10.0 0  C 10.000000 -13.000000 26.000000 17.000000 26.000000 0  S 42.0 17.0 42.0 0  S 58.0 -14.0 58.0 0  S 74.0 14.0 74.0 0  S 90.0 12.0 90.0 0  M 90.0 0 100 0" stroke="black" fill="transparent"
                  transform="translate(678.666667 641.333333) rotate (89.499613 0 0) scale (0.763362 1)"/>
                  <path
                  d=" M 0 0 10.0 0  C 10.000000 -19.000000 26.000000 14.000000 26.000000 0  S 42.0 11.0 42.0 0  S 58.0 -13.0 58.0 0  S 74.0 15.0 74.0 0  S 90.0 10.0 90.0 0  M 90.0 0 100 0" stroke="black" fill="transparent"
                  transform="translate(676.666667 70.666667) rotate (43.948819 0 0) scale (0.513917 1)"/>
                  <path
                  d=" M 0 0 10.0 0  C 10.000000 -11.000000 23.333333 18.000000 23.333333 0  S 36.66666666666667 14.0 36.66666666666667 0  S 50.66666666666667 -17.0 50.66666666666667 0  S 64.66666666666667 19.0 64.66666666666667 0  S 78.66666666666667 -17.0 78.66666666666667 0  S 90.0 16.0 90.0 0  M 90.0 0 100 0" stroke="black" fill="transparent"
                  transform="translate(713.666667 106.333333) rotate (31.022642 0 0) scale (0.556227 1)"/>
                  <path
                  d=" M 0 0 10.0 0  C 10.000000 -12.000000 21.428571 16.000000 21.428571 0  S 32.85714285714286 19.0 32.85714285714286 0  S 44.85714285714286 -19.0 44.85714285714286 0  S 56.85714285714286 14.0 56.85714285714286 0  S 68.85714285714286 -15.0 68.85714285714286 0  S 80.85714285714286 19.0 80.85714285714286 0  S 90.0 13.0 90.0 0  M 90.0 0 100 0" stroke="black" fill="transparent"
                  transform="translate(823.666667 103.666667) rotate (-32.005383 0 0) scale (0.754718 1)"/>
                  <path
                  d=" M 0 0 10.0 0  C 10.000000 -15.000000 20.000000 17.000000 20.000000 0  S 30.0 15.0 30.0 0  S 40.0 -14.0 40.0 0  S 50.0 18.0 50.0 0  S 60.0 -17.0 60.0 0  S 70.0 12.0 70.0 0  S 80.0 -11.0 80.0 0  S 90.0 17.0 90.0 0  M 90.0 0 100 0" stroke="black" fill="transparent"
                  transform="translate(676.666667 70.666667) rotate (-1.900111 0 0) scale (2.111161 1)"/>
                  <path
                  d=" M 0 0 10.0 0  C 10.000000 -19.000000 20.000000 11.000000 20.000000 0  S 30.0 11.0 30.0 0  S 40.0 -19.0 40.0 0  S 50.0 17.0 50.0 0  S 60.0 -18.0 60.0 0  S 70.0 11.0 70.0 0  S 80.0 -12.0 80.0 0  S 90.0 12.0 90.0 0  M 90.0 0 100 0" stroke="black" fill="transparent"
                  transform="translate(887.666667 63.666667) rotate (37.765849 0 0) scale (0.767427 1)"/>
                  <path
                  d=" M 0 0 10.0 0  C 10.000000 -16.000000 26.000000 14.000000 26.000000 0  S 42.0 12.0 42.0 0  S 58.0 -16.0 58.0 0  S 74.0 15.0 74.0 0  S 90.0 19.0 90.0 0  M 90.0 0 100 0" stroke="black" fill="transparent"
                  transform="translate(951.000000 614.666667) rotate (-69.954751 0 0) scale (0.787718 1)"/>
                  <path
                  d=" M 0 0 10.0 0  C 10.000000 -12.000000 23.333333 15.000000 23.333333 0  S 36.66666666666667 15.0 36.66666666666667 0  S 50.66666666666667 -12.0 50.66666666666667 0  S 64.66666666666667 14.0 64.66666666666667 0  S 78.66666666666667 -16.0 78.66666666666667 0  S 90.0 19.0 90.0 0  M 90.0 0 100 0" stroke="black" fill="transparent"
                  transform="translate(268.666667 970.333333) rotate (-14.686688 0 0) scale (0.854589 1)"/>
                  <path
                  d=" M 0 0 10.0 0  C 10.000000 -12.000000 26.000000 19.000000 26.000000 0  S 42.0 14.0 42.0 0  S 58.0 -14.0 58.0 0  S 74.0 16.0 74.0 0  S 90.0 19.0 90.0 0  M 90.0 0 100 0" stroke="black" fill="transparent"
                  transform="translate(207.333333 976.666667) rotate (-5.895517 0 0) scale (0.616595 1)"/>
                  <path
                  d=" M 0 0 10.0 0  C 10.000000 -18.000000 23.333333 12.000000 23.333333 0  S 36.66666666666667 18.0 36.66666666666667 0  S 50.66666666666667 -11.0 50.66666666666667 0  S 64.66666666666667 19.0 64.66666666666667 0  S 78.66666666666667 -14.0 78.66666666666667 0  S 90.0 10.0 90.0 0  M 90.0 0 100 0" stroke="black" fill="transparent"
                  transform="translate(207.333333 976.666667) rotate (-6.369439 0 0) scale (2.163354 1)"/>
                  <path
                  d=" M 0 0 10.0 0  C 10.000000 -15.000000 23.333333 18.000000 23.333333 0  S 36.66666666666667 15.0 36.66666666666667 0  S 50.66666666666667 -11.0 50.66666666666667 0  S 64.66666666666667 11.0 64.66666666666667 0  S 78.66666666666667 -18.0 78.66666666666667 0  S 90.0 10.0 90.0 0  M 90.0 0 100 0" stroke="black" fill="transparent"
                  transform="translate(82.333333 173.666667) rotate (-63.816068 0 0) scale (0.672326 1)"/>
                  <path
                  d=" M 0 0 10.0 0  C 10.000000 -13.000000 26.000000 12.000000 26.000000 0  S 42.0 16.0 42.0 0  S 58.0 -14.0 58.0 0  S 74.0 17.0 74.0 0  S 90.0 10.0 90.0 0  M 90.0 0 100 0" stroke="black" fill="transparent"
                  transform="translate(112.000000 113.333333) rotate (-29.923930 0 0) scale (0.661522 1)"/>
                  <path
                  d=" M 0 0 10.0 0  C 10.000000 -14.000000 23.333333 14.000000 23.333333 0  S 36.66666666666667 13.0 36.66666666666667 0  S 50.66666666666667 -11.0 50.66666666666667 0  S 64.66666666666667 17.0 64.66666666666667 0  S 78.66666666666667 -17.0 78.66666666666667 0  S 90.0 12.0 90.0 0  M 90.0 0 100 0" stroke="black" fill="transparent"
                  transform="translate(65.000000 321.666667) rotate (-66.620185 0 0) scale (2.629206 1)"/>
                  <path
                  d=" M 0 0 10.0 0  C 10.000000 -13.000000 26.000000 16.000000 26.000000 0  S 42.0 12.0 42.0 0  S 58.0 -13.0 58.0 0  S 74.0 11.0 74.0 0  S 90.0 18.0 90.0 0  M 90.0 0 100 0" stroke="black" fill="transparent"
                  transform="translate(205.666667 930.000000) rotate (32.627845 0 0) scale (0.748049 1)"/>
                  <path
                  d=" M 0 0 10.0 0  C 10.000000 -14.000000 20.000000 18.000000 20.000000 0  S 30.0 16.0 30.0 0  S 40.0 -15.0 40.0 0  S 50.0 15.0 50.0 0  S 60.0 -11.0 60.0 0  S 70.0 11.0 70.0 0  S 80.0 -11.0 80.0 0  S 90.0 11.0 90.0 0  M 90.0 0 100 0" stroke="black" fill="transparent"
                  transform="translate(749.666667 474.666667) rotate (-25.572402 0 0) scale (0.602338 1)"/>
                  <path
                  d=" M 0 0 10.0 0  C 10.000000 -10.000000 26.000000 10.000000 26.000000 0  S 42.0 10.0 42.0 0  S 58.0 -11.0 58.0 0  S 74.0 10.0 74.0 0  S 90.0 16.0 90.0 0  M 90.0 0 100 0" stroke="black" fill="transparent"
                  transform="translate(941.000000 553.333333) rotate (80.739778 0 0) scale (0.621432 1)"/>
                  <path
                  d=" M 0 0 10.0 0  C 10.000000 -17.000000 21.428571 14.000000 21.428571 0  S 32.85714285714286 11.0 32.85714285714286 0  S 44.85714285714286 -10.0 44.85714285714286 0  S 56.85714285714286 13.0 56.85714285714286 0  S 68.85714285714286 -19.0 68.85714285714286 0  S 80.85714285714286 16.0 80.85714285714286 0  S 90.0 14.0 90.0 0  M 90.0 0 100 0" stroke="black" fill="transparent"
                  transform="translate(968.000000 479.333333) rotate (80.739778 0 0) scale (0.621432 1)"/>
                  <path
                  d=" M 0 0 10.0 0  C 10.000000 -19.000000 21.428571 17.000000 21.428571 0  S 32.85714285714286 19.0 32.85714285714286 0  S 44.85714285714286 -15.0 44.85714285714286 0  S 56.85714285714286 14.0 56.85714285714286 0  S 68.85714285714286 -15.0 68.85714285714286 0  S 80.85714285714286 15.0 80.85714285714286 0  S 90.0 19.0 90.0 0  M 90.0 0 100 0" stroke="black" fill="transparent"
                  transform="translate(810.666667 601.666667) rotate (54.372093 0 0) scale (0.492116 1)"/>
                  <path
                  d=" M 0 0 10.0 0  C 10.000000 -14.000000 20.000000 17.000000 20.000000 0  S 30.0 19.0 30.0 0  S 40.0 -18.0 40.0 0  S 50.0 18.0 50.0 0  S 60.0 -11.0 60.0 0  S 70.0 19.0 70.0 0  S 80.0 -14.0 80.0 0  S 90.0 15.0 90.0 0  M 90.0 0 100 0" stroke="black" fill="transparent"
                  transform="translate(781.666667 741.333333) rotate (-39.732303 0 0) scale (0.667499 1)"/>
                  <path
                  d=" M 0 0 10.0 0  C 10.000000 -17.000000 26.000000 11.000000 26.000000 0  S 42.0 11.0 42.0 0  S 58.0 -19.0 58.0 0  S 74.0 15.0 74.0 0  S 90.0 10.0 90.0 0  M 90.0 0 100 0" stroke="black" fill="transparent"
                  transform="translate(911.333333 838.000000) rotate (69.702430 0 0) scale (0.778332 1)"/>
                  <path
                  d=" M 0 0 10.0 0  C 10.000000 -10.000000 20.000000 16.000000 20.000000 0  S 30.0 14.0 30.0 0  S 40.0 -14.0 40.0 0  S 50.0 14.0 50.0 0  S 60.0 -14.0 60.0 0  S 70.0 11.0 70.0 0  S 80.0 -19.0 80.0 0  S 90.0 11.0 90.0 0  M 90.0 0 100 0" stroke="black" fill="transparent"
                  transform="translate(911.333333 838.000000) rotate (-44.427061 0 0) scale (0.471428 1)"/>
                  <path
                  d=" M 0 0 10.0 0  C 10.000000 -17.000000 23.333333 17.000000 23.333333 0  S 36.66666666666667 11.0 36.66666666666667 0  S 50.66666666666667 -12.0 50.66666666666667 0  S 64.66666666666667 16.0 64.66666666666667 0  S 78.66666666666667 -19.0 78.66666666666667 0  S 90.0 10.0 90.0 0  M 90.0 0 100 0" stroke="black" fill="transparent"
                  transform="translate(938.333333 911.000000) rotate (-86.401232 0 0) scale (1.062094 1)"/>
                  <path
                  d=" M 0 0 10.0 0  C 10.000000 -12.000000 23.333333 18.000000 23.333333 0  S 36.66666666666667 19.0 36.66666666666667 0  S 50.66666666666667 -15.0 50.66666666666667 0  S 64.66666666666667 13.0 64.66666666666667 0  S 78.66666666666667 -19.0 78.66666666666667 0  S 90.0 13.0 90.0 0  M 90.0 0 100 0" stroke="black" fill="transparent"
                  transform="translate(945.000000 805.000000) rotate (-88.025066 0 0) scale (0.677069 1)"/>
                  <path
                  d=" M 0 0 10.0 0  C 10.000000 -15.000000 23.333333 19.000000 23.333333 0  S 36.66666666666667 11.0 36.66666666666667 0  S 50.66666666666667 -19.0 50.66666666666667 0  S 64.66666666666667 12.0 64.66666666666667 0  S 78.66666666666667 -15.0 78.66666666666667 0  S 90.0 11.0 90.0 0  M 90.0 0 100 0" stroke="black" fill="transparent"
                  transform="translate(909.000000 238.666667) rotate (65.224859 0 0) scale (0.715891 1)"/>
                  <path
                  d=" M 0 0 10.0 0  C 10.000000 -12.000000 26.000000 13.000000 26.000000 0  S 42.0 17.0 42.0 0  S 58.0 -14.0 58.0 0  S 74.0 19.0 74.0 0  S 90.0 17.0 90.0 0  M 90.0 0 100 0" stroke="black" fill="transparent"
                  transform="translate(920.666667 341.000000) rotate (-63.845664 0 0) scale (0.415919 1)"/>
                  <path
                  d=" M 0 0 10.0 0  C 10.000000 -15.000000 23.333333 16.000000 23.333333 0  S 36.66666666666667 10.0 36.66666666666667 0  S 50.66666666666667 -11.0 50.66666666666667 0  S 64.66666666666667 15.0 64.66666666666667 0  S 78.66666666666667 -17.0 78.66666666666667 0  S 90.0 16.0 90.0 0  M 90.0 0 100 0" stroke="black" fill="transparent"
                  transform="translate(113.666667 203.666667) rotate (-63.816068 0 0) scale (0.672326 1)"/>
                  <path
                  d=" M 0 0 10.0 0  C 10.000000 -17.000000 21.428571 11.000000 21.428571 0  S 32.85714285714286 13.0 32.85714285714286 0  S 44.85714285714286 -16.0 44.85714285714286 0  S 56.85714285714286 16.0 56.85714285714286 0  S 68.85714285714286 -11.0 68.85714285714286 0  S 80.85714285714286 10.0 80.85714285714286 0  S 90.0 12.0 90.0 0  M 90.0 0 100 0" stroke="black" fill="transparent"
                  transform="translate(112.000000 113.333333) rotate (43.754636 0 0) scale (0.433795 1)"/>
                  <path
                  d=" M 0 0 10.0 0  C 10.000000 -15.000000 20.000000 11.000000 20.000000 0  S 30.0 19.0 30.0 0  S 40.0 -13.0 40.0 0  S 50.0 19.0 50.0 0  S 60.0 -11.0 60.0 0  S 70.0 16.0 70.0 0  S 80.0 -19.0 80.0 0  S 90.0 18.0 90.0 0  M 90.0 0 100 0" stroke="black" fill="transparent"
                  transform="translate(787.333333 887.000000) rotate (50.132554 0 0) scale (0.790415 1)"/>
                  <path
                  d=" M 0 0 10.0 0  C 10.000000 -11.000000 23.333333 11.000000 23.333333 0  S 36.66666666666667 18.0 36.66666666666667 0  S 50.66666666666667 -14.0 50.66666666666667 0  S 64.66666666666667 15.0 64.66666666666667 0  S 78.66666666666667 -17.0 78.66666666666667 0  S 90.0 18.0 90.0 0  M 90.0 0 100 0" stroke="black" fill="transparent"
                  transform="translate(762.333333 977.666667) rotate (-21.627126 0 0) scale (0.813968 1)"/>
                  <path
                  d=" M 0 0 10.0 0  C 10.000000 -18.000000 23.333333 11.000000 23.333333 0  S 36.66666666666667 16.0 36.66666666666667 0  S 50.66666666666667 -15.0 50.66666666666667 0  S 64.66666666666667 15.0 64.66666666666667 0  S 78.66666666666667 -18.0 78.66666666666667 0  S 90.0 11.0 90.0 0  M 90.0 0 100 0" stroke="black" fill="transparent"
                  transform="translate(647.333333 111.000000) rotate (-53.972627 0 0) scale (0.498721 1)"/>
                  <path
                  d=" M 0 0 10.0 0  C 10.000000 -14.000000 21.428571 14.000000 21.428571 0  S 32.85714285714286 15.0 32.85714285714286 0  S 44.85714285714286 -19.0 44.85714285714286 0  S 56.85714285714286 15.0 56.85714285714286 0  S 68.85714285714286 -14.0 68.85714285714286 0  S 80.85714285714286 16.0 80.85714285714286 0  S 90.0 13.0 90.0 0  M 90.0 0 100 0" stroke="black" fill="transparent"
                  transform="translate(647.333333 111.000000) rotate (-4.024228 0 0) scale (0.664973 1)"/>
                  <path
                  d=" M 0 0 10.0 0  C 10.000000 -10.000000 20.000000 15.000000 20.000000 0  S 30.0 11.0 30.0 0  S 40.0 -16.0 40.0 0  S 50.0 19.0 50.0 0  S 60.0 -17.0 60.0 0  S 70.0 19.0 70.0 0  S 80.0 -15.0 80.0 0  S 90.0 17.0 90.0 0  M 90.0 0 100 0" stroke="black" fill="transparent"
                  transform="translate(621.333333 311.333333) rotate (-16.778455 0 0) scale (1.385657 1)"/>
                  <path
                  d=" M 0 0 10.0 0  C 10.000000 -11.000000 26.000000 19.000000 26.000000 0  S 42.0 16.0 42.0 0  S 58.0 -18.0 58.0 0  S 74.0 10.0 74.0 0  S 90.0 18.0 90.0 0  M 90.0 0 100 0" stroke="black" fill="transparent"
                  transform="translate(143.333333 143.333333) rotate (-29.923930 0 0) scale (0.661522 1)"/>
                  <path
                  d=" M 0 0 10.0 0  C 10.000000 -11.000000 21.428571 16.000000 21.428571 0  S 32.85714285714286 15.0 32.85714285714286 0  S 44.85714285714286 -11.0 44.85714285714286 0  S 56.85714285714286 18.0 56.85714285714286 0  S 68.85714285714286 -10.0 68.85714285714286 0  S 80.85714285714286 11.0 80.85714285714286 0  S 90.0 14.0 90.0 0  M 90.0 0 100 0" stroke="black" fill="transparent"
                  transform="translate(583.666667 103.333333) rotate (6.866430 0 0) scale (0.641266 1)"/>
                  <path
                  d=" M 0 0 10.0 0  C 10.000000 -13.000000 21.428571 12.000000 21.428571 0  S 32.85714285714286 14.0 32.85714285714286 0  S 44.85714285714286 -17.0 44.85714285714286 0  S 56.85714285714286 14.0 56.85714285714286 0  S 68.85714285714286 -13.0 68.85714285714286 0  S 80.85714285714286 19.0 80.85714285714286 0  S 90.0 19.0 90.0 0  M 90.0 0 100 0" stroke="black" fill="transparent"
                  transform="translate(114.333333 929.000000) rotate (27.137173 0 0) scale (1.045041 1)"/>
                  <path
                  d=" M 0 0 10.0 0  C 10.000000 -16.000000 26.000000 16.000000 26.000000 0  S 42.0 11.0 42.0 0  S 58.0 -14.0 58.0 0  S 74.0 14.0 74.0 0  S 90.0 19.0 90.0 0  M 90.0 0 100 0" stroke="black" fill="transparent"
                  transform="translate(58.000000 577.666667) rotate (-34.615979 0 0) scale (0.457687 1)"/>
                  <path
                  d=" M 0 0 10.0 0  C 10.000000 -17.000000 23.333333 18.000000 23.333333 0  S 36.66666666666667 11.0 36.66666666666667 0  S 50.66666666666667 -18.0 50.66666666666667 0  S 64.66666666666667 17.0 64.66666666666667 0  S 78.66666666666667 -13.0 78.66666666666667 0  S 90.0 15.0 90.0 0  M 90.0 0 100 0" stroke="black" fill="transparent"
                  transform="translate(58.000000 577.666667) rotate (41.633539 0 0) scale (0.481664 1)"/>
                  <path
                  d=" M 0 0 10.0 0  C 10.000000 -11.000000 23.333333 16.000000 23.333333 0  S 36.66666666666667 10.0 36.66666666666667 0  S 50.66666666666667 -11.0 50.66666666666667 0  S 64.66666666666667 14.0 64.66666666666667 0  S 78.66666666666667 -12.0 78.66666666666667 0  S 90.0 13.0 90.0 0  M 90.0 0 100 0" stroke="black" fill="transparent"
                  transform="translate(438.000000 65.666667) rotate (1.200155 0 0) scale (2.387190 1)"/>
                  <path
                  d=" M 0 0 10.0 0  C 10.000000 -18.000000 23.333333 18.000000 23.333333 0  S 36.66666666666667 19.0 36.66666666666667 0  S 50.66666666666667 -16.0 50.66666666666667 0  S 64.66666666666667 12.0 64.66666666666667 0  S 78.66666666666667 -16.0 78.66666666666667 0  S 90.0 18.0 90.0 0  M 90.0 0 100 0" stroke="black" fill="transparent"
                  transform="translate(489.666667 852.333333) rotate (-61.771224 0 0) scale (0.718826 1)"/>
                  <path
                  d=" M 0 0 10.0 0  C 10.000000 -17.000000 26.000000 11.000000 26.000000 0  S 42.0 11.0 42.0 0  S 58.0 -10.0 58.0 0  S 74.0 13.0 74.0 0  S 90.0 17.0 90.0 0  M 90.0 0 100 0" stroke="black" fill="transparent"
                  transform="translate(489.666667 852.333333) rotate (77.334936 0 0) scale (0.608130 1)"/>
                  <path
                  d=" M 0 0 10.0 0  C 10.000000 -14.000000 20.000000 10.000000 20.000000 0  S 30.0 15.0 30.0 0  S 40.0 -13.0 40.0 0  S 50.0 19.0 50.0 0  S 60.0 -17.0 60.0 0  S 70.0 11.0 70.0 0  S 80.0 -11.0 80.0 0  S 90.0 11.0 90.0 0  M 90.0 0 100 0" stroke="black" fill="transparent"
                  transform="translate(910.666667 640.666667) rotate (-32.806966 0 0) scale (0.479873 1)"/>
                  <path
                  d=" M 0 0 10.0 0  C 10.000000 -15.000000 21.428571 19.000000 21.428571 0  S 32.85714285714286 19.0 32.85714285714286 0  S 44.85714285714286 -11.0 44.85714285714286 0  S 56.85714285714286 15.0 56.85714285714286 0  S 68.85714285714286 -14.0 68.85714285714286 0  S 80.85714285714286 13.0 80.85714285714286 0  S 90.0 10.0 90.0 0  M 90.0 0 100 0" stroke="black" fill="transparent"
                  transform="translate(817.666667 818.666667) rotate (11.662397 0 0) scale (0.956411 1)"/>
                  <path
                  d=" M 0 0 10.0 0  C 10.000000 -15.000000 23.333333 18.000000 23.333333 0  S 36.66666666666667 17.0 36.66666666666667 0  S 50.66666666666667 -13.0 50.66666666666667 0  S 64.66666666666667 16.0 64.66666666666667 0  S 78.66666666666667 -15.0 78.66666666666667 0  S 90.0 11.0 90.0 0  M 90.0 0 100 0" stroke="black" fill="transparent"
                  transform="translate(838.000000 947.666667) rotate (4.653352 0 0) scale (0.575229 1)"/>
                  <path
                  d=" M 0 0 10.0 0  C 10.000000 -19.000000 20.000000 17.000000 20.000000 0  S 30.0 19.0 30.0 0  S 40.0 -16.0 40.0 0  S 50.0 18.0 50.0 0  S 60.0 -11.0 60.0 0  S 70.0 14.0 70.0 0  S 80.0 -12.0 80.0 0  S 90.0 12.0 90.0 0  M 90.0 0 100 0" stroke="black" fill="transparent"
                  transform="translate(169.333333 80.333333) rotate (43.754636 0 0) scale (0.433795 1)"/>
                  <path
                  d=" M 0 0 10.0 0  C 10.000000 -15.000000 26.000000 19.000000 26.000000 0  S 42.0 11.0 42.0 0  S 58.0 -18.0 58.0 0  S 74.0 11.0 74.0 0  S 90.0 17.0 90.0 0  M 90.0 0 100 0" stroke="black" fill="transparent"
                  transform="translate(904.333333 697.666667) rotate (42.690937 0 0) scale (0.585017 1)"/>
                  <path
                  d=" M 0 0 10.0 0  C 10.000000 -12.000000 23.333333 10.000000 23.333333 0  S 36.66666666666667 12.0 36.66666666666667 0  S 50.66666666666667 -19.0 50.66666666666667 0  S 64.66666666666667 19.0 64.66666666666667 0  S 78.66666666666667 -14.0 78.66666666666667 0  S 90.0 12.0 90.0 0  M 90.0 0 100 0" stroke="black" fill="transparent"
                  transform="translate(437.666667 856.000000) rotate (-4.033411 0 0) scale (0.521291 1)"/>
                  <path
                  d=" M 0 0 10.0 0  C 10.000000 -18.000000 20.000000 10.000000 20.000000 0  S 30.0 13.0 30.0 0  S 40.0 -19.0 40.0 0  S 50.0 10.0 50.0 0  S 60.0 -10.0 60.0 0  S 70.0 17.0 70.0 0  S 80.0 -16.0 80.0 0  S 90.0 12.0 90.0 0  M 90.0 0 100 0" stroke="black" fill="transparent"
                  transform="translate(939.000000 303.666667) rotate (-48.576334 0 0) scale (0.377859 1)"/>
                  <path
                  d=" M 0 0 10.0 0  C 10.000000 -17.000000 21.428571 14.000000 21.428571 0  S 32.85714285714286 16.0 32.85714285714286 0  S 44.85714285714286 -15.0 44.85714285714286 0  S 56.85714285714286 12.0 56.85714285714286 0  S 68.85714285714286 -12.0 68.85714285714286 0  S 80.85714285714286 16.0 80.85714285714286 0  S 90.0 17.0 90.0 0  M 90.0 0 100 0" stroke="black" fill="transparent"
                  transform="translate(976.666667 209.000000) rotate (89.769666 0 0) scale (3.316693 1)"/>
                  <ellipse
      cx="400.00"
      cy="400.00"
      rx="100"
      ry="100"
      stroke="#fc8d62"
      stroke-width="1"
      fill="transparent"
    /><ellipse
      cx="700.00"
      cy="800.00"
      rx="50"
      ry="50"
      stroke="#fc8d62"
      stroke-width="1"
      fill="transparent"
    /><path
                  d=" M 0 0 10.0 0  C 10.000000 -17.000000 21.428571 14.000000 21.428571 0  S 32.85714285714286 15.0 32.85714285714286 0  S 44.85714285714286 -15.0 44.85714285714286 0  S 56.85714285714286 10.0 56.85714285714286 0  S 68.85714285714286 -10.0 68.85714285714286 0  S 80.85714285714286 17.0 80.85714285714286 0  S 90.0 12.0 90.0 0  M 90.0 0 100 0" stroke="black" fill="transparent"
                  transform="translate(500.000000 400.000000) rotate (20.122389 0 0) scale (1.288660 1)"/>
                  <path
                  d=" M 0 0 10.0 0  C 10.000000 -15.000000 21.428571 10.000000 21.428571 0  S 32.85714285714286 16.0 32.85714285714286 0  S 44.85714285714286 -16.0 44.85714285714286 0  S 56.85714285714286 16.0 56.85714285714286 0  S 68.85714285714286 -13.0 68.85714285714286 0  S 80.85714285714286 17.0 80.85714285714286 0  S 90.0 16.0 90.0 0  M 90.0 0 100 0" stroke="black" fill="transparent"
                  transform="translate(300.000000 400.000000) rotate (147.798466 0 0) scale (1.032091 1)"/>
                  <path
                  d=" M 0 0 10.0 0  C 10.000000 -11.000000 23.333333 10.000000 23.333333 0  S 36.66666666666667 11.0 36.66666666666667 0  S 50.66666666666667 -11.0 50.66666666666667 0  S 64.66666666666667 15.0 64.66666666666667 0  S 78.66666666666667 -18.0 78.66666666666667 0  S 90.0 17.0 90.0 0  M 90.0 0 100 0" stroke="black" fill="transparent"
                  transform="translate(400.000000 300.000000) rotate (-86.556555 0 0) scale (1.165437 1)"/>
                  <path
                  d=" M 0 0 10.0 0  C 10.000000 -13.000000 20.000000 10.000000 20.000000 0  S 30.0 13.0 30.0 0  S 40.0 -19.0 40.0 0  S 50.0 12.0 50.0 0  S 60.0 -12.0 60.0 0  S 70.0 11.0 70.0 0  S 80.0 -19.0 80.0 0  S 90.0 16.0 90.0 0  M 90.0 0 100 0" stroke="black" fill="transparent"
                  transform="translate(400.000000 500.000000) rotate (68.983415 0 0) scale (1.310513 1)"/>
                  <path
                  d=" M 0 0 10.0 0  C 10.000000 -15.000000 23.333333 16.000000 23.333333 0  S 36.66666666666667 11.0 36.66666666666667 0  S 50.66666666666667 -17.0 50.66666666666667 0  S 64.66666666666667 10.0 64.66666666666667 0  S 78.66666666666667 -16.0 78.66666666666667 0  S 90.0 12.0 90.0 0  M 90.0 0 100 0" stroke="black" fill="transparent"
                  transform="translate(700.000000 750.000000) rotate (-122.585707 0 0) scale (0.383739 1)"/>
                  <path
                  d=" M 0 0 10.0 0  C 10.000000 -12.000000 21.428571 10.000000 21.428571 0  S 32.85714285714286 10.0 32.85714285714286 0  S 44.85714285714286 -10.0 44.85714285714286 0  S 56.85714285714286 14.0 56.85714285714286 0  S 68.85714285714286 -19.0 68.85714285714286 0  S 80.85714285714286 13.0 80.85714285714286 0  S 90.0 18.0 90.0 0  M 90.0 0 100 0" stroke="black" fill="transparent"
                  transform="translate(700.000000 850.000000) rotate (80.122164 0 0) scale (0.680082 1)"/>
                  <path
                  d=" M 0 0 10.0 0  C 10.000000 -17.000000 26.000000 15.000000 26.000000 0  S 42.0 18.0 42.0 0  S 58.0 -13.0 58.0 0  S 74.0 12.0 74.0 0  S 90.0 11.0 90.0 0  M 90.0 0 100 0" stroke="black" fill="transparent"
                  transform="translate(650.000000 800.000000) rotate (-171.747471 0 0) scale (0.441236 1)"/>
                  <path
                  d=" M 0 0 10.0 0  C 10.000000 -15.000000 26.000000 14.000000 26.000000 0  S 42.0 16.0 42.0 0  S 58.0 -13.0 58.0 0  S 74.0 13.0 74.0 0  S 90.0 12.0 90.0 0  M 90.0 0 100 0" stroke="black" fill="transparent"
                  transform="translate(750.000000 800.000000) rotate (-61.641037 0 0) scale (0.666675 1)"/>
                  
</svg>
