<svg xmlns="http://www.w3.org/2000/svg"
  xmlns:xlink="http://www.w3.org/1999/xlink"
  width="500" height="500">
<line x1="83.33" y1="83.33" x2="83.33" y2="83.33"
      stroke-width="2" stroke="blue"/><line x1="83.33" y1="183.33" x2="116.67" y2="116.67"
      stroke-width="2" stroke="blue"/><line x1="83.33" y1="83.33" x2="116.67" y2="116.67"
      stroke-width="2" stroke="blue"/><line x1="83.33" y1="83.33" x2="83.33" y2="183.33"
      stroke-width="2" stroke="blue"/><line x1="83.33" y1="183.33" x2="116.67" y2="216.67"
      stroke-width="2" stroke="blue"/><line x1="83.33" y1="283.33" x2="116.67" y2="316.67"
      stroke-width="2" stroke="blue"/><line x1="116.67" y1="116.67" x2="183.33" y2="83.33"
      stroke-width="2" stroke="blue"/><line x1="83.33" y1="83.33" x2="183.33" y2="83.33"
      stroke-width="2" stroke="blue"/><line x1="183.33" y1="83.33" x2="216.67" y2="116.67"
      stroke-width="2" stroke="blue"/><line x1="183.33" y1="183.33" x2="216.67" y2="116.67"
      stroke-width="2" stroke="blue"/><line x1="116.67" y1="216.67" x2="183.33" y2="183.33"
      stroke-width="2" stroke="blue"/><line x1="183.33" y1="183.33" x2="216.67" y2="216.67"
      stroke-width="2" stroke="blue"/><line x1="183.33" y1="283.33" x2="216.67" y2="216.67"
      stroke-width="2" stroke="blue"/><line x1="116.67" y1="316.67" x2="183.33" y2="283.33"
      stroke-width="2" stroke="blue"/><line x1="83.33" y1="283.33" x2="116.67" y2="216.67"
      stroke-width="2" stroke="blue"/><line x1="183.33" y1="283.33" x2="216.67" y2="316.67"
      stroke-width="2" stroke="blue"/><line x1="116.67" y1="316.67" x2="216.67" y2="316.67"
      stroke-width="2" stroke="blue"/><line x1="283.33" y1="183.33" x2="316.67" y2="116.67"
      stroke-width="2" stroke="blue"/><line x1="283.33" y1="83.33" x2="316.67" y2="116.67"
      stroke-width="2" stroke="blue"/><line x1="216.67" y1="116.67" x2="283.33" y2="83.33"
      stroke-width="2" stroke="blue"/><line x1="216.67" y1="216.67" x2="283.33" y2="183.33"
      stroke-width="2" stroke="blue"/><line x1="283.33" y1="283.33" x2="316.67" y2="216.67"
      stroke-width="2" stroke="blue"/><line x1="283.33" y1="183.33" x2="316.67" y2="216.67"
      stroke-width="2" stroke="blue"/><line x1="216.67" y1="316.67" x2="283.33" y2="283.33"
      stroke-width="2" stroke="blue"/><line x1="283.33" y1="283.33" x2="316.67" y2="316.67"
      stroke-width="2" stroke="blue"/><line x1="216.67" y1="316.67" x2="316.67" y2="316.67"
      stroke-width="2" stroke="blue"/><line x1="316.67" y1="216.67" x2="316.67" y2="316.67"
      stroke-width="2" stroke="blue"/><line x1="316.67" y1="316.67" x2="316.67" y2="316.67"
      stroke-width="2" stroke="blue"/><ellipse
      cx="50.00"
      cy="50.00"
      rx="1"
      ry="1"
      stroke="#fc8d62"
      stroke-width="4"
    /><ellipse
      cx="50.00"
      cy="150.00"
      rx="1"
      ry="1"
      stroke="#fc8d62"
      stroke-width="4"
    /><ellipse
      cx="50.00"
      cy="250.00"
      rx="1"
      ry="1"
      stroke="#fc8d62"
      stroke-width="4"
    /><ellipse
      cx="50.00"
      cy="350.00"
      rx="1"
      ry="1"
      stroke="#fc8d62"
      stroke-width="4"
    /><ellipse
      cx="150.00"
      cy="50.00"
      rx="1"
      ry="1"
      stroke="#fc8d62"
      stroke-width="4"
    /><ellipse
      cx="150.00"
      cy="150.00"
      rx="1"
      ry="1"
      stroke="#fc8d62"
      stroke-width="4"
    /><ellipse
      cx="150.00"
      cy="250.00"
      rx="1"
      ry="1"
      stroke="#fc8d62"
      stroke-width="4"
    /><ellipse
      cx="150.00"
      cy="350.00"
      rx="1"
      ry="1"
      stroke="#fc8d62"
      stroke-width="4"
    /><ellipse
      cx="250.00"
      cy="50.00"
      rx="1"
      ry="1"
      stroke="#fc8d62"
      stroke-width="4"
    /><ellipse
      cx="250.00"
      cy="150.00"
      rx="1"
      ry="1"
      stroke="#fc8d62"
      stroke-width="4"
    /><ellipse
      cx="250.00"
      cy="250.00"
      rx="1"
      ry="1"
      stroke="#fc8d62"
      stroke-width="4"
    /><ellipse
      cx="250.00"
      cy="350.00"
      rx="1"
      ry="1"
      stroke="#fc8d62"
      stroke-width="4"
    /><ellipse
      cx="350.00"
      cy="50.00"
      rx="1"
      ry="1"
      stroke="#fc8d62"
      stroke-width="4"
    /><ellipse
      cx="350.00"
      cy="150.00"
      rx="1"
      ry="1"
      stroke="#fc8d62"
      stroke-width="4"
    /><ellipse
      cx="350.00"
      cy="250.00"
      rx="1"
      ry="1"
      stroke="#fc8d62"
      stroke-width="4"
    /><ellipse
      cx="350.00"
      cy="350.00"
      rx="1"
      ry="1"
      stroke="#fc8d62"
      stroke-width="4"
    />
</svg>
