<svg xmlns="http://www.w3.org/2000/svg"
  xmlns:xlink="http://www.w3.org/1999/xlink"
  width="1000" height="1000">
<path
                  d=" M 0 0 10.0 0  C 10.000000 -16.000000 26.000000 14.000000 26.000000 0  S 42.0 15.0 42.0 0  S 58.0 -15.0 58.0 0  S 74.0 15.0 74.0 0  S 90.0 17.0 90.0 0  M 90.0 0 100 0" stroke="black" fill="transparent"
                  transform="translate(284.333333 278.000000) rotate (-34.168972 0 0) scale (1.216685 1)"/>
                  <path
                  d=" M 0 0 10.0 0  C 10.000000 -16.000000 20.000000 12.000000 20.000000 0  S 30.0 19.0 30.0 0  S 40.0 -13.0 40.0 0  S 50.0 14.0 50.0 0  S 60.0 -17.0 60.0 0  S 70.0 17.0 70.0 0  S 80.0 -13.0 80.0 0  S 90.0 17.0 90.0 0  M 90.0 0 100 0" stroke="black" fill="transparent"
                  transform="translate(385.000000 209.666667) rotate (0.000000 0 0) scale (1.016667 1)"/>
                  <path
                  d=" M 0 0 10.0 0  C 10.000000 -19.000000 20.000000 18.000000 20.000000 0  S 30.0 19.0 30.0 0  S 40.0 -15.0 40.0 0  S 50.0 12.0 50.0 0  S 60.0 -13.0 60.0 0  S 70.0 18.0 70.0 0  S 80.0 -13.0 80.0 0  S 90.0 11.0 90.0 0  M 90.0 0 100 0" stroke="black" fill="transparent"
                  transform="translate(486.666667 209.666667) rotate (43.876697 0 0) scale (0.961850 1)"/>
                  <path
                  d=" M 0 0 10.0 0  C 10.000000 -19.000000 20.000000 11.000000 20.000000 0  S 30.0 10.0 30.0 0  S 40.0 -19.0 40.0 0  S 50.0 19.0 50.0 0  S 60.0 -17.0 60.0 0  S 70.0 19.0 70.0 0  S 80.0 -16.0 80.0 0  S 90.0 10.0 90.0 0  M 90.0 0 100 0" stroke="black" fill="transparent"
                  transform="translate(556.000000 276.333333) rotate (67.319440 0 0) scale (0.726154 1)"/>
                  <path
                  d=" M 0 0 10.0 0  C 10.000000 -11.000000 23.333333 19.000000 23.333333 0  S 36.66666666666667 17.0 36.66666666666667 0  S 50.66666666666667 -12.0 50.66666666666667 0  S 64.66666666666667 11.0 64.66666666666667 0  S 78.66666666666667 -12.0 78.66666666666667 0  S 90.0 19.0 90.0 0  M 90.0 0 100 0" stroke="black" fill="transparent"
                  transform="translate(582.000000 402.333333) rotate (-88.058514 0 0) scale (0.590339 1)"/>
                  <path
                  d=" M 0 0 10.0 0  C 10.000000 -14.000000 21.428571 12.000000 21.428571 0  S 32.85714285714286 18.0 32.85714285714286 0  S 44.85714285714286 -15.0 44.85714285714286 0  S 56.85714285714286 13.0 56.85714285714286 0  S 68.85714285714286 -16.0 68.85714285714286 0  S 80.85714285714286 17.0 80.85714285714286 0  S 90.0 10.0 90.0 0  M 90.0 0 100 0" stroke="black" fill="transparent"
                  transform="translate(553.666667 474.333333) rotate (-68.519444 0 0) scale (0.773743 1)"/>
                  <path
                  d=" M 0 0 10.0 0  C 10.000000 -19.000000 20.000000 19.000000 20.000000 0  S 30.0 11.0 30.0 0  S 40.0 -13.0 40.0 0  S 50.0 13.0 50.0 0  S 60.0 -17.0 60.0 0  S 70.0 14.0 70.0 0  S 80.0 -12.0 80.0 0  S 90.0 15.0 90.0 0  M 90.0 0 100 0" stroke="black" fill="transparent"
                  transform="translate(495.000000 542.000000) rotate (-49.074873 0 0) scale (0.895576 1)"/>
                  <path
                  d=" M 0 0 10.0 0  C 10.000000 -18.000000 23.333333 12.000000 23.333333 0  S 36.66666666666667 17.0 36.66666666666667 0  S 50.66666666666667 -19.0 50.66666666666667 0  S 64.66666666666667 11.0 64.66666666666667 0  S 78.66666666666667 -19.0 78.66666666666667 0  S 90.0 13.0 90.0 0  M 90.0 0 100 0" stroke="black" fill="transparent"
                  transform="translate(419.666667 570.333333) rotate (-20.611591 0 0) scale (0.804853 1)"/>
                  <path
                  d=" M 0 0 10.0 0  C 10.000000 -11.000000 26.000000 18.000000 26.000000 0  S 42.0 12.0 42.0 0  S 58.0 -18.0 58.0 0  S 74.0 12.0 74.0 0  S 90.0 10.0 90.0 0  M 90.0 0 100 0" stroke="black" fill="transparent"
                  transform="translate(320.333333 537.000000) rotate (18.550232 0 0) scale (1.047770 1)"/>
                  <path
                  d=" M 0 0 10.0 0  C 10.000000 -18.000000 26.000000 11.000000 26.000000 0  S 42.0 15.0 42.0 0  S 58.0 -17.0 58.0 0  S 74.0 19.0 74.0 0  S 90.0 19.0 90.0 0  M 90.0 0 100 0" stroke="black" fill="transparent"
                  transform="translate(252.000000 413.666667) rotate (61.011177 0 0) scale (1.409984 1)"/>
                  <path
                  d=" M 0 0 10.0 0  C 10.000000 -17.000000 21.428571 19.000000 21.428571 0  S 32.85714285714286 19.0 32.85714285714286 0  S 44.85714285714286 -18.0 44.85714285714286 0  S 56.85714285714286 10.0 56.85714285714286 0  S 68.85714285714286 -14.0 68.85714285714286 0  S 80.85714285714286 18.0 80.85714285714286 0  S 90.0 13.0 90.0 0  M 90.0 0 100 0" stroke="black" fill="transparent"
                  transform="translate(252.000000 413.666667) rotate (-76.594815 0 0) scale (1.394664 1)"/>
                  <path
                  d=" M 0 0 10.0 0  C 10.000000 -16.000000 20.000000 10.000000 20.000000 0  S 30.0 13.0 30.0 0  S 40.0 -12.0 40.0 0  S 50.0 10.0 50.0 0  S 60.0 -12.0 60.0 0  S 70.0 18.0 70.0 0  S 80.0 -10.0 80.0 0  S 90.0 15.0 90.0 0  M 90.0 0 100 0" stroke="black" fill="transparent"
                  transform="translate(549.666667 813.000000) rotate (-59.036243 0 0) scale (0.796897 1)"/>
                  <path
                  d=" M 0 0 10.0 0  C 10.000000 -11.000000 23.333333 10.000000 23.333333 0  S 36.66666666666667 16.0 36.66666666666667 0  S 50.66666666666667 -13.0 50.66666666666667 0  S 64.66666666666667 13.0 64.66666666666667 0  S 78.66666666666667 -13.0 78.66666666666667 0  S 90.0 14.0 90.0 0  M 90.0 0 100 0" stroke="black" fill="transparent"
                  transform="translate(590.666667 744.666667) rotate (-46.745315 0 0) scale (0.851280 1)"/>
                  <path
                  d=" M 0 0 10.0 0  C 10.000000 -13.000000 23.333333 14.000000 23.333333 0  S 36.66666666666667 13.0 36.66666666666667 0  S 50.66666666666667 -13.0 50.66666666666667 0  S 64.66666666666667 14.0 64.66666666666667 0  S 78.66666666666667 -15.0 78.66666666666667 0  S 90.0 16.0 90.0 0  M 90.0 0 100 0" stroke="black" fill="transparent"
                  transform="translate(649.000000 682.666667) rotate (-27.341019 0 0) scale (0.660446 1)"/>
                  <path
                  d=" M 0 0 10.0 0  C 10.000000 -15.000000 20.000000 15.000000 20.000000 0  S 30.0 15.0 30.0 0  S 40.0 -11.0 40.0 0  S 50.0 17.0 50.0 0  S 60.0 -13.0 60.0 0  S 70.0 16.0 70.0 0  S 80.0 -10.0 80.0 0  S 90.0 13.0 90.0 0  M 90.0 0 100 0" stroke="black" fill="transparent"
                  transform="translate(707.666667 652.333333) rotate (21.519761 0 0) scale (0.881445 1)"/>
                  <path
                  d=" M 0 0 10.0 0  C 10.000000 -13.000000 26.000000 11.000000 26.000000 0  S 42.0 19.0 42.0 0  S 58.0 -14.0 58.0 0  S 74.0 15.0 74.0 0  S 90.0 13.0 90.0 0  M 90.0 0 100 0" stroke="black" fill="transparent"
                  transform="translate(789.666667 684.666667) rotate (63.121860 0 0) scale (0.818413 1)"/>
                  <path
                  d=" M 0 0 10.0 0  C 10.000000 -13.000000 23.333333 17.000000 23.333333 0  S 36.66666666666667 11.0 36.66666666666667 0  S 50.66666666666667 -17.0 50.66666666666667 0  S 64.66666666666667 18.0 64.66666666666667 0  S 78.66666666666667 -19.0 78.66666666666667 0  S 90.0 15.0 90.0 0  M 90.0 0 100 0" stroke="black" fill="transparent"
                  transform="translate(811.333333 814.000000) rotate (-74.773572 0 0) scale (0.583828 1)"/>
                  <path
                  d=" M 0 0 10.0 0  C 10.000000 -19.000000 26.000000 12.000000 26.000000 0  S 42.0 11.0 42.0 0  S 58.0 -13.0 58.0 0  S 74.0 19.0 74.0 0  S 90.0 17.0 90.0 0  M 90.0 0 100 0" stroke="black" fill="transparent"
                  transform="translate(780.000000 871.666667) rotate (-61.482440 0 0) scale (0.656294 1)"/>
                  <path
                  d=" M 0 0 10.0 0  C 10.000000 -14.000000 21.428571 17.000000 21.428571 0  S 32.85714285714286 17.0 32.85714285714286 0  S 44.85714285714286 -15.0 44.85714285714286 0  S 56.85714285714286 12.0 56.85714285714286 0  S 68.85714285714286 -17.0 68.85714285714286 0  S 80.85714285714286 13.0 80.85714285714286 0  S 90.0 11.0 90.0 0  M 90.0 0 100 0" stroke="black" fill="transparent"
                  transform="translate(722.666667 914.333333) rotate (-36.656108 0 0) scale (0.714672 1)"/>
                  <path
                  d=" M 0 0 10.0 0  C 10.000000 -13.000000 26.000000 12.000000 26.000000 0  S 42.0 12.0 42.0 0  S 58.0 -12.0 58.0 0  S 74.0 18.0 74.0 0  S 90.0 16.0 90.0 0  M 90.0 0 100 0" stroke="black" fill="transparent"
                  transform="translate(658.666667 924.333333) rotate (-8.880659 0 0) scale (0.647765 1)"/>
                  <path
                  d=" M 0 0 10.0 0  C 10.000000 -19.000000 20.000000 10.000000 20.000000 0  S 30.0 17.0 30.0 0  S 40.0 -11.0 40.0 0  S 50.0 11.0 50.0 0  S 60.0 -13.0 60.0 0  S 70.0 12.0 70.0 0  S 80.0 -12.0 80.0 0  S 90.0 11.0 90.0 0  M 90.0 0 100 0" stroke="black" fill="transparent"
                  transform="translate(588.666667 887.333333) rotate (27.859651 0 0) scale (0.791770 1)"/>
                  <path
                  d=" M 0 0 10.0 0  C 10.000000 -17.000000 26.000000 10.000000 26.000000 0  S 42.0 16.0 42.0 0  S 58.0 -18.0 58.0 0  S 74.0 10.0 74.0 0  S 90.0 15.0 90.0 0  M 90.0 0 100 0" stroke="black" fill="transparent"
                  transform="translate(549.666667 813.000000) rotate (62.315636 0 0) scale (0.839431 1)"/>
                  <path
                  d=" M 0 0 10.0 0  C 10.000000 -12.000000 21.428571 18.000000 21.428571 0  S 32.85714285714286 18.0 32.85714285714286 0  S 44.85714285714286 -16.0 44.85714285714286 0  S 56.85714285714286 15.0 56.85714285714286 0  S 68.85714285714286 -16.0 68.85714285714286 0  S 80.85714285714286 16.0 80.85714285714286 0  S 90.0 19.0 90.0 0  M 90.0 0 100 0" stroke="black" fill="transparent"
                  transform="translate(789.666667 684.666667) rotate (-50.099842 0 0) scale (1.034113 1)"/>
                  <path
                  d=" M 0 0 10.0 0  C 10.000000 -12.000000 23.333333 16.000000 23.333333 0  S 36.66666666666667 12.0 36.66666666666667 0  S 50.66666666666667 -17.0 50.66666666666667 0  S 64.66666666666667 18.0 64.66666666666667 0  S 78.66666666666667 -19.0 78.66666666666667 0  S 90.0 19.0 90.0 0  M 90.0 0 100 0" stroke="black" fill="transparent"
                  transform="translate(819.000000 533.666667) rotate (62.693640 0 0) scale (0.806543 1)"/>
                  <path
                  d=" M 0 0 10.0 0  C 10.000000 -13.000000 23.333333 19.000000 23.333333 0  S 36.66666666666667 16.0 36.66666666666667 0  S 50.66666666666667 -19.0 50.66666666666667 0  S 64.66666666666667 13.0 64.66666666666667 0  S 78.66666666666667 -16.0 78.66666666666667 0  S 90.0 16.0 90.0 0  M 90.0 0 100 0" stroke="black" fill="transparent"
                  transform="translate(741.666667 498.000000) rotate (24.759477 0 0) scale (0.851619 1)"/>
                  <path
                  d=" M 0 0 10.0 0  C 10.000000 -10.000000 20.000000 12.000000 20.000000 0  S 30.0 12.0 30.0 0  S 40.0 -10.0 40.0 0  S 50.0 11.0 50.0 0  S 60.0 -10.0 60.0 0  S 70.0 11.0 70.0 0  S 80.0 -14.0 80.0 0  S 90.0 15.0 90.0 0  M 90.0 0 100 0" stroke="black" fill="transparent"
                  transform="translate(696.666667 537.333333) rotate (-41.155864 0 0) scale (0.597671 1)"/>
                  <path
                  d=" M 0 0 10.0 0  C 10.000000 -16.000000 23.333333 18.000000 23.333333 0  S 36.66666666666667 14.0 36.66666666666667 0  S 50.66666666666667 -17.0 50.66666666666667 0  S 64.66666666666667 19.0 64.66666666666667 0  S 78.66666666666667 -13.0 78.66666666666667 0  S 90.0 19.0 90.0 0  M 90.0 0 100 0" stroke="black" fill="transparent"
                  transform="translate(696.666667 537.333333) rotate (84.536157 0 0) scale (1.155249 1)"/>
                  <path
                  d=" M 0 0 10.0 0  C 10.000000 -10.000000 26.000000 10.000000 26.000000 0  S 42.0 15.0 42.0 0  S 58.0 -15.0 58.0 0  S 74.0 11.0 74.0 0  S 90.0 10.0 90.0 0  M 90.0 0 100 0" stroke="black" fill="transparent"
                  transform="translate(199.000000 109.000000) rotate (-35.277376 0 0) scale (0.767630 1)"/>
                  <path
                  d=" M 0 0 10.0 0  C 10.000000 -14.000000 26.000000 17.000000 26.000000 0  S 42.0 18.0 42.0 0  S 58.0 -19.0 58.0 0  S 74.0 16.0 74.0 0  S 90.0 14.0 90.0 0  M 90.0 0 100 0" stroke="black" fill="transparent"
                  transform="translate(137.666667 96.666667) rotate (11.369803 0 0) scale (0.625611 1)"/>
                  <path
                  d=" M 0 0 10.0 0  C 10.000000 -10.000000 23.333333 17.000000 23.333333 0  S 36.66666666666667 18.0 36.66666666666667 0  S 50.66666666666667 -10.0 50.66666666666667 0  S 64.66666666666667 11.0 64.66666666666667 0  S 78.66666666666667 -17.0 78.66666666666667 0  S 90.0 16.0 90.0 0  M 90.0 0 100 0" stroke="black" fill="transparent"
                  transform="translate(137.666667 96.666667) rotate (-14.470294 0 0) scale (1.280625 1)"/>
                  <path
                  d=" M 0 0 10.0 0  C 10.000000 -14.000000 21.428571 18.000000 21.428571 0  S 32.85714285714286 12.0 32.85714285714286 0  S 44.85714285714286 -16.0 44.85714285714286 0  S 56.85714285714286 17.0 56.85714285714286 0  S 68.85714285714286 -13.0 68.85714285714286 0  S 80.85714285714286 16.0 80.85714285714286 0  S 90.0 17.0 90.0 0  M 90.0 0 100 0" stroke="black" fill="transparent"
                  transform="translate(556.000000 276.333333) rotate (-36.436784 0 0) scale (1.234702 1)"/>
                  <path
                  d=" M 0 0 10.0 0  C 10.000000 -14.000000 21.428571 19.000000 21.428571 0  S 32.85714285714286 15.0 32.85714285714286 0  S 44.85714285714286 -14.0 44.85714285714286 0  S 56.85714285714286 17.0 56.85714285714286 0  S 68.85714285714286 -18.0 68.85714285714286 0  S 80.85714285714286 17.0 80.85714285714286 0  S 90.0 11.0 90.0 0  M 90.0 0 100 0" stroke="black" fill="transparent"
                  transform="translate(655.333333 203.000000) rotate (36.008753 0 0) scale (0.754085 1)"/>
                  <path
                  d=" M 0 0 10.0 0  C 10.000000 -15.000000 23.333333 16.000000 23.333333 0  S 36.66666666666667 16.0 36.66666666666667 0  S 50.66666666666667 -15.0 50.66666666666667 0  S 64.66666666666667 19.0 64.66666666666667 0  S 78.66666666666667 -10.0 78.66666666666667 0  S 90.0 17.0 90.0 0  M 90.0 0 100 0" stroke="black" fill="transparent"
                  transform="translate(710.000000 304.666667) rotate (-83.696372 0 0) scale (0.576821 1)"/>
                  <path
                  d=" M 0 0 10.0 0  C 10.000000 -17.000000 23.333333 18.000000 23.333333 0  S 36.66666666666667 13.0 36.66666666666667 0  S 50.66666666666667 -17.0 50.66666666666667 0  S 64.66666666666667 16.0 64.66666666666667 0  S 78.66666666666667 -14.0 78.66666666666667 0  S 90.0 15.0 90.0 0  M 90.0 0 100 0" stroke="black" fill="transparent"
                  transform="translate(584.000000 343.333333) rotate (-17.060114 0 0) scale (1.317995 1)"/>
                  <path
                  d=" M 0 0 10.0 0  C 10.000000 -19.000000 23.333333 13.000000 23.333333 0  S 36.66666666666667 10.0 36.66666666666667 0  S 50.66666666666667 -10.0 50.66666666666667 0  S 64.66666666666667 17.0 64.66666666666667 0  S 78.66666666666667 -12.0 78.66666666666667 0  S 90.0 13.0 90.0 0  M 90.0 0 100 0" stroke="black" fill="transparent"
                  transform="translate(621.666667 100.000000) rotate (45.520856 0 0) scale (0.518566 1)"/>
                  <path
                  d=" M 0 0 10.0 0  C 10.000000 -12.000000 26.000000 18.000000 26.000000 0  S 42.0 15.0 42.0 0  S 58.0 -17.0 58.0 0  S 74.0 18.0 74.0 0  S 90.0 12.0 90.0 0  M 90.0 0 100 0" stroke="black" fill="transparent"
                  transform="translate(621.666667 100.000000) rotate (-28.412661 0 0) scale (0.693542 1)"/>
                  <path
                  d=" M 0 0 10.0 0  C 10.000000 -17.000000 21.428571 18.000000 21.428571 0  S 32.85714285714286 14.0 32.85714285714286 0  S 44.85714285714286 -19.0 44.85714285714286 0  S 56.85714285714286 11.0 56.85714285714286 0  S 68.85714285714286 -15.0 68.85714285714286 0  S 80.85714285714286 11.0 80.85714285714286 0  S 90.0 18.0 90.0 0  M 90.0 0 100 0" stroke="black" fill="transparent"
                  transform="translate(682.666667 67.000000) rotate (45.520856 0 0) scale (0.518566 1)"/>
                  <path
                  d=" M 0 0 10.0 0  C 10.000000 -12.000000 21.428571 17.000000 21.428571 0  S 32.85714285714286 17.0 32.85714285714286 0  S 44.85714285714286 -11.0 44.85714285714286 0  S 56.85714285714286 16.0 56.85714285714286 0  S 68.85714285714286 -10.0 68.85714285714286 0  S 80.85714285714286 19.0 80.85714285714286 0  S 90.0 18.0 90.0 0  M 90.0 0 100 0" stroke="black" fill="transparent"
                  transform="translate(658.000000 137.000000) rotate (-28.412661 0 0) scale (0.693542 1)"/>
                  <path
                  d=" M 0 0 10.0 0  C 10.000000 -12.000000 21.428571 10.000000 21.428571 0  S 32.85714285714286 14.0 32.85714285714286 0  S 44.85714285714286 -14.0 44.85714285714286 0  S 56.85714285714286 10.0 56.85714285714286 0  S 68.85714285714286 -17.0 68.85714285714286 0  S 80.85714285714286 19.0 80.85714285714286 0  S 90.0 13.0 90.0 0  M 90.0 0 100 0" stroke="black" fill="transparent"
                  transform="translate(205.000000 207.666667) rotate (-65.711198 0 0) scale (0.713123 1)"/>
                  <path
                  d=" M 0 0 10.0 0  C 10.000000 -13.000000 23.333333 10.000000 23.333333 0  S 36.66666666666667 17.0 36.66666666666667 0  S 50.66666666666667 -16.0 50.66666666666667 0  S 64.66666666666667 10.0 64.66666666666667 0  S 78.66666666666667 -19.0 78.66666666666667 0  S 90.0 12.0 90.0 0  M 90.0 0 100 0" stroke="black" fill="transparent"
                  transform="translate(234.333333 142.666667) rotate (-35.277376 0 0) scale (0.767630 1)"/>
                  <path
                  d=" M 0 0 10.0 0  C 10.000000 -12.000000 26.000000 13.000000 26.000000 0  S 42.0 17.0 42.0 0  S 58.0 -16.0 58.0 0  S 74.0 13.0 74.0 0  S 90.0 18.0 90.0 0  M 90.0 0 100 0" stroke="black" fill="transparent"
                  transform="translate(297.000000 98.333333) rotate (-2.675427 0 0) scale (0.714112 1)"/>
                  <path
                  d=" M 0 0 10.0 0  C 10.000000 -16.000000 23.333333 10.000000 23.333333 0  S 36.66666666666667 18.0 36.66666666666667 0  S 50.66666666666667 -16.0 50.66666666666667 0  S 64.66666666666667 16.0 64.66666666666667 0  S 78.66666666666667 -18.0 78.66666666666667 0  S 90.0 11.0 90.0 0  M 90.0 0 100 0" stroke="black" fill="transparent"
                  transform="translate(368.333333 95.000000) rotate (81.730038 0 0) scale (1.158716 1)"/>
                  <path
                  d=" M 0 0 10.0 0  C 10.000000 -10.000000 23.333333 10.000000 23.333333 0  S 36.66666666666667 18.0 36.66666666666667 0  S 50.66666666666667 -12.0 50.66666666666667 0  S 64.66666666666667 13.0 64.66666666666667 0  S 78.66666666666667 -13.0 78.66666666666667 0  S 90.0 19.0 90.0 0  M 90.0 0 100 0" stroke="black" fill="transparent"
                  transform="translate(205.000000 207.666667) rotate (41.558741 0 0) scale (1.060215 1)"/>
                  <path
                  d=" M 0 0 10.0 0  C 10.000000 -19.000000 20.000000 14.000000 20.000000 0  S 30.0 12.0 30.0 0  S 40.0 -18.0 40.0 0  S 50.0 15.0 50.0 0  S 60.0 -19.0 60.0 0  S 70.0 19.0 70.0 0  S 80.0 -14.0 80.0 0  S 90.0 11.0 90.0 0  M 90.0 0 100 0" stroke="black" fill="transparent"
                  transform="translate(212.666667 627.333333) rotate (67.439122 0 0) scale (0.747180 1)"/>
                  <path
                  d=" M 0 0 10.0 0  C 10.000000 -17.000000 23.333333 12.000000 23.333333 0  S 36.66666666666667 14.0 36.66666666666667 0  S 50.66666666666667 -14.0 50.66666666666667 0  S 64.66666666666667 13.0 64.66666666666667 0  S 78.66666666666667 -19.0 78.66666666666667 0  S 90.0 18.0 90.0 0  M 90.0 0 100 0" stroke="black" fill="transparent"
                  transform="translate(212.666667 627.333333) rotate (-5.839492 0 0) scale (0.589727 1)"/>
                  <path
                  d=" M 0 0 10.0 0  C 10.000000 -13.000000 20.000000 19.000000 20.000000 0  S 30.0 17.0 30.0 0  S 40.0 -16.0 40.0 0  S 50.0 19.0 50.0 0  S 60.0 -19.0 60.0 0  S 70.0 16.0 70.0 0  S 80.0 -13.0 80.0 0  S 90.0 13.0 90.0 0  M 90.0 0 100 0" stroke="black" fill="transparent"
                  transform="translate(271.333333 621.333333) rotate (67.439122 0 0) scale (0.747180 1)"/>
                  <path
                  d=" M 0 0 10.0 0  C 10.000000 -17.000000 20.000000 16.000000 20.000000 0  S 30.0 10.0 30.0 0  S 40.0 -13.0 40.0 0  S 50.0 13.0 50.0 0  S 60.0 -12.0 60.0 0  S 70.0 14.0 70.0 0  S 80.0 -11.0 80.0 0  S 90.0 16.0 90.0 0  M 90.0 0 100 0" stroke="black" fill="transparent"
                  transform="translate(241.333333 696.333333) rotate (-5.839492 0 0) scale (0.589727 1)"/>
                  <path
                  d=" M 0 0 10.0 0  C 10.000000 -19.000000 26.000000 17.000000 26.000000 0  S 42.0 16.0 42.0 0  S 58.0 -13.0 58.0 0  S 74.0 19.0 74.0 0  S 90.0 13.0 90.0 0  M 90.0 0 100 0" stroke="black" fill="transparent"
                  transform="translate(100.666667 635.666667) rotate (-39.559668 0 0) scale (0.596657 1)"/>
                  <path
                  d=" M 0 0 10.0 0  C 10.000000 -17.000000 21.428571 19.000000 21.428571 0  S 32.85714285714286 13.0 32.85714285714286 0  S 44.85714285714286 -19.0 44.85714285714286 0  S 56.85714285714286 16.0 56.85714285714286 0  S 68.85714285714286 -10.0 68.85714285714286 0  S 80.85714285714286 10.0 80.85714285714286 0  S 90.0 19.0 90.0 0  M 90.0 0 100 0" stroke="black" fill="transparent"
                  transform="translate(108.333333 525.333333) rotate (62.078472 0 0) scale (0.818630 1)"/>
                  <path
                  d=" M 0 0 10.0 0  C 10.000000 -15.000000 23.333333 10.000000 23.333333 0  S 36.66666666666667 11.0 36.66666666666667 0  S 50.66666666666667 -11.0 50.66666666666667 0  S 64.66666666666667 12.0 64.66666666666667 0  S 78.66666666666667 -19.0 78.66666666666667 0  S 90.0 16.0 90.0 0  M 90.0 0 100 0" stroke="black" fill="transparent"
                  transform="translate(63.000000 472.333333) rotate (49.458110 0 0) scale (0.697432 1)"/>
                  <path
                  d=" M 0 0 10.0 0  C 10.000000 -12.000000 20.000000 13.000000 20.000000 0  S 30.0 11.0 30.0 0  S 40.0 -19.0 40.0 0  S 50.0 18.0 50.0 0  S 60.0 -10.0 60.0 0  S 70.0 11.0 70.0 0  S 80.0 -14.0 80.0 0  S 90.0 15.0 90.0 0  M 90.0 0 100 0" stroke="black" fill="transparent"
                  transform="translate(63.000000 472.333333) rotate (77.013923 0 0) scale (1.676203 1)"/>
                  <path
                  d=" M 0 0 10.0 0  C 10.000000 -19.000000 21.428571 14.000000 21.428571 0  S 32.85714285714286 10.0 32.85714285714286 0  S 44.85714285714286 -11.0 44.85714285714286 0  S 56.85714285714286 16.0 56.85714285714286 0  S 68.85714285714286 -17.0 68.85714285714286 0  S 80.85714285714286 18.0 80.85714285714286 0  S 90.0 17.0 90.0 0  M 90.0 0 100 0" stroke="black" fill="transparent"
                  transform="translate(910.333333 101.000000) rotate (57.136824 0 0) scale (0.448429 1)"/>
                  <path
                  d=" M 0 0 10.0 0  C 10.000000 -15.000000 21.428571 13.000000 21.428571 0  S 32.85714285714286 16.0 32.85714285714286 0  S 44.85714285714286 -19.0 44.85714285714286 0  S 56.85714285714286 16.0 56.85714285714286 0  S 68.85714285714286 -13.0 68.85714285714286 0  S 80.85714285714286 14.0 80.85714285714286 0  S 90.0 19.0 90.0 0  M 90.0 0 100 0" stroke="black" fill="transparent"
                  transform="translate(934.666667 138.666667) rotate (38.428077 0 0) scale (0.514857 1)"/>
                  <path
                  d=" M 0 0 10.0 0  C 10.000000 -10.000000 26.000000 12.000000 26.000000 0  S 42.0 10.0 42.0 0  S 58.0 -18.0 58.0 0  S 74.0 15.0 74.0 0  S 90.0 12.0 90.0 0  M 90.0 0 100 0" stroke="black" fill="transparent"
                  transform="translate(910.333333 101.000000) rotate (47.131613 0 0) scale (0.950538 1)"/>
                  <path
                  d=" M 0 0 10.0 0  C 10.000000 -14.000000 26.000000 13.000000 26.000000 0  S 42.0 17.0 42.0 0  S 58.0 -15.0 58.0 0  S 74.0 16.0 74.0 0  S 90.0 18.0 90.0 0  M 90.0 0 100 0" stroke="black" fill="transparent"
                  transform="translate(248.666667 847.000000) rotate (-9.418282 0 0) scale (0.712944 1)"/>
                  <path
                  d=" M 0 0 10.0 0  C 10.000000 -19.000000 21.428571 16.000000 21.428571 0  S 32.85714285714286 18.0 32.85714285714286 0  S 44.85714285714286 -14.0 44.85714285714286 0  S 56.85714285714286 16.0 56.85714285714286 0  S 68.85714285714286 -12.0 68.85714285714286 0  S 80.85714285714286 10.0 80.85714285714286 0  S 90.0 10.0 90.0 0  M 90.0 0 100 0" stroke="black" fill="transparent"
                  transform="translate(319.000000 835.333333) rotate (60.969725 0 0) scale (0.762459 1)"/>
                  <path
                  d=" M 0 0 10.0 0  C 10.000000 -17.000000 26.000000 13.000000 26.000000 0  S 42.0 17.0 42.0 0  S 58.0 -12.0 58.0 0  S 74.0 12.0 74.0 0  S 90.0 13.0 90.0 0  M 90.0 0 100 0" stroke="black" fill="transparent"
                  transform="translate(319.000000 936.333333) rotate (-42.859099 0 0) scale (0.504755 1)"/>
                  <path
                  d=" M 0 0 10.0 0  C 10.000000 -15.000000 23.333333 18.000000 23.333333 0  S 36.66666666666667 13.0 36.66666666666667 0  S 50.66666666666667 -10.0 50.66666666666667 0  S 64.66666666666667 12.0 64.66666666666667 0  S 78.66666666666667 -10.0 78.66666666666667 0  S 90.0 13.0 90.0 0  M 90.0 0 100 0" stroke="black" fill="transparent"
                  transform="translate(245.333333 910.666667) rotate (19.209169 0 0) scale (0.780100 1)"/>
                  <path
                  d=" M 0 0 10.0 0  C 10.000000 -10.000000 21.428571 15.000000 21.428571 0  S 32.85714285714286 10.0 32.85714285714286 0  S 44.85714285714286 -11.0 44.85714285714286 0  S 56.85714285714286 14.0 56.85714285714286 0  S 68.85714285714286 -16.0 68.85714285714286 0  S 80.85714285714286 10.0 80.85714285714286 0  S 90.0 15.0 90.0 0  M 90.0 0 100 0" stroke="black" fill="transparent"
                  transform="translate(245.333333 910.666667) rotate (-87.002957 0 0) scale (0.637539 1)"/>
                  <path
                  d=" M 0 0 10.0 0  C 10.000000 -17.000000 26.000000 11.000000 26.000000 0  S 42.0 14.0 42.0 0  S 58.0 -12.0 58.0 0  S 74.0 19.0 74.0 0  S 90.0 19.0 90.0 0  M 90.0 0 100 0" stroke="black" fill="transparent"
                  transform="translate(708.000000 386.000000) rotate (-57.011478 0 0) scale (0.679559 1)"/>
                  <path
                  d=" M 0 0 10.0 0  C 10.000000 -16.000000 23.333333 19.000000 23.333333 0  S 36.66666666666667 10.0 36.66666666666667 0  S 50.66666666666667 -18.0 50.66666666666667 0  S 64.66666666666667 10.0 64.66666666666667 0  S 78.66666666666667 -16.0 78.66666666666667 0  S 90.0 11.0 90.0 0  M 90.0 0 100 0" stroke="black" fill="transparent"
                  transform="translate(582.000000 402.333333) rotate (-7.386043 0 0) scale (1.270542 1)"/>
                  <path
                  d=" M 0 0 10.0 0  C 10.000000 -17.000000 20.000000 15.000000 20.000000 0  S 30.0 12.0 30.0 0  S 40.0 -16.0 40.0 0  S 50.0 15.0 50.0 0  S 60.0 -19.0 60.0 0  S 70.0 18.0 70.0 0  S 80.0 -16.0 80.0 0  S 90.0 14.0 90.0 0  M 90.0 0 100 0" stroke="black" fill="transparent"
                  transform="translate(710.000000 304.666667) rotate (34.808498 0 0) scale (0.426276 1)"/>
                  <path
                  d=" M 0 0 10.0 0  C 10.000000 -11.000000 21.428571 18.000000 21.428571 0  S 32.85714285714286 14.0 32.85714285714286 0  S 44.85714285714286 -12.0 44.85714285714286 0  S 56.85714285714286 18.0 56.85714285714286 0  S 68.85714285714286 -13.0 68.85714285714286 0  S 80.85714285714286 12.0 80.85714285714286 0  S 90.0 18.0 90.0 0  M 90.0 0 100 0" stroke="black" fill="transparent"
                  transform="translate(93.333333 133.666667) rotate (-39.847918 0 0) scale (0.577446 1)"/>
                  <path
                  d=" M 0 0 10.0 0  C 10.000000 -16.000000 23.333333 13.000000 23.333333 0  S 36.66666666666667 17.0 36.66666666666667 0  S 50.66666666666667 -13.0 50.66666666666667 0  S 64.66666666666667 14.0 64.66666666666667 0  S 78.66666666666667 -19.0 78.66666666666667 0  S 90.0 16.0 90.0 0  M 90.0 0 100 0" stroke="black" fill="transparent"
                  transform="translate(744.333333 424.333333) rotate (-17.045737 0 0) scale (0.739136 1)"/>
                  <path
                  d=" M 0 0 10.0 0  C 10.000000 -14.000000 23.333333 19.000000 23.333333 0  S 36.66666666666667 10.0 36.66666666666667 0  S 50.66666666666667 -14.0 50.66666666666667 0  S 64.66666666666667 16.0 64.66666666666667 0  S 78.66666666666667 -14.0 78.66666666666667 0  S 90.0 16.0 90.0 0  M 90.0 0 100 0" stroke="black" fill="transparent"
                  transform="translate(708.000000 386.000000) rotate (46.534341 0 0) scale (0.528162 1)"/>
                  <path
                  d=" M 0 0 10.0 0  C 10.000000 -11.000000 20.000000 17.000000 20.000000 0  S 30.0 12.0 30.0 0  S 40.0 -15.0 40.0 0  S 50.0 14.0 50.0 0  S 60.0 -16.0 60.0 0  S 70.0 12.0 70.0 0  S 80.0 -11.0 80.0 0  S 90.0 16.0 90.0 0  M 90.0 0 100 0" stroke="black" fill="transparent"
                  transform="translate(745.000000 329.000000) rotate (10.757967 0 0) scale (0.678593 1)"/>
                  <path
                  d=" M 0 0 10.0 0  C 10.000000 -12.000000 20.000000 11.000000 20.000000 0  S 30.0 14.0 30.0 0  S 40.0 -19.0 40.0 0  S 50.0 10.0 50.0 0  S 60.0 -14.0 60.0 0  S 70.0 19.0 70.0 0  S 80.0 -14.0 80.0 0  S 90.0 12.0 90.0 0  M 90.0 0 100 0" stroke="black" fill="transparent"
                  transform="translate(811.666667 341.666667) rotate (86.872194 0 0) scale (0.610910 1)"/>
                  <path
                  d=" M 0 0 10.0 0  C 10.000000 -17.000000 20.000000 17.000000 20.000000 0  S 30.0 14.0 30.0 0  S 40.0 -13.0 40.0 0  S 50.0 15.0 50.0 0  S 60.0 -15.0 60.0 0  S 70.0 12.0 70.0 0  S 80.0 -12.0 80.0 0  S 90.0 11.0 90.0 0  M 90.0 0 100 0" stroke="black" fill="transparent"
                  transform="translate(61.000000 834.666667) rotate (62.175904 0 0) scale (0.814125 1)"/>
                  <path
                  d=" M 0 0 10.0 0  C 10.000000 -14.000000 20.000000 14.000000 20.000000 0  S 30.0 12.0 30.0 0  S 40.0 -16.0 40.0 0  S 50.0 15.0 50.0 0  S 60.0 -18.0 60.0 0  S 70.0 14.0 70.0 0  S 80.0 -17.0 80.0 0  S 90.0 14.0 90.0 0  M 90.0 0 100 0" stroke="black" fill="transparent"
                  transform="translate(99.000000 906.666667) rotate (41.516729 0 0) scale (0.543119 1)"/>
                  <path
                  d=" M 0 0 10.0 0  C 10.000000 -14.000000 20.000000 12.000000 20.000000 0  S 30.0 17.0 30.0 0  S 40.0 -11.0 40.0 0  S 50.0 14.0 50.0 0  S 60.0 -14.0 60.0 0  S 70.0 13.0 70.0 0  S 80.0 -17.0 80.0 0  S 90.0 12.0 90.0 0  M 90.0 0 100 0" stroke="black" fill="transparent"
                  transform="translate(139.666667 942.666667) rotate (16.633102 0 0) scale (1.106290 1)"/>
                  <path
                  d=" M 0 0 10.0 0  C 10.000000 -12.000000 26.000000 18.000000 26.000000 0  S 42.0 15.0 42.0 0  S 58.0 -16.0 58.0 0  S 74.0 12.0 74.0 0  S 90.0 18.0 90.0 0  M 90.0 0 100 0" stroke="black" fill="transparent"
                  transform="translate(61.000000 834.666667) rotate (37.100861 0 0) scale (2.315352 1)"/>
                  <path
                  d=" M 0 0 10.0 0  C 10.000000 -19.000000 23.333333 14.000000 23.333333 0  S 36.66666666666667 14.0 36.66666666666667 0  S 50.66666666666667 -10.0 50.66666666666667 0  S 64.66666666666667 13.0 64.66666666666667 0  S 78.66666666666667 -14.0 78.66666666666667 0  S 90.0 13.0 90.0 0  M 90.0 0 100 0" stroke="black" fill="transparent"
                  transform="translate(952.666667 306.666667) rotate (73.476972 0 0) scale (0.726674 1)"/>
                  <path
                  d=" M 0 0 10.0 0  C 10.000000 -11.000000 20.000000 15.000000 20.000000 0  S 30.0 13.0 30.0 0  S 40.0 -13.0 40.0 0  S 50.0 15.0 50.0 0  S 60.0 -13.0 60.0 0  S 70.0 10.0 70.0 0  S 80.0 -18.0 80.0 0  S 90.0 19.0 90.0 0  M 90.0 0 100 0" stroke="black" fill="transparent"
                  transform="translate(930.666667 436.000000) rotate (-54.432055 0 0) scale (0.733523 1)"/>
                  <path
                  d=" M 0 0 10.0 0  C 10.000000 -17.000000 26.000000 13.000000 26.000000 0  S 42.0 15.0 42.0 0  S 58.0 -15.0 58.0 0  S 74.0 12.0 74.0 0  S 90.0 10.0 90.0 0  M 90.0 0 100 0" stroke="black" fill="transparent"
                  transform="translate(903.666667 413.000000) rotate (40.426079 0 0) scale (0.354683 1)"/>
                  <path
                  d=" M 0 0 10.0 0  C 10.000000 -19.000000 20.000000 11.000000 20.000000 0  S 30.0 13.0 30.0 0  S 40.0 -18.0 40.0 0  S 50.0 12.0 50.0 0  S 60.0 -18.0 60.0 0  S 70.0 13.0 70.0 0  S 80.0 -17.0 80.0 0  S 90.0 14.0 90.0 0  M 90.0 0 100 0" stroke="black" fill="transparent"
                  transform="translate(903.666667 413.000000) rotate (-82.349349 0 0) scale (0.676018 1)"/>
                  <path
                  d=" M 0 0 10.0 0  C 10.000000 -16.000000 21.428571 12.000000 21.428571 0  S 32.85714285714286 19.0 32.85714285714286 0  S 44.85714285714286 -11.0 44.85714285714286 0  S 56.85714285714286 14.0 56.85714285714286 0  S 68.85714285714286 -11.0 68.85714285714286 0  S 80.85714285714286 11.0 80.85714285714286 0  S 90.0 16.0 90.0 0  M 90.0 0 100 0" stroke="black" fill="transparent"
                  transform="translate(912.666667 346.000000) rotate (-44.518534 0 0) scale (0.560991 1)"/>
                  <path
                  d=" M 0 0 10.0 0  C 10.000000 -17.000000 20.000000 11.000000 20.000000 0  S 30.0 10.0 30.0 0  S 40.0 -11.0 40.0 0  S 50.0 13.0 50.0 0  S 60.0 -19.0 60.0 0  S 70.0 10.0 70.0 0  S 80.0 -16.0 80.0 0  S 90.0 11.0 90.0 0  M 90.0 0 100 0" stroke="black" fill="transparent"
                  transform="translate(204.666667 812.666667) rotate (-83.949764 0 0) scale (0.727385 1)"/>
                  <path
                  d=" M 0 0 10.0 0  C 10.000000 -17.000000 23.333333 14.000000 23.333333 0  S 36.66666666666667 19.0 36.66666666666667 0  S 50.66666666666667 -10.0 50.66666666666667 0  S 64.66666666666667 17.0 64.66666666666667 0  S 78.66666666666667 -10.0 78.66666666666667 0  S 90.0 10.0 90.0 0  M 90.0 0 100 0" stroke="black" fill="transparent"
                  transform="translate(135.666667 841.666667) rotate (-22.796521 0 0) scale (0.748465 1)"/>
                  <path
                  d=" M 0 0 10.0 0  C 10.000000 -12.000000 26.000000 13.000000 26.000000 0  S 42.0 11.0 42.0 0  S 58.0 -16.0 58.0 0  S 74.0 16.0 74.0 0  S 90.0 14.0 90.0 0  M 90.0 0 100 0" stroke="black" fill="transparent"
                  transform="translate(107.333333 803.666667) rotate (53.291271 0 0) scale (0.474002 1)"/>
                  <path
                  d=" M 0 0 10.0 0  C 10.000000 -17.000000 21.428571 12.000000 21.428571 0  S 32.85714285714286 15.0 32.85714285714286 0  S 44.85714285714286 -10.0 44.85714285714286 0  S 56.85714285714286 10.0 56.85714285714286 0  S 68.85714285714286 -17.0 68.85714285714286 0  S 80.85714285714286 11.0 80.85714285714286 0  S 90.0 17.0 90.0 0  M 90.0 0 100 0" stroke="black" fill="transparent"
                  transform="translate(107.333333 803.666667) rotate (-56.456282 0 0) scale (0.723886 1)"/>
                  <path
                  d=" M 0 0 10.0 0  C 10.000000 -16.000000 20.000000 11.000000 20.000000 0  S 30.0 17.0 30.0 0  S 40.0 -13.0 40.0 0  S 50.0 15.0 50.0 0  S 60.0 -16.0 60.0 0  S 70.0 13.0 70.0 0  S 80.0 -15.0 80.0 0  S 90.0 13.0 90.0 0  M 90.0 0 100 0" stroke="black" fill="transparent"
                  transform="translate(147.333333 743.333333) rotate (-2.642545 0 0) scale (0.650692 1)"/>
                  <path
                  d=" M 0 0 10.0 0  C 10.000000 -16.000000 23.333333 17.000000 23.333333 0  S 36.66666666666667 16.0 36.66666666666667 0  S 50.66666666666667 -18.0 50.66666666666667 0  S 64.66666666666667 15.0 64.66666666666667 0  S 78.66666666666667 -10.0 78.66666666666667 0  S 90.0 15.0 90.0 0  M 90.0 0 100 0" stroke="black" fill="transparent"
                  transform="translate(782.333333 974.000000) rotate (-36.656108 0 0) scale (0.714672 1)"/>
                  <path
                  d=" M 0 0 10.0 0  C 10.000000 -13.000000 21.428571 11.000000 21.428571 0  S 32.85714285714286 10.0 32.85714285714286 0  S 44.85714285714286 -15.0 44.85714285714286 0  S 56.85714285714286 13.0 56.85714285714286 0  S 68.85714285714286 -11.0 68.85714285714286 0  S 80.85714285714286 11.0 80.85714285714286 0  S 90.0 19.0 90.0 0  M 90.0 0 100 0" stroke="black" fill="transparent"
                  transform="translate(780.000000 871.666667) rotate (45.000000 0 0) scale (0.843814 1)"/>
                  <path
                  d=" M 0 0 10.0 0  C 10.000000 -11.000000 23.333333 14.000000 23.333333 0  S 36.66666666666667 18.0 36.66666666666667 0  S 50.66666666666667 -15.0 50.66666666666667 0  S 64.66666666666667 14.0 64.66666666666667 0  S 78.66666666666667 -13.0 78.66666666666667 0  S 90.0 16.0 90.0 0  M 90.0 0 100 0" stroke="black" fill="transparent"
                  transform="translate(722.666667 914.333333) rotate (45.000000 0 0) scale (0.843814 1)"/>
                  <path
                  d=" M 0 0 10.0 0  C 10.000000 -14.000000 23.333333 10.000000 23.333333 0  S 36.66666666666667 16.0 36.66666666666667 0  S 50.66666666666667 -12.0 50.66666666666667 0  S 64.66666666666667 14.0 64.66666666666667 0  S 78.66666666666667 -10.0 78.66666666666667 0  S 90.0 11.0 90.0 0  M 90.0 0 100 0" stroke="black" fill="transparent"
                  transform="translate(70.333333 766.000000) rotate (45.511556 0 0) scale (0.527994 1)"/>
                  <path
                  d=" M 0 0 10.0 0  C 10.000000 -17.000000 20.000000 19.000000 20.000000 0  S 30.0 15.0 30.0 0  S 40.0 -10.0 40.0 0  S 50.0 16.0 50.0 0  S 60.0 -16.0 60.0 0  S 70.0 18.0 70.0 0  S 80.0 -11.0 80.0 0  S 90.0 10.0 90.0 0  M 90.0 0 100 0" stroke="black" fill="transparent"
                  transform="translate(70.333333 766.000000) rotate (-56.456282 0 0) scale (0.723886 1)"/>
                  <path
                  d=" M 0 0 10.0 0  C 10.000000 -17.000000 26.000000 10.000000 26.000000 0  S 42.0 14.0 42.0 0  S 58.0 -16.0 58.0 0  S 74.0 11.0 74.0 0  S 90.0 16.0 90.0 0  M 90.0 0 100 0" stroke="black" fill="transparent"
                  transform="translate(110.333333 705.666667) rotate (45.511556 0 0) scale (0.527994 1)"/>
                  <path
                  d=" M 0 0 10.0 0  C 10.000000 -17.000000 23.333333 10.000000 23.333333 0  S 36.66666666666667 13.0 36.66666666666667 0  S 50.66666666666667 -18.0 50.66666666666667 0  S 64.66666666666667 11.0 64.66666666666667 0  S 78.66666666666667 -13.0 78.66666666666667 0  S 90.0 10.0 90.0 0  M 90.0 0 100 0" stroke="black" fill="transparent"
                  transform="translate(339.333333 724.333333) rotate (86.566370 0 0) scale (0.667866 1)"/>
                  <path
                  d=" M 0 0 10.0 0  C 10.000000 -11.000000 26.000000 11.000000 26.000000 0  S 42.0 10.0 42.0 0  S 58.0 -15.0 58.0 0  S 74.0 10.0 74.0 0  S 90.0 10.0 90.0 0  M 90.0 0 100 0" stroke="black" fill="transparent"
                  transform="translate(339.333333 724.333333) rotate (-26.780853 0 0) scale (0.791574 1)"/>
                  <path
                  d=" M 0 0 10.0 0  C 10.000000 -10.000000 20.000000 16.000000 20.000000 0  S 30.0 10.0 30.0 0  S 40.0 -18.0 40.0 0  S 50.0 11.0 50.0 0  S 60.0 -13.0 60.0 0  S 70.0 18.0 70.0 0  S 80.0 -17.0 80.0 0  S 90.0 17.0 90.0 0  M 90.0 0 100 0" stroke="black" fill="transparent"
                  transform="translate(410.000000 688.666667) rotate (47.009554 0 0) scale (0.537732 1)"/>
                  <path
                  d=" M 0 0 10.0 0  C 10.000000 -14.000000 23.333333 11.000000 23.333333 0  S 36.66666666666667 15.0 36.66666666666667 0  S 50.66666666666667 -13.0 50.66666666666667 0  S 64.66666666666667 11.0 64.66666666666667 0  S 78.66666666666667 -12.0 78.66666666666667 0  S 90.0 17.0 90.0 0  M 90.0 0 100 0" stroke="black" fill="transparent"
                  transform="translate(409.666667 793.000000) rotate (-60.350136 0 0) scale (0.747930 1)"/>
                  <path
                  d=" M 0 0 10.0 0  C 10.000000 -14.000000 20.000000 12.000000 20.000000 0  S 30.0 17.0 30.0 0  S 40.0 -18.0 40.0 0  S 50.0 19.0 50.0 0  S 60.0 -11.0 60.0 0  S 70.0 13.0 70.0 0  S 80.0 -18.0 80.0 0  S 90.0 11.0 90.0 0  M 90.0 0 100 0" stroke="black" fill="transparent"
                  transform="translate(343.333333 791.000000) rotate (1.726988 0 0) scale (0.663635 1)"/>
                  <path
                  d=" M 0 0 10.0 0  C 10.000000 -13.000000 26.000000 18.000000 26.000000 0  S 42.0 14.0 42.0 0  S 58.0 -10.0 58.0 0  S 74.0 14.0 74.0 0  S 90.0 13.0 90.0 0  M 90.0 0 100 0" stroke="black" fill="transparent"
                  transform="translate(300.000000 690.333333) rotate (40.840358 0 0) scale (0.519915 1)"/>
                  <path
                  d=" M 0 0 10.0 0  C 10.000000 -18.000000 20.000000 13.000000 20.000000 0  S 30.0 18.0 30.0 0  S 40.0 -12.0 40.0 0  S 50.0 18.0 50.0 0  S 60.0 -10.0 60.0 0  S 70.0 19.0 70.0 0  S 80.0 -15.0 80.0 0  S 90.0 12.0 90.0 0  M 90.0 0 100 0" stroke="black" fill="transparent"
                  transform="translate(212.333333 740.333333) rotate (-56.611486 0 0) scale (0.526972 1)"/>
                  <path
                  d=" M 0 0 10.0 0  C 10.000000 -11.000000 26.000000 11.000000 26.000000 0  S 42.0 12.0 42.0 0  S 58.0 -16.0 58.0 0  S 74.0 17.0 74.0 0  S 90.0 13.0 90.0 0  M 90.0 0 100 0" stroke="black" fill="transparent"
                  transform="translate(204.666667 812.666667) rotate (37.965024 0 0) scale (0.558102 1)"/>
                  <path
                  d=" M 0 0 10.0 0  C 10.000000 -14.000000 20.000000 16.000000 20.000000 0  S 30.0 14.0 30.0 0  S 40.0 -13.0 40.0 0  S 50.0 15.0 50.0 0  S 60.0 -16.0 60.0 0  S 70.0 14.0 70.0 0  S 80.0 -10.0 80.0 0  S 90.0 19.0 90.0 0  M 90.0 0 100 0" stroke="black" fill="transparent"
                  transform="translate(319.000000 835.333333) rotate (-61.238842 0 0) scale (0.505723 1)"/>
                  <path
                  d=" M 0 0 10.0 0  C 10.000000 -19.000000 20.000000 17.000000 20.000000 0  S 30.0 15.0 30.0 0  S 40.0 -14.0 40.0 0  S 50.0 12.0 50.0 0  S 60.0 -12.0 60.0 0  S 70.0 15.0 70.0 0  S 80.0 -19.0 80.0 0  S 90.0 16.0 90.0 0  M 90.0 0 100 0" stroke="black" fill="transparent"
                  transform="translate(655.333333 203.000000) rotate (-87.686278 0 0) scale (0.660539 1)"/>
                  <path
                  d=" M 0 0 10.0 0  C 10.000000 -13.000000 26.000000 11.000000 26.000000 0  S 42.0 17.0 42.0 0  S 58.0 -17.0 58.0 0  S 74.0 13.0 74.0 0  S 90.0 11.0 90.0 0  M 90.0 0 100 0" stroke="black" fill="transparent"
                  transform="translate(716.333333 247.333333) rotate (-32.924711 0 0) scale (0.484481 1)"/>
                  <path
                  d=" M 0 0 10.0 0  C 10.000000 -12.000000 21.428571 15.000000 21.428571 0  S 32.85714285714286 11.0 32.85714285714286 0  S 44.85714285714286 -18.0 44.85714285714286 0  S 56.85714285714286 16.0 56.85714285714286 0  S 68.85714285714286 -13.0 68.85714285714286 0  S 80.85714285714286 10.0 80.85714285714286 0  S 90.0 14.0 90.0 0  M 90.0 0 100 0" stroke="black" fill="transparent"
                  transform="translate(757.000000 221.000000) rotate (-90.000000 0 0) scale (0.773333 1)"/>
                  <path
                  d=" M 0 0 10.0 0  C 10.000000 -19.000000 26.000000 14.000000 26.000000 0  S 42.0 19.0 42.0 0  S 58.0 -19.0 58.0 0  S 74.0 11.0 74.0 0  S 90.0 14.0 90.0 0  M 90.0 0 100 0" stroke="black" fill="transparent"
                  transform="translate(719.000000 104.000000) rotate (46.229334 0 0) scale (0.549313 1)"/>
                  <path
                  d=" M 0 0 10.0 0  C 10.000000 -10.000000 21.428571 14.000000 21.428571 0  S 32.85714285714286 13.0 32.85714285714286 0  S 44.85714285714286 -12.0 44.85714285714286 0  S 56.85714285714286 19.0 56.85714285714286 0  S 68.85714285714286 -18.0 68.85714285714286 0  S 80.85714285714286 18.0 80.85714285714286 0  S 90.0 14.0 90.0 0  M 90.0 0 100 0" stroke="black" fill="transparent"
                  transform="translate(817.000000 142.333333) rotate (-54.309940 0 0) scale (0.582790 1)"/>
                  <path
                  d=" M 0 0 10.0 0  C 10.000000 -18.000000 26.000000 11.000000 26.000000 0  S 42.0 11.0 42.0 0  S 58.0 -14.0 58.0 0  S 74.0 15.0 74.0 0  S 90.0 19.0 90.0 0  M 90.0 0 100 0" stroke="black" fill="transparent"
                  transform="translate(757.000000 143.666667) rotate (-1.273030 0 0) scale (0.600148 1)"/>
                  <path
                  d=" M 0 0 10.0 0  C 10.000000 -14.000000 21.428571 10.000000 21.428571 0  S 32.85714285714286 12.0 32.85714285714286 0  S 44.85714285714286 -11.0 44.85714285714286 0  S 56.85714285714286 14.0 56.85714285714286 0  S 68.85714285714286 -17.0 68.85714285714286 0  S 80.85714285714286 18.0 80.85714285714286 0  S 90.0 18.0 90.0 0  M 90.0 0 100 0" stroke="black" fill="transparent"
                  transform="translate(572.333333 59.000000) rotate (4.147119 0 0) scale (1.106230 1)"/>
                  <path
                  d=" M 0 0 10.0 0  C 10.000000 -11.000000 23.333333 18.000000 23.333333 0  S 36.66666666666667 18.0 36.66666666666667 0  S 50.66666666666667 -17.0 50.66666666666667 0  S 64.66666666666667 15.0 64.66666666666667 0  S 78.66666666666667 -12.0 78.66666666666667 0  S 90.0 16.0 90.0 0  M 90.0 0 100 0" stroke="black" fill="transparent"
                  transform="translate(572.333333 59.000000) rotate (7.361078 0 0) scale (2.809824 1)"/>
                  <path
                  d=" M 0 0 10.0 0  C 10.000000 -17.000000 26.000000 19.000000 26.000000 0  S 42.0 18.0 42.0 0  S 58.0 -11.0 58.0 0  S 74.0 14.0 74.0 0  S 90.0 10.0 90.0 0  M 90.0 0 100 0" stroke="black" fill="transparent"
                  transform="translate(718.333333 984.000000) rotate (-8.880659 0 0) scale (0.647765 1)"/>
                  <path
                  d=" M 0 0 10.0 0  C 10.000000 -19.000000 23.333333 14.000000 23.333333 0  S 36.66666666666667 10.0 36.66666666666667 0  S 50.66666666666667 -18.0 50.66666666666667 0  S 64.66666666666667 19.0 64.66666666666667 0  S 78.66666666666667 -13.0 78.66666666666667 0  S 90.0 12.0 90.0 0  M 90.0 0 100 0" stroke="black" fill="transparent"
                  transform="translate(896.000000 894.000000) rotate (52.280289 0 0) scale (0.539393 1)"/>
                  <path
                  d=" M 0 0 10.0 0  C 10.000000 -15.000000 26.000000 14.000000 26.000000 0  S 42.0 19.0 42.0 0  S 58.0 -18.0 58.0 0  S 74.0 19.0 74.0 0  S 90.0 15.0 90.0 0  M 90.0 0 100 0" stroke="black" fill="transparent"
                  transform="translate(896.000000 894.000000) rotate (-89.390493 0 0) scale (0.626702 1)"/>
                  <path
                  d=" M 0 0 10.0 0  C 10.000000 -15.000000 21.428571 11.000000 21.428571 0  S 32.85714285714286 10.0 32.85714285714286 0  S 44.85714285714286 -10.0 44.85714285714286 0  S 56.85714285714286 17.0 56.85714285714286 0  S 68.85714285714286 -15.0 68.85714285714286 0  S 80.85714285714286 13.0 80.85714285714286 0  S 90.0 15.0 90.0 0  M 90.0 0 100 0" stroke="black" fill="transparent"
                  transform="translate(896.666667 831.333333) rotate (-31.250951 0 0) scale (0.456192 1)"/>
                  <path
                  d=" M 0 0 10.0 0  C 10.000000 -18.000000 21.428571 15.000000 21.428571 0  S 32.85714285714286 13.0 32.85714285714286 0  S 44.85714285714286 -13.0 44.85714285714286 0  S 56.85714285714286 14.0 56.85714285714286 0  S 68.85714285714286 -14.0 68.85714285714286 0  S 80.85714285714286 18.0 80.85714285714286 0  S 90.0 17.0 90.0 0  M 90.0 0 100 0" stroke="black" fill="transparent"
                  transform="translate(935.666667 807.666667) rotate (69.310476 0 0) scale (0.669867 1)"/>
                  <path
                  d=" M 0 0 10.0 0  C 10.000000 -14.000000 26.000000 11.000000 26.000000 0  S 42.0 19.0 42.0 0  S 58.0 -19.0 58.0 0  S 74.0 13.0 74.0 0  S 90.0 18.0 90.0 0  M 90.0 0 100 0" stroke="black" fill="transparent"
                  transform="translate(929.000000 936.666667) rotate (-65.426025 0 0) scale (0.729399 1)"/>
                  <path
                  d=" M 0 0 10.0 0  C 10.000000 -17.000000 23.333333 11.000000 23.333333 0  S 36.66666666666667 19.0 36.66666666666667 0  S 50.66666666666667 -19.0 50.66666666666667 0  S 64.66666666666667 10.0 64.66666666666667 0  S 78.66666666666667 -13.0 78.66666666666667 0  S 90.0 19.0 90.0 0  M 90.0 0 100 0" stroke="black" fill="transparent"
                  transform="translate(64.333333 283.666667) rotate (47.447049 0 0) scale (0.552047 1)"/>
                  <path
                  d=" M 0 0 10.0 0  C 10.000000 -15.000000 21.428571 10.000000 21.428571 0  S 32.85714285714286 10.0 32.85714285714286 0  S 44.85714285714286 -18.0 44.85714285714286 0  S 56.85714285714286 12.0 56.85714285714286 0  S 68.85714285714286 -16.0 68.85714285714286 0  S 80.85714285714286 19.0 80.85714285714286 0  S 90.0 16.0 90.0 0  M 90.0 0 100 0" stroke="black" fill="transparent"
                  transform="translate(823.666667 244.333333) rotate (66.260559 0 0) scale (0.695517 1)"/>
                  <path
                  d=" M 0 0 10.0 0  C 10.000000 -11.000000 21.428571 12.000000 21.428571 0  S 32.85714285714286 13.0 32.85714285714286 0  S 44.85714285714286 -12.0 44.85714285714286 0  S 56.85714285714286 14.0 56.85714285714286 0  S 68.85714285714286 -11.0 68.85714285714286 0  S 80.85714285714286 14.0 80.85714285714286 0  S 90.0 12.0 90.0 0  M 90.0 0 100 0" stroke="black" fill="transparent"
                  transform="translate(811.666667 341.666667) rotate (-40.086201 0 0) scale (0.522824 1)"/>
                  <path
                  d=" M 0 0 10.0 0  C 10.000000 -16.000000 26.000000 18.000000 26.000000 0  S 42.0 15.0 42.0 0  S 58.0 -17.0 58.0 0  S 74.0 17.0 74.0 0  S 90.0 18.0 90.0 0  M 90.0 0 100 0" stroke="black" fill="transparent"
                  transform="translate(757.000000 221.000000) rotate (19.290046 0 0) scale (0.706321 1)"/>
                  <path
                  d=" M 0 0 10.0 0  C 10.000000 -12.000000 26.000000 16.000000 26.000000 0  S 42.0 18.0 42.0 0  S 58.0 -11.0 58.0 0  S 74.0 12.0 74.0 0  S 90.0 16.0 90.0 0  M 90.0 0 100 0" stroke="black" fill="transparent"
                  transform="translate(99.000000 906.666667) rotate (-60.572544 0 0) scale (0.746287 1)"/>
                  <path
                  d=" M 0 0 10.0 0  C 10.000000 -14.000000 21.428571 19.000000 21.428571 0  S 32.85714285714286 15.0 32.85714285714286 0  S 44.85714285714286 -13.0 44.85714285714286 0  S 56.85714285714286 11.0 56.85714285714286 0  S 68.85714285714286 -19.0 68.85714285714286 0  S 80.85714285714286 12.0 80.85714285714286 0  S 90.0 18.0 90.0 0  M 90.0 0 100 0" stroke="black" fill="transparent"
                  transform="translate(61.000000 834.666667) rotate (-82.259659 0 0) scale (0.692981 1)"/>
                  <path
                  d=" M 0 0 10.0 0  C 10.000000 -15.000000 26.000000 15.000000 26.000000 0  S 42.0 14.0 42.0 0  S 58.0 -18.0 58.0 0  S 74.0 18.0 74.0 0  S 90.0 15.0 90.0 0  M 90.0 0 100 0" stroke="black" fill="transparent"
                  transform="translate(410.000000 688.666667) rotate (-85.329870 0 0) scale (1.187275 1)"/>
                  <path
                  d=" M 0 0 10.0 0  C 10.000000 -14.000000 23.333333 16.000000 23.333333 0  S 36.66666666666667 19.0 36.66666666666667 0  S 50.66666666666667 -18.0 50.66666666666667 0  S 64.66666666666667 18.0 64.66666666666667 0  S 78.66666666666667 -19.0 78.66666666666667 0  S 90.0 15.0 90.0 0  M 90.0 0 100 0" stroke="black" fill="transparent"
                  transform="translate(271.333333 621.333333) rotate (-59.842227 0 0) scale (0.975352 1)"/>
                  <path
                  d=" M 0 0 10.0 0  C 10.000000 -10.000000 21.428571 18.000000 21.428571 0  S 32.85714285714286 12.0 32.85714285714286 0  S 44.85714285714286 -11.0 44.85714285714286 0  S 56.85714285714286 12.0 56.85714285714286 0  S 68.85714285714286 -12.0 68.85714285714286 0  S 80.85714285714286 13.0 80.85714285714286 0  S 90.0 19.0 90.0 0  M 90.0 0 100 0" stroke="black" fill="transparent"
                  transform="translate(815.000000 402.666667) rotate (47.077175 0 0) scale (0.455204 1)"/>
                  <path
                  d=" M 0 0 10.0 0  C 10.000000 -11.000000 20.000000 18.000000 20.000000 0  S 30.0 13.0 30.0 0  S 40.0 -16.0 40.0 0  S 50.0 18.0 50.0 0  S 60.0 -17.0 60.0 0  S 70.0 17.0 70.0 0  S 80.0 -14.0 80.0 0  S 90.0 13.0 90.0 0  M 90.0 0 100 0" stroke="black" fill="transparent"
                  transform="translate(851.666667 308.000000) rotate (31.920876 0 0) scale (0.718679 1)"/>
                  <path
                  d=" M 0 0 10.0 0  C 10.000000 -14.000000 20.000000 19.000000 20.000000 0  S 30.0 18.0 30.0 0  S 40.0 -13.0 40.0 0  S 50.0 13.0 50.0 0  S 60.0 -15.0 60.0 0  S 70.0 16.0 70.0 0  S 80.0 -16.0 80.0 0  S 90.0 11.0 90.0 0  M 90.0 0 100 0" stroke="black" fill="transparent"
                  transform="translate(846.000000 436.000000) rotate (-21.744285 0 0) scale (0.620842 1)"/>
                  <path
                  d=" M 0 0 10.0 0  C 10.000000 -19.000000 20.000000 19.000000 20.000000 0  S 30.0 18.0 30.0 0  S 40.0 -12.0 40.0 0  S 50.0 12.0 50.0 0  S 60.0 -15.0 60.0 0  S 70.0 15.0 70.0 0  S 80.0 -18.0 80.0 0  S 90.0 15.0 90.0 0  M 90.0 0 100 0" stroke="black" fill="transparent"
                  transform="translate(210.666667 934.666667) rotate (19.209169 0 0) scale (0.780100 1)"/>
                  <path
                  d=" M 0 0 10.0 0  C 10.000000 -19.000000 23.333333 11.000000 23.333333 0  S 36.66666666666667 17.0 36.66666666666667 0  S 50.66666666666667 -13.0 50.66666666666667 0  S 64.66666666666667 17.0 64.66666666666667 0  S 78.66666666666667 -14.0 78.66666666666667 0  S 90.0 13.0 90.0 0  M 90.0 0 100 0" stroke="black" fill="transparent"
                  transform="translate(139.666667 942.666667) rotate (-6.428748 0 0) scale (0.714493 1)"/>
                  <path
                  d=" M 0 0 10.0 0  C 10.000000 -14.000000 26.000000 18.000000 26.000000 0  S 42.0 16.0 42.0 0  S 58.0 -14.0 58.0 0  S 74.0 12.0 74.0 0  S 90.0 10.0 90.0 0  M 90.0 0 100 0" stroke="black" fill="transparent"
                  transform="translate(245.666667 974.333333) rotate (-2.571436 0 0) scale (1.114456 1)"/>
                  <path
                  d=" M 0 0 10.0 0  C 10.000000 -19.000000 20.000000 19.000000 20.000000 0  S 30.0 19.0 30.0 0  S 40.0 -18.0 40.0 0  S 50.0 11.0 50.0 0  S 60.0 -19.0 60.0 0  S 70.0 10.0 70.0 0  S 80.0 -17.0 80.0 0  S 90.0 16.0 90.0 0  M 90.0 0 100 0" stroke="black" fill="transparent"
                  transform="translate(284.333333 960.333333) rotate (7.060312 0 0) scale (0.732219 1)"/>
                  <path
                  d=" M 0 0 10.0 0  C 10.000000 -12.000000 21.428571 13.000000 21.428571 0  S 32.85714285714286 19.0 32.85714285714286 0  S 44.85714285714286 -12.0 44.85714285714286 0  S 56.85714285714286 12.0 56.85714285714286 0  S 68.85714285714286 -17.0 68.85714285714286 0  S 80.85714285714286 15.0 80.85714285714286 0  S 90.0 17.0 90.0 0  M 90.0 0 100 0" stroke="black" fill="transparent"
                  transform="translate(210.666667 934.666667) rotate (-34.695154 0 0) scale (0.421637 1)"/>
                  <path
                  d=" M 0 0 10.0 0  C 10.000000 -12.000000 20.000000 13.000000 20.000000 0  S 30.0 10.0 30.0 0  S 40.0 -18.0 40.0 0  S 50.0 18.0 50.0 0  S 60.0 -11.0 60.0 0  S 70.0 18.0 70.0 0  S 80.0 -14.0 80.0 0  S 90.0 14.0 90.0 0  M 90.0 0 100 0" stroke="black" fill="transparent"
                  transform="translate(284.333333 960.333333) rotate (-34.695154 0 0) scale (0.421637 1)"/>
                  <path
                  d=" M 0 0 10.0 0  C 10.000000 -19.000000 23.333333 15.000000 23.333333 0  S 36.66666666666667 13.0 36.66666666666667 0  S 50.66666666666667 -17.0 50.66666666666667 0  S 64.66666666666667 19.0 64.66666666666667 0  S 78.66666666666667 -18.0 78.66666666666667 0  S 90.0 18.0 90.0 0  M 90.0 0 100 0" stroke="black" fill="transparent"
                  transform="translate(357.000000 969.333333) rotate (-18.372873 0 0) scale (0.972928 1)"/>
                  <path
                  d=" M 0 0 10.0 0  C 10.000000 -13.000000 21.428571 10.000000 21.428571 0  S 32.85714285714286 12.0 32.85714285714286 0  S 44.85714285714286 -17.0 44.85714285714286 0  S 56.85714285714286 18.0 56.85714285714286 0  S 68.85714285714286 -15.0 68.85714285714286 0  S 80.85714285714286 13.0 80.85714285714286 0  S 90.0 19.0 90.0 0  M 90.0 0 100 0" stroke="black" fill="transparent"
                  transform="translate(245.666667 974.333333) rotate (-9.933069 0 0) scale (2.067661 1)"/>
                  <path
                  d=" M 0 0 10.0 0  C 10.000000 -10.000000 23.333333 18.000000 23.333333 0  S 36.66666666666667 19.0 36.66666666666667 0  S 50.66666666666667 -13.0 50.66666666666667 0  S 64.66666666666667 14.0 64.66666666666667 0  S 78.66666666666667 -17.0 78.66666666666667 0  S 90.0 12.0 90.0 0  M 90.0 0 100 0" stroke="black" fill="transparent"
                  transform="translate(839.666667 931.333333) rotate (-33.533308 0 0) scale (0.675812 1)"/>
                  <path
                  d=" M 0 0 10.0 0  C 10.000000 -13.000000 23.333333 14.000000 23.333333 0  S 36.66666666666667 12.0 36.66666666666667 0  S 50.66666666666667 -17.0 50.66666666666667 0  S 64.66666666666667 12.0 64.66666666666667 0  S 78.66666666666667 -12.0 78.66666666666667 0  S 90.0 12.0 90.0 0  M 90.0 0 100 0" stroke="black" fill="transparent"
                  transform="translate(811.333333 814.000000) rotate (11.481991 0 0) scale (0.870760 1)"/>
                  <path
                  d=" M 0 0 10.0 0  C 10.000000 -19.000000 23.333333 17.000000 23.333333 0  S 36.66666666666667 16.0 36.66666666666667 0  S 50.66666666666667 -18.0 50.66666666666667 0  S 64.66666666666667 14.0 64.66666666666667 0  S 78.66666666666667 -11.0 78.66666666666667 0  S 90.0 18.0 90.0 0  M 90.0 0 100 0" stroke="black" fill="transparent"
                  transform="translate(658.666667 924.333333) rotate (45.000000 0 0) scale (0.843814 1)"/>
                  <path
                  d=" M 0 0 10.0 0  C 10.000000 -11.000000 23.333333 13.000000 23.333333 0  S 36.66666666666667 10.0 36.66666666666667 0  S 50.66666666666667 -10.0 50.66666666666667 0  S 64.66666666666667 19.0 64.66666666666667 0  S 78.66666666666667 -10.0 78.66666666666667 0  S 90.0 11.0 90.0 0  M 90.0 0 100 0" stroke="black" fill="transparent"
                  transform="translate(99.000000 378.666667) rotate (49.458110 0 0) scale (0.697432 1)"/>
                  <path
                  d=" M 0 0 10.0 0  C 10.000000 -18.000000 21.428571 16.000000 21.428571 0  S 32.85714285714286 15.0 32.85714285714286 0  S 44.85714285714286 -11.0 44.85714285714286 0  S 56.85714285714286 18.0 56.85714285714286 0  S 68.85714285714286 -14.0 68.85714285714286 0  S 80.85714285714286 12.0 80.85714285714286 0  S 90.0 16.0 90.0 0  M 90.0 0 100 0" stroke="black" fill="transparent"
                  transform="translate(63.000000 472.333333) rotate (-68.976154 0 0) scale (1.003466 1)"/>
                  <path
                  d=" M 0 0 10.0 0  C 10.000000 -16.000000 21.428571 19.000000 21.428571 0  S 32.85714285714286 15.0 32.85714285714286 0  S 44.85714285714286 -11.0 44.85714285714286 0  S 56.85714285714286 16.0 56.85714285714286 0  S 68.85714285714286 -19.0 68.85714285714286 0  S 80.85714285714286 19.0 80.85714285714286 0  S 90.0 13.0 90.0 0  M 90.0 0 100 0" stroke="black" fill="transparent"
                  transform="translate(108.333333 525.333333) rotate (-68.976154 0 0) scale (1.003466 1)"/>
                  <path
                  d=" M 0 0 10.0 0  C 10.000000 -12.000000 21.428571 16.000000 21.428571 0  S 32.85714285714286 10.0 32.85714285714286 0  S 44.85714285714286 -12.0 44.85714285714286 0  S 56.85714285714286 12.0 56.85714285714286 0  S 68.85714285714286 -15.0 68.85714285714286 0  S 80.85714285714286 10.0 80.85714285714286 0  S 90.0 11.0 90.0 0  M 90.0 0 100 0" stroke="black" fill="transparent"
                  transform="translate(468.000000 67.666667) rotate (21.194056 0 0) scale (0.875912 1)"/>
                  <path
                  d=" M 0 0 10.0 0  C 10.000000 -19.000000 26.000000 16.000000 26.000000 0  S 42.0 18.0 42.0 0  S 58.0 -11.0 58.0 0  S 74.0 12.0 74.0 0  S 90.0 12.0 90.0 0  M 90.0 0 100 0" stroke="black" fill="transparent"
                  transform="translate(549.666667 99.333333) rotate (0.530501 0 0) scale (0.720031 1)"/>
                  <path
                  d=" M 0 0 10.0 0  C 10.000000 -11.000000 26.000000 14.000000 26.000000 0  S 42.0 18.0 42.0 0  S 58.0 -12.0 58.0 0  S 74.0 10.0 74.0 0  S 90.0 17.0 90.0 0  M 90.0 0 100 0" stroke="black" fill="transparent"
                  transform="translate(468.000000 67.666667) rotate (-4.748492 0 0) scale (1.046927 1)"/>
                  <path
                  d=" M 0 0 10.0 0  C 10.000000 -19.000000 20.000000 14.000000 20.000000 0  S 30.0 15.0 30.0 0  S 40.0 -10.0 40.0 0  S 50.0 15.0 50.0 0  S 60.0 -11.0 60.0 0  S 70.0 15.0 70.0 0  S 80.0 -10.0 80.0 0  S 90.0 17.0 90.0 0  M 90.0 0 100 0" stroke="black" fill="transparent"
                  transform="translate(144.333333 431.666667) rotate (-9.491085 0 0) scale (1.091609 1)"/>
                  <path
                  d=" M 0 0 10.0 0  C 10.000000 -10.000000 21.428571 13.000000 21.428571 0  S 32.85714285714286 12.0 32.85714285714286 0  S 44.85714285714286 -15.0 44.85714285714286 0  S 56.85714285714286 16.0 56.85714285714286 0  S 68.85714285714286 -18.0 68.85714285714286 0  S 80.85714285714286 17.0 80.85714285714286 0  S 90.0 16.0 90.0 0  M 90.0 0 100 0" stroke="black" fill="transparent"
                  transform="translate(146.666667 597.666667) rotate (24.203677 0 0) scale (0.723610 1)"/>
                  <path
                  d=" M 0 0 10.0 0  C 10.000000 -14.000000 21.428571 10.000000 21.428571 0  S 32.85714285714286 11.0 32.85714285714286 0  S 44.85714285714286 -15.0 44.85714285714286 0  S 56.85714285714286 14.0 56.85714285714286 0  S 68.85714285714286 -13.0 68.85714285714286 0  S 80.85714285714286 13.0 80.85714285714286 0  S 90.0 15.0 90.0 0  M 90.0 0 100 0" stroke="black" fill="transparent"
                  transform="translate(951.666667 612.666667) rotate (71.960188 0 0) scale (0.764235 1)"/>
                  <path
                  d=" M 0 0 10.0 0  C 10.000000 -15.000000 21.428571 11.000000 21.428571 0  S 32.85714285714286 13.0 32.85714285714286 0  S 44.85714285714286 -13.0 44.85714285714286 0  S 56.85714285714286 15.0 56.85714285714286 0  S 68.85714285714286 -19.0 68.85714285714286 0  S 80.85714285714286 12.0 80.85714285714286 0  S 90.0 15.0 90.0 0  M 90.0 0 100 0" stroke="black" fill="transparent"
                  transform="translate(944.666667 713.333333) rotate (-42.397438 0 0) scale (0.415264 1)"/>
                  <path
                  d=" M 0 0 10.0 0  C 10.000000 -11.000000 20.000000 10.000000 20.000000 0  S 30.0 19.0 30.0 0  S 40.0 -19.0 40.0 0  S 50.0 10.0 50.0 0  S 60.0 -13.0 60.0 0  S 70.0 18.0 70.0 0  S 80.0 -19.0 80.0 0  S 90.0 13.0 90.0 0  M 90.0 0 100 0" stroke="black" fill="transparent"
                  transform="translate(921.000000 640.666667) rotate (71.960188 0 0) scale (0.764235 1)"/>
                  <path
                  d=" M 0 0 10.0 0  C 10.000000 -18.000000 20.000000 11.000000 20.000000 0  S 30.0 12.0 30.0 0  S 40.0 -15.0 40.0 0  S 50.0 11.0 50.0 0  S 60.0 -19.0 60.0 0  S 70.0 15.0 70.0 0  S 80.0 -14.0 80.0 0  S 90.0 10.0 90.0 0  M 90.0 0 100 0" stroke="black" fill="transparent"
                  transform="translate(921.000000 640.666667) rotate (-42.397438 0 0) scale (0.415264 1)"/>
                  <path
                  d=" M 0 0 10.0 0  C 10.000000 -12.000000 26.000000 13.000000 26.000000 0  S 42.0 11.0 42.0 0  S 58.0 -10.0 58.0 0  S 74.0 19.0 74.0 0  S 90.0 11.0 90.0 0  M 90.0 0 100 0" stroke="black" fill="transparent"
                  transform="translate(100.666667 635.666667) rotate (82.137454 0 0) scale (0.706643 1)"/>
                  <path
                  d=" M 0 0 10.0 0  C 10.000000 -18.000000 26.000000 14.000000 26.000000 0  S 42.0 16.0 42.0 0  S 58.0 -15.0 58.0 0  S 74.0 11.0 74.0 0  S 90.0 14.0 90.0 0  M 90.0 0 100 0" stroke="black" fill="transparent"
                  transform="translate(356.000000 902.000000) rotate (-6.594515 0 0) scale (0.580507 1)"/>
                  <path
                  d=" M 0 0 10.0 0  C 10.000000 -15.000000 21.428571 16.000000 21.428571 0  S 32.85714285714286 17.0 32.85714285714286 0  S 44.85714285714286 -14.0 44.85714285714286 0  S 56.85714285714286 18.0 56.85714285714286 0  S 68.85714285714286 -18.0 68.85714285714286 0  S 80.85714285714286 12.0 80.85714285714286 0  S 90.0 17.0 90.0 0  M 90.0 0 100 0" stroke="black" fill="transparent"
                  transform="translate(413.666667 895.333333) rotate (50.542992 0 0) scale (0.561239 1)"/>
                  <path
                  d=" M 0 0 10.0 0  C 10.000000 -15.000000 20.000000 10.000000 20.000000 0  S 30.0 11.0 30.0 0  S 40.0 -18.0 40.0 0  S 50.0 17.0 50.0 0  S 60.0 -17.0 60.0 0  S 70.0 15.0 70.0 0  S 80.0 -15.0 80.0 0  S 90.0 18.0 90.0 0  M 90.0 0 100 0" stroke="black" fill="transparent"
                  transform="translate(409.666667 793.000000) rotate (48.492593 0 0) scale (0.502980 1)"/>
                  <path
                  d=" M 0 0 10.0 0  C 10.000000 -13.000000 21.428571 15.000000 21.428571 0  S 32.85714285714286 13.0 32.85714285714286 0  S 44.85714285714286 -19.0 44.85714285714286 0  S 56.85714285714286 13.0 56.85714285714286 0  S 68.85714285714286 -13.0 68.85714285714286 0  S 80.85714285714286 12.0 80.85714285714286 0  S 90.0 15.0 90.0 0  M 90.0 0 100 0" stroke="black" fill="transparent"
                  transform="translate(413.666667 895.333333) rotate (-65.600564 0 0) scale (0.710086 1)"/>
                  <path
                  d=" M 0 0 10.0 0  C 10.000000 -16.000000 26.000000 17.000000 26.000000 0  S 42.0 17.0 42.0 0  S 58.0 -13.0 58.0 0  S 74.0 14.0 74.0 0  S 90.0 19.0 90.0 0  M 90.0 0 100 0" stroke="black" fill="transparent"
                  transform="translate(517.666667 948.333333) rotate (-40.667686 0 0) scale (0.936056 1)"/>
                  <path
                  d=" M 0 0 10.0 0  C 10.000000 -16.000000 20.000000 17.000000 20.000000 0  S 30.0 12.0 30.0 0  S 40.0 -17.0 40.0 0  S 50.0 11.0 50.0 0  S 60.0 -12.0 60.0 0  S 70.0 18.0 70.0 0  S 80.0 -13.0 80.0 0  S 90.0 10.0 90.0 0  M 90.0 0 100 0" stroke="black" fill="transparent"
                  transform="translate(449.333333 938.666667) rotate (8.051829 0 0) scale (0.690137 1)"/>
                  <path
                  d=" M 0 0 10.0 0  C 10.000000 -19.000000 26.000000 12.000000 26.000000 0  S 42.0 18.0 42.0 0  S 58.0 -17.0 58.0 0  S 74.0 11.0 74.0 0  S 90.0 18.0 90.0 0  M 90.0 0 100 0" stroke="black" fill="transparent"
                  transform="translate(443.000000 830.666667) rotate (-9.404242 0 0) scale (1.081198 1)"/>
                  <path
                  d=" M 0 0 10.0 0  C 10.000000 -18.000000 23.333333 14.000000 23.333333 0  S 36.66666666666667 16.0 36.66666666666667 0  S 50.66666666666667 -16.0 50.66666666666667 0  S 64.66666666666667 17.0 64.66666666666667 0  S 78.66666666666667 -17.0 78.66666666666667 0  S 90.0 14.0 90.0 0  M 90.0 0 100 0" stroke="black" fill="transparent"
                  transform="translate(521.000000 697.333333) rotate (34.193201 0 0) scale (0.842252 1)"/>
                  <path
                  d=" M 0 0 10.0 0  C 10.000000 -12.000000 26.000000 16.000000 26.000000 0  S 42.0 10.0 42.0 0  S 58.0 -13.0 58.0 0  S 74.0 11.0 74.0 0  S 90.0 10.0 90.0 0  M 90.0 0 100 0" stroke="black" fill="transparent"
                  transform="translate(613.666667 605.333333) rotate (65.444503 0 0) scale (0.850229 1)"/>
                  <path
                  d=" M 0 0 10.0 0  C 10.000000 -19.000000 26.000000 18.000000 26.000000 0  S 42.0 18.0 42.0 0  S 58.0 -14.0 58.0 0  S 74.0 16.0 74.0 0  S 90.0 12.0 90.0 0  M 90.0 0 100 0" stroke="black" fill="transparent"
                  transform="translate(559.666667 629.666667) rotate (-24.257150 0 0) scale (0.592293 1)"/>
                  <path
                  d=" M 0 0 10.0 0  C 10.000000 -16.000000 26.000000 13.000000 26.000000 0  S 42.0 14.0 42.0 0  S 58.0 -16.0 58.0 0  S 74.0 19.0 74.0 0  S 90.0 11.0 90.0 0  M 90.0 0 100 0" stroke="black" fill="transparent"
                  transform="translate(521.000000 697.333333) rotate (-60.255119 0 0) scale (0.779352 1)"/>
                  <path
                  d=" M 0 0 10.0 0  C 10.000000 -17.000000 23.333333 11.000000 23.333333 0  S 36.66666666666667 16.0 36.66666666666667 0  S 50.66666666666667 -12.0 50.66666666666667 0  S 64.66666666666667 17.0 64.66666666666667 0  S 78.66666666666667 -15.0 78.66666666666667 0  S 90.0 14.0 90.0 0  M 90.0 0 100 0" stroke="black" fill="transparent"
                  transform="translate(93.333333 133.666667) rotate (85.710847 0 0) scale (0.802247 1)"/>
                  <path
                  d=" M 0 0 10.0 0  C 10.000000 -12.000000 21.428571 17.000000 21.428571 0  S 32.85714285714286 19.0 32.85714285714286 0  S 44.85714285714286 -15.0 44.85714285714286 0  S 56.85714285714286 19.0 56.85714285714286 0  S 68.85714285714286 -11.0 68.85714285714286 0  S 80.85714285714286 17.0 80.85714285714286 0  S 90.0 17.0 90.0 0  M 90.0 0 100 0" stroke="black" fill="transparent"
                  transform="translate(199.000000 109.000000) rotate (43.616313 0 0) scale (0.488046 1)"/>
                  <path
                  d=" M 0 0 10.0 0  C 10.000000 -16.000000 20.000000 16.000000 20.000000 0  S 30.0 19.0 30.0 0  S 40.0 -10.0 40.0 0  S 50.0 12.0 50.0 0  S 60.0 -13.0 60.0 0  S 70.0 16.0 70.0 0  S 80.0 -12.0 80.0 0  S 90.0 19.0 90.0 0  M 90.0 0 100 0" stroke="black" fill="transparent"
                  transform="translate(136.666667 254.333333) rotate (-34.330217 0 0) scale (0.827479 1)"/>
                  <path
                  d=" M 0 0 10.0 0  C 10.000000 -17.000000 21.428571 11.000000 21.428571 0  S 32.85714285714286 15.0 32.85714285714286 0  S 44.85714285714286 -18.0 44.85714285714286 0  S 56.85714285714286 19.0 56.85714285714286 0  S 68.85714285714286 -15.0 68.85714285714286 0  S 80.85714285714286 13.0 80.85714285714286 0  S 90.0 11.0 90.0 0  M 90.0 0 100 0" stroke="black" fill="transparent"
                  transform="translate(99.333333 213.666667) rotate (47.447049 0 0) scale (0.552047 1)"/>
                  <path
                  d=" M 0 0 10.0 0  C 10.000000 -17.000000 23.333333 16.000000 23.333333 0  S 36.66666666666667 19.0 36.66666666666667 0  S 50.66666666666667 -12.0 50.66666666666667 0  S 64.66666666666667 19.0 64.66666666666667 0  S 78.66666666666667 -10.0 78.66666666666667 0  S 90.0 15.0 90.0 0  M 90.0 0 100 0" stroke="black" fill="transparent"
                  transform="translate(851.000000 95.000000) rotate (5.774326 0 0) scale (0.596359 1)"/>
                  <path
                  d=" M 0 0 10.0 0  C 10.000000 -17.000000 21.428571 10.000000 21.428571 0  S 32.85714285714286 19.0 32.85714285714286 0  S 44.85714285714286 -12.0 44.85714285714286 0  S 56.85714285714286 18.0 56.85714285714286 0  S 68.85714285714286 -18.0 68.85714285714286 0  S 80.85714285714286 14.0 80.85714285714286 0  S 90.0 10.0 90.0 0  M 90.0 0 100 0" stroke="black" fill="transparent"
                  transform="translate(817.000000 142.333333) rotate (58.781597 0 0) scale (0.771751 1)"/>
                  <path
                  d=" M 0 0 10.0 0  C 10.000000 -13.000000 21.428571 15.000000 21.428571 0  S 32.85714285714286 18.0 32.85714285714286 0  S 44.85714285714286 -15.0 44.85714285714286 0  S 56.85714285714286 16.0 56.85714285714286 0  S 68.85714285714286 -14.0 68.85714285714286 0  S 80.85714285714286 14.0 80.85714285714286 0  S 90.0 19.0 90.0 0  M 90.0 0 100 0" stroke="black" fill="transparent"
                  transform="translate(857.000000 208.333333) rotate (-9.409221 0 0) scale (0.591289 1)"/>
                  <path
                  d=" M 0 0 10.0 0  C 10.000000 -15.000000 21.428571 13.000000 21.428571 0  S 32.85714285714286 14.0 32.85714285714286 0  S 44.85714285714286 -18.0 44.85714285714286 0  S 56.85714285714286 17.0 56.85714285714286 0  S 68.85714285714286 -17.0 68.85714285714286 0  S 80.85714285714286 15.0 80.85714285714286 0  S 90.0 14.0 90.0 0  M 90.0 0 100 0" stroke="black" fill="transparent"
                  transform="translate(915.333333 198.666667) rotate (-72.139906 0 0) scale (0.630379 1)"/>
                  <path
                  d=" M 0 0 10.0 0  C 10.000000 -10.000000 26.000000 12.000000 26.000000 0  S 42.0 13.0 42.0 0  S 58.0 -19.0 58.0 0  S 74.0 11.0 74.0 0  S 90.0 16.0 90.0 0  M 90.0 0 100 0" stroke="black" fill="transparent"
                  transform="translate(486.666667 209.666667) rotate (-60.273764 0 0) scale (1.270529 1)"/>
                  <path
                  d=" M 0 0 10.0 0  C 10.000000 -11.000000 21.428571 18.000000 21.428571 0  S 32.85714285714286 10.0 32.85714285714286 0  S 44.85714285714286 -13.0 44.85714285714286 0  S 56.85714285714286 17.0 56.85714285714286 0  S 68.85714285714286 -19.0 68.85714285714286 0  S 80.85714285714286 17.0 80.85714285714286 0  S 90.0 11.0 90.0 0  M 90.0 0 100 0" stroke="black" fill="transparent"
                  transform="translate(950.000000 539.666667) rotate (88.692104 0 0) scale (0.730190 1)"/>
                  <path
                  d=" M 0 0 10.0 0  C 10.000000 -15.000000 23.333333 14.000000 23.333333 0  S 36.66666666666667 13.0 36.66666666666667 0  S 50.66666666666667 -18.0 50.66666666666667 0  S 64.66666666666667 15.0 64.66666666666667 0  S 78.66666666666667 -12.0 78.66666666666667 0  S 90.0 17.0 90.0 0  M 90.0 0 100 0" stroke="black" fill="transparent"
                  transform="translate(856.000000 605.333333) rotate (28.528049 0 0) scale (0.739827 1)"/>
                  <path
                  d=" M 0 0 10.0 0  C 10.000000 -12.000000 20.000000 19.000000 20.000000 0  S 30.0 10.0 30.0 0  S 40.0 -15.0 40.0 0  S 50.0 15.0 50.0 0  S 60.0 -19.0 60.0 0  S 70.0 13.0 70.0 0  S 80.0 -19.0 80.0 0  S 90.0 16.0 90.0 0  M 90.0 0 100 0" stroke="black" fill="transparent"
                  transform="translate(819.000000 533.666667) rotate (-50.147885 0 0) scale (0.525378 1)"/>
                  <path
                  d=" M 0 0 10.0 0  C 10.000000 -11.000000 21.428571 13.000000 21.428571 0  S 32.85714285714286 19.0 32.85714285714286 0  S 44.85714285714286 -12.0 44.85714285714286 0  S 56.85714285714286 11.0 56.85714285714286 0  S 68.85714285714286 -16.0 68.85714285714286 0  S 80.85714285714286 13.0 80.85714285714286 0  S 90.0 11.0 90.0 0  M 90.0 0 100 0" stroke="black" fill="transparent"
                  transform="translate(852.666667 493.333333) rotate (-2.663001 0 0) scale (0.573953 1)"/>
                  <path
                  d=" M 0 0 10.0 0  C 10.000000 -15.000000 23.333333 18.000000 23.333333 0  S 36.66666666666667 10.0 36.66666666666667 0  S 50.66666666666667 -17.0 50.66666666666667 0  S 64.66666666666667 10.0 64.66666666666667 0  S 78.66666666666667 -13.0 78.66666666666667 0  S 90.0 19.0 90.0 0  M 90.0 0 100 0" stroke="black" fill="transparent"
                  transform="translate(910.000000 490.666667) rotate (50.774326 0 0) scale (0.632535 1)"/>
                  <path
                  d=" M 0 0 10.0 0  C 10.000000 -11.000000 23.333333 14.000000 23.333333 0  S 36.66666666666667 13.0 36.66666666666667 0  S 50.66666666666667 -18.0 50.66666666666667 0  S 64.66666666666667 11.0 64.66666666666667 0  S 78.66666666666667 -13.0 78.66666666666667 0  S 90.0 17.0 90.0 0  M 90.0 0 100 0" stroke="black" fill="transparent"
                  transform="translate(495.000000 542.000000) rotate (53.585934 0 0) scale (1.089368 1)"/>
                  <path
                  d=" M 0 0 10.0 0  C 10.000000 -13.000000 20.000000 16.000000 20.000000 0  S 30.0 12.0 30.0 0  S 40.0 -16.0 40.0 0  S 50.0 11.0 50.0 0  S 60.0 -11.0 60.0 0  S 70.0 14.0 70.0 0  S 80.0 -15.0 80.0 0  S 90.0 16.0 90.0 0  M 90.0 0 100 0" stroke="black" fill="transparent"
                  transform="translate(446.666667 728.000000) rotate (-22.418892 0 0) scale (0.804108 1)"/>
                  <path
                  d=" M 0 0 10.0 0  C 10.000000 -16.000000 26.000000 15.000000 26.000000 0  S 42.0 16.0 42.0 0  S 58.0 -18.0 58.0 0  S 74.0 16.0 74.0 0  S 90.0 14.0 90.0 0  M 90.0 0 100 0" stroke="black" fill="transparent"
                  transform="translate(741.666667 498.000000) rotate (-87.926850 0 0) scale (0.737149 1)"/>
                  <path
                  d=" M 0 0 10.0 0  C 10.000000 -15.000000 21.428571 12.000000 21.428571 0  S 32.85714285714286 17.0 32.85714285714286 0  S 44.85714285714286 -11.0 44.85714285714286 0  S 56.85714285714286 11.0 56.85714285714286 0  S 68.85714285714286 -13.0 68.85714285714286 0  S 80.85714285714286 11.0 80.85714285714286 0  S 90.0 11.0 90.0 0  M 90.0 0 100 0" stroke="black" fill="transparent"
                  transform="translate(846.000000 436.000000) rotate (83.367485 0 0) scale (0.577196 1)"/>
                  <path
                  d=" M 0 0 10.0 0  C 10.000000 -13.000000 23.333333 18.000000 23.333333 0  S 36.66666666666667 19.0 36.66666666666667 0  S 50.66666666666667 -19.0 50.66666666666667 0  S 64.66666666666667 15.0 64.66666666666667 0  S 78.66666666666667 -11.0 78.66666666666667 0  S 90.0 18.0 90.0 0  M 90.0 0 100 0" stroke="black" fill="transparent"
                  transform="translate(955.666667 230.666667) rotate (-72.139906 0 0) scale (0.630379 1)"/>
                  <path
                  d=" M 0 0 10.0 0  C 10.000000 -18.000000 26.000000 13.000000 26.000000 0  S 42.0 15.0 42.0 0  S 58.0 -17.0 58.0 0  S 74.0 17.0 74.0 0  S 90.0 16.0 90.0 0  M 90.0 0 100 0" stroke="black" fill="transparent"
                  transform="translate(915.333333 198.666667) rotate (38.428077 0 0) scale (0.514857 1)"/>
                  <path
                  d=" M 0 0 10.0 0  C 10.000000 -19.000000 21.428571 13.000000 21.428571 0  S 32.85714285714286 17.0 32.85714285714286 0  S 44.85714285714286 -16.0 44.85714285714286 0  S 56.85714285714286 13.0 56.85714285714286 0  S 68.85714285714286 -15.0 68.85714285714286 0  S 80.85714285714286 19.0 80.85714285714286 0  S 90.0 11.0 90.0 0  M 90.0 0 100 0" stroke="black" fill="transparent"
                  transform="translate(261.666667 64.666667) rotate (43.616313 0 0) scale (0.488046 1)"/>
                  <path
                  d=" M 0 0 10.0 0  C 10.000000 -14.000000 23.333333 16.000000 23.333333 0  S 36.66666666666667 16.0 36.66666666666667 0  S 50.66666666666667 -15.0 50.66666666666667 0  S 64.66666666666667 15.0 64.66666666666667 0  S 78.66666666666667 -12.0 78.66666666666667 0  S 90.0 16.0 90.0 0  M 90.0 0 100 0" stroke="black" fill="transparent"
                  transform="translate(64.333333 283.666667) rotate (-63.434949 0 0) scale (0.782624 1)"/>
                  <path
                  d=" M 0 0 10.0 0  C 10.000000 -11.000000 26.000000 10.000000 26.000000 0  S 42.0 13.0 42.0 0  S 58.0 -11.0 58.0 0  S 74.0 18.0 74.0 0  S 90.0 12.0 90.0 0  M 90.0 0 100 0" stroke="black" fill="transparent"
                  transform="translate(64.333333 283.666667) rotate (-79.057815 0 0) scale (1.527776 1)"/>
                  <path
                  d=" M 0 0 10.0 0  C 10.000000 -12.000000 20.000000 12.000000 20.000000 0  S 30.0 11.0 30.0 0  S 40.0 -19.0 40.0 0  S 50.0 18.0 50.0 0  S 60.0 -11.0 60.0 0  S 70.0 19.0 70.0 0  S 80.0 -17.0 80.0 0  S 90.0 11.0 90.0 0  M 90.0 0 100 0" stroke="black" fill="transparent"
                  transform="translate(973.333333 376.333333) rotate (81.469234 0 0) scale (0.674125 1)"/>
                  <path
                  d=" M 0 0 10.0 0  C 10.000000 -16.000000 23.333333 14.000000 23.333333 0  S 36.66666666666667 18.0 36.66666666666667 0  S 50.66666666666667 -13.0 50.66666666666667 0  S 64.66666666666667 11.0 64.66666666666667 0  S 78.66666666666667 -13.0 78.66666666666667 0  S 90.0 11.0 90.0 0  M 90.0 0 100 0" stroke="black" fill="transparent"
                  transform="translate(952.666667 306.666667) rotate (77.322950 0 0) scale (1.397398 1)"/>
                  <path
                  d=" M 0 0 10.0 0  C 10.000000 -18.000000 23.333333 19.000000 23.333333 0  S 36.66666666666667 11.0 36.66666666666667 0  S 50.66666666666667 -10.0 50.66666666666667 0  S 64.66666666666667 10.0 64.66666666666667 0  S 78.66666666666667 -19.0 78.66666666666667 0  S 90.0 13.0 90.0 0  M 90.0 0 100 0" stroke="black" fill="transparent"
                  transform="translate(368.333333 95.000000) rotate (-15.336159 0 0) scale (1.033468 1)"/>
                  <path
                  d=" M 0 0 10.0 0  C 10.000000 -18.000000 26.000000 13.000000 26.000000 0  S 42.0 14.0 42.0 0  S 58.0 -13.0 58.0 0  S 74.0 16.0 74.0 0  S 90.0 11.0 90.0 0  M 90.0 0 100 0" stroke="black" fill="transparent"
                  transform="translate(368.333333 95.000000) rotate (-10.007980 0 0) scale (2.071521 1)"/>
                  <path
                  d=" M 0 0 10.0 0  C 10.000000 -10.000000 20.000000 19.000000 20.000000 0  S 30.0 12.0 30.0 0  S 40.0 -12.0 40.0 0  S 50.0 15.0 50.0 0  S 60.0 -15.0 60.0 0  S 70.0 14.0 70.0 0  S 80.0 -19.0 80.0 0  S 90.0 17.0 90.0 0  M 90.0 0 100 0" stroke="black" fill="transparent"
                  transform="translate(826.666667 757.666667) rotate (-4.236395 0 0) scale (0.902466 1)"/>
                  <path
                  d=" M 0 0 10.0 0  C 10.000000 -13.000000 26.000000 18.000000 26.000000 0  S 42.0 12.0 42.0 0  S 58.0 -10.0 58.0 0  S 74.0 14.0 74.0 0  S 90.0 16.0 90.0 0  M 90.0 0 100 0" stroke="black" fill="transparent"
                  transform="translate(916.666667 751.000000) rotate (-53.374259 0 0) scale (0.469338 1)"/>
                  <path
                  d=" M 0 0 10.0 0  C 10.000000 -12.000000 26.000000 19.000000 26.000000 0  S 42.0 18.0 42.0 0  S 58.0 -13.0 58.0 0  S 74.0 13.0 74.0 0  S 90.0 16.0 90.0 0  M 90.0 0 100 0" stroke="black" fill="transparent"
                  transform="translate(613.666667 605.333333) rotate (-70.660889 0 0) scale (0.734794 1)"/>
                  <path
                  d=" M 0 0 10.0 0  C 10.000000 -19.000000 21.428571 11.000000 21.428571 0  S 32.85714285714286 15.0 32.85714285714286 0  S 44.85714285714286 -10.0 44.85714285714286 0  S 56.85714285714286 18.0 56.85714285714286 0  S 68.85714285714286 -16.0 68.85714285714286 0  S 80.85714285714286 14.0 80.85714285714286 0  S 90.0 12.0 90.0 0  M 90.0 0 100 0" stroke="black" fill="transparent"
                  transform="translate(638.000000 536.000000) rotate (1.301953 0 0) scale (0.586818 1)"/>
                  <path
                  d=" M 0 0 10.0 0  C 10.000000 -19.000000 20.000000 11.000000 20.000000 0  S 30.0 12.0 30.0 0  S 40.0 -16.0 40.0 0  S 50.0 13.0 50.0 0  S 60.0 -12.0 60.0 0  S 70.0 14.0 70.0 0  S 80.0 -16.0 80.0 0  S 90.0 10.0 90.0 0  M 90.0 0 100 0" stroke="black" fill="transparent"
                  transform="translate(823.666667 244.333333) rotate (-47.202598 0 0) scale (0.490623 1)"/>
                  <path
                  d=" M 0 0 10.0 0  C 10.000000 -17.000000 21.428571 18.000000 21.428571 0  S 32.85714285714286 17.0 32.85714285714286 0  S 44.85714285714286 -17.0 44.85714285714286 0  S 56.85714285714286 16.0 56.85714285714286 0  S 68.85714285714286 -13.0 68.85714285714286 0  S 80.85714285714286 18.0 80.85714285714286 0  S 90.0 13.0 90.0 0  M 90.0 0 100 0" stroke="black" fill="transparent"
                  transform="translate(952.666667 306.666667) rotate (-87.739498 0 0) scale (0.760592 1)"/>
                  <path
                  d=" M 0 0 10.0 0  C 10.000000 -15.000000 20.000000 11.000000 20.000000 0  S 30.0 18.0 30.0 0  S 40.0 -10.0 40.0 0  S 50.0 19.0 50.0 0  S 60.0 -18.0 60.0 0  S 70.0 15.0 70.0 0  S 80.0 -13.0 80.0 0  S 90.0 11.0 90.0 0  M 90.0 0 100 0" stroke="black" fill="transparent"
                  transform="translate(101.666667 324.333333) rotate (-63.434949 0 0) scale (0.782624 1)"/>
                  <path
                  d=" M 0 0 10.0 0  C 10.000000 -16.000000 26.000000 19.000000 26.000000 0  S 42.0 10.0 42.0 0  S 58.0 -13.0 58.0 0  S 74.0 12.0 74.0 0  S 90.0 18.0 90.0 0  M 90.0 0 100 0" stroke="black" fill="transparent"
                  transform="translate(99.000000 378.666667) rotate (-87.190192 0 0) scale (0.543987 1)"/>
                  <path
                  d=" M 0 0 10.0 0  C 10.000000 -16.000000 23.333333 11.000000 23.333333 0  S 36.66666666666667 15.0 36.66666666666667 0  S 50.66666666666667 -15.0 50.66666666666667 0  S 64.66666666666667 11.0 64.66666666666667 0  S 78.66666666666667 -17.0 78.66666666666667 0  S 90.0 19.0 90.0 0  M 90.0 0 100 0" stroke="black" fill="transparent"
                  transform="translate(517.666667 948.333333) rotate (10.078548 0 0) scale (2.038117 1)"/>
                  <path
                  d=" M 0 0 10.0 0  C 10.000000 -18.000000 23.333333 19.000000 23.333333 0  S 36.66666666666667 19.0 36.66666666666667 0  S 50.66666666666667 -14.0 50.66666666666667 0  S 64.66666666666667 13.0 64.66666666666667 0  S 78.66666666666667 -17.0 78.66666666666667 0  S 90.0 15.0 90.0 0  M 90.0 0 100 0" stroke="black" fill="transparent"
                  transform="translate(553.666667 474.333333) rotate (36.175216 0 0) scale (1.044743 1)"/>
                  <path
                  d=" M 0 0 10.0 0  C 10.000000 -14.000000 20.000000 17.000000 20.000000 0  S 30.0 15.0 30.0 0  S 40.0 -17.0 40.0 0  S 50.0 14.0 50.0 0  S 60.0 -17.0 60.0 0  S 70.0 16.0 70.0 0  S 80.0 -17.0 80.0 0  S 90.0 18.0 90.0 0  M 90.0 0 100 0" stroke="black" fill="transparent"
                  transform="translate(757.000000 143.666667) rotate (90.000000 0 0) scale (0.773333 1)"/>
                  <path
                  d=" M 0 0 10.0 0  C 10.000000 -10.000000 20.000000 16.000000 20.000000 0  S 30.0 10.0 30.0 0  S 40.0 -17.0 40.0 0  S 50.0 12.0 50.0 0  S 60.0 -18.0 60.0 0  S 70.0 15.0 70.0 0  S 80.0 -19.0 80.0 0  S 90.0 11.0 90.0 0  M 90.0 0 100 0" stroke="black" fill="transparent"
                  transform="translate(916.666667 751.000000) rotate (71.464001 0 0) scale (0.597671 1)"/>
                  <path
                  d=" M 0 0 10.0 0  C 10.000000 -14.000000 23.333333 17.000000 23.333333 0  S 36.66666666666667 16.0 36.66666666666667 0  S 50.66666666666667 -14.0 50.66666666666667 0  S 64.66666666666667 14.0 64.66666666666667 0  S 78.66666666666667 -16.0 78.66666666666667 0  S 90.0 16.0 90.0 0  M 90.0 0 100 0" stroke="black" fill="transparent"
                  transform="translate(950.000000 539.666667) rotate (-70.974394 0 0) scale (1.022524 1)"/>
                  <path
                  d=" M 0 0 10.0 0  C 10.000000 -19.000000 23.333333 16.000000 23.333333 0  S 36.66666666666667 19.0 36.66666666666667 0  S 50.66666666666667 -15.0 50.66666666666667 0  S 64.66666666666667 12.0 64.66666666666667 0  S 78.66666666666667 -16.0 78.66666666666667 0  S 90.0 19.0 90.0 0  M 90.0 0 100 0" stroke="black" fill="transparent"
                  transform="translate(910.000000 490.666667) rotate (-69.290962 0 0) scale (0.584428 1)"/>
                  <path
                  d=" M 0 0 10.0 0  C 10.000000 -13.000000 23.333333 13.000000 23.333333 0  S 36.66666666666667 13.0 36.66666666666667 0  S 50.66666666666667 -10.0 50.66666666666667 0  S 64.66666666666667 13.0 64.66666666666667 0  S 78.66666666666667 -18.0 78.66666666666667 0  S 90.0 19.0 90.0 0  M 90.0 0 100 0" stroke="black" fill="transparent"
                  transform="translate(935.666667 807.666667) rotate (-72.034678 0 0) scale (1.286036 1)"/>
                  <path
                  d=" M 0 0 10.0 0  C 10.000000 -12.000000 23.333333 16.000000 23.333333 0  S 36.66666666666667 11.0 36.66666666666667 0  S 50.66666666666667 -12.0 50.66666666666667 0  S 64.66666666666667 19.0 64.66666666666667 0  S 78.66666666666667 -17.0 78.66666666666667 0  S 90.0 16.0 90.0 0  M 90.0 0 100 0" stroke="black" fill="transparent"
                  transform="translate(950.000000 539.666667) rotate (80.134193 0 0) scale (1.478532 1)"/>
                  <path
                  d=" M 0 0 10.0 0  C 10.000000 -13.000000 20.000000 10.000000 20.000000 0  S 30.0 16.0 30.0 0  S 40.0 -15.0 40.0 0  S 50.0 15.0 50.0 0  S 60.0 -19.0 60.0 0  S 70.0 19.0 70.0 0  S 80.0 -17.0 80.0 0  S 90.0 11.0 90.0 0  M 90.0 0 100 0" stroke="black" fill="transparent"
                  transform="translate(61.000000 834.666667) rotate (-78.726985 0 0) scale (2.029149 1)"/>
                  <ellipse
      cx="400.00"
      cy="400.00"
      rx="100"
      ry="100"
      stroke="#fc8d62"
      stroke-width="1"
      fill="transparent"
    /><ellipse
      cx="700.00"
      cy="800.00"
      rx="50"
      ry="50"
      stroke="#fc8d62"
      stroke-width="1"
      fill="transparent"
    /><ellipse
      cx="500.00"
      cy="400.00"
      rx="3"
      ry="3"
      stroke="#fc8d62"
      stroke-width="1"
      fill="transparent"
    /><ellipse
      cx="300.00"
      cy="400.00"
      rx="3"
      ry="3"
      stroke="#fc8d62"
      stroke-width="1"
      fill="transparent"
    /><ellipse
      cx="400.00"
      cy="300.00"
      rx="3"
      ry="3"
      stroke="#fc8d62"
      stroke-width="1"
      fill="transparent"
    /><ellipse
      cx="400.00"
      cy="500.00"
      rx="3"
      ry="3"
      stroke="#fc8d62"
      stroke-width="1"
      fill="transparent"
    /><ellipse
      cx="700.00"
      cy="750.00"
      rx="3"
      ry="3"
      stroke="#fc8d62"
      stroke-width="1"
      fill="transparent"
    /><ellipse
      cx="700.00"
      cy="850.00"
      rx="3"
      ry="3"
      stroke="#fc8d62"
      stroke-width="1"
      fill="transparent"
    /><ellipse
      cx="650.00"
      cy="800.00"
      rx="3"
      ry="3"
      stroke="#fc8d62"
      stroke-width="1"
      fill="transparent"
    /><ellipse
      cx="750.00"
      cy="800.00"
      rx="3"
      ry="3"
      stroke="#fc8d62"
      stroke-width="1"
      fill="transparent"
    />
</svg>
