<svg xmlns="http://www.w3.org/2000/svg"
  xmlns:xlink="http://www.w3.org/1999/xlink"
  width="1000" height="1000">
<path
                  d=" M 0 0 10.0 0  C 10.000000 -17.000000 20.000000 17.000000 20.000000 0  S 30.0 17.0 30.0 0  S 40.0 -10.0 40.0 0  S 50.0 19.0 50.0 0  S 60.0 -10.0 60.0 0  S 70.0 11.0 70.0 0  S 80.0 -18.0 80.0 0  S 90.0 19.0 90.0 0  M 90.0 0 100 0" stroke="black" fill="transparent"
                  transform="translate(317.000000 245.000000) rotate (-8.046091 0 0) scale (1.285993 1)"/>
                  <path
                  d=" M 0 0 10.0 0  C 10.000000 -11.000000 23.333333 15.000000 23.333333 0  S 36.66666666666667 16.0 36.66666666666667 0  S 50.66666666666667 -18.0 50.66666666666667 0  S 64.66666666666667 16.0 64.66666666666667 0  S 78.66666666666667 -11.0 78.66666666666667 0  S 90.0 19.0 90.0 0  M 90.0 0 100 0" stroke="black" fill="transparent"
                  transform="translate(216.666667 344.666667) rotate (-44.809015 0 0) scale (1.414221 1)"/>
                  <path
                  d=" M 0 0 10.0 0  C 10.000000 -11.000000 26.000000 13.000000 26.000000 0  S 42.0 11.0 42.0 0  S 58.0 -19.0 58.0 0  S 74.0 10.0 74.0 0  S 90.0 12.0 90.0 0  M 90.0 0 100 0" stroke="black" fill="transparent"
                  transform="translate(185.000000 413.666667) rotate (-65.347849 0 0) scale (0.759195 1)"/>
                  <path
                  d=" M 0 0 10.0 0  C 10.000000 -15.000000 21.428571 10.000000 21.428571 0  S 32.85714285714286 18.0 32.85714285714286 0  S 44.85714285714286 -15.0 44.85714285714286 0  S 56.85714285714286 13.0 56.85714285714286 0  S 68.85714285714286 -14.0 68.85714285714286 0  S 80.85714285714286 17.0 80.85714285714286 0  S 90.0 18.0 90.0 0  M 90.0 0 100 0" stroke="black" fill="transparent"
                  transform="translate(185.000000 413.666667) rotate (60.484170 0 0) scale (0.723955 1)"/>
                  <path
                  d=" M 0 0 10.0 0  C 10.000000 -14.000000 20.000000 17.000000 20.000000 0  S 30.0 18.0 30.0 0  S 40.0 -16.0 40.0 0  S 50.0 19.0 50.0 0  S 60.0 -12.0 60.0 0  S 70.0 14.0 70.0 0  S 80.0 -17.0 80.0 0  S 90.0 19.0 90.0 0  M 90.0 0 100 0" stroke="black" fill="transparent"
                  transform="translate(220.666667 476.666667) rotate (44.714949 0 0) scale (0.947535 1)"/>
                  <path
                  d=" M 0 0 10.0 0  C 10.000000 -18.000000 23.333333 16.000000 23.333333 0  S 36.66666666666667 17.0 36.66666666666667 0  S 50.66666666666667 -12.0 50.66666666666667 0  S 64.66666666666667 15.0 64.66666666666667 0  S 78.66666666666667 -15.0 78.66666666666667 0  S 90.0 17.0 90.0 0  M 90.0 0 100 0" stroke="black" fill="transparent"
                  transform="translate(288.000000 543.333333) rotate (32.704734 0 0) scale (0.752655 1)"/>
                  <path
                  d=" M 0 0 10.0 0  C 10.000000 -15.000000 23.333333 13.000000 23.333333 0  S 36.66666666666667 14.0 36.66666666666667 0  S 50.66666666666667 -12.0 50.66666666666667 0  S 64.66666666666667 10.0 64.66666666666667 0  S 78.66666666666667 -14.0 78.66666666666667 0  S 90.0 19.0 90.0 0  M 90.0 0 100 0" stroke="black" fill="transparent"
                  transform="translate(351.333333 584.000000) rotate (5.935171 0 0) scale (0.676962 1)"/>
                  <path
                  d=" M 0 0 10.0 0  C 10.000000 -10.000000 20.000000 15.000000 20.000000 0  S 30.0 15.0 30.0 0  S 40.0 -12.0 40.0 0  S 50.0 19.0 50.0 0  S 60.0 -15.0 60.0 0  S 70.0 17.0 70.0 0  S 80.0 -19.0 80.0 0  S 90.0 12.0 90.0 0  M 90.0 0 100 0" stroke="black" fill="transparent"
                  transform="translate(418.666667 591.000000) rotate (-20.944778 0 0) scale (1.035058 1)"/>
                  <path
                  d=" M 0 0 10.0 0  C 10.000000 -17.000000 20.000000 15.000000 20.000000 0  S 30.0 14.0 30.0 0  S 40.0 -15.0 40.0 0  S 50.0 17.0 50.0 0  S 60.0 -11.0 60.0 0  S 70.0 16.0 70.0 0  S 80.0 -16.0 80.0 0  S 90.0 17.0 90.0 0  M 90.0 0 100 0" stroke="black" fill="transparent"
                  transform="translate(515.333333 554.000000) rotate (-47.050286 0 0) scale (0.988225 1)"/>
                  <path
                  d=" M 0 0 10.0 0  C 10.000000 -19.000000 23.333333 17.000000 23.333333 0  S 36.66666666666667 16.0 36.66666666666667 0  S 50.66666666666667 -11.0 50.66666666666667 0  S 64.66666666666667 12.0 64.66666666666667 0  S 78.66666666666667 -18.0 78.66666666666667 0  S 90.0 14.0 90.0 0  M 90.0 0 100 0" stroke="black" fill="transparent"
                  transform="translate(582.666667 481.666667) rotate (-83.080467 0 0) scale (0.691705 1)"/>
                  <path
                  d=" M 0 0 10.0 0  C 10.000000 -17.000000 26.000000 13.000000 26.000000 0  S 42.0 13.0 42.0 0  S 58.0 -15.0 58.0 0  S 74.0 15.0 74.0 0  S 90.0 17.0 90.0 0  M 90.0 0 100 0" stroke="black" fill="transparent"
                  transform="translate(548.000000 324.666667) rotate (64.043531 0 0) scale (0.982435 1)"/>
                  <path
                  d=" M 0 0 10.0 0  C 10.000000 -12.000000 21.428571 17.000000 21.428571 0  S 32.85714285714286 13.0 32.85714285714286 0  S 44.85714285714286 -12.0 44.85714285714286 0  S 56.85714285714286 14.0 56.85714285714286 0  S 68.85714285714286 -11.0 68.85714285714286 0  S 80.85714285714286 15.0 80.85714285714286 0  S 90.0 14.0 90.0 0  M 90.0 0 100 0" stroke="black" fill="transparent"
                  transform="translate(444.333333 227.000000) rotate (43.293015 0 0) scale (1.424274 1)"/>
                  <path
                  d=" M 0 0 10.0 0  C 10.000000 -13.000000 20.000000 13.000000 20.000000 0  S 30.0 10.0 30.0 0  S 40.0 -10.0 40.0 0  S 50.0 16.0 50.0 0  S 60.0 -16.0 60.0 0  S 70.0 13.0 70.0 0  S 80.0 -17.0 80.0 0  S 90.0 13.0 90.0 0  M 90.0 0 100 0" stroke="black" fill="transparent"
                  transform="translate(619.333333 794.666667) rotate (-72.169299 0 0) scale (1.099480 1)"/>
                  <path
                  d=" M 0 0 10.0 0  C 10.000000 -14.000000 26.000000 10.000000 26.000000 0  S 42.0 15.0 42.0 0  S 58.0 -14.0 58.0 0  S 74.0 12.0 74.0 0  S 90.0 15.0 90.0 0  M 90.0 0 100 0" stroke="black" fill="transparent"
                  transform="translate(653.000000 690.000000) rotate (-30.914744 0 0) scale (0.668273 1)"/>
                  <path
                  d=" M 0 0 10.0 0  C 10.000000 -14.000000 26.000000 13.000000 26.000000 0  S 42.0 17.0 42.0 0  S 58.0 -13.0 58.0 0  S 74.0 14.0 74.0 0  S 90.0 16.0 90.0 0  M 90.0 0 100 0" stroke="black" fill="transparent"
                  transform="translate(710.333333 655.666667) rotate (27.373607 0 0) scale (0.739467 1)"/>
                  <path
                  d=" M 0 0 10.0 0  C 10.000000 -18.000000 21.428571 14.000000 21.428571 0  S 32.85714285714286 16.0 32.85714285714286 0  S 44.85714285714286 -19.0 44.85714285714286 0  S 56.85714285714286 18.0 56.85714285714286 0  S 68.85714285714286 -15.0 68.85714285714286 0  S 80.85714285714286 16.0 80.85714285714286 0  S 90.0 19.0 90.0 0  M 90.0 0 100 0" stroke="black" fill="transparent"
                  transform="translate(776.000000 689.666667) rotate (56.986357 0 0) scale (0.783106 1)"/>
                  <path
                  d=" M 0 0 10.0 0  C 10.000000 -11.000000 23.333333 18.000000 23.333333 0  S 36.66666666666667 11.0 36.66666666666667 0  S 50.66666666666667 -17.0 50.66666666666667 0  S 64.66666666666667 15.0 64.66666666666667 0  S 78.66666666666667 -18.0 78.66666666666667 0  S 90.0 18.0 90.0 0  M 90.0 0 100 0" stroke="black" fill="transparent"
                  transform="translate(818.666667 755.333333) rotate (88.538690 0 0) scale (0.653546 1)"/>
                  <path
                  d=" M 0 0 10.0 0  C 10.000000 -16.000000 23.333333 14.000000 23.333333 0  S 36.66666666666667 15.0 36.66666666666667 0  S 50.66666666666667 -10.0 50.66666666666667 0  S 64.66666666666667 14.0 64.66666666666667 0  S 78.66666666666667 -11.0 78.66666666666667 0  S 90.0 15.0 90.0 0  M 90.0 0 100 0" stroke="black" fill="transparent"
                  transform="translate(782.333333 882.666667) rotate (-58.495733 0 0) scale (0.727186 1)"/>
                  <path
                  d=" M 0 0 10.0 0  C 10.000000 -15.000000 26.000000 18.000000 26.000000 0  S 42.0 12.0 42.0 0  S 58.0 -14.0 58.0 0  S 74.0 11.0 74.0 0  S 90.0 10.0 90.0 0  M 90.0 0 100 0" stroke="black" fill="transparent"
                  transform="translate(723.666667 911.666667) rotate (-26.304024 0 0) scale (0.654429 1)"/>
                  <path
                  d=" M 0 0 10.0 0  C 10.000000 -12.000000 21.428571 12.000000 21.428571 0  S 32.85714285714286 17.0 32.85714285714286 0  S 44.85714285714286 -19.0 44.85714285714286 0  S 56.85714285714286 13.0 56.85714285714286 0  S 68.85714285714286 -14.0 68.85714285714286 0  S 80.85714285714286 13.0 80.85714285714286 0  S 90.0 13.0 90.0 0  M 90.0 0 100 0" stroke="black" fill="transparent"
                  transform="translate(649.666667 889.000000) rotate (17.030157 0 0) scale (0.773937 1)"/>
                  <path
                  d=" M 0 0 10.0 0  C 10.000000 -11.000000 23.333333 19.000000 23.333333 0  S 36.66666666666667 15.0 36.66666666666667 0  S 50.66666666666667 -10.0 50.66666666666667 0  S 64.66666666666667 13.0 64.66666666666667 0  S 78.66666666666667 -15.0 78.66666666666667 0  S 90.0 16.0 90.0 0  M 90.0 0 100 0" stroke="black" fill="transparent"
                  transform="translate(619.333333 794.666667) rotate (72.174558 0 0) scale (0.990903 1)"/>
                  <path
                  d=" M 0 0 10.0 0  C 10.000000 -13.000000 21.428571 18.000000 21.428571 0  S 32.85714285714286 11.0 32.85714285714286 0  S 44.85714285714286 -19.0 44.85714285714286 0  S 56.85714285714286 12.0 56.85714285714286 0  S 68.85714285714286 -17.0 68.85714285714286 0  S 80.85714285714286 12.0 80.85714285714286 0  S 90.0 12.0 90.0 0  M 90.0 0 100 0" stroke="black" fill="transparent"
                  transform="translate(194.666667 87.000000) rotate (82.911524 0 0) scale (0.648288 1)"/>
                  <path
                  d=" M 0 0 10.0 0  C 10.000000 -10.000000 23.333333 11.000000 23.333333 0  S 36.66666666666667 12.0 36.66666666666667 0  S 50.66666666666667 -13.0 50.66666666666667 0  S 64.66666666666667 17.0 64.66666666666667 0  S 78.66666666666667 -11.0 78.66666666666667 0  S 90.0 10.0 90.0 0  M 90.0 0 100 0" stroke="black" fill="transparent"
                  transform="translate(132.333333 89.333333) rotate (-2.143761 0 0) scale (0.623770 1)"/>
                  <path
                  d=" M 0 0 10.0 0  C 10.000000 -13.000000 20.000000 18.000000 20.000000 0  S 30.0 18.0 30.0 0  S 40.0 -14.0 40.0 0  S 50.0 11.0 50.0 0  S 60.0 -17.0 60.0 0  S 70.0 12.0 70.0 0  S 80.0 -13.0 80.0 0  S 90.0 15.0 90.0 0  M 90.0 0 100 0" stroke="black" fill="transparent"
                  transform="translate(106.333333 132.666667) rotate (-59.036243 0 0) scale (0.505349 1)"/>
                  <path
                  d=" M 0 0 10.0 0  C 10.000000 -11.000000 23.333333 11.000000 23.333333 0  S 36.66666666666667 16.0 36.66666666666667 0  S 50.66666666666667 -12.0 50.66666666666667 0  S 64.66666666666667 17.0 64.66666666666667 0  S 78.66666666666667 -15.0 78.66666666666667 0  S 90.0 17.0 90.0 0  M 90.0 0 100 0" stroke="black" fill="transparent"
                  transform="translate(106.333333 132.666667) rotate (66.260559 0 0) scale (0.695517 1)"/>
                  <path
                  d=" M 0 0 10.0 0  C 10.000000 -10.000000 21.428571 14.000000 21.428571 0  S 32.85714285714286 16.0 32.85714285714286 0  S 44.85714285714286 -16.0 44.85714285714286 0  S 56.85714285714286 18.0 56.85714285714286 0  S 68.85714285714286 -14.0 68.85714285714286 0  S 80.85714285714286 13.0 80.85714285714286 0  S 90.0 17.0 90.0 0  M 90.0 0 100 0" stroke="black" fill="transparent"
                  transform="translate(134.333333 196.333333) rotate (-33.366366 0 0) scale (0.818196 1)"/>
                  <path
                  d=" M 0 0 10.0 0  C 10.000000 -17.000000 21.428571 19.000000 21.428571 0  S 32.85714285714286 13.0 32.85714285714286 0  S 44.85714285714286 -10.0 44.85714285714286 0  S 56.85714285714286 18.0 56.85714285714286 0  S 68.85714285714286 -12.0 68.85714285714286 0  S 80.85714285714286 15.0 80.85714285714286 0  S 90.0 18.0 90.0 0  M 90.0 0 100 0" stroke="black" fill="transparent"
                  transform="translate(115.666667 942.000000) rotate (28.319734 0 0) scale (0.681575 1)"/>
                  <path
                  d=" M 0 0 10.0 0  C 10.000000 -14.000000 20.000000 16.000000 20.000000 0  S 30.0 13.0 30.0 0  S 40.0 -17.0 40.0 0  S 50.0 17.0 50.0 0  S 60.0 -14.0 60.0 0  S 70.0 13.0 70.0 0  S 80.0 -16.0 80.0 0  S 90.0 19.0 90.0 0  M 90.0 0 100 0" stroke="black" fill="transparent"
                  transform="translate(810.000000 404.000000) rotate (41.987212 0 0) scale (0.538145 1)"/>
                  <path
                  d=" M 0 0 10.0 0  C 10.000000 -12.000000 23.333333 19.000000 23.333333 0  S 36.66666666666667 10.0 36.66666666666667 0  S 50.66666666666667 -18.0 50.66666666666667 0  S 64.66666666666667 15.0 64.66666666666667 0  S 78.66666666666667 -10.0 78.66666666666667 0  S 90.0 10.0 90.0 0  M 90.0 0 100 0" stroke="black" fill="transparent"
                  transform="translate(837.666667 510.666667) rotate (-80.099980 0 0) scale (0.717349 1)"/>
                  <path
                  d=" M 0 0 10.0 0  C 10.000000 -14.000000 20.000000 16.000000 20.000000 0  S 30.0 12.0 30.0 0  S 40.0 -16.0 40.0 0  S 50.0 10.0 50.0 0  S 60.0 -14.0 60.0 0  S 70.0 10.0 70.0 0  S 80.0 -13.0 80.0 0  S 90.0 10.0 90.0 0  M 90.0 0 100 0" stroke="black" fill="transparent"
                  transform="translate(797.000000 548.000000) rotate (-42.552951 0 0) scale (0.552047 1)"/>
                  <path
                  d=" M 0 0 10.0 0  C 10.000000 -18.000000 26.000000 10.000000 26.000000 0  S 42.0 11.0 42.0 0  S 58.0 -13.0 58.0 0  S 74.0 13.0 74.0 0  S 90.0 12.0 90.0 0  M 90.0 0 100 0" stroke="black" fill="transparent"
                  transform="translate(740.000000 503.333333) rotate (38.083163 0 0) scale (0.724162 1)"/>
                  <path
                  d=" M 0 0 10.0 0  C 10.000000 -15.000000 26.000000 12.000000 26.000000 0  S 42.0 12.0 42.0 0  S 58.0 -16.0 58.0 0  S 74.0 18.0 74.0 0  S 90.0 15.0 90.0 0  M 90.0 0 100 0" stroke="black" fill="transparent"
                  transform="translate(712.666667 435.000000) rotate (68.198591 0 0) scale (0.735973 1)"/>
                  <path
                  d=" M 0 0 10.0 0  C 10.000000 -10.000000 21.428571 13.000000 21.428571 0  S 32.85714285714286 19.0 32.85714285714286 0  S 44.85714285714286 -19.0 44.85714285714286 0  S 56.85714285714286 13.0 56.85714285714286 0  S 68.85714285714286 -11.0 68.85714285714286 0  S 80.85714285714286 14.0 80.85714285714286 0  S 90.0 14.0 90.0 0  M 90.0 0 100 0" stroke="black" fill="transparent"
                  transform="translate(712.666667 435.000000) rotate (-49.063366 0 0) scale (0.432422 1)"/>
                  <path
                  d=" M 0 0 10.0 0  C 10.000000 -12.000000 21.428571 19.000000 21.428571 0  S 32.85714285714286 18.0 32.85714285714286 0  S 44.85714285714286 -10.0 44.85714285714286 0  S 56.85714285714286 15.0 56.85714285714286 0  S 68.85714285714286 -11.0 68.85714285714286 0  S 80.85714285714286 19.0 80.85714285714286 0  S 90.0 12.0 90.0 0  M 90.0 0 100 0" stroke="black" fill="transparent"
                  transform="translate(741.000000 402.333333) rotate (1.383687 0 0) scale (0.690201 1)"/>
                  <path
                  d=" M 0 0 10.0 0  C 10.000000 -10.000000 21.428571 15.000000 21.428571 0  S 32.85714285714286 17.0 32.85714285714286 0  S 44.85714285714286 -19.0 44.85714285714286 0  S 56.85714285714286 14.0 56.85714285714286 0  S 68.85714285714286 -15.0 68.85714285714286 0  S 80.85714285714286 15.0 80.85714285714286 0  S 90.0 10.0 90.0 0  M 90.0 0 100 0" stroke="black" fill="transparent"
                  transform="translate(913.000000 223.666667) rotate (53.049062 0 0) scale (0.471334 1)"/>
                  <path
                  d=" M 0 0 10.0 0  C 10.000000 -11.000000 26.000000 13.000000 26.000000 0  S 42.0 18.0 42.0 0  S 58.0 -18.0 58.0 0  S 74.0 19.0 74.0 0  S 90.0 10.0 90.0 0  M 90.0 0 100 0" stroke="black" fill="transparent"
                  transform="translate(941.333333 261.333333) rotate (-66.708447 0 0) scale (0.809286 1)"/>
                  <path
                  d=" M 0 0 10.0 0  C 10.000000 -11.000000 26.000000 10.000000 26.000000 0  S 42.0 14.0 42.0 0  S 58.0 -19.0 58.0 0  S 74.0 18.0 74.0 0  S 90.0 13.0 90.0 0  M 90.0 0 100 0" stroke="black" fill="transparent"
                  transform="translate(935.333333 119.000000) rotate (60.802514 0 0) scale (0.778974 1)"/>
                  <path
                  d=" M 0 0 10.0 0  C 10.000000 -15.000000 26.000000 13.000000 26.000000 0  S 42.0 12.0 42.0 0  S 58.0 -14.0 58.0 0  S 74.0 12.0 74.0 0  S 90.0 19.0 90.0 0  M 90.0 0 100 0" stroke="black" fill="transparent"
                  transform="translate(899.333333 155.333333) rotate (-45.264034 0 0) scale (0.511479 1)"/>
                  <path
                  d=" M 0 0 10.0 0  C 10.000000 -12.000000 21.428571 10.000000 21.428571 0  S 32.85714285714286 17.0 32.85714285714286 0  S 44.85714285714286 -12.0 44.85714285714286 0  S 56.85714285714286 13.0 56.85714285714286 0  S 68.85714285714286 -14.0 68.85714285714286 0  S 80.85714285714286 15.0 80.85714285714286 0  S 90.0 19.0 90.0 0  M 90.0 0 100 0" stroke="black" fill="transparent"
                  transform="translate(899.333333 155.333333) rotate (78.690068 0 0) scale (0.696866 1)"/>
                  <path
                  d=" M 0 0 10.0 0  C 10.000000 -13.000000 26.000000 18.000000 26.000000 0  S 42.0 15.0 42.0 0  S 58.0 -13.0 58.0 0  S 74.0 15.0 74.0 0  S 90.0 19.0 90.0 0  M 90.0 0 100 0" stroke="black" fill="transparent"
                  transform="translate(75.333333 464.000000) rotate (-24.653541 0 0) scale (1.206657 1)"/>
                  <path
                  d=" M 0 0 10.0 0  C 10.000000 -13.000000 26.000000 11.000000 26.000000 0  S 42.0 16.0 42.0 0  S 58.0 -11.0 58.0 0  S 74.0 12.0 74.0 0  S 90.0 19.0 90.0 0  M 90.0 0 100 0" stroke="black" fill="transparent"
                  transform="translate(75.333333 464.000000) rotate (60.484170 0 0) scale (0.723955 1)"/>
                  <path
                  d=" M 0 0 10.0 0  C 10.000000 -18.000000 26.000000 11.000000 26.000000 0  S 42.0 12.0 42.0 0  S 58.0 -15.0 58.0 0  S 74.0 13.0 74.0 0  S 90.0 19.0 90.0 0  M 90.0 0 100 0" stroke="black" fill="transparent"
                  transform="translate(111.000000 527.000000) rotate (-24.653541 0 0) scale (1.206657 1)"/>
                  <path
                  d=" M 0 0 10.0 0  C 10.000000 -15.000000 26.000000 10.000000 26.000000 0  S 42.0 18.0 42.0 0  S 58.0 -11.0 58.0 0  S 74.0 10.0 74.0 0  S 90.0 18.0 90.0 0  M 90.0 0 100 0" stroke="black" fill="transparent"
                  transform="translate(80.000000 789.333333) rotate (45.000000 0 0) scale (0.386552 1)"/>
                  <path
                  d=" M 0 0 10.0 0  C 10.000000 -12.000000 20.000000 10.000000 20.000000 0  S 30.0 13.0 30.0 0  S 40.0 -12.0 40.0 0  S 50.0 14.0 50.0 0  S 60.0 -14.0 60.0 0  S 70.0 10.0 70.0 0  S 80.0 -13.0 80.0 0  S 90.0 17.0 90.0 0  M 90.0 0 100 0" stroke="black" fill="transparent"
                  transform="translate(80.000000 789.333333) rotate (-55.944220 0 0) scale (0.434524 1)"/>
                  <path
                  d=" M 0 0 10.0 0  C 10.000000 -13.000000 26.000000 12.000000 26.000000 0  S 42.0 12.0 42.0 0  S 58.0 -17.0 58.0 0  S 74.0 17.0 74.0 0  S 90.0 18.0 90.0 0  M 90.0 0 100 0" stroke="black" fill="transparent"
                  transform="translate(104.333333 753.333333) rotate (87.288017 0 0) scale (0.634043 1)"/>
                  <path
                  d=" M 0 0 10.0 0  C 10.000000 -14.000000 26.000000 15.000000 26.000000 0  S 42.0 14.0 42.0 0  S 58.0 -11.0 58.0 0  S 74.0 18.0 74.0 0  S 90.0 11.0 90.0 0  M 90.0 0 100 0" stroke="black" fill="transparent"
                  transform="translate(703.333333 146.000000) rotate (-48.613881 0 0) scale (0.448727 1)"/>
                  <path
                  d=" M 0 0 10.0 0  C 10.000000 -19.000000 26.000000 14.000000 26.000000 0  S 42.0 14.0 42.0 0  S 58.0 -17.0 58.0 0  S 74.0 14.0 74.0 0  S 90.0 11.0 90.0 0  M 90.0 0 100 0" stroke="black" fill="transparent"
                  transform="translate(639.000000 155.000000) rotate (-7.963787 0 0) scale (0.649598 1)"/>
                  <path
                  d=" M 0 0 10.0 0  C 10.000000 -11.000000 20.000000 19.000000 20.000000 0  S 30.0 15.0 30.0 0  S 40.0 -13.0 40.0 0  S 50.0 14.0 50.0 0  S 60.0 -14.0 60.0 0  S 70.0 14.0 70.0 0  S 80.0 -17.0 80.0 0  S 90.0 17.0 90.0 0  M 90.0 0 100 0" stroke="black" fill="transparent"
                  transform="translate(591.333333 117.000000) rotate (38.561950 0 0) scale (0.609599 1)"/>
                  <path
                  d=" M 0 0 10.0 0  C 10.000000 -19.000000 26.000000 13.000000 26.000000 0  S 42.0 17.0 42.0 0  S 58.0 -15.0 58.0 0  S 74.0 19.0 74.0 0  S 90.0 19.0 90.0 0  M 90.0 0 100 0" stroke="black" fill="transparent"
                  transform="translate(591.333333 117.000000) rotate (-27.561399 0 0) scale (0.857289 1)"/>
                  <path
                  d=" M 0 0 10.0 0  C 10.000000 -10.000000 21.428571 18.000000 21.428571 0  S 32.85714285714286 17.0 32.85714285714286 0  S 44.85714285714286 -15.0 44.85714285714286 0  S 56.85714285714286 12.0 56.85714285714286 0  S 68.85714285714286 -18.0 68.85714285714286 0  S 80.85714285714286 19.0 80.85714285714286 0  S 90.0 10.0 90.0 0  M 90.0 0 100 0" stroke="black" fill="transparent"
                  transform="translate(667.333333 77.333333) rotate (28.057389 0 0) scale (0.744118 1)"/>
                  <path
                  d=" M 0 0 10.0 0  C 10.000000 -10.000000 23.333333 10.000000 23.333333 0  S 36.66666666666667 12.0 36.66666666666667 0  S 50.66666666666667 -10.0 50.66666666666667 0  S 64.66666666666667 15.0 64.66666666666667 0  S 78.66666666666667 -17.0 78.66666666666667 0  S 90.0 10.0 90.0 0  M 90.0 0 100 0" stroke="black" fill="transparent"
                  transform="translate(207.333333 733.333333) rotate (-43.849637 0 0) scale (0.587017 1)"/>
                  <path
                  d=" M 0 0 10.0 0  C 10.000000 -15.000000 23.333333 14.000000 23.333333 0  S 36.66666666666667 15.0 36.66666666666667 0  S 50.66666666666667 -14.0 50.66666666666667 0  S 64.66666666666667 17.0 64.66666666666667 0  S 78.66666666666667 -15.0 78.66666666666667 0  S 90.0 17.0 90.0 0  M 90.0 0 100 0" stroke="black" fill="transparent"
                  transform="translate(216.666667 626.666667) rotate (63.434949 0 0) scale (0.737902 1)"/>
                  <path
                  d=" M 0 0 10.0 0  C 10.000000 -14.000000 23.333333 14.000000 23.333333 0  S 36.66666666666667 14.0 36.66666666666667 0  S 50.66666666666667 -16.0 50.66666666666667 0  S 64.66666666666667 17.0 64.66666666666667 0  S 78.66666666666667 -18.0 78.66666666666667 0  S 90.0 19.0 90.0 0  M 90.0 0 100 0" stroke="black" fill="transparent"
                  transform="translate(146.333333 591.333333) rotate (26.673566 0 0) scale (0.787097 1)"/>
                  <path
                  d=" M 0 0 10.0 0  C 10.000000 -19.000000 23.333333 10.000000 23.333333 0  S 36.66666666666667 10.0 36.66666666666667 0  S 50.66666666666667 -14.0 50.66666666666667 0  S 64.66666666666667 13.0 64.66666666666667 0  S 78.66666666666667 -13.0 78.66666666666667 0  S 90.0 17.0 90.0 0  M 90.0 0 100 0" stroke="black" fill="transparent"
                  transform="translate(110.000000 632.666667) rotate (-48.683486 0 0) scale (0.550323 1)"/>
                  <path
                  d=" M 0 0 10.0 0  C 10.000000 -19.000000 26.000000 19.000000 26.000000 0  S 42.0 13.0 42.0 0  S 58.0 -17.0 58.0 0  S 74.0 17.0 74.0 0  S 90.0 19.0 90.0 0  M 90.0 0 100 0" stroke="black" fill="transparent"
                  transform="translate(110.000000 632.666667) rotate (69.775141 0 0) scale (0.809938 1)"/>
                  <path
                  d=" M 0 0 10.0 0  C 10.000000 -19.000000 20.000000 18.000000 20.000000 0  S 30.0 12.0 30.0 0  S 40.0 -15.0 40.0 0  S 50.0 16.0 50.0 0  S 60.0 -11.0 60.0 0  S 70.0 13.0 70.0 0  S 80.0 -12.0 80.0 0  S 90.0 15.0 90.0 0  M 90.0 0 100 0" stroke="black" fill="transparent"
                  transform="translate(138.000000 708.666667) rotate (19.583994 0 0) scale (0.735905 1)"/>
                  <path
                  d=" M 0 0 10.0 0  C 10.000000 -15.000000 21.428571 11.000000 21.428571 0  S 32.85714285714286 12.0 32.85714285714286 0  S 44.85714285714286 -14.0 44.85714285714286 0  S 56.85714285714286 10.0 56.85714285714286 0  S 68.85714285714286 -12.0 68.85714285714286 0  S 80.85714285714286 14.0 80.85714285714286 0  S 90.0 14.0 90.0 0  M 90.0 0 100 0" stroke="black" fill="transparent"
                  transform="translate(490.666667 857.333333) rotate (-56.183591 0 0) scale (0.838524 1)"/>
                  <path
                  d=" M 0 0 10.0 0  C 10.000000 -17.000000 23.333333 13.000000 23.333333 0  S 36.66666666666667 16.0 36.66666666666667 0  S 50.66666666666667 -13.0 50.66666666666667 0  S 64.66666666666667 14.0 64.66666666666667 0  S 78.66666666666667 -15.0 78.66666666666667 0  S 90.0 18.0 90.0 0  M 90.0 0 100 0" stroke="black" fill="transparent"
                  transform="translate(537.333333 787.666667) rotate (4.879274 0 0) scale (0.822982 1)"/>
                  <path
                  d=" M 0 0 10.0 0  C 10.000000 -18.000000 26.000000 17.000000 26.000000 0  S 42.0 18.0 42.0 0  S 58.0 -19.0 58.0 0  S 74.0 14.0 74.0 0  S 90.0 13.0 90.0 0  M 90.0 0 100 0" stroke="black" fill="transparent"
                  transform="translate(604.666667 942.333333) rotate (-49.844000 0 0) scale (0.697814 1)"/>
                  <path
                  d=" M 0 0 10.0 0  C 10.000000 -11.000000 26.000000 14.000000 26.000000 0  S 42.0 12.0 42.0 0  S 58.0 -19.0 58.0 0  S 74.0 15.0 74.0 0  S 90.0 12.0 90.0 0  M 90.0 0 100 0" stroke="black" fill="transparent"
                  transform="translate(527.666667 917.666667) rotate (17.762669 0 0) scale (0.808545 1)"/>
                  <path
                  d=" M 0 0 10.0 0  C 10.000000 -10.000000 23.333333 19.000000 23.333333 0  S 36.66666666666667 14.0 36.66666666666667 0  S 50.66666666666667 -12.0 50.66666666666667 0  S 64.66666666666667 14.0 64.66666666666667 0  S 78.66666666666667 -16.0 78.66666666666667 0  S 90.0 18.0 90.0 0  M 90.0 0 100 0" stroke="black" fill="transparent"
                  transform="translate(490.666667 857.333333) rotate (58.480890 0 0) scale (0.707751 1)"/>
                  <path
                  d=" M 0 0 10.0 0  C 10.000000 -19.000000 20.000000 19.000000 20.000000 0  S 30.0 15.0 30.0 0  S 40.0 -18.0 40.0 0  S 50.0 12.0 50.0 0  S 60.0 -18.0 60.0 0  S 70.0 15.0 70.0 0  S 80.0 -12.0 80.0 0  S 90.0 12.0 90.0 0  M 90.0 0 100 0" stroke="black" fill="transparent"
                  transform="translate(810.000000 404.000000) rotate (-79.875328 0 0) scale (0.568859 1)"/>
                  <path
                  d=" M 0 0 10.0 0  C 10.000000 -19.000000 21.428571 11.000000 21.428571 0  S 32.85714285714286 12.0 32.85714285714286 0  S 44.85714285714286 -16.0 44.85714285714286 0  S 56.85714285714286 10.0 56.85714285714286 0  S 68.85714285714286 -17.0 68.85714285714286 0  S 80.85714285714286 13.0 80.85714285714286 0  S 90.0 15.0 90.0 0  M 90.0 0 100 0" stroke="black" fill="transparent"
                  transform="translate(850.000000 440.000000) rotate (-26.798434 0 0) scale (0.731946 1)"/>
                  <path
                  d=" M 0 0 10.0 0  C 10.000000 -18.000000 26.000000 19.000000 26.000000 0  S 42.0 16.0 42.0 0  S 58.0 -10.0 58.0 0  S 74.0 18.0 74.0 0  S 90.0 11.0 90.0 0  M 90.0 0 100 0" stroke="black" fill="transparent"
                  transform="translate(915.333333 407.000000) rotate (-88.025066 0 0) scale (0.580345 1)"/>
                  <path
                  d=" M 0 0 10.0 0  C 10.000000 -13.000000 20.000000 12.000000 20.000000 0  S 30.0 13.0 30.0 0  S 40.0 -15.0 40.0 0  S 50.0 11.0 50.0 0  S 60.0 -10.0 60.0 0  S 70.0 15.0 70.0 0  S 80.0 -16.0 80.0 0  S 90.0 19.0 90.0 0  M 90.0 0 100 0" stroke="black" fill="transparent"
                  transform="translate(862.000000 326.000000) rotate (22.570831 0 0) scale (0.599231 1)"/>
                  <path
                  d=" M 0 0 10.0 0  C 10.000000 -18.000000 21.428571 13.000000 21.428571 0  S 32.85714285714286 16.0 32.85714285714286 0  S 44.85714285714286 -18.0 44.85714285714286 0  S 56.85714285714286 18.0 56.85714285714286 0  S 68.85714285714286 -15.0 68.85714285714286 0  S 80.85714285714286 17.0 80.85714285714286 0  S 90.0 15.0 90.0 0  M 90.0 0 100 0" stroke="black" fill="transparent"
                  transform="translate(820.000000 348.000000) rotate (-27.645975 0 0) scale (0.474131 1)"/>
                  <path
                  d=" M 0 0 10.0 0  C 10.000000 -16.000000 20.000000 11.000000 20.000000 0  S 30.0 16.0 30.0 0  S 40.0 -13.0 40.0 0  S 50.0 10.0 50.0 0  S 60.0 -11.0 60.0 0  S 70.0 12.0 70.0 0  S 80.0 -15.0 80.0 0  S 90.0 17.0 90.0 0  M 90.0 0 100 0" stroke="black" fill="transparent"
                  transform="translate(139.333333 846.333333) rotate (81.484218 0 0) scale (0.630282 1)"/>
                  <path
                  d=" M 0 0 10.0 0  C 10.000000 -10.000000 23.333333 18.000000 23.333333 0  S 36.66666666666667 16.0 36.66666666666667 0  S 50.66666666666667 -18.0 50.66666666666667 0  S 64.66666666666667 18.0 64.66666666666667 0  S 78.66666666666667 -13.0 78.66666666666667 0  S 90.0 15.0 90.0 0  M 90.0 0 100 0" stroke="black" fill="transparent"
                  transform="translate(148.666667 908.666667) rotate (-3.384518 0 0) scale (0.621083 1)"/>
                  <path
                  d=" M 0 0 10.0 0  C 10.000000 -16.000000 26.000000 11.000000 26.000000 0  S 42.0 12.0 42.0 0  S 58.0 -15.0 58.0 0  S 74.0 15.0 74.0 0  S 90.0 18.0 90.0 0  M 90.0 0 100 0" stroke="black" fill="transparent"
                  transform="translate(210.666667 905.000000) rotate (-63.317540 0 0) scale (0.727469 1)"/>
                  <path
                  d=" M 0 0 10.0 0  C 10.000000 -12.000000 26.000000 13.000000 26.000000 0  S 42.0 15.0 42.0 0  S 58.0 -12.0 58.0 0  S 74.0 19.0 74.0 0  S 90.0 14.0 90.0 0  M 90.0 0 100 0" stroke="black" fill="transparent"
                  transform="translate(205.666667 807.666667) rotate (40.643025 0 0) scale (0.496409 1)"/>
                  <path
                  d=" M 0 0 10.0 0  C 10.000000 -13.000000 23.333333 19.000000 23.333333 0  S 36.66666666666667 16.0 36.66666666666667 0  S 50.66666666666667 -11.0 50.66666666666667 0  S 64.66666666666667 14.0 64.66666666666667 0  S 78.66666666666667 -12.0 78.66666666666667 0  S 90.0 18.0 90.0 0  M 90.0 0 100 0" stroke="black" fill="transparent"
                  transform="translate(139.333333 846.333333) rotate (-30.238532 0 0) scale (0.767804 1)"/>
                  <path
                  d=" M 0 0 10.0 0  C 10.000000 -16.000000 23.333333 13.000000 23.333333 0  S 36.66666666666667 10.0 36.66666666666667 0  S 50.66666666666667 -12.0 50.66666666666667 0  S 64.66666666666667 10.0 64.66666666666667 0  S 78.66666666666667 -13.0 78.66666666666667 0  S 90.0 14.0 90.0 0  M 90.0 0 100 0" stroke="black" fill="transparent"
                  transform="translate(202.666667 151.333333) rotate (-16.865594 0 0) scale (0.769776 1)"/>
                  <path
                  d=" M 0 0 10.0 0  C 10.000000 -14.000000 23.333333 12.000000 23.333333 0  S 36.66666666666667 14.0 36.66666666666667 0  S 50.66666666666667 -10.0 50.66666666666667 0  S 64.66666666666667 17.0 64.66666666666667 0  S 78.66666666666667 -14.0 78.66666666666667 0  S 90.0 15.0 90.0 0  M 90.0 0 100 0" stroke="black" fill="transparent"
                  transform="translate(276.333333 129.000000) rotate (70.680624 0 0) scale (1.229218 1)"/>
                  <path
                  d=" M 0 0 10.0 0  C 10.000000 -10.000000 21.428571 13.000000 21.428571 0  S 32.85714285714286 10.0 32.85714285714286 0  S 44.85714285714286 -15.0 44.85714285714286 0  S 56.85714285714286 12.0 56.85714285714286 0  S 68.85714285714286 -15.0 68.85714285714286 0  S 80.85714285714286 16.0 80.85714285714286 0  S 90.0 14.0 90.0 0  M 90.0 0 100 0" stroke="black" fill="transparent"
                  transform="translate(100.333333 304.000000) rotate (19.268105 0 0) scale (1.232364 1)"/>
                  <path
                  d=" M 0 0 10.0 0  C 10.000000 -12.000000 21.428571 18.000000 21.428571 0  S 32.85714285714286 16.0 32.85714285714286 0  S 44.85714285714286 -10.0 44.85714285714286 0  S 56.85714285714286 14.0 56.85714285714286 0  S 68.85714285714286 -12.0 68.85714285714286 0  S 80.85714285714286 12.0 80.85714285714286 0  S 90.0 18.0 90.0 0  M 90.0 0 100 0" stroke="black" fill="transparent"
                  transform="translate(99.666667 238.333333) rotate (89.418337 0 0) scale (0.656701 1)"/>
                  <path
                  d=" M 0 0 10.0 0  C 10.000000 -13.000000 20.000000 10.000000 20.000000 0  S 30.0 12.0 30.0 0  S 40.0 -18.0 40.0 0  S 50.0 17.0 50.0 0  S 60.0 -19.0 60.0 0  S 70.0 13.0 70.0 0  S 80.0 -10.0 80.0 0  S 90.0 19.0 90.0 0  M 90.0 0 100 0" stroke="black" fill="transparent"
                  transform="translate(99.666667 238.333333) rotate (-50.463843 0 0) scale (0.544590 1)"/>
                  <path
                  d=" M 0 0 10.0 0  C 10.000000 -11.000000 21.428571 12.000000 21.428571 0  S 32.85714285714286 12.0 32.85714285714286 0  S 44.85714285714286 -13.0 44.85714285714286 0  S 56.85714285714286 16.0 56.85714285714286 0  S 68.85714285714286 -10.0 68.85714285714286 0  S 80.85714285714286 14.0 80.85714285714286 0  S 90.0 10.0 90.0 0  M 90.0 0 100 0" stroke="black" fill="transparent"
                  transform="translate(915.000000 841.666667) rotate (-36.080156 0 0) scale (0.532051 1)"/>
                  <path
                  d=" M 0 0 10.0 0  C 10.000000 -16.000000 20.000000 15.000000 20.000000 0  S 30.0 10.0 30.0 0  S 40.0 -15.0 40.0 0  S 50.0 10.0 50.0 0  S 60.0 -12.0 60.0 0  S 70.0 12.0 70.0 0  S 80.0 -13.0 80.0 0  S 90.0 12.0 90.0 0  M 90.0 0 100 0" stroke="black" fill="transparent"
                  transform="translate(915.000000 841.666667) rotate (75.379126 0 0) scale (0.713092 1)"/>
                  <path
                  d=" M 0 0 10.0 0  C 10.000000 -12.000000 21.428571 12.000000 21.428571 0  S 32.85714285714286 19.0 32.85714285714286 0  S 44.85714285714286 -16.0 44.85714285714286 0  S 56.85714285714286 17.0 56.85714285714286 0  S 68.85714285714286 -14.0 68.85714285714286 0  S 80.85714285714286 14.0 80.85714285714286 0  S 90.0 11.0 90.0 0  M 90.0 0 100 0" stroke="black" fill="transparent"
                  transform="translate(933.000000 910.666667) rotate (-76.008554 0 0) scale (1.034011 1)"/>
                  <path
                  d=" M 0 0 10.0 0  C 10.000000 -15.000000 26.000000 14.000000 26.000000 0  S 42.0 15.0 42.0 0  S 58.0 -13.0 58.0 0  S 74.0 15.0 74.0 0  S 90.0 11.0 90.0 0  M 90.0 0 100 0" stroke="black" fill="transparent"
                  transform="translate(548.000000 324.666667) rotate (-20.490838 0 0) scale (1.028402 1)"/>
                  <path
                  d=" M 0 0 10.0 0  C 10.000000 -14.000000 23.333333 17.000000 23.333333 0  S 36.66666666666667 10.0 36.66666666666667 0  S 50.66666666666667 -19.0 50.66666666666667 0  S 64.66666666666667 18.0 64.66666666666667 0  S 78.66666666666667 -13.0 78.66666666666667 0  S 90.0 16.0 90.0 0  M 90.0 0 100 0" stroke="black" fill="transparent"
                  transform="translate(444.333333 227.000000) rotate (-76.136724 0 0) scale (1.071204 1)"/>
                  <path
                  d=" M 0 0 10.0 0  C 10.000000 -18.000000 23.333333 10.000000 23.333333 0  S 36.66666666666667 17.0 36.66666666666667 0  S 50.66666666666667 -12.0 50.66666666666667 0  S 64.66666666666667 17.0 64.66666666666667 0  S 78.66666666666667 -15.0 78.66666666666667 0  S 90.0 18.0 90.0 0  M 90.0 0 100 0" stroke="black" fill="transparent"
                  transform="translate(470.000000 123.000000) rotate (-6.766175 0 0) scale (0.594138 1)"/>
                  <path
                  d=" M 0 0 10.0 0  C 10.000000 -16.000000 23.333333 17.000000 23.333333 0  S 36.66666666666667 15.0 36.66666666666667 0  S 50.66666666666667 -13.0 50.66666666666667 0  S 64.66666666666667 19.0 64.66666666666667 0  S 78.66666666666667 -19.0 78.66666666666667 0  S 90.0 13.0 90.0 0  M 90.0 0 100 0" stroke="black" fill="transparent"
                  transform="translate(529.000000 116.000000) rotate (0.919105 0 0) scale (0.623414 1)"/>
                  <path
                  d=" M 0 0 10.0 0  C 10.000000 -13.000000 20.000000 18.000000 20.000000 0  S 30.0 16.0 30.0 0  S 40.0 -19.0 40.0 0  S 50.0 18.0 50.0 0  S 60.0 -16.0 60.0 0  S 70.0 16.0 70.0 0  S 80.0 -17.0 80.0 0  S 90.0 17.0 90.0 0  M 90.0 0 100 0" stroke="black" fill="transparent"
                  transform="translate(639.000000 155.000000) rotate (82.910070 0 0) scale (0.675163 1)"/>
                  <path
                  d=" M 0 0 10.0 0  C 10.000000 -13.000000 26.000000 14.000000 26.000000 0  S 42.0 19.0 42.0 0  S 58.0 -16.0 58.0 0  S 74.0 19.0 74.0 0  S 90.0 17.0 90.0 0  M 90.0 0 100 0" stroke="black" fill="transparent"
                  transform="translate(644.333333 288.666667) rotate (-87.423428 0 0) scale (0.667341 1)"/>
                  <path
                  d=" M 0 0 10.0 0  C 10.000000 -15.000000 21.428571 15.000000 21.428571 0  S 32.85714285714286 18.0 32.85714285714286 0  S 44.85714285714286 -19.0 44.85714285714286 0  S 56.85714285714286 17.0 56.85714285714286 0  S 68.85714285714286 -13.0 68.85714285714286 0  S 80.85714285714286 10.0 80.85714285714286 0  S 90.0 12.0 90.0 0  M 90.0 0 100 0" stroke="black" fill="transparent"
                  transform="translate(430.000000 845.666667) rotate (10.885527 0 0) scale (0.617783 1)"/>
                  <path
                  d=" M 0 0 10.0 0  C 10.000000 -15.000000 21.428571 13.000000 21.428571 0  S 32.85714285714286 18.0 32.85714285714286 0  S 44.85714285714286 -17.0 44.85714285714286 0  S 56.85714285714286 19.0 56.85714285714286 0  S 68.85714285714286 -16.0 68.85714285714286 0  S 80.85714285714286 17.0 80.85714285714286 0  S 90.0 15.0 90.0 0  M 90.0 0 100 0" stroke="black" fill="transparent"
                  transform="translate(400.000000 913.000000) rotate (-65.984898 0 0) scale (0.737142 1)"/>
                  <path
                  d=" M 0 0 10.0 0  C 10.000000 -19.000000 23.333333 17.000000 23.333333 0  S 36.66666666666667 15.0 36.66666666666667 0  S 50.66666666666667 -12.0 50.66666666666667 0  S 64.66666666666667 14.0 64.66666666666667 0  S 78.66666666666667 -18.0 78.66666666666667 0  S 90.0 16.0 90.0 0  M 90.0 0 100 0" stroke="black" fill="transparent"
                  transform="translate(400.000000 913.000000) rotate (56.873849 0 0) scale (0.469669 1)"/>
                  <path
                  d=" M 0 0 10.0 0  C 10.000000 -19.000000 21.428571 10.000000 21.428571 0  S 32.85714285714286 14.0 32.85714285714286 0  S 44.85714285714286 -15.0 44.85714285714286 0  S 56.85714285714286 16.0 56.85714285714286 0  S 68.85714285714286 -19.0 68.85714285714286 0  S 80.85714285714286 15.0 80.85714285714286 0  S 90.0 12.0 90.0 0  M 90.0 0 100 0" stroke="black" fill="transparent"
                  transform="translate(425.666667 952.333333) rotate (-5.964487 0 0) scale (0.673647 1)"/>
                  <path
                  d=" M 0 0 10.0 0  C 10.000000 -15.000000 23.333333 19.000000 23.333333 0  S 36.66666666666667 13.0 36.66666666666667 0  S 50.66666666666667 -18.0 50.66666666666667 0  S 64.66666666666667 14.0 64.66666666666667 0  S 78.66666666666667 -11.0 78.66666666666667 0  S 90.0 17.0 90.0 0  M 90.0 0 100 0" stroke="black" fill="transparent"
                  transform="translate(492.666667 945.333333) rotate (-38.325531 0 0) scale (0.446144 1)"/>
                  <path
                  d=" M 0 0 10.0 0  C 10.000000 -14.000000 26.000000 14.000000 26.000000 0  S 42.0 12.0 42.0 0  S 58.0 -14.0 58.0 0  S 74.0 11.0 74.0 0  S 90.0 10.0 90.0 0  M 90.0 0 100 0" stroke="black" fill="transparent"
                  transform="translate(904.333333 521.333333) rotate (41.335816 0 0) scale (0.479456 1)"/>
                  <path
                  d=" M 0 0 10.0 0  C 10.000000 -15.000000 21.428571 13.000000 21.428571 0  S 32.85714285714286 10.0 32.85714285714286 0  S 44.85714285714286 -13.0 44.85714285714286 0  S 56.85714285714286 16.0 56.85714285714286 0  S 68.85714285714286 -12.0 68.85714285714286 0  S 80.85714285714286 11.0 80.85714285714286 0  S 90.0 19.0 90.0 0  M 90.0 0 100 0" stroke="black" fill="transparent"
                  transform="translate(904.333333 521.333333) rotate (-65.480357 0 0) scale (0.835331 1)"/>
                  <path
                  d=" M 0 0 10.0 0  C 10.000000 -18.000000 26.000000 18.000000 26.000000 0  S 42.0 19.0 42.0 0  S 58.0 -16.0 58.0 0  S 74.0 13.0 74.0 0  S 90.0 14.0 90.0 0  M 90.0 0 100 0" stroke="black" fill="transparent"
                  transform="translate(939.000000 445.333333) rotate (41.335816 0 0) scale (0.479456 1)"/>
                  <path
                  d=" M 0 0 10.0 0  C 10.000000 -11.000000 20.000000 11.000000 20.000000 0  S 30.0 17.0 30.0 0  S 40.0 -10.0 40.0 0  S 50.0 16.0 50.0 0  S 60.0 -11.0 60.0 0  S 70.0 16.0 70.0 0  S 80.0 -18.0 80.0 0  S 90.0 10.0 90.0 0  M 90.0 0 100 0" stroke="black" fill="transparent"
                  transform="translate(940.333333 553.000000) rotate (-65.480357 0 0) scale (0.835331 1)"/>
                  <path
                  d=" M 0 0 10.0 0  C 10.000000 -11.000000 23.333333 14.000000 23.333333 0  S 36.66666666666667 12.0 36.66666666666667 0  S 50.66666666666667 -13.0 50.66666666666667 0  S 64.66666666666667 10.0 64.66666666666667 0  S 78.66666666666667 -14.0 78.66666666666667 0  S 90.0 15.0 90.0 0  M 90.0 0 100 0" stroke="black" fill="transparent"
                  transform="translate(953.333333 750.000000) rotate (-64.515873 0 0) scale (0.790218 1)"/>
                  <path
                  d=" M 0 0 10.0 0  C 10.000000 -14.000000 23.333333 14.000000 23.333333 0  S 36.66666666666667 14.0 36.66666666666667 0  S 50.66666666666667 -18.0 50.66666666666667 0  S 64.66666666666667 18.0 64.66666666666667 0  S 78.66666666666667 -14.0 78.66666666666667 0  S 90.0 12.0 90.0 0  M 90.0 0 100 0" stroke="black" fill="transparent"
                  transform="translate(953.333333 750.000000) rotate (85.577089 0 0) scale (0.605135 1)"/>
                  <path
                  d=" M 0 0 10.0 0  C 10.000000 -13.000000 20.000000 16.000000 20.000000 0  S 30.0 17.0 30.0 0  S 40.0 -14.0 40.0 0  S 50.0 16.0 50.0 0  S 60.0 -15.0 60.0 0  S 70.0 11.0 70.0 0  S 80.0 -14.0 80.0 0  S 90.0 19.0 90.0 0  M 90.0 0 100 0" stroke="black" fill="transparent"
                  transform="translate(958.000000 810.333333) rotate (-77.440479 0 0) scale (1.348946 1)"/>
                  <path
                  d=" M 0 0 10.0 0  C 10.000000 -17.000000 20.000000 17.000000 20.000000 0  S 30.0 11.0 30.0 0  S 40.0 -16.0 40.0 0  S 50.0 13.0 50.0 0  S 60.0 -10.0 60.0 0  S 70.0 12.0 70.0 0  S 80.0 -18.0 80.0 0  S 90.0 16.0 90.0 0  M 90.0 0 100 0" stroke="black" fill="transparent"
                  transform="translate(878.000000 81.000000) rotate (33.536047 0 0) scale (0.687831 1)"/>
                  <path
                  d=" M 0 0 10.0 0  C 10.000000 -13.000000 21.428571 15.000000 21.428571 0  S 32.85714285714286 10.0 32.85714285714286 0  S 44.85714285714286 -18.0 44.85714285714286 0  S 56.85714285714286 10.0 56.85714285714286 0  S 68.85714285714286 -11.0 68.85714285714286 0  S 80.85714285714286 10.0 80.85714285714286 0  S 90.0 11.0 90.0 0  M 90.0 0 100 0" stroke="black" fill="transparent"
                  transform="translate(973.333333 187.000000) rotate (83.609505 0 0) scale (1.257816 1)"/>
                  <path
                  d=" M 0 0 10.0 0  C 10.000000 -10.000000 26.000000 11.000000 26.000000 0  S 42.0 19.0 42.0 0  S 58.0 -11.0 58.0 0  S 74.0 16.0 74.0 0  S 90.0 18.0 90.0 0  M 90.0 0 100 0" stroke="black" fill="transparent"
                  transform="translate(878.000000 81.000000) rotate (64.671597 0 0) scale (2.555676 1)"/>
                  <path
                  d=" M 0 0 10.0 0  C 10.000000 -18.000000 20.000000 11.000000 20.000000 0  S 30.0 11.0 30.0 0  S 40.0 -16.0 40.0 0  S 50.0 14.0 50.0 0  S 60.0 -11.0 60.0 0  S 70.0 16.0 70.0 0  S 80.0 -11.0 80.0 0  S 90.0 11.0 90.0 0  M 90.0 0 100 0" stroke="black" fill="transparent"
                  transform="translate(529.000000 116.000000) rotate (-15.616638 0 0) scale (1.436357 1)"/>
                  <path
                  d=" M 0 0 10.0 0  C 10.000000 -14.000000 21.428571 15.000000 21.428571 0  S 32.85714285714286 16.0 32.85714285714286 0  S 44.85714285714286 -10.0 44.85714285714286 0  S 56.85714285714286 11.0 56.85714285714286 0  S 68.85714285714286 -12.0 68.85714285714286 0  S 80.85714285714286 17.0 80.85714285714286 0  S 90.0 18.0 90.0 0  M 90.0 0 100 0" stroke="black" fill="transparent"
                  transform="translate(830.333333 148.000000) rotate (6.066633 0 0) scale (0.693886 1)"/>
                  <path
                  d=" M 0 0 10.0 0  C 10.000000 -15.000000 23.333333 16.000000 23.333333 0  S 36.66666666666667 17.0 36.66666666666667 0  S 50.66666666666667 -13.0 50.66666666666667 0  S 64.66666666666667 10.0 64.66666666666667 0  S 78.66666666666667 -17.0 78.66666666666667 0  S 90.0 19.0 90.0 0  M 90.0 0 100 0" stroke="black" fill="transparent"
                  transform="translate(810.000000 216.666667) rotate (-73.505109 0 0) scale (0.716139 1)"/>
                  <path
                  d=" M 0 0 10.0 0  C 10.000000 -17.000000 26.000000 12.000000 26.000000 0  S 42.0 18.0 42.0 0  S 58.0 -11.0 58.0 0  S 74.0 12.0 74.0 0  S 90.0 10.0 90.0 0  M 90.0 0 100 0" stroke="black" fill="transparent"
                  transform="translate(810.000000 216.666667) rotate (41.047663 0 0) scale (0.649726 1)"/>
                  <path
                  d=" M 0 0 10.0 0  C 10.000000 -14.000000 20.000000 15.000000 20.000000 0  S 30.0 17.0 30.0 0  S 40.0 -18.0 40.0 0  S 50.0 15.0 50.0 0  S 60.0 -18.0 60.0 0  S 70.0 13.0 70.0 0  S 80.0 -18.0 80.0 0  S 90.0 15.0 90.0 0  M 90.0 0 100 0" stroke="black" fill="transparent"
                  transform="translate(859.000000 259.333333) rotate (-33.444516 0 0) scale (0.647156 1)"/>
                  <path
                  d=" M 0 0 10.0 0  C 10.000000 -16.000000 23.333333 12.000000 23.333333 0  S 36.66666666666667 19.0 36.66666666666667 0  S 50.66666666666667 -11.0 50.66666666666667 0  S 64.66666666666667 14.0 64.66666666666667 0  S 78.66666666666667 -14.0 78.66666666666667 0  S 90.0 18.0 90.0 0  M 90.0 0 100 0" stroke="black" fill="transparent"
                  transform="translate(418.666667 591.000000) rotate (81.891063 0 0) scale (1.276092 1)"/>
                  <path
                  d=" M 0 0 10.0 0  C 10.000000 -10.000000 20.000000 10.000000 20.000000 0  S 30.0 11.0 30.0 0  S 40.0 -19.0 40.0 0  S 50.0 10.0 50.0 0  S 60.0 -10.0 60.0 0  S 70.0 16.0 70.0 0  S 80.0 -11.0 80.0 0  S 90.0 11.0 90.0 0  M 90.0 0 100 0" stroke="black" fill="transparent"
                  transform="translate(404.333333 746.333333) rotate (-41.889159 0 0) scale (0.434332 1)"/>
                  <path
                  d=" M 0 0 10.0 0  C 10.000000 -10.000000 26.000000 14.000000 26.000000 0  S 42.0 13.0 42.0 0  S 58.0 -16.0 58.0 0  S 74.0 17.0 74.0 0  S 90.0 14.0 90.0 0  M 90.0 0 100 0" stroke="black" fill="transparent"
                  transform="translate(346.666667 743.666667) rotate (2.647630 0 0) scale (0.577283 1)"/>
                  <path
                  d=" M 0 0 10.0 0  C 10.000000 -13.000000 26.000000 13.000000 26.000000 0  S 42.0 17.0 42.0 0  S 58.0 -11.0 58.0 0  S 74.0 12.0 74.0 0  S 90.0 12.0 90.0 0  M 90.0 0 100 0" stroke="black" fill="transparent"
                  transform="translate(311.666667 707.666667) rotate (45.806929 0 0) scale (0.502096 1)"/>
                  <path
                  d=" M 0 0 10.0 0  C 10.000000 -18.000000 21.428571 19.000000 21.428571 0  S 32.85714285714286 10.0 32.85714285714286 0  S 44.85714285714286 -13.0 44.85714285714286 0  S 56.85714285714286 18.0 56.85714285714286 0  S 68.85714285714286 -19.0 68.85714285714286 0  S 80.85714285714286 13.0 80.85714285714286 0  S 90.0 10.0 90.0 0  M 90.0 0 100 0" stroke="black" fill="transparent"
                  transform="translate(311.666667 707.666667) rotate (-72.216112 0 0) scale (1.298726 1)"/>
                  <path
                  d=" M 0 0 10.0 0  C 10.000000 -15.000000 23.333333 16.000000 23.333333 0  S 36.66666666666667 13.0 36.66666666666667 0  S 50.66666666666667 -16.0 50.66666666666667 0  S 64.66666666666667 14.0 64.66666666666667 0  S 78.66666666666667 -18.0 78.66666666666667 0  S 90.0 14.0 90.0 0  M 90.0 0 100 0" stroke="black" fill="transparent"
                  transform="translate(647.333333 222.000000) rotate (-7.963787 0 0) scale (0.649598 1)"/>
                  <path
                  d=" M 0 0 10.0 0  C 10.000000 -11.000000 20.000000 15.000000 20.000000 0  S 30.0 19.0 30.0 0  S 40.0 -14.0 40.0 0  S 50.0 13.0 50.0 0  S 60.0 -10.0 60.0 0  S 70.0 16.0 70.0 0  S 80.0 -11.0 80.0 0  S 90.0 10.0 90.0 0  M 90.0 0 100 0" stroke="black" fill="transparent"
                  transform="translate(711.666667 213.000000) rotate (50.477369 0 0) scale (0.518556 1)"/>
                  <path
                  d=" M 0 0 10.0 0  C 10.000000 -16.000000 26.000000 14.000000 26.000000 0  S 42.0 18.0 42.0 0  S 58.0 -16.0 58.0 0  S 74.0 11.0 74.0 0  S 90.0 16.0 90.0 0  M 90.0 0 100 0" stroke="black" fill="transparent"
                  transform="translate(744.666667 253.000000) rotate (83.821935 0 0) scale (0.650444 1)"/>
                  <path
                  d=" M 0 0 10.0 0  C 10.000000 -14.000000 23.333333 14.000000 23.333333 0  S 36.66666666666667 12.0 36.66666666666667 0  S 50.66666666666667 -19.0 50.66666666666667 0  S 64.66666666666667 12.0 64.66666666666667 0  S 78.66666666666667 -15.0 78.66666666666667 0  S 90.0 16.0 90.0 0  M 90.0 0 100 0" stroke="black" fill="transparent"
                  transform="translate(715.666667 344.333333) rotate (-36.528855 0 0) scale (0.448008 1)"/>
                  <path
                  d=" M 0 0 10.0 0  C 10.000000 -10.000000 26.000000 10.000000 26.000000 0  S 42.0 17.0 42.0 0  S 58.0 -16.0 58.0 0  S 74.0 12.0 74.0 0  S 90.0 16.0 90.0 0  M 90.0 0 100 0" stroke="black" fill="transparent"
                  transform="translate(644.333333 288.666667) rotate (37.967545 0 0) scale (0.904833 1)"/>
                  <path
                  d=" M 0 0 10.0 0  C 10.000000 -15.000000 23.333333 18.000000 23.333333 0  S 36.66666666666667 14.0 36.66666666666667 0  S 50.66666666666667 -11.0 50.66666666666667 0  S 64.66666666666667 11.0 64.66666666666667 0  S 78.66666666666667 -10.0 78.66666666666667 0  S 90.0 16.0 90.0 0  M 90.0 0 100 0" stroke="black" fill="transparent"
                  transform="translate(298.000000 947.000000) rotate (-45.962864 0 0) scale (0.561051 1)"/>
                  <path
                  d=" M 0 0 10.0 0  C 10.000000 -15.000000 21.428571 18.000000 21.428571 0  S 32.85714285714286 17.0 32.85714285714286 0  S 44.85714285714286 -17.0 44.85714285714286 0  S 56.85714285714286 16.0 56.85714285714286 0  S 68.85714285714286 -17.0 68.85714285714286 0  S 80.85714285714286 15.0 80.85714285714286 0  S 90.0 11.0 90.0 0  M 90.0 0 100 0" stroke="black" fill="transparent"
                  transform="translate(237.666667 942.000000) rotate (4.737443 0 0) scale (0.605402 1)"/>
                  <path
                  d=" M 0 0 10.0 0  C 10.000000 -10.000000 20.000000 18.000000 20.000000 0  S 30.0 14.0 30.0 0  S 40.0 -15.0 40.0 0  S 50.0 10.0 50.0 0  S 60.0 -16.0 60.0 0  S 70.0 17.0 70.0 0  S 80.0 -13.0 80.0 0  S 90.0 14.0 90.0 0  M 90.0 0 100 0" stroke="black" fill="transparent"
                  transform="translate(309.333333 836.666667) rotate (68.434180 0 0) scale (0.752691 1)"/>
                  <path
                  d=" M 0 0 10.0 0  C 10.000000 -18.000000 23.333333 10.000000 23.333333 0  S 36.66666666666667 18.0 36.66666666666667 0  S 50.66666666666667 -19.0 50.66666666666667 0  S 64.66666666666667 10.0 64.66666666666667 0  S 78.66666666666667 -16.0 78.66666666666667 0  S 90.0 15.0 90.0 0  M 90.0 0 100 0" stroke="black" fill="transparent"
                  transform="translate(243.333333 840.000000) rotate (-2.891270 0 0) scale (0.660841 1)"/>
                  <path
                  d=" M 0 0 10.0 0  C 10.000000 -17.000000 26.000000 17.000000 26.000000 0  S 42.0 11.0 42.0 0  S 58.0 -14.0 58.0 0  S 74.0 10.0 74.0 0  S 90.0 15.0 90.0 0  M 90.0 0 100 0" stroke="black" fill="transparent"
                  transform="translate(210.666667 905.000000) rotate (53.880659 0 0) scale (0.458039 1)"/>
                  <path
                  d=" M 0 0 10.0 0  C 10.000000 -11.000000 26.000000 10.000000 26.000000 0  S 42.0 19.0 42.0 0  S 58.0 -12.0 58.0 0  S 74.0 15.0 74.0 0  S 90.0 16.0 90.0 0  M 90.0 0 100 0" stroke="black" fill="transparent"
                  transform="translate(818.666667 755.333333) rotate (-23.607110 0 0) scale (0.982197 1)"/>
                  <path
                  d=" M 0 0 10.0 0  C 10.000000 -14.000000 23.333333 12.000000 23.333333 0  S 36.66666666666667 17.0 36.66666666666667 0  S 50.66666666666667 -15.0 50.66666666666667 0  S 64.66666666666667 16.0 64.66666666666667 0  S 78.66666666666667 -15.0 78.66666666666667 0  S 90.0 19.0 90.0 0  M 90.0 0 100 0" stroke="black" fill="transparent"
                  transform="translate(776.000000 689.666667) rotate (-52.553170 0 0) scale (0.860710 1)"/>
                  <path
                  d=" M 0 0 10.0 0  C 10.000000 -18.000000 23.333333 13.000000 23.333333 0  S 36.66666666666667 12.0 36.66666666666667 0  S 50.66666666666667 -16.0 50.66666666666667 0  S 64.66666666666667 18.0 64.66666666666667 0  S 78.66666666666667 -13.0 78.66666666666667 0  S 90.0 13.0 90.0 0  M 90.0 0 100 0" stroke="black" fill="transparent"
                  transform="translate(828.333333 621.333333) rotate (26.221967 0 0) scale (0.746860 1)"/>
                  <path
                  d=" M 0 0 10.0 0  C 10.000000 -10.000000 26.000000 12.000000 26.000000 0  S 42.0 14.0 42.0 0  S 58.0 -17.0 58.0 0  S 74.0 13.0 74.0 0  S 90.0 18.0 90.0 0  M 90.0 0 100 0" stroke="black" fill="transparent"
                  transform="translate(895.333333 654.333333) rotate (77.799531 0 0) scale (0.630916 1)"/>
                  <path
                  d=" M 0 0 10.0 0  C 10.000000 -13.000000 21.428571 14.000000 21.428571 0  S 32.85714285714286 11.0 32.85714285714286 0  S 44.85714285714286 -10.0 44.85714285714286 0  S 56.85714285714286 16.0 56.85714285714286 0  S 68.85714285714286 -16.0 68.85714285714286 0  S 80.85714285714286 19.0 80.85714285714286 0  S 90.0 14.0 90.0 0  M 90.0 0 100 0" stroke="black" fill="transparent"
                  transform="translate(468.666667 79.000000) rotate (31.519110 0 0) scale (0.707751 1)"/>
                  <path
                  d=" M 0 0 10.0 0  C 10.000000 -14.000000 20.000000 16.000000 20.000000 0  S 30.0 10.0 30.0 0  S 40.0 -10.0 40.0 0  S 50.0 15.0 50.0 0  S 60.0 -16.0 60.0 0  S 70.0 10.0 70.0 0  S 80.0 -14.0 80.0 0  S 90.0 18.0 90.0 0  M 90.0 0 100 0" stroke="black" fill="transparent"
                  transform="translate(468.666667 79.000000) rotate (88.264295 0 0) scale (0.440202 1)"/>
                  <path
                  d=" M 0 0 10.0 0  C 10.000000 -14.000000 21.428571 13.000000 21.428571 0  S 32.85714285714286 12.0 32.85714285714286 0  S 44.85714285714286 -16.0 44.85714285714286 0  S 56.85714285714286 15.0 56.85714285714286 0  S 68.85714285714286 -13.0 68.85714285714286 0  S 80.85714285714286 19.0 80.85714285714286 0  S 90.0 14.0 90.0 0  M 90.0 0 100 0" stroke="black" fill="transparent"
                  transform="translate(402.333333 67.000000) rotate (10.254165 0 0) scale (0.674100 1)"/>
                  <path
                  d=" M 0 0 10.0 0  C 10.000000 -14.000000 20.000000 10.000000 20.000000 0  S 30.0 11.0 30.0 0  S 40.0 -15.0 40.0 0  S 50.0 14.0 50.0 0  S 60.0 -14.0 60.0 0  S 70.0 12.0 70.0 0  S 80.0 -18.0 80.0 0  S 90.0 14.0 90.0 0  M 90.0 0 100 0" stroke="black" fill="transparent"
                  transform="translate(276.333333 129.000000) rotate (-26.200115 0 0) scale (1.404279 1)"/>
                  <path
                  d=" M 0 0 10.0 0  C 10.000000 -17.000000 20.000000 11.000000 20.000000 0  S 30.0 16.0 30.0 0  S 40.0 -11.0 40.0 0  S 50.0 18.0 50.0 0  S 60.0 -16.0 60.0 0  S 70.0 13.0 70.0 0  S 80.0 -18.0 80.0 0  S 90.0 10.0 90.0 0  M 90.0 0 100 0" stroke="black" fill="transparent"
                  transform="translate(346.666667 743.666667) rotate (87.614056 0 0) scale (0.560486 1)"/>
                  <path
                  d=" M 0 0 10.0 0  C 10.000000 -17.000000 21.428571 15.000000 21.428571 0  S 32.85714285714286 14.0 32.85714285714286 0  S 44.85714285714286 -12.0 44.85714285714286 0  S 56.85714285714286 11.0 56.85714285714286 0  S 68.85714285714286 -17.0 68.85714285714286 0  S 80.85714285714286 12.0 80.85714285714286 0  S 90.0 11.0 90.0 0  M 90.0 0 100 0" stroke="black" fill="transparent"
                  transform="translate(349.000000 799.666667) rotate (2.647630 0 0) scale (0.577283 1)"/>
                  <path
                  d=" M 0 0 10.0 0  C 10.000000 -18.000000 26.000000 16.000000 26.000000 0  S 42.0 18.0 42.0 0  S 58.0 -17.0 58.0 0  S 74.0 18.0 74.0 0  S 90.0 12.0 90.0 0  M 90.0 0 100 0" stroke="black" fill="transparent"
                  transform="translate(404.333333 746.333333) rotate (87.614056 0 0) scale (0.560486 1)"/>
                  <path
                  d=" M 0 0 10.0 0  C 10.000000 -17.000000 21.428571 10.000000 21.428571 0  S 32.85714285714286 19.0 32.85714285714286 0  S 44.85714285714286 -12.0 44.85714285714286 0  S 56.85714285714286 13.0 56.85714285714286 0  S 68.85714285714286 -12.0 68.85714285714286 0  S 80.85714285714286 10.0 80.85714285714286 0  S 90.0 11.0 90.0 0  M 90.0 0 100 0" stroke="black" fill="transparent"
                  transform="translate(569.666667 970.000000) rotate (-38.325531 0 0) scale (0.446144 1)"/>
                  <path
                  d=" M 0 0 10.0 0  C 10.000000 -13.000000 21.428571 13.000000 21.428571 0  S 32.85714285714286 10.0 32.85714285714286 0  S 44.85714285714286 -14.0 44.85714285714286 0  S 56.85714285714286 12.0 56.85714285714286 0  S 68.85714285714286 -18.0 68.85714285714286 0  S 80.85714285714286 16.0 80.85714285714286 0  S 90.0 11.0 90.0 0  M 90.0 0 100 0" stroke="black" fill="transparent"
                  transform="translate(591.000000 413.000000) rotate (10.249582 0 0) scale (1.236397 1)"/>
                  <path
                  d=" M 0 0 10.0 0  C 10.000000 -12.000000 20.000000 10.000000 20.000000 0  S 30.0 13.0 30.0 0  S 40.0 -16.0 40.0 0  S 50.0 17.0 50.0 0  S 60.0 -18.0 60.0 0  S 70.0 14.0 70.0 0  S 80.0 -15.0 80.0 0  S 90.0 15.0 90.0 0  M 90.0 0 100 0" stroke="black" fill="transparent"
                  transform="translate(715.666667 344.333333) rotate (66.405179 0 0) scale (0.632912 1)"/>
                  <path
                  d=" M 0 0 10.0 0  C 10.000000 -19.000000 21.428571 14.000000 21.428571 0  S 32.85714285714286 12.0 32.85714285714286 0  S 44.85714285714286 -12.0 44.85714285714286 0  S 56.85714285714286 11.0 56.85714285714286 0  S 68.85714285714286 -11.0 68.85714285714286 0  S 80.85714285714286 12.0 80.85714285714286 0  S 90.0 16.0 90.0 0  M 90.0 0 100 0" stroke="black" fill="transparent"
                  transform="translate(111.000000 527.000000) rotate (61.223406 0 0) scale (0.733977 1)"/>
                  <path
                  d=" M 0 0 10.0 0  C 10.000000 -10.000000 26.000000 18.000000 26.000000 0  S 42.0 17.0 42.0 0  S 58.0 -18.0 58.0 0  S 74.0 16.0 74.0 0  S 90.0 13.0 90.0 0  M 90.0 0 100 0" stroke="black" fill="transparent"
                  transform="translate(216.666667 626.666667) rotate (-49.436474 0 0) scale (1.096945 1)"/>
                  <path
                  d=" M 0 0 10.0 0  C 10.000000 -17.000000 26.000000 11.000000 26.000000 0  S 42.0 13.0 42.0 0  S 58.0 -11.0 58.0 0  S 74.0 14.0 74.0 0  S 90.0 17.0 90.0 0  M 90.0 0 100 0" stroke="black" fill="transparent"
                  transform="translate(837.666667 510.666667) rotate (9.090277 0 0) scale (0.675146 1)"/>
                  <path
                  d=" M 0 0 10.0 0  C 10.000000 -16.000000 26.000000 16.000000 26.000000 0  S 42.0 15.0 42.0 0  S 58.0 -13.0 58.0 0  S 74.0 12.0 74.0 0  S 90.0 16.0 90.0 0  M 90.0 0 100 0" stroke="black" fill="transparent"
                  transform="translate(797.000000 548.000000) rotate (66.864303 0 0) scale (0.797468 1)"/>
                  <path
                  d=" M 0 0 10.0 0  C 10.000000 -18.000000 23.333333 17.000000 23.333333 0  S 36.66666666666667 14.0 36.66666666666667 0  S 50.66666666666667 -16.0 50.66666666666667 0  S 64.66666666666667 19.0 64.66666666666667 0  S 78.66666666666667 -15.0 78.66666666666667 0  S 90.0 17.0 90.0 0  M 90.0 0 100 0" stroke="black" fill="transparent"
                  transform="translate(895.333333 654.333333) rotate (-40.601295 0 0) scale (0.614636 1)"/>
                  <path
                  d=" M 0 0 10.0 0  C 10.000000 -13.000000 21.428571 11.000000 21.428571 0  S 32.85714285714286 12.0 32.85714285714286 0  S 44.85714285714286 -19.0 44.85714285714286 0  S 56.85714285714286 17.0 56.85714285714286 0  S 68.85714285714286 -14.0 68.85714285714286 0  S 80.85714285714286 10.0 80.85714285714286 0  S 90.0 11.0 90.0 0  M 90.0 0 100 0" stroke="black" fill="transparent"
                  transform="translate(940.333333 553.000000) rotate (88.443433 0 0) scale (0.613560 1)"/>
                  <path
                  d=" M 0 0 10.0 0  C 10.000000 -11.000000 26.000000 11.000000 26.000000 0  S 42.0 14.0 42.0 0  S 58.0 -15.0 58.0 0  S 74.0 13.0 74.0 0  S 90.0 15.0 90.0 0  M 90.0 0 100 0" stroke="black" fill="transparent"
                  transform="translate(942.666667 320.000000) rotate (69.234166 0 0) scale (0.958964 1)"/>
                  <path
                  d=" M 0 0 10.0 0  C 10.000000 -18.000000 23.333333 14.000000 23.333333 0  S 36.66666666666667 18.0 36.66666666666667 0  S 50.66666666666667 -12.0 50.66666666666667 0  S 64.66666666666667 15.0 64.66666666666667 0  S 78.66666666666667 -11.0 78.66666666666667 0  S 90.0 16.0 90.0 0  M 90.0 0 100 0" stroke="black" fill="transparent"
                  transform="translate(917.333333 349.000000) rotate (-48.860733 0 0) scale (0.385069 1)"/>
                  <path
                  d=" M 0 0 10.0 0  C 10.000000 -17.000000 23.333333 17.000000 23.333333 0  S 36.66666666666667 16.0 36.66666666666667 0  S 50.66666666666667 -17.0 50.66666666666667 0  S 64.66666666666667 13.0 64.66666666666667 0  S 78.66666666666667 -13.0 78.66666666666667 0  S 90.0 19.0 90.0 0  M 90.0 0 100 0" stroke="black" fill="transparent"
                  transform="translate(915.333333 407.000000) rotate (58.309179 0 0) scale (0.450506 1)"/>
                  <path
                  d=" M 0 0 10.0 0  C 10.000000 -18.000000 21.428571 14.000000 21.428571 0  S 32.85714285714286 18.0 32.85714285714286 0  S 44.85714285714286 -16.0 44.85714285714286 0  S 56.85714285714286 14.0 56.85714285714286 0  S 68.85714285714286 -13.0 68.85714285714286 0  S 80.85714285714286 14.0 80.85714285714286 0  S 90.0 17.0 90.0 0  M 90.0 0 100 0" stroke="black" fill="transparent"
                  transform="translate(975.000000 477.000000) rotate (-88.582077 0 0) scale (0.673540 1)"/>
                  <path
                  d=" M 0 0 10.0 0  C 10.000000 -13.000000 20.000000 13.000000 20.000000 0  S 30.0 16.0 30.0 0  S 40.0 -14.0 40.0 0  S 50.0 19.0 50.0 0  S 60.0 -15.0 60.0 0  S 70.0 11.0 70.0 0  S 80.0 -10.0 80.0 0  S 90.0 14.0 90.0 0  M 90.0 0 100 0" stroke="black" fill="transparent"
                  transform="translate(65.666667 404.333333) rotate (-70.939204 0 0) scale (1.061535 1)"/>
                  <path
                  d=" M 0 0 10.0 0  C 10.000000 -12.000000 21.428571 14.000000 21.428571 0  S 32.85714285714286 18.0 32.85714285714286 0  S 44.85714285714286 -13.0 44.85714285714286 0  S 56.85714285714286 12.0 56.85714285714286 0  S 68.85714285714286 -14.0 68.85714285714286 0  S 80.85714285714286 19.0 80.85714285714286 0  S 90.0 12.0 90.0 0  M 90.0 0 100 0" stroke="black" fill="transparent"
                  transform="translate(65.666667 404.333333) rotate (80.797403 0 0) scale (0.604446 1)"/>
                  <path
                  d=" M 0 0 10.0 0  C 10.000000 -17.000000 21.428571 17.000000 21.428571 0  S 32.85714285714286 12.0 32.85714285714286 0  S 44.85714285714286 -18.0 44.85714285714286 0  S 56.85714285714286 12.0 56.85714285714286 0  S 68.85714285714286 -12.0 68.85714285714286 0  S 80.85714285714286 16.0 80.85714285714286 0  S 90.0 13.0 90.0 0  M 90.0 0 100 0" stroke="black" fill="transparent"
                  transform="translate(99.666667 238.333333) rotate (-86.389909 0 0) scale (1.058768 1)"/>
                  <path
                  d=" M 0 0 10.0 0  C 10.000000 -17.000000 23.333333 15.000000 23.333333 0  S 36.66666666666667 11.0 36.66666666666667 0  S 50.66666666666667 -16.0 50.66666666666667 0  S 64.66666666666667 15.0 64.66666666666667 0  S 78.66666666666667 -13.0 78.66666666666667 0  S 90.0 11.0 90.0 0  M 90.0 0 100 0" stroke="black" fill="transparent"
                  transform="translate(581.000000 649.333333) rotate (29.458405 0 0) scale (0.826909 1)"/>
                  <path
                  d=" M 0 0 10.0 0  C 10.000000 -18.000000 20.000000 12.000000 20.000000 0  S 30.0 19.0 30.0 0  S 40.0 -16.0 40.0 0  S 50.0 16.0 50.0 0  S 60.0 -11.0 60.0 0  S 70.0 19.0 70.0 0  S 80.0 -15.0 80.0 0  S 90.0 17.0 90.0 0  M 90.0 0 100 0" stroke="black" fill="transparent"
                  transform="translate(511.666667 714.333333) rotate (-43.152390 0 0) scale (0.950374 1)"/>
                  <path
                  d=" M 0 0 10.0 0  C 10.000000 -14.000000 26.000000 10.000000 26.000000 0  S 42.0 19.0 42.0 0  S 58.0 -17.0 58.0 0  S 74.0 16.0 74.0 0  S 90.0 13.0 90.0 0  M 90.0 0 100 0" stroke="black" fill="transparent"
                  transform="translate(511.666667 714.333333) rotate (70.709954 0 0) scale (0.776953 1)"/>
                  <path
                  d=" M 0 0 10.0 0  C 10.000000 -17.000000 20.000000 11.000000 20.000000 0  S 30.0 17.0 30.0 0  S 40.0 -12.0 40.0 0  S 50.0 17.0 50.0 0  S 60.0 -11.0 60.0 0  S 70.0 10.0 70.0 0  S 80.0 -11.0 80.0 0  S 90.0 11.0 90.0 0  M 90.0 0 100 0" stroke="black" fill="transparent"
                  transform="translate(705.666667 542.666667) rotate (-48.882899 0 0) scale (0.522100 1)"/>
                  <path
                  d=" M 0 0 10.0 0  C 10.000000 -17.000000 20.000000 19.000000 20.000000 0  S 30.0 14.0 30.0 0  S 40.0 -15.0 40.0 0  S 50.0 14.0 50.0 0  S 60.0 -12.0 60.0 0  S 70.0 19.0 70.0 0  S 80.0 -16.0 80.0 0  S 90.0 17.0 90.0 0  M 90.0 0 100 0" stroke="black" fill="transparent"
                  transform="translate(582.666667 481.666667) rotate (26.378421 0 0) scale (1.372953 1)"/>
                  <path
                  d=" M 0 0 10.0 0  C 10.000000 -16.000000 21.428571 17.000000 21.428571 0  S 32.85714285714286 18.0 32.85714285714286 0  S 44.85714285714286 -16.0 44.85714285714286 0  S 56.85714285714286 13.0 56.85714285714286 0  S 68.85714285714286 -15.0 68.85714285714286 0  S 80.85714285714286 15.0 80.85714285714286 0  S 90.0 12.0 90.0 0  M 90.0 0 100 0" stroke="black" fill="transparent"
                  transform="translate(65.666667 404.333333) rotate (-78.424811 0 0) scale (1.694462 1)"/>
                  <path
                  d=" M 0 0 10.0 0  C 10.000000 -17.000000 21.428571 17.000000 21.428571 0  S 32.85714285714286 18.0 32.85714285714286 0  S 44.85714285714286 -10.0 44.85714285714286 0  S 56.85714285714286 17.0 56.85714285714286 0  S 68.85714285714286 -16.0 68.85714285714286 0  S 80.85714285714286 10.0 80.85714285714286 0  S 90.0 17.0 90.0 0  M 90.0 0 100 0" stroke="black" fill="transparent"
                  transform="translate(515.333333 554.000000) rotate (55.440495 0 0) scale (1.157608 1)"/>
                  <path
                  d=" M 0 0 10.0 0  C 10.000000 -15.000000 21.428571 11.000000 21.428571 0  S 32.85714285714286 12.0 32.85714285714286 0  S 44.85714285714286 -19.0 44.85714285714286 0  S 56.85714285714286 12.0 56.85714285714286 0  S 68.85714285714286 -17.0 68.85714285714286 0  S 80.85714285714286 12.0 80.85714285714286 0  S 90.0 16.0 90.0 0  M 90.0 0 100 0" stroke="black" fill="transparent"
                  transform="translate(705.666667 542.666667) rotate (87.635146 0 0) scale (1.130963 1)"/>
                  <path
                  d=" M 0 0 10.0 0  C 10.000000 -14.000000 20.000000 12.000000 20.000000 0  S 30.0 16.0 30.0 0  S 40.0 -14.0 40.0 0  S 50.0 13.0 50.0 0  S 60.0 -16.0 60.0 0  S 70.0 13.0 70.0 0  S 80.0 -11.0 80.0 0  S 90.0 16.0 90.0 0  M 90.0 0 100 0" stroke="black" fill="transparent"
                  transform="translate(797.000000 112.666667) rotate (46.668337 0 0) scale (0.485753 1)"/>
                  <path
                  d=" M 0 0 10.0 0  C 10.000000 -14.000000 20.000000 11.000000 20.000000 0  S 30.0 15.0 30.0 0  S 40.0 -14.0 40.0 0  S 50.0 18.0 50.0 0  S 60.0 -19.0 60.0 0  S 70.0 11.0 70.0 0  S 80.0 -18.0 80.0 0  S 90.0 19.0 90.0 0  M 90.0 0 100 0" stroke="black" fill="transparent"
                  transform="translate(797.000000 112.666667) rotate (-21.352840 0 0) scale (0.869700 1)"/>
                  <path
                  d=" M 0 0 10.0 0  C 10.000000 -13.000000 23.333333 14.000000 23.333333 0  S 36.66666666666667 13.0 36.66666666666667 0  S 50.66666666666667 -18.0 50.66666666666667 0  S 64.66666666666667 10.0 64.66666666666667 0  S 78.66666666666667 -13.0 78.66666666666667 0  S 90.0 13.0 90.0 0  M 90.0 0 100 0" stroke="black" fill="transparent"
                  transform="translate(492.666667 945.333333) rotate (17.762669 0 0) scale (0.808545 1)"/>
                  <path
                  d=" M 0 0 10.0 0  C 10.000000 -13.000000 20.000000 19.000000 20.000000 0  S 30.0 11.0 30.0 0  S 40.0 -18.0 40.0 0  S 50.0 18.0 50.0 0  S 60.0 -10.0 60.0 0  S 70.0 11.0 70.0 0  S 80.0 -18.0 80.0 0  S 90.0 17.0 90.0 0  M 90.0 0 100 0" stroke="black" fill="transparent"
                  transform="translate(425.666667 952.333333) rotate (6.994391 0 0) scale (1.450797 1)"/>
                  <path
                  d=" M 0 0 10.0 0  C 10.000000 -19.000000 26.000000 15.000000 26.000000 0  S 42.0 19.0 42.0 0  S 58.0 -16.0 58.0 0  S 74.0 18.0 74.0 0  S 90.0 17.0 90.0 0  M 90.0 0 100 0" stroke="black" fill="transparent"
                  transform="translate(842.666667 944.000000) rotate (7.125016 0 0) scale (0.564358 1)"/>
                  <path
                  d=" M 0 0 10.0 0  C 10.000000 -11.000000 20.000000 18.000000 20.000000 0  S 30.0 15.0 30.0 0  S 40.0 -14.0 40.0 0  S 50.0 12.0 50.0 0  S 60.0 -13.0 60.0 0  S 70.0 13.0 70.0 0  S 80.0 -18.0 80.0 0  S 90.0 17.0 90.0 0  M 90.0 0 100 0" stroke="black" fill="transparent"
                  transform="translate(784.000000 973.000000) rotate (-26.304024 0 0) scale (0.654429 1)"/>
                  <path
                  d=" M 0 0 10.0 0  C 10.000000 -15.000000 21.428571 15.000000 21.428571 0  S 32.85714285714286 10.0 32.85714285714286 0  S 44.85714285714286 -11.0 44.85714285714286 0  S 56.85714285714286 19.0 56.85714285714286 0  S 68.85714285714286 -13.0 68.85714285714286 0  S 80.85714285714286 12.0 80.85714285714286 0  S 90.0 16.0 90.0 0  M 90.0 0 100 0" stroke="black" fill="transparent"
                  transform="translate(784.000000 973.000000) rotate (-10.860815 0 0) scale (1.167581 1)"/>
                  <path
                  d=" M 0 0 10.0 0  C 10.000000 -18.000000 20.000000 15.000000 20.000000 0  S 30.0 14.0 30.0 0  S 40.0 -11.0 40.0 0  S 50.0 17.0 50.0 0  S 60.0 -10.0 60.0 0  S 70.0 10.0 70.0 0  S 80.0 -17.0 80.0 0  S 90.0 11.0 90.0 0  M 90.0 0 100 0" stroke="black" fill="transparent"
                  transform="translate(941.333333 261.333333) rotate (88.698047 0 0) scale (0.586818 1)"/>
                  <path
                  d=" M 0 0 10.0 0  C 10.000000 -18.000000 26.000000 14.000000 26.000000 0  S 42.0 13.0 42.0 0  S 58.0 -18.0 58.0 0  S 74.0 19.0 74.0 0  S 90.0 11.0 90.0 0  M 90.0 0 100 0" stroke="black" fill="transparent"
                  transform="translate(859.000000 259.333333) rotate (87.423428 0 0) scale (0.667341 1)"/>
                  <path
                  d=" M 0 0 10.0 0  C 10.000000 -14.000000 20.000000 10.000000 20.000000 0  S 30.0 17.0 30.0 0  S 40.0 -19.0 40.0 0  S 50.0 15.0 50.0 0  S 60.0 -11.0 60.0 0  S 70.0 18.0 70.0 0  S 80.0 -16.0 80.0 0  S 90.0 17.0 90.0 0  M 90.0 0 100 0" stroke="black" fill="transparent"
                  transform="translate(406.666667 802.333333) rotate (61.699244 0 0) scale (0.492161 1)"/>
                  <path
                  d=" M 0 0 10.0 0  C 10.000000 -10.000000 26.000000 19.000000 26.000000 0  S 42.0 18.0 42.0 0  S 58.0 -18.0 58.0 0  S 74.0 12.0 74.0 0  S 90.0 11.0 90.0 0  M 90.0 0 100 0" stroke="black" fill="transparent"
                  transform="translate(436.666667 717.333333) rotate (-2.290610 0 0) scale (0.750600 1)"/>
                  <path
                  d=" M 0 0 10.0 0  C 10.000000 -11.000000 20.000000 14.000000 20.000000 0  S 30.0 15.0 30.0 0  S 40.0 -19.0 40.0 0  S 50.0 12.0 50.0 0  S 60.0 -12.0 60.0 0  S 70.0 12.0 70.0 0  S 80.0 -13.0 80.0 0  S 90.0 10.0 90.0 0  M 90.0 0 100 0" stroke="black" fill="transparent"
                  transform="translate(309.333333 836.666667) rotate (-43.007906 0 0) scale (0.542443 1)"/>
                  <path
                  d=" M 0 0 10.0 0  C 10.000000 -17.000000 23.333333 18.000000 23.333333 0  S 36.66666666666667 10.0 36.66666666666667 0  S 50.66666666666667 -10.0 50.66666666666667 0  S 64.66666666666667 14.0 64.66666666666667 0  S 78.66666666666667 -10.0 78.66666666666667 0  S 90.0 14.0 90.0 0  M 90.0 0 100 0" stroke="black" fill="transparent"
                  transform="translate(205.666667 807.666667) rotate (-88.715556 0 0) scale (0.743520 1)"/>
                  <path
                  d=" M 0 0 10.0 0  C 10.000000 -13.000000 26.000000 15.000000 26.000000 0  S 42.0 15.0 42.0 0  S 58.0 -11.0 58.0 0  S 74.0 15.0 74.0 0  S 90.0 10.0 90.0 0  M 90.0 0 100 0" stroke="black" fill="transparent"
                  transform="translate(249.666667 692.666667) rotate (13.600543 0 0) scale (0.637887 1)"/>
                  <path
                  d=" M 0 0 10.0 0  C 10.000000 -13.000000 21.428571 13.000000 21.428571 0  S 32.85714285714286 11.0 32.85714285714286 0  S 44.85714285714286 -15.0 44.85714285714286 0  S 56.85714285714286 12.0 56.85714285714286 0  S 68.85714285714286 -11.0 68.85714285714286 0  S 80.85714285714286 15.0 80.85714285714286 0  S 90.0 18.0 90.0 0  M 90.0 0 100 0" stroke="black" fill="transparent"
                  transform="translate(976.666667 409.666667) rotate (-83.767144 0 0) scale (0.982474 1)"/>
                  <path
                  d=" M 0 0 10.0 0  C 10.000000 -15.000000 23.333333 15.000000 23.333333 0  S 36.66666666666667 18.0 36.66666666666667 0  S 50.66666666666667 -12.0 50.66666666666667 0  S 64.66666666666667 14.0 64.66666666666667 0  S 78.66666666666667 -14.0 78.66666666666667 0  S 90.0 11.0 90.0 0  M 90.0 0 100 0" stroke="black" fill="transparent"
                  transform="translate(107.333333 816.666667) rotate (42.833085 0 0) scale (0.436361 1)"/>
                  <path
                  d=" M 0 0 10.0 0  C 10.000000 -15.000000 20.000000 16.000000 20.000000 0  S 30.0 11.0 30.0 0  S 40.0 -18.0 40.0 0  S 50.0 14.0 50.0 0  S 60.0 -16.0 60.0 0  S 70.0 18.0 70.0 0  S 80.0 -15.0 80.0 0  S 90.0 14.0 90.0 0  M 90.0 0 100 0" stroke="black" fill="transparent"
                  transform="translate(80.000000 789.333333) rotate (43.850955 0 0) scale (0.822766 1)"/>
                  <path
                  d=" M 0 0 10.0 0  C 10.000000 -17.000000 23.333333 11.000000 23.333333 0  S 36.66666666666667 10.0 36.66666666666667 0  S 50.66666666666667 -17.0 50.66666666666667 0  S 64.66666666666667 10.0 64.66666666666667 0  S 78.66666666666667 -16.0 78.66666666666667 0  S 90.0 15.0 90.0 0  M 90.0 0 100 0" stroke="black" fill="transparent"
                  transform="translate(898.666667 951.000000) rotate (-49.594253 0 0) scale (0.529675 1)"/>
                  <path
                  d=" M 0 0 10.0 0  C 10.000000 -13.000000 21.428571 11.000000 21.428571 0  S 32.85714285714286 10.0 32.85714285714286 0  S 44.85714285714286 -11.0 44.85714285714286 0  S 56.85714285714286 11.0 56.85714285714286 0  S 68.85714285714286 -17.0 68.85714285714286 0  S 80.85714285714286 11.0 80.85714285714286 0  S 90.0 19.0 90.0 0  M 90.0 0 100 0" stroke="black" fill="transparent"
                  transform="translate(820.333333 820.666667) rotate (12.507445 0 0) scale (0.969679 1)"/>
                  <path
                  d=" M 0 0 10.0 0  C 10.000000 -14.000000 26.000000 17.000000 26.000000 0  S 42.0 12.0 42.0 0  S 58.0 -17.0 58.0 0  S 74.0 13.0 74.0 0  S 90.0 19.0 90.0 0  M 90.0 0 100 0" stroke="black" fill="transparent"
                  transform="translate(782.333333 882.666667) rotate (45.470914 0 0) scale (0.860342 1)"/>
                  <path
                  d=" M 0 0 10.0 0  C 10.000000 -19.000000 20.000000 14.000000 20.000000 0  S 30.0 11.0 30.0 0  S 40.0 -16.0 40.0 0  S 50.0 15.0 50.0 0  S 60.0 -17.0 60.0 0  S 70.0 13.0 70.0 0  S 80.0 -19.0 80.0 0  S 90.0 14.0 90.0 0  M 90.0 0 100 0" stroke="black" fill="transparent"
                  transform="translate(175.666667 974.333333) rotate (-27.542283 0 0) scale (0.699246 1)"/>
                  <path
                  d=" M 0 0 10.0 0  C 10.000000 -10.000000 20.000000 15.000000 20.000000 0  S 30.0 16.0 30.0 0  S 40.0 -19.0 40.0 0  S 50.0 17.0 50.0 0  S 60.0 -18.0 60.0 0  S 70.0 13.0 70.0 0  S 80.0 -14.0 80.0 0  S 90.0 16.0 90.0 0  M 90.0 0 100 0" stroke="black" fill="transparent"
                  transform="translate(115.666667 942.000000) rotate (-45.287916 0 0) scale (0.469053 1)"/>
                  <path
                  d=" M 0 0 10.0 0  C 10.000000 -14.000000 21.428571 12.000000 21.428571 0  S 32.85714285714286 17.0 32.85714285714286 0  S 44.85714285714286 -17.0 44.85714285714286 0  S 56.85714285714286 14.0 56.85714285714286 0  S 68.85714285714286 -13.0 68.85714285714286 0  S 80.85714285714286 11.0 80.85714285714286 0  S 90.0 17.0 90.0 0  M 90.0 0 100 0" stroke="black" fill="transparent"
                  transform="translate(202.666667 151.333333) rotate (-22.897767 0 0) scale (2.167461 1)"/>
                  <path
                  d=" M 0 0 10.0 0  C 10.000000 -10.000000 20.000000 18.000000 20.000000 0  S 30.0 16.0 30.0 0  S 40.0 -13.0 40.0 0  S 50.0 17.0 50.0 0  S 60.0 -18.0 60.0 0  S 70.0 19.0 70.0 0  S 80.0 -17.0 80.0 0  S 90.0 12.0 90.0 0  M 90.0 0 100 0" stroke="black" fill="transparent"
                  transform="translate(337.000000 906.666667) rotate (5.740607 0 0) scale (0.633175 1)"/>
                  <path
                  d=" M 0 0 10.0 0  C 10.000000 -17.000000 20.000000 17.000000 20.000000 0  S 30.0 13.0 30.0 0  S 40.0 -16.0 40.0 0  S 50.0 10.0 50.0 0  S 60.0 -10.0 60.0 0  S 70.0 17.0 70.0 0  S 80.0 -13.0 80.0 0  S 90.0 13.0 90.0 0  M 90.0 0 100 0" stroke="black" fill="transparent"
                  transform="translate(703.333333 146.000000) rotate (82.910070 0 0) scale (0.675163 1)"/>
                  <path
                  d=" M 0 0 10.0 0  C 10.000000 -16.000000 26.000000 16.000000 26.000000 0  S 42.0 14.0 42.0 0  S 58.0 -18.0 58.0 0  S 74.0 13.0 74.0 0  S 90.0 18.0 90.0 0  M 90.0 0 100 0" stroke="black" fill="transparent"
                  transform="translate(744.666667 253.000000) rotate (-29.079418 0 0) scale (0.747566 1)"/>
                  <path
                  d=" M 0 0 10.0 0  C 10.000000 -12.000000 21.428571 13.000000 21.428571 0  S 32.85714285714286 16.0 32.85714285714286 0  S 44.85714285714286 -10.0 44.85714285714286 0  S 56.85714285714286 18.0 56.85714285714286 0  S 68.85714285714286 -13.0 68.85714285714286 0  S 80.85714285714286 13.0 80.85714285714286 0  S 90.0 14.0 90.0 0  M 90.0 0 100 0" stroke="black" fill="transparent"
                  transform="translate(733.000000 112.333333) rotate (0.298413 0 0) scale (0.640009 1)"/>
                  <path
                  d=" M 0 0 10.0 0  C 10.000000 -16.000000 23.333333 11.000000 23.333333 0  S 36.66666666666667 11.0 36.66666666666667 0  S 50.66666666666667 -14.0 50.66666666666667 0  S 64.66666666666667 11.0 64.66666666666667 0  S 78.66666666666667 -10.0 78.66666666666667 0  S 90.0 19.0 90.0 0  M 90.0 0 100 0" stroke="black" fill="transparent"
                  transform="translate(751.666667 317.666667) rotate (23.936552 0 0) scale (0.747633 1)"/>
                  <path
                  d=" M 0 0 10.0 0  C 10.000000 -15.000000 21.428571 13.000000 21.428571 0  S 32.85714285714286 16.0 32.85714285714286 0  S 44.85714285714286 -13.0 44.85714285714286 0  S 56.85714285714286 12.0 56.85714285714286 0  S 68.85714285714286 -15.0 68.85714285714286 0  S 80.85714285714286 14.0 80.85714285714286 0  S 90.0 12.0 90.0 0  M 90.0 0 100 0" stroke="black" fill="transparent"
                  transform="translate(104.333333 753.333333) rotate (-52.993521 0 0) scale (0.559335 1)"/>
                  <path
                  d=" M 0 0 10.0 0  C 10.000000 -17.000000 21.428571 10.000000 21.428571 0  S 32.85714285714286 13.0 32.85714285714286 0  S 44.85714285714286 -15.0 44.85714285714286 0  S 56.85714285714286 15.0 56.85714285714286 0  S 68.85714285714286 -14.0 68.85714285714286 0  S 80.85714285714286 16.0 80.85714285714286 0  S 90.0 15.0 90.0 0  M 90.0 0 100 0" stroke="black" fill="transparent"
                  transform="translate(80.000000 789.333333) rotate (-79.159695 0 0) scale (1.595131 1)"/>
                  <path
                  d=" M 0 0 10.0 0  C 10.000000 -19.000000 26.000000 12.000000 26.000000 0  S 42.0 14.0 42.0 0  S 58.0 -19.0 58.0 0  S 74.0 14.0 74.0 0  S 90.0 13.0 90.0 0  M 90.0 0 100 0" stroke="black" fill="transparent"
                  transform="translate(908.666667 716.000000) rotate (37.278174 0 0) scale (0.561348 1)"/>
                  <path
                  d=" M 0 0 10.0 0  C 10.000000 -12.000000 26.000000 17.000000 26.000000 0  S 42.0 19.0 42.0 0  S 58.0 -15.0 58.0 0  S 74.0 15.0 74.0 0  S 90.0 17.0 90.0 0  M 90.0 0 100 0" stroke="black" fill="transparent"
                  transform="translate(733.000000 112.333333) rotate (-12.193667 0 0) scale (1.483468 1)"/>
                  <path
                  d=" M 0 0 10.0 0  C 10.000000 -14.000000 20.000000 18.000000 20.000000 0  S 30.0 15.0 30.0 0  S 40.0 -12.0 40.0 0  S 50.0 19.0 50.0 0  S 60.0 -17.0 60.0 0  S 70.0 11.0 70.0 0  S 80.0 -16.0 80.0 0  S 90.0 17.0 90.0 0  M 90.0 0 100 0" stroke="black" fill="transparent"
                  transform="translate(723.666667 911.666667) rotate (45.470914 0 0) scale (0.860342 1)"/>
                  <path
                  d=" M 0 0 10.0 0  C 10.000000 -19.000000 26.000000 18.000000 26.000000 0  S 42.0 15.0 42.0 0  S 58.0 -18.0 58.0 0  S 74.0 11.0 74.0 0  S 90.0 13.0 90.0 0  M 90.0 0 100 0" stroke="black" fill="transparent"
                  transform="translate(942.000000 614.333333) rotate (54.829055 0 0) scale (0.787013 1)"/>
                  <ellipse
      cx="400.00"
      cy="400.00"
      rx="100"
      ry="100"
      stroke="#fc8d62"
      stroke-width="1"
      fill="transparent"
    /><ellipse
      cx="700.00"
      cy="800.00"
      rx="50"
      ry="50"
      stroke="#fc8d62"
      stroke-width="1"
      fill="transparent"
    />
</svg>
