<svg xmlns="http://www.w3.org/2000/svg"
  xmlns:xlink="http://www.w3.org/1999/xlink"
  width="1000" height="1000" viewport="0 0 500 500">

<path 
  d="M0,21 C30,28 45,28 45,21 C45,17 34,16 35,11 C36,6 42.5,1 50,1 C57.5,1 64,6 65,11 C66,16 55,20 55,21 C55,24 70,24 100,21"
  id="Path"
  stroke="#979797"
  fill="none"
  transform="translate(50 50)">
</path>

<path 
  d="M0,21 C30,28 45,28 45,21 C45,17 34,16 35,11 C36,6 42.5,1 50,1 C57.5,1 64,6 65,11 C66,16 55,20 55,21 C55,24 70,24 100,21"
  id="Path"
  stroke="#979797"
  fill="none"
  transform="translate(50 50) rotate(90 0 21) scale(2 1)">
</path>

<path 
  d="M0,21 C30,28 45,28 45,21 C45,17 34,16 35,11 C36,6 42.5,1 50,1 C57.5,1 64,6 65,11 C66,16 55,20 55,21 C55,24 70,24 100,21"
  id="Path"
  stroke="#979797"
  fill="none"
  transform="translate(150 250) rotate(180 0 21)">
</path>

<path 
  d="M0,21 C30,28 45,28 45,21 C45,17 34,16 35,11 C36,6 42.5,1 50,1 C57.5,1 64,6 65,11 C66,16 55,20 55,21 C55,24 70,24 100,21"
  id="Path"
  stroke="#979797"
  fill="none"
  transform="translate(150 250) rotate(270 0 21) scale(2 1)">
</path>


</svg>