<svg xmlns="http://www.w3.org/2000/svg"
  xmlns:xlink="http://www.w3.org/1999/xlink"
  width="1000" height="1000">
<path 
        d="M0,21 C30,28 45,28 45,21 C45,17 34,16 35,11 C36,6 42.5,1 50,1 C57.5,1 64,6 65,11 C66,16 55,20 55,21 C55,24 70,24 100,21"
        id="path-50-50-150-50"
        stroke="#979797"
        fill="none"
        transform="translate(50 29) rotate(0.000000 0 21) scale(1.000000 1)">
      </path><path 
        d="M0,21 C30,28 45,28 45,21 C45,17 34,16 35,11 C36,6 42.5,1 50,1 C57.5,1 64,6 65,11 C66,16 55,20 55,21 C55,24 70,24 100,21"
        id="path-50-50-50-150"
        stroke="#979797"
        fill="none"
        transform="translate(50 29) rotate(90.000000 0 21) scale(1.000000 1)">
      </path>
</svg>
