<svg xmlns="http://www.w3.org/2000/svg"
  xmlns:xlink="http://www.w3.org/1999/xlink"
  width="1000" height="1000">
<ellipse
      cx="50"
      cy="50"
      rx="3"
      ry="3"
      stroke="#fc8d62"
      stroke-width="5"
    /><ellipse
      cx="50"
      cy="150"
      rx="3"
      ry="3"
      stroke="#fc8d62"
      stroke-width="5"
    /><ellipse
      cx="50"
      cy="250"
      rx="3"
      ry="3"
      stroke="#fc8d62"
      stroke-width="5"
    /><ellipse
      cx="50"
      cy="350"
      rx="3"
      ry="3"
      stroke="#fc8d62"
      stroke-width="5"
    /><ellipse
      cx="50"
      cy="450"
      rx="3"
      ry="3"
      stroke="#fc8d62"
      stroke-width="5"
    /><ellipse
      cx="50"
      cy="550"
      rx="3"
      ry="3"
      stroke="#fc8d62"
      stroke-width="5"
    /><ellipse
      cx="50"
      cy="650"
      rx="3"
      ry="3"
      stroke="#fc8d62"
      stroke-width="5"
    /><ellipse
      cx="50"
      cy="750"
      rx="3"
      ry="3"
      stroke="#fc8d62"
      stroke-width="5"
    /><ellipse
      cx="50"
      cy="850"
      rx="3"
      ry="3"
      stroke="#fc8d62"
      stroke-width="5"
    /><ellipse
      cx="50"
      cy="950"
      rx="3"
      ry="3"
      stroke="#fc8d62"
      stroke-width="5"
    /><ellipse
      cx="150"
      cy="50"
      rx="3"
      ry="3"
      stroke="#fc8d62"
      stroke-width="5"
    /><ellipse
      cx="150"
      cy="150"
      rx="3"
      ry="3"
      stroke="#fc8d62"
      stroke-width="5"
    /><ellipse
      cx="150"
      cy="250"
      rx="3"
      ry="3"
      stroke="#fc8d62"
      stroke-width="5"
    /><ellipse
      cx="150"
      cy="350"
      rx="3"
      ry="3"
      stroke="#fc8d62"
      stroke-width="5"
    /><ellipse
      cx="150"
      cy="450"
      rx="3"
      ry="3"
      stroke="#fc8d62"
      stroke-width="5"
    /><ellipse
      cx="150"
      cy="550"
      rx="3"
      ry="3"
      stroke="#fc8d62"
      stroke-width="5"
    /><ellipse
      cx="150"
      cy="650"
      rx="3"
      ry="3"
      stroke="#fc8d62"
      stroke-width="5"
    /><ellipse
      cx="150"
      cy="750"
      rx="3"
      ry="3"
      stroke="#fc8d62"
      stroke-width="5"
    /><ellipse
      cx="150"
      cy="850"
      rx="3"
      ry="3"
      stroke="#fc8d62"
      stroke-width="5"
    /><ellipse
      cx="150"
      cy="950"
      rx="3"
      ry="3"
      stroke="#fc8d62"
      stroke-width="5"
    /><ellipse
      cx="250"
      cy="50"
      rx="3"
      ry="3"
      stroke="#fc8d62"
      stroke-width="5"
    /><ellipse
      cx="250"
      cy="150"
      rx="3"
      ry="3"
      stroke="#fc8d62"
      stroke-width="5"
    /><ellipse
      cx="250"
      cy="250"
      rx="3"
      ry="3"
      stroke="#fc8d62"
      stroke-width="5"
    /><ellipse
      cx="250"
      cy="350"
      rx="3"
      ry="3"
      stroke="#fc8d62"
      stroke-width="5"
    /><ellipse
      cx="250"
      cy="450"
      rx="3"
      ry="3"
      stroke="#fc8d62"
      stroke-width="5"
    /><ellipse
      cx="250"
      cy="550"
      rx="3"
      ry="3"
      stroke="#fc8d62"
      stroke-width="5"
    /><ellipse
      cx="250"
      cy="650"
      rx="3"
      ry="3"
      stroke="#fc8d62"
      stroke-width="5"
    /><ellipse
      cx="250"
      cy="750"
      rx="3"
      ry="3"
      stroke="#fc8d62"
      stroke-width="5"
    /><ellipse
      cx="250"
      cy="850"
      rx="3"
      ry="3"
      stroke="#fc8d62"
      stroke-width="5"
    /><ellipse
      cx="250"
      cy="950"
      rx="3"
      ry="3"
      stroke="#fc8d62"
      stroke-width="5"
    /><ellipse
      cx="350"
      cy="50"
      rx="3"
      ry="3"
      stroke="#fc8d62"
      stroke-width="5"
    /><ellipse
      cx="350"
      cy="150"
      rx="3"
      ry="3"
      stroke="#fc8d62"
      stroke-width="5"
    /><ellipse
      cx="350"
      cy="250"
      rx="3"
      ry="3"
      stroke="#fc8d62"
      stroke-width="5"
    /><ellipse
      cx="350"
      cy="350"
      rx="3"
      ry="3"
      stroke="#fc8d62"
      stroke-width="5"
    /><ellipse
      cx="350"
      cy="450"
      rx="3"
      ry="3"
      stroke="#fc8d62"
      stroke-width="5"
    /><ellipse
      cx="350"
      cy="550"
      rx="3"
      ry="3"
      stroke="#fc8d62"
      stroke-width="5"
    /><ellipse
      cx="350"
      cy="650"
      rx="3"
      ry="3"
      stroke="#fc8d62"
      stroke-width="5"
    /><ellipse
      cx="350"
      cy="750"
      rx="3"
      ry="3"
      stroke="#fc8d62"
      stroke-width="5"
    /><ellipse
      cx="350"
      cy="850"
      rx="3"
      ry="3"
      stroke="#fc8d62"
      stroke-width="5"
    /><ellipse
      cx="350"
      cy="950"
      rx="3"
      ry="3"
      stroke="#fc8d62"
      stroke-width="5"
    /><ellipse
      cx="450"
      cy="50"
      rx="3"
      ry="3"
      stroke="#fc8d62"
      stroke-width="5"
    /><ellipse
      cx="450"
      cy="150"
      rx="3"
      ry="3"
      stroke="#fc8d62"
      stroke-width="5"
    /><ellipse
      cx="450"
      cy="250"
      rx="3"
      ry="3"
      stroke="#fc8d62"
      stroke-width="5"
    /><ellipse
      cx="450"
      cy="350"
      rx="3"
      ry="3"
      stroke="#fc8d62"
      stroke-width="5"
    /><ellipse
      cx="450"
      cy="450"
      rx="3"
      ry="3"
      stroke="#fc8d62"
      stroke-width="5"
    /><ellipse
      cx="450"
      cy="550"
      rx="3"
      ry="3"
      stroke="#fc8d62"
      stroke-width="5"
    /><ellipse
      cx="450"
      cy="650"
      rx="3"
      ry="3"
      stroke="#fc8d62"
      stroke-width="5"
    /><ellipse
      cx="450"
      cy="750"
      rx="3"
      ry="3"
      stroke="#fc8d62"
      stroke-width="5"
    /><ellipse
      cx="450"
      cy="850"
      rx="3"
      ry="3"
      stroke="#fc8d62"
      stroke-width="5"
    /><ellipse
      cx="450"
      cy="950"
      rx="3"
      ry="3"
      stroke="#fc8d62"
      stroke-width="5"
    /><ellipse
      cx="550"
      cy="50"
      rx="3"
      ry="3"
      stroke="#fc8d62"
      stroke-width="5"
    /><ellipse
      cx="550"
      cy="150"
      rx="3"
      ry="3"
      stroke="#fc8d62"
      stroke-width="5"
    /><ellipse
      cx="550"
      cy="250"
      rx="3"
      ry="3"
      stroke="#fc8d62"
      stroke-width="5"
    /><ellipse
      cx="550"
      cy="350"
      rx="3"
      ry="3"
      stroke="#fc8d62"
      stroke-width="5"
    /><ellipse
      cx="550"
      cy="450"
      rx="3"
      ry="3"
      stroke="#fc8d62"
      stroke-width="5"
    /><ellipse
      cx="550"
      cy="550"
      rx="3"
      ry="3"
      stroke="#fc8d62"
      stroke-width="5"
    /><ellipse
      cx="550"
      cy="650"
      rx="3"
      ry="3"
      stroke="#fc8d62"
      stroke-width="5"
    /><ellipse
      cx="550"
      cy="750"
      rx="3"
      ry="3"
      stroke="#fc8d62"
      stroke-width="5"
    /><ellipse
      cx="550"
      cy="850"
      rx="3"
      ry="3"
      stroke="#fc8d62"
      stroke-width="5"
    /><ellipse
      cx="550"
      cy="950"
      rx="3"
      ry="3"
      stroke="#fc8d62"
      stroke-width="5"
    /><ellipse
      cx="650"
      cy="50"
      rx="3"
      ry="3"
      stroke="#fc8d62"
      stroke-width="5"
    /><ellipse
      cx="650"
      cy="150"
      rx="3"
      ry="3"
      stroke="#fc8d62"
      stroke-width="5"
    /><ellipse
      cx="650"
      cy="250"
      rx="3"
      ry="3"
      stroke="#fc8d62"
      stroke-width="5"
    /><ellipse
      cx="650"
      cy="350"
      rx="3"
      ry="3"
      stroke="#fc8d62"
      stroke-width="5"
    /><ellipse
      cx="650"
      cy="450"
      rx="3"
      ry="3"
      stroke="#fc8d62"
      stroke-width="5"
    /><ellipse
      cx="650"
      cy="550"
      rx="3"
      ry="3"
      stroke="#fc8d62"
      stroke-width="5"
    /><ellipse
      cx="650"
      cy="650"
      rx="3"
      ry="3"
      stroke="#fc8d62"
      stroke-width="5"
    /><ellipse
      cx="650"
      cy="750"
      rx="3"
      ry="3"
      stroke="#fc8d62"
      stroke-width="5"
    /><ellipse
      cx="650"
      cy="850"
      rx="3"
      ry="3"
      stroke="#fc8d62"
      stroke-width="5"
    /><ellipse
      cx="650"
      cy="950"
      rx="3"
      ry="3"
      stroke="#fc8d62"
      stroke-width="5"
    /><ellipse
      cx="750"
      cy="50"
      rx="3"
      ry="3"
      stroke="#fc8d62"
      stroke-width="5"
    /><ellipse
      cx="750"
      cy="150"
      rx="3"
      ry="3"
      stroke="#fc8d62"
      stroke-width="5"
    /><ellipse
      cx="750"
      cy="250"
      rx="3"
      ry="3"
      stroke="#fc8d62"
      stroke-width="5"
    /><ellipse
      cx="750"
      cy="350"
      rx="3"
      ry="3"
      stroke="#fc8d62"
      stroke-width="5"
    /><ellipse
      cx="750"
      cy="450"
      rx="3"
      ry="3"
      stroke="#fc8d62"
      stroke-width="5"
    /><ellipse
      cx="750"
      cy="550"
      rx="3"
      ry="3"
      stroke="#fc8d62"
      stroke-width="5"
    /><ellipse
      cx="750"
      cy="650"
      rx="3"
      ry="3"
      stroke="#fc8d62"
      stroke-width="5"
    /><ellipse
      cx="750"
      cy="750"
      rx="3"
      ry="3"
      stroke="#fc8d62"
      stroke-width="5"
    /><ellipse
      cx="750"
      cy="850"
      rx="3"
      ry="3"
      stroke="#fc8d62"
      stroke-width="5"
    /><ellipse
      cx="750"
      cy="950"
      rx="3"
      ry="3"
      stroke="#fc8d62"
      stroke-width="5"
    /><ellipse
      cx="850"
      cy="50"
      rx="3"
      ry="3"
      stroke="#fc8d62"
      stroke-width="5"
    /><ellipse
      cx="850"
      cy="150"
      rx="3"
      ry="3"
      stroke="#fc8d62"
      stroke-width="5"
    /><ellipse
      cx="850"
      cy="250"
      rx="3"
      ry="3"
      stroke="#fc8d62"
      stroke-width="5"
    /><ellipse
      cx="850"
      cy="350"
      rx="3"
      ry="3"
      stroke="#fc8d62"
      stroke-width="5"
    /><ellipse
      cx="850"
      cy="450"
      rx="3"
      ry="3"
      stroke="#fc8d62"
      stroke-width="5"
    /><ellipse
      cx="850"
      cy="550"
      rx="3"
      ry="3"
      stroke="#fc8d62"
      stroke-width="5"
    /><ellipse
      cx="850"
      cy="650"
      rx="3"
      ry="3"
      stroke="#fc8d62"
      stroke-width="5"
    /><ellipse
      cx="850"
      cy="750"
      rx="3"
      ry="3"
      stroke="#fc8d62"
      stroke-width="5"
    /><ellipse
      cx="850"
      cy="850"
      rx="3"
      ry="3"
      stroke="#fc8d62"
      stroke-width="5"
    /><ellipse
      cx="850"
      cy="950"
      rx="3"
      ry="3"
      stroke="#fc8d62"
      stroke-width="5"
    /><ellipse
      cx="950"
      cy="50"
      rx="3"
      ry="3"
      stroke="#fc8d62"
      stroke-width="5"
    /><ellipse
      cx="950"
      cy="150"
      rx="3"
      ry="3"
      stroke="#fc8d62"
      stroke-width="5"
    /><ellipse
      cx="950"
      cy="250"
      rx="3"
      ry="3"
      stroke="#fc8d62"
      stroke-width="5"
    /><ellipse
      cx="950"
      cy="350"
      rx="3"
      ry="3"
      stroke="#fc8d62"
      stroke-width="5"
    /><ellipse
      cx="950"
      cy="450"
      rx="3"
      ry="3"
      stroke="#fc8d62"
      stroke-width="5"
    /><ellipse
      cx="950"
      cy="550"
      rx="3"
      ry="3"
      stroke="#fc8d62"
      stroke-width="5"
    /><ellipse
      cx="950"
      cy="650"
      rx="3"
      ry="3"
      stroke="#fc8d62"
      stroke-width="5"
    /><ellipse
      cx="950"
      cy="750"
      rx="3"
      ry="3"
      stroke="#fc8d62"
      stroke-width="5"
    /><ellipse
      cx="950"
      cy="850"
      rx="3"
      ry="3"
      stroke="#fc8d62"
      stroke-width="5"
    /><ellipse
      cx="950"
      cy="950"
      rx="3"
      ry="3"
      stroke="#fc8d62"
      stroke-width="5"
    />
</svg>
