<svg xmlns="http://www.w3.org/2000/svg"
  xmlns:xlink="http://www.w3.org/1999/xlink"
  width="1000" height="1000">
<path 
        d="M0,21 C30,28 45,28 45,21 C45,17 34,16 35,11 C36,6 42.5,1 50,1 C57.5,1 64,6 65,11 C66,16 55,20 55,21 C55,24 70,24 100,21"
        id="path-61-68-61-164"
        stroke="#979797"
        fill="none"
        transform="translate(61 47) rotate(90.000000 0 21) scale(0.960000 1)">
      </path><path 
        d="M0,21 C30,28 45,28 45,21 C45,17 34,16 35,11 C36,6 42.5,1 50,1 C57.5,1 64,6 65,11 C66,16 55,20 55,21 C55,24 70,24 100,21"
        id="path-61-68-168-66"
        stroke="#979797"
        fill="none"
        transform="translate(61 47) rotate(-1.070824 0 21) scale(1.070187 1)">
      </path><path 
        d="M0,21 C30,28 45,28 45,21 C45,17 34,16 35,11 C36,6 42.5,1 50,1 C57.5,1 64,6 65,11 C66,16 55,20 55,21 C55,24 70,24 100,21"
        id="path-61-164-68-265"
        stroke="#979797"
        fill="none"
        transform="translate(61 143) rotate(86.035345 0 21) scale(1.012423 1)">
      </path><path 
        d="M0,21 C30,28 45,28 45,21 C45,17 34,16 35,11 C36,6 42.5,1 50,1 C57.5,1 64,6 65,11 C66,16 55,20 55,21 C55,24 70,24 100,21"
        id="path-61-164-154-166"
        stroke="#979797"
        fill="none"
        transform="translate(61 143) rotate(1.231977 0 21) scale(0.930215 1)">
      </path><path 
        d="M0,21 C30,28 45,28 45,21 C45,17 34,16 35,11 C36,6 42.5,1 50,1 C57.5,1 64,6 65,11 C66,16 55,20 55,21 C55,24 70,24 100,21"
        id="path-68-265-168-251"
        stroke="#979797"
        fill="none"
        transform="translate(68 244) rotate(-7.969610 0 21) scale(1.009752 1)">
      </path><path 
        d="M0,21 C30,28 45,28 45,21 C45,17 34,16 35,11 C36,6 42.5,1 50,1 C57.5,1 64,6 65,11 C66,16 55,20 55,21 C55,24 70,24 100,21"
        id="path-168-66-154-166"
        stroke="#979797"
        fill="none"
        transform="translate(168 45) rotate(97.969610 0 21) scale(1.009752 1)">
      </path><path 
        d="M0,21 C30,28 45,28 45,21 C45,17 34,16 35,11 C36,6 42.5,1 50,1 C57.5,1 64,6 65,11 C66,16 55,20 55,21 C55,24 70,24 100,21"
        id="path-168-66-265-67"
        stroke="#979797"
        fill="none"
        transform="translate(168 45) rotate(0.590657 0 21) scale(0.970052 1)">
      </path><path 
        d="M0,21 C30,28 45,28 45,21 C45,17 34,16 35,11 C36,6 42.5,1 50,1 C57.5,1 64,6 65,11 C66,16 55,20 55,21 C55,24 70,24 100,21"
        id="path-154-166-168-251"
        stroke="#979797"
        fill="none"
        transform="translate(154 145) rotate(80.647021 0 21) scale(0.861452 1)">
      </path><path 
        d="M0,21 C30,28 45,28 45,21 C45,17 34,16 35,11 C36,6 42.5,1 50,1 C57.5,1 64,6 65,11 C66,16 55,20 55,21 C55,24 70,24 100,21"
        id="path-154-166-250-152"
        stroke="#979797"
        fill="none"
        transform="translate(154 145) rotate(-8.297145 0 21) scale(0.970155 1)">
      </path><path 
        d="M0,21 C30,28 45,28 45,21 C45,17 34,16 35,11 C36,6 42.5,1 50,1 C57.5,1 64,6 65,11 C66,16 55,20 55,21 C55,24 70,24 100,21"
        id="path-168-251-260-254"
        stroke="#979797"
        fill="none"
        transform="translate(168 230) rotate(1.867679 0 21) scale(0.920489 1)">
      </path><path 
        d="M0,21 C30,28 45,28 45,21 C45,17 34,16 35,11 C36,6 42.5,1 50,1 C57.5,1 64,6 65,11 C66,16 55,20 55,21 C55,24 70,24 100,21"
        id="path-265-67-250-152"
        stroke="#979797"
        fill="none"
        transform="translate(265 46) rotate(100.007980 0 21) scale(0.863134 1)">
      </path><path 
        d="M0,21 C30,28 45,28 45,21 C45,17 34,16 35,11 C36,6 42.5,1 50,1 C57.5,1 64,6 65,11 C66,16 55,20 55,21 C55,24 70,24 100,21"
        id="path-250-152-260-254"
        stroke="#979797"
        fill="none"
        transform="translate(250 131) rotate(84.400661 0 21) scale(1.024890 1)">
      </path>
</svg>
