<svg xmlns="http://www.w3.org/2000/svg"
  xmlns:xlink="http://www.w3.org/1999/xlink"
  width="1000" height="1000">
<path 
        d="M0,21 C30,28 45,28 45,21 C45,17 34,16 35,11 C36,6 42.5,1 50,1 C57.5,1 64,6 65,11 C66,16 55,20 55,21 C55,24 70,24 100,21"
        id="path-59-56-61-152"
        stroke="#979797"
        fill="none"
        transform="translate(59 35) rotate(88.806511 0 21) scale(0.960208 1)">
      </path><path 
        d="M0,21 C30,28 45,28 45,21 C45,17 34,16 35,11 C36,6 42.5,1 50,1 C57.5,1 64,6 65,11 C66,16 55,20 55,21 C55,24 70,24 100,21"
        id="path-59-56-158-59"
        stroke="#979797"
        fill="none"
        transform="translate(59 35) rotate(1.735705 0 21) scale(0.990454 1)">
      </path><path 
        d="M0,21 C30,28 45,28 45,21 C45,17 34,16 35,11 C36,6 42.5,1 50,1 C57.5,1 64,6 65,11 C66,16 55,20 55,21 C55,24 70,24 100,21"
        id="path-61-152-68-266"
        stroke="#979797"
        fill="none"
        transform="translate(61 131) rotate(86.486250 0 21) scale(1.142147 1)">
      </path><path 
        d="M0,21 C30,28 45,28 45,21 C45,17 34,16 35,11 C36,6 42.5,1 50,1 C57.5,1 64,6 65,11 C66,16 55,20 55,21 C55,24 70,24 100,21"
        id="path-61-152-159-163"
        stroke="#979797"
        fill="none"
        transform="translate(61 131) rotate(6.404353 0 21) scale(0.986154 1)">
      </path><path 
        d="M0,21 C30,28 45,28 45,21 C45,17 34,16 35,11 C36,6 42.5,1 50,1 C57.5,1 64,6 65,11 C66,16 55,20 55,21 C55,24 70,24 100,21"
        id="path-68-266-63-355"
        stroke="#979797"
        fill="none"
        transform="translate(68 245) rotate(93.215484 0 21) scale(0.891403 1)">
      </path><path 
        d="M0,21 C30,28 45,28 45,21 C45,17 34,16 35,11 C36,6 42.5,1 50,1 C57.5,1 64,6 65,11 C66,16 55,20 55,21 C55,24 70,24 100,21"
        id="path-68-266-155-267"
        stroke="#979797"
        fill="none"
        transform="translate(68 245) rotate(0.658543 0 21) scale(0.870057 1)">
      </path><path 
        d="M0,21 C30,28 45,28 45,21 C45,17 34,16 35,11 C36,6 42.5,1 50,1 C57.5,1 64,6 65,11 C66,16 55,20 55,21 C55,24 70,24 100,21"
        id="path-63-355-66-469"
        stroke="#979797"
        fill="none"
        transform="translate(63 334) rotate(88.492564 0 21) scale(1.140395 1)">
      </path><path 
        d="M0,21 C30,28 45,28 45,21 C45,17 34,16 35,11 C36,6 42.5,1 50,1 C57.5,1 64,6 65,11 C66,16 55,20 55,21 C55,24 70,24 100,21"
        id="path-63-355-169-353"
        stroke="#979797"
        fill="none"
        transform="translate(63 334) rotate(-1.080924 0 21) scale(1.060189 1)">
      </path><path 
        d="M0,21 C30,28 45,28 45,21 C45,17 34,16 35,11 C36,6 42.5,1 50,1 C57.5,1 64,6 65,11 C66,16 55,20 55,21 C55,24 70,24 100,21"
        id="path-66-469-58-557"
        stroke="#979797"
        fill="none"
        transform="translate(66 448) rotate(95.194429 0 21) scale(0.883629 1)">
      </path><path 
        d="M0,21 C30,28 45,28 45,21 C45,17 34,16 35,11 C36,6 42.5,1 50,1 C57.5,1 64,6 65,11 C66,16 55,20 55,21 C55,24 70,24 100,21"
        id="path-66-469-166-460"
        stroke="#979797"
        fill="none"
        transform="translate(66 448) rotate(-5.142765 0 21) scale(1.004042 1)">
      </path><path 
        d="M0,21 C30,28 45,28 45,21 C45,17 34,16 35,11 C36,6 42.5,1 50,1 C57.5,1 64,6 65,11 C66,16 55,20 55,21 C55,24 70,24 100,21"
        id="path-58-557-160-562"
        stroke="#979797"
        fill="none"
        transform="translate(58 536) rotate(2.806370 0 21) scale(1.021225 1)">
      </path><path 
        d="M0,21 C30,28 45,28 45,21 C45,17 34,16 35,11 C36,6 42.5,1 50,1 C57.5,1 64,6 65,11 C66,16 55,20 55,21 C55,24 70,24 100,21"
        id="path-158-59-159-163"
        stroke="#979797"
        fill="none"
        transform="translate(158 38) rotate(89.449096 0 21) scale(1.040048 1)">
      </path><path 
        d="M0,21 C30,28 45,28 45,21 C45,17 34,16 35,11 C36,6 42.5,1 50,1 C57.5,1 64,6 65,11 C66,16 55,20 55,21 C55,24 70,24 100,21"
        id="path-158-59-251-55"
        stroke="#979797"
        fill="none"
        transform="translate(158 38) rotate(-2.462817 0 21) scale(0.930860 1)">
      </path><path 
        d="M0,21 C30,28 45,28 45,21 C45,17 34,16 35,11 C36,6 42.5,1 50,1 C57.5,1 64,6 65,11 C66,16 55,20 55,21 C55,24 70,24 100,21"
        id="path-159-163-155-267"
        stroke="#979797"
        fill="none"
        transform="translate(159 142) rotate(92.202598 0 21) scale(1.040769 1)">
      </path><path 
        d="M0,21 C30,28 45,28 45,21 C45,17 34,16 35,11 C36,6 42.5,1 50,1 C57.5,1 64,6 65,11 C66,16 55,20 55,21 C55,24 70,24 100,21"
        id="path-159-163-250-158"
        stroke="#979797"
        fill="none"
        transform="translate(159 142) rotate(-3.144957 0 21) scale(0.911373 1)">
      </path><path 
        d="M0,21 C30,28 45,28 45,21 C45,17 34,16 35,11 C36,6 42.5,1 50,1 C57.5,1 64,6 65,11 C66,16 55,20 55,21 C55,24 70,24 100,21"
        id="path-155-267-169-353"
        stroke="#979797"
        fill="none"
        transform="translate(155 246) rotate(80.753887 0 21) scale(0.871321 1)">
      </path><path 
        d="M0,21 C30,28 45,28 45,21 C45,17 34,16 35,11 C36,6 42.5,1 50,1 C57.5,1 64,6 65,11 C66,16 55,20 55,21 C55,24 70,24 100,21"
        id="path-155-267-264-256"
        stroke="#979797"
        fill="none"
        transform="translate(155 246) rotate(-5.762633 0 21) scale(1.095536 1)">
      </path><path 
        d="M0,21 C30,28 45,28 45,21 C45,17 34,16 35,11 C36,6 42.5,1 50,1 C57.5,1 64,6 65,11 C66,16 55,20 55,21 C55,24 70,24 100,21"
        id="path-169-353-166-460"
        stroke="#979797"
        fill="none"
        transform="translate(169 332) rotate(91.606003 0 21) scale(1.070420 1)">
      </path><path 
        d="M0,21 C30,28 45,28 45,21 C45,17 34,16 35,11 C36,6 42.5,1 50,1 C57.5,1 64,6 65,11 C66,16 55,20 55,21 C55,24 70,24 100,21"
        id="path-169-353-250-360"
        stroke="#979797"
        fill="none"
        transform="translate(169 332) rotate(4.939216 0 21) scale(0.813019 1)">
      </path><path 
        d="M0,21 C30,28 45,28 45,21 C45,17 34,16 35,11 C36,6 42.5,1 50,1 C57.5,1 64,6 65,11 C66,16 55,20 55,21 C55,24 70,24 100,21"
        id="path-166-460-160-562"
        stroke="#979797"
        fill="none"
        transform="translate(166 439) rotate(93.366461 0 21) scale(1.021763 1)">
      </path><path 
        d="M0,21 C30,28 45,28 45,21 C45,17 34,16 35,11 C36,6 42.5,1 50,1 C57.5,1 64,6 65,11 C66,16 55,20 55,21 C55,24 70,24 100,21"
        id="path-166-460-254-461"
        stroke="#979797"
        fill="none"
        transform="translate(166 439) rotate(0.651060 0 21) scale(0.880057 1)">
      </path><path 
        d="M0,21 C30,28 45,28 45,21 C45,17 34,16 35,11 C36,6 42.5,1 50,1 C57.5,1 64,6 65,11 C66,16 55,20 55,21 C55,24 70,24 100,21"
        id="path-160-562-268-555"
        stroke="#979797"
        fill="none"
        transform="translate(160 541) rotate(-3.708428 0 21) scale(1.082266 1)">
      </path><path 
        d="M0,21 C30,28 45,28 45,21 C45,17 34,16 35,11 C36,6 42.5,1 50,1 C57.5,1 64,6 65,11 C66,16 55,20 55,21 C55,24 70,24 100,21"
        id="path-251-55-250-158"
        stroke="#979797"
        fill="none"
        transform="translate(251 34) rotate(90.556252 0 21) scale(1.030049 1)">
      </path><path 
        d="M0,21 C30,28 45,28 45,21 C45,17 34,16 35,11 C36,6 42.5,1 50,1 C57.5,1 64,6 65,11 C66,16 55,20 55,21 C55,24 70,24 100,21"
        id="path-251-55-357-64"
        stroke="#979797"
        fill="none"
        transform="translate(251 34) rotate(4.853096 0 21) scale(1.063814 1)">
      </path><path 
        d="M0,21 C30,28 45,28 45,21 C45,17 34,16 35,11 C36,6 42.5,1 50,1 C57.5,1 64,6 65,11 C66,16 55,20 55,21 C55,24 70,24 100,21"
        id="path-250-158-264-256"
        stroke="#979797"
        fill="none"
        transform="translate(250 137) rotate(81.869898 0 21) scale(0.989949 1)">
      </path><path 
        d="M0,21 C30,28 45,28 45,21 C45,17 34,16 35,11 C36,6 42.5,1 50,1 C57.5,1 64,6 65,11 C66,16 55,20 55,21 C55,24 70,24 100,21"
        id="path-250-158-369-157"
        stroke="#979797"
        fill="none"
        transform="translate(250 137) rotate(-0.481466 0 21) scale(1.190042 1)">
      </path><path 
        d="M0,21 C30,28 45,28 45,21 C45,17 34,16 35,11 C36,6 42.5,1 50,1 C57.5,1 64,6 65,11 C66,16 55,20 55,21 C55,24 70,24 100,21"
        id="path-264-256-250-360"
        stroke="#979797"
        fill="none"
        transform="translate(264 235) rotate(97.666804 0 21) scale(1.049381 1)">
      </path><path 
        d="M0,21 C30,28 45,28 45,21 C45,17 34,16 35,11 C36,6 42.5,1 50,1 C57.5,1 64,6 65,11 C66,16 55,20 55,21 C55,24 70,24 100,21"
        id="path-264-256-359-253"
        stroke="#979797"
        fill="none"
        transform="translate(264 235) rotate(-1.808739 0 21) scale(0.950474 1)">
      </path><path 
        d="M0,21 C30,28 45,28 45,21 C45,17 34,16 35,11 C36,6 42.5,1 50,1 C57.5,1 64,6 65,11 C66,16 55,20 55,21 C55,24 70,24 100,21"
        id="path-250-360-254-461"
        stroke="#979797"
        fill="none"
        transform="translate(250 339) rotate(87.732045 0 21) scale(1.010792 1)">
      </path><path 
        d="M0,21 C30,28 45,28 45,21 C45,17 34,16 35,11 C36,6 42.5,1 50,1 C57.5,1 64,6 65,11 C66,16 55,20 55,21 C55,24 70,24 100,21"
        id="path-250-360-359-359"
        stroke="#979797"
        fill="none"
        transform="translate(250 339) rotate(-0.525635 0 21) scale(1.090046 1)">
      </path><path 
        d="M0,21 C30,28 45,28 45,21 C45,17 34,16 35,11 C36,6 42.5,1 50,1 C57.5,1 64,6 65,11 C66,16 55,20 55,21 C55,24 70,24 100,21"
        id="path-254-461-268-555"
        stroke="#979797"
        fill="none"
        transform="translate(254 440) rotate(81.528855 0 21) scale(0.950368 1)">
      </path><path 
        d="M0,21 C30,28 45,28 45,21 C45,17 34,16 35,11 C36,6 42.5,1 50,1 C57.5,1 64,6 65,11 C66,16 55,20 55,21 C55,24 70,24 100,21"
        id="path-254-461-355-456"
        stroke="#979797"
        fill="none"
        transform="translate(254 440) rotate(-2.834111 0 21) scale(1.011237 1)">
      </path><path 
        d="M0,21 C30,28 45,28 45,21 C45,17 34,16 35,11 C36,6 42.5,1 50,1 C57.5,1 64,6 65,11 C66,16 55,20 55,21 C55,24 70,24 100,21"
        id="path-268-555-364-557"
        stroke="#979797"
        fill="none"
        transform="translate(268 534) rotate(1.193489 0 21) scale(0.960208 1)">
      </path><path 
        d="M0,21 C30,28 45,28 45,21 C45,17 34,16 35,11 C36,6 42.5,1 50,1 C57.5,1 64,6 65,11 C66,16 55,20 55,21 C55,24 70,24 100,21"
        id="path-357-64-369-157"
        stroke="#979797"
        fill="none"
        transform="translate(357 43) rotate(82.647621 0 21) scale(0.937710 1)">
      </path><path 
        d="M0,21 C30,28 45,28 45,21 C45,17 34,16 35,11 C36,6 42.5,1 50,1 C57.5,1 64,6 65,11 C66,16 55,20 55,21 C55,24 70,24 100,21"
        id="path-357-64-463-53"
        stroke="#979797"
        fill="none"
        transform="translate(357 43) rotate(-5.924582 0 21) scale(1.065692 1)">
      </path><path 
        d="M0,21 C30,28 45,28 45,21 C45,17 34,16 35,11 C36,6 42.5,1 50,1 C57.5,1 64,6 65,11 C66,16 55,20 55,21 C55,24 70,24 100,21"
        id="path-369-157-359-253"
        stroke="#979797"
        fill="none"
        transform="translate(369 136) rotate(95.946863 0 21) scale(0.965194 1)">
      </path><path 
        d="M0,21 C30,28 45,28 45,21 C45,17 34,16 35,11 C36,6 42.5,1 50,1 C57.5,1 64,6 65,11 C66,16 55,20 55,21 C55,24 70,24 100,21"
        id="path-369-157-456-154"
        stroke="#979797"
        fill="none"
        transform="translate(369 136) rotate(-1.974934 0 21) scale(0.870517 1)">
      </path><path 
        d="M0,21 C30,28 45,28 45,21 C45,17 34,16 35,11 C36,6 42.5,1 50,1 C57.5,1 64,6 65,11 C66,16 55,20 55,21 C55,24 70,24 100,21"
        id="path-359-253-359-359"
        stroke="#979797"
        fill="none"
        transform="translate(359 232) rotate(90.000000 0 21) scale(1.060000 1)">
      </path><path 
        d="M0,21 C30,28 45,28 45,21 C45,17 34,16 35,11 C36,6 42.5,1 50,1 C57.5,1 64,6 65,11 C66,16 55,20 55,21 C55,24 70,24 100,21"
        id="path-359-253-461-250"
        stroke="#979797"
        fill="none"
        transform="translate(359 232) rotate(-1.684684 0 21) scale(1.020441 1)">
      </path><path 
        d="M0,21 C30,28 45,28 45,21 C45,17 34,16 35,11 C36,6 42.5,1 50,1 C57.5,1 64,6 65,11 C66,16 55,20 55,21 C55,24 70,24 100,21"
        id="path-359-359-355-456"
        stroke="#979797"
        fill="none"
        transform="translate(359 338) rotate(92.361375 0 21) scale(0.970824 1)">
      </path><path 
        d="M0,21 C30,28 45,28 45,21 C45,17 34,16 35,11 C36,6 42.5,1 50,1 C57.5,1 64,6 65,11 C66,16 55,20 55,21 C55,24 70,24 100,21"
        id="path-359-359-468-355"
        stroke="#979797"
        fill="none"
        transform="translate(359 338) rotate(-2.101654 0 21) scale(1.090734 1)">
      </path><path 
        d="M0,21 C30,28 45,28 45,21 C45,17 34,16 35,11 C36,6 42.5,1 50,1 C57.5,1 64,6 65,11 C66,16 55,20 55,21 C55,24 70,24 100,21"
        id="path-355-456-364-557"
        stroke="#979797"
        fill="none"
        transform="translate(355 435) rotate(84.907885 0 21) scale(1.014002 1)">
      </path><path 
        d="M0,21 C30,28 45,28 45,21 C45,17 34,16 35,11 C36,6 42.5,1 50,1 C57.5,1 64,6 65,11 C66,16 55,20 55,21 C55,24 70,24 100,21"
        id="path-355-456-467-450"
        stroke="#979797"
        fill="none"
        transform="translate(355 435) rotate(-3.066486 0 21) scale(1.121606 1)">
      </path><path 
        d="M0,21 C30,28 45,28 45,21 C45,17 34,16 35,11 C36,6 42.5,1 50,1 C57.5,1 64,6 65,11 C66,16 55,20 55,21 C55,24 70,24 100,21"
        id="path-364-557-451-555"
        stroke="#979797"
        fill="none"
        transform="translate(364 536) rotate(-1.316912 0 21) scale(0.870230 1)">
      </path><path 
        d="M0,21 C30,28 45,28 45,21 C45,17 34,16 35,11 C36,6 42.5,1 50,1 C57.5,1 64,6 65,11 C66,16 55,20 55,21 C55,24 70,24 100,21"
        id="path-463-53-456-154"
        stroke="#979797"
        fill="none"
        transform="translate(463 32) rotate(93.964655 0 21) scale(1.012423 1)">
      </path><path 
        d="M0,21 C30,28 45,28 45,21 C45,17 34,16 35,11 C36,6 42.5,1 50,1 C57.5,1 64,6 65,11 C66,16 55,20 55,21 C55,24 70,24 100,21"
        id="path-463-53-568-54"
        stroke="#979797"
        fill="none"
        transform="translate(463 32) rotate(0.545658 0 21) scale(1.050048 1)">
      </path><path 
        d="M0,21 C30,28 45,28 45,21 C45,17 34,16 35,11 C36,6 42.5,1 50,1 C57.5,1 64,6 65,11 C66,16 55,20 55,21 C55,24 70,24 100,21"
        id="path-456-154-461-250"
        stroke="#979797"
        fill="none"
        transform="translate(456 133) rotate(87.018539 0 21) scale(0.961301 1)">
      </path><path 
        d="M0,21 C30,28 45,28 45,21 C45,17 34,16 35,11 C36,6 42.5,1 50,1 C57.5,1 64,6 65,11 C66,16 55,20 55,21 C55,24 70,24 100,21"
        id="path-456-154-559-161"
        stroke="#979797"
        fill="none"
        transform="translate(456 133) rotate(3.887910 0 21) scale(1.032376 1)">
      </path><path 
        d="M0,21 C30,28 45,28 45,21 C45,17 34,16 35,11 C36,6 42.5,1 50,1 C57.5,1 64,6 65,11 C66,16 55,20 55,21 C55,24 70,24 100,21"
        id="path-461-250-468-355"
        stroke="#979797"
        fill="none"
        transform="translate(461 229) rotate(86.185925 0 21) scale(1.052331 1)">
      </path><path 
        d="M0,21 C30,28 45,28 45,21 C45,17 34,16 35,11 C36,6 42.5,1 50,1 C57.5,1 64,6 65,11 C66,16 55,20 55,21 C55,24 70,24 100,21"
        id="path-461-250-568-259"
        stroke="#979797"
        fill="none"
        transform="translate(461 229) rotate(4.807954 0 21) scale(1.073778 1)">
      </path><path 
        d="M0,21 C30,28 45,28 45,21 C45,17 34,16 35,11 C36,6 42.5,1 50,1 C57.5,1 64,6 65,11 C66,16 55,20 55,21 C55,24 70,24 100,21"
        id="path-468-355-467-450"
        stroke="#979797"
        fill="none"
        transform="translate(468 334) rotate(90.603091 0 21) scale(0.950053 1)">
      </path><path 
        d="M0,21 C30,28 45,28 45,21 C45,17 34,16 35,11 C36,6 42.5,1 50,1 C57.5,1 64,6 65,11 C66,16 55,20 55,21 C55,24 70,24 100,21"
        id="path-468-355-568-363"
        stroke="#979797"
        fill="none"
        transform="translate(468 334) rotate(4.573921 0 21) scale(1.003195 1)">
      </path><path 
        d="M0,21 C30,28 45,28 45,21 C45,17 34,16 35,11 C36,6 42.5,1 50,1 C57.5,1 64,6 65,11 C66,16 55,20 55,21 C55,24 70,24 100,21"
        id="path-467-450-451-555"
        stroke="#979797"
        fill="none"
        transform="translate(467 429) rotate(98.664135 0 21) scale(1.062121 1)">
      </path><path 
        d="M0,21 C30,28 45,28 45,21 C45,17 34,16 35,11 C36,6 42.5,1 50,1 C57.5,1 64,6 65,11 C66,16 55,20 55,21 C55,24 70,24 100,21"
        id="path-467-450-559-463"
        stroke="#979797"
        fill="none"
        transform="translate(467 429) rotate(8.042894 0 21) scale(0.929139 1)">
      </path><path 
        d="M0,21 C30,28 45,28 45,21 C45,17 34,16 35,11 C36,6 42.5,1 50,1 C57.5,1 64,6 65,11 C66,16 55,20 55,21 C55,24 70,24 100,21"
        id="path-451-555-560-552"
        stroke="#979797"
        fill="none"
        transform="translate(451 534) rotate(-1.576550 0 21) scale(1.090413 1)">
      </path><path 
        d="M0,21 C30,28 45,28 45,21 C45,17 34,16 35,11 C36,6 42.5,1 50,1 C57.5,1 64,6 65,11 C66,16 55,20 55,21 C55,24 70,24 100,21"
        id="path-568-54-559-161"
        stroke="#979797"
        fill="none"
        transform="translate(568 33) rotate(94.807954 0 21) scale(1.073778 1)">
      </path><path 
        d="M0,21 C30,28 45,28 45,21 C45,17 34,16 35,11 C36,6 42.5,1 50,1 C57.5,1 64,6 65,11 C66,16 55,20 55,21 C55,24 70,24 100,21"
        id="path-559-161-568-259"
        stroke="#979797"
        fill="none"
        transform="translate(559 140) rotate(84.752861 0 21) scale(0.984124 1)">
      </path><path 
        d="M0,21 C30,28 45,28 45,21 C45,17 34,16 35,11 C36,6 42.5,1 50,1 C57.5,1 64,6 65,11 C66,16 55,20 55,21 C55,24 70,24 100,21"
        id="path-568-259-568-363"
        stroke="#979797"
        fill="none"
        transform="translate(568 238) rotate(90.000000 0 21) scale(1.040000 1)">
      </path><path 
        d="M0,21 C30,28 45,28 45,21 C45,17 34,16 35,11 C36,6 42.5,1 50,1 C57.5,1 64,6 65,11 C66,16 55,20 55,21 C55,24 70,24 100,21"
        id="path-568-363-559-463"
        stroke="#979797"
        fill="none"
        transform="translate(568 342) rotate(95.142765 0 21) scale(1.004042 1)">
      </path><path 
        d="M0,21 C30,28 45,28 45,21 C45,17 34,16 35,11 C36,6 42.5,1 50,1 C57.5,1 64,6 65,11 C66,16 55,20 55,21 C55,24 70,24 100,21"
        id="path-559-463-560-552"
        stroke="#979797"
        fill="none"
        transform="translate(559 442) rotate(89.356254 0 21) scale(0.890056 1)">
      </path>
</svg>
