<svg xmlns="http://www.w3.org/2000/svg"
  xmlns:xlink="http://www.w3.org/1999/xlink"
  width="1000" height="1000">
<path 
        d="M0,21 C30,28 45,28 45,21 C45,17 34,16 35,11 C36,6 42.5,1 50,1 C57.5,1 64,6 65,11 C66,16 55,20 55,21 C55,24 70,24 100,21"
        id="path-53-54-54-161"
        stroke="#979797"
        fill="none"
        transform="translate(53 33) rotate(89.464541 0 21) scale(1.070047 1)">
      </path><path 
        d="M0,21 C30,28 45,28 45,21 C45,17 34,16 35,11 C36,6 42.5,1 50,1 C57.5,1 64,6 65,11 C66,16 55,20 55,21 C55,24 70,24 100,21"
        id="path-53-54-156-54"
        stroke="#979797"
        fill="none"
        transform="translate(53 33) rotate(0.000000 0 21) scale(1.030000 1)">
      </path><path 
        d="M0,21 C30,28 45,28 45,21 C45,17 34,16 35,11 C36,6 42.5,1 50,1 C57.5,1 64,6 65,11 C66,16 55,20 55,21 C55,24 70,24 100,21"
        id="path-54-161-63-251"
        stroke="#979797"
        fill="none"
        transform="translate(54 140) rotate(84.289407 0 21) scale(0.904489 1)">
      </path><path 
        d="M0,21 C30,28 45,28 45,21 C45,17 34,16 35,11 C36,6 42.5,1 50,1 C57.5,1 64,6 65,11 C66,16 55,20 55,21 C55,24 70,24 100,21"
        id="path-54-161-164-153"
        stroke="#979797"
        fill="none"
        transform="translate(54 140) rotate(-4.159642 0 21) scale(1.102905 1)">
      </path><path 
        d="M0,21 C30,28 45,28 45,21 C45,17 34,16 35,11 C36,6 42.5,1 50,1 C57.5,1 64,6 65,11 C66,16 55,20 55,21 C55,24 70,24 100,21"
        id="path-63-251-65-351"
        stroke="#979797"
        fill="none"
        transform="translate(63 230) rotate(88.854237 0 21) scale(1.000200 1)">
      </path><path 
        d="M0,21 C30,28 45,28 45,21 C45,17 34,16 35,11 C36,6 42.5,1 50,1 C57.5,1 64,6 65,11 C66,16 55,20 55,21 C55,24 70,24 100,21"
        id="path-63-251-156-263"
        stroke="#979797"
        fill="none"
        transform="translate(63 230) rotate(7.352379 0 21) scale(0.937710 1)">
      </path><path 
        d="M0,21 C30,28 45,28 45,21 C45,17 34,16 35,11 C36,6 42.5,1 50,1 C57.5,1 64,6 65,11 C66,16 55,20 55,21 C55,24 70,24 100,21"
        id="path-65-351-165-363"
        stroke="#979797"
        fill="none"
        transform="translate(65 330) rotate(6.842773 0 21) scale(1.007174 1)">
      </path><path 
        d="M0,21 C30,28 45,28 45,21 C45,17 34,16 35,11 C36,6 42.5,1 50,1 C57.5,1 64,6 65,11 C66,16 55,20 55,21 C55,24 70,24 100,21"
        id="path-156-54-164-153"
        stroke="#979797"
        fill="none"
        transform="translate(156 33) rotate(85.380077 0 21) scale(0.993227 1)">
      </path><path 
        d="M0,21 C30,28 45,28 45,21 C45,17 34,16 35,11 C36,6 42.5,1 50,1 C57.5,1 64,6 65,11 C66,16 55,20 55,21 C55,24 70,24 100,21"
        id="path-156-54-268-51"
        stroke="#979797"
        fill="none"
        transform="translate(156 33) rotate(-1.534341 0 21) scale(1.120402 1)">
      </path><path 
        d="M0,21 C30,28 45,28 45,21 C45,17 34,16 35,11 C36,6 42.5,1 50,1 C57.5,1 64,6 65,11 C66,16 55,20 55,21 C55,24 70,24 100,21"
        id="path-164-153-156-263"
        stroke="#979797"
        fill="none"
        transform="translate(164 132) rotate(94.159642 0 21) scale(1.102905 1)">
      </path><path 
        d="M0,21 C30,28 45,28 45,21 C45,17 34,16 35,11 C36,6 42.5,1 50,1 C57.5,1 64,6 65,11 C66,16 55,20 55,21 C55,24 70,24 100,21"
        id="path-164-153-264-169"
        stroke="#979797"
        fill="none"
        transform="translate(164 132) rotate(9.090277 0 21) scale(1.012719 1)">
      </path><path 
        d="M0,21 C30,28 45,28 45,21 C45,17 34,16 35,11 C36,6 42.5,1 50,1 C57.5,1 64,6 65,11 C66,16 55,20 55,21 C55,24 70,24 100,21"
        id="path-156-263-165-363"
        stroke="#979797"
        fill="none"
        transform="translate(156 242) rotate(84.857235 0 21) scale(1.004042 1)">
      </path><path 
        d="M0,21 C30,28 45,28 45,21 C45,17 34,16 35,11 C36,6 42.5,1 50,1 C57.5,1 64,6 65,11 C66,16 55,20 55,21 C55,24 70,24 100,21"
        id="path-156-263-263-254"
        stroke="#979797"
        fill="none"
        transform="translate(156 242) rotate(-4.807954 0 21) scale(1.073778 1)">
      </path><path 
        d="M0,21 C30,28 45,28 45,21 C45,17 34,16 35,11 C36,6 42.5,1 50,1 C57.5,1 64,6 65,11 C66,16 55,20 55,21 C55,24 70,24 100,21"
        id="path-165-363-261-355"
        stroke="#979797"
        fill="none"
        transform="translate(165 342) rotate(-4.763642 0 21) scale(0.963328 1)">
      </path><path 
        d="M0,21 C30,28 45,28 45,21 C45,17 34,16 35,11 C36,6 42.5,1 50,1 C57.5,1 64,6 65,11 C66,16 55,20 55,21 C55,24 70,24 100,21"
        id="path-268-51-264-169"
        stroke="#979797"
        fill="none"
        transform="translate(268 30) rotate(91.941486 0 21) scale(1.180678 1)">
      </path><path 
        d="M0,21 C30,28 45,28 45,21 C45,17 34,16 35,11 C36,6 42.5,1 50,1 C57.5,1 64,6 65,11 C66,16 55,20 55,21 C55,24 70,24 100,21"
        id="path-268-51-359-68"
        stroke="#979797"
        fill="none"
        transform="translate(268 30) rotate(10.581636 0 21) scale(0.925743 1)">
      </path><path 
        d="M0,21 C30,28 45,28 45,21 C45,17 34,16 35,11 C36,6 42.5,1 50,1 C57.5,1 64,6 65,11 C66,16 55,20 55,21 C55,24 70,24 100,21"
        id="path-264-169-263-254"
        stroke="#979797"
        fill="none"
        transform="translate(264 148) rotate(90.674037 0 21) scale(0.850059 1)">
      </path><path 
        d="M0,21 C30,28 45,28 45,21 C45,17 34,16 35,11 C36,6 42.5,1 50,1 C57.5,1 64,6 65,11 C66,16 55,20 55,21 C55,24 70,24 100,21"
        id="path-264-169-362-165"
        stroke="#979797"
        fill="none"
        transform="translate(264 148) rotate(-2.337306 0 21) scale(0.980816 1)">
      </path><path 
        d="M0,21 C30,28 45,28 45,21 C45,17 34,16 35,11 C36,6 42.5,1 50,1 C57.5,1 64,6 65,11 C66,16 55,20 55,21 C55,24 70,24 100,21"
        id="path-263-254-261-355"
        stroke="#979797"
        fill="none"
        transform="translate(263 233) rotate(91.134422 0 21) scale(1.010198 1)">
      </path><path 
        d="M0,21 C30,28 45,28 45,21 C45,17 34,16 35,11 C36,6 42.5,1 50,1 C57.5,1 64,6 65,11 C66,16 55,20 55,21 C55,24 70,24 100,21"
        id="path-263-254-369-252"
        stroke="#979797"
        fill="none"
        transform="translate(263 233) rotate(-1.080924 0 21) scale(1.060189 1)">
      </path><path 
        d="M0,21 C30,28 45,28 45,21 C45,17 34,16 35,11 C36,6 42.5,1 50,1 C57.5,1 64,6 65,11 C66,16 55,20 55,21 C55,24 70,24 100,21"
        id="path-261-355-358-357"
        stroke="#979797"
        fill="none"
        transform="translate(261 334) rotate(1.181189 0 21) scale(0.970206 1)">
      </path><path 
        d="M0,21 C30,28 45,28 45,21 C45,17 34,16 35,11 C36,6 42.5,1 50,1 C57.5,1 64,6 65,11 C66,16 55,20 55,21 C55,24 70,24 100,21"
        id="path-359-68-362-165"
        stroke="#979797"
        fill="none"
        transform="translate(359 47) rotate(88.228530 0 21) scale(0.970464 1)">
      </path><path 
        d="M0,21 C30,28 45,28 45,21 C45,17 34,16 35,11 C36,6 42.5,1 50,1 C57.5,1 64,6 65,11 C66,16 55,20 55,21 C55,24 70,24 100,21"
        id="path-362-165-369-252"
        stroke="#979797"
        fill="none"
        transform="translate(362 144) rotate(85.399904 0 21) scale(0.872812 1)">
      </path><path 
        d="M0,21 C30,28 45,28 45,21 C45,17 34,16 35,11 C36,6 42.5,1 50,1 C57.5,1 64,6 65,11 C66,16 55,20 55,21 C55,24 70,24 100,21"
        id="path-369-252-358-357"
        stroke="#979797"
        fill="none"
        transform="translate(369 231) rotate(95.980600 0 21) scale(1.055746 1)">
      </path>
</svg>
