<svg xmlns="http://www.w3.org/2000/svg"
  xmlns:xlink="http://www.w3.org/1999/xlink"
  width="1000" height="1000">
<path
  d=" M 0 0 20.0 0 C 20.0 -28.0 37.93861543925334 24.0 37.93861543925334 0  S 55.87723087850668 26.0 55.87723087850668 0 S 73.87723087850668 -27.0 73.87723087850668 0 S 80.0 27.0 80.0 0 M 80.0 0 100 0" stroke="black" fill="transparent"
  transform="translate(209.666667 341.000000) rotate (89.238639 0 0) scale (1.003422 1)"/>
  <path
  d=" M 0 0 20.0 0 C 20.0 -29.0 40.02404879336507 27.0 40.02404879336507 0  S 60.04809758673014 26.0 60.04809758673014 0 S 80.0 26.0 80.0 0 M 80.0 0 100 0" stroke="black" fill="transparent"
  transform="translate(209.666667 341.000000) rotate (-47.554810 0 0) scale (0.898919 1)"/>
  <path
  d=" M 0 0 20.0 0 C 20.0 -25.0 38.87373659497339 20.0 38.87373659497339 0  S 57.747473189946774 26.0 57.747473189946774 0 S 76.74747318994677 -25.0 76.74747318994677 0 S 80.0 22.0 80.0 0 M 80.0 0 100 0" stroke="black" fill="transparent"
  transform="translate(270.333333 274.666667) rotate (-38.472159 0 0) scale (0.953706 1)"/>
  <path
  d=" M 0 0 20.0 0 C 20.0 -27.0 37.3275510529899 26.0 37.3275510529899 0  S 54.65510210597979 25.0 54.65510210597979 0 S 72.6551021059798 -25.0 72.6551021059798 0 S 80.0 27.0 80.0 0 M 80.0 0 100 0" stroke="black" fill="transparent"
  transform="translate(345.000000 215.333333) rotate (-3.679549 0 0) scale (1.038808 1)"/>
  <path
  d=" M 0 0 20.0 0 C 20.0 -22.0 35.4687159062559 21.0 35.4687159062559 0  S 50.937431812511804 27.0 50.937431812511804 0 S 66.9374318125118 -24.0 66.9374318125118 0 S 80.0 24.0 80.0 0 M 80.0 0 100 0" stroke="black" fill="transparent"
  transform="translate(448.666667 208.666667) rotate (35.556757 0 0) scale (1.163639 1)"/>
  <path
  d=" M 0 0 20.0 0 C 20.0 -29.0 44.989022580824134 25.0 44.989022580824134 0  S 69.97804516164827 26.0 69.97804516164827 0 S 80.0 21.0 80.0 0 M 80.0 0 100 0" stroke="black" fill="transparent"
  transform="translate(543.333333 276.333333) rotate (65.095231 0 0) scale (0.720316 1)"/>
  <path
  d=" M 0 0 20.0 0 C 20.0 -21.0 46.758589264897985 22.0 46.758589264897985 0  S 73.51717852979597 29.0 73.51717852979597 0 S 80.0 22.0 80.0 0 M 80.0 0 100 0" stroke="black" fill="transparent"
  transform="translate(573.666667 341.666667) rotate (84.882685 0 0) scale (0.672681 1)"/>
  <path
  d=" M 0 0 20.0 0 C 20.0 -20.0 36.85419199226118 26.0 36.85419199226118 0  S 53.70838398452236 24.0 53.70838398452236 0 S 70.70838398452236 -23.0 70.70838398452236 0 S 80.0 24.0 80.0 0 M 80.0 0 100 0" stroke="black" fill="transparent"
  transform="translate(544.000000 509.333333) rotate (-70.490528 0 0) scale (1.067984 1)"/>
  <path
  d=" M 0 0 20.0 0 C 20.0 -22.0 38.52827871425497 23.0 38.52827871425497 0  S 57.05655742850993 24.0 57.05655742850993 0 S 76.05655742850993 -23.0 76.05655742850993 0 S 80.0 22.0 80.0 0 M 80.0 0 100 0" stroke="black" fill="transparent"
  transform="translate(470.333333 572.666667) rotate (-40.686588 0 0) scale (0.971488 1)"/>
  <path
  d=" M 0 0 20.0 0 C 20.0 -24.0 46.706179197662365 25.0 46.706179197662365 0  S 73.41235839532473 23.0 73.41235839532473 0 S 80.0 21.0 80.0 0 M 80.0 0 100 0" stroke="black" fill="transparent"
  transform="translate(403.333333 580.000000) rotate (-6.246316 0 0) scale (0.674001 1)"/>
  <path
  d=" M 0 0 20.0 0 C 20.0 -20.0 46.68562707142141 22.0 46.68562707142141 0  S 73.37125414284282 24.0 73.37125414284282 0 S 80.0 24.0 80.0 0 M 80.0 0 100 0" stroke="black" fill="transparent"
  transform="translate(336.000000 576.000000) rotate (3.399714 0 0) scale (0.674520 1)"/>
  <path
  d=" M 0 0 20.0 0 C 20.0 -26.0 43.25125185167677 21.0 43.25125185167677 0  S 66.50250370335354 23.0 66.50250370335354 0 S 80.0 28.0 80.0 0 M 80.0 0 100 0" stroke="black" fill="transparent"
  transform="translate(270.333333 535.000000) rotate (31.979233 0 0) scale (0.774152 1)"/>
  <path
  d=" M 0 0 20.0 0 C 20.0 -27.0 36.234086783111465 27.0 36.234086783111465 0  S 52.46817356622293 27.0 52.46817356622293 0 S 69.46817356622293 -26.0 69.46817356622293 0 S 80.0 27.0 80.0 0 M 80.0 0 100 0" stroke="black" fill="transparent"
  transform="translate(211.000000 441.333333) rotate (57.647706 0 0) scale (1.108778 1)"/>
  <path
  d=" M 0 0 20.0 0 C 20.0 -24.0 57.216605986765856 27.0 57.216605986765856 0  S 80.0 24.0 80.0 0 M 80.0 0 100 0" stroke="black" fill="transparent"
  transform="translate(100.333333 930.333333) rotate (-42.486190 0 0) scale (0.483655 1)"/>
  <path
  d=" M 0 0 20.0 0 C 20.0 -22.0 48.01539925138286 24.0 48.01539925138286 0  S 76.03079850276572 21.0 76.03079850276572 0 S 80.0 24.0 80.0 0 M 80.0 0 100 0" stroke="black" fill="transparent"
  transform="translate(136.000000 897.666667) rotate (26.830923 0 0) scale (0.642504 1)"/>
  <path
  d=" M 0 0 20.0 0 C 20.0 -25.0 39.33981315310475 28.0 39.33981315310475 0  S 58.6796263062095 24.0 58.6796263062095 0 S 78.6796263062095 -28.0 78.6796263062095 0 S 80.0 23.0 80.0 0 M 80.0 0 100 0" stroke="black" fill="transparent"
  transform="translate(100.333333 930.333333) rotate (-2.257804 0 0) scale (0.930723 1)"/>
  <path
  d=" M 0 0 20.0 0 C 20.0 -26.0 46.59614518817643 21.0 46.59614518817643 0  S 73.19229037635286 20.0 73.19229037635286 0 S 80.0 29.0 80.0 0 M 80.0 0 100 0" stroke="black" fill="transparent"
  transform="translate(705.000000 500.000000) rotate (-63.687352 0 0) scale (0.676790 1)"/>
  <path
  d=" M 0 0 20.0 0 C 20.0 -24.0 47.71600671906041 26.0 47.71600671906041 0  S 75.43201343812082 22.0 75.43201343812082 0 S 80.0 29.0 80.0 0 M 80.0 0 100 0" stroke="black" fill="transparent"
  transform="translate(735.000000 439.333333) rotate (-5.300927 0 0) scale (0.649444 1)"/>
  <path
  d=" M 0 0 20.0 0 C 20.0 -23.0 49.45503231860748 24.0 49.45503231860748 0  S 78.91006463721496 24.0 78.91006463721496 0 S 80.0 20.0 80.0 0 M 80.0 0 100 0" stroke="black" fill="transparent"
  transform="translate(799.666667 433.333333) rotate (86.560130 0 0) scale (0.611101 1)"/>
  <path
  d=" M 0 0 20.0 0 C 20.0 -22.0 44.83631605409452 29.0 44.83631605409452 0  S 69.67263210818903 20.0 69.67263210818903 0 S 80.0 22.0 80.0 0 M 80.0 0 100 0" stroke="black" fill="transparent"
  transform="translate(737.666667 525.000000) rotate (-25.032813 0 0) scale (0.724745 1)"/>
  <path
  d=" M 0 0 20.0 0 C 20.0 -21.0 63.758060709732476 21.0 63.758060709732476 0  S 80.0 29.0 80.0 0 M 80.0 0 100 0" stroke="black" fill="transparent"
  transform="translate(705.000000 500.000000) rotate (37.427051 0 0) scale (0.411353 1)"/>
  <path
  d=" M 0 0 20.0 0 C 20.0 -28.0 36.308172078216366 23.0 36.308172078216366 0  S 52.61634415643273 20.0 52.61634415643273 0 S 69.61634415643273 -25.0 69.61634415643273 0 S 80.0 26.0 80.0 0 M 80.0 0 100 0" stroke="black" fill="transparent"
  transform="translate(933.333333 540.666667) rotate (-68.937643 0 0) scale (1.103741 1)"/>
  <path
  d=" M 0 0 20.0 0 C 20.0 -22.0 45.20778760844436 22.0 45.20778760844436 0  S 70.41557521688873 28.0 70.41557521688873 0 S 80.0 22.0 80.0 0 M 80.0 0 100 0" stroke="black" fill="transparent"
  transform="translate(901.000000 604.333333) rotate (-63.076107 0 0) scale (0.714065 1)"/>
  <path
  d=" M 0 0 20.0 0 C 20.0 -26.0 54.187487769838036 24.0 54.187487769838036 0  S 80.0 28.0 80.0 0 M 80.0 0 100 0" stroke="black" fill="transparent"
  transform="translate(901.000000 604.333333) rotate (41.663663 0 0) scale (0.526508 1)"/>
  <path
  d=" M 0 0 20.0 0 C 20.0 -27.0 28.810776865141094 26.0 28.810776865141094 0  S 37.62155373028219 24.0 37.62155373028219 0 S 46.62155373028219 -26.0 46.62155373028219 0 S 55.62155373028219 22.0 55.62155373028219 0 S 64.62155373028219 -26.0 64.62155373028219 0 S 73.62155373028219 29.0 73.62155373028219 0 S 80.0 27.0 80.0 0 M 80.0 0 100 0" stroke="black" fill="transparent"
  transform="translate(940.333333 639.333333) rotate (-80.798950 0 0) scale (2.042953 1)"/>
  <path
  d=" M 0 0 20.0 0 C 20.0 -24.0 34.2424696090502 21.0 34.2424696090502 0  S 48.48493921810039 23.0 48.48493921810039 0 S 63.48493921810039 -28.0 63.48493921810039 0 S 78.4849392181004 28.0 78.4849392181004 0 S 80.0 28.0 80.0 0 M 80.0 0 100 0" stroke="black" fill="transparent"
  transform="translate(470.333333 572.666667) rotate (79.668121 0 0) scale (1.263826 1)"/>
  <path
  d=" M 0 0 20.0 0 C 20.0 -26.0 35.227467300738084 26.0 35.227467300738084 0  S 50.45493460147617 22.0 50.45493460147617 0 S 66.45493460147617 -29.0 66.45493460147617 0 S 80.0 22.0 80.0 0 M 80.0 0 100 0" stroke="black" fill="transparent"
  transform="translate(396.333333 698.000000) rotate (-86.605076 0 0) scale (1.182074 1)"/>
  <path
  d=" M 0 0 20.0 0 C 20.0 -23.0 55.586437171389974 29.0 55.586437171389974 0  S 80.0 24.0 80.0 0 M 80.0 0 100 0" stroke="black" fill="transparent"
  transform="translate(396.333333 698.000000) rotate (40.724159 0 0) scale (0.505811 1)"/>
  <path
  d=" M 0 0 20.0 0 C 20.0 -28.0 46.659272496847635 23.0 46.659272496847635 0  S 73.31854499369527 22.0 73.31854499369527 0 S 80.0 23.0 80.0 0 M 80.0 0 100 0" stroke="black" fill="transparent"
  transform="translate(434.666667 731.000000) rotate (-30.236076 0 0) scale (0.675187 1)"/>
  <path
  d=" M 0 0 20.0 0 C 20.0 -26.0 38.2722546257075 20.0 38.2722546257075 0  S 56.54450925141499 25.0 56.54450925141499 0 S 75.544509251415 -22.0 75.544509251415 0 S 80.0 28.0 80.0 0 M 80.0 0 100 0" stroke="black" fill="transparent"
  transform="translate(201.000000 94.000000) rotate (-20.397206 0 0) scale (0.985100 1)"/>
  <path
  d=" M 0 0 20.0 0 C 20.0 -27.0 43.87114884563462 28.0 43.87114884563462 0  S 67.74229769126924 24.0 67.74229769126924 0 S 80.0 20.0 80.0 0 M 80.0 0 100 0" stroke="black" fill="transparent"
  transform="translate(302.666667 105.666667) rotate (-31.441572 0 0) scale (0.754048 1)"/>
  <path
  d=" M 0 0 20.0 0 C 20.0 -20.0 37.51088388062827 29.0 37.51088388062827 0  S 55.02176776125654 21.0 55.02176776125654 0 S 73.02176776125654 -23.0 73.02176776125654 0 S 80.0 27.0 80.0 0 M 80.0 0 100 0" stroke="black" fill="transparent"
  transform="translate(367.000000 66.333333) rotate (15.613620 0 0) scale (1.027932 1)"/>
  <path
  d=" M 0 0 20.0 0 C 20.0 -21.0 35.521343214269464 25.0 35.521343214269464 0  S 51.04268642853893 26.0 51.04268642853893 0 S 67.04268642853893 -20.0 67.04268642853893 0 S 80.0 20.0 80.0 0 M 80.0 0 100 0" stroke="black" fill="transparent"
  transform="translate(448.666667 208.666667) rotate (-81.404089 0 0) scale (1.159693 1)"/>
  <path
  d=" M 0 0 20.0 0 C 20.0 -25.0 35.312141813018386 29.0 35.312141813018386 0  S 50.62428362603677 23.0 50.62428362603677 0 S 66.62428362603677 -21.0 66.62428362603677 0 S 80.0 27.0 80.0 0 M 80.0 0 100 0" stroke="black" fill="transparent"
  transform="translate(302.666667 105.666667) rotate (68.892502 0 0) scale (1.175538 1)"/>
  <path
  d=" M 0 0 20.0 0 C 20.0 -28.0 43.60781220766696 20.0 43.60781220766696 0  S 67.21562441533392 28.0 67.21562441533392 0 S 80.0 20.0 80.0 0 M 80.0 0 100 0" stroke="black" fill="transparent"
  transform="translate(532.333333 93.333333) rotate (29.030275 0 0) scale (0.762459 1)"/>
  <path
  d=" M 0 0 20.0 0 C 20.0 -23.0 63.55263606536026 20.0 63.55263606536026 0  S 80.0 22.0 80.0 0 M 80.0 0 100 0" stroke="black" fill="transparent"
  transform="translate(599.000000 130.333333) rotate (-48.596717 0 0) scale (0.413293 1)"/>
  <path
  d=" M 0 0 20.0 0 C 20.0 -25.0 43.60781220766693 24.0 43.60781220766693 0  S 67.21562441533386 22.0 67.21562441533386 0 S 80.0 25.0 80.0 0 M 80.0 0 100 0" stroke="black" fill="transparent"
  transform="translate(559.666667 62.333333) rotate (29.030275 0 0) scale (0.762459 1)"/>
  <path
  d=" M 0 0 20.0 0 C 20.0 -27.0 63.55263606536036 21.0 63.55263606536036 0  S 80.0 26.0 80.0 0 M 80.0 0 100 0" stroke="black" fill="transparent"
  transform="translate(532.333333 93.333333) rotate (-48.596717 0 0) scale (0.413293 1)"/>
  <path
  d=" M 0 0 20.0 0 C 20.0 -27.0 45.07724915187748 26.0 45.07724915187748 0  S 70.15449830375496 29.0 70.15449830375496 0 S 80.0 28.0 80.0 0 M 80.0 0 100 0" stroke="black" fill="transparent"
  transform="translate(131.666667 735.666667) rotate (-29.183823 0 0) scale (0.717782 1)"/>
  <path
  d=" M 0 0 20.0 0 C 20.0 -21.0 44.37830086388779 27.0 44.37830086388779 0  S 68.75660172777557 20.0 68.75660172777557 0 S 80.0 27.0 80.0 0 M 80.0 0 100 0" stroke="black" fill="transparent"
  transform="translate(189.333333 627.000000) rotate (86.117101 0 0) scale (0.738362 1)"/>
  <path
  d=" M 0 0 20.0 0 C 20.0 -22.0 47.17550908978468 27.0 47.17550908978468 0  S 74.35101817956937 29.0 74.35101817956937 0 S 80.0 20.0 80.0 0 M 80.0 0 100 0" stroke="black" fill="transparent"
  transform="translate(129.000000 599.666667) rotate (24.372365 0 0) scale (0.662361 1)"/>
  <path
  d=" M 0 0 20.0 0 C 20.0 -24.0 57.873527077931875 24.0 57.873527077931875 0  S 80.0 27.0 80.0 0 M 80.0 0 100 0" stroke="black" fill="transparent"
  transform="translate(103.333333 639.666667) rotate (-57.313063 0 0) scale (0.475266 1)"/>
  <path
  d=" M 0 0 20.0 0 C 20.0 -22.0 48.85679476168453 28.0 48.85679476168453 0  S 77.71358952336907 29.0 77.71358952336907 0 S 80.0 23.0 80.0 0 M 80.0 0 100 0" stroke="black" fill="transparent"
  transform="translate(101.000000 702.000000) rotate (-87.856239 0 0) scale (0.623770 1)"/>
  <path
  d=" M 0 0 20.0 0 C 20.0 -29.0 59.52571753476583 28.0 59.52571753476583 0  S 80.0 20.0 80.0 0 M 80.0 0 100 0" stroke="black" fill="transparent"
  transform="translate(101.000000 702.000000) rotate (47.669890 0 0) scale (0.455400 1)"/>
  <path
  d=" M 0 0 20.0 0 C 20.0 -25.0 46.0356636424127 29.0 46.0356636424127 0  S 72.0713272848254 23.0 72.0713272848254 0 S 80.0 26.0 80.0 0 M 80.0 0 100 0" stroke="black" fill="transparent"
  transform="translate(568.000000 953.666667) rotate (3.593566 0 0) scale (0.691359 1)"/>
  <path
  d=" M 0 0 20.0 0 C 20.0 -20.0 37.66697549138256 24.0 37.66697549138256 0  S 55.33395098276512 20.0 55.33395098276512 0 S 73.33395098276512 -22.0 73.33395098276512 0 S 80.0 25.0 80.0 0 M 80.0 0 100 0" stroke="black" fill="transparent"
  transform="translate(637.000000 958.000000) rotate (-15.172915 0 0) scale (1.018850 1)"/>
  <path
  d=" M 0 0 20.0 0 C 20.0 -22.0 60.67053833162576 22.0 60.67053833162576 0  S 80.0 26.0 80.0 0 M 80.0 0 100 0" stroke="black" fill="transparent"
  transform="translate(701.333333 903.000000) rotate (39.805571 0 0) scale (0.442581 1)"/>
  <path
  d=" M 0 0 20.0 0 C 20.0 -27.0 43.52098425472767 23.0 43.52098425472767 0  S 67.04196850945534 24.0 67.04196850945534 0 S 80.0 26.0 80.0 0 M 80.0 0 100 0" stroke="black" fill="transparent"
  transform="translate(628.666667 927.000000) rotate (-18.277110 0 0) scale (0.765274 1)"/>
  <path
  d=" M 0 0 20.0 0 C 20.0 -29.0 47.162098169432625 22.0 47.162098169432625 0  S 74.32419633886525 29.0 74.32419633886525 0 S 80.0 24.0 80.0 0 M 80.0 0 100 0" stroke="black" fill="transparent"
  transform="translate(568.000000 953.666667) rotate (-23.728391 0 0) scale (0.662688 1)"/>
  <path
  d=" M 0 0 20.0 0 C 20.0 -23.0 43.868350461562756 28.0 43.868350461562756 0  S 67.73670092312551 22.0 67.73670092312551 0 S 80.0 26.0 80.0 0 M 80.0 0 100 0" stroke="black" fill="transparent"
  transform="translate(65.000000 603.333333) rotate (-66.834663 0 0) scale (0.754137 1)"/>
  <path
  d=" M 0 0 20.0 0 C 20.0 -22.0 47.13259539549679 29.0 47.13259539549679 0  S 74.26519079099359 25.0 74.26519079099359 0 S 80.0 23.0 80.0 0 M 80.0 0 100 0" stroke="black" fill="transparent"
  transform="translate(94.666667 534.000000) rotate (-89.136310 0 0) scale (0.663409 1)"/>
  <path
  d=" M 0 0 20.0 0 C 20.0 -22.0 38.0 29.0 38.0 0  S 56.0 29.0 56.0 0 S 74.0 -23.0 74.0 0 S 80.0 29.0 80.0 0 M 80.0 0 100 0" stroke="black" fill="transparent"
  transform="translate(67.666667 371.666667) rotate (73.739795 0 0) scale (1.000000 1)"/>
  <path
  d=" M 0 0 20.0 0 C 20.0 -20.0 46.668699109538906 21.0 46.668699109538906 0  S 73.33739821907781 22.0 73.33739821907781 0 S 80.0 29.0 80.0 0 M 80.0 0 100 0" stroke="black" fill="transparent"
  transform="translate(63.000000 304.333333) rotate (86.035345 0 0) scale (0.674949 1)"/>
  <path
  d=" M 0 0 20.0 0 C 20.0 -27.0 26.019932218546018 23.0 26.019932218546018 0  S 32.039864437092035 24.0 32.039864437092035 0 S 39.039864437092035 -27.0 39.039864437092035 0 S 46.039864437092035 22.0 46.039864437092035 0 S 53.039864437092035 -24.0 53.039864437092035 0 S 60.039864437092035 20.0 60.039864437092035 0 S 67.03986443709204 -27.0 67.03986443709204 0 S 74.03986443709204 27.0 74.03986443709204 0 S 80.0 21.0 80.0 0 M 80.0 0 100 0" stroke="black" fill="transparent"
  transform="translate(63.000000 304.333333) rotate (89.616756 0 0) scale (2.990067 1)"/>
  <path
  d=" M 0 0 20.0 0 C 20.0 -25.0 39.7248512042589 29.0 39.7248512042589 0  S 59.449702408517794 22.0 59.449702408517794 0 S 79.4497024085178 -22.0 79.4497024085178 0 S 80.0 28.0 80.0 0 M 80.0 0 100 0" stroke="black" fill="transparent"
  transform="translate(635.666667 559.333333) rotate (-40.555894 0 0) scale (0.912554 1)"/>
  <path
  d=" M 0 0 20.0 0 C 20.0 -28.0 37.23867670450064 27.0 37.23867670450064 0  S 54.47735340900128 20.0 54.47735340900128 0 S 72.47735340900128 -27.0 72.47735340900128 0 S 80.0 22.0 80.0 0 M 80.0 0 100 0" stroke="black" fill="transparent"
  transform="translate(544.000000 509.333333) rotate (28.610460 0 0) scale (1.044164 1)"/>
  <path
  d=" M 0 0 20.0 0 C 20.0 -25.0 34.737989070755106 21.0 34.737989070755106 0  S 49.47597814151021 24.0 49.47597814151021 0 S 64.47597814151021 -22.0 64.47597814151021 0 S 79.47597814151021 27.0 79.47597814151021 0 S 80.0 20.0 80.0 0 M 80.0 0 100 0" stroke="black" fill="transparent"
  transform="translate(579.666667 408.666667) rotate (-5.010381 0 0) scale (1.221334 1)"/>
  <path
  d=" M 0 0 20.0 0 C 20.0 -24.0 53.76517135646493 25.0 53.76517135646493 0  S 80.0 24.0 80.0 0 M 80.0 0 100 0" stroke="black" fill="transparent"
  transform="translate(701.333333 398.000000) rotate (50.836629 0 0) scale (0.533094 1)"/>
  <path
  d=" M 0 0 20.0 0 C 20.0 -28.0 44.33494268809579 27.0 44.33494268809579 0  S 68.66988537619159 21.0 68.66988537619159 0 S 80.0 24.0 80.0 0 M 80.0 0 100 0" stroke="black" fill="transparent"
  transform="translate(293.333333 59.666667) rotate (5.171052 0 0) scale (0.739677 1)"/>
  <path
  d=" M 0 0 20.0 0 C 20.0 -23.0 53.6842745237975 27.0 53.6842745237975 0  S 80.0 25.0 80.0 0 M 80.0 0 100 0" stroke="black" fill="transparent"
  transform="translate(201.000000 94.000000) rotate (49.553768 0 0) scale (0.534374 1)"/>
  <path
  d=" M 0 0 20.0 0 C 20.0 -20.0 44.655221048554715 23.0 44.655221048554715 0  S 69.31044209710943 21.0 69.31044209710943 0 S 80.0 24.0 80.0 0 M 80.0 0 100 0" stroke="black" fill="transparent"
  transform="translate(235.666667 134.666667) rotate (-23.404690 0 0) scale (0.730068 1)"/>
  <path
  d=" M 0 0 20.0 0 C 20.0 -23.0 50.243677854854305 25.0 50.243677854854305 0  S 80.0 27.0 80.0 0 M 80.0 0 100 0" stroke="black" fill="transparent"
  transform="translate(131.666667 735.666667) rotate (85.502848 0 0) scale (0.595166 1)"/>
  <path
  d=" M 0 0 20.0 0 C 20.0 -23.0 55.75453359382634 25.0 55.75453359382634 0  S 80.0 24.0 80.0 0 M 80.0 0 100 0" stroke="black" fill="transparent"
  transform="translate(194.333333 700.666667) rotate (38.008075 0 0) scale (0.503433 1)"/>
  <path
  d=" M 0 0 20.0 0 C 20.0 -21.0 44.89351685139873 27.0 44.89351685139873 0  S 69.78703370279746 21.0 69.78703370279746 0 S 80.0 24.0 80.0 0 M 80.0 0 100 0" stroke="black" fill="transparent"
  transform="translate(206.000000 798.333333) rotate (-67.217594 0 0) scale (0.723080 1)"/>
  <path
  d=" M 0 0 20.0 0 C 20.0 -21.0 45.80779624719797 26.0 45.80779624719797 0  S 71.61559249439594 22.0 71.61559249439594 0 S 80.0 29.0 80.0 0 M 80.0 0 100 0" stroke="black" fill="transparent"
  transform="translate(136.333333 795.000000) rotate (2.739336 0 0) scale (0.697464 1)"/>
  <path
  d=" M 0 0 20.0 0 C 20.0 -25.0 46.41668757208494 22.0 46.41668757208494 0  S 72.83337514416988 26.0 72.83337514416988 0 S 80.0 27.0 80.0 0 M 80.0 0 100 0" stroke="black" fill="transparent"
  transform="translate(895.333333 192.333333) rotate (-62.306731 0 0) scale (0.681387 1)"/>
  <path
  d=" M 0 0 20.0 0 C 20.0 -27.0 54.546604042328795 26.0 54.546604042328795 0  S 80.0 23.0 80.0 0 M 80.0 0 100 0" stroke="black" fill="transparent"
  transform="translate(927.000000 132.000000) rotate (43.703937 0 0) scale (0.521035 1)"/>
  <path
  d=" M 0 0 20.0 0 C 20.0 -24.0 46.41668757208494 22.0 46.41668757208494 0  S 72.83337514416988 22.0 72.83337514416988 0 S 80.0 29.0 80.0 0 M 80.0 0 100 0" stroke="black" fill="transparent"
  transform="translate(933.000000 228.333333) rotate (-62.306731 0 0) scale (0.681387 1)"/>
  <path
  d=" M 0 0 20.0 0 C 20.0 -21.0 54.546604042328795 26.0 54.546604042328795 0  S 80.0 28.0 80.0 0 M 80.0 0 100 0" stroke="black" fill="transparent"
  transform="translate(895.333333 192.333333) rotate (43.703937 0 0) scale (0.521035 1)"/>
  <path
  d=" M 0 0 20.0 0 C 20.0 -20.0 42.356846625098285 29.0 42.356846625098285 0  S 64.71369325019657 28.0 64.71369325019657 0 S 80.0 28.0 80.0 0 M 80.0 0 100 0" stroke="black" fill="transparent"
  transform="translate(798.666667 599.000000) rotate (-62.374037 0 0) scale (0.805122 1)"/>
  <path
  d=" M 0 0 20.0 0 C 20.0 -28.0 56.89812541785759 25.0 56.89812541785759 0  S 80.0 22.0 80.0 0 M 80.0 0 100 0" stroke="black" fill="transparent"
  transform="translate(798.666667 599.000000) rotate (50.545317 0 0) scale (0.487830 1)"/>
  <path
  d=" M 0 0 20.0 0 C 20.0 -21.0 42.98288546250431 25.0 42.98288546250431 0  S 65.96577092500863 24.0 65.96577092500863 0 S 80.0 23.0 80.0 0 M 80.0 0 100 0" stroke="black" fill="transparent"
  transform="translate(829.666667 636.666667) rotate (-24.383410 0 0) scale (0.783191 1)"/>
  <path
  d=" M 0 0 20.0 0 C 20.0 -23.0 54.789510611128534 22.0 54.789510611128534 0  S 80.0 26.0 80.0 0 M 80.0 0 100 0" stroke="black" fill="transparent"
  transform="translate(899.333333 501.666667) rotate (48.918249 0 0) scale (0.517397 1)"/>
  <path
  d=" M 0 0 20.0 0 C 20.0 -29.0 46.29177340458081 22.0 46.29177340458081 0  S 72.58354680916162 22.0 72.58354680916162 0 S 80.0 26.0 80.0 0 M 80.0 0 100 0" stroke="black" fill="transparent"
  transform="translate(836.000000 527.666667) rotate (-22.319440 0 0) scale (0.684625 1)"/>
  <path
  d=" M 0 0 20.0 0 C 20.0 -23.0 47.13430804157046 23.0 47.13430804157046 0  S 74.26861608314093 20.0 74.26861608314093 0 S 80.0 27.0 80.0 0 M 80.0 0 100 0" stroke="black" fill="transparent"
  transform="translate(466.000000 94.000000) rotate (-0.575818 0 0) scale (0.663367 1)"/>
  <path
  d=" M 0 0 20.0 0 C 20.0 -21.0 44.33271908920398 25.0 44.33271908920398 0  S 68.66543817840795 27.0 68.66543817840795 0 S 80.0 23.0 80.0 0 M 80.0 0 100 0" stroke="black" fill="transparent"
  transform="translate(599.000000 130.333333) rotate (67.479434 0 0) scale (0.739745 1)"/>
  <path
  d=" M 0 0 20.0 0 C 20.0 -29.0 35.733814242401074 20.0 35.733814242401074 0  S 51.46762848480215 27.0 51.46762848480215 0 S 67.46762848480215 -22.0 67.46762848480215 0 S 80.0 20.0 80.0 0 M 80.0 0 100 0" stroke="black" fill="transparent"
  transform="translate(543.333333 276.333333) rotate (-42.756570 0 0) scale (1.144033 1)"/>
  <path
  d=" M 0 0 20.0 0 C 20.0 -25.0 57.54983150098206 23.0 57.54983150098206 0  S 80.0 21.0 80.0 0 M 80.0 0 100 0" stroke="black" fill="transparent"
  transform="translate(932.333333 833.333333) rotate (53.767581 0 0) scale (0.479363 1)"/>
  <path
  d=" M 0 0 20.0 0 C 20.0 -22.0 44.183414670520655 28.0 44.183414670520655 0  S 68.36682934104131 29.0 68.36682934104131 0 S 80.0 21.0 80.0 0 M 80.0 0 100 0" stroke="black" fill="transparent"
  transform="translate(894.333333 897.333333) rotate (-59.300277 0 0) scale (0.744312 1)"/>
  <path
  d=" M 0 0 20.0 0 C 20.0 -26.0 57.54983150098206 20.0 57.54983150098206 0  S 80.0 24.0 80.0 0 M 80.0 0 100 0" stroke="black" fill="transparent"
  transform="translate(894.333333 897.333333) rotate (53.767581 0 0) scale (0.479363 1)"/>
  <path
  d=" M 0 0 20.0 0 C 20.0 -27.0 44.183414670520655 22.0 44.183414670520655 0  S 68.36682934104131 23.0 68.36682934104131 0 S 80.0 25.0 80.0 0 M 80.0 0 100 0" stroke="black" fill="transparent"
  transform="translate(922.666667 936.000000) rotate (-59.300277 0 0) scale (0.744312 1)"/>
  <path
  d=" M 0 0 20.0 0 C 20.0 -23.0 48.039560225447474 23.0 48.039560225447474 0  S 76.07912045089495 23.0 76.07912045089495 0 S 80.0 24.0 80.0 0 M 80.0 0 100 0" stroke="black" fill="transparent"
  transform="translate(735.333333 931.333333) rotate (4.467159 0 0) scale (0.641950 1)"/>
  <path
  d=" M 0 0 20.0 0 C 20.0 -22.0 45.18173587505401 26.0 45.18173587505401 0  S 70.36347175010802 28.0 70.36347175010802 0 S 80.0 29.0 80.0 0 M 80.0 0 100 0" stroke="black" fill="transparent"
  transform="translate(701.333333 903.000000) rotate (-66.064640 0 0) scale (0.714804 1)"/>
  <path
  d=" M 0 0 20.0 0 C 20.0 -21.0 45.204766952268116 23.0 45.204766952268116 0  S 70.40953390453623 20.0 70.40953390453623 0 S 80.0 21.0 80.0 0 M 80.0 0 100 0" stroke="black" fill="transparent"
  transform="translate(730.333333 837.666667) rotate (-27.521885 0 0) scale (0.714151 1)"/>
  <path
  d=" M 0 0 20.0 0 C 20.0 -24.0 56.38942903355987 25.0 56.38942903355987 0  S 80.0 26.0 80.0 0 M 80.0 0 100 0" stroke="black" fill="transparent"
  transform="translate(793.666667 804.666667) rotate (39.805571 0 0) scale (0.494649 1)"/>
  <path
  d=" M 0 0 20.0 0 C 20.0 -27.0 48.53151986302912 27.0 48.53151986302912 0  S 77.06303972605824 29.0 77.06303972605824 0 S 80.0 26.0 80.0 0 M 80.0 0 100 0" stroke="black" fill="transparent"
  transform="translate(831.666667 836.333333) rotate (86.971301 0 0) scale (0.630881 1)"/>
  <path
  d=" M 0 0 20.0 0 C 20.0 -24.0 55.0250826644275 22.0 55.0250826644275 0  S 80.0 24.0 80.0 0 M 80.0 0 100 0" stroke="black" fill="transparent"
  transform="translate(799.333333 936.333333) rotate (-46.051181 0 0) scale (0.513917 1)"/>
  <path
  d=" M 0 0 20.0 0 C 20.0 -23.0 47.889570863098484 26.0 47.889570863098484 0  S 75.77914172619697 26.0 75.77914172619697 0 S 80.0 24.0 80.0 0 M 80.0 0 100 0" stroke="black" fill="transparent"
  transform="translate(65.000000 603.333333) rotate (82.581350 0 0) scale (0.645403 1)"/>
  <path
  d=" M 0 0 20.0 0 C 20.0 -28.0 44.2913234742565 24.0 44.2913234742565 0  S 68.582646948513 27.0 68.582646948513 0 S 80.0 23.0 80.0 0 M 80.0 0 100 0" stroke="black" fill="transparent"
  transform="translate(94.666667 534.000000) rotate (62.397513 0 0) scale (0.741005 1)"/>
  <path
  d=" M 0 0 20.0 0 C 20.0 -22.0 64.10699089948454 28.0 64.10699089948454 0  S 80.0 26.0 80.0 0 M 80.0 0 100 0" stroke="black" fill="transparent"
  transform="translate(73.333333 667.333333) rotate (-42.682938 0 0) scale (0.408099 1)"/>
  <path
  d=" M 0 0 20.0 0 C 20.0 -27.0 46.48045279418695 27.0 46.48045279418695 0  S 72.9609055883739 25.0 72.9609055883739 0 S 80.0 28.0 80.0 0 M 80.0 0 100 0" stroke="black" fill="transparent"
  transform="translate(626.333333 99.333333) rotate (30.337335 0 0) scale (0.679747 1)"/>
  <path
  d=" M 0 0 20.0 0 C 20.0 -25.0 49.671225446001145 27.0 49.671225446001145 0  S 79.34245089200229 24.0 79.34245089200229 0 S 80.0 26.0 80.0 0 M 80.0 0 100 0" stroke="black" fill="transparent"
  transform="translate(627.333333 198.666667) rotate (5.992527 0 0) scale (0.606648 1)"/>
  <path
  d=" M 0 0 20.0 0 C 20.0 -25.0 45.21603128477806 24.0 45.21603128477806 0  S 70.43206256955612 28.0 70.43206256955612 0 S 80.0 25.0 80.0 0 M 80.0 0 100 0" stroke="black" fill="transparent"
  transform="translate(685.000000 133.666667) rotate (87.859099 0 0) scale (0.713832 1)"/>
  <path
  d=" M 0 0 20.0 0 C 20.0 -23.0 53.89863236424821 24.0 53.89863236424821 0  S 80.0 27.0 80.0 0 M 80.0 0 100 0" stroke="black" fill="transparent"
  transform="translate(294.666667 699.000000) rotate (38.884496 0 0) scale (0.530995 1)"/>
  <path
  d=" M 0 0 20.0 0 C 20.0 -25.0 46.12386779988872 28.0 46.12386779988872 0  S 72.24773559977744 20.0 72.24773559977744 0 S 80.0 21.0 80.0 0 M 80.0 0 100 0" stroke="black" fill="transparent"
  transform="translate(234.000000 731.666667) rotate (-28.300756 0 0) scale (0.689025 1)"/>
  <path
  d=" M 0 0 20.0 0 C 20.0 -20.0 56.022420928371325 24.0 56.022420928371325 0  S 80.0 24.0 80.0 0 M 80.0 0 100 0" stroke="black" fill="transparent"
  transform="translate(206.000000 798.333333) rotate (45.000000 0 0) scale (0.499689 1)"/>
  <path
  d=" M 0 0 20.0 0 C 20.0 -24.0 49.285611805518585 20.0 49.285611805518585 0  S 78.57122361103717 20.0 78.57122361103717 0 S 80.0 29.0 80.0 0 M 80.0 0 100 0" stroke="black" fill="transparent"
  transform="translate(241.333333 833.666667) rotate (3.731397 0 0) scale (0.614636 1)"/>
  <path
  d=" M 0 0 20.0 0 C 20.0 -20.0 53.631969718138755 27.0 53.631969718138755 0  S 80.0 27.0 80.0 0 M 80.0 0 100 0" stroke="black" fill="transparent"
  transform="translate(302.666667 837.666667) rotate (-50.559947 0 0) scale (0.535205 1)"/>
  <path
  d=" M 0 0 20.0 0 C 20.0 -20.0 48.12347424525887 24.0 48.12347424525887 0  S 76.24694849051774 22.0 76.24694849051774 0 S 80.0 26.0 80.0 0 M 80.0 0 100 0" stroke="black" fill="transparent"
  transform="translate(336.000000 732.333333) rotate (89.403191 0 0) scale (0.640035 1)"/>
  <path
  d=" M 0 0 20.0 0 C 20.0 -23.0 50.31985852429335 24.0 50.31985852429335 0  S 80.0 27.0 80.0 0 M 80.0 0 100 0" stroke="black" fill="transparent"
  transform="translate(835.000000 899.333333) rotate (-1.930587 0 0) scale (0.593670 1)"/>
  <path
  d=" M 0 0 20.0 0 C 20.0 -24.0 34.59454129103493 27.0 34.59454129103493 0  S 49.18908258206986 27.0 49.18908258206986 0 S 64.18908258206986 -23.0 64.18908258206986 0 S 79.18908258206986 29.0 79.18908258206986 0 S 80.0 23.0 80.0 0 M 80.0 0 100 0" stroke="black" fill="transparent"
  transform="translate(799.333333 936.333333) rotate (-0.154853 0 0) scale (1.233338 1)"/>
  <path
  d=" M 0 0 20.0 0 C 20.0 -26.0 44.993037032140975 24.0 44.993037032140975 0  S 69.98607406428195 24.0 69.98607406428195 0 S 80.0 24.0 80.0 0 M 80.0 0 100 0" stroke="black" fill="transparent"
  transform="translate(195.333333 194.333333) rotate (-55.942185 0 0) scale (0.720201 1)"/>
  <path
  d=" M 0 0 20.0 0 C 20.0 -25.0 36.37823137389164 22.0 36.37823137389164 0  S 52.756462747783274 22.0 52.756462747783274 0 S 69.75646274778327 -22.0 69.75646274778327 0 S 80.0 20.0 80.0 0 M 80.0 0 100 0" stroke="black" fill="transparent"
  transform="translate(195.333333 194.333333) rotate (46.966465 0 0) scale (1.099020 1)"/>
  <path
  d=" M 0 0 20.0 0 C 20.0 -23.0 56.89812541785759 22.0 56.89812541785759 0  S 80.0 20.0 80.0 0 M 80.0 0 100 0" stroke="black" fill="transparent"
  transform="translate(789.000000 736.000000) rotate (-39.454683 0 0) scale (0.487830 1)"/>
  <path
  d=" M 0 0 20.0 0 C 20.0 -29.0 42.60998084971874 21.0 42.60998084971874 0  S 65.21996169943748 23.0 65.21996169943748 0 S 80.0 20.0 80.0 0 M 80.0 0 100 0" stroke="black" fill="transparent"
  transform="translate(826.666667 705.000000) rotate (25.814026 0 0) scale (0.796109 1)"/>
  <path
  d=" M 0 0 20.0 0 C 20.0 -29.0 48.72299792334256 27.0 48.72299792334256 0  S 77.44599584668512 25.0 77.44599584668512 0 S 80.0 25.0 80.0 0 M 80.0 0 100 0" stroke="black" fill="transparent"
  transform="translate(898.333333 739.666667) rotate (89.695238 0 0) scale (0.626676 1)"/>
  <path
  d=" M 0 0 20.0 0 C 20.0 -24.0 43.95744677503724 20.0 43.95744677503724 0  S 67.91489355007448 29.0 67.91489355007448 0 S 80.0 25.0 80.0 0 M 80.0 0 100 0" stroke="black" fill="transparent"
  transform="translate(831.666667 836.333333) rotate (-26.906093 0 0) scale (0.751332 1)"/>
  <path
  d=" M 0 0 20.0 0 C 20.0 -28.0 46.15326450963944 29.0 46.15326450963944 0  S 72.30652901927888 29.0 72.30652901927888 0 S 80.0 20.0 80.0 0 M 80.0 0 100 0" stroke="black" fill="transparent"
  transform="translate(789.000000 736.000000) rotate (86.112090 0 0) scale (0.688251 1)"/>
  <path
  d=" M 0 0 20.0 0 C 20.0 -24.0 46.2086518650365 21.0 46.2086518650365 0  S 72.417303730073 29.0 72.417303730073 0 S 80.0 24.0 80.0 0 M 80.0 0 100 0" stroke="black" fill="transparent"
  transform="translate(901.333333 325.333333) rotate (88.887600 0 0) scale (0.686796 1)"/>
  <path
  d=" M 0 0 20.0 0 C 20.0 -25.0 56.688033700908484 28.0 56.688033700908484 0  S 80.0 25.0 80.0 0 M 80.0 0 100 0" stroke="black" fill="transparent"
  transform="translate(901.333333 325.333333) rotate (-42.797402 0 0) scale (0.490623 1)"/>
  <path
  d=" M 0 0 20.0 0 C 20.0 -28.0 42.33675487912785 23.0 42.33675487912785 0  S 64.6735097582557 21.0 64.6735097582557 0 S 80.0 21.0 80.0 0 M 80.0 0 100 0" stroke="black" fill="transparent"
  transform="translate(937.333333 292.000000) rotate (66.085639 0 0) scale (0.805847 1)"/>
  <path
  d=" M 0 0 20.0 0 C 20.0 -22.0 44.47023821330605 20.0 44.47023821330605 0  S 68.9404764266121 28.0 68.9404764266121 0 S 80.0 27.0 80.0 0 M 80.0 0 100 0" stroke="black" fill="transparent"
  transform="translate(934.333333 430.000000) rotate (-60.995832 0 0) scale (0.735587 1)"/>
  <path
  d=" M 0 0 20.0 0 C 20.0 -25.0 57.54257093505128 27.0 57.54257093505128 0  S 80.0 26.0 80.0 0 M 80.0 0 100 0" stroke="black" fill="transparent"
  transform="translate(902.666667 394.000000) rotate (48.664184 0 0) scale (0.479456 1)"/>
  <path
  d=" M 0 0 20.0 0 C 20.0 -29.0 46.857363304813376 20.0 46.857363304813376 0  S 73.71472660962675 22.0 73.71472660962675 0 S 80.0 28.0 80.0 0 M 80.0 0 100 0" stroke="black" fill="transparent"
  transform="translate(828.333333 194.000000) rotate (-1.424974 0 0) scale (0.670207 1)"/>
  <path
  d=" M 0 0 20.0 0 C 20.0 -21.0 54.853219761212735 20.0 54.853219761212735 0  S 80.0 24.0 80.0 0 M 80.0 0 100 0" stroke="black" fill="transparent"
  transform="translate(793.000000 231.666667) rotate (-46.830749 0 0) scale (0.516452 1)"/>
  <path
  d=" M 0 0 20.0 0 C 20.0 -27.0 43.84995230014309 29.0 43.84995230014309 0  S 67.69990460028617 28.0 67.69990460028617 0 S 80.0 28.0 80.0 0 M 80.0 0 100 0" stroke="black" fill="transparent"
  transform="translate(793.000000 231.666667) rotate (57.994617 0 0) scale (0.754718 1)"/>
  <path
  d=" M 0 0 20.0 0 C 20.0 -25.0 44.16258547796444 21.0 44.16258547796444 0  S 68.32517095592888 23.0 68.32517095592888 0 S 80.0 23.0 80.0 0 M 80.0 0 100 0" stroke="black" fill="transparent"
  transform="translate(833.000000 295.666667) rotate (23.467899 0 0) scale (0.744953 1)"/>
  <path
  d=" M 0 0 20.0 0 C 20.0 -21.0 48.20699167340079 23.0 48.20699167340079 0  S 76.41398334680159 27.0 76.41398334680159 0 S 80.0 21.0 80.0 0 M 80.0 0 100 0" stroke="black" fill="transparent"
  transform="translate(933.000000 228.333333) rotate (86.106292 0 0) scale (0.638140 1)"/>
  <path
  d=" M 0 0 20.0 0 C 20.0 -23.0 44.42838793938515 22.0 44.42838793938515 0  S 68.8567758787703 24.0 68.8567758787703 0 S 80.0 27.0 80.0 0 M 80.0 0 100 0" stroke="black" fill="transparent"
  transform="translate(69.666667 863.333333) rotate (65.405888 0 0) scale (0.736848 1)"/>
  <path
  d=" M 0 0 20.0 0 C 20.0 -21.0 48.70351424482914 26.0 48.70351424482914 0  S 77.40702848965827 29.0 77.40702848965827 0 S 80.0 26.0 80.0 0 M 80.0 0 100 0" stroke="black" fill="transparent"
  transform="translate(633.333333 622.000000) rotate (-87.867632 0 0) scale (0.627101 1)"/>
  <path
  d=" M 0 0 20.0 0 C 20.0 -27.0 46.090914696038816 20.0 46.090914696038816 0  S 72.18182939207763 28.0 72.18182939207763 0 S 80.0 26.0 80.0 0 M 80.0 0 100 0" stroke="black" fill="transparent"
  transform="translate(633.333333 622.000000) rotate (5.545317 0 0) scale (0.689895 1)"/>
  <path
  d=" M 0 0 20.0 0 C 20.0 -21.0 55.00741404921316 25.0 55.00741404921316 0  S 80.0 25.0 80.0 0 M 80.0 0 100 0" stroke="black" fill="transparent"
  transform="translate(702.000000 628.666667) rotate (-47.101654 0 0) scale (0.514177 1)"/>
  <path
  d=" M 0 0 20.0 0 C 20.0 -24.0 47.27133605548084 21.0 47.27133605548084 0  S 74.54267211096168 29.0 74.54267211096168 0 S 80.0 22.0 80.0 0 M 80.0 0 100 0" stroke="black" fill="transparent"
  transform="translate(737.000000 591.000000) rotate (-89.421274 0 0) scale (0.660034 1)"/>
  <path
  d=" M 0 0 20.0 0 C 20.0 -27.0 50.97265236610471 29.0 50.97265236610471 0  S 80.0 28.0 80.0 0 M 80.0 0 100 0" stroke="black" fill="transparent"
  transform="translate(592.333333 899.333333) rotate (-86.382667 0 0) scale (0.581158 1)"/>
  <path
  d=" M 0 0 20.0 0 C 20.0 -24.0 59.41500840525827 23.0 59.41500840525827 0  S 80.0 20.0 80.0 0 M 80.0 0 100 0" stroke="black" fill="transparent"
  transform="translate(592.333333 899.333333) rotate (37.288108 0 0) scale (0.456679 1)"/>
  <path
  d=" M 0 0 20.0 0 C 20.0 -21.0 53.431566000005525 28.0 53.431566000005525 0  S 80.0 25.0 80.0 0 M 80.0 0 100 0" stroke="black" fill="transparent"
  transform="translate(694.666667 797.333333) rotate (48.513750 0 0) scale (0.538413 1)"/>
  <path
  d=" M 0 0 20.0 0 C 20.0 -27.0 48.42814086340141 23.0 48.42814086340141 0  S 76.85628172680282 29.0 76.85628172680282 0 S 80.0 27.0 80.0 0 M 80.0 0 100 0" stroke="black" fill="transparent"
  transform="translate(631.666667 803.666667) rotate (-5.740607 0 0) scale (0.633175 1)"/>
  <path
  d=" M 0 0 20.0 0 C 20.0 -23.0 54.699612297067056 21.0 54.699612297067056 0  S 80.0 25.0 80.0 0 M 80.0 0 100 0" stroke="black" fill="transparent"
  transform="translate(596.000000 841.333333) rotate (-46.562225 0 0) scale (0.518738 1)"/>
  <path
  d=" M 0 0 20.0 0 C 20.0 -29.0 55.76472666070417 23.0 55.76472666070417 0  S 80.0 20.0 80.0 0 M 80.0 0 100 0" stroke="black" fill="transparent"
  transform="translate(400.666667 797.666667) rotate (49.028264 0 0) scale (0.503289 1)"/>
  <path
  d=" M 0 0 20.0 0 C 20.0 -27.0 48.11889847047815 29.0 48.11889847047815 0  S 76.2377969409563 29.0 76.2377969409563 0 S 80.0 25.0 80.0 0 M 80.0 0 100 0" stroke="black" fill="transparent"
  transform="translate(336.666667 796.333333) rotate (1.193489 0 0) scale (0.640139 1)"/>
  <path
  d=" M 0 0 20.0 0 C 20.0 -29.0 44.68405396110748 27.0 44.68405396110748 0  S 69.36810792221496 21.0 69.36810792221496 0 S 80.0 28.0 80.0 0 M 80.0 0 100 0" stroke="black" fill="transparent"
  transform="translate(302.666667 837.666667) rotate (61.912107 0 0) scale (0.729216 1)"/>
  <path
  d=" M 0 0 20.0 0 C 20.0 -20.0 46.832484466801965 29.0 46.832484466801965 0  S 73.66496893360393 24.0 73.66496893360393 0 S 80.0 22.0 80.0 0 M 80.0 0 100 0" stroke="black" fill="transparent"
  transform="translate(337.000000 902.000000) rotate (-2.848188 0 0) scale (0.670829 1)"/>
  <path
  d=" M 0 0 20.0 0 C 20.0 -21.0 45.84886255761869 28.0 45.84886255761869 0  S 71.69772511523738 23.0 71.69772511523738 0 S 80.0 20.0 80.0 0 M 80.0 0 100 0" stroke="black" fill="transparent"
  transform="translate(404.000000 898.666667) rotate (-64.784279 0 0) scale (0.696356 1)"/>
  <path
  d=" M 0 0 20.0 0 C 20.0 -29.0 34.10830849537543 29.0 34.10830849537543 0  S 48.216616990750865 22.0 48.216616990750865 0 S 63.216616990750865 -21.0 63.216616990750865 0 S 78.21661699075086 22.0 78.21661699075086 0 S 80.0 28.0 80.0 0 M 80.0 0 100 0" stroke="black" fill="transparent"
  transform="translate(573.666667 341.666667) rotate (-19.855214 0 0) scale (1.275844 1)"/>
  <path
  d=" M 0 0 20.0 0 C 20.0 -22.0 44.35498254852536 29.0 44.35498254852536 0  S 68.70996509705073 21.0 68.70996509705073 0 S 80.0 21.0 80.0 0 M 80.0 0 100 0" stroke="black" fill="transparent"
  transform="translate(701.333333 398.000000) rotate (-68.294563 0 0) scale (0.739068 1)"/>
  <path
  d=" M 0 0 20.0 0 C 20.0 -21.0 58.498820694619816 26.0 58.498820694619816 0  S 80.0 26.0 80.0 0 M 80.0 0 100 0" stroke="black" fill="transparent"
  transform="translate(693.666667 298.333333) rotate (41.531771 0 0) scale (0.467547 1)"/>
  <path
  d=" M 0 0 20.0 0 C 20.0 -24.0 34.68470629606408 22.0 34.68470629606408 0  S 49.36941259212816 22.0 49.36941259212816 0 S 64.36941259212816 -28.0 64.36941259212816 0 S 79.36941259212816 21.0 79.36941259212816 0 S 80.0 21.0 80.0 0 M 80.0 0 100 0" stroke="black" fill="transparent"
  transform="translate(189.333333 627.000000) rotate (-48.638187 0 0) scale (1.225765 1)"/>
  <path
  d=" M 0 0 20.0 0 C 20.0 -24.0 33.87185106055006 27.0 33.87185106055006 0  S 47.743702121100114 24.0 47.743702121100114 0 S 61.743702121100114 -26.0 61.743702121100114 0 S 75.74370212110011 26.0 75.74370212110011 0 S 80.0 21.0 80.0 0 M 80.0 0 100 0" stroke="black" fill="transparent"
  transform="translate(294.666667 699.000000) rotate (-71.425419 0 0) scale (1.297592 1)"/>
  <path
  d=" M 0 0 20.0 0 C 20.0 -21.0 60.58315383302907 27.0 60.58315383302907 0  S 80.0 29.0 80.0 0 M 80.0 0 100 0" stroke="black" fill="transparent"
  transform="translate(73.333333 667.333333) rotate (51.407440 0 0) scale (0.443534 1)"/>
  <path
  d=" M 0 0 20.0 0 C 20.0 -23.0 46.972703948889034 26.0 46.972703948889034 0  S 73.94540789777807 21.0 73.94540789777807 0 S 80.0 24.0 80.0 0 M 80.0 0 100 0" stroke="black" fill="transparent"
  transform="translate(836.000000 397.000000) rotate (-2.576572 0 0) scale (0.667341 1)"/>
  <path
  d=" M 0 0 20.0 0 C 20.0 -24.0 44.67632094206 20.0 44.67632094206 0  S 69.35264188412 24.0 69.35264188412 0 S 80.0 27.0 80.0 0 M 80.0 0 100 0" stroke="black" fill="transparent"
  transform="translate(798.666667 334.333333) rotate (59.215853 0 0) scale (0.729444 1)"/>
  <path
  d=" M 0 0 20.0 0 C 20.0 -25.0 54.80974379448384 29.0 54.80974379448384 0  S 80.0 27.0 80.0 0 M 80.0 0 100 0" stroke="black" fill="transparent"
  transform="translate(798.666667 334.333333) rotate (-48.397133 0 0) scale (0.517097 1)"/>
  <path
  d=" M 0 0 20.0 0 C 20.0 -27.0 56.18298576226034 23.0 56.18298576226034 0  S 80.0 24.0 80.0 0 M 80.0 0 100 0" stroke="black" fill="transparent"
  transform="translate(687.666667 205.000000) rotate (43.642534 0 0) scale (0.497471 1)"/>
  <path
  d=" M 0 0 20.0 0 C 20.0 -28.0 45.80426012529319 26.0 45.80426012529319 0  S 71.60852025058638 26.0 71.60852025058638 0 S 80.0 22.0 80.0 0 M 80.0 0 100 0" stroke="black" fill="transparent"
  transform="translate(723.666667 239.333333) rotate (-6.309957 0 0) scale (0.697559 1)"/>
  <path
  d=" M 0 0 20.0 0 C 20.0 -25.0 43.71479525491716 29.0 43.71479525491716 0  S 67.42959050983433 21.0 67.42959050983433 0 S 80.0 22.0 80.0 0 M 80.0 0 100 0" stroke="black" fill="transparent"
  transform="translate(792.666667 127.000000) rotate (61.971917 0 0) scale (0.759020 1)"/>
  <path
  d=" M 0 0 20.0 0 C 20.0 -25.0 43.02316588529178 20.0 43.02316588529178 0  S 66.04633177058356 24.0 66.04633177058356 0 S 80.0 27.0 80.0 0 M 80.0 0 100 0" stroke="black" fill="transparent"
  transform="translate(721.333333 95.000000) rotate (24.160915 0 0) scale (0.781821 1)"/>
  <path
  d=" M 0 0 20.0 0 C 20.0 -24.0 53.92471158264404 21.0 53.92471158264404 0  S 80.0 20.0 80.0 0 M 80.0 0 100 0" stroke="black" fill="transparent"
  transform="translate(685.000000 133.666667) rotate (-46.781961 0 0) scale (0.530587 1)"/>
  <path
  d=" M 0 0 20.0 0 C 20.0 -28.0 55.90041474698481 25.0 55.90041474698481 0  S 80.0 21.0 80.0 0 M 80.0 0 100 0" stroke="black" fill="transparent"
  transform="translate(98.333333 132.333333) rotate (-52.292059 0 0) scale (0.501387 1)"/>
  <path
  d=" M 0 0 20.0 0 C 20.0 -20.0 49.46423859191013 25.0 49.46423859191013 0  S 78.92847718382026 29.0 78.92847718382026 0 S 80.0 21.0 80.0 0 M 80.0 0 100 0" stroke="black" fill="transparent"
  transform="translate(531.333333 896.000000) rotate (3.127806 0 0) scale (0.610910 1)"/>
  <path
  d=" M 0 0 20.0 0 C 20.0 -20.0 50.97265236610471 22.0 50.97265236610471 0  S 80.0 25.0 80.0 0 M 80.0 0 100 0" stroke="black" fill="transparent"
  transform="translate(531.333333 896.000000) rotate (-86.382667 0 0) scale (0.581158 1)"/>
  <path
  d=" M 0 0 20.0 0 C 20.0 -21.0 49.46423859191013 25.0 49.46423859191013 0  S 78.92847718382026 28.0 78.92847718382026 0 S 80.0 20.0 80.0 0 M 80.0 0 100 0" stroke="black" fill="transparent"
  transform="translate(535.000000 838.000000) rotate (3.127806 0 0) scale (0.610910 1)"/>
  <path
  d=" M 0 0 20.0 0 C 20.0 -21.0 57.21660598676587 20.0 57.21660598676587 0  S 80.0 26.0 80.0 0 M 80.0 0 100 0" stroke="black" fill="transparent"
  transform="translate(69.666667 863.333333) rotate (-42.486190 0 0) scale (0.483655 1)"/>
  <path
  d=" M 0 0 20.0 0 C 20.0 -28.0 44.42838793938515 27.0 44.42838793938515 0  S 68.8567758787703 29.0 68.8567758787703 0 S 80.0 21.0 80.0 0 M 80.0 0 100 0" stroke="black" fill="transparent"
  transform="translate(105.333333 830.666667) rotate (65.405888 0 0) scale (0.736848 1)"/>
  <path
  d=" M 0 0 20.0 0 C 20.0 -25.0 47.048392290553515 24.0 47.048392290553515 0  S 74.09678458110703 26.0 74.09678458110703 0 S 80.0 28.0 80.0 0 M 80.0 0 100 0" stroke="black" fill="transparent"
  transform="translate(529.666667 733.666667) rotate (-4.596808 0 0) scale (0.665474 1)"/>
  <path
  d=" M 0 0 20.0 0 C 20.0 -23.0 41.59568129556817 20.0 41.59568129556817 0  S 63.19136259113634 24.0 63.19136259113634 0 S 80.0 21.0 80.0 0 M 80.0 0 100 0" stroke="black" fill="transparent"
  transform="translate(596.000000 728.333333) rotate (64.664723 0 0) scale (0.833500 1)"/>
  <path
  d=" M 0 0 20.0 0 C 20.0 -21.0 60.39196972219081 25.0 60.39196972219081 0  S 80.0 20.0 80.0 0 M 80.0 0 100 0" stroke="black" fill="transparent"
  transform="translate(504.333333 805.666667) rotate (46.515408 0 0) scale (0.445633 1)"/>
  <path
  d=" M 0 0 20.0 0 C 20.0 -23.0 43.58280977093477 27.0 43.58280977093477 0  S 67.16561954186955 28.0 67.16561954186955 0 S 80.0 24.0 80.0 0 M 80.0 0 100 0" stroke="black" fill="transparent"
  transform="translate(504.333333 805.666667) rotate (-70.615484 0 0) scale (0.763268 1)"/>
  <path
  d=" M 0 0 20.0 0 C 20.0 -28.0 48.88196135541284 27.0 48.88196135541284 0  S 77.76392271082568 22.0 77.76392271082568 0 S 80.0 20.0 80.0 0 M 80.0 0 100 0" stroke="black" fill="transparent"
  transform="translate(559.666667 62.333333) rotate (-5.832564 0 0) scale (0.623226 1)"/>
  <path
  d=" M 0 0 20.0 0 C 20.0 -25.0 36.818431472946706 27.0 36.818431472946706 0  S 53.63686294589341 28.0 53.63686294589341 0 S 70.63686294589341 -28.0 70.63686294589341 0 S 80.0 26.0 80.0 0 M 80.0 0 100 0" stroke="black" fill="transparent"
  transform="translate(621.666667 56.000000) rotate (21.370622 0 0) scale (1.070254 1)"/>
  <path
  d=" M 0 0 20.0 0 C 20.0 -29.0 42.56867249454294 25.0 42.56867249454294 0  S 65.13734498908588 23.0 65.13734498908588 0 S 80.0 29.0 80.0 0 M 80.0 0 100 0" stroke="black" fill="transparent"
  transform="translate(899.333333 501.666667) rotate (-63.970408 0 0) scale (0.797566 1)"/>
  <path
  d=" M 0 0 20.0 0 C 20.0 -20.0 55.030978150526195 26.0 55.030978150526195 0  S 80.0 26.0 80.0 0 M 80.0 0 100 0" stroke="black" fill="transparent"
  transform="translate(799.666667 433.333333) rotate (-45.000000 0 0) scale (0.513831 1)"/>
  <path
  d=" M 0 0 20.0 0 C 20.0 -23.0 58.567493313695415 29.0 58.567493313695415 0  S 80.0 29.0 80.0 0 M 80.0 0 100 0" stroke="black" fill="transparent"
  transform="translate(803.333333 494.333333) rotate (45.578726 0 0) scale (0.466714 1)"/>
  <path
  d=" M 0 0 20.0 0 C 20.0 -24.0 58.090558356161814 26.0 58.090558356161814 0  S 80.0 29.0 80.0 0 M 80.0 0 100 0" stroke="black" fill="transparent"
  transform="translate(105.333333 830.666667) rotate (-49.004173 0 0) scale (0.472558 1)"/>
  <path
  d=" M 0 0 20.0 0 C 20.0 -25.0 57.57982592487595 22.0 57.57982592487595 0  S 80.0 29.0 80.0 0 M 80.0 0 100 0" stroke="black" fill="transparent"
  transform="translate(193.333333 926.666667) rotate (-34.796026 0 0) scale (0.478980 1)"/>
  <path
  d=" M 0 0 20.0 0 C 20.0 -21.0 47.175509089784654 27.0 47.175509089784654 0  S 74.35101817956931 21.0 74.35101817956931 0 S 80.0 22.0 80.0 0 M 80.0 0 100 0" stroke="black" fill="transparent"
  transform="translate(232.666667 899.333333) rotate (-82.481573 0 0) scale (0.662361 1)"/>
  <path
  d=" M 0 0 20.0 0 C 20.0 -28.0 45.9297929390699 29.0 45.9297929390699 0  S 71.8595858781398 25.0 71.8595858781398 0 S 80.0 22.0 80.0 0 M 80.0 0 100 0" stroke="black" fill="transparent"
  transform="translate(336.000000 732.333333) rotate (-29.642507 0 0) scale (0.694182 1)"/>
  <path
  d=" M 0 0 20.0 0 C 20.0 -29.0 43.44637067256049 20.0 43.44637067256049 0  S 66.89274134512098 20.0 66.89274134512098 0 S 80.0 28.0 80.0 0 M 80.0 0 100 0" stroke="black" fill="transparent"
  transform="translate(433.666667 835.666667) rotate (-23.002597 0 0) scale (0.767709 1)"/>
  <path
  d=" M 0 0 20.0 0 C 20.0 -22.0 65.14917601763787 29.0 65.14917601763787 0  S 80.0 21.0 80.0 0 M 80.0 0 100 0" stroke="black" fill="transparent"
  transform="translate(504.333333 925.333333) rotate (-47.371842 0 0) scale (0.398678 1)"/>
  <path
  d=" M 0 0 20.0 0 C 20.0 -23.0 50.43860108155623 29.0 50.43860108155623 0  S 80.0 23.0 80.0 0 M 80.0 0 100 0" stroke="black" fill="transparent"
  transform="translate(445.333333 929.333333) rotate (-3.878525 0 0) scale (0.591354 1)"/>
  <path
  d=" M 0 0 20.0 0 C 20.0 -28.0 54.973623810181664 28.0 54.973623810181664 0  S 80.0 20.0 80.0 0 M 80.0 0 100 0" stroke="black" fill="transparent"
  transform="translate(404.000000 898.666667) rotate (36.573031 0 0) scale (0.514674 1)"/>
  <path
  d=" M 0 0 20.0 0 C 20.0 -22.0 45.20613984318044 26.0 45.20613984318044 0  S 70.41227968636088 20.0 70.41227968636088 0 S 80.0 23.0 80.0 0 M 80.0 0 100 0" stroke="black" fill="transparent"
  transform="translate(694.666667 797.333333) rotate (-87.324573 0 0) scale (0.714112 1)"/>
  <path
  d=" M 0 0 20.0 0 C 20.0 -23.0 62.85984260471911 23.0 62.85984260471911 0  S 80.0 25.0 80.0 0 M 80.0 0 100 0" stroke="black" fill="transparent"
  transform="translate(698.000000 726.000000) rotate (-42.426641 0 0) scale (0.419974 1)"/>
  <path
  d=" M 0 0 20.0 0 C 20.0 -21.0 45.28088779436419 24.0 45.28088779436419 0  S 70.56177558872838 24.0 70.56177558872838 0 S 80.0 20.0 80.0 0 M 80.0 0 100 0" stroke="black" fill="transparent"
  transform="translate(729.000000 697.666667) rotate (32.574057 0 0) scale (0.712000 1)"/>
  <path
  d=" M 0 0 20.0 0 C 20.0 -22.0 45.64893799564747 23.0 45.64893799564747 0  S 71.29787599129494 26.0 71.29787599129494 0 S 80.0 24.0 80.0 0 M 80.0 0 100 0" stroke="black" fill="transparent"
  transform="translate(728.666667 329.333333) rotate (4.085617 0 0) scale (0.701783 1)"/>
  <path
  d=" M 0 0 20.0 0 C 20.0 -25.0 43.040763532352855 24.0 43.040763532352855 0  S 66.08152706470571 26.0 66.08152706470571 0 S 80.0 20.0 80.0 0 M 80.0 0 100 0" stroke="black" fill="transparent"
  transform="translate(232.666667 899.333333) rotate (27.439728 0 0) scale (0.781224 1)"/>
  <path
  d=" M 0 0 20.0 0 C 20.0 -20.0 57.24137931034481 22.0 57.24137931034481 0  S 80.0 20.0 80.0 0 M 80.0 0 100 0" stroke="black" fill="transparent"
  transform="translate(302.000000 935.333333) rotate (-43.602819 0 0) scale (0.483333 1)"/>
  <path
  d=" M 0 0 20.0 0 C 20.0 -22.0 46.865339160256916 26.0 46.865339160256916 0  S 73.73067832051383 20.0 73.73067832051383 0 S 80.0 26.0 80.0 0 M 80.0 0 100 0" stroke="black" fill="transparent"
  transform="translate(940.333333 639.333333) rotate (89.714949 0 0) scale (0.670008 1)"/>
  <path
  d=" M 0 0 20.0 0 C 20.0 -24.0 32.54715116916522 21.0 32.54715116916522 0  S 45.094302338330436 29.0 45.094302338330436 0 S 58.094302338330436 -28.0 58.094302338330436 0 S 71.09430233833044 25.0 71.09430233833044 0 S 80.0 20.0 80.0 0 M 80.0 0 100 0" stroke="black" fill="transparent"
  transform="translate(302.000000 935.333333) rotate (-2.397029 0 0) scale (1.434589 1)"/>
  <path
  d=" M 0 0 20.0 0 C 20.0 -22.0 50.66351027755162 23.0 50.66351027755162 0  S 80.0 24.0 80.0 0 M 80.0 0 100 0" stroke="black" fill="transparent"
  transform="translate(792.666667 127.000000) rotate (-43.849637 0 0) scale (0.587017 1)"/>
  <path
  d=" M 0 0 20.0 0 C 20.0 -21.0 46.60259915347034 21.0 46.60259915347034 0  S 73.20519830694067 23.0 73.20519830694067 0 S 80.0 28.0 80.0 0 M 80.0 0 100 0" stroke="black" fill="transparent"
  transform="translate(835.000000 86.333333) rotate (5.654421 0 0) scale (0.676626 1)"/>
  <path
  d=" M 0 0 20.0 0 C 20.0 -20.0 59.00671238067574 29.0 59.00671238067574 0  S 80.0 24.0 80.0 0 M 80.0 0 100 0" stroke="black" fill="transparent"
  transform="translate(902.333333 93.000000) rotate (57.687521 0 0) scale (0.461459 1)"/>
  <path
  d=" M 0 0 20.0 0 C 20.0 -27.0 30.99083085314708 25.0 30.99083085314708 0  S 41.98166170629416 21.0 41.98166170629416 0 S 52.98166170629416 -21.0 52.98166170629416 0 S 63.98166170629416 21.0 63.98166170629416 0 S 74.98166170629416 -28.0 74.98166170629416 0 S 80.0 29.0 80.0 0 M 80.0 0 100 0" stroke="black" fill="transparent"
  transform="translate(637.000000 958.000000) rotate (-7.602350 0 0) scale (1.637729 1)"/>
  <path
  d=" M 0 0 20.0 0 C 20.0 -23.0 28.353480192593832 21.0 28.353480192593832 0  S 36.706960385187664 23.0 36.706960385187664 0 S 45.706960385187664 -27.0 45.706960385187664 0 S 54.706960385187664 24.0 54.706960385187664 0 S 63.706960385187664 -29.0 63.706960385187664 0 S 72.70696038518767 25.0 72.70696038518767 0 S 80.0 24.0 80.0 0 M 80.0 0 100 0" stroke="black" fill="transparent"
  transform="translate(621.666667 56.000000) rotate (8.092498 0 0) scale (2.154791 1)"/>
  <path
  d=" M 0 0 20.0 0 C 20.0 -27.0 55.33111477483943 28.0 55.33111477483943 0  S 80.0 27.0 80.0 0 M 80.0 0 100 0" stroke="black" fill="transparent"
  transform="translate(596.000000 728.333333) rotate (-47.121096 0 0) scale (0.509466 1)"/>
  <path
  d=" M 0 0 20.0 0 C 20.0 -20.0 43.71959913175016 27.0 43.71959913175016 0  S 67.43919826350032 24.0 67.43919826350032 0 S 80.0 25.0 80.0 0 M 80.0 0 100 0" stroke="black" fill="transparent"
  transform="translate(630.666667 691.000000) rotate (27.465500 0 0) scale (0.758866 1)"/>
  <path
  d=" M 0 0 20.0 0 C 20.0 -27.0 47.19480058258047 20.0 47.19480058258047 0  S 74.38960116516094 24.0 74.38960116516094 0 S 80.0 26.0 80.0 0 M 80.0 0 100 0" stroke="black" fill="transparent"
  transform="translate(693.666667 298.333333) rotate (-63.047821 0 0) scale (0.661891 1)"/>
  <path
  d=" M 0 0 20.0 0 C 20.0 -20.0 46.31611446599001 27.0 46.31611446599001 0  S 72.63222893198002 24.0 72.63222893198002 0 S 80.0 21.0 80.0 0 M 80.0 0 100 0" stroke="black" fill="transparent"
  transform="translate(826.666667 705.000000) rotate (-87.486190 0 0) scale (0.683992 1)"/>
  <path
  d=" M 0 0 20.0 0 C 20.0 -28.0 48.94662254385903 28.0 48.94662254385903 0  S 77.89324508771806 25.0 77.89324508771806 0 S 80.0 25.0 80.0 0 M 80.0 0 100 0" stroke="black" fill="transparent"
  transform="translate(737.000000 591.000000) rotate (7.391684 0 0) scale (0.621834 1)"/>
  <path
  d=" M 0 0 20.0 0 C 20.0 -27.0 44.29328990536748 28.0 44.29328990536748 0  S 68.58657981073496 23.0 68.58657981073496 0 S 80.0 27.0 80.0 0 M 80.0 0 100 0" stroke="black" fill="transparent"
  transform="translate(702.000000 628.666667) rotate (68.629378 0 0) scale (0.740945 1)"/>
  <path
  d=" M 0 0 20.0 0 C 20.0 -20.0 54.71251471279419 26.0 54.71251471279419 0  S 80.0 25.0 80.0 0 M 80.0 0 100 0" stroke="black" fill="transparent"
  transform="translate(493.000000 697.000000) rotate (45.000000 0 0) scale (0.518545 1)"/>
  <path
  d=" M 0 0 20.0 0 C 20.0 -28.0 44.052557324494785 25.0 44.052557324494785 0  S 68.10511464898957 29.0 68.10511464898957 0 S 80.0 27.0 80.0 0 M 80.0 0 100 0" stroke="black" fill="transparent"
  transform="translate(400.666667 797.666667) rotate (-62.978418 0 0) scale (0.748361 1)"/>
  <path
  d=" M 0 0 20.0 0 C 20.0 -20.0 44.9783268273088 26.0 44.9783268273088 0  S 69.9566536546176 23.0 69.9566536546176 0 S 80.0 22.0 80.0 0 M 80.0 0 100 0" stroke="black" fill="transparent"
  transform="translate(970.000000 365.666667) rotate (87.614056 0 0) scale (0.720625 1)"/>
  <path
  d=" M 0 0 20.0 0 C 20.0 -20.0 26.671722455265886 20.0 26.671722455265886 0  S 33.34344491053177 27.0 33.34344491053177 0 S 40.34344491053177 -22.0 40.34344491053177 0 S 47.34344491053177 20.0 47.34344491053177 0 S 54.34344491053177 -26.0 54.34344491053177 0 S 61.34344491053177 29.0 61.34344491053177 0 S 68.34344491053177 -29.0 68.34344491053177 0 S 75.34344491053177 29.0 75.34344491053177 0 S 80.0 26.0 80.0 0 M 80.0 0 100 0" stroke="black" fill="transparent"
  transform="translate(964.666667 168.000000) rotate (88.229989 0 0) scale (2.697954 1)"/>
  <path
  d=" M 0 0 20.0 0 C 20.0 -21.0 59.331280199378355 28.0 59.331280199378355 0  S 80.0 27.0 80.0 0 M 80.0 0 100 0" stroke="black" fill="transparent"
  transform="translate(898.666667 802.333333) rotate (42.638625 0 0) scale (0.457651 1)"/>
  <path
  d=" M 0 0 20.0 0 C 20.0 -21.0 53.40660679834878 23.0 53.40660679834878 0  S 80.0 21.0 80.0 0 M 80.0 0 100 0" stroke="black" fill="transparent"
  transform="translate(898.333333 739.666667) rotate (-38.216951 0 0) scale (0.538816 1)"/>
  <path
  d=" M 0 0 20.0 0 C 20.0 -28.0 30.786869584405395 21.0 30.786869584405395 0  S 41.57373916881079 21.0 41.57373916881079 0 S 52.57373916881079 -29.0 52.57373916881079 0 S 63.57373916881079 29.0 63.57373916881079 0 S 74.57373916881079 -21.0 74.57373916881079 0 S 80.0 24.0 80.0 0 M 80.0 0 100 0" stroke="black" fill="transparent"
  transform="translate(940.666667 706.333333) rotate (83.116317 0 0) scale (1.668695 1)"/>
  <path
  d=" M 0 0 20.0 0 C 20.0 -28.0 47.54779368461375 27.0 47.54779368461375 0  S 75.0955873692275 26.0 75.0955873692275 0 S 80.0 23.0 80.0 0 M 80.0 0 100 0" stroke="black" fill="transparent"
  transform="translate(130.000000 193.333333) rotate (0.876908 0 0) scale (0.653410 1)"/>
  <path
  d=" M 0 0 20.0 0 C 20.0 -23.0 56.89209722699838 26.0 56.89209722699838 0  S 80.0 23.0 80.0 0 M 80.0 0 100 0" stroke="black" fill="transparent"
  transform="translate(95.666667 228.000000) rotate (-45.276789 0 0) scale (0.487909 1)"/>
  <path
  d=" M 0 0 20.0 0 C 20.0 -23.0 46.66869910953893 27.0 46.66869910953893 0  S 73.33739821907785 25.0 73.33739821907785 0 S 80.0 28.0 80.0 0 M 80.0 0 100 0" stroke="black" fill="transparent"
  transform="translate(95.666667 228.000000) rotate (86.035345 0 0) scale (0.674949 1)"/>
  <path
  d=" M 0 0 20.0 0 C 20.0 -22.0 35.19151129626711 28.0 35.19151129626711 0  S 50.38302259253422 28.0 50.38302259253422 0 S 66.38302259253422 -23.0 66.38302259253422 0 S 80.0 26.0 80.0 0 M 80.0 0 100 0" stroke="black" fill="transparent"
  transform="translate(100.333333 295.333333) rotate (22.669461 0 0) scale (1.184872 1)"/>
  <path
  d=" M 0 0 20.0 0 C 20.0 -23.0 46.0674963561128 29.0 46.0674963561128 0  S 72.1349927122256 23.0 72.1349927122256 0 S 80.0 21.0 80.0 0 M 80.0 0 100 0" stroke="black" fill="transparent"
  transform="translate(630.666667 691.000000) rotate (-87.786772 0 0) scale (0.690515 1)"/>
  <path
  d=" M 0 0 20.0 0 C 20.0 -20.0 38.45746691484219 21.0 38.45746691484219 0  S 56.91493382968439 20.0 56.91493382968439 0 S 75.91493382968439 -26.0 75.91493382968439 0 S 80.0 23.0 80.0 0 M 80.0 0 100 0" stroke="black" fill="transparent"
  transform="translate(902.333333 93.000000) rotate (50.269653 0 0) scale (0.975215 1)"/>
  <path
  d=" M 0 0 20.0 0 C 20.0 -22.0 35.21537308063665 27.0 35.21537308063665 0  S 50.430746161273305 23.0 50.430746161273305 0 S 66.4307461612733 -28.0 66.4307461612733 0 S 80.0 29.0 80.0 0 M 80.0 0 100 0" stroke="black" fill="transparent"
  transform="translate(95.666667 467.666667) rotate (-12.861512 0 0) scale (1.183014 1)"/>
  <path
  d=" M 0 0 20.0 0 C 20.0 -24.0 41.67905590808044 29.0 41.67905590808044 0  S 63.358111816160886 24.0 63.358111816160886 0 S 80.0 25.0 80.0 0 M 80.0 0 100 0" stroke="black" fill="transparent"
  transform="translate(67.666667 371.666667) rotate (-66.831613 0 0) scale (0.830294 1)"/>
  <path
  d=" M 0 0 20.0 0 C 20.0 -26.0 41.67905590808046 22.0 41.67905590808046 0  S 63.358111816160914 21.0 63.358111816160914 0 S 80.0 28.0 80.0 0 M 80.0 0 100 0" stroke="black" fill="transparent"
  transform="translate(63.000000 304.333333) rotate (-66.831613 0 0) scale (0.830294 1)"/>
  <path
  d=" M 0 0 20.0 0 C 20.0 -21.0 45.829929993809614 29.0 45.829929993809614 0  S 71.65985998761923 20.0 71.65985998761923 0 S 80.0 28.0 80.0 0 M 80.0 0 100 0" stroke="black" fill="transparent"
  transform="translate(504.333333 925.333333) rotate (23.990316 0 0) scale (0.696866 1)"/>
  <path
  d=" M 0 0 20.0 0 C 20.0 -20.0 46.189534288747225 21.0 46.189534288747225 0  S 72.37906857749445 20.0 72.37906857749445 0 S 80.0 25.0 80.0 0 M 80.0 0 100 0" stroke="black" fill="transparent"
  transform="translate(98.333333 132.333333) rotate (62.565015 0 0) scale (0.687297 1)"/>
  <path
  d=" M 0 0 20.0 0 C 20.0 -24.0 38.85474400603384 22.0 38.85474400603384 0  S 57.70948801206768 29.0 57.70948801206768 0 S 76.70948801206768 -29.0 76.70948801206768 0 S 80.0 20.0 80.0 0 M 80.0 0 100 0" stroke="black" fill="transparent"
  transform="translate(69.666667 863.333333) rotate (-45.707319 0 0) scale (0.954667 1)"/>
  <path
  d=" M 0 0 20.0 0 C 20.0 -29.0 44.99571440812828 25.0 44.99571440812828 0  S 69.99142881625656 24.0 69.99142881625656 0 S 80.0 21.0 80.0 0 M 80.0 0 100 0" stroke="black" fill="transparent"
  transform="translate(129.000000 92.666667) rotate (1.060912 0 0) scale (0.720123 1)"/>
  <path
  d=" M 0 0 20.0 0 C 20.0 -28.0 30.22454076799484 22.0 30.22454076799484 0  S 40.44908153598968 24.0 40.44908153598968 0 S 51.44908153598968 -20.0 51.44908153598968 0 S 62.44908153598968 24.0 62.44908153598968 0 S 73.44908153598968 -27.0 73.44908153598968 0 S 80.0 26.0 80.0 0 M 80.0 0 100 0" stroke="black" fill="transparent"
  transform="translate(293.333333 59.666667) rotate (11.246105 0 0) scale (1.760470 1)"/>
  
  <path id="cat" fill="none" stroke="#000000" stroke-width="1" stroke-miterlimit="10" d="M55.571,141.777l55.54,0.994
        c0.142-7.894-0.396-9.472-13.47-9.706c2.201-6.229,10.96-21.235,15.679-21.15c4.177,0.075,9.152,0.395,8.982,9.915
        c-0.193,10.812,17.689,28.577,22.23,21.538c6.766-10.479-11.173-7.564-10.715-33.132c0.626-34.97,20.944-29.626,21.295-49.276
        c0.176-9.83-2.514-11.206-2.388-18.234c0.167-9.286,8.34-8.601,6.885-16.331c-1.006-5.339-1.79-9.62-2.313-16.064
        c-0.375-4.573-0.436-9.441-5.177-9.33c-5.573,0.13-7.862,9.897-16.535,10.445c-8.652,0.547-15.876-7.642-19.244-6.551
        c-3.333,1.082-2.453,10.097-0.601,16.521c2.912,10.098,9.417,23.274-2.906,25.02c-12.323,1.746-33.492,3.334-49.089,23.213
        c-15.597,19.878-15.46,43.54-21.557,50.747c-20.472,24.196-40.82,13.749-41.186,34.17c-0.164,9.146,15.213,16.005,17.724,13.1
        c2.51-2.905-20.671-12.105,5.628-22.024C46.823,137.176,48.846,135.403,55.571,141.777z"
        transform="translate(320.5 316.5)"
        /><path
  d=" M 0 0 20.0 0 C 20.0 -26.0 41.023619893703426 22.0 41.023619893703426 0  S 62.04723978740685 24.0 62.04723978740685 0 S 80.0 20.0 80.0 0 M 80.0 0 100 0" stroke="black" fill="transparent"
  transform="translate(339.230000 484.170000) rotate (143.581150 0 0) scale (0.856180 1)"/>
  <path
  d=" M 0 0 20.0 0 C 20.0 -23.0 31.29347926049029 29.0 31.29347926049029 0  S 42.58695852098058 22.0 42.58695852098058 0 S 54.58695852098058 -27.0 54.58695852098058 0 S 66.58695852098057 22.0 66.58695852098057 0 S 78.58695852098057 -28.0 78.58695852098057 0 S 80.0 29.0 80.0 0 M 80.0 0 100 0" stroke="black" fill="transparent"
  transform="translate(384.240000 386.150000) rotate (-135.616005 0 0) scale (1.593840 1)"/>
  <path
  d=" M 0 0 20.0 0 C 20.0 -27.0 35.88113172772671 26.0 35.88113172772671 0  S 51.76226345545342 21.0 51.76226345545342 0 S 67.76226345545342 -28.0 67.76226345545342 0 S 80.0 22.0 80.0 0 M 80.0 0 100 0" stroke="black" fill="transparent"
  transform="translate(436.840000 321.390000) rotate (-84.010574 0 0) scale (1.133420 1)"/>
  <path
  d=" M 0 0 20.0 0 C 20.0 -29.0 39.31703868206622 20.0 39.31703868206622 0  S 58.63407736413244 25.0 58.63407736413244 0 S 78.63407736413244 -26.0 78.63407736413244 0 S 80.0 26.0 80.0 0 M 80.0 0 100 0" stroke="black" fill="transparent"
  transform="translate(465.030000 459.870000) rotate (32.061218 0 0) scale (0.931820 1)"/>
  <path
  d=" M 0 0 20.0 0 C 20.0 -21.0 37.24382177199605 20.0 37.24382177199605 0  S 54.48764354399211 28.0 54.48764354399211 0 S 72.4876435439921 -25.0 72.4876435439921 0 S 80.0 25.0 80.0 0 M 80.0 0 100 0" stroke="black" fill="transparent"
  transform="translate(475.610000 377.460000) rotate (-20.053449 0 0) scale (1.043852 1)"/>
  
</svg>
