<svg xmlns="http://www.w3.org/2000/svg"
  xmlns:xlink="http://www.w3.org/1999/xlink"
  width="1000" height="1000">
<path
  d=" M 0 0 10.0 0  C 10.000000 -16.000000 20.000000 19.000000 20.000000 0  S 30.0 14.0 30.0 0  S 40.0 -12.0 40.0 0  S 50.0 12.0 50.0 0  S 60.0 -16.0 60.0 0  S 70.0 13.0 70.0 0  S 80.0 -12.0 80.0 0  S 90.0 16.0 90.0 0  M 90.0 0 100 0" stroke="black" fill="transparent"
  transform="translate(541.000000 515.333333) rotate (-66.472936 0 0) scale (1.068852 1)"/>
  <path
  d=" M 0 0 10.0 0  C 10.000000 -11.000000 23.333333 15.000000 23.333333 0  S 36.66666666666667 12.0 36.66666666666667 0  S 50.66666666666667 -18.0 50.66666666666667 0  S 64.66666666666667 11.0 64.66666666666667 0  S 78.66666666666667 -15.0 78.66666666666667 0  S 90.0 13.0 90.0 0  M 90.0 0 100 0" stroke="black" fill="transparent"
  transform="translate(473.333333 582.000000) rotate (-44.573488 0 0) scale (0.949906 1)"/>
  <path
  d=" M 0 0 10.0 0  C 10.000000 -10.000000 20.000000 19.000000 20.000000 0  S 30.0 18.0 30.0 0  S 40.0 -16.0 40.0 0  S 50.0 12.0 50.0 0  S 60.0 -14.0 60.0 0  S 70.0 13.0 70.0 0  S 80.0 -19.0 80.0 0  S 90.0 16.0 90.0 0  M 90.0 0 100 0" stroke="black" fill="transparent"
  transform="translate(414.666667 597.666667) rotate (-14.951677 0 0) scale (0.607225 1)"/>
  <path
  d=" M 0 0 10.0 0  C 10.000000 -11.000000 26.000000 11.000000 26.000000 0  S 42.0 17.0 42.0 0  S 58.0 -12.0 58.0 0  S 74.0 18.0 74.0 0  S 90.0 16.0 90.0 0  M 90.0 0 100 0" stroke="black" fill="transparent"
  transform="translate(362.666667 597.333333) rotate (0.367276 0 0) scale (0.520011 1)"/>
  <path
  d=" M 0 0 10.0 0  C 10.000000 -10.000000 23.333333 18.000000 23.333333 0  S 36.66666666666667 19.0 36.66666666666667 0  S 50.66666666666667 -15.0 50.66666666666667 0  S 64.66666666666667 19.0 64.66666666666667 0  S 78.66666666666667 -15.0 78.66666666666667 0  S 90.0 18.0 90.0 0  M 90.0 0 100 0" stroke="black" fill="transparent"
  transform="translate(291.666667 558.333333) rotate (28.779806 0 0) scale (0.810062 1)"/>
  <path
  d=" M 0 0 10.0 0  C 10.000000 -12.000000 21.428571 16.000000 21.428571 0  S 32.85714285714286 14.0 32.85714285714286 0  S 44.85714285714286 -18.0 44.85714285714286 0  S 56.85714285714286 15.0 56.85714285714286 0  S 68.85714285714286 -17.0 68.85714285714286 0  S 80.85714285714286 14.0 80.85714285714286 0  S 90.0 17.0 90.0 0  M 90.0 0 100 0" stroke="black" fill="transparent"
  transform="translate(247.666667 421.333333) rotate (72.194650 0 0) scale (1.438923 1)"/>
  <path
  d=" M 0 0 10.0 0  C 10.000000 -18.000000 23.333333 15.000000 23.333333 0  S 36.66666666666667 12.0 36.66666666666667 0  S 50.66666666666667 -14.0 50.66666666666667 0  S 64.66666666666667 15.0 64.66666666666667 0  S 78.66666666666667 -10.0 78.66666666666667 0  S 90.0 17.0 90.0 0  M 90.0 0 100 0" stroke="black" fill="transparent"
  transform="translate(247.666667 421.333333) rotate (-78.742923 0 0) scale (1.417267 1)"/>
  <path
  d=" M 0 0 10.0 0  C 10.000000 -13.000000 23.333333 15.000000 23.333333 0  S 36.66666666666667 17.0 36.66666666666667 0  S 50.66666666666667 -16.0 50.66666666666667 0  S 64.66666666666667 16.0 64.66666666666667 0  S 78.66666666666667 -14.0 78.66666666666667 0  S 90.0 19.0 90.0 0  M 90.0 0 100 0" stroke="black" fill="transparent"
  transform="translate(275.333333 282.333333) rotate (-16.726476 0 0) scale (1.343511 1)"/>
  <path
  d=" M 0 0 10.0 0  C 10.000000 -15.000000 21.428571 19.000000 21.428571 0  S 32.85714285714286 19.0 32.85714285714286 0  S 44.85714285714286 -18.0 44.85714285714286 0  S 56.85714285714286 11.0 56.85714285714286 0  S 68.85714285714286 -16.0 68.85714285714286 0  S 80.85714285714286 11.0 80.85714285714286 0  S 90.0 10.0 90.0 0  M 90.0 0 100 0" stroke="black" fill="transparent"
  transform="translate(404.000000 243.666667) rotate (15.183973 0 0) scale (1.412649 1)"/>
  <path
  d=" M 0 0 10.0 0  C 10.000000 -16.000000 26.000000 12.000000 26.000000 0  S 42.0 14.0 42.0 0  S 58.0 -16.0 58.0 0  S 74.0 14.0 74.0 0  S 90.0 12.0 90.0 0  M 90.0 0 100 0" stroke="black" fill="transparent"
  transform="translate(540.333333 280.666667) rotate (52.935550 0 0) scale (0.785338 1)"/>
  <path
  d=" M 0 0 10.0 0  C 10.000000 -18.000000 26.000000 10.000000 26.000000 0  S 42.0 19.0 42.0 0  S 58.0 -12.0 58.0 0  S 74.0 14.0 74.0 0  S 90.0 11.0 90.0 0  M 90.0 0 100 0" stroke="black" fill="transparent"
  transform="translate(583.666667 417.333333) rotate (-86.905942 0 0) scale (0.741080 1)"/>
  <path
  d=" M 0 0 10.0 0  C 10.000000 -15.000000 21.428571 10.000000 21.428571 0  S 32.85714285714286 13.0 32.85714285714286 0  S 44.85714285714286 -15.0 44.85714285714286 0  S 56.85714285714286 19.0 56.85714285714286 0  S 68.85714285714286 -11.0 68.85714285714286 0  S 80.85714285714286 17.0 80.85714285714286 0  S 90.0 16.0 90.0 0  M 90.0 0 100 0" stroke="black" fill="transparent"
  transform="translate(279.000000 66.333333) rotate (48.433630 0 0) scale (0.472252 1)"/>
  <path
  d=" M 0 0 10.0 0  C 10.000000 -11.000000 20.000000 19.000000 20.000000 0  S 30.0 17.0 30.0 0  S 40.0 -16.0 40.0 0  S 50.0 17.0 50.0 0  S 60.0 -16.0 60.0 0  S 70.0 12.0 70.0 0  S 80.0 -19.0 80.0 0  S 90.0 16.0 90.0 0  M 90.0 0 100 0" stroke="black" fill="transparent"
  transform="translate(898.666667 101.000000) rotate (47.622401 0 0) scale (0.618187 1)"/>
  <path
  d=" M 0 0 10.0 0  C 10.000000 -16.000000 21.428571 18.000000 21.428571 0  S 32.85714285714286 10.0 32.85714285714286 0  S 44.85714285714286 -16.0 44.85714285714286 0  S 56.85714285714286 17.0 56.85714285714286 0  S 68.85714285714286 -18.0 68.85714285714286 0  S 80.85714285714286 14.0 80.85714285714286 0  S 90.0 17.0 90.0 0  M 90.0 0 100 0" stroke="black" fill="transparent"
  transform="translate(599.000000 899.666667) rotate (39.262265 0 0) scale (0.495098 1)"/>
  <path
  d=" M 0 0 10.0 0  C 10.000000 -15.000000 21.428571 16.000000 21.428571 0  S 32.85714285714286 15.0 32.85714285714286 0  S 44.85714285714286 -13.0 44.85714285714286 0  S 56.85714285714286 19.0 56.85714285714286 0  S 68.85714285714286 -11.0 68.85714285714286 0  S 80.85714285714286 19.0 80.85714285714286 0  S 90.0 13.0 90.0 0  M 90.0 0 100 0" stroke="black" fill="transparent"
  transform="translate(545.333333 961.666667) rotate (-18.434949 0 0) scale (0.969765 1)"/>
  <path
  d=" M 0 0 10.0 0  C 10.000000 -19.000000 23.333333 14.000000 23.333333 0  S 36.66666666666667 10.0 36.66666666666667 0  S 50.66666666666667 -12.0 50.66666666666667 0  S 64.66666666666667 10.0 64.66666666666667 0  S 78.66666666666667 -17.0 78.66666666666667 0  S 90.0 16.0 90.0 0  M 90.0 0 100 0" stroke="black" fill="transparent"
  transform="translate(468.333333 960.666667) rotate (0.744059 0 0) scale (0.770065 1)"/>
  <path
  d=" M 0 0 10.0 0  C 10.000000 -18.000000 21.428571 18.000000 21.428571 0  S 32.85714285714286 15.0 32.85714285714286 0  S 44.85714285714286 -13.0 44.85714285714286 0  S 56.85714285714286 16.0 56.85714285714286 0  S 68.85714285714286 -11.0 68.85714285714286 0  S 80.85714285714286 10.0 80.85714285714286 0  S 90.0 16.0 90.0 0  M 90.0 0 100 0" stroke="black" fill="transparent"
  transform="translate(468.333333 960.666667) rotate (-44.652757 0 0) scale (0.388916 1)"/>
  <path
  d=" M 0 0 10.0 0  C 10.000000 -15.000000 26.000000 19.000000 26.000000 0  S 42.0 18.0 42.0 0  S 58.0 -19.0 58.0 0  S 74.0 10.0 74.0 0  S 90.0 19.0 90.0 0  M 90.0 0 100 0" stroke="black" fill="transparent"
  transform="translate(496.000000 933.333333) rotate (-38.113573 0 0) scale (0.491449 1)"/>
  <path
  d=" M 0 0 10.0 0  C 10.000000 -10.000000 26.000000 16.000000 26.000000 0  S 42.0 10.0 42.0 0  S 58.0 -10.0 58.0 0  S 74.0 12.0 74.0 0  S 90.0 16.0 90.0 0  M 90.0 0 100 0" stroke="black" fill="transparent"
  transform="translate(534.666667 903.000000) rotate (-2.966041 0 0) scale (0.644196 1)"/>
  <path
  d=" M 0 0 10.0 0  C 10.000000 -11.000000 23.333333 14.000000 23.333333 0  S 36.66666666666667 13.0 36.66666666666667 0  S 50.66666666666667 -13.0 50.66666666666667 0  S 64.66666666666667 16.0 64.66666666666667 0  S 78.66666666666667 -13.0 78.66666666666667 0  S 90.0 12.0 90.0 0  M 90.0 0 100 0" stroke="black" fill="transparent"
  transform="translate(801.000000 294.333333) rotate (-61.959847 0 0) scale (0.694902 1)"/>
  <path
  d=" M 0 0 10.0 0  C 10.000000 -16.000000 23.333333 18.000000 23.333333 0  S 36.66666666666667 10.0 36.66666666666667 0  S 50.66666666666667 -14.0 50.66666666666667 0  S 64.66666666666667 10.0 64.66666666666667 0  S 78.66666666666667 -17.0 78.66666666666667 0  S 90.0 19.0 90.0 0  M 90.0 0 100 0" stroke="black" fill="transparent"
  transform="translate(801.000000 294.333333) rotate (44.798963 0 0) scale (0.671756 1)"/>
  <path
  d=" M 0 0 10.0 0  C 10.000000 -15.000000 21.428571 14.000000 21.428571 0  S 32.85714285714286 11.0 32.85714285714286 0  S 44.85714285714286 -15.0 44.85714285714286 0  S 56.85714285714286 13.0 56.85714285714286 0  S 68.85714285714286 -16.0 68.85714285714286 0  S 80.85714285714286 10.0 80.85714285714286 0  S 90.0 13.0 90.0 0  M 90.0 0 100 0" stroke="black" fill="transparent"
  transform="translate(848.666667 341.666667) rotate (-5.964487 0 0) scale (0.673647 1)"/>
  <path
  d=" M 0 0 10.0 0  C 10.000000 -15.000000 21.428571 13.000000 21.428571 0  S 32.85714285714286 18.0 32.85714285714286 0  S 44.85714285714286 -19.0 44.85714285714286 0  S 56.85714285714286 16.0 56.85714285714286 0  S 68.85714285714286 -12.0 68.85714285714286 0  S 80.85714285714286 19.0 80.85714285714286 0  S 90.0 10.0 90.0 0  M 90.0 0 100 0" stroke="black" fill="transparent"
  transform="translate(915.666667 334.666667) rotate (-51.155168 0 0) scale (0.483621 1)"/>
  <path
  d=" M 0 0 10.0 0  C 10.000000 -13.000000 23.333333 14.000000 23.333333 0  S 36.66666666666667 17.0 36.66666666666667 0  S 50.66666666666667 -10.0 50.66666666666667 0  S 64.66666666666667 13.0 64.66666666666667 0  S 78.66666666666667 -16.0 78.66666666666667 0  S 90.0 12.0 90.0 0  M 90.0 0 100 0" stroke="black" fill="transparent"
  transform="translate(946.000000 297.000000) rotate (-80.837653 0 0) scale (0.523344 1)"/>
  <path
  d=" M 0 0 10.0 0  C 10.000000 -16.000000 21.428571 11.000000 21.428571 0  S 32.85714285714286 17.0 32.85714285714286 0  S 44.85714285714286 -12.0 44.85714285714286 0  S 56.85714285714286 17.0 56.85714285714286 0  S 68.85714285714286 -16.0 68.85714285714286 0  S 80.85714285714286 18.0 80.85714285714286 0  S 90.0 18.0 90.0 0  M 90.0 0 100 0" stroke="black" fill="transparent"
  transform="translate(911.333333 213.666667) rotate (36.369198 0 0) scale (0.534020 1)"/>
  <path
  d=" M 0 0 10.0 0  C 10.000000 -16.000000 23.333333 19.000000 23.333333 0  S 36.66666666666667 16.0 36.66666666666667 0  S 50.66666666666667 -18.0 50.66666666666667 0  S 64.66666666666667 11.0 64.66666666666667 0  S 78.66666666666667 -10.0 78.66666666666667 0  S 90.0 16.0 90.0 0  M 90.0 0 100 0" stroke="black" fill="transparent"
  transform="translate(833.666667 233.000000) rotate (-13.978369 0 0) scale (0.800368 1)"/>
  <path
  d=" M 0 0 10.0 0  C 10.000000 -14.000000 23.333333 17.000000 23.333333 0  S 36.66666666666667 15.0 36.66666666666667 0  S 50.66666666666667 -17.0 50.66666666666667 0  S 64.66666666666667 15.0 64.66666666666667 0  S 78.66666666666667 -19.0 78.66666666666667 0  S 90.0 14.0 90.0 0  M 90.0 0 100 0" stroke="black" fill="transparent"
  transform="translate(400.666667 744.666667) rotate (-32.881240 0 0) scale (0.392952 1)"/>
  <path
  d=" M 0 0 10.0 0  C 10.000000 -13.000000 20.000000 13.000000 20.000000 0  S 30.0 12.0 30.0 0  S 40.0 -12.0 40.0 0  S 50.0 10.0 50.0 0  S 60.0 -19.0 60.0 0  S 70.0 15.0 70.0 0  S 80.0 -16.0 80.0 0  S 90.0 14.0 90.0 0  M 90.0 0 100 0" stroke="black" fill="transparent"
  transform="translate(433.666667 723.333333) rotate (19.754026 0 0) scale (0.641058 1)"/>
  <path
  d=" M 0 0 10.0 0  C 10.000000 -10.000000 23.333333 11.000000 23.333333 0  S 36.66666666666667 19.0 36.66666666666667 0  S 50.66666666666667 -17.0 50.66666666666667 0  S 64.66666666666667 14.0 64.66666666666667 0  S 78.66666666666667 -10.0 78.66666666666667 0  S 90.0 13.0 90.0 0  M 90.0 0 100 0" stroke="black" fill="transparent"
  transform="translate(494.000000 745.000000) rotate (53.686355 0 0) scale (0.686699 1)"/>
  <path
  d=" M 0 0 10.0 0  C 10.000000 -13.000000 23.333333 19.000000 23.333333 0  S 36.66666666666667 18.0 36.66666666666667 0  S 50.66666666666667 -18.0 50.66666666666667 0  S 64.66666666666667 15.0 64.66666666666667 0  S 78.66666666666667 -14.0 78.66666666666667 0  S 90.0 13.0 90.0 0  M 90.0 0 100 0" stroke="black" fill="transparent"
  transform="translate(501.666667 843.666667) rotate (-52.709333 0 0) scale (0.544681 1)"/>
  <path
  d=" M 0 0 10.0 0  C 10.000000 -11.000000 26.000000 18.000000 26.000000 0  S 42.0 15.0 42.0 0  S 58.0 -13.0 58.0 0  S 74.0 11.0 74.0 0  S 90.0 14.0 90.0 0  M 90.0 0 100 0" stroke="black" fill="transparent"
  transform="translate(434.000000 850.000000) rotate (-5.347082 0 0) scale (0.679624 1)"/>
  <path
  d=" M 0 0 10.0 0  C 10.000000 -13.000000 26.000000 15.000000 26.000000 0  S 42.0 10.0 42.0 0  S 58.0 -14.0 58.0 0  S 74.0 13.0 74.0 0  S 90.0 15.0 90.0 0  M 90.0 0 100 0" stroke="black" fill="transparent"
  transform="translate(395.000000 806.000000) rotate (48.447387 0 0) scale (0.587963 1)"/>
  <path
  d=" M 0 0 10.0 0  C 10.000000 -17.000000 20.000000 13.000000 20.000000 0  S 30.0 14.0 30.0 0  S 40.0 -10.0 40.0 0  S 50.0 16.0 50.0 0  S 60.0 -18.0 60.0 0  S 70.0 15.0 70.0 0  S 80.0 -18.0 80.0 0  S 90.0 17.0 90.0 0  M 90.0 0 100 0" stroke="black" fill="transparent"
  transform="translate(395.000000 806.000000) rotate (-84.721354 0 0) scale (0.615946 1)"/>
  <path
  d=" M 0 0 10.0 0  C 10.000000 -12.000000 26.000000 14.000000 26.000000 0  S 42.0 11.0 42.0 0  S 58.0 -14.0 58.0 0  S 74.0 16.0 74.0 0  S 90.0 16.0 90.0 0  M 90.0 0 100 0" stroke="black" fill="transparent"
  transform="translate(848.333333 493.666667) rotate (5.132554 0 0) scale (0.558908 1)"/>
  <path
  d=" M 0 0 10.0 0  C 10.000000 -15.000000 20.000000 18.000000 20.000000 0  S 30.0 15.0 30.0 0  S 40.0 -12.0 40.0 0  S 50.0 13.0 50.0 0  S 60.0 -15.0 60.0 0  S 70.0 15.0 70.0 0  S 80.0 -14.0 80.0 0  S 90.0 16.0 90.0 0  M 90.0 0 100 0" stroke="black" fill="transparent"
  transform="translate(904.000000 498.666667) rotate (-82.703054 0 0) scale (0.551130 1)"/>
  <path
  d=" M 0 0 10.0 0  C 10.000000 -11.000000 21.428571 14.000000 21.428571 0  S 32.85714285714286 19.0 32.85714285714286 0  S 44.85714285714286 -17.0 44.85714285714286 0  S 56.85714285714286 14.0 56.85714285714286 0  S 68.85714285714286 -11.0 68.85714285714286 0  S 80.85714285714286 19.0 80.85714285714286 0  S 90.0 19.0 90.0 0  M 90.0 0 100 0" stroke="black" fill="transparent"
  transform="translate(855.333333 439.000000) rotate (5.132554 0 0) scale (0.558908 1)"/>
  <path
  d=" M 0 0 10.0 0  C 10.000000 -15.000000 20.000000 15.000000 20.000000 0  S 30.0 15.0 30.0 0  S 40.0 -12.0 40.0 0  S 50.0 11.0 50.0 0  S 60.0 -12.0 60.0 0  S 70.0 15.0 70.0 0  S 80.0 -15.0 80.0 0  S 90.0 10.0 90.0 0  M 90.0 0 100 0" stroke="black" fill="transparent"
  transform="translate(848.333333 493.666667) rotate (-82.703054 0 0) scale (0.551130 1)"/>
  <path
  d=" M 0 0 10.0 0  C 10.000000 -15.000000 26.000000 14.000000 26.000000 0  S 42.0 14.0 42.0 0  S 58.0 -18.0 58.0 0  S 74.0 19.0 74.0 0  S 90.0 13.0 90.0 0  M 90.0 0 100 0" stroke="black" fill="transparent"
  transform="translate(747.000000 393.333333) rotate (11.633634 0 0) scale (0.694262 1)"/>
  <path
  d=" M 0 0 10.0 0  C 10.000000 -13.000000 21.428571 13.000000 21.428571 0  S 32.85714285714286 16.0 32.85714285714286 0  S 44.85714285714286 -10.0 44.85714285714286 0  S 56.85714285714286 12.0 56.85714285714286 0  S 68.85714285714286 -18.0 68.85714285714286 0  S 80.85714285714286 15.0 80.85714285714286 0  S 90.0 16.0 90.0 0  M 90.0 0 100 0" stroke="black" fill="transparent"
  transform="translate(712.000000 434.000000) rotate (-49.282878 0 0) scale (0.536542 1)"/>
  <path
  d=" M 0 0 10.0 0  C 10.000000 -15.000000 21.428571 12.000000 21.428571 0  S 32.85714285714286 13.0 32.85714285714286 0  S 44.85714285714286 -19.0 44.85714285714286 0  S 56.85714285714286 13.0 56.85714285714286 0  S 68.85714285714286 -16.0 68.85714285714286 0  S 80.85714285714286 19.0 80.85714285714286 0  S 90.0 12.0 90.0 0  M 90.0 0 100 0" stroke="black" fill="transparent"
  transform="translate(704.000000 499.666667) rotate (-83.054032 0 0) scale (0.661522 1)"/>
  <path
  d=" M 0 0 10.0 0  C 10.000000 -18.000000 26.000000 18.000000 26.000000 0  S 42.0 19.0 42.0 0  S 58.0 -16.0 58.0 0  S 74.0 13.0 74.0 0  S 90.0 11.0 90.0 0  M 90.0 0 100 0" stroke="black" fill="transparent"
  transform="translate(704.000000 499.666667) rotate (37.496913 0 0) scale (0.487363 1)"/>
  <path
  d=" M 0 0 10.0 0  C 10.000000 -18.000000 21.428571 12.000000 21.428571 0  S 32.85714285714286 13.0 32.85714285714286 0  S 44.85714285714286 -16.0 44.85714285714286 0  S 56.85714285714286 12.0 56.85714285714286 0  S 68.85714285714286 -15.0 68.85714285714286 0  S 80.85714285714286 16.0 80.85714285714286 0  S 90.0 10.0 90.0 0  M 90.0 0 100 0" stroke="black" fill="transparent"
  transform="translate(742.666667 529.333333) rotate (2.489553 0 0) scale (0.690652 1)"/>
  <path
  d=" M 0 0 10.0 0  C 10.000000 -12.000000 21.428571 19.000000 21.428571 0  S 32.85714285714286 17.0 32.85714285714286 0  S 44.85714285714286 -19.0 44.85714285714286 0  S 56.85714285714286 13.0 56.85714285714286 0  S 68.85714285714286 -12.0 68.85714285714286 0  S 80.85714285714286 11.0 80.85714285714286 0  S 90.0 10.0 90.0 0  M 90.0 0 100 0" stroke="black" fill="transparent"
  transform="translate(811.666667 532.333333) rotate (-46.520770 0 0) scale (0.532875 1)"/>
  <path
  d=" M 0 0 10.0 0  C 10.000000 -15.000000 20.000000 19.000000 20.000000 0  S 30.0 14.0 30.0 0  S 40.0 -10.0 40.0 0  S 50.0 14.0 50.0 0  S 60.0 -10.0 60.0 0  S 70.0 15.0 70.0 0  S 80.0 -16.0 80.0 0  S 90.0 17.0 90.0 0  M 90.0 0 100 0" stroke="black" fill="transparent"
  transform="translate(815.000000 407.333333) rotate (38.136308 0 0) scale (0.512792 1)"/>
  <path
  d=" M 0 0 10.0 0  C 10.000000 -12.000000 21.428571 18.000000 21.428571 0  S 32.85714285714286 18.0 32.85714285714286 0  S 44.85714285714286 -11.0 44.85714285714286 0  S 56.85714285714286 11.0 56.85714285714286 0  S 68.85714285714286 -13.0 68.85714285714286 0  S 80.85714285714286 11.0 80.85714285714286 0  S 90.0 11.0 90.0 0  M 90.0 0 100 0" stroke="black" fill="transparent"
  transform="translate(61.333333 877.666667) rotate (57.672316 0 0) scale (0.816565 1)"/>
  <path
  d=" M 0 0 10.0 0  C 10.000000 -16.000000 20.000000 19.000000 20.000000 0  S 30.0 19.0 30.0 0  S 40.0 -12.0 40.0 0  S 50.0 13.0 50.0 0  S 60.0 -10.0 60.0 0  S 70.0 11.0 70.0 0  S 80.0 -13.0 80.0 0  S 90.0 10.0 90.0 0  M 90.0 0 100 0" stroke="black" fill="transparent"
  transform="translate(699.000000 643.333333) rotate (-47.161079 0 0) scale (0.500044 1)"/>
  <path
  d=" M 0 0 10.0 0  C 10.000000 -18.000000 21.428571 10.000000 21.428571 0  S 32.85714285714286 19.0 32.85714285714286 0  S 44.85714285714286 -14.0 44.85714285714286 0  S 56.85714285714286 12.0 56.85714285714286 0  S 68.85714285714286 -14.0 68.85714285714286 0  S 80.85714285714286 11.0 80.85714285714286 0  S 90.0 13.0 90.0 0  M 90.0 0 100 0" stroke="black" fill="transparent"
  transform="translate(635.666667 632.666667) rotate (9.560096 0 0) scale (0.642253 1)"/>
  <path
  d=" M 0 0 10.0 0  C 10.000000 -15.000000 26.000000 13.000000 26.000000 0  S 42.0 11.0 42.0 0  S 58.0 -10.0 58.0 0  S 74.0 17.0 74.0 0  S 90.0 12.0 90.0 0  M 90.0 0 100 0" stroke="black" fill="transparent"
  transform="translate(631.000000 566.333333) rotate (85.975772 0 0) scale (0.664973 1)"/>
  <path
  d=" M 0 0 10.0 0  C 10.000000 -19.000000 23.333333 10.000000 23.333333 0  S 36.66666666666667 19.0 36.66666666666667 0  S 50.66666666666667 -18.0 50.66666666666667 0  S 64.66666666666667 12.0 64.66666666666667 0  S 78.66666666666667 -19.0 78.66666666666667 0  S 90.0 19.0 90.0 0  M 90.0 0 100 0" stroke="black" fill="transparent"
  transform="translate(631.000000 566.333333) rotate (-42.403641 0 0) scale (0.988607 1)"/>
  <path
  d=" M 0 0 10.0 0  C 10.000000 -13.000000 21.428571 17.000000 21.428571 0  S 32.85714285714286 19.0 32.85714285714286 0  S 44.85714285714286 -16.0 44.85714285714286 0  S 56.85714285714286 15.0 56.85714285714286 0  S 68.85714285714286 -11.0 68.85714285714286 0  S 80.85714285714286 18.0 80.85714285714286 0  S 90.0 12.0 90.0 0  M 90.0 0 100 0" stroke="black" fill="transparent"
  transform="translate(733.000000 606.666667) rotate (-82.874984 0 0) scale (0.779352 1)"/>
  <path
  d=" M 0 0 10.0 0  C 10.000000 -12.000000 20.000000 12.000000 20.000000 0  S 30.0 14.0 30.0 0  S 40.0 -16.0 40.0 0  S 50.0 16.0 50.0 0  S 60.0 -19.0 60.0 0  S 70.0 16.0 70.0 0  S 80.0 -17.0 80.0 0  S 90.0 15.0 90.0 0  M 90.0 0 100 0" stroke="black" fill="transparent"
  transform="translate(946.000000 297.000000) rotate (69.956976 0 0) scale (1.089307 1)"/>
  <path
  d=" M 0 0 10.0 0  C 10.000000 -17.000000 20.000000 12.000000 20.000000 0  S 30.0 15.0 30.0 0  S 40.0 -17.0 40.0 0  S 50.0 10.0 50.0 0  S 60.0 -10.0 60.0 0  S 70.0 16.0 70.0 0  S 80.0 -12.0 80.0 0  S 90.0 14.0 90.0 0  M 90.0 0 100 0" stroke="black" fill="transparent"
  transform="translate(842.000000 908.666667) rotate (-87.361508 0 0) scale (0.724101 1)"/>
  <path
  d=" M 0 0 10.0 0  C 10.000000 -10.000000 23.333333 14.000000 23.333333 0  S 36.66666666666667 11.0 36.66666666666667 0  S 50.66666666666667 -14.0 50.66666666666667 0  S 64.66666666666667 14.0 64.66666666666667 0  S 78.66666666666667 -12.0 78.66666666666667 0  S 90.0 17.0 90.0 0  M 90.0 0 100 0" stroke="black" fill="transparent"
  transform="translate(842.000000 908.666667) rotate (27.143777 0 0) scale (0.737940 1)"/>
  <path
  d=" M 0 0 10.0 0  C 10.000000 -13.000000 20.000000 12.000000 20.000000 0  S 30.0 15.0 30.0 0  S 40.0 -14.0 40.0 0  S 50.0 18.0 50.0 0  S 60.0 -12.0 60.0 0  S 70.0 19.0 70.0 0  S 80.0 -16.0 80.0 0  S 90.0 15.0 90.0 0  M 90.0 0 100 0" stroke="black" fill="transparent"
  transform="translate(907.666667 942.333333) rotate (-42.936180 0 0) scale (0.523599 1)"/>
  <path
  d=" M 0 0 10.0 0  C 10.000000 -11.000000 21.428571 12.000000 21.428571 0  S 32.85714285714286 19.0 32.85714285714286 0  S 44.85714285714286 -12.0 44.85714285714286 0  S 56.85714285714286 11.0 56.85714285714286 0  S 68.85714285714286 -10.0 68.85714285714286 0  S 80.85714285714286 19.0 80.85714285714286 0  S 90.0 19.0 90.0 0  M 90.0 0 100 0" stroke="black" fill="transparent"
  transform="translate(904.000000 833.000000) rotate (60.310990 0 0) scale (0.847985 1)"/>
  <path
  d=" M 0 0 10.0 0  C 10.000000 -18.000000 20.000000 10.000000 20.000000 0  S 30.0 14.0 30.0 0  S 40.0 -17.0 40.0 0  S 50.0 17.0 50.0 0  S 60.0 -15.0 60.0 0  S 70.0 10.0 70.0 0  S 80.0 -17.0 80.0 0  S 90.0 17.0 90.0 0  M 90.0 0 100 0" stroke="black" fill="transparent"
  transform="translate(845.333333 836.333333) rotate (-3.251946 0 0) scale (0.587613 1)"/>
  <path
  d=" M 0 0 10.0 0  C 10.000000 -15.000000 23.333333 12.000000 23.333333 0  S 36.66666666666667 10.0 36.66666666666667 0  S 50.66666666666667 -18.0 50.66666666666667 0  S 64.66666666666667 11.0 64.66666666666667 0  S 78.66666666666667 -19.0 78.66666666666667 0  S 90.0 10.0 90.0 0  M 90.0 0 100 0" stroke="black" fill="transparent"
  transform="translate(61.333333 877.666667) rotate (-57.889632 0 0) scale (0.771326 1)"/>
  <path
  d=" M 0 0 10.0 0  C 10.000000 -18.000000 23.333333 10.000000 23.333333 0  S 36.66666666666667 19.0 36.66666666666667 0  S 50.66666666666667 -12.0 50.66666666666667 0  S 64.66666666666667 12.0 64.66666666666667 0  S 78.66666666666667 -14.0 78.66666666666667 0  S 90.0 15.0 90.0 0  M 90.0 0 100 0" stroke="black" fill="transparent"
  transform="translate(102.333333 812.333333) rotate (-62.758258 0 0) scale (0.757335 1)"/>
  <path
  d=" M 0 0 10.0 0  C 10.000000 -14.000000 26.000000 16.000000 26.000000 0  S 42.0 15.0 42.0 0  S 58.0 -11.0 58.0 0  S 74.0 12.0 74.0 0  S 90.0 10.0 90.0 0  M 90.0 0 100 0" stroke="black" fill="transparent"
  transform="translate(103.666667 707.666667) rotate (48.239700 0 0) scale (0.500489 1)"/>
  <path
  d=" M 0 0 10.0 0  C 10.000000 -12.000000 21.428571 10.000000 21.428571 0  S 32.85714285714286 11.0 32.85714285714286 0  S 44.85714285714286 -12.0 44.85714285714286 0  S 56.85714285714286 11.0 56.85714285714286 0  S 68.85714285714286 -16.0 68.85714285714286 0  S 80.85714285714286 15.0 80.85714285714286 0  S 90.0 17.0 90.0 0  M 90.0 0 100 0" stroke="black" fill="transparent"
  transform="translate(68.666667 675.333333) rotate (42.732045 0 0) scale (0.476492 1)"/>
  <path
  d=" M 0 0 10.0 0  C 10.000000 -15.000000 20.000000 15.000000 20.000000 0  S 30.0 10.0 30.0 0  S 40.0 -12.0 40.0 0  S 50.0 10.0 50.0 0  S 60.0 -18.0 60.0 0  S 70.0 17.0 70.0 0  S 80.0 -18.0 80.0 0  S 90.0 14.0 90.0 0  M 90.0 0 100 0" stroke="black" fill="transparent"
  transform="translate(61.333333 877.666667) rotate (-87.924291 0 0) scale (2.024662 1)"/>
  <path
  d=" M 0 0 10.0 0  C 10.000000 -10.000000 23.333333 12.000000 23.333333 0  S 36.66666666666667 15.0 36.66666666666667 0  S 50.66666666666667 -10.0 50.66666666666667 0  S 64.66666666666667 12.0 64.66666666666667 0  S 78.66666666666667 -14.0 78.66666666666667 0  S 90.0 17.0 90.0 0  M 90.0 0 100 0" stroke="black" fill="transparent"
  transform="translate(648.000000 103.666667) rotate (26.694387 0 0) scale (0.660387 1)"/>
  <path
  d=" M 0 0 10.0 0  C 10.000000 -18.000000 20.000000 13.000000 20.000000 0  S 30.0 10.0 30.0 0  S 40.0 -13.0 40.0 0  S 50.0 19.0 50.0 0  S 60.0 -14.0 60.0 0  S 70.0 17.0 70.0 0  S 80.0 -18.0 80.0 0  S 90.0 19.0 90.0 0  M 90.0 0 100 0" stroke="black" fill="transparent"
  transform="translate(707.000000 133.333333) rotate (-40.079384 0 0) scale (0.357227 1)"/>
  <path
  d=" M 0 0 10.0 0  C 10.000000 -12.000000 23.333333 14.000000 23.333333 0  S 36.66666666666667 18.0 36.66666666666667 0  S 50.66666666666667 -17.0 50.66666666666667 0  S 64.66666666666667 17.0 64.66666666666667 0  S 78.66666666666667 -12.0 78.66666666666667 0  S 90.0 18.0 90.0 0  M 90.0 0 100 0" stroke="black" fill="transparent"
  transform="translate(734.333333 110.333333) rotate (-43.898294 0 0) scale (0.490351 1)"/>
  <path
  d=" M 0 0 10.0 0  C 10.000000 -10.000000 26.000000 12.000000 26.000000 0  S 42.0 16.0 42.0 0  S 58.0 -18.0 58.0 0  S 74.0 10.0 74.0 0  S 90.0 16.0 90.0 0  M 90.0 0 100 0" stroke="black" fill="transparent"
  transform="translate(711.000000 73.333333) rotate (2.927348 0 0) scale (0.587433 1)"/>
  <path
  d=" M 0 0 10.0 0  C 10.000000 -13.000000 21.428571 12.000000 21.428571 0  S 32.85714285714286 10.0 32.85714285714286 0  S 44.85714285714286 -15.0 44.85714285714286 0  S 56.85714285714286 14.0 56.85714285714286 0  S 68.85714285714286 -18.0 68.85714285714286 0  S 80.85714285714286 15.0 80.85714285714286 0  S 90.0 10.0 90.0 0  M 90.0 0 100 0" stroke="black" fill="transparent"
  transform="translate(648.000000 103.666667) rotate (-25.709954 0 0) scale (0.699222 1)"/>
  <path
  d=" M 0 0 10.0 0  C 10.000000 -14.000000 21.428571 13.000000 21.428571 0  S 32.85714285714286 10.0 32.85714285714286 0  S 44.85714285714286 -16.0 44.85714285714286 0  S 56.85714285714286 10.0 56.85714285714286 0  S 68.85714285714286 -14.0 68.85714285714286 0  S 80.85714285714286 17.0 80.85714285714286 0  S 90.0 10.0 90.0 0  M 90.0 0 100 0" stroke="black" fill="transparent"
  transform="translate(111.666667 551.000000) rotate (65.245048 0 0) scale (0.660715 1)"/>
  <path
  d=" M 0 0 10.0 0  C 10.000000 -12.000000 26.000000 13.000000 26.000000 0  S 42.0 13.0 42.0 0  S 58.0 -13.0 58.0 0  S 74.0 16.0 74.0 0  S 90.0 16.0 90.0 0  M 90.0 0 100 0" stroke="black" fill="transparent"
  transform="translate(111.666667 551.000000) rotate (-71.565051 0 0) scale (1.033011 1)"/>
  <path
  d=" M 0 0 10.0 0  C 10.000000 -16.000000 21.428571 19.000000 21.428571 0  S 32.85714285714286 19.0 32.85714285714286 0  S 44.85714285714286 -12.0 44.85714285714286 0  S 56.85714285714286 11.0 56.85714285714286 0  S 68.85714285714286 -11.0 68.85714285714286 0  S 80.85714285714286 11.0 80.85714285714286 0  S 90.0 14.0 90.0 0  M 90.0 0 100 0" stroke="black" fill="transparent"
  transform="translate(144.333333 453.000000) rotate (-17.037768 0 0) scale (1.080766 1)"/>
  <path
  d=" M 0 0 10.0 0  C 10.000000 -18.000000 26.000000 18.000000 26.000000 0  S 42.0 19.0 42.0 0  S 58.0 -18.0 58.0 0  S 74.0 11.0 74.0 0  S 90.0 18.0 90.0 0  M 90.0 0 100 0" stroke="black" fill="transparent"
  transform="translate(216.000000 650.000000) rotate (-50.461876 0 0) scale (1.188622 1)"/>
  <path
  d=" M 0 0 10.0 0  C 10.000000 -12.000000 26.000000 14.000000 26.000000 0  S 42.0 14.0 42.0 0  S 58.0 -12.0 58.0 0  S 74.0 17.0 74.0 0  S 90.0 18.0 90.0 0  M 90.0 0 100 0" stroke="black" fill="transparent"
  transform="translate(139.333333 611.000000) rotate (26.962243 0 0) scale (0.860161 1)"/>
  <path
  d=" M 0 0 10.0 0  C 10.000000 -12.000000 20.000000 13.000000 20.000000 0  S 30.0 12.0 30.0 0  S 40.0 -16.0 40.0 0  S 50.0 12.0 50.0 0  S 60.0 -13.0 60.0 0  S 70.0 16.0 70.0 0  S 80.0 -11.0 80.0 0  S 90.0 10.0 90.0 0  M 90.0 0 100 0" stroke="black" fill="transparent"
  transform="translate(934.000000 792.000000) rotate (60.310990 0 0) scale (0.847985 1)"/>
  <path
  d=" M 0 0 10.0 0  C 10.000000 -11.000000 21.428571 18.000000 21.428571 0  S 32.85714285714286 16.0 32.85714285714286 0  S 44.85714285714286 -18.0 44.85714285714286 0  S 56.85714285714286 17.0 56.85714285714286 0  S 68.85714285714286 -14.0 68.85714285714286 0  S 80.85714285714286 12.0 80.85714285714286 0  S 90.0 15.0 90.0 0  M 90.0 0 100 0" stroke="black" fill="transparent"
  transform="translate(226.333333 943.666667) rotate (-49.451174 0 0) scale (0.394814 1)"/>
  <path
  d=" M 0 0 10.0 0  C 10.000000 -14.000000 21.428571 17.000000 21.428571 0  S 32.85714285714286 18.0 32.85714285714286 0  S 44.85714285714286 -11.0 44.85714285714286 0  S 56.85714285714286 11.0 56.85714285714286 0  S 68.85714285714286 -16.0 68.85714285714286 0  S 80.85714285714286 18.0 80.85714285714286 0  S 90.0 18.0 90.0 0  M 90.0 0 100 0" stroke="black" fill="transparent"
  transform="translate(226.333333 943.666667) rotate (21.852842 0 0) scale (0.689549 1)"/>
  <path
  d=" M 0 0 10.0 0  C 10.000000 -10.000000 23.333333 19.000000 23.333333 0  S 36.66666666666667 17.0 36.66666666666667 0  S 50.66666666666667 -14.0 50.66666666666667 0  S 64.66666666666667 12.0 64.66666666666667 0  S 78.66666666666667 -18.0 78.66666666666667 0  S 90.0 10.0 90.0 0  M 90.0 0 100 0" stroke="black" fill="transparent"
  transform="translate(290.333333 969.333333) rotate (-27.201645 0 0) scale (0.670862 1)"/>
  <path
  d=" M 0 0 10.0 0  C 10.000000 -15.000000 26.000000 10.000000 26.000000 0  S 42.0 18.0 42.0 0  S 58.0 -17.0 58.0 0  S 74.0 10.0 74.0 0  S 90.0 15.0 90.0 0  M 90.0 0 100 0" stroke="black" fill="transparent"
  transform="translate(310.666667 908.333333) rotate (37.638922 0 0) scale (0.496711 1)"/>
  <path
  d=" M 0 0 10.0 0  C 10.000000 -18.000000 20.000000 10.000000 20.000000 0  S 30.0 12.0 30.0 0  S 40.0 -10.0 40.0 0  S 50.0 18.0 50.0 0  S 60.0 -10.0 60.0 0  S 70.0 16.0 70.0 0  S 80.0 -11.0 80.0 0  S 90.0 13.0 90.0 0  M 90.0 0 100 0" stroke="black" fill="transparent"
  transform="translate(252.000000 913.666667) rotate (-5.194429 0 0) scale (0.589086 1)"/>
  <path
  d=" M 0 0 10.0 0  C 10.000000 -10.000000 23.333333 10.000000 23.333333 0  S 36.66666666666667 16.0 36.66666666666667 0  S 50.66666666666667 -16.0 50.66666666666667 0  S 64.66666666666667 13.0 64.66666666666667 0  S 78.66666666666667 -18.0 78.66666666666667 0  S 90.0 13.0 90.0 0  M 90.0 0 100 0" stroke="black" fill="transparent"
  transform="translate(946.000000 906.666667) rotate (-53.806793 0 0) scale (0.508035 1)"/>
  <path
  d=" M 0 0 10.0 0  C 10.000000 -10.000000 23.333333 12.000000 23.333333 0  S 36.66666666666667 18.0 36.66666666666667 0  S 50.66666666666667 -19.0 50.66666666666667 0  S 64.66666666666667 19.0 64.66666666666667 0  S 78.66666666666667 -19.0 78.66666666666667 0  S 90.0 14.0 90.0 0  M 90.0 0 100 0" stroke="black" fill="transparent"
  transform="translate(904.000000 833.000000) rotate (-53.806793 0 0) scale (0.508035 1)"/>
  <path
  d=" M 0 0 10.0 0  C 10.000000 -16.000000 20.000000 12.000000 20.000000 0  S 30.0 13.0 30.0 0  S 40.0 -12.0 40.0 0  S 50.0 18.0 50.0 0  S 60.0 -12.0 60.0 0  S 70.0 10.0 70.0 0  S 80.0 -13.0 80.0 0  S 90.0 14.0 90.0 0  M 90.0 0 100 0" stroke="black" fill="transparent"
  transform="translate(912.333333 637.333333) rotate (-45.000000 0 0) scale (0.532687 1)"/>
  <path
  d=" M 0 0 10.0 0  C 10.000000 -14.000000 23.333333 19.000000 23.333333 0  S 36.66666666666667 14.0 36.66666666666667 0  S 50.66666666666667 -15.0 50.66666666666667 0  S 64.66666666666667 13.0 64.66666666666667 0  S 78.66666666666667 -17.0 78.66666666666667 0  S 90.0 13.0 90.0 0  M 90.0 0 100 0" stroke="black" fill="transparent"
  transform="translate(942.333333 529.000000) rotate (83.808166 0 0) scale (0.710813 1)"/>
  <path
  d=" M 0 0 10.0 0  C 10.000000 -15.000000 23.333333 13.000000 23.333333 0  S 36.66666666666667 18.0 36.66666666666667 0  S 50.66666666666667 -14.0 50.66666666666667 0  S 64.66666666666667 10.0 64.66666666666667 0  S 78.66666666666667 -19.0 78.66666666666667 0  S 90.0 15.0 90.0 0  M 90.0 0 100 0" stroke="black" fill="transparent"
  transform="translate(904.000000 498.666667) rotate (38.354722 0 0) scale (0.488831 1)"/>
  <path
  d=" M 0 0 10.0 0  C 10.000000 -17.000000 23.333333 12.000000 23.333333 0  S 36.66666666666667 18.0 36.66666666666667 0  S 50.66666666666667 -12.0 50.66666666666667 0  S 64.66666666666667 10.0 64.66666666666667 0  S 78.66666666666667 -10.0 78.66666666666667 0  S 90.0 17.0 90.0 0  M 90.0 0 100 0" stroke="black" fill="transparent"
  transform="translate(811.666667 532.333333) rotate (65.847081 0 0) scale (0.814651 1)"/>
  <path
  d=" M 0 0 10.0 0  C 10.000000 -16.000000 23.333333 18.000000 23.333333 0  S 36.66666666666667 15.0 36.66666666666667 0  S 50.66666666666667 -13.0 50.66666666666667 0  S 64.66666666666667 15.0 64.66666666666667 0  S 78.66666666666667 -15.0 78.66666666666667 0  S 90.0 19.0 90.0 0  M 90.0 0 100 0" stroke="black" fill="transparent"
  transform="translate(845.000000 606.666667) rotate (24.486681 0 0) scale (0.739880 1)"/>
  <path
  d=" M 0 0 10.0 0  C 10.000000 -11.000000 21.428571 15.000000 21.428571 0  S 32.85714285714286 10.0 32.85714285714286 0  S 44.85714285714286 -13.0 44.85714285714286 0  S 56.85714285714286 19.0 56.85714285714286 0  S 68.85714285714286 -18.0 68.85714285714286 0  S 80.85714285714286 14.0 80.85714285714286 0  S 90.0 16.0 90.0 0  M 90.0 0 100 0" stroke="black" fill="transparent"
  transform="translate(707.000000 133.333333) rotate (69.187354 0 0) scale (0.609790 1)"/>
  <path
  d=" M 0 0 10.0 0  C 10.000000 -10.000000 26.000000 11.000000 26.000000 0  S 42.0 16.0 42.0 0  S 58.0 -11.0 58.0 0  S 74.0 13.0 74.0 0  S 90.0 14.0 90.0 0  M 90.0 0 100 0" stroke="black" fill="transparent"
  transform="translate(699.333333 227.333333) rotate (-51.592873 0 0) scale (0.472170 1)"/>
  <path
  d=" M 0 0 10.0 0  C 10.000000 -17.000000 20.000000 19.000000 20.000000 0  S 30.0 17.0 30.0 0  S 40.0 -19.0 40.0 0  S 50.0 18.0 50.0 0  S 60.0 -12.0 60.0 0  S 70.0 10.0 70.0 0  S 80.0 -12.0 80.0 0  S 90.0 17.0 90.0 0  M 90.0 0 100 0" stroke="black" fill="transparent"
  transform="translate(631.666667 198.000000) rotate (23.436613 0 0) scale (0.737511 1)"/>
  <path
  d=" M 0 0 10.0 0  C 10.000000 -16.000000 21.428571 12.000000 21.428571 0  S 32.85714285714286 16.0 32.85714285714286 0  S 44.85714285714286 -14.0 44.85714285714286 0  S 56.85714285714286 10.0 56.85714285714286 0  S 68.85714285714286 -10.0 68.85714285714286 0  S 80.85714285714286 19.0 80.85714285714286 0  S 90.0 13.0 90.0 0  M 90.0 0 100 0" stroke="black" fill="transparent"
  transform="translate(602.000000 131.333333) rotate (66.010936 0 0) scale (0.729696 1)"/>
  <path
  d=" M 0 0 10.0 0  C 10.000000 -15.000000 23.333333 13.000000 23.333333 0  S 36.66666666666667 14.0 36.66666666666667 0  S 50.66666666666667 -11.0 50.66666666666667 0  S 64.66666666666667 19.0 64.66666666666667 0  S 78.66666666666667 -10.0 78.66666666666667 0  S 90.0 17.0 90.0 0  M 90.0 0 100 0" stroke="black" fill="transparent"
  transform="translate(602.000000 131.333333) rotate (-31.024774 0 0) scale (0.536791 1)"/>
  <path
  d=" M 0 0 10.0 0  C 10.000000 -13.000000 20.000000 13.000000 20.000000 0  S 30.0 10.0 30.0 0  S 40.0 -14.0 40.0 0  S 50.0 13.0 50.0 0  S 60.0 -18.0 60.0 0  S 70.0 13.0 70.0 0  S 80.0 -10.0 80.0 0  S 90.0 10.0 90.0 0  M 90.0 0 100 0" stroke="black" fill="transparent"
  transform="translate(494.000000 745.000000) rotate (-49.361573 0 0) scale (0.557873 1)"/>
  <path
  d=" M 0 0 10.0 0  C 10.000000 -15.000000 26.000000 11.000000 26.000000 0  S 42.0 18.0 42.0 0  S 58.0 -15.0 58.0 0  S 74.0 18.0 74.0 0  S 90.0 14.0 90.0 0  M 90.0 0 100 0" stroke="black" fill="transparent"
  transform="translate(473.333333 582.000000) rotate (64.715088 0 0) scale (1.334520 1)"/>
  <path
  d=" M 0 0 10.0 0  C 10.000000 -15.000000 20.000000 15.000000 20.000000 0  S 30.0 17.0 30.0 0  S 40.0 -11.0 40.0 0  S 50.0 12.0 50.0 0  S 60.0 -10.0 60.0 0  S 70.0 11.0 70.0 0  S 80.0 -14.0 80.0 0  S 90.0 19.0 90.0 0  M 90.0 0 100 0" stroke="black" fill="transparent"
  transform="translate(414.666667 597.666667) rotate (81.402361 0 0) scale (1.270949 1)"/>
  <path
  d=" M 0 0 10.0 0  C 10.000000 -19.000000 23.333333 16.000000 23.333333 0  S 36.66666666666667 12.0 36.66666666666667 0  S 50.66666666666667 -16.0 50.66666666666667 0  S 64.66666666666667 19.0 64.66666666666667 0  S 78.66666666666667 -11.0 78.66666666666667 0  S 90.0 17.0 90.0 0  M 90.0 0 100 0" stroke="black" fill="transparent"
  transform="translate(911.333333 213.666667) rotate (-66.595310 0 0) scale (0.730068 1)"/>
  <path
  d=" M 0 0 10.0 0  C 10.000000 -19.000000 26.000000 19.000000 26.000000 0  S 42.0 13.0 42.0 0  S 58.0 -19.0 58.0 0  S 74.0 17.0 74.0 0  S 90.0 14.0 90.0 0  M 90.0 0 100 0" stroke="black" fill="transparent"
  transform="translate(940.333333 146.666667) rotate (81.924104 0 0) scale (0.996550 1)"/>
  <path
  d=" M 0 0 10.0 0  C 10.000000 -11.000000 23.333333 16.000000 23.333333 0  S 36.66666666666667 11.0 36.66666666666667 0  S 50.66666666666667 -12.0 50.66666666666667 0  S 64.66666666666667 15.0 64.66666666666667 0  S 78.66666666666667 -12.0 78.66666666666667 0  S 90.0 19.0 90.0 0  M 90.0 0 100 0" stroke="black" fill="transparent"
  transform="translate(102.333333 812.333333) rotate (44.351396 0 0) scale (0.624651 1)"/>
  <path
  d=" M 0 0 10.0 0  C 10.000000 -16.000000 21.428571 12.000000 21.428571 0  S 32.85714285714286 16.0 32.85714285714286 0  S 44.85714285714286 -19.0 44.85714285714286 0  S 56.85714285714286 11.0 56.85714285714286 0  S 68.85714285714286 -15.0 68.85714285714286 0  S 80.85714285714286 10.0 80.85714285714286 0  S 90.0 19.0 90.0 0  M 90.0 0 100 0" stroke="black" fill="transparent"
  transform="translate(137.000000 745.000000) rotate (-1.709814 0 0) scale (0.670298 1)"/>
  <path
  d=" M 0 0 10.0 0  C 10.000000 -11.000000 20.000000 17.000000 20.000000 0  S 30.0 16.0 30.0 0  S 40.0 -12.0 40.0 0  S 50.0 15.0 50.0 0  S 60.0 -13.0 60.0 0  S 70.0 15.0 70.0 0  S 80.0 -14.0 80.0 0  S 90.0 16.0 90.0 0  M 90.0 0 100 0" stroke="black" fill="transparent"
  transform="translate(204.000000 743.000000) rotate (64.772351 0 0) scale (0.766435 1)"/>
  <path
  d=" M 0 0 10.0 0  C 10.000000 -15.000000 21.428571 16.000000 21.428571 0  S 32.85714285714286 14.0 32.85714285714286 0  S 44.85714285714286 -11.0 44.85714285714286 0  S 56.85714285714286 17.0 56.85714285714286 0  S 68.85714285714286 -11.0 68.85714285714286 0  S 80.85714285714286 11.0 80.85714285714286 0  S 90.0 13.0 90.0 0  M 90.0 0 100 0" stroke="black" fill="transparent"
  transform="translate(214.333333 858.000000) rotate (-63.939004 0 0) scale (0.508352 1)"/>
  <path
  d=" M 0 0 10.0 0  C 10.000000 -15.000000 20.000000 12.000000 20.000000 0  S 30.0 15.0 30.0 0  S 40.0 -17.0 40.0 0  S 50.0 18.0 50.0 0  S 60.0 -15.0 60.0 0  S 70.0 12.0 70.0 0  S 80.0 -10.0 80.0 0  S 90.0 16.0 90.0 0  M 90.0 0 100 0" stroke="black" fill="transparent"
  transform="translate(147.000000 856.000000) rotate (1.701355 0 0) scale (0.673630 1)"/>
  <path
  d=" M 0 0 10.0 0  C 10.000000 -11.000000 26.000000 13.000000 26.000000 0  S 42.0 14.0 42.0 0  S 58.0 -14.0 58.0 0  S 74.0 13.0 74.0 0  S 90.0 18.0 90.0 0  M 90.0 0 100 0" stroke="black" fill="transparent"
  transform="translate(395.333333 133.333333) rotate (85.508647 0 0) scale (1.106732 1)"/>
  <path
  d=" M 0 0 10.0 0  C 10.000000 -14.000000 21.428571 10.000000 21.428571 0  S 32.85714285714286 13.0 32.85714285714286 0  S 44.85714285714286 -10.0 44.85714285714286 0  S 56.85714285714286 13.0 56.85714285714286 0  S 68.85714285714286 -19.0 68.85714285714286 0  S 80.85714285714286 16.0 80.85714285714286 0  S 90.0 17.0 90.0 0  M 90.0 0 100 0" stroke="black" fill="transparent"
  transform="translate(395.333333 133.333333) rotate (-18.361774 0 0) scale (0.825355 1)"/>
  <path
  d=" M 0 0 10.0 0  C 10.000000 -17.000000 26.000000 16.000000 26.000000 0  S 42.0 16.0 42.0 0  S 58.0 -17.0 58.0 0  S 74.0 18.0 74.0 0  S 90.0 11.0 90.0 0  M 90.0 0 100 0" stroke="black" fill="transparent"
  transform="translate(473.666667 107.333333) rotate (1.390401 0 0) scale (0.686869 1)"/>
  <path
  d=" M 0 0 10.0 0  C 10.000000 -13.000000 20.000000 16.000000 20.000000 0  S 30.0 17.0 30.0 0  S 40.0 -15.0 40.0 0  S 50.0 14.0 50.0 0  S 60.0 -12.0 60.0 0  S 70.0 13.0 70.0 0  S 80.0 -16.0 80.0 0  S 90.0 11.0 90.0 0  M 90.0 0 100 0" stroke="black" fill="transparent"
  transform="translate(542.333333 109.000000) rotate (20.520959 0 0) scale (0.637094 1)"/>
  <path
  d=" M 0 0 10.0 0  C 10.000000 -18.000000 21.428571 15.000000 21.428571 0  S 32.85714285714286 13.0 32.85714285714286 0  S 44.85714285714286 -15.0 44.85714285714286 0  S 56.85714285714286 16.0 56.85714285714286 0  S 68.85714285714286 -12.0 68.85714285714286 0  S 80.85714285714286 14.0 80.85714285714286 0  S 90.0 14.0 90.0 0  M 90.0 0 100 0" stroke="black" fill="transparent"
  transform="translate(540.333333 280.666667) rotate (-42.148544 0 0) scale (1.231891 1)"/>
  <path
  d=" M 0 0 10.0 0  C 10.000000 -18.000000 23.333333 16.000000 23.333333 0  S 36.66666666666667 19.0 36.66666666666667 0  S 50.66666666666667 -18.0 50.66666666666667 0  S 64.66666666666667 18.0 64.66666666666667 0  S 78.66666666666667 -10.0 78.66666666666667 0  S 90.0 17.0 90.0 0  M 90.0 0 100 0" stroke="black" fill="transparent"
  transform="translate(942.333333 529.000000) rotate (-67.633655 0 0) scale (0.753341 1)"/>
  <path
  d=" M 0 0 10.0 0  C 10.000000 -14.000000 26.000000 17.000000 26.000000 0  S 42.0 14.0 42.0 0  S 58.0 -16.0 58.0 0  S 74.0 18.0 74.0 0  S 90.0 18.0 90.0 0  M 90.0 0 100 0" stroke="black" fill="transparent"
  transform="translate(950.000000 599.666667) rotate (62.487997 0 0) scale (0.721603 1)"/>
  <path
  d=" M 0 0 10.0 0  C 10.000000 -11.000000 20.000000 12.000000 20.000000 0  S 30.0 12.0 30.0 0  S 40.0 -16.0 40.0 0  S 50.0 12.0 50.0 0  S 60.0 -14.0 60.0 0  S 70.0 18.0 70.0 0  S 80.0 -10.0 80.0 0  S 90.0 10.0 90.0 0  M 90.0 0 100 0" stroke="black" fill="transparent"
  transform="translate(971.000000 459.333333) rotate (86.545881 0 0) scale (2.047052 1)"/>
  <path
  d=" M 0 0 10.0 0  C 10.000000 -17.000000 26.000000 10.000000 26.000000 0  S 42.0 15.0 42.0 0  S 58.0 -12.0 58.0 0  S 74.0 11.0 74.0 0  S 90.0 10.0 90.0 0  M 90.0 0 100 0" stroke="black" fill="transparent"
  transform="translate(104.000000 313.000000) rotate (-64.375853 0 0) scale (0.817020 1)"/>
  <path
  d=" M 0 0 10.0 0  C 10.000000 -19.000000 21.428571 19.000000 21.428571 0  S 32.85714285714286 14.0 32.85714285714286 0  S 44.85714285714286 -14.0 44.85714285714286 0  S 56.85714285714286 14.0 56.85714285714286 0  S 68.85714285714286 -14.0 68.85714285714286 0  S 80.85714285714286 14.0 80.85714285714286 0  S 90.0 15.0 90.0 0  M 90.0 0 100 0" stroke="black" fill="transparent"
  transform="translate(112.000000 202.666667) rotate (53.297145 0 0) scale (0.457335 1)"/>
  <path
  d=" M 0 0 10.0 0  C 10.000000 -19.000000 21.428571 12.000000 21.428571 0  S 32.85714285714286 12.0 32.85714285714286 0  S 44.85714285714286 -13.0 44.85714285714286 0  S 56.85714285714286 19.0 56.85714285714286 0  S 68.85714285714286 -18.0 68.85714285714286 0  S 80.85714285714286 10.0 80.85714285714286 0  S 90.0 14.0 90.0 0  M 90.0 0 100 0" stroke="black" fill="transparent"
  transform="translate(76.666667 276.333333) rotate (-64.375853 0 0) scale (0.817020 1)"/>
  <path
  d=" M 0 0 10.0 0  C 10.000000 -12.000000 26.000000 10.000000 26.000000 0  S 42.0 12.0 42.0 0  S 58.0 -17.0 58.0 0  S 74.0 11.0 74.0 0  S 90.0 17.0 90.0 0  M 90.0 0 100 0" stroke="black" fill="transparent"
  transform="translate(76.666667 276.333333) rotate (53.297145 0 0) scale (0.457335 1)"/>
  <path
  d=" M 0 0 10.0 0  C 10.000000 -16.000000 20.000000 12.000000 20.000000 0  S 30.0 12.0 30.0 0  S 40.0 -15.0 40.0 0  S 50.0 13.0 50.0 0  S 60.0 -19.0 60.0 0  S 70.0 11.0 70.0 0  S 80.0 -16.0 80.0 0  S 90.0 16.0 90.0 0  M 90.0 0 100 0" stroke="black" fill="transparent"
  transform="translate(105.333333 645.000000) rotate (-45.000000 0 0) scale (0.480833 1)"/>
  <path
  d=" M 0 0 10.0 0  C 10.000000 -14.000000 26.000000 12.000000 26.000000 0  S 42.0 16.0 42.0 0  S 58.0 -16.0 58.0 0  S 74.0 16.0 74.0 0  S 90.0 15.0 90.0 0  M 90.0 0 100 0" stroke="black" fill="transparent"
  transform="translate(68.666667 675.333333) rotate (-39.600027 0 0) scale (0.475873 1)"/>
  <path
  d=" M 0 0 10.0 0  C 10.000000 -18.000000 20.000000 13.000000 20.000000 0  S 30.0 11.0 30.0 0  S 40.0 -10.0 40.0 0  S 50.0 17.0 50.0 0  S 60.0 -16.0 60.0 0  S 70.0 16.0 70.0 0  S 80.0 -14.0 80.0 0  S 90.0 16.0 90.0 0  M 90.0 0 100 0" stroke="black" fill="transparent"
  transform="translate(68.666667 675.333333) rotate (-42.314019 0 0) scale (0.955644 1)"/>
  <path
  d=" M 0 0 10.0 0  C 10.000000 -15.000000 21.428571 11.000000 21.428571 0  S 32.85714285714286 16.0 32.85714285714286 0  S 44.85714285714286 -19.0 44.85714285714286 0  S 56.85714285714286 16.0 56.85714285714286 0  S 68.85714285714286 -17.0 68.85714285714286 0  S 80.85714285714286 17.0 80.85714285714286 0  S 90.0 15.0 90.0 0  M 90.0 0 100 0" stroke="black" fill="transparent"
  transform="translate(640.666667 846.666667) rotate (3.760511 0 0) scale (0.711532 1)"/>
  <path
  d=" M 0 0 10.0 0  C 10.000000 -12.000000 23.333333 10.000000 23.333333 0  S 36.66666666666667 16.0 36.66666666666667 0  S 50.66666666666667 -11.0 50.66666666666667 0  S 64.66666666666667 16.0 64.66666666666667 0  S 78.66666666666667 -11.0 78.66666666666667 0  S 90.0 14.0 90.0 0  M 90.0 0 100 0" stroke="black" fill="transparent"
  transform="translate(599.000000 899.666667) rotate (-51.826862 0 0) scale (0.674174 1)"/>
  <path
  d=" M 0 0 10.0 0  C 10.000000 -17.000000 21.428571 15.000000 21.428571 0  S 32.85714285714286 13.0 32.85714285714286 0  S 44.85714285714286 -16.0 44.85714285714286 0  S 56.85714285714286 18.0 56.85714285714286 0  S 68.85714285714286 -18.0 68.85714285714286 0  S 80.85714285714286 16.0 80.85714285714286 0  S 90.0 11.0 90.0 0  M 90.0 0 100 0" stroke="black" fill="transparent"
  transform="translate(637.333333 931.000000) rotate (-18.729526 0 0) scale (0.820095 1)"/>
  <path
  d=" M 0 0 10.0 0  C 10.000000 -11.000000 23.333333 13.000000 23.333333 0  S 36.66666666666667 14.0 36.66666666666667 0  S 50.66666666666667 -15.0 50.66666666666667 0  S 64.66666666666667 11.0 64.66666666666667 0  S 78.66666666666667 -10.0 78.66666666666667 0  S 90.0 15.0 90.0 0  M 90.0 0 100 0" stroke="black" fill="transparent"
  transform="translate(711.666667 851.333333) rotate (86.423666 0 0) scale (0.534374 1)"/>
  <path
  d=" M 0 0 10.0 0  C 10.000000 -16.000000 20.000000 12.000000 20.000000 0  S 30.0 11.0 30.0 0  S 40.0 -14.0 40.0 0  S 50.0 16.0 50.0 0  S 60.0 -18.0 60.0 0  S 70.0 17.0 70.0 0  S 80.0 -10.0 80.0 0  S 90.0 12.0 90.0 0  M 90.0 0 100 0" stroke="black" fill="transparent"
  transform="translate(296.666667 801.000000) rotate (-81.827235 0 0) scale (0.633096 1)"/>
  <path
  d=" M 0 0 10.0 0  C 10.000000 -18.000000 23.333333 17.000000 23.333333 0  S 36.66666666666667 19.0 36.66666666666667 0  S 50.66666666666667 -10.0 50.66666666666667 0  S 64.66666666666667 11.0 64.66666666666667 0  S 78.66666666666667 -17.0 78.66666666666667 0  S 90.0 15.0 90.0 0  M 90.0 0 100 0" stroke="black" fill="transparent"
  transform="translate(236.666667 812.333333) rotate (-10.696511 0 0) scale (0.610610 1)"/>
  <path
  d=" M 0 0 10.0 0  C 10.000000 -19.000000 21.428571 19.000000 21.428571 0  S 32.85714285714286 11.0 32.85714285714286 0  S 44.85714285714286 -13.0 44.85714285714286 0  S 56.85714285714286 18.0 56.85714285714286 0  S 68.85714285714286 -17.0 68.85714285714286 0  S 80.85714285714286 17.0 80.85714285714286 0  S 90.0 17.0 90.0 0  M 90.0 0 100 0" stroke="black" fill="transparent"
  transform="translate(204.000000 743.000000) rotate (-38.829825 0 0) scale (0.526308 1)"/>
  <path
  d=" M 0 0 10.0 0  C 10.000000 -10.000000 26.000000 16.000000 26.000000 0  S 42.0 18.0 42.0 0  S 58.0 -16.0 58.0 0  S 74.0 10.0 74.0 0  S 90.0 16.0 90.0 0  M 90.0 0 100 0" stroke="black" fill="transparent"
  transform="translate(245.000000 710.000000) rotate (25.034125 0 0) scale (0.669569 1)"/>
  <path
  d=" M 0 0 10.0 0  C 10.000000 -10.000000 26.000000 19.000000 26.000000 0  S 42.0 10.0 42.0 0  S 58.0 -11.0 58.0 0  S 74.0 11.0 74.0 0  S 90.0 11.0 90.0 0  M 90.0 0 100 0" stroke="black" fill="transparent"
  transform="translate(744.000000 744.666667) rotate (-31.087505 0 0) scale (0.794040 1)"/>
  <path
  d=" M 0 0 10.0 0  C 10.000000 -13.000000 21.428571 11.000000 21.428571 0  S 32.85714285714286 10.0 32.85714285714286 0  S 44.85714285714286 -18.0 44.85714285714286 0  S 56.85714285714286 18.0 56.85714285714286 0  S 68.85714285714286 -15.0 68.85714285714286 0  S 80.85714285714286 13.0 80.85714285714286 0  S 90.0 12.0 90.0 0  M 90.0 0 100 0" stroke="black" fill="transparent"
  transform="translate(744.000000 744.666667) rotate (80.346214 0 0) scale (0.655956 1)"/>
  <path
  d=" M 0 0 10.0 0  C 10.000000 -13.000000 26.000000 18.000000 26.000000 0  S 42.0 18.0 42.0 0  S 58.0 -17.0 58.0 0  S 74.0 16.0 74.0 0  S 90.0 15.0 90.0 0  M 90.0 0 100 0" stroke="black" fill="transparent"
  transform="translate(755.000000 809.333333) rotate (-12.596573 0 0) scale (0.611383 1)"/>
  <path
  d=" M 0 0 10.0 0  C 10.000000 -13.000000 20.000000 14.000000 20.000000 0  S 30.0 13.0 30.0 0  S 40.0 -17.0 40.0 0  S 50.0 18.0 50.0 0  S 60.0 -14.0 60.0 0  S 70.0 19.0 70.0 0  S 80.0 -12.0 80.0 0  S 90.0 18.0 90.0 0  M 90.0 0 100 0" stroke="black" fill="transparent"
  transform="translate(814.666667 796.000000) rotate (-64.690233 0 0) scale (0.748517 1)"/>
  <path
  d=" M 0 0 10.0 0  C 10.000000 -17.000000 21.428571 18.000000 21.428571 0  S 32.85714285714286 13.0 32.85714285714286 0  S 44.85714285714286 -14.0 44.85714285714286 0  S 56.85714285714286 16.0 56.85714285714286 0  S 68.85714285714286 -13.0 68.85714285714286 0  S 80.85714285714286 19.0 80.85714285714286 0  S 90.0 14.0 90.0 0  M 90.0 0 100 0" stroke="black" fill="transparent"
  transform="translate(812.000000 703.666667) rotate (35.433314 0 0) scale (0.425467 1)"/>
  <path
  d=" M 0 0 10.0 0  C 10.000000 -14.000000 26.000000 10.000000 26.000000 0  S 42.0 10.0 42.0 0  S 58.0 -17.0 58.0 0  S 74.0 12.0 74.0 0  S 90.0 16.0 90.0 0  M 90.0 0 100 0" stroke="black" fill="transparent"
  transform="translate(350.000000 938.666667) rotate (-2.663001 0 0) scale (0.573953 1)"/>
  <path
  d=" M 0 0 10.0 0  C 10.000000 -13.000000 21.428571 14.000000 21.428571 0  S 32.85714285714286 11.0 32.85714285714286 0  S 44.85714285714286 -11.0 44.85714285714286 0  S 56.85714285714286 12.0 56.85714285714286 0  S 68.85714285714286 -11.0 68.85714285714286 0  S 80.85714285714286 11.0 80.85714285714286 0  S 90.0 18.0 90.0 0  M 90.0 0 100 0" stroke="black" fill="transparent"
  transform="translate(290.333333 969.333333) rotate (-15.902268 0 0) scale (1.216557 1)"/>
  <path
  d=" M 0 0 10.0 0  C 10.000000 -13.000000 20.000000 13.000000 20.000000 0  S 30.0 16.0 30.0 0  S 40.0 -12.0 40.0 0  S 50.0 12.0 50.0 0  S 60.0 -19.0 60.0 0  S 70.0 17.0 70.0 0  S 80.0 -18.0 80.0 0  S 90.0 14.0 90.0 0  M 90.0 0 100 0" stroke="black" fill="transparent"
  transform="translate(214.333333 858.000000) rotate (55.915882 0 0) scale (0.672128 1)"/>
  <path
  d=" M 0 0 10.0 0  C 10.000000 -10.000000 23.333333 16.000000 23.333333 0  S 36.66666666666667 13.0 36.66666666666667 0  S 50.66666666666667 -19.0 50.66666666666667 0  S 64.66666666666667 19.0 64.66666666666667 0  S 78.66666666666667 -12.0 78.66666666666667 0  S 90.0 18.0 90.0 0  M 90.0 0 100 0" stroke="black" fill="transparent"
  transform="translate(296.666667 801.000000) rotate (47.986637 0 0) scale (0.542853 1)"/>
  <path
  d=" M 0 0 10.0 0  C 10.000000 -17.000000 26.000000 19.000000 26.000000 0  S 42.0 19.0 42.0 0  S 58.0 -19.0 58.0 0  S 74.0 16.0 74.0 0  S 90.0 12.0 90.0 0  M 90.0 0 100 0" stroke="black" fill="transparent"
  transform="translate(310.666667 908.333333) rotate (-71.565051 0 0) scale (0.706242 1)"/>
  <path
  d=" M 0 0 10.0 0  C 10.000000 -15.000000 23.333333 15.000000 23.333333 0  S 36.66666666666667 12.0 36.66666666666667 0  S 50.66666666666667 -17.0 50.66666666666667 0  S 64.66666666666667 12.0 64.66666666666667 0  S 78.66666666666667 -15.0 78.66666666666667 0  S 90.0 14.0 90.0 0  M 90.0 0 100 0" stroke="black" fill="transparent"
  transform="translate(102.333333 388.000000) rotate (57.131321 0 0) scale (0.773886 1)"/>
  <path
  d=" M 0 0 10.0 0  C 10.000000 -17.000000 23.333333 16.000000 23.333333 0  S 36.66666666666667 18.0 36.66666666666667 0  S 50.66666666666667 -19.0 50.66666666666667 0  S 64.66666666666667 14.0 64.66666666666667 0  S 78.66666666666667 -17.0 78.66666666666667 0  S 90.0 11.0 90.0 0  M 90.0 0 100 0" stroke="black" fill="transparent"
  transform="translate(69.666667 486.000000) rotate (57.131321 0 0) scale (0.773886 1)"/>
  <path
  d=" M 0 0 10.0 0  C 10.000000 -17.000000 20.000000 16.000000 20.000000 0  S 30.0 13.0 30.0 0  S 40.0 -15.0 40.0 0  S 50.0 18.0 50.0 0  S 60.0 -14.0 60.0 0  S 70.0 10.0 70.0 0  S 80.0 -15.0 80.0 0  S 90.0 11.0 90.0 0  M 90.0 0 100 0" stroke="black" fill="transparent"
  transform="translate(69.666667 486.000000) rotate (-71.565051 0 0) scale (1.033011 1)"/>
  <path
  d=" M 0 0 10.0 0  C 10.000000 -19.000000 20.000000 15.000000 20.000000 0  S 30.0 14.0 30.0 0  S 40.0 -11.0 40.0 0  S 50.0 16.0 50.0 0  S 60.0 -13.0 60.0 0  S 70.0 11.0 70.0 0  S 80.0 -15.0 80.0 0  S 90.0 18.0 90.0 0  M 90.0 0 100 0" stroke="black" fill="transparent"
  transform="translate(305.666667 738.333333) rotate (-26.565051 0 0) scale (0.469574 1)"/>
  <path
  d=" M 0 0 10.0 0  C 10.000000 -14.000000 26.000000 10.000000 26.000000 0  S 42.0 11.0 42.0 0  S 58.0 -19.0 58.0 0  S 74.0 19.0 74.0 0  S 90.0 18.0 90.0 0  M 90.0 0 100 0" stroke="black" fill="transparent"
  transform="translate(347.666667 717.333333) rotate (-82.874984 0 0) scale (1.209339 1)"/>
  <path
  d=" M 0 0 10.0 0  C 10.000000 -14.000000 20.000000 16.000000 20.000000 0  S 30.0 18.0 30.0 0  S 40.0 -19.0 40.0 0  S 50.0 16.0 50.0 0  S 60.0 -17.0 60.0 0  S 70.0 12.0 70.0 0  S 80.0 -14.0 80.0 0  S 90.0 14.0 90.0 0  M 90.0 0 100 0" stroke="black" fill="transparent"
  transform="translate(216.000000 650.000000) rotate (64.203974 0 0) scale (0.666408 1)"/>
  <path
  d=" M 0 0 10.0 0  C 10.000000 -18.000000 20.000000 17.000000 20.000000 0  S 30.0 11.0 30.0 0  S 40.0 -15.0 40.0 0  S 50.0 19.0 50.0 0  S 60.0 -16.0 60.0 0  S 70.0 13.0 70.0 0  S 80.0 -16.0 80.0 0  S 90.0 19.0 90.0 0  M 90.0 0 100 0" stroke="black" fill="transparent"
  transform="translate(194.333333 203.666667) rotate (44.162752 0 0) scale (1.129134 1)"/>
  <path
  d=" M 0 0 10.0 0  C 10.000000 -18.000000 26.000000 10.000000 26.000000 0  S 42.0 10.0 42.0 0  S 58.0 -19.0 58.0 0  S 74.0 18.0 74.0 0  S 90.0 17.0 90.0 0  M 90.0 0 100 0" stroke="black" fill="transparent"
  transform="translate(102.333333 388.000000) rotate (-88.726970 0 0) scale (0.750185 1)"/>
  <path
  d=" M 0 0 10.0 0  C 10.000000 -11.000000 21.428571 16.000000 21.428571 0  S 32.85714285714286 12.0 32.85714285714286 0  S 44.85714285714286 -16.0 44.85714285714286 0  S 56.85714285714286 13.0 56.85714285714286 0  S 68.85714285714286 -16.0 68.85714285714286 0  S 80.85714285714286 19.0 80.85714285714286 0  S 90.0 19.0 90.0 0  M 90.0 0 100 0" stroke="black" fill="transparent"
  transform="translate(139.333333 239.333333) rotate (-32.962798 0 0) scale (0.655524 1)"/>
  <path
  d=" M 0 0 10.0 0  C 10.000000 -12.000000 23.333333 18.000000 23.333333 0  S 36.66666666666667 17.0 36.66666666666667 0  S 50.66666666666667 -14.0 50.66666666666667 0  S 64.66666666666667 17.0 64.66666666666667 0  S 78.66666666666667 -16.0 78.66666666666667 0  S 90.0 19.0 90.0 0  M 90.0 0 100 0" stroke="black" fill="transparent"
  transform="translate(103.666667 707.666667) rotate (-88.476535 0 0) scale (0.626888 1)"/>
  <path
  d=" M 0 0 10.0 0  C 10.000000 -11.000000 20.000000 13.000000 20.000000 0  S 30.0 13.0 30.0 0  S 40.0 -15.0 40.0 0  S 50.0 12.0 50.0 0  S 60.0 -11.0 60.0 0  S 70.0 15.0 70.0 0  S 80.0 -19.0 80.0 0  S 90.0 16.0 90.0 0  M 90.0 0 100 0" stroke="black" fill="transparent"
  transform="translate(945.666667 701.333333) rotate (-45.000000 0 0) scale (0.532687 1)"/>
  <path
  d=" M 0 0 10.0 0  C 10.000000 -17.000000 26.000000 16.000000 26.000000 0  S 42.0 13.0 42.0 0  S 58.0 -11.0 58.0 0  S 74.0 16.0 74.0 0  S 90.0 16.0 90.0 0  M 90.0 0 100 0" stroke="black" fill="transparent"
  transform="translate(912.333333 637.333333) rotate (62.487997 0 0) scale (0.721603 1)"/>
  <path
  d=" M 0 0 10.0 0  C 10.000000 -12.000000 23.333333 12.000000 23.333333 0  S 36.66666666666667 19.0 36.66666666666667 0  S 50.66666666666667 -13.0 50.66666666666667 0  S 64.66666666666667 19.0 64.66666666666667 0  S 78.66666666666667 -12.0 78.66666666666667 0  S 90.0 15.0 90.0 0  M 90.0 0 100 0" stroke="black" fill="transparent"
  transform="translate(347.666667 717.333333) rotate (27.281211 0 0) scale (0.596331 1)"/>
  <path
  d=" M 0 0 10.0 0  C 10.000000 -12.000000 23.333333 17.000000 23.333333 0  S 36.66666666666667 15.0 36.66666666666667 0  S 50.66666666666667 -13.0 50.66666666666667 0  S 64.66666666666667 19.0 64.66666666666667 0  S 78.66666666666667 -13.0 78.66666666666667 0  S 90.0 17.0 90.0 0  M 90.0 0 100 0" stroke="black" fill="transparent"
  transform="translate(407.333333 936.000000) rotate (-44.652757 0 0) scale (0.388916 1)"/>
  <path
  d=" M 0 0 10.0 0  C 10.000000 -15.000000 20.000000 11.000000 20.000000 0  S 30.0 18.0 30.0 0  S 40.0 -14.0 40.0 0  S 50.0 16.0 50.0 0  S 60.0 -19.0 60.0 0  S 70.0 13.0 70.0 0  S 80.0 -10.0 80.0 0  S 90.0 11.0 90.0 0  M 90.0 0 100 0" stroke="black" fill="transparent"
  transform="translate(434.000000 850.000000) rotate (89.023462 0 0) scale (0.586752 1)"/>
  <path
  d=" M 0 0 10.0 0  C 10.000000 -18.000000 23.333333 16.000000 23.333333 0  S 36.66666666666667 14.0 36.66666666666667 0  S 50.66666666666667 -14.0 50.66666666666667 0  S 64.66666666666667 19.0 64.66666666666667 0  S 78.66666666666667 -12.0 78.66666666666667 0  S 90.0 16.0 90.0 0  M 90.0 0 100 0" stroke="black" fill="transparent"
  transform="translate(333.000000 841.333333) rotate (-29.678490 0 0) scale (0.713614 1)"/>
  <path
  d=" M 0 0 10.0 0  C 10.000000 -18.000000 21.428571 12.000000 21.428571 0  S 32.85714285714286 15.0 32.85714285714286 0  S 44.85714285714286 -16.0 44.85714285714286 0  S 56.85714285714286 14.0 56.85714285714286 0  S 68.85714285714286 -16.0 68.85714285714286 0  S 80.85714285714286 17.0 80.85714285714286 0  S 90.0 10.0 90.0 0  M 90.0 0 100 0" stroke="black" fill="transparent"
  transform="translate(711.666667 851.333333) rotate (-44.104826 0 0) scale (0.603471 1)"/>
  <path
  d=" M 0 0 10.0 0  C 10.000000 -15.000000 21.428571 11.000000 21.428571 0  S 32.85714285714286 11.0 32.85714285714286 0  S 44.85714285714286 -14.0 44.85714285714286 0  S 56.85714285714286 10.0 56.85714285714286 0  S 68.85714285714286 -18.0 68.85714285714286 0  S 80.85714285714286 18.0 80.85714285714286 0  S 90.0 18.0 90.0 0  M 90.0 0 100 0" stroke="black" fill="transparent"
  transform="translate(609.333333 806.666667) rotate (51.927218 0 0) scale (0.508112 1)"/>
  <path
  d=" M 0 0 10.0 0  C 10.000000 -15.000000 20.000000 16.000000 20.000000 0  S 30.0 17.0 30.0 0  S 40.0 -12.0 40.0 0  S 50.0 10.0 50.0 0  S 60.0 -15.0 60.0 0  S 70.0 11.0 70.0 0  S 80.0 -14.0 80.0 0  S 90.0 17.0 90.0 0  M 90.0 0 100 0" stroke="black" fill="transparent"
  transform="translate(609.333333 806.666667) rotate (-60.366085 0 0) scale (0.640434 1)"/>
  <path
  d=" M 0 0 10.0 0  C 10.000000 -18.000000 20.000000 17.000000 20.000000 0  S 30.0 19.0 30.0 0  S 40.0 -10.0 40.0 0  S 50.0 14.0 50.0 0  S 60.0 -12.0 60.0 0  S 70.0 14.0 70.0 0  S 80.0 -19.0 80.0 0  S 90.0 16.0 90.0 0  M 90.0 0 100 0" stroke="black" fill="transparent"
  transform="translate(641.000000 751.000000) rotate (-23.385221 0 0) scale (0.671855 1)"/>
  <path
  d=" M 0 0 10.0 0  C 10.000000 -17.000000 26.000000 12.000000 26.000000 0  S 42.0 14.0 42.0 0  S 58.0 -13.0 58.0 0  S 74.0 19.0 74.0 0  S 90.0 13.0 90.0 0  M 90.0 0 100 0" stroke="black" fill="transparent"
  transform="translate(702.666667 724.333333) rotate (26.194210 0 0) scale (0.460640 1)"/>
  <path
  d=" M 0 0 10.0 0  C 10.000000 -19.000000 26.000000 11.000000 26.000000 0  S 42.0 12.0 42.0 0  S 58.0 -19.0 58.0 0  S 74.0 19.0 74.0 0  S 90.0 11.0 90.0 0  M 90.0 0 100 0" stroke="black" fill="transparent"
  transform="translate(804.666667 646.666667) rotate (82.668885 0 0) scale (0.574698 1)"/>
  <path
  d=" M 0 0 10.0 0  C 10.000000 -18.000000 21.428571 18.000000 21.428571 0  S 32.85714285714286 13.0 32.85714285714286 0  S 44.85714285714286 -14.0 44.85714285714286 0  S 56.85714285714286 15.0 56.85714285714286 0  S 68.85714285714286 -14.0 68.85714285714286 0  S 80.85714285714286 14.0 80.85714285714286 0  S 90.0 14.0 90.0 0  M 90.0 0 100 0" stroke="black" fill="transparent"
  transform="translate(733.000000 606.666667) rotate (29.167613 0 0) scale (0.820738 1)"/>
  <path
  d=" M 0 0 10.0 0  C 10.000000 -11.000000 20.000000 18.000000 20.000000 0  S 30.0 13.0 30.0 0  S 40.0 -11.0 40.0 0  S 50.0 13.0 50.0 0  S 60.0 -13.0 60.0 0  S 70.0 11.0 70.0 0  S 80.0 -15.0 80.0 0  S 90.0 12.0 90.0 0  M 90.0 0 100 0" stroke="black" fill="transparent"
  transform="translate(699.000000 643.333333) rotate (87.408133 0 0) scale (0.810829 1)"/>
  <path
  d=" M 0 0 10.0 0  C 10.000000 -18.000000 20.000000 12.000000 20.000000 0  S 30.0 14.0 30.0 0  S 40.0 -15.0 40.0 0  S 50.0 12.0 50.0 0  S 60.0 -10.0 60.0 0  S 70.0 14.0 70.0 0  S 80.0 -13.0 80.0 0  S 90.0 17.0 90.0 0  M 90.0 0 100 0" stroke="black" fill="transparent"
  transform="translate(105.000000 946.666667) rotate (-32.675273 0 0) scale (0.574205 1)"/>
  <path
  d=" M 0 0 10.0 0  C 10.000000 -18.000000 26.000000 18.000000 26.000000 0  S 42.0 14.0 42.0 0  S 58.0 -13.0 58.0 0  S 74.0 12.0 74.0 0  S 90.0 10.0 90.0 0  M 90.0 0 100 0" stroke="black" fill="transparent"
  transform="translate(153.333333 915.666667) rotate (20.984898 0 0) scale (0.781857 1)"/>
  <path
  d=" M 0 0 10.0 0  C 10.000000 -17.000000 20.000000 11.000000 20.000000 0  S 30.0 15.0 30.0 0  S 40.0 -18.0 40.0 0  S 50.0 14.0 50.0 0  S 60.0 -13.0 60.0 0  S 70.0 16.0 70.0 0  S 80.0 -10.0 80.0 0  S 90.0 13.0 90.0 0  M 90.0 0 100 0" stroke="black" fill="transparent"
  transform="translate(105.000000 946.666667) rotate (6.972769 0 0) scale (1.867143 1)"/>
  <path
  d=" M 0 0 10.0 0  C 10.000000 -19.000000 21.428571 17.000000 21.428571 0  S 32.85714285714286 11.0 32.85714285714286 0  S 44.85714285714286 -17.0 44.85714285714286 0  S 56.85714285714286 10.0 56.85714285714286 0  S 68.85714285714286 -14.0 68.85714285714286 0  S 80.85714285714286 18.0 80.85714285714286 0  S 90.0 11.0 90.0 0  M 90.0 0 100 0" stroke="black" fill="transparent"
  transform="translate(435.000000 908.666667) rotate (22.017009 0 0) scale (0.657985 1)"/>
  <path
  d=" M 0 0 10.0 0  C 10.000000 -18.000000 26.000000 11.000000 26.000000 0  S 42.0 15.0 42.0 0  S 58.0 -12.0 58.0 0  S 74.0 18.0 74.0 0  S 90.0 10.0 90.0 0  M 90.0 0 100 0" stroke="black" fill="transparent"
  transform="translate(407.333333 936.000000) rotate (22.017009 0 0) scale (0.657985 1)"/>
  <path
  d=" M 0 0 10.0 0  C 10.000000 -19.000000 23.333333 16.000000 23.333333 0  S 36.66666666666667 16.0 36.66666666666667 0  S 50.66666666666667 -11.0 50.66666666666667 0  S 64.66666666666667 16.0 64.66666666666667 0  S 78.66666666666667 -17.0 78.66666666666667 0  S 90.0 14.0 90.0 0  M 90.0 0 100 0" stroke="black" fill="transparent"
  transform="translate(534.666667 800.333333) rotate (4.848305 0 0) scale (0.749348 1)"/>
  <path
  d=" M 0 0 10.0 0  C 10.000000 -13.000000 26.000000 18.000000 26.000000 0  S 42.0 10.0 42.0 0  S 58.0 -16.0 58.0 0  S 74.0 14.0 74.0 0  S 90.0 19.0 90.0 0  M 90.0 0 100 0" stroke="black" fill="transparent"
  transform="translate(602.666667 702.333333) rotate (51.773513 0 0) scale (0.619507 1)"/>
  <path
  d=" M 0 0 10.0 0  C 10.000000 -15.000000 26.000000 18.000000 26.000000 0  S 42.0 16.0 42.0 0  S 58.0 -12.0 58.0 0  S 74.0 13.0 74.0 0  S 90.0 19.0 90.0 0  M 90.0 0 100 0" stroke="black" fill="transparent"
  transform="translate(530.333333 702.666667) rotate (-0.264034 0 0) scale (0.723341 1)"/>
  <path
  d=" M 0 0 10.0 0  C 10.000000 -19.000000 20.000000 18.000000 20.000000 0  S 30.0 11.0 30.0 0  S 40.0 -12.0 40.0 0  S 50.0 19.0 50.0 0  S 60.0 -17.0 60.0 0  S 70.0 19.0 70.0 0  S 80.0 -11.0 80.0 0  S 90.0 14.0 90.0 0  M 90.0 0 100 0" stroke="black" fill="transparent"
  transform="translate(815.000000 407.333333) rotate (-62.856223 0 0) scale (0.737940 1)"/>
  <path
  d=" M 0 0 10.0 0  C 10.000000 -12.000000 23.333333 15.000000 23.333333 0  S 36.66666666666667 18.0 36.66666666666667 0  S 50.66666666666667 -17.0 50.66666666666667 0  S 64.66666666666667 19.0 64.66666666666667 0  S 78.66666666666667 -11.0 78.66666666666667 0  S 90.0 12.0 90.0 0  M 90.0 0 100 0" stroke="black" fill="transparent"
  transform="translate(737.000000 328.666667) rotate (-28.211704 0 0) scale (0.726277 1)"/>
  <path
  d=" M 0 0 10.0 0  C 10.000000 -10.000000 20.000000 15.000000 20.000000 0  S 30.0 10.0 30.0 0  S 40.0 -13.0 40.0 0  S 50.0 14.0 50.0 0  S 60.0 -12.0 60.0 0  S 70.0 14.0 70.0 0  S 80.0 -17.0 80.0 0  S 90.0 16.0 90.0 0  M 90.0 0 100 0" stroke="black" fill="transparent"
  transform="translate(737.000000 328.666667) rotate (81.209457 0 0) scale (0.654353 1)"/>
  <path
  d=" M 0 0 10.0 0  C 10.000000 -14.000000 26.000000 16.000000 26.000000 0  S 42.0 18.0 42.0 0  S 58.0 -19.0 58.0 0  S 74.0 18.0 74.0 0  S 90.0 12.0 90.0 0  M 90.0 0 100 0" stroke="black" fill="transparent"
  transform="translate(937.666667 405.333333) rotate (58.313632 0 0) scale (0.634595 1)"/>
  <path
  d=" M 0 0 10.0 0  C 10.000000 -14.000000 21.428571 17.000000 21.428571 0  S 32.85714285714286 16.0 32.85714285714286 0  S 44.85714285714286 -10.0 44.85714285714286 0  S 56.85714285714286 17.0 56.85714285714286 0  S 68.85714285714286 -17.0 68.85714285714286 0  S 80.85714285714286 19.0 80.85714285714286 0  S 90.0 13.0 90.0 0  M 90.0 0 100 0" stroke="black" fill="transparent"
  transform="translate(915.666667 334.666667) rotate (72.707551 0 0) scale (0.740120 1)"/>
  <path
  d=" M 0 0 10.0 0  C 10.000000 -15.000000 23.333333 17.000000 23.333333 0  S 36.66666666666667 15.0 36.66666666666667 0  S 50.66666666666667 -14.0 50.66666666666667 0  S 64.66666666666667 15.0 64.66666666666667 0  S 78.66666666666667 -11.0 78.66666666666667 0  S 90.0 12.0 90.0 0  M 90.0 0 100 0" stroke="black" fill="transparent"
  transform="translate(971.000000 459.333333) rotate (-78.384330 0 0) scale (0.612545 1)"/>
  <path
  d=" M 0 0 10.0 0  C 10.000000 -17.000000 23.333333 14.000000 23.333333 0  S 36.66666666666667 15.0 36.66666666666667 0  S 50.66666666666667 -16.0 50.66666666666667 0  S 64.66666666666667 18.0 64.66666666666667 0  S 78.66666666666667 -11.0 78.66666666666667 0  S 90.0 13.0 90.0 0  M 90.0 0 100 0" stroke="black" fill="transparent"
  transform="translate(65.000000 207.000000) rotate (-64.375853 0 0) scale (0.817020 1)"/>
  <path
  d=" M 0 0 10.0 0  C 10.000000 -16.000000 23.333333 17.000000 23.333333 0  S 36.66666666666667 17.0 36.66666666666667 0  S 50.66666666666667 -15.0 50.66666666666667 0  S 64.66666666666667 17.0 64.66666666666667 0  S 78.66666666666667 -14.0 78.66666666666667 0  S 90.0 13.0 90.0 0  M 90.0 0 100 0" stroke="black" fill="transparent"
  transform="translate(100.333333 133.333333) rotate (80.448363 0 0) scale (0.703081 1)"/>
  <path
  d=" M 0 0 10.0 0  C 10.000000 -17.000000 20.000000 11.000000 20.000000 0  S 30.0 17.0 30.0 0  S 40.0 -10.0 40.0 0  S 50.0 14.0 50.0 0  S 60.0 -16.0 60.0 0  S 70.0 12.0 70.0 0  S 80.0 -13.0 80.0 0  S 90.0 14.0 90.0 0  M 90.0 0 100 0" stroke="black" fill="transparent"
  transform="translate(65.000000 207.000000) rotate (80.448363 0 0) scale (0.703081 1)"/>
  <path
  d=" M 0 0 10.0 0  C 10.000000 -13.000000 26.000000 14.000000 26.000000 0  S 42.0 17.0 42.0 0  S 58.0 -14.0 58.0 0  S 74.0 17.0 74.0 0  S 90.0 10.0 90.0 0  M 90.0 0 100 0" stroke="black" fill="transparent"
  transform="translate(814.666667 796.000000) rotate (52.753162 0 0) scale (0.506678 1)"/>
  <path
  d=" M 0 0 10.0 0  C 10.000000 -10.000000 21.428571 18.000000 21.428571 0  S 32.85714285714286 18.0 32.85714285714286 0  S 44.85714285714286 -18.0 44.85714285714286 0  S 56.85714285714286 15.0 56.85714285714286 0  S 68.85714285714286 -11.0 68.85714285714286 0  S 80.85714285714286 15.0 80.85714285714286 0  S 90.0 17.0 90.0 0  M 90.0 0 100 0" stroke="black" fill="transparent"
  transform="translate(846.666667 728.333333) rotate (-0.629599 0 0) scale (0.606703 1)"/>
  <path
  d=" M 0 0 10.0 0  C 10.000000 -10.000000 23.333333 14.000000 23.333333 0  S 36.66666666666667 19.0 36.66666666666667 0  S 50.66666666666667 -17.0 50.66666666666667 0  S 64.66666666666667 12.0 64.66666666666667 0  S 78.66666666666667 -17.0 78.66666666666667 0  S 90.0 13.0 90.0 0  M 90.0 0 100 0" stroke="black" fill="transparent"
  transform="translate(907.333333 727.666667) rotate (67.485613 0 0) scale (0.696411 1)"/>
  <path
  d=" M 0 0 10.0 0  C 10.000000 -17.000000 26.000000 18.000000 26.000000 0  S 42.0 19.0 42.0 0  S 58.0 -13.0 58.0 0  S 74.0 10.0 74.0 0  S 90.0 15.0 90.0 0  M 90.0 0 100 0" stroke="black" fill="transparent"
  transform="translate(541.000000 515.333333) rotate (29.538782 0 0) scale (1.034456 1)"/>
  <path
  d=" M 0 0 10.0 0  C 10.000000 -15.000000 23.333333 19.000000 23.333333 0  S 36.66666666666667 17.0 36.66666666666667 0  S 50.66666666666667 -19.0 50.66666666666667 0  S 64.66666666666667 16.0 64.66666666666667 0  S 78.66666666666667 -10.0 78.66666666666667 0  S 90.0 14.0 90.0 0  M 90.0 0 100 0" stroke="black" fill="transparent"
  transform="translate(583.666667 417.333333) rotate (7.399595 0 0) scale (1.294111 1)"/>
  <path
  d=" M 0 0 10.0 0  C 10.000000 -13.000000 26.000000 16.000000 26.000000 0  S 42.0 15.0 42.0 0  S 58.0 -13.0 58.0 0  S 74.0 19.0 74.0 0  S 90.0 17.0 90.0 0  M 90.0 0 100 0" stroke="black" fill="transparent"
  transform="translate(715.000000 904.666667) rotate (32.863176 0 0) scale (0.448429 1)"/>
  <path
  d=" M 0 0 10.0 0  C 10.000000 -10.000000 21.428571 10.000000 21.428571 0  S 32.85714285714286 12.0 32.85714285714286 0  S 44.85714285714286 -13.0 44.85714285714286 0  S 56.85714285714286 12.0 56.85714285714286 0  S 68.85714285714286 -10.0 68.85714285714286 0  S 80.85714285714286 19.0 80.85714285714286 0  S 90.0 17.0 90.0 0  M 90.0 0 100 0" stroke="black" fill="transparent"
  transform="translate(752.666667 929.000000) rotate (6.102780 0 0) scale (0.533021 1)"/>
  <path
  d=" M 0 0 10.0 0  C 10.000000 -15.000000 23.333333 16.000000 23.333333 0  S 36.66666666666667 17.0 36.66666666666667 0  S 50.66666666666667 -18.0 50.66666666666667 0  S 64.66666666666667 18.0 64.66666666666667 0  S 78.66666666666667 -16.0 78.66666666666667 0  S 90.0 14.0 90.0 0  M 90.0 0 100 0" stroke="black" fill="transparent"
  transform="translate(805.666667 934.666667) rotate (-35.587371 0 0) scale (0.446779 1)"/>
  <path
  d=" M 0 0 10.0 0  C 10.000000 -15.000000 23.333333 16.000000 23.333333 0  S 36.66666666666667 15.0 36.66666666666667 0  S 50.66666666666667 -14.0 50.66666666666667 0  S 64.66666666666667 15.0 64.66666666666667 0  S 78.66666666666667 -12.0 78.66666666666667 0  S 90.0 17.0 90.0 0  M 90.0 0 100 0" stroke="black" fill="transparent"
  transform="translate(826.666667 138.000000) rotate (-27.198128 0 0) scale (0.809506 1)"/>
  <path
  d=" M 0 0 10.0 0  C 10.000000 -12.000000 23.333333 15.000000 23.333333 0  S 36.66666666666667 13.0 36.66666666666667 0  S 50.66666666666667 -12.0 50.66666666666667 0  S 64.66666666666667 19.0 64.66666666666667 0  S 78.66666666666667 -10.0 78.66666666666667 0  S 90.0 10.0 90.0 0  M 90.0 0 100 0" stroke="black" fill="transparent"
  transform="translate(790.666667 203.000000) rotate (-61.020292 0 0) scale (0.743034 1)"/>
  <path
  d=" M 0 0 10.0 0  C 10.000000 -14.000000 20.000000 12.000000 20.000000 0  S 30.0 15.0 30.0 0  S 40.0 -17.0 40.0 0  S 50.0 19.0 50.0 0  S 60.0 -16.0 60.0 0  S 70.0 17.0 70.0 0  S 80.0 -14.0 80.0 0  S 90.0 12.0 90.0 0  M 90.0 0 100 0" stroke="black" fill="transparent"
  transform="translate(790.666667 203.000000) rotate (34.902496 0 0) scale (0.524309 1)"/>
  <path
  d=" M 0 0 10.0 0  C 10.000000 -19.000000 23.333333 15.000000 23.333333 0  S 36.66666666666667 17.0 36.66666666666667 0  S 50.66666666666667 -18.0 50.66666666666667 0  S 64.66666666666667 12.0 64.66666666666667 0  S 78.66666666666667 -10.0 78.66666666666667 0  S 90.0 19.0 90.0 0  M 90.0 0 100 0" stroke="black" fill="transparent"
  transform="translate(501.666667 843.666667) rotate (60.918073 0 0) scale (0.678929 1)"/>
  <path
  d=" M 0 0 10.0 0  C 10.000000 -11.000000 23.333333 16.000000 23.333333 0  S 36.66666666666667 18.0 36.66666666666667 0  S 50.66666666666667 -17.0 50.66666666666667 0  S 64.66666666666667 18.0 64.66666666666667 0  S 78.66666666666667 -13.0 78.66666666666667 0  S 90.0 11.0 90.0 0  M 90.0 0 100 0" stroke="black" fill="transparent"
  transform="translate(147.000000 856.000000) rotate (83.941012 0 0) scale (0.600019 1)"/>
  <path
  d=" M 0 0 10.0 0  C 10.000000 -16.000000 21.428571 19.000000 21.428571 0  S 32.85714285714286 15.0 32.85714285714286 0  S 44.85714285714286 -13.0 44.85714285714286 0  S 56.85714285714286 10.0 56.85714285714286 0  S 68.85714285714286 -18.0 68.85714285714286 0  S 80.85714285714286 15.0 80.85714285714286 0  S 90.0 19.0 90.0 0  M 90.0 0 100 0" stroke="black" fill="transparent"
  transform="translate(804.666667 646.666667) rotate (-44.762260 0 0) scale (0.568047 1)"/>
  <path
  d=" M 0 0 10.0 0  C 10.000000 -19.000000 23.333333 18.000000 23.333333 0  S 36.66666666666667 12.0 36.66666666666667 0  S 50.66666666666667 -10.0 50.66666666666667 0  S 64.66666666666667 12.0 64.66666666666667 0  S 78.66666666666667 -19.0 78.66666666666667 0  S 90.0 19.0 90.0 0  M 90.0 0 100 0" stroke="black" fill="transparent"
  transform="translate(706.000000 295.333333) rotate (47.077175 0 0) scale (0.455204 1)"/>
  <path
  d=" M 0 0 10.0 0  C 10.000000 -13.000000 26.000000 11.000000 26.000000 0  S 42.0 19.0 42.0 0  S 58.0 -18.0 58.0 0  S 74.0 17.0 74.0 0  S 90.0 13.0 90.0 0  M 90.0 0 100 0" stroke="black" fill="transparent"
  transform="translate(699.333333 227.333333) rotate (84.400661 0 0) scale (0.683260 1)"/>
  <path
  d=" M 0 0 10.0 0  C 10.000000 -15.000000 20.000000 15.000000 20.000000 0  S 30.0 14.0 30.0 0  S 40.0 -18.0 40.0 0  S 50.0 19.0 50.0 0  S 60.0 -15.0 60.0 0  S 70.0 17.0 70.0 0  S 80.0 -13.0 80.0 0  S 90.0 16.0 90.0 0  M 90.0 0 100 0" stroke="black" fill="transparent"
  transform="translate(728.666667 190.333333) rotate (11.546691 0 0) scale (0.632807 1)"/>
  <path
  d=" M 0 0 10.0 0  C 10.000000 -13.000000 20.000000 18.000000 20.000000 0  S 30.0 16.0 30.0 0  S 40.0 -13.0 40.0 0  S 50.0 13.0 50.0 0  S 60.0 -10.0 60.0 0  S 70.0 10.0 70.0 0  S 80.0 -17.0 80.0 0  S 90.0 15.0 90.0 0  M 90.0 0 100 0" stroke="black" fill="transparent"
  transform="translate(194.333333 203.666667) rotate (-90.000000 0 0) scale (0.756667 1)"/>
  <path
  d=" M 0 0 10.0 0  C 10.000000 -13.000000 26.000000 15.000000 26.000000 0  S 42.0 12.0 42.0 0  S 58.0 -17.0 58.0 0  S 74.0 14.0 74.0 0  S 90.0 16.0 90.0 0  M 90.0 0 100 0" stroke="black" fill="transparent"
  transform="translate(127.666667 94.333333) rotate (26.793776 0 0) scale (0.746853 1)"/>
  <path
  d=" M 0 0 10.0 0  C 10.000000 -19.000000 23.333333 15.000000 23.333333 0  S 36.66666666666667 18.0 36.66666666666667 0  S 50.66666666666667 -10.0 50.66666666666667 0  S 64.66666666666667 16.0 64.66666666666667 0  S 78.66666666666667 -13.0 78.66666666666667 0  S 90.0 16.0 90.0 0  M 90.0 0 100 0" stroke="black" fill="transparent"
  transform="translate(100.333333 133.333333) rotate (-54.975127 0 0) scale (0.476247 1)"/>
  <path
  d=" M 0 0 10.0 0  C 10.000000 -13.000000 21.428571 14.000000 21.428571 0  S 32.85714285714286 11.0 32.85714285714286 0  S 44.85714285714286 -15.0 44.85714285714286 0  S 56.85714285714286 10.0 56.85714285714286 0  S 68.85714285714286 -14.0 68.85714285714286 0  S 80.85714285714286 18.0 80.85714285714286 0  S 90.0 11.0 90.0 0  M 90.0 0 100 0" stroke="black" fill="transparent"
  transform="translate(792.000000 102.333333) rotate (45.814577 0 0) scale (0.497382 1)"/>
  <path
  d=" M 0 0 10.0 0  C 10.000000 -17.000000 21.428571 15.000000 21.428571 0  S 32.85714285714286 10.0 32.85714285714286 0  S 44.85714285714286 -12.0 44.85714285714286 0  S 56.85714285714286 10.0 56.85714285714286 0  S 68.85714285714286 -13.0 68.85714285714286 0  S 80.85714285714286 10.0 80.85714285714286 0  S 90.0 17.0 90.0 0  M 90.0 0 100 0" stroke="black" fill="transparent"
  transform="translate(734.333333 110.333333) rotate (-7.898137 0 0) scale (0.582189 1)"/>
  <path
  d=" M 0 0 10.0 0  C 10.000000 -15.000000 26.000000 15.000000 26.000000 0  S 42.0 10.0 42.0 0  S 58.0 -15.0 58.0 0  S 74.0 18.0 74.0 0  S 90.0 12.0 90.0 0  M 90.0 0 100 0" stroke="black" fill="transparent"
  transform="translate(769.666667 76.333333) rotate (49.338267 0 0) scale (0.342750 1)"/>
  <path
  d=" M 0 0 10.0 0  C 10.000000 -17.000000 26.000000 15.000000 26.000000 0  S 42.0 13.0 42.0 0  S 58.0 -16.0 58.0 0  S 74.0 19.0 74.0 0  S 90.0 16.0 90.0 0  M 90.0 0 100 0" stroke="black" fill="transparent"
  transform="translate(241.000000 97.666667) rotate (3.301866 0 0) scale (0.694486 1)"/>
  <path
  d=" M 0 0 10.0 0  C 10.000000 -11.000000 23.333333 14.000000 23.333333 0  S 36.66666666666667 15.0 36.66666666666667 0  S 50.66666666666667 -18.0 50.66666666666667 0  S 64.66666666666667 14.0 64.66666666666667 0  S 78.66666666666667 -18.0 78.66666666666667 0  S 90.0 18.0 90.0 0  M 90.0 0 100 0" stroke="black" fill="transparent"
  transform="translate(194.333333 128.000000) rotate (-33.023868 0 0) scale (0.556587 1)"/>
  <path
  d=" M 0 0 10.0 0  C 10.000000 -14.000000 21.428571 19.000000 21.428571 0  S 32.85714285714286 14.0 32.85714285714286 0  S 44.85714285714286 -13.0 44.85714285714286 0  S 56.85714285714286 12.0 56.85714285714286 0  S 68.85714285714286 -12.0 68.85714285714286 0  S 80.85714285714286 17.0 80.85714285714286 0  S 90.0 17.0 90.0 0  M 90.0 0 100 0" stroke="black" fill="transparent"
  transform="translate(194.333333 128.000000) rotate (90.000000 0 0) scale (0.756667 1)"/>
  <path
  d=" M 0 0 10.0 0  C 10.000000 -13.000000 20.000000 17.000000 20.000000 0  S 30.0 11.0 30.0 0  S 40.0 -10.0 40.0 0  S 50.0 17.0 50.0 0  S 60.0 -14.0 60.0 0  S 70.0 10.0 70.0 0  S 80.0 -17.0 80.0 0  S 90.0 11.0 90.0 0  M 90.0 0 100 0" stroke="black" fill="transparent"
  transform="translate(310.333333 101.666667) rotate (20.432829 0 0) scale (0.907071 1)"/>
  <path
  d=" M 0 0 10.0 0  C 10.000000 -17.000000 26.000000 15.000000 26.000000 0  S 42.0 10.0 42.0 0  S 58.0 -18.0 58.0 0  S 74.0 10.0 74.0 0  S 90.0 16.0 90.0 0  M 90.0 0 100 0" stroke="black" fill="transparent"
  transform="translate(773.000000 961.333333) rotate (-39.225674 0 0) scale (0.421690 1)"/>
  <path
  d=" M 0 0 10.0 0  C 10.000000 -15.000000 26.000000 18.000000 26.000000 0  S 42.0 11.0 42.0 0  S 58.0 -14.0 58.0 0  S 74.0 12.0 74.0 0  S 90.0 12.0 90.0 0  M 90.0 0 100 0" stroke="black" fill="transparent"
  transform="translate(752.666667 929.000000) rotate (57.835609 0 0) scale (0.381954 1)"/>
  <path
  d=" M 0 0 10.0 0  C 10.000000 -10.000000 26.000000 18.000000 26.000000 0  S 42.0 14.0 42.0 0  S 58.0 -17.0 58.0 0  S 74.0 14.0 74.0 0  S 90.0 16.0 90.0 0  M 90.0 0 100 0" stroke="black" fill="transparent"
  transform="translate(241.000000 97.666667) rotate (-39.507675 0 0) scale (0.492522 1)"/>
  <path
  d=" M 0 0 10.0 0  C 10.000000 -19.000000 20.000000 17.000000 20.000000 0  S 30.0 12.0 30.0 0  S 40.0 -13.0 40.0 0  S 50.0 12.0 50.0 0  S 60.0 -17.0 60.0 0  S 70.0 17.0 70.0 0  S 80.0 -13.0 80.0 0  S 90.0 14.0 90.0 0  M 90.0 0 100 0" stroke="black" fill="transparent"
  transform="translate(602.666667 702.333333) rotate (-64.653824 0 0) scale (0.770873 1)"/>
  <path
  d=" M 0 0 10.0 0  C 10.000000 -19.000000 23.333333 18.000000 23.333333 0  S 36.66666666666667 12.0 36.66666666666667 0  S 50.66666666666667 -11.0 50.66666666666667 0  S 64.66666666666667 14.0 64.66666666666667 0  S 78.66666666666667 -17.0 78.66666666666667 0  S 90.0 15.0 90.0 0  M 90.0 0 100 0" stroke="black" fill="transparent"
  transform="translate(587.666667 343.333333) rotate (-22.079138 0 0) scale (1.276980 1)"/>
  <path
  d=" M 0 0 10.0 0  C 10.000000 -16.000000 26.000000 17.000000 26.000000 0  S 42.0 14.0 42.0 0  S 58.0 -16.0 58.0 0  S 74.0 15.0 74.0 0  S 90.0 11.0 90.0 0  M 90.0 0 100 0" stroke="black" fill="transparent"
  transform="translate(911.000000 444.000000) rotate (-55.407711 0 0) scale (0.469704 1)"/>
  <path
  d=" M 0 0 10.0 0  C 10.000000 -17.000000 21.428571 10.000000 21.428571 0  S 32.85714285714286 13.0 32.85714285714286 0  S 44.85714285714286 -15.0 44.85714285714286 0  S 56.85714285714286 15.0 56.85714285714286 0  S 68.85714285714286 -10.0 68.85714285714286 0  S 80.85714285714286 11.0 80.85714285714286 0  S 90.0 17.0 90.0 0  M 90.0 0 100 0" stroke="black" fill="transparent"
  transform="translate(711.000000 73.333333) rotate (8.386394 0 0) scale (1.896951 1)"/>
  <path
  d=" M 0 0 10.0 0  C 10.000000 -13.000000 21.428571 18.000000 21.428571 0  S 32.85714285714286 19.0 32.85714285714286 0  S 44.85714285714286 -18.0 44.85714285714286 0  S 56.85714285714286 15.0 56.85714285714286 0  S 68.85714285714286 -19.0 68.85714285714286 0  S 80.85714285714286 19.0 80.85714285714286 0  S 90.0 16.0 90.0 0  M 90.0 0 100 0" stroke="black" fill="transparent"
  transform="translate(907.666667 942.333333) rotate (-48.289243 0 0) scale (1.026997 1)"/>
  <path
  d=" M 0 0 10.0 0  C 10.000000 -16.000000 21.428571 17.000000 21.428571 0  S 32.85714285714286 13.0 32.85714285714286 0  S 44.85714285714286 -19.0 44.85714285714286 0  S 56.85714285714286 14.0 56.85714285714286 0  S 68.85714285714286 -10.0 68.85714285714286 0  S 80.85714285714286 16.0 80.85714285714286 0  S 90.0 18.0 90.0 0  M 90.0 0 100 0" stroke="black" fill="transparent"
  transform="translate(643.333333 967.666667) rotate (-2.796286 0 0) scale (1.298212 1)"/>
  <path
  d=" M 0 0 10.0 0  C 10.000000 -14.000000 21.428571 11.000000 21.428571 0  S 32.85714285714286 19.0 32.85714285714286 0  S 44.85714285714286 -11.0 44.85714285714286 0  S 56.85714285714286 18.0 56.85714285714286 0  S 68.85714285714286 -11.0 68.85714285714286 0  S 80.85714285714286 16.0 80.85714285714286 0  S 90.0 18.0 90.0 0  M 90.0 0 100 0" stroke="black" fill="transparent"
  transform="translate(643.333333 967.666667) rotate (-5.474427 0 0) scale (2.655445 1)"/>
  <path
  d=" M 0 0 10.0 0  C 10.000000 -15.000000 26.000000 14.000000 26.000000 0  S 42.0 19.0 42.0 0  S 58.0 -18.0 58.0 0  S 74.0 19.0 74.0 0  S 90.0 13.0 90.0 0  M 90.0 0 100 0" stroke="black" fill="transparent"
  transform="translate(65.000000 207.000000) rotate (89.041737 0 0) scale (2.790390 1)"/>
  <path
  d=" M 0 0 10.0 0  C 10.000000 -18.000000 26.000000 12.000000 26.000000 0  S 42.0 19.0 42.0 0  S 58.0 -14.0 58.0 0  S 74.0 15.0 74.0 0  S 90.0 19.0 90.0 0  M 90.0 0 100 0" stroke="black" fill="transparent"
  transform="translate(483.000000 76.000000) rotate (29.081927 0 0) scale (0.678929 1)"/>
  <path
  d=" M 0 0 10.0 0  C 10.000000 -18.000000 20.000000 13.000000 20.000000 0  S 30.0 12.0 30.0 0  S 40.0 -18.0 40.0 0  S 50.0 15.0 50.0 0  S 60.0 -16.0 60.0 0  S 70.0 12.0 70.0 0  S 80.0 -11.0 80.0 0  S 90.0 19.0 90.0 0  M 90.0 0 100 0" stroke="black" fill="transparent"
  transform="translate(473.666667 107.333333) rotate (-73.412661 0 0) scale (0.326939 1)"/>
  <path
  d=" M 0 0 10.0 0  C 10.000000 -17.000000 23.333333 19.000000 23.333333 0  S 36.66666666666667 17.0 36.66666666666667 0  S 50.66666666666667 -16.0 50.66666666666667 0  S 64.66666666666667 15.0 64.66666666666667 0  S 78.66666666666667 -13.0 78.66666666666667 0  S 90.0 12.0 90.0 0  M 90.0 0 100 0" stroke="black" fill="transparent"
  transform="translate(194.333333 128.000000) rotate (-36.067590 0 0) scale (1.047436 1)"/>
  <path
  d=" M 0 0 10.0 0  C 10.000000 -14.000000 26.000000 18.000000 26.000000 0  S 42.0 18.0 42.0 0  S 58.0 -10.0 58.0 0  S 74.0 14.0 74.0 0  S 90.0 10.0 90.0 0  M 90.0 0 100 0" stroke="black" fill="transparent"
  transform="translate(545.333333 961.666667) rotate (3.503532 0 0) scale (0.981835 1)"/>
  <path
  d=" M 0 0 10.0 0  C 10.000000 -13.000000 20.000000 11.000000 20.000000 0  S 30.0 14.0 30.0 0  S 40.0 -10.0 40.0 0  S 50.0 14.0 50.0 0  S 60.0 -12.0 60.0 0  S 70.0 14.0 70.0 0  S 80.0 -10.0 80.0 0  S 90.0 18.0 90.0 0  M 90.0 0 100 0" stroke="black" fill="transparent"
  transform="translate(65.000000 207.000000) rotate (-60.916619 0 0) scale (1.289220 1)"/>
  <path
  d=" M 0 0 10.0 0  C 10.000000 -13.000000 23.333333 11.000000 23.333333 0  S 36.66666666666667 19.0 36.66666666666667 0  S 50.66666666666667 -18.0 50.66666666666667 0  S 64.66666666666667 16.0 64.66666666666667 0  S 78.66666666666667 -14.0 78.66666666666667 0  S 90.0 15.0 90.0 0  M 90.0 0 100 0" stroke="black" fill="transparent"
  transform="translate(907.333333 727.666667) rotate (-34.487373 0 0) scale (0.465069 1)"/>
  
  <path id="cat" fill="none" stroke="#000000" stroke-width="1" stroke-miterlimit="10" d="M55.571,141.777l55.54,0.994
        c0.142-7.894-0.396-9.472-13.47-9.706c2.201-6.229,10.96-21.235,15.679-21.15c4.177,0.075,9.152,0.395,8.982,9.915
        c-0.193,10.812,17.689,28.577,22.23,21.538c6.766-10.479-11.173-7.564-10.715-33.132c0.626-34.97,20.944-29.626,21.295-49.276
        c0.176-9.83-2.514-11.206-2.388-18.234c0.167-9.286,8.34-8.601,6.885-16.331c-1.006-5.339-1.79-9.62-2.313-16.064
        c-0.375-4.573-0.436-9.441-5.177-9.33c-5.573,0.13-7.862,9.897-16.535,10.445c-8.652,0.547-15.876-7.642-19.244-6.551
        c-3.333,1.082-2.453,10.097-0.601,16.521c2.912,10.098,9.417,23.274-2.906,25.02c-12.323,1.746-33.492,3.334-49.089,23.213
        c-15.597,19.878-15.46,43.54-21.557,50.747c-20.472,24.196-40.82,13.749-41.186,34.17c-0.164,9.146,15.213,16.005,17.724,13.1
        c2.51-2.905-20.671-12.105,5.628-22.024C46.823,137.176,48.846,135.403,55.571,141.777z"
        transform="translate(320.5 316.5)"
        /><path
  d=" M 0 0 10.0 0  C 10.000000 -17.000000 26.000000 17.000000 26.000000 0  S 42.0 17.0 42.0 0  S 58.0 -11.0 58.0 0  S 74.0 11.0 74.0 0  S 90.0 14.0 90.0 0  M 90.0 0 100 0" stroke="black" fill="transparent"
  transform="translate(339.230000 484.170000) rotate (122.673360 0 0) scale (0.881049 1)"/>
  <path
  d=" M 0 0 10.0 0  C 10.000000 -13.000000 20.000000 12.000000 20.000000 0  S 30.0 19.0 30.0 0  S 40.0 -14.0 40.0 0  S 50.0 13.0 50.0 0  S 60.0 -18.0 60.0 0  S 70.0 12.0 70.0 0  S 80.0 -10.0 80.0 0  S 90.0 11.0 90.0 0  M 90.0 0 100 0" stroke="black" fill="transparent"
  transform="translate(384.240000 386.150000) rotate (165.553858 0 0) scale (1.410324 1)"/>
  <path
  d=" M 0 0 10.0 0  C 10.000000 -15.000000 26.000000 13.000000 26.000000 0  S 42.0 14.0 42.0 0  S 58.0 -18.0 58.0 0  S 74.0 12.0 74.0 0  S 90.0 17.0 90.0 0  M 90.0 0 100 0" stroke="black" fill="transparent"
  transform="translate(436.840000 321.390000) rotate (-112.905241 0 0) scale (0.843764 1)"/>
  <path
  d=" M 0 0 10.0 0  C 10.000000 -12.000000 26.000000 15.000000 26.000000 0  S 42.0 16.0 42.0 0  S 58.0 -15.0 58.0 0  S 74.0 18.0 74.0 0  S 90.0 11.0 90.0 0  M 90.0 0 100 0" stroke="black" fill="transparent"
  transform="translate(465.030000 459.870000) rotate (36.132019 0 0) scale (0.940618 1)"/>
  <path
  d=" M 0 0 10.0 0  C 10.000000 -11.000000 21.428571 11.000000 21.428571 0  S 32.85714285714286 12.0 32.85714285714286 0  S 44.85714285714286 -16.0 44.85714285714286 0  S 56.85714285714286 18.0 56.85714285714286 0  S 68.85714285714286 -11.0 68.85714285714286 0  S 80.85714285714286 17.0 80.85714285714286 0  S 90.0 10.0 90.0 0  M 90.0 0 100 0" stroke="black" fill="transparent"
  transform="translate(475.610000 377.460000) rotate (20.254258 0 0) scale (1.151787 1)"/>
  
</svg>
