<svg xmlns="http://www.w3.org/2000/svg"
  xmlns:xlink="http://www.w3.org/1999/xlink"
  width="1000" height="1000">
<path
  d=" M 0 0 10.0 0  C 10.000000 -10.000000 21.428571 18.000000 21.428571 0  S 32.85714285714286 13.0 32.85714285714286 0  S 44.85714285714286 -19.0 44.85714285714286 0  S 56.85714285714286 14.0 56.85714285714286 0  S 68.85714285714286 -19.0 68.85714285714286 0  S 80.85714285714286 16.0 80.85714285714286 0  S 90.0 14.0 90.0 0  M 90.0 0 100 0" stroke="black" fill="transparent"
  transform="translate(415.666667 576.333333) rotate (-21.018595 0 0) scale (0.724898 1)"/>
  <path
  d=" M 0 0 10.0 0  C 10.000000 -18.000000 20.000000 12.000000 20.000000 0  S 30.0 11.0 30.0 0  S 40.0 -19.0 40.0 0  S 50.0 17.0 50.0 0  S 60.0 -16.0 60.0 0  S 70.0 18.0 70.0 0  S 80.0 -18.0 80.0 0  S 90.0 11.0 90.0 0  M 90.0 0 100 0" stroke="black" fill="transparent"
  transform="translate(483.333333 550.333333) rotate (-41.463747 0 0) scale (0.840701 1)"/>
  <path
  d=" M 0 0 10.0 0  C 10.000000 -10.000000 20.000000 15.000000 20.000000 0  S 30.0 18.0 30.0 0  S 40.0 -16.0 40.0 0  S 50.0 13.0 50.0 0  S 60.0 -13.0 60.0 0  S 70.0 13.0 70.0 0  S 80.0 -19.0 80.0 0  S 90.0 19.0 90.0 0  M 90.0 0 100 0" stroke="black" fill="transparent"
  transform="translate(546.333333 494.666667) rotate (-66.156283 0 0) scale (0.816340 1)"/>
  <path
  d=" M 0 0 10.0 0  C 10.000000 -18.000000 26.000000 11.000000 26.000000 0  S 42.0 13.0 42.0 0  S 58.0 -18.0 58.0 0  S 74.0 11.0 74.0 0  S 90.0 16.0 90.0 0  M 90.0 0 100 0" stroke="black" fill="transparent"
  transform="translate(579.333333 420.000000) rotate (-90.000000 0 0) scale (0.653333 1)"/>
  <path
  d=" M 0 0 10.0 0  C 10.000000 -13.000000 26.000000 11.000000 26.000000 0  S 42.0 12.0 42.0 0  S 58.0 -17.0 58.0 0  S 74.0 11.0 74.0 0  S 90.0 17.0 90.0 0  M 90.0 0 100 0" stroke="black" fill="transparent"
  transform="translate(548.666667 296.000000) rotate (62.402704 0 0) scale (0.661984 1)"/>
  <path
  d=" M 0 0 10.0 0  C 10.000000 -12.000000 20.000000 11.000000 20.000000 0  S 30.0 18.0 30.0 0  S 40.0 -16.0 40.0 0  S 50.0 19.0 50.0 0  S 60.0 -17.0 60.0 0  S 70.0 17.0 70.0 0  S 80.0 -10.0 80.0 0  S 90.0 11.0 90.0 0  M 90.0 0 100 0" stroke="black" fill="transparent"
  transform="translate(484.333333 249.333333) rotate (35.956703 0 0) scale (0.794768 1)"/>
  <path
  d=" M 0 0 10.0 0  C 10.000000 -11.000000 23.333333 18.000000 23.333333 0  S 36.66666666666667 10.0 36.66666666666667 0  S 50.66666666666667 -17.0 50.66666666666667 0  S 64.66666666666667 16.0 64.66666666666667 0  S 78.66666666666667 -11.0 78.66666666666667 0  S 90.0 17.0 90.0 0  M 90.0 0 100 0" stroke="black" fill="transparent"
  transform="translate(379.333333 243.666667) rotate (3.089156 0 0) scale (1.051528 1)"/>
  <path
  d=" M 0 0 10.0 0  C 10.000000 -17.000000 23.333333 15.000000 23.333333 0  S 36.66666666666667 11.0 36.66666666666667 0  S 50.66666666666667 -16.0 50.66666666666667 0  S 64.66666666666667 17.0 64.66666666666667 0  S 78.66666666666667 -13.0 78.66666666666667 0  S 90.0 10.0 90.0 0  M 90.0 0 100 0" stroke="black" fill="transparent"
  transform="translate(279.000000 289.000000) rotate (-24.314749 0 0) scale (1.100994 1)"/>
  <path
  d=" M 0 0 10.0 0  C 10.000000 -18.000000 23.333333 13.000000 23.333333 0  S 36.66666666666667 17.0 36.66666666666667 0  S 50.66666666666667 -17.0 50.66666666666667 0  S 64.66666666666667 18.0 64.66666666666667 0  S 78.66666666666667 -14.0 78.66666666666667 0  S 90.0 16.0 90.0 0  M 90.0 0 100 0" stroke="black" fill="transparent"
  transform="translate(253.000000 414.666667) rotate (-78.310631 0 0) scale (1.283281 1)"/>
  <path
  d=" M 0 0 10.0 0  C 10.000000 -10.000000 23.333333 12.000000 23.333333 0  S 36.66666666666667 15.0 36.66666666666667 0  S 50.66666666666667 -11.0 50.66666666666667 0  S 64.66666666666667 10.0 64.66666666666667 0  S 78.66666666666667 -16.0 78.66666666666667 0  S 90.0 19.0 90.0 0  M 90.0 0 100 0" stroke="black" fill="transparent"
  transform="translate(253.000000 414.666667) rotate (61.282884 0 0) scale (1.429110 1)"/>
  <path
  d=" M 0 0 10.0 0  C 10.000000 -14.000000 26.000000 14.000000 26.000000 0  S 42.0 15.0 42.0 0  S 58.0 -15.0 58.0 0  S 74.0 17.0 74.0 0  S 90.0 15.0 90.0 0  M 90.0 0 100 0" stroke="black" fill="transparent"
  transform="translate(321.666667 540.000000) rotate (21.132754 0 0) scale (1.007775 1)"/>
  <path
  d=" M 0 0 10.0 0  C 10.000000 -12.000000 23.333333 11.000000 23.333333 0  S 36.66666666666667 12.0 36.66666666666667 0  S 50.66666666666667 -18.0 50.66666666666667 0  S 64.66666666666667 19.0 64.66666666666667 0  S 78.66666666666667 -16.0 78.66666666666667 0  S 90.0 17.0 90.0 0  M 90.0 0 100 0" stroke="black" fill="transparent"
  transform="translate(709.333333 809.666667) rotate (56.959762 0 0) scale (0.489092 1)"/>
  <path
  d=" M 0 0 10.0 0  C 10.000000 -16.000000 20.000000 10.000000 20.000000 0  S 30.0 11.0 30.0 0  S 40.0 -17.0 40.0 0  S 50.0 16.0 50.0 0  S 60.0 -17.0 60.0 0  S 70.0 16.0 70.0 0  S 80.0 -17.0 80.0 0  S 90.0 19.0 90.0 0  M 90.0 0 100 0" stroke="black" fill="transparent"
  transform="translate(736.000000 850.666667) rotate (2.267955 0 0) scale (0.673861 1)"/>
  <path
  d=" M 0 0 10.0 0  C 10.000000 -19.000000 21.428571 13.000000 21.428571 0  S 32.85714285714286 14.0 32.85714285714286 0  S 44.85714285714286 -19.0 44.85714285714286 0  S 56.85714285714286 17.0 56.85714285714286 0  S 68.85714285714286 -18.0 68.85714285714286 0  S 80.85714285714286 18.0 80.85714285714286 0  S 90.0 10.0 90.0 0  M 90.0 0 100 0" stroke="black" fill="transparent"
  transform="translate(803.333333 853.333333) rotate (-50.710593 0 0) scale (0.568507 1)"/>
  <path
  d=" M 0 0 10.0 0  C 10.000000 -16.000000 26.000000 14.000000 26.000000 0  S 42.0 15.0 42.0 0  S 58.0 -19.0 58.0 0  S 74.0 16.0 74.0 0  S 90.0 11.0 90.0 0  M 90.0 0 100 0" stroke="black" fill="transparent"
  transform="translate(806.666667 748.000000) rotate (61.959847 0 0) scale (0.694902 1)"/>
  <path
  d=" M 0 0 10.0 0  C 10.000000 -15.000000 23.333333 10.000000 23.333333 0  S 36.66666666666667 13.0 36.66666666666667 0  S 50.66666666666667 -11.0 50.66666666666667 0  S 64.66666666666667 17.0 64.66666666666667 0  S 78.66666666666667 -18.0 78.66666666666667 0  S 90.0 19.0 90.0 0  M 90.0 0 100 0" stroke="black" fill="transparent"
  transform="translate(744.000000 751.000000) rotate (-2.740791 0 0) scale (0.627384 1)"/>
  <path
  d=" M 0 0 10.0 0  C 10.000000 -15.000000 23.333333 13.000000 23.333333 0  S 36.66666666666667 13.0 36.66666666666667 0  S 50.66666666666667 -13.0 50.66666666666667 0  S 64.66666666666667 17.0 64.66666666666667 0  S 78.66666666666667 -18.0 78.66666666666667 0  S 90.0 16.0 90.0 0  M 90.0 0 100 0" stroke="black" fill="transparent"
  transform="translate(709.333333 809.666667) rotate (-59.420773 0 0) scale (0.681436 1)"/>
  <path
  d=" M 0 0 10.0 0  C 10.000000 -13.000000 26.000000 10.000000 26.000000 0  S 42.0 15.0 42.0 0  S 58.0 -13.0 58.0 0  S 74.0 17.0 74.0 0  S 90.0 10.0 90.0 0  M 90.0 0 100 0" stroke="black" fill="transparent"
  transform="translate(631.000000 726.666667) rotate (-16.720873 0 0) scale (0.845761 1)"/>
  <path
  d=" M 0 0 10.0 0  C 10.000000 -11.000000 23.333333 18.000000 23.333333 0  S 36.66666666666667 17.0 36.66666666666667 0  S 50.66666666666667 -16.0 50.66666666666667 0  S 64.66666666666667 18.0 64.66666666666667 0  S 78.66666666666667 -16.0 78.66666666666667 0  S 90.0 14.0 90.0 0  M 90.0 0 100 0" stroke="black" fill="transparent"
  transform="translate(587.666667 696.333333) rotate (34.992020 0 0) scale (0.528951 1)"/>
  <path
  d=" M 0 0 10.0 0  C 10.000000 -13.000000 26.000000 15.000000 26.000000 0  S 42.0 18.0 42.0 0  S 58.0 -10.0 58.0 0  S 74.0 14.0 74.0 0  S 90.0 10.0 90.0 0  M 90.0 0 100 0" stroke="black" fill="transparent"
  transform="translate(587.666667 696.333333) rotate (-82.056528 0 0) scale (0.578888 1)"/>
  <path
  d=" M 0 0 10.0 0  C 10.000000 -19.000000 23.333333 18.000000 23.333333 0  S 36.66666666666667 10.0 36.66666666666667 0  S 50.66666666666667 -13.0 50.66666666666667 0  S 64.66666666666667 18.0 64.66666666666667 0  S 78.66666666666667 -18.0 78.66666666666667 0  S 90.0 14.0 90.0 0  M 90.0 0 100 0" stroke="black" fill="transparent"
  transform="translate(595.666667 639.000000) rotate (-41.869755 0 0) scale (0.604299 1)"/>
  <path
  d=" M 0 0 10.0 0  C 10.000000 -17.000000 26.000000 13.000000 26.000000 0  S 42.0 19.0 42.0 0  S 58.0 -13.0 58.0 0  S 74.0 19.0 74.0 0  S 90.0 19.0 90.0 0  M 90.0 0 100 0" stroke="black" fill="transparent"
  transform="translate(640.666667 598.666667) rotate (-2.526117 0 0) scale (0.680661 1)"/>
  <path
  d=" M 0 0 10.0 0  C 10.000000 -17.000000 26.000000 15.000000 26.000000 0  S 42.0 13.0 42.0 0  S 58.0 -12.0 58.0 0  S 74.0 13.0 74.0 0  S 90.0 11.0 90.0 0  M 90.0 0 100 0" stroke="black" fill="transparent"
  transform="translate(708.666667 595.666667) rotate (50.984952 0 0) scale (0.587745 1)"/>
  <path
  d=" M 0 0 10.0 0  C 10.000000 -12.000000 23.333333 13.000000 23.333333 0  S 36.66666666666667 16.0 36.66666666666667 0  S 50.66666666666667 -13.0 50.66666666666667 0  S 64.66666666666667 15.0 64.66666666666667 0  S 78.66666666666667 -17.0 78.66666666666667 0  S 90.0 11.0 90.0 0  M 90.0 0 100 0" stroke="black" fill="transparent"
  transform="translate(712.000000 702.333333) rotate (-61.105142 0 0) scale (0.696738 1)"/>
  <path
  d=" M 0 0 10.0 0  C 10.000000 -15.000000 20.000000 18.000000 20.000000 0  S 30.0 13.0 30.0 0  S 40.0 -11.0 40.0 0  S 50.0 15.0 50.0 0  S 60.0 -19.0 60.0 0  S 70.0 15.0 70.0 0  S 80.0 -15.0 80.0 0  S 90.0 16.0 90.0 0  M 90.0 0 100 0" stroke="black" fill="transparent"
  transform="translate(71.000000 540.333333) rotate (-82.318095 0 0) scale (0.723157 1)"/>
  <path
  d=" M 0 0 10.0 0  C 10.000000 -12.000000 21.428571 16.000000 21.428571 0  S 32.85714285714286 10.0 32.85714285714286 0  S 44.85714285714286 -14.0 44.85714285714286 0  S 56.85714285714286 19.0 56.85714285714286 0  S 68.85714285714286 -15.0 68.85714285714286 0  S 80.85714285714286 19.0 80.85714285714286 0  S 90.0 14.0 90.0 0  M 90.0 0 100 0" stroke="black" fill="transparent"
  transform="translate(71.000000 540.333333) rotate (51.892423 0 0) scale (0.648151 1)"/>
  <path
  d=" M 0 0 10.0 0  C 10.000000 -10.000000 23.333333 15.000000 23.333333 0  S 36.66666666666667 17.0 36.66666666666667 0  S 50.66666666666667 -10.0 50.66666666666667 0  S 64.66666666666667 11.0 64.66666666666667 0  S 78.66666666666667 -14.0 78.66666666666667 0  S 90.0 13.0 90.0 0  M 90.0 0 100 0" stroke="black" fill="transparent"
  transform="translate(111.000000 591.333333) rotate (-82.318095 0 0) scale (0.723157 1)"/>
  <path
  d=" M 0 0 10.0 0  C 10.000000 -18.000000 20.000000 19.000000 20.000000 0  S 30.0 14.0 30.0 0  S 40.0 -17.0 40.0 0  S 50.0 14.0 50.0 0  S 60.0 -16.0 60.0 0  S 70.0 14.0 70.0 0  S 80.0 -19.0 80.0 0  S 90.0 17.0 90.0 0  M 90.0 0 100 0" stroke="black" fill="transparent"
  transform="translate(80.666667 468.666667) rotate (51.892423 0 0) scale (0.648151 1)"/>
  <path
  d=" M 0 0 10.0 0  C 10.000000 -12.000000 21.428571 12.000000 21.428571 0  S 32.85714285714286 12.0 32.85714285714286 0  S 44.85714285714286 -18.0 44.85714285714286 0  S 56.85714285714286 18.0 56.85714285714286 0  S 68.85714285714286 -18.0 68.85714285714286 0  S 80.85714285714286 10.0 80.85714285714286 0  S 90.0 18.0 90.0 0  M 90.0 0 100 0" stroke="black" fill="transparent"
  transform="translate(639.000000 897.666667) rotate (9.226344 0 0) scale (0.665274 1)"/>
  <path
  d=" M 0 0 10.0 0  C 10.000000 -16.000000 20.000000 18.000000 20.000000 0  S 30.0 17.0 30.0 0  S 40.0 -12.0 40.0 0  S 50.0 19.0 50.0 0  S 60.0 -12.0 60.0 0  S 70.0 16.0 70.0 0  S 80.0 -19.0 80.0 0  S 90.0 16.0 90.0 0  M 90.0 0 100 0" stroke="black" fill="transparent"
  transform="translate(704.666667 908.333333) rotate (-61.482440 0 0) scale (0.656294 1)"/>
  <path
  d=" M 0 0 10.0 0  C 10.000000 -10.000000 26.000000 18.000000 26.000000 0  S 42.0 11.0 42.0 0  S 58.0 -13.0 58.0 0  S 74.0 15.0 74.0 0  S 90.0 16.0 90.0 0  M 90.0 0 100 0" stroke="black" fill="transparent"
  transform="translate(645.000000 829.000000) rotate (-16.726476 0 0) scale (0.671756 1)"/>
  <path
  d=" M 0 0 10.0 0  C 10.000000 -14.000000 26.000000 10.000000 26.000000 0  S 42.0 17.0 42.0 0  S 58.0 -16.0 58.0 0  S 74.0 12.0 74.0 0  S 90.0 17.0 90.0 0  M 90.0 0 100 0" stroke="black" fill="transparent"
  transform="translate(639.000000 897.666667) rotate (-85.006256 0 0) scale (0.689283 1)"/>
  <path
  d=" M 0 0 10.0 0  C 10.000000 -12.000000 23.333333 10.000000 23.333333 0  S 36.66666666666667 14.0 36.66666666666667 0  S 50.66666666666667 -16.0 50.66666666666667 0  S 64.66666666666667 12.0 64.66666666666667 0  S 78.66666666666667 -18.0 78.66666666666667 0  S 90.0 15.0 90.0 0  M 90.0 0 100 0" stroke="black" fill="transparent"
  transform="translate(735.666667 936.666667) rotate (-22.689973 0 0) scale (0.838206 1)"/>
  <path
  d=" M 0 0 10.0 0  C 10.000000 -16.000000 20.000000 16.000000 20.000000 0  S 30.0 12.0 30.0 0  S 40.0 -17.0 40.0 0  S 50.0 13.0 50.0 0  S 60.0 -14.0 60.0 0  S 70.0 10.0 70.0 0  S 80.0 -10.0 80.0 0  S 90.0 14.0 90.0 0  M 90.0 0 100 0" stroke="black" fill="transparent"
  transform="translate(813.000000 904.333333) rotate (41.325500 0 0) scale (0.514889 1)"/>
  <path
  d=" M 0 0 10.0 0  C 10.000000 -16.000000 21.428571 10.000000 21.428571 0  S 32.85714285714286 12.0 32.85714285714286 0  S 44.85714285714286 -14.0 44.85714285714286 0  S 56.85714285714286 18.0 56.85714285714286 0  S 68.85714285714286 -19.0 68.85714285714286 0  S 80.85714285714286 16.0 80.85714285714286 0  S 90.0 12.0 90.0 0  M 90.0 0 100 0" stroke="black" fill="transparent"
  transform="translate(774.333333 970.666667) rotate (-22.689973 0 0) scale (0.838206 1)"/>
  <path
  d=" M 0 0 10.0 0  C 10.000000 -11.000000 20.000000 13.000000 20.000000 0  S 30.0 13.0 30.0 0  S 40.0 -11.0 40.0 0  S 50.0 18.0 50.0 0  S 60.0 -19.0 60.0 0  S 70.0 13.0 70.0 0  S 80.0 -18.0 80.0 0  S 90.0 11.0 90.0 0  M 90.0 0 100 0" stroke="black" fill="transparent"
  transform="translate(735.666667 936.666667) rotate (41.325500 0 0) scale (0.514889 1)"/>
  <path
  d=" M 0 0 10.0 0  C 10.000000 -11.000000 23.333333 15.000000 23.333333 0  S 36.66666666666667 19.0 36.66666666666667 0  S 50.66666666666667 -11.0 50.66666666666667 0  S 64.66666666666667 15.0 64.66666666666667 0  S 78.66666666666667 -18.0 78.66666666666667 0  S 90.0 16.0 90.0 0  M 90.0 0 100 0" stroke="black" fill="transparent"
  transform="translate(297.333333 858.666667) rotate (86.423666 0 0) scale (0.534374 1)"/>
  <path
  d=" M 0 0 10.0 0  C 10.000000 -10.000000 20.000000 19.000000 20.000000 0  S 30.0 16.0 30.0 0  S 40.0 -11.0 40.0 0  S 50.0 16.0 50.0 0  S 60.0 -17.0 60.0 0  S 70.0 15.0 70.0 0  S 80.0 -19.0 80.0 0  S 90.0 12.0 90.0 0  M 90.0 0 100 0" stroke="black" fill="transparent"
  transform="translate(237.000000 853.000000) rotate (5.365631 0 0) scale (0.605989 1)"/>
  <path
  d=" M 0 0 10.0 0  C 10.000000 -16.000000 20.000000 10.000000 20.000000 0  S 30.0 13.0 30.0 0  S 40.0 -15.0 40.0 0  S 50.0 19.0 50.0 0  S 60.0 -17.0 60.0 0  S 70.0 16.0 70.0 0  S 80.0 -13.0 80.0 0  S 90.0 14.0 90.0 0  M 90.0 0 100 0" stroke="black" fill="transparent"
  transform="translate(237.000000 853.000000) rotate (86.423666 0 0) scale (0.534374 1)"/>
  <path
  d=" M 0 0 10.0 0  C 10.000000 -11.000000 26.000000 13.000000 26.000000 0  S 42.0 17.0 42.0 0  S 58.0 -13.0 58.0 0  S 74.0 11.0 74.0 0  S 90.0 16.0 90.0 0  M 90.0 0 100 0" stroke="black" fill="transparent"
  transform="translate(240.333333 906.333333) rotate (5.365631 0 0) scale (0.605989 1)"/>
  <path
  d=" M 0 0 10.0 0  C 10.000000 -12.000000 20.000000 19.000000 20.000000 0  S 30.0 11.0 30.0 0  S 40.0 -19.0 40.0 0  S 50.0 13.0 50.0 0  S 60.0 -13.0 60.0 0  S 70.0 19.0 70.0 0  S 80.0 -13.0 80.0 0  S 90.0 12.0 90.0 0  M 90.0 0 100 0" stroke="black" fill="transparent"
  transform="translate(533.333333 641.666667) rotate (-2.449663 0 0) scale (0.623903 1)"/>
  <path
  d=" M 0 0 10.0 0  C 10.000000 -10.000000 21.428571 12.000000 21.428571 0  S 32.85714285714286 18.0 32.85714285714286 0  S 44.85714285714286 -19.0 44.85714285714286 0  S 56.85714285714286 16.0 56.85714285714286 0  S 68.85714285714286 -13.0 68.85714285714286 0  S 80.85714285714286 16.0 80.85714285714286 0  S 90.0 13.0 90.0 0  M 90.0 0 100 0" stroke="black" fill="transparent"
  transform="translate(533.666667 737.000000) rotate (-36.982907 0 0) scale (0.676001 1)"/>
  <path
  d=" M 0 0 10.0 0  C 10.000000 -19.000000 26.000000 19.000000 26.000000 0  S 42.0 16.0 42.0 0  S 58.0 -13.0 58.0 0  S 74.0 19.0 74.0 0  S 90.0 19.0 90.0 0  M 90.0 0 100 0" stroke="black" fill="transparent"
  transform="translate(507.000000 702.666667) rotate (52.163547 0 0) scale (0.434729 1)"/>
  <path
  d=" M 0 0 10.0 0  C 10.000000 -16.000000 21.428571 18.000000 21.428571 0  S 32.85714285714286 14.0 32.85714285714286 0  S 44.85714285714286 -10.0 44.85714285714286 0  S 56.85714285714286 14.0 56.85714285714286 0  S 68.85714285714286 -10.0 68.85714285714286 0  S 80.85714285714286 10.0 80.85714285714286 0  S 90.0 11.0 90.0 0  M 90.0 0 100 0" stroke="black" fill="transparent"
  transform="translate(507.000000 702.666667) rotate (-66.650433 0 0) scale (0.664413 1)"/>
  <path
  d=" M 0 0 10.0 0  C 10.000000 -17.000000 26.000000 19.000000 26.000000 0  S 42.0 12.0 42.0 0  S 58.0 -11.0 58.0 0  S 74.0 10.0 74.0 0  S 90.0 13.0 90.0 0  M 90.0 0 100 0" stroke="black" fill="transparent"
  transform="translate(314.333333 73.000000) rotate (12.596573 0 0) scale (0.611383 1)"/>
  <path
  d=" M 0 0 10.0 0  C 10.000000 -16.000000 20.000000 17.000000 20.000000 0  S 30.0 18.0 30.0 0  S 40.0 -10.0 40.0 0  S 50.0 16.0 50.0 0  S 60.0 -12.0 60.0 0  S 70.0 12.0 70.0 0  S 80.0 -19.0 80.0 0  S 90.0 11.0 90.0 0  M 90.0 0 100 0" stroke="black" fill="transparent"
  transform="translate(222.333333 99.666667) rotate (-16.164499 0 0) scale (0.957868 1)"/>
  <path
  d=" M 0 0 10.0 0  C 10.000000 -10.000000 20.000000 18.000000 20.000000 0  S 30.0 15.0 30.0 0  S 40.0 -14.0 40.0 0  S 50.0 19.0 50.0 0  S 60.0 -15.0 60.0 0  S 70.0 10.0 70.0 0  S 80.0 -19.0 80.0 0  S 90.0 19.0 90.0 0  M 90.0 0 100 0" stroke="black" fill="transparent"
  transform="translate(222.333333 99.666667) rotate (57.949854 0 0) scale (0.452266 1)"/>
  <path
  d=" M 0 0 10.0 0  C 10.000000 -12.000000 26.000000 18.000000 26.000000 0  S 42.0 14.0 42.0 0  S 58.0 -11.0 58.0 0  S 74.0 10.0 74.0 0  S 90.0 15.0 90.0 0  M 90.0 0 100 0" stroke="black" fill="transparent"
  transform="translate(246.333333 138.000000) rotate (-16.616646 0 0) scale (0.664413 1)"/>
  <path
  d=" M 0 0 10.0 0  C 10.000000 -11.000000 26.000000 12.000000 26.000000 0  S 42.0 10.0 42.0 0  S 58.0 -10.0 58.0 0  S 74.0 15.0 74.0 0  S 90.0 14.0 90.0 0  M 90.0 0 100 0" stroke="black" fill="transparent"
  transform="translate(310.000000 119.000000) rotate (-27.040524 0 0) scale (0.718548 1)"/>
  <path
  d=" M 0 0 10.0 0  C 10.000000 -15.000000 26.000000 14.000000 26.000000 0  S 42.0 11.0 42.0 0  S 58.0 -16.0 58.0 0  S 74.0 19.0 74.0 0  S 90.0 15.0 90.0 0  M 90.0 0 100 0" stroke="black" fill="transparent"
  transform="translate(904.000000 800.000000) rotate (41.406434 0 0) scale (0.488865 1)"/>
  <path
  d=" M 0 0 10.0 0  C 10.000000 -15.000000 21.428571 12.000000 21.428571 0  S 32.85714285714286 15.0 32.85714285714286 0  S 44.85714285714286 -14.0 44.85714285714286 0  S 56.85714285714286 16.0 56.85714285714286 0  S 68.85714285714286 -15.0 68.85714285714286 0  S 80.85714285714286 13.0 80.85714285714286 0  S 90.0 15.0 90.0 0  M 90.0 0 100 0" stroke="black" fill="transparent"
  transform="translate(940.666667 832.333333) rotate (-71.378421 0 0) scale (0.647216 1)"/>
  <path
  d=" M 0 0 10.0 0  C 10.000000 -11.000000 26.000000 11.000000 26.000000 0  S 42.0 13.0 42.0 0  S 58.0 -17.0 58.0 0  S 74.0 12.0 74.0 0  S 90.0 12.0 90.0 0  M 90.0 0 100 0" stroke="black" fill="transparent"
  transform="translate(924.666667 738.666667) rotate (41.406434 0 0) scale (0.488865 1)"/>
  <path
  d=" M 0 0 10.0 0  C 10.000000 -13.000000 26.000000 11.000000 26.000000 0  S 42.0 10.0 42.0 0  S 58.0 -19.0 58.0 0  S 74.0 14.0 74.0 0  S 90.0 14.0 90.0 0  M 90.0 0 100 0" stroke="black" fill="transparent"
  transform="translate(904.000000 800.000000) rotate (-71.378421 0 0) scale (0.647216 1)"/>
  <path
  d=" M 0 0 10.0 0  C 10.000000 -13.000000 21.428571 16.000000 21.428571 0  S 32.85714285714286 16.0 32.85714285714286 0  S 44.85714285714286 -17.0 44.85714285714286 0  S 56.85714285714286 13.0 56.85714285714286 0  S 68.85714285714286 -14.0 68.85714285714286 0  S 80.85714285714286 14.0 80.85714285714286 0  S 90.0 13.0 90.0 0  M 90.0 0 100 0" stroke="black" fill="transparent"
  transform="translate(940.666667 408.000000) rotate (-81.505624 0 0) scale (0.519027 1)"/>
  <path
  d=" M 0 0 10.0 0  C 10.000000 -17.000000 23.333333 16.000000 23.333333 0  S 36.66666666666667 14.0 36.66666666666667 0  S 50.66666666666667 -15.0 50.66666666666667 0  S 64.66666666666667 18.0 64.66666666666667 0  S 78.66666666666667 -10.0 78.66666666666667 0  S 90.0 10.0 90.0 0  M 90.0 0 100 0" stroke="black" fill="transparent"
  transform="translate(901.000000 436.000000) rotate (-35.217593 0 0) scale (0.485535 1)"/>
  <path
  d=" M 0 0 10.0 0  C 10.000000 -18.000000 20.000000 14.000000 20.000000 0  S 30.0 11.0 30.0 0  S 40.0 -14.0 40.0 0  S 50.0 13.0 50.0 0  S 60.0 -19.0 60.0 0  S 70.0 13.0 70.0 0  S 80.0 -17.0 80.0 0  S 90.0 15.0 90.0 0  M 90.0 0 100 0" stroke="black" fill="transparent"
  transform="translate(835.666667 435.666667) rotate (0.292323 0 0) scale (0.653342 1)"/>
  <path
  d=" M 0 0 10.0 0  C 10.000000 -18.000000 26.000000 11.000000 26.000000 0  S 42.0 18.0 42.0 0  S 58.0 -17.0 58.0 0  S 74.0 15.0 74.0 0  S 90.0 13.0 90.0 0  M 90.0 0 100 0" stroke="black" fill="transparent"
  transform="translate(805.000000 393.666667) rotate (53.864623 0 0) scale (0.520043 1)"/>
  <path
  d=" M 0 0 10.0 0  C 10.000000 -14.000000 20.000000 13.000000 20.000000 0  S 30.0 11.0 30.0 0  S 40.0 -12.0 40.0 0  S 50.0 14.0 50.0 0  S 60.0 -13.0 60.0 0  S 70.0 10.0 70.0 0  S 80.0 -14.0 80.0 0  S 90.0 10.0 90.0 0  M 90.0 0 100 0" stroke="black" fill="transparent"
  transform="translate(805.000000 393.666667) rotate (-63.940859 0 0) scale (0.675319 1)"/>
  <path
  d=" M 0 0 10.0 0  C 10.000000 -18.000000 21.428571 15.000000 21.428571 0  S 32.85714285714286 13.0 32.85714285714286 0  S 44.85714285714286 -10.0 44.85714285714286 0  S 56.85714285714286 10.0 56.85714285714286 0  S 68.85714285714286 -15.0 68.85714285714286 0  S 80.85714285714286 10.0 80.85714285714286 0  S 90.0 16.0 90.0 0  M 90.0 0 100 0" stroke="black" fill="transparent"
  transform="translate(834.666667 333.000000) rotate (-15.455999 0 0) scale (0.750474 1)"/>
  <path
  d=" M 0 0 10.0 0  C 10.000000 -12.000000 23.333333 19.000000 23.333333 0  S 36.66666666666667 10.0 36.66666666666667 0  S 50.66666666666667 -19.0 50.66666666666667 0  S 64.66666666666667 15.0 64.66666666666667 0  S 78.66666666666667 -19.0 78.66666666666667 0  S 90.0 16.0 90.0 0  M 90.0 0 100 0" stroke="black" fill="transparent"
  transform="translate(907.000000 313.000000) rotate (46.572430 0 0) scale (0.601267 1)"/>
  <path
  d=" M 0 0 10.0 0  C 10.000000 -10.000000 21.428571 10.000000 21.428571 0  S 32.85714285714286 13.0 32.85714285714286 0  S 44.85714285714286 -19.0 44.85714285714286 0  S 56.85714285714286 16.0 56.85714285714286 0  S 68.85714285714286 -19.0 68.85714285714286 0  S 80.85714285714286 14.0 80.85714285714286 0  S 90.0 17.0 90.0 0  M 90.0 0 100 0" stroke="black" fill="transparent"
  transform="translate(902.666667 553.666667) rotate (-47.272450 0 0) scale (0.594437 1)"/>
  <path
  d=" M 0 0 10.0 0  C 10.000000 -16.000000 20.000000 14.000000 20.000000 0  S 30.0 17.0 30.0 0  S 40.0 -12.0 40.0 0  S 50.0 16.0 50.0 0  S 60.0 -18.0 60.0 0  S 70.0 15.0 70.0 0  S 80.0 -19.0 80.0 0  S 90.0 10.0 90.0 0  M 90.0 0 100 0" stroke="black" fill="transparent"
  transform="translate(835.333333 549.000000) rotate (3.964655 0 0) scale (0.674949 1)"/>
  <path
  d=" M 0 0 10.0 0  C 10.000000 -15.000000 26.000000 17.000000 26.000000 0  S 42.0 10.0 42.0 0  S 58.0 -19.0 58.0 0  S 74.0 15.0 74.0 0  S 90.0 14.0 90.0 0  M 90.0 0 100 0" stroke="black" fill="transparent"
  transform="translate(810.333333 505.000000) rotate (60.395549 0 0) scale (0.506063 1)"/>
  <path
  d=" M 0 0 10.0 0  C 10.000000 -17.000000 21.428571 16.000000 21.428571 0  S 32.85714285714286 13.0 32.85714285714286 0  S 44.85714285714286 -11.0 44.85714285714286 0  S 56.85714285714286 13.0 56.85714285714286 0  S 68.85714285714286 -11.0 68.85714285714286 0  S 80.85714285714286 17.0 80.85714285714286 0  S 90.0 12.0 90.0 0  M 90.0 0 100 0" stroke="black" fill="transparent"
  transform="translate(810.333333 505.000000) rotate (-69.928474 0 0) scale (0.738166 1)"/>
  <path
  d=" M 0 0 10.0 0  C 10.000000 -12.000000 21.428571 10.000000 21.428571 0  S 32.85714285714286 15.0 32.85714285714286 0  S 44.85714285714286 -11.0 44.85714285714286 0  S 56.85714285714286 11.0 56.85714285714286 0  S 68.85714285714286 -17.0 68.85714285714286 0  S 80.85714285714286 19.0 80.85714285714286 0  S 90.0 12.0 90.0 0  M 90.0 0 100 0" stroke="black" fill="transparent"
  transform="translate(901.000000 436.000000) rotate (60.422161 0 0) scale (0.850882 1)"/>
  <path
  d=" M 0 0 10.0 0  C 10.000000 -15.000000 23.333333 13.000000 23.333333 0  S 36.66666666666667 16.0 36.66666666666667 0  S 50.66666666666667 -18.0 50.66666666666667 0  S 64.66666666666667 10.0 64.66666666666667 0  S 78.66666666666667 -10.0 78.66666666666667 0  S 90.0 15.0 90.0 0  M 90.0 0 100 0" stroke="black" fill="transparent"
  transform="translate(207.333333 756.666667) rotate (86.729512 0 0) scale (0.584285 1)"/>
  <path
  d=" M 0 0 10.0 0  C 10.000000 -17.000000 26.000000 12.000000 26.000000 0  S 42.0 19.0 42.0 0  S 58.0 -10.0 58.0 0  S 74.0 13.0 74.0 0  S 90.0 10.0 90.0 0  M 90.0 0 100 0" stroke="black" fill="transparent"
  transform="translate(156.000000 840.000000) rotate (-24.575427 0 0) scale (0.601119 1)"/>
  <path
  d=" M 0 0 10.0 0  C 10.000000 -12.000000 26.000000 11.000000 26.000000 0  S 42.0 12.0 42.0 0  S 58.0 -10.0 58.0 0  S 74.0 13.0 74.0 0  S 90.0 16.0 90.0 0  M 90.0 0 100 0" stroke="black" fill="transparent"
  transform="translate(117.666667 805.333333) rotate (42.124546 0 0) scale (0.516839 1)"/>
  <path
  d=" M 0 0 10.0 0  C 10.000000 -11.000000 26.000000 16.000000 26.000000 0  S 42.0 10.0 42.0 0  S 58.0 -17.0 58.0 0  S 74.0 18.0 74.0 0  S 90.0 12.0 90.0 0  M 90.0 0 100 0" stroke="black" fill="transparent"
  transform="translate(117.666667 805.333333) rotate (-64.523574 0 0) scale (0.627703 1)"/>
  <path
  d=" M 0 0 10.0 0  C 10.000000 -18.000000 26.000000 11.000000 26.000000 0  S 42.0 17.0 42.0 0  S 58.0 -19.0 58.0 0  S 74.0 19.0 74.0 0  S 90.0 19.0 90.0 0  M 90.0 0 100 0" stroke="black" fill="transparent"
  transform="translate(144.666667 748.666667) rotate (7.275005 0 0) scale (0.631752 1)"/>
  <path
  d=" M 0 0 10.0 0  C 10.000000 -12.000000 21.428571 10.000000 21.428571 0  S 32.85714285714286 11.0 32.85714285714286 0  S 44.85714285714286 -11.0 44.85714285714286 0  S 56.85714285714286 16.0 56.85714285714286 0  S 68.85714285714286 -16.0 68.85714285714286 0  S 80.85714285714286 19.0 80.85714285714286 0  S 90.0 16.0 90.0 0  M 90.0 0 100 0" stroke="black" fill="transparent"
  transform="translate(894.000000 706.666667) rotate (-54.293309 0 0) scale (0.656802 1)"/>
  <path
  d=" M 0 0 10.0 0  C 10.000000 -14.000000 26.000000 19.000000 26.000000 0  S 42.0 17.0 42.0 0  S 58.0 -10.0 58.0 0  S 74.0 16.0 74.0 0  S 90.0 14.0 90.0 0  M 90.0 0 100 0" stroke="black" fill="transparent"
  transform="translate(840.666667 706.666667) rotate (0.000000 0 0) scale (0.533333 1)"/>
  <path
  d=" M 0 0 10.0 0  C 10.000000 -13.000000 20.000000 10.000000 20.000000 0  S 30.0 17.0 30.0 0  S 40.0 -14.0 40.0 0  S 50.0 10.0 50.0 0  S 60.0 -13.0 60.0 0  S 70.0 19.0 70.0 0  S 80.0 -18.0 80.0 0  S 90.0 12.0 90.0 0  M 90.0 0 100 0" stroke="black" fill="transparent"
  transform="translate(811.666667 648.666667) rotate (63.434949 0 0) scale (0.648460 1)"/>
  <path
  d=" M 0 0 10.0 0  C 10.000000 -19.000000 20.000000 17.000000 20.000000 0  S 30.0 14.0 30.0 0  S 40.0 -13.0 40.0 0  S 50.0 15.0 50.0 0  S 60.0 -19.0 60.0 0  S 70.0 16.0 70.0 0  S 80.0 -18.0 80.0 0  S 90.0 17.0 90.0 0  M 90.0 0 100 0" stroke="black" fill="transparent"
  transform="translate(811.666667 648.666667) rotate (-62.175904 0 0) scale (0.407063 1)"/>
  <path
  d=" M 0 0 10.0 0  C 10.000000 -16.000000 21.428571 17.000000 21.428571 0  S 32.85714285714286 11.0 32.85714285714286 0  S 44.85714285714286 -17.0 44.85714285714286 0  S 56.85714285714286 11.0 56.85714285714286 0  S 68.85714285714286 -19.0 68.85714285714286 0  S 80.85714285714286 17.0 80.85714285714286 0  S 90.0 19.0 90.0 0  M 90.0 0 100 0" stroke="black" fill="transparent"
  transform="translate(830.666667 612.666667) rotate (3.964655 0 0) scale (0.674949 1)"/>
  <path
  d=" M 0 0 10.0 0  C 10.000000 -10.000000 23.333333 10.000000 23.333333 0  S 36.66666666666667 11.0 36.66666666666667 0  S 50.66666666666667 -16.0 50.66666666666667 0  S 64.66666666666667 11.0 64.66666666666667 0  S 78.66666666666667 -19.0 78.66666666666667 0  S 90.0 17.0 90.0 0  M 90.0 0 100 0" stroke="black" fill="transparent"
  transform="translate(898.000000 617.333333) rotate (46.357466 0 0) scale (0.497471 1)"/>
  <path
  d=" M 0 0 10.0 0  C 10.000000 -17.000000 26.000000 14.000000 26.000000 0  S 42.0 13.0 42.0 0  S 58.0 -13.0 58.0 0  S 74.0 13.0 74.0 0  S 90.0 19.0 90.0 0  M 90.0 0 100 0" stroke="black" fill="transparent"
  transform="translate(80.666667 468.666667) rotate (-70.457080 0 0) scale (0.926721 1)"/>
  <path
  d=" M 0 0 10.0 0  C 10.000000 -19.000000 23.333333 11.000000 23.333333 0  S 36.66666666666667 14.0 36.66666666666667 0  S 50.66666666666667 -14.0 50.66666666666667 0  S 64.66666666666667 16.0 64.66666666666667 0  S 78.66666666666667 -17.0 78.66666666666667 0  S 90.0 16.0 90.0 0  M 90.0 0 100 0" stroke="black" fill="transparent"
  transform="translate(111.666667 381.333333) rotate (51.892423 0 0) scale (0.648151 1)"/>
  <path
  d=" M 0 0 10.0 0  C 10.000000 -18.000000 23.333333 11.000000 23.333333 0  S 36.66666666666667 17.0 36.66666666666667 0  S 50.66666666666667 -19.0 50.66666666666667 0  S 64.66666666666667 10.0 64.66666666666667 0  S 78.66666666666667 -19.0 78.66666666666667 0  S 90.0 14.0 90.0 0  M 90.0 0 100 0" stroke="black" fill="transparent"
  transform="translate(120.666667 519.666667) rotate (-70.457080 0 0) scale (0.926721 1)"/>
  <path
  d=" M 0 0 10.0 0  C 10.000000 -14.000000 26.000000 11.000000 26.000000 0  S 42.0 12.0 42.0 0  S 58.0 -17.0 58.0 0  S 74.0 12.0 74.0 0  S 90.0 14.0 90.0 0  M 90.0 0 100 0" stroke="black" fill="transparent"
  transform="translate(106.333333 320.333333) rotate (85.003239 0 0) scale (0.612327 1)"/>
  <path
  d=" M 0 0 10.0 0  C 10.000000 -15.000000 23.333333 14.000000 23.333333 0  S 36.66666666666667 19.0 36.66666666666667 0  S 50.66666666666667 -17.0 50.66666666666667 0  S 64.66666666666667 12.0 64.66666666666667 0  S 78.66666666666667 -12.0 78.66666666666667 0  S 90.0 15.0 90.0 0  M 90.0 0 100 0" stroke="black" fill="transparent"
  transform="translate(71.000000 540.333333) rotate (-80.875868 0 0) scale (2.228193 1)"/>
  <path
  d=" M 0 0 10.0 0  C 10.000000 -16.000000 23.333333 18.000000 23.333333 0  S 36.66666666666667 13.0 36.66666666666667 0  S 50.66666666666667 -19.0 50.66666666666667 0  S 64.66666666666667 16.0 64.66666666666667 0  S 78.66666666666667 -18.0 78.66666666666667 0  S 90.0 16.0 90.0 0  M 90.0 0 100 0" stroke="black" fill="transparent"
  transform="translate(371.333333 143.333333) rotate (-27.040524 0 0) scale (0.718548 1)"/>
  <path
  d=" M 0 0 10.0 0  C 10.000000 -10.000000 20.000000 14.000000 20.000000 0  S 30.0 12.0 30.0 0  S 40.0 -17.0 40.0 0  S 50.0 16.0 50.0 0  S 60.0 -15.0 60.0 0  S 70.0 17.0 70.0 0  S 80.0 -16.0 80.0 0  S 90.0 13.0 90.0 0  M 90.0 0 100 0" stroke="black" fill="transparent"
  transform="translate(371.333333 143.333333) rotate (85.441210 0 0) scale (1.006518 1)"/>
  <path
  d=" M 0 0 10.0 0  C 10.000000 -14.000000 26.000000 17.000000 26.000000 0  S 42.0 18.0 42.0 0  S 58.0 -18.0 58.0 0  S 74.0 13.0 74.0 0  S 90.0 18.0 90.0 0  M 90.0 0 100 0" stroke="black" fill="transparent"
  transform="translate(484.333333 249.333333) rotate (-59.010562 0 0) scale (1.275378 1)"/>
  <path
  d=" M 0 0 10.0 0  C 10.000000 -15.000000 26.000000 10.000000 26.000000 0  S 42.0 14.0 42.0 0  S 58.0 -11.0 58.0 0  S 74.0 19.0 74.0 0  S 90.0 12.0 90.0 0  M 90.0 0 100 0" stroke="black" fill="transparent"
  transform="translate(509.000000 101.666667) rotate (43.074816 0 0) scale (0.561288 1)"/>
  <path
  d=" M 0 0 10.0 0  C 10.000000 -14.000000 23.333333 13.000000 23.333333 0  S 36.66666666666667 17.0 36.66666666666667 0  S 50.66666666666667 -10.0 50.66666666666667 0  S 64.66666666666667 12.0 64.66666666666667 0  S 78.66666666666667 -12.0 78.66666666666667 0  S 90.0 10.0 90.0 0  M 90.0 0 100 0" stroke="black" fill="transparent"
  transform="translate(435.333333 110.666667) rotate (-6.965418 0 0) scale (0.742144 1)"/>
  <path
  d=" M 0 0 10.0 0  C 10.000000 -14.000000 23.333333 13.000000 23.333333 0  S 36.66666666666667 10.0 36.66666666666667 0  S 50.66666666666667 -14.0 50.66666666666667 0  S 64.66666666666667 14.0 64.66666666666667 0  S 78.66666666666667 -16.0 78.66666666666667 0  S 90.0 13.0 90.0 0  M 90.0 0 100 0" stroke="black" fill="transparent"
  transform="translate(141.333333 938.333333) rotate (0.626158 0 0) scale (0.610036 1)"/>
  <path
  d=" M 0 0 10.0 0  C 10.000000 -12.000000 21.428571 15.000000 21.428571 0  S 32.85714285714286 16.0 32.85714285714286 0  S 44.85714285714286 -10.0 44.85714285714286 0  S 56.85714285714286 11.0 56.85714285714286 0  S 68.85714285714286 -15.0 68.85714285714286 0  S 80.85714285714286 13.0 80.85714285714286 0  S 90.0 18.0 90.0 0  M 90.0 0 100 0" stroke="black" fill="transparent"
  transform="translate(202.333333 939.000000) rotate (34.215702 0 0) scale (0.705423 1)"/>
  <path
  d=" M 0 0 10.0 0  C 10.000000 -10.000000 21.428571 14.000000 21.428571 0  S 32.85714285714286 13.0 32.85714285714286 0  S 44.85714285714286 -19.0 44.85714285714286 0  S 56.85714285714286 12.0 56.85714285714286 0  S 68.85714285714286 -12.0 68.85714285714286 0  S 80.85714285714286 12.0 80.85714285714286 0  S 90.0 17.0 90.0 0  M 90.0 0 100 0" stroke="black" fill="transparent"
  transform="translate(141.333333 938.333333) rotate (18.674679 0 0) scale (1.259652 1)"/>
  <path
  d=" M 0 0 10.0 0  C 10.000000 -14.000000 23.333333 14.000000 23.333333 0  S 36.66666666666667 11.0 36.66666666666667 0  S 50.66666666666667 -19.0 50.66666666666667 0  S 64.66666666666667 17.0 64.66666666666667 0  S 78.66666666666667 -18.0 78.66666666666667 0  S 90.0 11.0 90.0 0  M 90.0 0 100 0" stroke="black" fill="transparent"
  transform="translate(940.666667 408.000000) rotate (60.422161 0 0) scale (0.850882 1)"/>
  <path
  d=" M 0 0 10.0 0  C 10.000000 -12.000000 21.428571 17.000000 21.428571 0  S 32.85714285714286 19.0 32.85714285714286 0  S 44.85714285714286 -13.0 44.85714285714286 0  S 56.85714285714286 14.0 56.85714285714286 0  S 68.85714285714286 -19.0 68.85714285714286 0  S 80.85714285714286 15.0 80.85714285714286 0  S 90.0 13.0 90.0 0  M 90.0 0 100 0" stroke="black" fill="transparent"
  transform="translate(948.333333 356.666667) rotate (74.680432 0 0) scale (1.299508 1)"/>
  <path
  d=" M 0 0 10.0 0  C 10.000000 -15.000000 21.428571 11.000000 21.428571 0  S 32.85714285714286 11.0 32.85714285714286 0  S 44.85714285714286 -19.0 44.85714285714286 0  S 56.85714285714286 16.0 56.85714285714286 0  S 68.85714285714286 -16.0 68.85714285714286 0  S 80.85714285714286 16.0 80.85714285714286 0  S 90.0 17.0 90.0 0  M 90.0 0 100 0" stroke="black" fill="transparent"
  transform="translate(712.000000 702.333333) rotate (56.673710 0 0) scale (0.582447 1)"/>
  <path
  d=" M 0 0 10.0 0  C 10.000000 -12.000000 20.000000 13.000000 20.000000 0  S 30.0 17.0 30.0 0  S 40.0 -12.0 40.0 0  S 50.0 13.0 50.0 0  S 60.0 -13.0 60.0 0  S 70.0 10.0 70.0 0  S 80.0 -19.0 80.0 0  S 90.0 18.0 90.0 0  M 90.0 0 100 0" stroke="black" fill="transparent"
  transform="translate(806.666667 748.000000) rotate (-50.559947 0 0) scale (0.535205 1)"/>
  <path
  d=" M 0 0 10.0 0  C 10.000000 -10.000000 23.333333 11.000000 23.333333 0  S 36.66666666666667 15.0 36.66666666666667 0  S 50.66666666666667 -19.0 50.66666666666667 0  S 64.66666666666667 15.0 64.66666666666667 0  S 78.66666666666667 -17.0 78.66666666666667 0  S 90.0 19.0 90.0 0  M 90.0 0 100 0" stroke="black" fill="transparent"
  transform="translate(745.666667 641.333333) rotate (6.340192 0 0) scale (0.664062 1)"/>
  <path
  d=" M 0 0 10.0 0  C 10.000000 -16.000000 21.428571 14.000000 21.428571 0  S 32.85714285714286 10.0 32.85714285714286 0  S 44.85714285714286 -10.0 44.85714285714286 0  S 56.85714285714286 13.0 56.85714285714286 0  S 68.85714285714286 -17.0 68.85714285714286 0  S 80.85714285714286 13.0 80.85714285714286 0  S 90.0 12.0 90.0 0  M 90.0 0 100 0" stroke="black" fill="transparent"
  transform="translate(374.000000 86.333333) rotate (21.640165 0 0) scale (0.659840 1)"/>
  <path
  d=" M 0 0 10.0 0  C 10.000000 -17.000000 23.333333 12.000000 23.333333 0  S 36.66666666666667 10.0 36.66666666666667 0  S 50.66666666666667 -13.0 50.66666666666667 0  S 64.66666666666667 16.0 64.66666666666667 0  S 78.66666666666667 -14.0 78.66666666666667 0  S 90.0 10.0 90.0 0  M 90.0 0 100 0" stroke="black" fill="transparent"
  transform="translate(314.333333 73.000000) rotate (-4.173646 0 0) scale (1.236613 1)"/>
  <path
  d=" M 0 0 10.0 0  C 10.000000 -15.000000 23.333333 17.000000 23.333333 0  S 36.66666666666667 10.0 36.66666666666667 0  S 50.66666666666667 -12.0 50.66666666666667 0  S 64.66666666666667 13.0 64.66666666666667 0  S 78.66666666666667 -17.0 78.66666666666667 0  S 90.0 16.0 90.0 0  M 90.0 0 100 0" stroke="black" fill="transparent"
  transform="translate(437.666667 64.000000) rotate (1.861458 0 0) scale (1.334037 1)"/>
  <path
  d=" M 0 0 10.0 0  C 10.000000 -13.000000 23.333333 11.000000 23.333333 0  S 36.66666666666667 16.0 36.66666666666667 0  S 50.66666666666667 -18.0 50.66666666666667 0  S 64.66666666666667 14.0 64.66666666666667 0  S 78.66666666666667 -19.0 78.66666666666667 0  S 90.0 16.0 90.0 0  M 90.0 0 100 0" stroke="black" fill="transparent"
  transform="translate(509.000000 101.666667) rotate (-28.264004 0 0) scale (0.703926 1)"/>
  <path
  d=" M 0 0 10.0 0  C 10.000000 -15.000000 21.428571 16.000000 21.428571 0  S 32.85714285714286 12.0 32.85714285714286 0  S 44.85714285714286 -14.0 44.85714285714286 0  S 56.85714285714286 18.0 56.85714285714286 0  S 68.85714285714286 -16.0 68.85714285714286 0  S 80.85714285714286 12.0 80.85714285714286 0  S 90.0 16.0 90.0 0  M 90.0 0 100 0" stroke="black" fill="transparent"
  transform="translate(907.000000 313.000000) rotate (-61.013959 0 0) scale (0.811672 1)"/>
  <path
  d=" M 0 0 10.0 0  C 10.000000 -15.000000 23.333333 14.000000 23.333333 0  S 36.66666666666667 12.0 36.66666666666667 0  S 50.66666666666667 -10.0 50.66666666666667 0  S 64.66666666666667 17.0 64.66666666666667 0  S 78.66666666666667 -19.0 78.66666666666667 0  S 90.0 15.0 90.0 0  M 90.0 0 100 0" stroke="black" fill="transparent"
  transform="translate(946.333333 242.000000) rotate (-58.091893 0 0) scale (0.832453 1)"/>
  <path
  d=" M 0 0 10.0 0  C 10.000000 -10.000000 21.428571 16.000000 21.428571 0  S 32.85714285714286 12.0 32.85714285714286 0  S 44.85714285714286 -10.0 44.85714285714286 0  S 56.85714285714286 13.0 56.85714285714286 0  S 68.85714285714286 -13.0 68.85714285714286 0  S 80.85714285714286 15.0 80.85714285714286 0  S 90.0 16.0 90.0 0  M 90.0 0 100 0" stroke="black" fill="transparent"
  transform="translate(948.333333 356.666667) rotate (-77.231371 0 0) scale (1.900327 1)"/>
  <path
  d=" M 0 0 10.0 0  C 10.000000 -10.000000 26.000000 19.000000 26.000000 0  S 42.0 18.0 42.0 0  S 58.0 -17.0 58.0 0  S 74.0 18.0 74.0 0  S 90.0 14.0 90.0 0  M 90.0 0 100 0" stroke="black" fill="transparent"
  transform="translate(807.333333 235.666667) rotate (-38.379224 0 0) scale (0.531518 1)"/>
  <path
  d=" M 0 0 10.0 0  C 10.000000 -12.000000 23.333333 12.000000 23.333333 0  S 36.66666666666667 19.0 36.66666666666667 0  S 50.66666666666667 -15.0 50.66666666666667 0  S 64.66666666666667 15.0 64.66666666666667 0  S 78.66666666666667 -16.0 78.66666666666667 0  S 90.0 16.0 90.0 0  M 90.0 0 100 0" stroke="black" fill="transparent"
  transform="translate(804.000000 294.666667) rotate (-86.766388 0 0) scale (0.590941 1)"/>
  <path
  d=" M 0 0 10.0 0  C 10.000000 -19.000000 20.000000 11.000000 20.000000 0  S 30.0 16.0 30.0 0  S 40.0 -14.0 40.0 0  S 50.0 16.0 50.0 0  S 60.0 -12.0 60.0 0  S 70.0 12.0 70.0 0  S 80.0 -17.0 80.0 0  S 90.0 12.0 90.0 0  M 90.0 0 100 0" stroke="black" fill="transparent"
  transform="translate(804.000000 294.666667) rotate (51.340192 0 0) scale (0.490906 1)"/>
  <path
  d=" M 0 0 10.0 0  C 10.000000 -14.000000 20.000000 17.000000 20.000000 0  S 30.0 12.0 30.0 0  S 40.0 -14.0 40.0 0  S 50.0 16.0 50.0 0  S 60.0 -16.0 60.0 0  S 70.0 13.0 70.0 0  S 80.0 -18.0 80.0 0  S 90.0 18.0 90.0 0  M 90.0 0 100 0" stroke="black" fill="transparent"
  transform="translate(910.666667 196.333333) rotate (52.009384 0 0) scale (0.579444 1)"/>
  <path
  d=" M 0 0 10.0 0  C 10.000000 -13.000000 21.428571 11.000000 21.428571 0  S 32.85714285714286 10.0 32.85714285714286 0  S 44.85714285714286 -19.0 44.85714285714286 0  S 56.85714285714286 15.0 56.85714285714286 0  S 68.85714285714286 -19.0 68.85714285714286 0  S 80.85714285714286 15.0 80.85714285714286 0  S 90.0 15.0 90.0 0  M 90.0 0 100 0" stroke="black" fill="transparent"
  transform="translate(849.000000 202.666667) rotate (-5.863872 0 0) scale (0.619910 1)"/>
  <path
  d=" M 0 0 10.0 0  C 10.000000 -19.000000 26.000000 12.000000 26.000000 0  S 42.0 12.0 42.0 0  S 58.0 -13.0 58.0 0  S 74.0 13.0 74.0 0  S 90.0 17.0 90.0 0  M 90.0 0 100 0" stroke="black" fill="transparent"
  transform="translate(571.000000 68.333333) rotate (23.916245 0 0) scale (0.838676 1)"/>
  <path
  d=" M 0 0 10.0 0  C 10.000000 -11.000000 23.333333 11.000000 23.333333 0  S 36.66666666666667 16.0 36.66666666666667 0  S 50.66666666666667 -16.0 50.66666666666667 0  S 64.66666666666667 15.0 64.66666666666667 0  S 78.66666666666667 -10.0 78.66666666666667 0  S 90.0 18.0 90.0 0  M 90.0 0 100 0" stroke="black" fill="transparent"
  transform="translate(550.000000 140.000000) rotate (5.403791 0 0) scale (0.743303 1)"/>
  <path
  d=" M 0 0 10.0 0  C 10.000000 -19.000000 26.000000 18.000000 26.000000 0  S 42.0 17.0 42.0 0  S 58.0 -13.0 58.0 0  S 74.0 10.0 74.0 0  S 90.0 16.0 90.0 0  M 90.0 0 100 0" stroke="black" fill="transparent"
  transform="translate(624.000000 147.000000) rotate (-62.083087 0 0) scale (0.505492 1)"/>
  <path
  d=" M 0 0 10.0 0  C 10.000000 -16.000000 21.428571 14.000000 21.428571 0  S 32.85714285714286 17.0 32.85714285714286 0  S 44.85714285714286 -18.0 44.85714285714286 0  S 56.85714285714286 15.0 56.85714285714286 0  S 68.85714285714286 -12.0 68.85714285714286 0  S 80.85714285714286 18.0 80.85714285714286 0  S 90.0 16.0 90.0 0  M 90.0 0 100 0" stroke="black" fill="transparent"
  transform="translate(849.000000 202.666667) rotate (-87.709390 0 0) scale (0.583800 1)"/>
  <path
  d=" M 0 0 10.0 0  C 10.000000 -19.000000 26.000000 13.000000 26.000000 0  S 42.0 17.0 42.0 0  S 58.0 -17.0 58.0 0  S 74.0 10.0 74.0 0  S 90.0 16.0 90.0 0  M 90.0 0 100 0" stroke="black" fill="transparent"
  transform="translate(748.666667 205.666667) rotate (27.083551 0 0) scale (0.658922 1)"/>
  <path
  d=" M 0 0 10.0 0  C 10.000000 -18.000000 21.428571 19.000000 21.428571 0  S 32.85714285714286 17.0 32.85714285714286 0  S 44.85714285714286 -17.0 44.85714285714286 0  S 56.85714285714286 19.0 56.85714285714286 0  S 68.85714285714286 -17.0 68.85714285714286 0  S 80.85714285714286 13.0 80.85714285714286 0  S 90.0 19.0 90.0 0  M 90.0 0 100 0" stroke="black" fill="transparent"
  transform="translate(748.666667 205.666667) rotate (-83.374125 0 0) scale (0.664438 1)"/>
  <path
  d=" M 0 0 10.0 0  C 10.000000 -13.000000 26.000000 15.000000 26.000000 0  S 42.0 10.0 42.0 0  S 58.0 -15.0 58.0 0  S 74.0 15.0 74.0 0  S 90.0 10.0 90.0 0  M 90.0 0 100 0" stroke="black" fill="transparent"
  transform="translate(756.333333 139.666667) rotate (-24.913967 0 0) scale (0.672590 1)"/>
  <path
  d=" M 0 0 10.0 0  C 10.000000 -19.000000 21.428571 17.000000 21.428571 0  S 32.85714285714286 14.0 32.85714285714286 0  S 44.85714285714286 -19.0 44.85714285714286 0  S 56.85714285714286 16.0 56.85714285714286 0  S 68.85714285714286 -14.0 68.85714285714286 0  S 80.85714285714286 19.0 80.85714285714286 0  S 90.0 17.0 90.0 0  M 90.0 0 100 0" stroke="black" fill="transparent"
  transform="translate(817.333333 111.333333) rotate (44.144903 0 0) scale (0.473814 1)"/>
  <path
  d=" M 0 0 10.0 0  C 10.000000 -17.000000 20.000000 17.000000 20.000000 0  S 30.0 11.0 30.0 0  S 40.0 -14.0 40.0 0  S 50.0 16.0 50.0 0  S 60.0 -16.0 60.0 0  S 70.0 13.0 70.0 0  S 80.0 -10.0 80.0 0  S 90.0 18.0 90.0 0  M 90.0 0 100 0" stroke="black" fill="transparent"
  transform="translate(579.333333 420.000000) rotate (7.535064 0 0) scale (1.270975 1)"/>
  <path
  d=" M 0 0 10.0 0  C 10.000000 -15.000000 23.333333 11.000000 23.333333 0  S 36.66666666666667 16.0 36.66666666666667 0  S 50.66666666666667 -14.0 50.66666666666667 0  S 64.66666666666667 10.0 64.66666666666667 0  S 78.66666666666667 -10.0 78.66666666666667 0  S 90.0 14.0 90.0 0  M 90.0 0 100 0" stroke="black" fill="transparent"
  transform="translate(579.333333 354.666667) rotate (-6.456007 0 0) scale (1.274751 1)"/>
  <path
  d=" M 0 0 10.0 0  C 10.000000 -13.000000 21.428571 15.000000 21.428571 0  S 32.85714285714286 16.0 32.85714285714286 0  S 44.85714285714286 -17.0 44.85714285714286 0  S 56.85714285714286 15.0 56.85714285714286 0  S 68.85714285714286 -10.0 68.85714285714286 0  S 80.85714285714286 11.0 80.85714285714286 0  S 90.0 17.0 90.0 0  M 90.0 0 100 0" stroke="black" fill="transparent"
  transform="translate(706.000000 340.333333) rotate (52.831690 0 0) scale (0.640009 1)"/>
  <path
  d=" M 0 0 10.0 0  C 10.000000 -14.000000 20.000000 13.000000 20.000000 0  S 30.0 10.0 30.0 0  S 40.0 -19.0 40.0 0  S 50.0 17.0 50.0 0  S 60.0 -15.0 60.0 0  S 70.0 10.0 70.0 0  S 80.0 -13.0 80.0 0  S 90.0 10.0 90.0 0  M 90.0 0 100 0" stroke="black" fill="transparent"
  transform="translate(705.333333 436.666667) rotate (-49.053554 0 0) scale (0.600185 1)"/>
  <path
  d=" M 0 0 10.0 0  C 10.000000 -19.000000 23.333333 13.000000 23.333333 0  S 36.66666666666667 13.0 36.66666666666667 0  S 50.66666666666667 -13.0 50.66666666666667 0  S 64.66666666666667 10.0 64.66666666666667 0  S 78.66666666666667 -16.0 78.66666666666667 0  S 90.0 11.0 90.0 0  M 90.0 0 100 0" stroke="black" fill="transparent"
  transform="translate(705.333333 436.666667) rotate (87.229784 0 0) scale (0.620725 1)"/>
  <path
  d=" M 0 0 10.0 0  C 10.000000 -11.000000 23.333333 19.000000 23.333333 0  S 36.66666666666667 16.0 36.66666666666667 0  S 50.66666666666667 -12.0 50.66666666666667 0  S 64.66666666666667 11.0 64.66666666666667 0  S 78.66666666666667 -13.0 78.66666666666667 0  S 90.0 14.0 90.0 0  M 90.0 0 100 0" stroke="black" fill="transparent"
  transform="translate(708.333333 498.666667) rotate (36.792784 0 0) scale (0.495334 1)"/>
  <path
  d=" M 0 0 10.0 0  C 10.000000 -11.000000 26.000000 16.000000 26.000000 0  S 42.0 17.0 42.0 0  S 58.0 -18.0 58.0 0  S 74.0 16.0 74.0 0  S 90.0 15.0 90.0 0  M 90.0 0 100 0" stroke="black" fill="transparent"
  transform="translate(748.000000 528.333333) rotate (-20.522460 0 0) scale (0.665574 1)"/>
  <path
  d=" M 0 0 10.0 0  C 10.000000 -19.000000 26.000000 17.000000 26.000000 0  S 42.0 17.0 42.0 0  S 58.0 -13.0 58.0 0  S 74.0 14.0 74.0 0  S 90.0 14.0 90.0 0  M 90.0 0 100 0" stroke="black" fill="transparent"
  transform="translate(744.666667 391.333333) rotate (2.214755 0 0) scale (0.603784 1)"/>
  <path
  d=" M 0 0 10.0 0  C 10.000000 -18.000000 23.333333 12.000000 23.333333 0  S 36.66666666666667 11.0 36.66666666666667 0  S 50.66666666666667 -13.0 50.66666666666667 0  S 64.66666666666667 17.0 64.66666666666667 0  S 78.66666666666667 -15.0 78.66666666666667 0  S 90.0 17.0 90.0 0  M 90.0 0 100 0" stroke="black" fill="transparent"
  transform="translate(415.666667 576.333333) rotate (75.316780 0 0) scale (1.288755 1)"/>
  <path
  d=" M 0 0 10.0 0  C 10.000000 -11.000000 26.000000 15.000000 26.000000 0  S 42.0 17.0 42.0 0  S 58.0 -16.0 58.0 0  S 74.0 15.0 74.0 0  S 90.0 13.0 90.0 0  M 90.0 0 100 0" stroke="black" fill="transparent"
  transform="translate(448.333333 701.000000) rotate (1.627283 0 0) scale (0.586903 1)"/>
  <path
  d=" M 0 0 10.0 0  C 10.000000 -17.000000 20.000000 10.000000 20.000000 0  S 30.0 17.0 30.0 0  S 40.0 -11.0 40.0 0  S 50.0 15.0 50.0 0  S 60.0 -12.0 60.0 0  S 70.0 13.0 70.0 0  S 80.0 -14.0 80.0 0  S 90.0 10.0 90.0 0  M 90.0 0 100 0" stroke="black" fill="transparent"
  transform="translate(483.333333 550.333333) rotate (61.301708 0 0) scale (1.041239 1)"/>
  <path
  d=" M 0 0 10.0 0  C 10.000000 -16.000000 26.000000 19.000000 26.000000 0  S 42.0 14.0 42.0 0  S 58.0 -11.0 58.0 0  S 74.0 19.0 74.0 0  S 90.0 12.0 90.0 0  M 90.0 0 100 0" stroke="black" fill="transparent"
  transform="translate(940.666667 832.333333) rotate (88.553444 0 0) scale (0.660210 1)"/>
  <path
  d=" M 0 0 10.0 0  C 10.000000 -15.000000 26.000000 17.000000 26.000000 0  S 42.0 12.0 42.0 0  S 58.0 -10.0 58.0 0  S 74.0 13.0 74.0 0  S 90.0 19.0 90.0 0  M 90.0 0 100 0" stroke="black" fill="transparent"
  transform="translate(961.333333 771.000000) rotate (-79.261103 0 0) scale (0.590339 1)"/>
  <path
  d=" M 0 0 10.0 0  C 10.000000 -15.000000 20.000000 18.000000 20.000000 0  S 30.0 12.0 30.0 0  S 40.0 -11.0 40.0 0  S 50.0 12.0 50.0 0  S 60.0 -12.0 60.0 0  S 70.0 13.0 70.0 0  S 80.0 -11.0 80.0 0  S 90.0 16.0 90.0 0  M 90.0 0 100 0" stroke="black" fill="transparent"
  transform="translate(942.333333 898.333333) rotate (-80.805257 0 0) scale (1.877457 1)"/>
  <path
  d=" M 0 0 10.0 0  C 10.000000 -19.000000 20.000000 14.000000 20.000000 0  S 30.0 15.0 30.0 0  S 40.0 -17.0 40.0 0  S 50.0 12.0 50.0 0  S 60.0 -19.0 60.0 0  S 70.0 13.0 70.0 0  S 80.0 -13.0 80.0 0  S 90.0 10.0 90.0 0  M 90.0 0 100 0" stroke="black" fill="transparent"
  transform="translate(437.666667 64.000000) rotate (10.344857 0 0) scale (2.134700 1)"/>
  <path
  d=" M 0 0 10.0 0  C 10.000000 -15.000000 21.428571 18.000000 21.428571 0  S 32.85714285714286 18.0 32.85714285714286 0  S 44.85714285714286 -13.0 44.85714285714286 0  S 56.85714285714286 18.0 56.85714285714286 0  S 68.85714285714286 -10.0 68.85714285714286 0  S 80.85714285714286 18.0 80.85714285714286 0  S 90.0 17.0 90.0 0  M 90.0 0 100 0" stroke="black" fill="transparent"
  transform="translate(851.666667 938.333333) rotate (5.710593 0 0) scale (0.569493 1)"/>
  <path
  d=" M 0 0 10.0 0  C 10.000000 -12.000000 20.000000 19.000000 20.000000 0  S 30.0 19.0 30.0 0  S 40.0 -12.0 40.0 0  S 50.0 11.0 50.0 0  S 60.0 -15.0 60.0 0  S 70.0 17.0 70.0 0  S 80.0 -17.0 80.0 0  S 90.0 10.0 90.0 0  M 90.0 0 100 0" stroke="black" fill="transparent"
  transform="translate(712.333333 979.666667) rotate (-8.259438 0 0) scale (0.626498 1)"/>
  <path
  d=" M 0 0 10.0 0  C 10.000000 -17.000000 21.428571 17.000000 21.428571 0  S 32.85714285714286 12.0 32.85714285714286 0  S 44.85714285714286 -12.0 44.85714285714286 0  S 56.85714285714286 14.0 56.85714285714286 0  S 68.85714285714286 -16.0 68.85714285714286 0  S 80.85714285714286 10.0 80.85714285714286 0  S 90.0 14.0 90.0 0  M 90.0 0 100 0" stroke="black" fill="transparent"
  transform="translate(655.000000 986.000000) rotate (-6.303628 0 0) scale (0.576821 1)"/>
  <path
  d=" M 0 0 10.0 0  C 10.000000 -10.000000 20.000000 16.000000 20.000000 0  S 30.0 19.0 30.0 0  S 40.0 -19.0 40.0 0  S 50.0 13.0 50.0 0  S 60.0 -16.0 60.0 0  S 70.0 19.0 70.0 0  S 80.0 -12.0 80.0 0  S 90.0 15.0 90.0 0  M 90.0 0 100 0" stroke="black" fill="transparent"
  transform="translate(655.000000 986.000000) rotate (-9.413414 0 0) scale (2.567913 1)"/>
  <path
  d=" M 0 0 10.0 0  C 10.000000 -15.000000 20.000000 13.000000 20.000000 0  S 30.0 18.0 30.0 0  S 40.0 -14.0 40.0 0  S 50.0 17.0 50.0 0  S 60.0 -11.0 60.0 0  S 70.0 10.0 70.0 0  S 80.0 -14.0 80.0 0  S 90.0 10.0 90.0 0  M 90.0 0 100 0" stroke="black" fill="transparent"
  transform="translate(546.333333 494.666667) rotate (28.228776 0 0) scale (1.078239 1)"/>
  <path
  d=" M 0 0 10.0 0  C 10.000000 -11.000000 23.333333 19.000000 23.333333 0  S 36.66666666666667 17.0 36.66666666666667 0  S 50.66666666666667 -10.0 50.66666666666667 0  S 64.66666666666667 11.0 64.66666666666667 0  S 78.66666666666667 -14.0 78.66666666666667 0  S 90.0 16.0 90.0 0  M 90.0 0 100 0" stroke="black" fill="transparent"
  transform="translate(641.333333 545.666667) rotate (-35.049373 0 0) scale (0.818413 1)"/>
  <path
  d=" M 0 0 10.0 0  C 10.000000 -10.000000 20.000000 14.000000 20.000000 0  S 30.0 13.0 30.0 0  S 40.0 -11.0 40.0 0  S 50.0 15.0 50.0 0  S 60.0 -11.0 60.0 0  S 70.0 14.0 70.0 0  S 80.0 -18.0 80.0 0  S 90.0 12.0 90.0 0  M 90.0 0 100 0" stroke="black" fill="transparent"
  transform="translate(598.666667 794.666667) rotate (-64.569370 0 0) scale (0.752957 1)"/>
  <path
  d=" M 0 0 10.0 0  C 10.000000 -12.000000 20.000000 12.000000 20.000000 0  S 30.0 14.0 30.0 0  S 40.0 -11.0 40.0 0  S 50.0 14.0 50.0 0  S 60.0 -16.0 60.0 0  S 70.0 16.0 70.0 0  S 80.0 -11.0 80.0 0  S 90.0 18.0 90.0 0  M 90.0 0 100 0" stroke="black" fill="transparent"
  transform="translate(598.666667 794.666667) rotate (36.538712 0 0) scale (0.576676 1)"/>
  <path
  d=" M 0 0 10.0 0  C 10.000000 -15.000000 21.428571 12.000000 21.428571 0  S 32.85714285714286 14.0 32.85714285714286 0  S 44.85714285714286 -13.0 44.85714285714286 0  S 56.85714285714286 15.0 56.85714285714286 0  S 68.85714285714286 -16.0 68.85714285714286 0  S 80.85714285714286 11.0 80.85714285714286 0  S 90.0 12.0 90.0 0  M 90.0 0 100 0" stroke="black" fill="transparent"
  transform="translate(119.333333 897.333333) rotate (61.782644 0 0) scale (0.465296 1)"/>
  <path
  d=" M 0 0 10.0 0  C 10.000000 -11.000000 20.000000 17.000000 20.000000 0  S 30.0 18.0 30.0 0  S 40.0 -12.0 40.0 0  S 50.0 19.0 50.0 0  S 60.0 -10.0 60.0 0  S 70.0 19.0 70.0 0  S 80.0 -19.0 80.0 0  S 90.0 11.0 90.0 0  M 90.0 0 100 0" stroke="black" fill="transparent"
  transform="translate(81.000000 862.666667) rotate (42.124546 0 0) scale (0.516839 1)"/>
  <path
  d=" M 0 0 10.0 0  C 10.000000 -12.000000 26.000000 10.000000 26.000000 0  S 42.0 13.0 42.0 0  S 58.0 -13.0 58.0 0  S 74.0 18.0 74.0 0  S 90.0 11.0 90.0 0  M 90.0 0 100 0" stroke="black" fill="transparent"
  transform="translate(81.000000 862.666667) rotate (51.432654 0 0) scale (0.967758 1)"/>
  <path
  d=" M 0 0 10.0 0  C 10.000000 -14.000000 23.333333 16.000000 23.333333 0  S 36.66666666666667 17.0 36.66666666666667 0  S 50.66666666666667 -10.0 50.66666666666667 0  S 64.66666666666667 19.0 64.66666666666667 0  S 78.66666666666667 -15.0 78.66666666666667 0  S 90.0 11.0 90.0 0  M 90.0 0 100 0" stroke="black" fill="transparent"
  transform="translate(704.666667 908.333333) rotate (42.426641 0 0) scale (0.419974 1)"/>
  <path
  d=" M 0 0 10.0 0  C 10.000000 -15.000000 21.428571 17.000000 21.428571 0  S 32.85714285714286 18.0 32.85714285714286 0  S 44.85714285714286 -13.0 44.85714285714286 0  S 56.85714285714286 18.0 56.85714285714286 0  S 68.85714285714286 -10.0 68.85714285714286 0  S 80.85714285714286 19.0 80.85714285714286 0  S 90.0 15.0 90.0 0  M 90.0 0 100 0" stroke="black" fill="transparent"
  transform="translate(608.000000 935.000000) rotate (23.176494 0 0) scale (1.134925 1)"/>
  <path
  d=" M 0 0 10.0 0  C 10.000000 -18.000000 23.333333 11.000000 23.333333 0  S 36.66666666666667 15.0 36.66666666666667 0  S 50.66666666666667 -16.0 50.66666666666667 0  S 64.66666666666667 18.0 64.66666666666667 0  S 78.66666666666667 -16.0 78.66666666666667 0  S 90.0 19.0 90.0 0  M 90.0 0 100 0" stroke="black" fill="transparent"
  transform="translate(608.000000 935.000000) rotate (-50.295213 0 0) scale (0.485261 1)"/>
  <path
  d=" M 0 0 10.0 0  C 10.000000 -17.000000 21.428571 10.000000 21.428571 0  S 32.85714285714286 16.0 32.85714285714286 0  S 44.85714285714286 -16.0 44.85714285714286 0  S 56.85714285714286 10.0 56.85714285714286 0  S 68.85714285714286 -14.0 68.85714285714286 0  S 80.85714285714286 17.0 80.85714285714286 0  S 90.0 14.0 90.0 0  M 90.0 0 100 0" stroke="black" fill="transparent"
  transform="translate(119.333333 897.333333) rotate (-57.399666 0 0) scale (0.680555 1)"/>
  <path
  d=" M 0 0 10.0 0  C 10.000000 -10.000000 26.000000 15.000000 26.000000 0  S 42.0 12.0 42.0 0  S 58.0 -15.0 58.0 0  S 74.0 18.0 74.0 0  S 90.0 10.0 90.0 0  M 90.0 0 100 0" stroke="black" fill="transparent"
  transform="translate(210.666667 815.000000) rotate (55.278720 0 0) scale (0.462325 1)"/>
  <path
  d=" M 0 0 10.0 0  C 10.000000 -12.000000 26.000000 10.000000 26.000000 0  S 42.0 17.0 42.0 0  S 58.0 -17.0 58.0 0  S 74.0 16.0 74.0 0  S 90.0 18.0 90.0 0  M 90.0 0 100 0" stroke="black" fill="transparent"
  transform="translate(202.333333 939.000000) rotate (-40.683972 0 0) scale (0.501110 1)"/>
  <path
  d=" M 0 0 10.0 0  C 10.000000 -14.000000 26.000000 17.000000 26.000000 0  S 42.0 16.0 42.0 0  S 58.0 -18.0 58.0 0  S 74.0 17.0 74.0 0  S 90.0 16.0 90.0 0  M 90.0 0 100 0" stroke="black" fill="transparent"
  transform="translate(548.666667 296.000000) rotate (-37.339525 0 0) scale (1.220041 1)"/>
  <path
  d=" M 0 0 10.0 0  C 10.000000 -19.000000 26.000000 14.000000 26.000000 0  S 42.0 17.0 42.0 0  S 58.0 -11.0 58.0 0  S 74.0 19.0 74.0 0  S 90.0 13.0 90.0 0  M 90.0 0 100 0" stroke="black" fill="transparent"
  transform="translate(706.000000 340.333333) rotate (-50.508950 0 0) scale (0.466488 1)"/>
  <path
  d=" M 0 0 10.0 0  C 10.000000 -19.000000 21.428571 10.000000 21.428571 0  S 32.85714285714286 13.0 32.85714285714286 0  S 44.85714285714286 -16.0 44.85714285714286 0  S 56.85714285714286 19.0 56.85714285714286 0  S 68.85714285714286 -19.0 68.85714285714286 0  S 80.85714285714286 13.0 80.85714285714286 0  S 90.0 13.0 90.0 0  M 90.0 0 100 0" stroke="black" fill="transparent"
  transform="translate(706.000000 244.666667) rotate (63.563127 0 0) scale (0.666350 1)"/>
  <path
  d=" M 0 0 10.0 0  C 10.000000 -15.000000 26.000000 17.000000 26.000000 0  S 42.0 11.0 42.0 0  S 58.0 -16.0 58.0 0  S 74.0 10.0 74.0 0  S 90.0 16.0 90.0 0  M 90.0 0 100 0" stroke="black" fill="transparent"
  transform="translate(645.666667 222.000000) rotate (20.590728 0 0) scale (0.644507 1)"/>
  <path
  d=" M 0 0 10.0 0  C 10.000000 -17.000000 20.000000 17.000000 20.000000 0  S 30.0 16.0 30.0 0  S 40.0 -16.0 40.0 0  S 50.0 19.0 50.0 0  S 60.0 -15.0 60.0 0  S 70.0 13.0 70.0 0  S 80.0 -18.0 80.0 0  S 90.0 18.0 90.0 0  M 90.0 0 100 0" stroke="black" fill="transparent"
  transform="translate(300.333333 748.000000) rotate (71.399934 0 0) scale (0.731543 1)"/>
  <path
  d=" M 0 0 10.0 0  C 10.000000 -19.000000 26.000000 18.000000 26.000000 0  S 42.0 11.0 42.0 0  S 58.0 -18.0 58.0 0  S 74.0 17.0 74.0 0  S 90.0 14.0 90.0 0  M 90.0 0 100 0" stroke="black" fill="transparent"
  transform="translate(297.333333 858.666667) rotate (-57.498919 0 0) scale (0.490091 1)"/>
  <path
  d=" M 0 0 10.0 0  C 10.000000 -11.000000 21.428571 10.000000 21.428571 0  S 32.85714285714286 18.0 32.85714285714286 0  S 44.85714285714286 -19.0 44.85714285714286 0  S 56.85714285714286 19.0 56.85714285714286 0  S 68.85714285714286 -13.0 68.85714285714286 0  S 80.85714285714286 16.0 80.85714285714286 0  S 90.0 11.0 90.0 0  M 90.0 0 100 0" stroke="black" fill="transparent"
  transform="translate(207.333333 756.666667) rotate (-43.842667 0 0) scale (0.466786 1)"/>
  <path
  d=" M 0 0 10.0 0  C 10.000000 -15.000000 26.000000 11.000000 26.000000 0  S 42.0 13.0 42.0 0  S 58.0 -13.0 58.0 0  S 74.0 16.0 74.0 0  S 90.0 13.0 90.0 0  M 90.0 0 100 0" stroke="black" fill="transparent"
  transform="translate(241.000000 724.333333) rotate (21.745890 0 0) scale (0.638792 1)"/>
  <path
  d=" M 0 0 10.0 0  C 10.000000 -10.000000 26.000000 15.000000 26.000000 0  S 42.0 13.0 42.0 0  S 58.0 -10.0 58.0 0  S 74.0 17.0 74.0 0  S 90.0 18.0 90.0 0  M 90.0 0 100 0" stroke="black" fill="transparent"
  transform="translate(529.333333 946.666667) rotate (17.379982 0 0) scale (1.316785 1)"/>
  <path
  d=" M 0 0 10.0 0  C 10.000000 -19.000000 23.333333 17.000000 23.333333 0  S 36.66666666666667 10.0 36.66666666666667 0  S 50.66666666666667 -12.0 50.66666666666667 0  S 64.66666666666667 11.0 64.66666666666667 0  S 78.66666666666667 -19.0 78.66666666666667 0  S 90.0 16.0 90.0 0  M 90.0 0 100 0" stroke="black" fill="transparent"
  transform="translate(932.333333 653.333333) rotate (56.162453 0 0) scale (0.718339 1)"/>
  <path
  d=" M 0 0 10.0 0  C 10.000000 -11.000000 26.000000 18.000000 26.000000 0  S 42.0 12.0 42.0 0  S 58.0 -11.0 58.0 0  S 74.0 12.0 74.0 0  S 90.0 17.0 90.0 0  M 90.0 0 100 0" stroke="black" fill="transparent"
  transform="translate(894.000000 706.666667) rotate (46.218875 0 0) scale (0.443221 1)"/>
  <path
  d=" M 0 0 10.0 0  C 10.000000 -18.000000 23.333333 19.000000 23.333333 0  S 36.66666666666667 14.0 36.66666666666667 0  S 50.66666666666667 -14.0 50.66666666666667 0  S 64.66666666666667 12.0 64.66666666666667 0  S 78.66666666666667 -13.0 78.66666666666667 0  S 90.0 13.0 90.0 0  M 90.0 0 100 0" stroke="black" fill="transparent"
  transform="translate(943.000000 510.000000) rotate (-35.217593 0 0) scale (0.485535 1)"/>
  <path
  d=" M 0 0 10.0 0  C 10.000000 -12.000000 20.000000 10.000000 20.000000 0  S 30.0 16.0 30.0 0  S 40.0 -11.0 40.0 0  S 50.0 14.0 50.0 0  S 60.0 -15.0 60.0 0  S 70.0 13.0 70.0 0  S 80.0 -15.0 80.0 0  S 90.0 17.0 90.0 0  M 90.0 0 100 0" stroke="black" fill="transparent"
  transform="translate(839.333333 809.333333) rotate (-8.212780 0 0) scale (0.653367 1)"/>
  <path
  d=" M 0 0 10.0 0  C 10.000000 -13.000000 21.428571 12.000000 21.428571 0  S 32.85714285714286 17.0 32.85714285714286 0  S 44.85714285714286 -15.0 44.85714285714286 0  S 56.85714285714286 19.0 56.85714285714286 0  S 68.85714285714286 -13.0 68.85714285714286 0  S 80.85714285714286 17.0 80.85714285714286 0  S 90.0 17.0 90.0 0  M 90.0 0 100 0" stroke="black" fill="transparent"
  transform="translate(706.000000 244.666667) rotate (-42.429263 0 0) scale (0.578052 1)"/>
  <path
  d=" M 0 0 10.0 0  C 10.000000 -18.000000 20.000000 14.000000 20.000000 0  S 30.0 13.0 30.0 0  S 40.0 -12.0 40.0 0  S 50.0 10.0 50.0 0  S 60.0 -14.0 60.0 0  S 70.0 12.0 70.0 0  S 80.0 -10.0 80.0 0  S 90.0 13.0 90.0 0  M 90.0 0 100 0" stroke="black" fill="transparent"
  transform="translate(711.333333 98.666667) rotate (42.336999 0 0) scale (0.608769 1)"/>
  <path
  d=" M 0 0 10.0 0  C 10.000000 -10.000000 20.000000 16.000000 20.000000 0  S 30.0 10.0 30.0 0  S 40.0 -10.0 40.0 0  S 50.0 15.0 50.0 0  S 60.0 -19.0 60.0 0  S 70.0 14.0 70.0 0  S 80.0 -13.0 80.0 0  S 90.0 11.0 90.0 0  M 90.0 0 100 0" stroke="black" fill="transparent"
  transform="translate(647.666667 102.333333) rotate (-3.296116 0 0) scale (0.637722 1)"/>
  <path
  d=" M 0 0 10.0 0  C 10.000000 -10.000000 21.428571 12.000000 21.428571 0  S 32.85714285714286 18.0 32.85714285714286 0  S 44.85714285714286 -11.0 44.85714285714286 0  S 56.85714285714286 12.0 56.85714285714286 0  S 68.85714285714286 -17.0 68.85714285714286 0  S 80.85714285714286 18.0 80.85714285714286 0  S 90.0 18.0 90.0 0  M 90.0 0 100 0" stroke="black" fill="transparent"
  transform="translate(624.000000 147.000000) rotate (73.886582 0 0) scale (0.780669 1)"/>
  <path
  d=" M 0 0 10.0 0  C 10.000000 -14.000000 20.000000 17.000000 20.000000 0  S 30.0 17.0 30.0 0  S 40.0 -12.0 40.0 0  S 50.0 16.0 50.0 0  S 60.0 -15.0 60.0 0  S 70.0 16.0 70.0 0  S 80.0 -10.0 80.0 0  S 90.0 19.0 90.0 0  M 90.0 0 100 0" stroke="black" fill="transparent"
  transform="translate(145.666667 103.333333) rotate (-2.738147 0 0) scale (0.767543 1)"/>
  <path
  d=" M 0 0 10.0 0  C 10.000000 -19.000000 21.428571 19.000000 21.428571 0  S 32.85714285714286 12.0 32.85714285714286 0  S 44.85714285714286 -10.0 44.85714285714286 0  S 56.85714285714286 15.0 56.85714285714286 0  S 68.85714285714286 -12.0 68.85714285714286 0  S 80.85714285714286 15.0 80.85714285714286 0  S 90.0 18.0 90.0 0  M 90.0 0 100 0" stroke="black" fill="transparent"
  transform="translate(145.666667 103.333333) rotate (-7.671746 0 0) scale (2.946373 1)"/>
  <path
  d=" M 0 0 10.0 0  C 10.000000 -12.000000 20.000000 15.000000 20.000000 0  S 30.0 19.0 30.0 0  S 40.0 -14.0 40.0 0  S 50.0 10.0 50.0 0  S 60.0 -17.0 60.0 0  S 70.0 12.0 70.0 0  S 80.0 -15.0 80.0 0  S 90.0 14.0 90.0 0  M 90.0 0 100 0" stroke="black" fill="transparent"
  transform="translate(851.333333 144.333333) rotate (-5.863872 0 0) scale (0.619910 1)"/>
  <path
  d=" M 0 0 10.0 0  C 10.000000 -19.000000 23.333333 16.000000 23.333333 0  S 36.66666666666667 17.0 36.66666666666667 0  S 50.66666666666667 -15.0 50.66666666666667 0  S 64.66666666666667 15.0 64.66666666666667 0  S 78.66666666666667 -17.0 78.66666666666667 0  S 90.0 18.0 90.0 0  M 90.0 0 100 0" stroke="black" fill="transparent"
  transform="translate(817.333333 111.333333) rotate (-30.680717 0 0) scale (0.810055 1)"/>
  <path
  d=" M 0 0 10.0 0  C 10.000000 -14.000000 23.333333 17.000000 23.333333 0  S 36.66666666666667 18.0 36.66666666666667 0  S 50.66666666666667 -12.0 50.66666666666667 0  S 64.66666666666667 18.0 64.66666666666667 0  S 78.66666666666667 -11.0 78.66666666666667 0  S 90.0 13.0 90.0 0  M 90.0 0 100 0" stroke="black" fill="transparent"
  transform="translate(887.000000 70.000000) rotate (28.136061 0 0) scale (0.706863 1)"/>
  <path
  d=" M 0 0 10.0 0  C 10.000000 -19.000000 20.000000 12.000000 20.000000 0  S 30.0 17.0 30.0 0  S 40.0 -13.0 40.0 0  S 50.0 18.0 50.0 0  S 60.0 -10.0 60.0 0  S 70.0 11.0 70.0 0  S 80.0 -11.0 80.0 0  S 90.0 19.0 90.0 0  M 90.0 0 100 0" stroke="black" fill="transparent"
  transform="translate(913.000000 138.000000) rotate (-43.655276 0 0) scale (0.502184 1)"/>
  <path
  d=" M 0 0 10.0 0  C 10.000000 -15.000000 21.428571 16.000000 21.428571 0  S 32.85714285714286 13.0 32.85714285714286 0  S 44.85714285714286 -17.0 44.85714285714286 0  S 56.85714285714286 17.0 56.85714285714286 0  S 68.85714285714286 -12.0 68.85714285714286 0  S 80.85714285714286 17.0 80.85714285714286 0  S 90.0 11.0 90.0 0  M 90.0 0 100 0" stroke="black" fill="transparent"
  transform="translate(106.333333 207.666667) rotate (40.100908 0 0) scale (0.496790 1)"/>
  <path
  d=" M 0 0 10.0 0  C 10.000000 -10.000000 21.428571 10.000000 21.428571 0  S 32.85714285714286 16.0 32.85714285714286 0  S 44.85714285714286 -19.0 44.85714285714286 0  S 56.85714285714286 14.0 56.85714285714286 0  S 68.85714285714286 -18.0 68.85714285714286 0  S 80.85714285714286 19.0 80.85714285714286 0  S 90.0 17.0 90.0 0  M 90.0 0 100 0" stroke="black" fill="transparent"
  transform="translate(106.333333 320.333333) rotate (-64.776077 0 0) scale (0.891690 1)"/>
  <path
  d=" M 0 0 10.0 0  C 10.000000 -11.000000 21.428571 16.000000 21.428571 0  S 32.85714285714286 15.0 32.85714285714286 0  S 44.85714285714286 -16.0 44.85714285714286 0  S 56.85714285714286 10.0 56.85714285714286 0  S 68.85714285714286 -13.0 68.85714285714286 0  S 80.85714285714286 15.0 80.85714285714286 0  S 90.0 16.0 90.0 0  M 90.0 0 100 0" stroke="black" fill="transparent"
  transform="translate(68.333333 288.333333) rotate (40.100908 0 0) scale (0.496790 1)"/>
  <path
  d=" M 0 0 10.0 0  C 10.000000 -14.000000 26.000000 10.000000 26.000000 0  S 42.0 14.0 42.0 0  S 58.0 -19.0 58.0 0  S 74.0 18.0 74.0 0  S 90.0 12.0 90.0 0  M 90.0 0 100 0" stroke="black" fill="transparent"
  transform="translate(68.333333 288.333333) rotate (-64.776077 0 0) scale (0.891690 1)"/>
  <path
  d=" M 0 0 10.0 0  C 10.000000 -16.000000 21.428571 18.000000 21.428571 0  S 32.85714285714286 18.0 32.85714285714286 0  S 44.85714285714286 -10.0 44.85714285714286 0  S 56.85714285714286 19.0 56.85714285714286 0  S 68.85714285714286 -14.0 68.85714285714286 0  S 80.85714285714286 11.0 80.85714285714286 0  S 90.0 10.0 90.0 0  M 90.0 0 100 0" stroke="black" fill="transparent"
  transform="translate(98.000000 149.333333) rotate (81.869898 0 0) scale (0.589256 1)"/>
  <path
  d=" M 0 0 10.0 0  C 10.000000 -10.000000 26.000000 15.000000 26.000000 0  S 42.0 15.0 42.0 0  S 58.0 -18.0 58.0 0  S 74.0 13.0 74.0 0  S 90.0 12.0 90.0 0  M 90.0 0 100 0" stroke="black" fill="transparent"
  transform="translate(98.000000 149.333333) rotate (-43.980610 0 0) scale (0.662428 1)"/>
  <path
  d=" M 0 0 10.0 0  C 10.000000 -19.000000 26.000000 11.000000 26.000000 0  S 42.0 16.0 42.0 0  S 58.0 -11.0 58.0 0  S 74.0 13.0 74.0 0  S 90.0 11.0 90.0 0  M 90.0 0 100 0" stroke="black" fill="transparent"
  transform="translate(207.333333 207.666667) rotate (-60.759522 0 0) scale (0.798401 1)"/>
  <path
  d=" M 0 0 10.0 0  C 10.000000 -13.000000 23.333333 11.000000 23.333333 0  S 36.66666666666667 10.0 36.66666666666667 0  S 50.66666666666667 -10.0 50.66666666666667 0  S 64.66666666666667 12.0 64.66666666666667 0  S 78.66666666666667 -15.0 78.66666666666667 0  S 90.0 12.0 90.0 0  M 90.0 0 100 0" stroke="black" fill="transparent"
  transform="translate(144.333333 239.666667) rotate (-26.927678 0 0) scale (0.706612 1)"/>
  <path
  d=" M 0 0 10.0 0  C 10.000000 -14.000000 21.428571 18.000000 21.428571 0  S 32.85714285714286 17.0 32.85714285714286 0  S 44.85714285714286 -11.0 44.85714285714286 0  S 56.85714285714286 19.0 56.85714285714286 0  S 68.85714285714286 -15.0 68.85714285714286 0  S 80.85714285714286 16.0 80.85714285714286 0  S 90.0 17.0 90.0 0  M 90.0 0 100 0" stroke="black" fill="transparent"
  transform="translate(640.666667 598.666667) rotate (-89.279336 0 0) scale (0.530042 1)"/>
  <path
  d=" M 0 0 10.0 0  C 10.000000 -15.000000 21.428571 18.000000 21.428571 0  S 32.85714285714286 18.0 32.85714285714286 0  S 44.85714285714286 -13.0 44.85714285714286 0  S 56.85714285714286 16.0 56.85714285714286 0  S 68.85714285714286 -12.0 68.85714285714286 0  S 80.85714285714286 15.0 80.85714285714286 0  S 90.0 12.0 90.0 0  M 90.0 0 100 0" stroke="black" fill="transparent"
  transform="translate(708.666667 595.666667) rotate (-59.708304 0 0) scale (0.779801 1)"/>
  <path
  d=" M 0 0 10.0 0  C 10.000000 -10.000000 20.000000 19.000000 20.000000 0  S 30.0 17.0 30.0 0  S 40.0 -13.0 40.0 0  S 50.0 17.0 50.0 0  S 60.0 -18.0 60.0 0  S 70.0 15.0 70.0 0  S 80.0 -10.0 80.0 0  S 90.0 18.0 90.0 0  M 90.0 0 100 0" stroke="black" fill="transparent"
  transform="translate(910.666667 196.333333) rotate (-87.709390 0 0) scale (0.583800 1)"/>
  <path
  d=" M 0 0 10.0 0  C 10.000000 -16.000000 26.000000 17.000000 26.000000 0  S 42.0 11.0 42.0 0  S 58.0 -18.0 58.0 0  S 74.0 12.0 74.0 0  S 90.0 14.0 90.0 0  M 90.0 0 100 0" stroke="black" fill="transparent"
  transform="translate(329.333333 945.000000) rotate (9.379345 0 0) scale (0.756784 1)"/>
  <path
  d=" M 0 0 10.0 0  C 10.000000 -18.000000 23.333333 11.000000 23.333333 0  S 36.66666666666667 14.0 36.66666666666667 0  S 50.66666666666667 -14.0 50.66666666666667 0  S 64.66666666666667 13.0 64.66666666666667 0  S 78.66666666666667 -15.0 78.66666666666667 0  S 90.0 17.0 90.0 0  M 90.0 0 100 0" stroke="black" fill="transparent"
  transform="translate(300.666667 912.000000) rotate (49.019582 0 0) scale (0.437124 1)"/>
  <path
  d=" M 0 0 10.0 0  C 10.000000 -10.000000 21.428571 18.000000 21.428571 0  S 32.85714285714286 12.0 32.85714285714286 0  S 44.85714285714286 -12.0 44.85714285714286 0  S 56.85714285714286 15.0 56.85714285714286 0  S 68.85714285714286 -14.0 68.85714285714286 0  S 80.85714285714286 19.0 80.85714285714286 0  S 90.0 10.0 90.0 0  M 90.0 0 100 0" stroke="black" fill="transparent"
  transform="translate(323.666667 817.333333) rotate (-4.489220 0 0) scale (0.809149 1)"/>
  <path
  d=" M 0 0 10.0 0  C 10.000000 -18.000000 23.333333 19.000000 23.333333 0  S 36.66666666666667 16.0 36.66666666666667 0  S 50.66666666666667 -11.0 50.66666666666667 0  S 64.66666666666667 13.0 64.66666666666667 0  S 78.66666666666667 -13.0 78.66666666666667 0  S 90.0 12.0 90.0 0  M 90.0 0 100 0" stroke="black" fill="transparent"
  transform="translate(404.333333 811.000000) rotate (34.835830 0 0) scale (0.601045 1)"/>
  <path
  d=" M 0 0 10.0 0  C 10.000000 -19.000000 26.000000 13.000000 26.000000 0  S 42.0 11.0 42.0 0  S 58.0 -10.0 58.0 0  S 74.0 11.0 74.0 0  S 90.0 11.0 90.0 0  M 90.0 0 100 0" stroke="black" fill="transparent"
  transform="translate(451.000000 917.333333) rotate (-87.878904 0 0) scale (0.720494 1)"/>
  <path
  d=" M 0 0 10.0 0  C 10.000000 -12.000000 23.333333 11.000000 23.333333 0  S 36.66666666666667 19.0 36.66666666666667 0  S 50.66666666666667 -15.0 50.66666666666667 0  S 64.66666666666667 12.0 64.66666666666667 0  S 78.66666666666667 -10.0 78.66666666666667 0  S 90.0 11.0 90.0 0  M 90.0 0 100 0" stroke="black" fill="transparent"
  transform="translate(404.000000 957.333333) rotate (-40.399904 0 0) scale (0.617171 1)"/>
  <path
  d=" M 0 0 10.0 0  C 10.000000 -10.000000 26.000000 11.000000 26.000000 0  S 42.0 11.0 42.0 0  S 58.0 -15.0 58.0 0  S 74.0 14.0 74.0 0  S 90.0 19.0 90.0 0  M 90.0 0 100 0" stroke="black" fill="transparent"
  transform="translate(803.333333 853.333333) rotate (79.267335 0 0) scale (0.519080 1)"/>
  <path
  d=" M 0 0 10.0 0  C 10.000000 -13.000000 26.000000 11.000000 26.000000 0  S 42.0 10.0 42.0 0  S 58.0 -10.0 58.0 0  S 74.0 10.0 74.0 0  S 90.0 12.0 90.0 0  M 90.0 0 100 0" stroke="black" fill="transparent"
  transform="translate(898.000000 617.333333) rotate (-85.807806 0 0) scale (0.638375 1)"/>
  <path
  d=" M 0 0 10.0 0  C 10.000000 -17.000000 21.428571 12.000000 21.428571 0  S 32.85714285714286 10.0 32.85714285714286 0  S 44.85714285714286 -17.0 44.85714285714286 0  S 56.85714285714286 14.0 56.85714285714286 0  S 68.85714285714286 -15.0 68.85714285714286 0  S 80.85714285714286 17.0 80.85714285714286 0  S 90.0 10.0 90.0 0  M 90.0 0 100 0" stroke="black" fill="transparent"
  transform="translate(830.666667 612.666667) rotate (-85.807806 0 0) scale (0.638375 1)"/>
  <path
  d=" M 0 0 10.0 0  C 10.000000 -12.000000 26.000000 18.000000 26.000000 0  S 42.0 13.0 42.0 0  S 58.0 -10.0 58.0 0  S 74.0 13.0 74.0 0  S 90.0 10.0 90.0 0  M 90.0 0 100 0" stroke="black" fill="transparent"
  transform="translate(735.666667 304.333333) rotate (-8.051829 0 0) scale (0.690137 1)"/>
  <path
  d=" M 0 0 10.0 0  C 10.000000 -18.000000 26.000000 19.000000 26.000000 0  S 42.0 15.0 42.0 0  S 58.0 -10.0 58.0 0  S 74.0 12.0 74.0 0  S 90.0 19.0 90.0 0  M 90.0 0 100 0" stroke="black" fill="transparent"
  transform="translate(207.333333 207.666667) rotate (48.615190 0 0) scale (1.084031 1)"/>
  <path
  d=" M 0 0 10.0 0  C 10.000000 -16.000000 26.000000 18.000000 26.000000 0  S 42.0 19.0 42.0 0  S 58.0 -15.0 58.0 0  S 74.0 10.0 74.0 0  S 90.0 13.0 90.0 0  M 90.0 0 100 0" stroke="black" fill="transparent"
  transform="translate(151.666667 432.333333) rotate (-9.889667 0 0) scale (1.028618 1)"/>
  <path
  d=" M 0 0 10.0 0  C 10.000000 -15.000000 21.428571 16.000000 21.428571 0  S 32.85714285714286 19.0 32.85714285714286 0  S 44.85714285714286 -18.0 44.85714285714286 0  S 56.85714285714286 14.0 56.85714285714286 0  S 68.85714285714286 -15.0 68.85714285714286 0  S 80.85714285714286 14.0 80.85714285714286 0  S 90.0 14.0 90.0 0  M 90.0 0 100 0" stroke="black" fill="transparent"
  transform="translate(533.666667 737.000000) rotate (85.914383 0 0) scale (0.608212 1)"/>
  <path
  d=" M 0 0 10.0 0  C 10.000000 -12.000000 20.000000 19.000000 20.000000 0  S 30.0 12.0 30.0 0  S 40.0 -11.0 40.0 0  S 50.0 13.0 50.0 0  S 60.0 -11.0 60.0 0  S 70.0 15.0 70.0 0  S 80.0 -13.0 80.0 0  S 90.0 12.0 90.0 0  M 90.0 0 100 0" stroke="black" fill="transparent"
  transform="translate(520.000000 834.000000) rotate (-63.645594 0 0) scale (0.405476 1)"/>
  <path
  d=" M 0 0 10.0 0  C 10.000000 -17.000000 26.000000 11.000000 26.000000 0  S 42.0 17.0 42.0 0  S 58.0 -15.0 58.0 0  S 74.0 11.0 74.0 0  S 90.0 15.0 90.0 0  M 90.0 0 100 0" stroke="black" fill="transparent"
  transform="translate(453.666667 845.333333) rotate (-9.695610 0 0) scale (0.672945 1)"/>
  <path
  d=" M 0 0 10.0 0  C 10.000000 -14.000000 23.333333 16.000000 23.333333 0  S 36.66666666666667 16.0 36.66666666666667 0  S 50.66666666666667 -14.0 50.66666666666667 0  S 64.66666666666667 16.0 64.66666666666667 0  S 78.66666666666667 -15.0 78.66666666666667 0  S 90.0 18.0 90.0 0  M 90.0 0 100 0" stroke="black" fill="transparent"
  transform="translate(404.333333 811.000000) rotate (-87.409198 0 0) scale (0.737420 1)"/>
  <path
  d=" M 0 0 10.0 0  C 10.000000 -16.000000 20.000000 10.000000 20.000000 0  S 30.0 17.0 30.0 0  S 40.0 -18.0 40.0 0  S 50.0 10.0 50.0 0  S 60.0 -12.0 60.0 0  S 70.0 13.0 70.0 0  S 80.0 -13.0 80.0 0  S 90.0 14.0 90.0 0  M 90.0 0 100 0" stroke="black" fill="transparent"
  transform="translate(407.666667 737.333333) rotate (-41.778960 0 0) scale (0.545334 1)"/>
  <path
  d=" M 0 0 10.0 0  C 10.000000 -13.000000 20.000000 15.000000 20.000000 0  S 30.0 11.0 30.0 0  S 40.0 -19.0 40.0 0  S 50.0 17.0 50.0 0  S 60.0 -11.0 60.0 0  S 70.0 15.0 70.0 0  S 80.0 -13.0 80.0 0  S 90.0 13.0 90.0 0  M 90.0 0 100 0" stroke="black" fill="transparent"
  transform="translate(538.000000 797.666667) rotate (-2.831002 0 0) scale (0.607408 1)"/>
  <path
  d=" M 0 0 10.0 0  C 10.000000 -10.000000 20.000000 12.000000 20.000000 0  S 30.0 13.0 30.0 0  S 40.0 -16.0 40.0 0  S 50.0 13.0 50.0 0  S 60.0 -17.0 60.0 0  S 70.0 15.0 70.0 0  S 80.0 -13.0 80.0 0  S 90.0 11.0 90.0 0  M 90.0 0 100 0" stroke="black" fill="transparent"
  transform="translate(300.333333 748.000000) rotate (-46.420266 0 0) scale (0.570575 1)"/>
  <path
  d=" M 0 0 10.0 0  C 10.000000 -10.000000 23.333333 11.000000 23.333333 0  S 36.66666666666667 17.0 36.66666666666667 0  S 50.66666666666667 -12.0 50.66666666666667 0  S 64.66666666666667 13.0 64.66666666666667 0  S 78.66666666666667 -10.0 78.66666666666667 0  S 90.0 16.0 90.0 0  M 90.0 0 100 0" stroke="black" fill="transparent"
  transform="translate(286.333333 634.000000) rotate (53.723381 0 0) scale (0.901382 1)"/>
  <path
  d=" M 0 0 10.0 0  C 10.000000 -10.000000 20.000000 16.000000 20.000000 0  S 30.0 18.0 30.0 0  S 40.0 -12.0 40.0 0  S 50.0 11.0 50.0 0  S 60.0 -17.0 60.0 0  S 70.0 15.0 70.0 0  S 80.0 -19.0 80.0 0  S 90.0 10.0 90.0 0  M 90.0 0 100 0" stroke="black" fill="transparent"
  transform="translate(219.333333 643.666667) rotate (-8.209901 0 0) scale (0.676938 1)"/>
  <path
  d=" M 0 0 10.0 0  C 10.000000 -10.000000 21.428571 12.000000 21.428571 0  S 32.85714285714286 16.0 32.85714285714286 0  S 44.85714285714286 -15.0 44.85714285714286 0  S 56.85714285714286 13.0 56.85714285714286 0  S 68.85714285714286 -16.0 68.85714285714286 0  S 80.85714285714286 10.0 80.85714285714286 0  S 90.0 15.0 90.0 0  M 90.0 0 100 0" stroke="black" fill="transparent"
  transform="translate(219.333333 643.666667) rotate (74.965480 0 0) scale (0.835258 1)"/>
  <path
  d=" M 0 0 10.0 0  C 10.000000 -10.000000 21.428571 12.000000 21.428571 0  S 32.85714285714286 11.0 32.85714285714286 0  S 44.85714285714286 -16.0 44.85714285714286 0  S 56.85714285714286 16.0 56.85714285714286 0  S 68.85714285714286 -15.0 68.85714285714286 0  S 80.85714285714286 15.0 80.85714285714286 0  S 90.0 17.0 90.0 0  M 90.0 0 100 0" stroke="black" fill="transparent"
  transform="translate(260.666667 978.666667) rotate (-26.118310 0 0) scale (0.764758 1)"/>
  <path
  d=" M 0 0 10.0 0  C 10.000000 -14.000000 20.000000 14.000000 20.000000 0  S 30.0 14.0 30.0 0  S 40.0 -14.0 40.0 0  S 50.0 15.0 50.0 0  S 60.0 -14.0 60.0 0  S 70.0 10.0 70.0 0  S 80.0 -11.0 80.0 0  S 90.0 18.0 90.0 0  M 90.0 0 100 0" stroke="black" fill="transparent"
  transform="translate(260.666667 978.666667) rotate (-8.465598 0 0) scale (1.449122 1)"/>
  <path
  d=" M 0 0 10.0 0  C 10.000000 -12.000000 23.333333 11.000000 23.333333 0  S 36.66666666666667 13.0 36.66666666666667 0  S 50.66666666666667 -14.0 50.66666666666667 0  S 64.66666666666667 16.0 64.66666666666667 0  S 78.66666666666667 -18.0 78.66666666666667 0  S 90.0 19.0 90.0 0  M 90.0 0 100 0" stroke="black" fill="transparent"
  transform="translate(339.666667 706.666667) rotate (24.274441 0 0) scale (0.745952 1)"/>
  <path
  d=" M 0 0 10.0 0  C 10.000000 -12.000000 23.333333 12.000000 23.333333 0  S 36.66666666666667 11.0 36.66666666666667 0  S 50.66666666666667 -12.0 50.66666666666667 0  S 64.66666666666667 17.0 64.66666666666667 0  S 78.66666666666667 -15.0 78.66666666666667 0  S 90.0 15.0 90.0 0  M 90.0 0 100 0" stroke="black" fill="transparent"
  transform="translate(286.333333 634.000000) rotate (-69.399436 0 0) scale (1.004213 1)"/>
  <path
  d=" M 0 0 10.0 0  C 10.000000 -16.000000 20.000000 13.000000 20.000000 0  S 30.0 14.0 30.0 0  S 40.0 -17.0 40.0 0  S 50.0 15.0 50.0 0  S 60.0 -10.0 60.0 0  S 70.0 17.0 70.0 0  S 80.0 -10.0 80.0 0  S 90.0 13.0 90.0 0  M 90.0 0 100 0" stroke="black" fill="transparent"
  transform="translate(529.333333 946.666667) rotate (-61.419507 0 0) scale (0.508647 1)"/>
  <path
  d=" M 0 0 10.0 0  C 10.000000 -15.000000 23.333333 14.000000 23.333333 0  S 36.66666666666667 13.0 36.66666666666667 0  S 50.66666666666667 -12.0 50.66666666666667 0  S 64.66666666666667 17.0 64.66666666666667 0  S 78.66666666666667 -15.0 78.66666666666667 0  S 90.0 13.0 90.0 0  M 90.0 0 100 0" stroke="black" fill="transparent"
  transform="translate(520.000000 834.000000) rotate (63.660078 0 0) scale (0.758778 1)"/>
  <path
  d=" M 0 0 10.0 0  C 10.000000 -10.000000 23.333333 15.000000 23.333333 0  S 36.66666666666667 13.0 36.66666666666667 0  S 50.66666666666667 -15.0 50.66666666666667 0  S 64.66666666666667 18.0 64.66666666666667 0  S 78.66666666666667 -15.0 78.66666666666667 0  S 90.0 18.0 90.0 0  M 90.0 0 100 0" stroke="black" fill="transparent"
  transform="translate(451.000000 917.333333) rotate (20.529321 0 0) scale (0.836454 1)"/>
  <path
  d=" M 0 0 10.0 0  C 10.000000 -15.000000 26.000000 17.000000 26.000000 0  S 42.0 12.0 42.0 0  S 58.0 -13.0 58.0 0  S 74.0 10.0 74.0 0  S 90.0 11.0 90.0 0  M 90.0 0 100 0" stroke="black" fill="transparent"
  transform="translate(143.666667 639.000000) rotate (3.529190 0 0) scale (0.758104 1)"/>
  <path
  d=" M 0 0 10.0 0  C 10.000000 -13.000000 21.428571 15.000000 21.428571 0  S 32.85714285714286 16.0 32.85714285714286 0  S 44.85714285714286 -15.0 44.85714285714286 0  S 56.85714285714286 14.0 56.85714285714286 0  S 68.85714285714286 -19.0 68.85714285714286 0  S 80.85714285714286 17.0 80.85714285714286 0  S 90.0 14.0 90.0 0  M 90.0 0 100 0" stroke="black" fill="transparent"
  transform="translate(111.000000 591.333333) rotate (55.576587 0 0) scale (0.577860 1)"/>
  <path
  d=" M 0 0 10.0 0  C 10.000000 -13.000000 21.428571 12.000000 21.428571 0  S 32.85714285714286 13.0 32.85714285714286 0  S 44.85714285714286 -16.0 44.85714285714286 0  S 56.85714285714286 19.0 56.85714285714286 0  S 68.85714285714286 -15.0 68.85714285714286 0  S 80.85714285714286 14.0 80.85714285714286 0  S 90.0 17.0 90.0 0  M 90.0 0 100 0" stroke="black" fill="transparent"
  transform="translate(102.666667 711.666667) rotate (41.378515 0 0) scale (0.559732 1)"/>
  <path
  d=" M 0 0 10.0 0  C 10.000000 -14.000000 26.000000 18.000000 26.000000 0  S 42.0 15.0 42.0 0  S 58.0 -16.0 58.0 0  S 74.0 15.0 74.0 0  S 90.0 11.0 90.0 0  M 90.0 0 100 0" stroke="black" fill="transparent"
  transform="translate(102.666667 711.666667) rotate (-60.567432 0 0) scale (0.834353 1)"/>
  <path
  d=" M 0 0 10.0 0  C 10.000000 -12.000000 23.333333 14.000000 23.333333 0  S 36.66666666666667 18.0 36.66666666666667 0  S 50.66666666666667 -10.0 50.66666666666667 0  S 64.66666666666667 12.0 64.66666666666667 0  S 78.66666666666667 -15.0 78.66666666666667 0  S 90.0 19.0 90.0 0  M 90.0 0 100 0" stroke="black" fill="transparent"
  transform="translate(756.333333 139.666667) rotate (-28.064900 0 0) scale (1.480784 1)"/>
  <path
  d=" M 0 0 10.0 0  C 10.000000 -15.000000 26.000000 14.000000 26.000000 0  S 42.0 15.0 42.0 0  S 58.0 -19.0 58.0 0  S 74.0 17.0 74.0 0  S 90.0 11.0 90.0 0  M 90.0 0 100 0" stroke="black" fill="transparent"
  transform="translate(102.666667 711.666667) rotate (80.901771 0 0) scale (0.948601 1)"/>
  <path
  d=" M 0 0 10.0 0  C 10.000000 -11.000000 20.000000 18.000000 20.000000 0  S 30.0 12.0 30.0 0  S 40.0 -17.0 40.0 0  S 50.0 11.0 50.0 0  S 60.0 -14.0 60.0 0  S 70.0 12.0 70.0 0  S 80.0 -15.0 80.0 0  S 90.0 15.0 90.0 0  M 90.0 0 100 0" stroke="black" fill="transparent"
  transform="translate(553.666667 902.000000) rotate (31.272903 0 0) scale (0.635697 1)"/>
  <path
  d=" M 0 0 10.0 0  C 10.000000 -10.000000 26.000000 13.000000 26.000000 0  S 42.0 13.0 42.0 0  S 58.0 -17.0 58.0 0  S 74.0 11.0 74.0 0  S 90.0 18.0 90.0 0  M 90.0 0 100 0" stroke="black" fill="transparent"
  transform="translate(310.000000 119.000000) rotate (21.640165 0 0) scale (0.659840 1)"/>
  <path
  d=" M 0 0 10.0 0  C 10.000000 -13.000000 20.000000 11.000000 20.000000 0  S 30.0 19.0 30.0 0  S 40.0 -17.0 40.0 0  S 50.0 19.0 50.0 0  S 60.0 -10.0 60.0 0  S 70.0 17.0 70.0 0  S 80.0 -16.0 80.0 0  S 90.0 15.0 90.0 0  M 90.0 0 100 0" stroke="black" fill="transparent"
  transform="translate(81.000000 862.666667) rotate (-57.399666 0 0) scale (0.680555 1)"/>
  <path
  d=" M 0 0 10.0 0  C 10.000000 -14.000000 20.000000 18.000000 20.000000 0  S 30.0 10.0 30.0 0  S 40.0 -14.0 40.0 0  S 50.0 11.0 50.0 0  S 60.0 -17.0 60.0 0  S 70.0 11.0 70.0 0  S 80.0 -10.0 80.0 0  S 90.0 16.0 90.0 0  M 90.0 0 100 0" stroke="black" fill="transparent"
  transform="translate(949.333333 103.333333) rotate (58.912495 0 0) scale (0.794040 1)"/>
  <path
  d=" M 0 0 10.0 0  C 10.000000 -10.000000 20.000000 18.000000 20.000000 0  S 30.0 13.0 30.0 0  S 40.0 -18.0 40.0 0  S 50.0 17.0 50.0 0  S 60.0 -11.0 60.0 0  S 70.0 15.0 70.0 0  S 80.0 -15.0 80.0 0  S 90.0 16.0 90.0 0  M 90.0 0 100 0" stroke="black" fill="transparent"
  transform="translate(71.000000 540.333333) rotate (79.528483 0 0) scale (1.742352 1)"/>
  <path
  d=" M 0 0 10.0 0  C 10.000000 -11.000000 20.000000 19.000000 20.000000 0  S 30.0 10.0 30.0 0  S 40.0 -18.0 40.0 0  S 50.0 19.0 50.0 0  S 60.0 -11.0 60.0 0  S 70.0 17.0 70.0 0  S 80.0 -19.0 80.0 0  S 90.0 11.0 90.0 0  M 90.0 0 100 0" stroke="black" fill="transparent"
  transform="translate(972.333333 713.000000) rotate (-87.438693 0 0) scale (2.312310 1)"/>
  <path
  d=" M 0 0 10.0 0  C 10.000000 -13.000000 23.333333 11.000000 23.333333 0  S 36.66666666666667 12.0 36.66666666666667 0  S 50.66666666666667 -12.0 50.66666666666667 0  S 64.66666666666667 16.0 64.66666666666667 0  S 78.66666666666667 -18.0 78.66666666666667 0  S 90.0 15.0 90.0 0  M 90.0 0 100 0" stroke="black" fill="transparent"
  transform="translate(908.333333 944.000000) rotate (-53.331375 0 0) scale (0.569337 1)"/>
  
  <path id="cat" fill="none" stroke="#000000" stroke-width="1" stroke-miterlimit="10" d="M55.571,141.777l55.54,0.994
        c0.142-7.894-0.396-9.472-13.47-9.706c2.201-6.229,10.96-21.235,15.679-21.15c4.177,0.075,9.152,0.395,8.982,9.915
        c-0.193,10.812,17.689,28.577,22.23,21.538c6.766-10.479-11.173-7.564-10.715-33.132c0.626-34.97,20.944-29.626,21.295-49.276
        c0.176-9.83-2.514-11.206-2.388-18.234c0.167-9.286,8.34-8.601,6.885-16.331c-1.006-5.339-1.79-9.62-2.313-16.064
        c-0.375-4.573-0.436-9.441-5.177-9.33c-5.573,0.13-7.862,9.897-16.535,10.445c-8.652,0.547-15.876-7.642-19.244-6.551
        c-3.333,1.082-2.453,10.097-0.601,16.521c2.912,10.098,9.417,23.274-2.906,25.02c-12.323,1.746-33.492,3.334-49.089,23.213
        c-15.597,19.878-15.46,43.54-21.557,50.747c-20.472,24.196-40.82,13.749-41.186,34.17c-0.164,9.146,15.213,16.005,17.724,13.1
        c2.51-2.905-20.671-12.105,5.628-22.024C46.823,137.176,48.846,135.403,55.571,141.777z"
        transform="translate(320.5 316.5)"
        /><path
  d=" M 0 0 10.0 0  C 10.000000 -11.000000 21.428571 13.000000 21.428571 0  S 32.85714285714286 12.0 32.85714285714286 0  S 44.85714285714286 -12.0 44.85714285714286 0  S 56.85714285714286 19.0 56.85714285714286 0  S 68.85714285714286 -18.0 68.85714285714286 0  S 80.85714285714286 13.0 80.85714285714286 0  S 90.0 14.0 90.0 0  M 90.0 0 100 0" stroke="black" fill="transparent"
  transform="translate(339.230000 484.170000) rotate (107.462843 0 0) scale (0.585274 1)"/>
  <path
  d=" M 0 0 10.0 0  C 10.000000 -15.000000 26.000000 11.000000 26.000000 0  S 42.0 18.0 42.0 0  S 58.0 -14.0 58.0 0  S 74.0 13.0 74.0 0  S 90.0 19.0 90.0 0  M 90.0 0 100 0" stroke="black" fill="transparent"
  transform="translate(384.240000 386.150000) rotate (167.740966 0 0) scale (1.343024 1)"/>
  <path
  d=" M 0 0 10.0 0  C 10.000000 -16.000000 21.428571 18.000000 21.428571 0  S 32.85714285714286 17.0 32.85714285714286 0  S 44.85714285714286 -11.0 44.85714285714286 0  S 56.85714285714286 15.0 56.85714285714286 0  S 68.85714285714286 -10.0 68.85714285714286 0  S 80.85714285714286 19.0 80.85714285714286 0  S 90.0 15.0 90.0 0  M 90.0 0 100 0" stroke="black" fill="transparent"
  transform="translate(436.840000 321.390000) rotate (-56.610689 0 0) scale (0.863005 1)"/>
  <path
  d=" M 0 0 10.0 0  C 10.000000 -11.000000 26.000000 11.000000 26.000000 0  S 42.0 18.0 42.0 0  S 58.0 -12.0 58.0 0  S 74.0 11.0 74.0 0  S 90.0 11.0 90.0 0  M 90.0 0 100 0" stroke="black" fill="transparent"
  transform="translate(465.030000 459.870000) rotate (23.170234 0 0) scale (0.884366 1)"/>
  <path
  d=" M 0 0 10.0 0  C 10.000000 -15.000000 26.000000 18.000000 26.000000 0  S 42.0 18.0 42.0 0  S 58.0 -16.0 58.0 0  S 74.0 18.0 74.0 0  S 90.0 13.0 90.0 0  M 90.0 0 100 0" stroke="black" fill="transparent"
  transform="translate(475.610000 377.460000) rotate (-12.393824 0 0) scale (1.061982 1)"/>
  
</svg>
