<svg xmlns="http://www.w3.org/2000/svg"
  xmlns:xlink="http://www.w3.org/1999/xlink"
  width="1500" height="1500">
<path
  d=" M 0 0 10.0 0 C 17.0 -24.0 52.0 25.0 50.0 0  S 90.0 29.0 90.0 0 M 90.0 0 100 0" stroke="black" fill="transparent"
  transform="translate(281.333333 540.000000) rotate (43.170536 0 0) scale (0.959797 1)"/>
  <path
  d=" M 0 0 10.0 0 C 24.0 -23.0 68.0 26.0 50.0 0  S 90.0 29.0 90.0 0 M 90.0 0 100 0" stroke="black" fill="transparent"
  transform="translate(235.000000 415.000000) rotate (69.661936 0 0) scale (1.333108 1)"/>
  <path
  d=" M 0 0 10.0 0 C 24.0 -24.0 56.0 25.0 50.0 0  S 90.0 21.0 90.0 0 M 90.0 0 100 0" stroke="black" fill="transparent"
  transform="translate(235.000000 415.000000) rotate (-74.529912 0 0) scale (1.324659 1)"/>
  <path
  d=" M 0 0 10.0 0 C 30.0 -29.0 54.0 20.0 50.0 0  S 90.0 20.0 90.0 0 M 90.0 0 100 0" stroke="black" fill="transparent"
  transform="translate(270.333333 287.333333) rotate (-35.357361 0 0) scale (0.985010 1)"/>
  <path
  d=" M 0 0 10.0 0 C 27.0 -25.0 68.0 26.0 50.0 0  S 90.0 25.0 90.0 0 M 90.0 0 100 0" stroke="black" fill="transparent"
  transform="translate(350.666667 230.333333) rotate (-4.419871 0 0) scale (0.692058 1)"/>
  <path
  d=" M 0 0 10.0 0 C 15.0 -27.0 55.0 23.0 50.0 0  S 90.0 25.0 90.0 0 M 90.0 0 100 0" stroke="black" fill="transparent"
  transform="translate(419.666667 225.000000) rotate (13.861028 0 0) scale (0.793095 1)"/>
  <path
  d=" M 0 0 10.0 0 C 28.0 -20.0 66.0 21.0 50.0 0  S 90.0 26.0 90.0 0 M 90.0 0 100 0" stroke="black" fill="transparent"
  transform="translate(496.666667 244.000000) rotate (55.201445 0 0) scale (1.051354 1)"/>
  <path
  d=" M 0 0 10.0 0 C 20.0 -20.0 60.0 26.0 50.0 0  S 90.0 27.0 90.0 0 M 90.0 0 100 0" stroke="black" fill="transparent"
  transform="translate(556.666667 330.333333) rotate (85.089272 0 0) scale (1.401812 1)"/>
  <path
  d=" M 0 0 10.0 0 C 25.0 -23.0 51.0 29.0 50.0 0  S 90.0 21.0 90.0 0 M 90.0 0 100 0" stroke="black" fill="transparent"
  transform="translate(542.000000 561.666667) rotate (-73.779806 0 0) scale (0.954667 1)"/>
  <path
  d=" M 0 0 10.0 0 C 20.0 -25.0 63.0 27.0 50.0 0  S 90.0 24.0 90.0 0 M 90.0 0 100 0" stroke="black" fill="transparent"
  transform="translate(452.333333 602.000000) rotate (-24.218888 0 0) scale (0.983203 1)"/>
  <path
  d=" M 0 0 10.0 0 C 20.0 -28.0 64.0 28.0 50.0 0  S 90.0 22.0 90.0 0 M 90.0 0 100 0" stroke="black" fill="transparent"
  transform="translate(351.333333 605.666667) rotate (-2.079132 0 0) scale (1.010665 1)"/>
  <path
  d=" M 0 0 10.0 0 C 18.0 -28.0 68.0 27.0 50.0 0  S 90.0 25.0 90.0 0 M 90.0 0 100 0" stroke="black" fill="transparent"
  transform="translate(641.666667 665.666667) rotate (-9.587833 0 0) scale (0.500322 1)"/>
  <path
  d=" M 0 0 10.0 0 C 14.0 -22.0 66.0 28.0 50.0 0  S 90.0 24.0 90.0 0 M 90.0 0 100 0" stroke="black" fill="transparent"
  transform="translate(691.000000 657.333333) rotate (-81.366580 0 0) scale (0.643963 1)"/>
  <path
  d=" M 0 0 10.0 0 C 25.0 -21.0 63.0 29.0 50.0 0  S 90.0 25.0 90.0 0 M 90.0 0 100 0" stroke="black" fill="transparent"
  transform="translate(678.000000 510.333333) rotate (74.783673 0 0) scale (0.863610 1)"/>
  <path
  d=" M 0 0 10.0 0 C 11.0 -28.0 70.0 23.0 50.0 0  S 90.0 28.0 90.0 0 M 90.0 0 100 0" stroke="black" fill="transparent"
  transform="translate(568.666667 470.000000) rotate (20.249141 0 0) scale (1.165356 1)"/>
  <path
  d=" M 0 0 10.0 0 C 22.0 -22.0 58.0 21.0 50.0 0  S 90.0 21.0 90.0 0 M 90.0 0 100 0" stroke="black" fill="transparent"
  transform="translate(542.000000 561.666667) rotate (46.218875 0 0) scale (1.440467 1)"/>
  <path
  d=" M 0 0 10.0 0 C 25.0 -25.0 67.0 29.0 50.0 0  S 90.0 28.0 90.0 0 M 90.0 0 100 0" stroke="black" fill="transparent"
  transform="translate(457.333333 916.666667) rotate (-77.079250 0 0) scale (0.581387 1)"/>
  <path
  d=" M 0 0 10.0 0 C 18.0 -28.0 57.0 28.0 50.0 0  S 90.0 26.0 90.0 0 M 90.0 0 100 0" stroke="black" fill="transparent"
  transform="translate(457.333333 916.666667) rotate (63.845664 0 0) scale (0.415919 1)"/>
  <path
  d=" M 0 0 10.0 0 C 12.0 -26.0 66.0 22.0 50.0 0  S 90.0 29.0 90.0 0 M 90.0 0 100 0" stroke="black" fill="transparent"
  transform="translate(475.666667 954.000000) rotate (-17.281498 0 0) scale (0.471275 1)"/>
  <path
  d=" M 0 0 10.0 0 C 19.0 -27.0 57.0 20.0 50.0 0  S 90.0 25.0 90.0 0 M 90.0 0 100 0" stroke="black" fill="transparent"
  transform="translate(520.666667 940.000000) rotate (-67.997271 0 0) scale (0.880820 1)"/>
  <path
  d=" M 0 0 10.0 0 C 17.0 -21.0 64.0 28.0 50.0 0  S 90.0 29.0 90.0 0 M 90.0 0 100 0" stroke="black" fill="transparent"
  transform="translate(521.666667 815.666667) rotate (53.130102 0 0) scale (0.533333 1)"/>
  <path
  d=" M 0 0 10.0 0 C 11.0 -28.0 54.0 22.0 50.0 0  S 90.0 23.0 90.0 0 M 90.0 0 100 0" stroke="black" fill="transparent"
  transform="translate(470.333333 860.000000) rotate (-40.815084 0 0) scale (0.678274 1)"/>
  <path
  d=" M 0 0 10.0 0 C 23.0 -28.0 53.0 25.0 50.0 0  S 90.0 28.0 90.0 0 M 90.0 0 100 0" stroke="black" fill="transparent"
  transform="translate(301.666667 869.000000) rotate (85.567332 0 0) scale (0.431290 1)"/>
  <path
  d=" M 0 0 10.0 0 C 13.0 -27.0 53.0 28.0 50.0 0  S 90.0 29.0 90.0 0 M 90.0 0 100 0" stroke="black" fill="transparent"
  transform="translate(268.333333 970.666667) rotate (-57.994617 0 0) scale (0.691825 1)"/>
  <path
  d=" M 0 0 10.0 0 C 17.0 -22.0 58.0 29.0 50.0 0  S 90.0 25.0 90.0 0 M 90.0 0 100 0" stroke="black" fill="transparent"
  transform="translate(202.000000 964.333333) rotate (5.453919 0 0) scale (0.666350 1)"/>
  <path
  d=" M 0 0 10.0 0 C 23.0 -28.0 66.0 26.0 50.0 0  S 90.0 21.0 90.0 0 M 90.0 0 100 0" stroke="black" fill="transparent"
  transform="translate(176.000000 896.333333) rotate (69.075498 0 0) scale (0.728011 1)"/>
  <path
  d=" M 0 0 10.0 0 C 21.0 -21.0 52.0 29.0 50.0 0  S 90.0 20.0 90.0 0 M 90.0 0 100 0" stroke="black" fill="transparent"
  transform="translate(176.000000 896.333333) rotate (-30.199858 0 0) scale (0.728934 1)"/>
  <path
  d=" M 0 0 10.0 0 C 14.0 -23.0 68.0 24.0 50.0 0  S 90.0 24.0 90.0 0 M 90.0 0 100 0" stroke="black" fill="transparent"
  transform="translate(239.000000 859.666667) rotate (8.471145 0 0) scale (0.633579 1)"/>
  <path
  d=" M 0 0 10.0 0 C 19.0 -22.0 62.0 20.0 50.0 0  S 90.0 20.0 90.0 0 M 90.0 0 100 0" stroke="black" fill="transparent"
  transform="translate(939.000000 608.666667) rotate (59.180082 0 0) scale (0.683138 1)"/>
  <path
  d=" M 0 0 10.0 0 C 23.0 -21.0 53.0 21.0 50.0 0  S 90.0 24.0 90.0 0 M 90.0 0 100 0" stroke="black" fill="transparent"
  transform="translate(939.000000 608.666667) rotate (-55.793103 0 0) scale (0.717441 1)"/>
  <path
  d=" M 0 0 10.0 0 C 28.0 -28.0 66.0 28.0 50.0 0  S 90.0 24.0 90.0 0 M 90.0 0 100 0" stroke="black" fill="transparent"
  transform="translate(979.333333 549.333333) rotate (-44.215175 0 0) scale (0.688315 1)"/>
  <path
  d=" M 0 0 10.0 0 C 30.0 -21.0 53.0 20.0 50.0 0  S 90.0 23.0 90.0 0 M 90.0 0 100 0" stroke="black" fill="transparent"
  transform="translate(974.000000 667.333333) rotate (-71.772393 0 0) scale (1.747697 1)"/>
  <path
  d=" M 0 0 10.0 0 C 19.0 -20.0 70.0 24.0 50.0 0  S 90.0 21.0 90.0 0 M 90.0 0 100 0" stroke="black" fill="transparent"
  transform="translate(325.333333 747.666667) rotate (-79.624155 0 0) scale (1.443607 1)"/>
  <path
  d=" M 0 0 10.0 0 C 11.0 -21.0 56.0 20.0 50.0 0  S 90.0 23.0 90.0 0 M 90.0 0 100 0" stroke="black" fill="transparent"
  transform="translate(325.333333 747.666667) rotate (43.678024 0 0) scale (0.612989 1)"/>
  <path
  d=" M 0 0 10.0 0 C 15.0 -22.0 68.0 27.0 50.0 0  S 90.0 28.0 90.0 0 M 90.0 0 100 0" stroke="black" fill="transparent"
  transform="translate(369.666667 790.000000) rotate (-9.631170 0 0) scale (0.557863 1)"/>
  <path
  d=" M 0 0 10.0 0 C 18.0 -26.0 63.0 27.0 50.0 0  S 90.0 27.0 90.0 0 M 90.0 0 100 0" stroke="black" fill="transparent"
  transform="translate(424.666667 780.666667) rotate (-29.690727 0 0) scale (0.437429 1)"/>
  <path
  d=" M 0 0 10.0 0 C 22.0 -23.0 62.0 20.0 50.0 0  S 90.0 21.0 90.0 0 M 90.0 0 100 0" stroke="black" fill="transparent"
  transform="translate(462.666667 759.000000) rotate (-53.569142 0 0) scale (0.522015 1)"/>
  <path
  d=" M 0 0 10.0 0 C 21.0 -29.0 60.0 24.0 50.0 0  S 90.0 22.0 90.0 0 M 90.0 0 100 0" stroke="black" fill="transparent"
  transform="translate(452.333333 602.000000) rotate (70.230533 0 0) scale (1.222025 1)"/>
  <path
  d=" M 0 0 10.0 0 C 20.0 -25.0 66.0 21.0 50.0 0  S 90.0 26.0 90.0 0 M 90.0 0 100 0" stroke="black" fill="transparent"
  transform="translate(785.666667 995.000000) rotate (8.935614 0 0) scale (0.536511 1)"/>
  <path
  d=" M 0 0 10.0 0 C 25.0 -27.0 57.0 26.0 50.0 0  S 90.0 23.0 90.0 0 M 90.0 0 100 0" stroke="black" fill="transparent"
  transform="translate(719.666667 1011.666667) rotate (-14.172338 0 0) scale (0.680719 1)"/>
  <path
  d=" M 0 0 10.0 0 C 30.0 -26.0 52.0 27.0 50.0 0  S 90.0 24.0 90.0 0 M 90.0 0 100 0" stroke="black" fill="transparent"
  transform="translate(639.000000 1010.333333) rotate (0.946951 0 0) scale (0.806777 1)"/>
  <path
  d=" M 0 0 10.0 0 C 13.0 -26.0 68.0 26.0 50.0 0  S 90.0 24.0 90.0 0 M 90.0 0 100 0" stroke="black" fill="transparent"
  transform="translate(511.333333 1022.666667) rotate (-5.517978 0 0) scale (1.282610 1)"/>
  <path
  d=" M 0 0 10.0 0 C 15.0 -24.0 57.0 21.0 50.0 0  S 90.0 23.0 90.0 0 M 90.0 0 100 0" stroke="black" fill="transparent"
  transform="translate(511.333333 1022.666667) rotate (-3.380142 0 0) scale (3.279038 1)"/>
  <path
  d=" M 0 0 10.0 0 C 29.0 -21.0 64.0 26.0 50.0 0  S 90.0 22.0 90.0 0 M 90.0 0 100 0" stroke="black" fill="transparent"
  transform="translate(700.666667 593.666667) rotate (6.009006 0 0) scale (0.573149 1)"/>
  <path
  d=" M 0 0 10.0 0 C 29.0 -21.0 67.0 28.0 50.0 0  S 90.0 24.0 90.0 0 M 90.0 0 100 0" stroke="black" fill="transparent"
  transform="translate(691.000000 657.333333) rotate (30.706442 0 0) scale (0.763748 1)"/>
  <path
  d=" M 0 0 10.0 0 C 16.0 -21.0 56.0 27.0 50.0 0  S 90.0 27.0 90.0 0 M 90.0 0 100 0" stroke="black" fill="transparent"
  transform="translate(756.666667 696.333333) rotate (-34.467288 0 0) scale (0.477086 1)"/>
  <path
  d=" M 0 0 10.0 0 C 14.0 -23.0 67.0 29.0 50.0 0  S 90.0 23.0 90.0 0 M 90.0 0 100 0" stroke="black" fill="transparent"
  transform="translate(757.666667 599.666667) rotate (61.178684 0 0) scale (0.795166 1)"/>
  <path
  d=" M 0 0 10.0 0 C 27.0 -28.0 59.0 20.0 50.0 0  S 90.0 24.0 90.0 0 M 90.0 0 100 0" stroke="black" fill="transparent"
  transform="translate(175.333333 110.666667) rotate (-47.602562 0 0) scale (0.311448 1)"/>
  <path
  d=" M 0 0 10.0 0 C 25.0 -21.0 64.0 27.0 50.0 0  S 90.0 26.0 90.0 0 M 90.0 0 100 0" stroke="black" fill="transparent"
  transform="translate(148.000000 139.666667) rotate (-46.694647 0 0) scale (0.398511 1)"/>
  <path
  d=" M 0 0 10.0 0 C 17.0 -24.0 54.0 25.0 50.0 0  S 90.0 29.0 90.0 0 M 90.0 0 100 0" stroke="black" fill="transparent"
  transform="translate(105.666667 229.333333) rotate (-64.727116 0 0) scale (0.991576 1)"/>
  <path
  d=" M 0 0 10.0 0 C 24.0 -21.0 53.0 29.0 50.0 0  S 90.0 24.0 90.0 0 M 90.0 0 100 0" stroke="black" fill="transparent"
  transform="translate(105.666667 229.333333) rotate (-57.380757 0 0) scale (1.681960 1)"/>
  <path
  d=" M 0 0 10.0 0 C 26.0 -29.0 52.0 22.0 50.0 0  S 90.0 28.0 90.0 0 M 90.0 0 100 0" stroke="black" fill="transparent"
  transform="translate(975.333333 177.000000) rotate (69.109175 0 0) scale (0.467392 1)"/>
  <path
  d=" M 0 0 10.0 0 C 23.0 -21.0 52.0 25.0 50.0 0  S 90.0 26.0 90.0 0 M 90.0 0 100 0" stroke="black" fill="transparent"
  transform="translate(992.000000 220.666667) rotate (73.264004 0 0) scale (0.497750 1)"/>
  <path
  d=" M 0 0 10.0 0 C 28.0 -23.0 53.0 24.0 50.0 0  S 90.0 23.0 90.0 0 M 90.0 0 100 0" stroke="black" fill="transparent"
  transform="translate(975.333333 177.000000) rotate (71.251963 0 0) scale (0.964509 1)"/>
  <path
  d=" M 0 0 10.0 0 C 17.0 -24.0 55.0 22.0 50.0 0  S 90.0 25.0 90.0 0 M 90.0 0 100 0" stroke="black" fill="transparent"
  transform="translate(532.333333 766.666667) rotate (-53.569142 0 0) scale (0.522015 1)"/>
  <path
  d=" M 0 0 10.0 0 C 30.0 -21.0 58.0 21.0 50.0 0  S 90.0 26.0 90.0 0 M 90.0 0 100 0" stroke="black" fill="transparent"
  transform="translate(563.333333 724.666667) rotate (-10.678947 0 0) scale (0.593614 1)"/>
  <path
  d=" M 0 0 10.0 0 C 18.0 -29.0 60.0 22.0 50.0 0  S 90.0 25.0 90.0 0 M 90.0 0 100 0" stroke="black" fill="transparent"
  transform="translate(621.666667 713.666667) rotate (51.230325 0 0) scale (0.542965 1)"/>
  <path
  d=" M 0 0 10.0 0 C 22.0 -29.0 67.0 20.0 50.0 0  S 90.0 25.0 90.0 0 M 90.0 0 100 0" stroke="black" fill="transparent"
  transform="translate(617.000000 827.333333) rotate (-61.539824 0 0) scale (0.811391 1)"/>
  <path
  d=" M 0 0 10.0 0 C 23.0 -24.0 59.0 29.0 50.0 0  S 90.0 26.0 90.0 0 M 90.0 0 100 0" stroke="black" fill="transparent"
  transform="translate(553.666667 858.333333) rotate (-26.080532 0 0) scale (0.705132 1)"/>
  <path
  d=" M 0 0 10.0 0 C 25.0 -27.0 66.0 23.0 50.0 0  S 90.0 27.0 90.0 0 M 90.0 0 100 0" stroke="black" fill="transparent"
  transform="translate(521.666667 815.666667) rotate (-77.719046 0 0) scale (0.501476 1)"/>
  <path
  d=" M 0 0 10.0 0 C 22.0 -26.0 56.0 25.0 50.0 0  S 90.0 20.0 90.0 0 M 90.0 0 100 0" stroke="black" fill="transparent"
  transform="translate(105.333333 679.333333) rotate (-67.097892 0 0) scale (0.676675 1)"/>
  <path
  d=" M 0 0 10.0 0 C 20.0 -28.0 63.0 29.0 50.0 0  S 90.0 29.0 90.0 0 M 90.0 0 100 0" stroke="black" fill="transparent"
  transform="translate(105.333333 679.333333) rotate (65.002353 0 0) scale (0.599491 1)"/>
  <path
  d=" M 0 0 10.0 0 C 24.0 -27.0 67.0 28.0 50.0 0  S 90.0 21.0 90.0 0 M 90.0 0 100 0" stroke="black" fill="transparent"
  transform="translate(130.666667 733.666667) rotate (58.793809 0 0) scale (0.405312 1)"/>
  <path
  d=" M 0 0 10.0 0 C 14.0 -24.0 67.0 27.0 50.0 0  S 90.0 24.0 90.0 0 M 90.0 0 100 0" stroke="black" fill="transparent"
  transform="translate(151.666667 768.333333) rotate (21.205165 0 0) scale (0.654302 1)"/>
  <path
  d=" M 0 0 10.0 0 C 12.0 -29.0 70.0 27.0 50.0 0  S 90.0 28.0 90.0 0 M 90.0 0 100 0" stroke="black" fill="transparent"
  transform="translate(212.666667 792.000000) rotate (-49.010485 0 0) scale (0.640321 1)"/>
  <path
  d=" M 0 0 10.0 0 C 25.0 -27.0 55.0 21.0 50.0 0  S 90.0 29.0 90.0 0 M 90.0 0 100 0" stroke="black" fill="transparent"
  transform="translate(203.000000 647.333333) rotate (61.793909 0 0) scale (1.093140 1)"/>
  <path
  d=" M 0 0 10.0 0 C 12.0 -20.0 66.0 22.0 50.0 0  S 90.0 29.0 90.0 0 M 90.0 0 100 0" stroke="black" fill="transparent"
  transform="translate(131.666667 617.000000) rotate (23.036830 0 0) scale (0.775149 1)"/>
  <path
  d=" M 0 0 10.0 0 C 20.0 -23.0 56.0 20.0 50.0 0  S 90.0 22.0 90.0 0 M 90.0 0 100 0" stroke="black" fill="transparent"
  transform="translate(699.000000 183.000000) rotate (-39.042869 0 0) scale (0.545059 1)"/>
  <path
  d=" M 0 0 10.0 0 C 19.0 -22.0 69.0 27.0 50.0 0  S 90.0 21.0 90.0 0 M 90.0 0 100 0" stroke="black" fill="transparent"
  transform="translate(699.000000 183.000000) rotate (70.419288 0 0) scale (0.527152 1)"/>
  <path
  d=" M 0 0 10.0 0 C 13.0 -26.0 56.0 26.0 50.0 0  S 90.0 22.0 90.0 0 M 90.0 0 100 0" stroke="black" fill="transparent"
  transform="translate(716.666667 232.666667) rotate (6.161478 0 0) scale (0.590075 1)"/>
  <path
  d=" M 0 0 10.0 0 C 26.0 -26.0 63.0 28.0 50.0 0  S 90.0 24.0 90.0 0 M 90.0 0 100 0" stroke="black" fill="transparent"
  transform="translate(775.333333 239.000000) rotate (-64.763736 0 0) scale (0.578552 1)"/>
  <path
  d=" M 0 0 10.0 0 C 20.0 -20.0 66.0 29.0 50.0 0  S 90.0 25.0 90.0 0 M 90.0 0 100 0" stroke="black" fill="transparent"
  transform="translate(741.333333 148.666667) rotate (32.932231 0 0) scale (0.698983 1)"/>
  <path
  d=" M 0 0 10.0 0 C 29.0 -29.0 68.0 26.0 50.0 0  S 90.0 22.0 90.0 0 M 90.0 0 100 0" stroke="black" fill="transparent"
  transform="translate(971.666667 437.333333) rotate (48.310942 0 0) scale (0.857030 1)"/>
  <path
  d=" M 0 0 10.0 0 C 26.0 -23.0 59.0 20.0 50.0 0  S 90.0 28.0 90.0 0 M 90.0 0 100 0" stroke="black" fill="transparent"
  transform="translate(922.333333 485.333333) rotate (-44.215175 0 0) scale (0.688315 1)"/>
  <path
  d=" M 0 0 10.0 0 C 22.0 -27.0 65.0 20.0 50.0 0  S 90.0 25.0 90.0 0 M 90.0 0 100 0" stroke="black" fill="transparent"
  transform="translate(922.333333 485.333333) rotate (48.310942 0 0) scale (0.857030 1)"/>
  <path
  d=" M 0 0 10.0 0 C 18.0 -25.0 57.0 29.0 50.0 0  S 90.0 25.0 90.0 0 M 90.0 0 100 0" stroke="black" fill="transparent"
  transform="translate(918.000000 718.666667) rotate (-42.510447 0 0) scale (0.759678 1)"/>
  <path
  d=" M 0 0 10.0 0 C 16.0 -20.0 67.0 21.0 50.0 0  S 90.0 29.0 90.0 0 M 90.0 0 100 0" stroke="black" fill="transparent"
  transform="translate(974.000000 667.333333) rotate (46.994569 0 0) scale (0.474049 1)"/>
  <path
  d=" M 0 0 10.0 0 C 30.0 -23.0 64.0 22.0 50.0 0  S 90.0 26.0 90.0 0 M 90.0 0 100 0" stroke="black" fill="transparent"
  transform="translate(950.333333 753.333333) rotate (-42.510447 0 0) scale (0.759678 1)"/>
  <path
  d=" M 0 0 10.0 0 C 18.0 -20.0 53.0 26.0 50.0 0  S 90.0 23.0 90.0 0 M 90.0 0 100 0" stroke="black" fill="transparent"
  transform="translate(918.000000 718.666667) rotate (46.994569 0 0) scale (0.474049 1)"/>
  <path
  d=" M 0 0 10.0 0 C 21.0 -25.0 63.0 23.0 50.0 0  S 90.0 29.0 90.0 0 M 90.0 0 100 0" stroke="black" fill="transparent"
  transform="translate(419.666667 225.000000) rotate (-64.495861 0 0) scale (1.207684 1)"/>
  <path
  d=" M 0 0 10.0 0 C 14.0 -26.0 64.0 29.0 50.0 0  S 90.0 29.0 90.0 0 M 90.0 0 100 0" stroke="black" fill="transparent"
  transform="translate(471.666667 116.000000) rotate (13.861028 0 0) scale (0.793095 1)"/>
  <path
  d=" M 0 0 10.0 0 C 30.0 -22.0 60.0 27.0 50.0 0  S 90.0 25.0 90.0 0 M 90.0 0 100 0" stroke="black" fill="transparent"
  transform="translate(496.666667 244.000000) rotate (-64.495861 0 0) scale (1.207684 1)"/>
  <path
  d=" M 0 0 10.0 0 C 24.0 -27.0 51.0 23.0 50.0 0  S 90.0 28.0 90.0 0 M 90.0 0 100 0" stroke="black" fill="transparent"
  transform="translate(300.666667 124.000000) rotate (-15.972132 0 0) scale (0.981212 1)"/>
  <path
  d=" M 0 0 10.0 0 C 12.0 -22.0 52.0 28.0 50.0 0  S 90.0 29.0 90.0 0 M 90.0 0 100 0" stroke="black" fill="transparent"
  transform="translate(395.000000 97.000000) rotate (13.918954 0 0) scale (0.789859 1)"/>
  <path
  d=" M 0 0 10.0 0 C 15.0 -25.0 58.0 22.0 50.0 0  S 90.0 22.0 90.0 0 M 90.0 0 100 0" stroke="black" fill="transparent"
  transform="translate(300.666667 124.000000) rotate (64.816178 0 0) scale (1.175022 1)"/>
  <path
  d=" M 0 0 10.0 0 C 24.0 -25.0 59.0 24.0 50.0 0  S 90.0 22.0 90.0 0 M 90.0 0 100 0" stroke="black" fill="transparent"
  transform="translate(799.333333 849.000000) rotate (-27.407575 0 0) scale (0.608276 1)"/>
  <path
  d=" M 0 0 10.0 0 C 28.0 -20.0 69.0 23.0 50.0 0  S 90.0 24.0 90.0 0 M 90.0 0 100 0" stroke="black" fill="transparent"
  transform="translate(740.666667 811.666667) rotate (32.471192 0 0) scale (0.695382 1)"/>
  <path
  d=" M 0 0 10.0 0 C 20.0 -24.0 66.0 23.0 50.0 0  S 90.0 26.0 90.0 0 M 90.0 0 100 0" stroke="black" fill="transparent"
  transform="translate(735.333333 759.000000) rotate (84.217608 0 0) scale (0.529360 1)"/>
  <path
  d=" M 0 0 10.0 0 C 28.0 -24.0 54.0 29.0 50.0 0  S 90.0 24.0 90.0 0 M 90.0 0 100 0" stroke="black" fill="transparent"
  transform="translate(735.333333 759.000000) rotate (-23.198591 0 0) scale (0.583876 1)"/>
  <path
  d=" M 0 0 10.0 0 C 15.0 -27.0 54.0 24.0 50.0 0  S 90.0 23.0 90.0 0 M 90.0 0 100 0" stroke="black" fill="transparent"
  transform="translate(789.000000 736.000000) rotate (22.574138 0 0) scale (0.642564 1)"/>
  <path
  d=" M 0 0 10.0 0 C 11.0 -22.0 66.0 20.0 50.0 0  S 90.0 25.0 90.0 0 M 90.0 0 100 0" stroke="black" fill="transparent"
  transform="translate(848.333333 760.666667) rotate (85.262557 0 0) scale (0.605402 1)"/>
  <path
  d=" M 0 0 10.0 0 C 25.0 -25.0 58.0 24.0 50.0 0  S 90.0 24.0 90.0 0 M 90.0 0 100 0" stroke="black" fill="transparent"
  transform="translate(443.000000 832.666667) rotate (45.000000 0 0) scale (0.386552 1)"/>
  <path
  d=" M 0 0 10.0 0 C 25.0 -27.0 62.0 21.0 50.0 0  S 90.0 27.0 90.0 0 M 90.0 0 100 0" stroke="black" fill="transparent"
  transform="translate(462.666667 759.000000) rotate (6.280007 0 0) scale (0.700872 1)"/>
  <path
  d=" M 0 0 10.0 0 C 16.0 -24.0 53.0 26.0 50.0 0  S 90.0 26.0 90.0 0 M 90.0 0 100 0" stroke="black" fill="transparent"
  transform="translate(424.666667 780.666667) rotate (70.579179 0 0) scale (0.551372 1)"/>
  <path
  d=" M 0 0 10.0 0 C 19.0 -21.0 64.0 21.0 50.0 0  S 90.0 23.0 90.0 0 M 90.0 0 100 0" stroke="black" fill="transparent"
  transform="translate(913.666667 850.666667) rotate (-46.406982 0 0) scale (0.671954 1)"/>
  <path
  d=" M 0 0 10.0 0 C 22.0 -27.0 65.0 21.0 50.0 0  S 90.0 21.0 90.0 0 M 90.0 0 100 0" stroke="black" fill="transparent"
  transform="translate(913.666667 850.666667) rotate (63.183653 0 0) scale (0.679771 1)"/>
  <path
  d=" M 0 0 10.0 0 C 13.0 -29.0 53.0 22.0 50.0 0  S 90.0 25.0 90.0 0 M 90.0 0 100 0" stroke="black" fill="transparent"
  transform="translate(944.333333 911.333333) rotate (-81.845444 0 0) scale (1.104501 1)"/>
  <path
  d=" M 0 0 10.0 0 C 18.0 -27.0 59.0 22.0 50.0 0  S 90.0 23.0 90.0 0 M 90.0 0 100 0" stroke="black" fill="transparent"
  transform="translate(86.000000 509.333333) rotate (-75.206796 0 0) scale (0.979121 1)"/>
  <path
  d=" M 0 0 10.0 0 C 28.0 -21.0 60.0 26.0 50.0 0  S 90.0 22.0 90.0 0 M 90.0 0 100 0" stroke="black" fill="transparent"
  transform="translate(111.000000 414.666667) rotate (47.798899 0 0) scale (0.530963 1)"/>
  <path
  d=" M 0 0 10.0 0 C 20.0 -29.0 62.0 22.0 50.0 0  S 90.0 28.0 90.0 0 M 90.0 0 100 0" stroke="black" fill="transparent"
  transform="translate(121.666667 548.666667) rotate (-75.206796 0 0) scale (0.979121 1)"/>
  <path
  d=" M 0 0 10.0 0 C 17.0 -20.0 69.0 25.0 50.0 0  S 90.0 27.0 90.0 0 M 90.0 0 100 0" stroke="black" fill="transparent"
  transform="translate(86.000000 509.333333) rotate (47.798899 0 0) scale (0.530963 1)"/>
  <path
  d=" M 0 0 10.0 0 C 26.0 -20.0 60.0 23.0 50.0 0  S 90.0 20.0 90.0 0 M 90.0 0 100 0" stroke="black" fill="transparent"
  transform="translate(973.333333 301.000000) rotate (-76.918598 0 0) scale (0.824736 1)"/>
  <path
  d=" M 0 0 10.0 0 C 28.0 -21.0 63.0 20.0 50.0 0  S 90.0 21.0 90.0 0 M 90.0 0 100 0" stroke="black" fill="transparent"
  transform="translate(924.666667 278.666667) rotate (24.650585 0 0) scale (0.535464 1)"/>
  <path
  d=" M 0 0 10.0 0 C 27.0 -24.0 61.0 22.0 50.0 0  S 90.0 22.0 90.0 0 M 90.0 0 100 0" stroke="black" fill="transparent"
  transform="translate(923.666667 228.666667) rotate (88.854237 0 0) scale (0.500100 1)"/>
  <path
  d=" M 0 0 10.0 0 C 24.0 -20.0 64.0 20.0 50.0 0  S 90.0 23.0 90.0 0 M 90.0 0 100 0" stroke="black" fill="transparent"
  transform="translate(923.666667 228.666667) rotate (-45.000000 0 0) scale (0.730677 1)"/>
  <path
  d=" M 0 0 10.0 0 C 13.0 -21.0 60.0 24.0 50.0 0  S 90.0 21.0 90.0 0 M 90.0 0 100 0" stroke="black" fill="transparent"
  transform="translate(357.000000 830.666667) rotate (-72.699473 0 0) scale (0.425937 1)"/>
  <path
  d=" M 0 0 10.0 0 C 24.0 -26.0 66.0 20.0 50.0 0  S 90.0 26.0 90.0 0 M 90.0 0 100 0" stroke="black" fill="transparent"
  transform="translate(357.000000 830.666667) rotate (30.191623 0 0) scale (0.424212 1)"/>
  <path
  d=" M 0 0 10.0 0 C 14.0 -22.0 52.0 25.0 50.0 0  S 90.0 29.0 90.0 0 M 90.0 0 100 0" stroke="black" fill="transparent"
  transform="translate(393.666667 852.000000) rotate (-21.399810 0 0) scale (0.529864 1)"/>
  <path
  d=" M 0 0 10.0 0 C 14.0 -24.0 66.0 25.0 50.0 0  S 90.0 24.0 90.0 0 M 90.0 0 100 0" stroke="black" fill="transparent"
  transform="translate(686.333333 305.666667) rotate (-67.435888 0 0) scale (0.790513 1)"/>
  <path
  d=" M 0 0 10.0 0 C 12.0 -23.0 65.0 25.0 50.0 0  S 90.0 20.0 90.0 0 M 90.0 0 100 0" stroke="black" fill="transparent"
  transform="translate(686.333333 305.666667) rotate (65.376435 0 0) scale (0.616018 1)"/>
  <path
  d=" M 0 0 10.0 0 C 29.0 -24.0 69.0 29.0 50.0 0  S 90.0 28.0 90.0 0 M 90.0 0 100 0" stroke="black" fill="transparent"
  transform="translate(712.000000 361.666667) rotate (-37.495268 0 0) scale (0.794047 1)"/>
  <path
  d=" M 0 0 10.0 0 C 24.0 -29.0 61.0 24.0 50.0 0  S 90.0 28.0 90.0 0 M 90.0 0 100 0" stroke="black" fill="transparent"
  transform="translate(775.000000 313.333333) rotate (-89.743070 0 0) scale (0.743341 1)"/>
  <path
  d=" M 0 0 10.0 0 C 20.0 -29.0 58.0 29.0 50.0 0  S 90.0 24.0 90.0 0 M 90.0 0 100 0" stroke="black" fill="transparent"
  transform="translate(852.000000 168.666667) rotate (-45.000000 0 0) scale (0.730677 1)"/>
  <path
  d=" M 0 0 10.0 0 C 28.0 -21.0 69.0 21.0 50.0 0  S 90.0 29.0 90.0 0 M 90.0 0 100 0" stroke="black" fill="transparent"
  transform="translate(852.000000 168.666667) rotate (21.801409 0 0) scale (0.520566 1)"/>
  <path
  d=" M 0 0 10.0 0 C 16.0 -28.0 63.0 27.0 50.0 0  S 90.0 22.0 90.0 0 M 90.0 0 100 0" stroke="black" fill="transparent"
  transform="translate(900.333333 188.000000) rotate (-45.000000 0 0) scale (0.730677 1)"/>
  <path
  d=" M 0 0 10.0 0 C 11.0 -26.0 68.0 26.0 50.0 0  S 90.0 24.0 90.0 0 M 90.0 0 100 0" stroke="black" fill="transparent"
  transform="translate(903.666667 117.000000) rotate (21.801409 0 0) scale (0.520566 1)"/>
  <path
  d=" M 0 0 10.0 0 C 15.0 -24.0 70.0 25.0 50.0 0  S 90.0 26.0 90.0 0 M 90.0 0 100 0" stroke="black" fill="transparent"
  transform="translate(301.666667 869.000000) rotate (-34.713098 0 0) scale (0.673144 1)"/>
  <path
  d=" M 0 0 10.0 0 C 20.0 -24.0 53.0 28.0 50.0 0  S 90.0 23.0 90.0 0 M 90.0 0 100 0" stroke="black" fill="transparent"
  transform="translate(305.000000 912.000000) rotate (-10.546034 0 0) scale (0.637434 1)"/>
  <path
  d=" M 0 0 10.0 0 C 27.0 -27.0 64.0 27.0 50.0 0  S 90.0 29.0 90.0 0 M 90.0 0 100 0" stroke="black" fill="transparent"
  transform="translate(367.666667 900.333333) rotate (-61.722813 0 0) scale (0.548827 1)"/>
  <path
  d=" M 0 0 10.0 0 C 26.0 -26.0 60.0 21.0 50.0 0  S 90.0 20.0 90.0 0 M 90.0 0 100 0" stroke="black" fill="transparent"
  transform="translate(890.333333 343.333333) rotate (-62.034923 0 0) scale (0.732158 1)"/>
  <path
  d=" M 0 0 10.0 0 C 18.0 -23.0 70.0 22.0 50.0 0  S 90.0 28.0 90.0 0 M 90.0 0 100 0" stroke="black" fill="transparent"
  transform="translate(890.333333 343.333333) rotate (38.700646 0 0) scale (0.730373 1)"/>
  <path
  d=" M 0 0 10.0 0 C 23.0 -28.0 64.0 25.0 50.0 0  S 90.0 20.0 90.0 0 M 90.0 0 100 0" stroke="black" fill="transparent"
  transform="translate(947.333333 389.000000) rotate (-45.000000 0 0) scale (0.570399 1)"/>
  <path
  d=" M 0 0 10.0 0 C 28.0 -22.0 69.0 27.0 50.0 0  S 90.0 23.0 90.0 0 M 90.0 0 100 0" stroke="black" fill="transparent"
  transform="translate(973.333333 301.000000) rotate (73.264004 0 0) scale (0.497750 1)"/>
  <path
  d=" M 0 0 10.0 0 C 22.0 -26.0 55.0 23.0 50.0 0  S 90.0 20.0 90.0 0 M 90.0 0 100 0" stroke="black" fill="transparent"
  transform="translate(145.000000 976.000000) rotate (-11.567440 0 0) scale (0.581817 1)"/>
  <path
  d=" M 0 0 10.0 0 C 21.0 -24.0 58.0 25.0 50.0 0  S 90.0 23.0 90.0 0 M 90.0 0 100 0" stroke="black" fill="transparent"
  transform="translate(119.000000 908.000000) rotate (-11.567440 0 0) scale (0.581817 1)"/>
  <path
  d=" M 0 0 10.0 0 C 16.0 -20.0 55.0 26.0 50.0 0  S 90.0 28.0 90.0 0 M 90.0 0 100 0" stroke="black" fill="transparent"
  transform="translate(119.000000 908.000000) rotate (69.075498 0 0) scale (0.728011 1)"/>
  <path
  d=" M 0 0 10.0 0 C 30.0 -23.0 57.0 20.0 50.0 0  S 90.0 21.0 90.0 0 M 90.0 0 100 0" stroke="black" fill="transparent"
  transform="translate(947.333333 389.000000) rotate (63.277110 0 0) scale (0.541131 1)"/>
  <path
  d=" M 0 0 10.0 0 C 15.0 -26.0 51.0 26.0 50.0 0  S 90.0 27.0 90.0 0 M 90.0 0 100 0" stroke="black" fill="transparent"
  transform="translate(987.666667 348.666667) rotate (74.967409 0 0) scale (1.580763 1)"/>
  <path
  d=" M 0 0 10.0 0 C 18.0 -29.0 53.0 22.0 50.0 0  S 90.0 26.0 90.0 0 M 90.0 0 100 0" stroke="black" fill="transparent"
  transform="translate(105.666667 229.333333) rotate (83.571252 0 0) scale (0.714493 1)"/>
  <path
  d=" M 0 0 10.0 0 C 22.0 -29.0 54.0 25.0 50.0 0  S 90.0 28.0 90.0 0 M 90.0 0 100 0" stroke="black" fill="transparent"
  transform="translate(148.000000 139.666667) rotate (83.571252 0 0) scale (0.714493 1)"/>
  <path
  d=" M 0 0 10.0 0 C 11.0 -26.0 68.0 27.0 50.0 0  S 90.0 28.0 90.0 0 M 90.0 0 100 0" stroke="black" fill="transparent"
  transform="translate(113.666667 300.333333) rotate (-64.727116 0 0) scale (0.991576 1)"/>
  <path
  d=" M 0 0 10.0 0 C 14.0 -25.0 70.0 20.0 50.0 0  S 90.0 29.0 90.0 0 M 90.0 0 100 0" stroke="black" fill="transparent"
  transform="translate(493.666667 717.000000) rotate (6.280007 0 0) scale (0.700872 1)"/>
  <path
  d=" M 0 0 10.0 0 C 30.0 -21.0 68.0 28.0 50.0 0  S 90.0 23.0 90.0 0 M 90.0 0 100 0" stroke="black" fill="transparent"
  transform="translate(838.666667 1003.333333) rotate (-71.985306 0 0) scale (0.431135 1)"/>
  <path
  d=" M 0 0 10.0 0 C 23.0 -21.0 56.0 29.0 50.0 0  S 90.0 22.0 90.0 0 M 90.0 0 100 0" stroke="black" fill="transparent"
  transform="translate(751.333333 940.333333) rotate (57.869175 0 0) scale (0.645540 1)"/>
  <path
  d=" M 0 0 10.0 0 C 18.0 -23.0 55.0 29.0 50.0 0  S 90.0 27.0 90.0 0 M 90.0 0 100 0" stroke="black" fill="transparent"
  transform="translate(751.333333 940.333333) rotate (-36.369198 0 0) scale (0.534020 1)"/>
  <path
  d=" M 0 0 10.0 0 C 23.0 -29.0 68.0 23.0 50.0 0  S 90.0 20.0 90.0 0 M 90.0 0 100 0" stroke="black" fill="transparent"
  transform="translate(794.333333 908.666667) rotate (42.942354 0 0) scale (0.787753 1)"/>
  <path
  d=" M 0 0 10.0 0 C 15.0 -26.0 70.0 28.0 50.0 0  S 90.0 20.0 90.0 0 M 90.0 0 100 0" stroke="black" fill="transparent"
  transform="translate(876.666667 588.333333) rotate (18.066492 0 0) scale (0.655659 1)"/>
  <path
  d=" M 0 0 10.0 0 C 27.0 -24.0 67.0 20.0 50.0 0  S 90.0 22.0 90.0 0 M 90.0 0 100 0" stroke="black" fill="transparent"
  transform="translate(847.666667 497.333333) rotate (-9.130176 0 0) scale (0.756248 1)"/>
  <path
  d=" M 0 0 10.0 0 C 13.0 -21.0 66.0 20.0 50.0 0  S 90.0 21.0 90.0 0 M 90.0 0 100 0" stroke="black" fill="transparent"
  transform="translate(842.333333 541.000000) rotate (-83.036531 0 0) scale (0.439912 1)"/>
  <path
  d=" M 0 0 10.0 0 C 17.0 -25.0 54.0 24.0 50.0 0  S 90.0 29.0 90.0 0 M 90.0 0 100 0" stroke="black" fill="transparent"
  transform="translate(842.333333 541.000000) rotate (54.044667 0 0) scale (0.584741 1)"/>
  <path
  d=" M 0 0 10.0 0 C 16.0 -27.0 62.0 28.0 50.0 0  S 90.0 25.0 90.0 0 M 90.0 0 100 0" stroke="black" fill="transparent"
  transform="translate(404.000000 937.666667) rotate (-21.492040 0 0) scale (0.573188 1)"/>
  <path
  d=" M 0 0 10.0 0 C 19.0 -28.0 52.0 27.0 50.0 0  S 90.0 21.0 90.0 0 M 90.0 0 100 0" stroke="black" fill="transparent"
  transform="translate(404.000000 937.666667) rotate (63.845664 0 0) scale (0.415919 1)"/>
  <path
  d=" M 0 0 10.0 0 C 15.0 -23.0 59.0 27.0 50.0 0  S 90.0 20.0 90.0 0 M 90.0 0 100 0" stroke="black" fill="transparent"
  transform="translate(422.333333 975.000000) rotate (-21.492040 0 0) scale (0.573188 1)"/>
  <path
  d=" M 0 0 10.0 0 C 19.0 -27.0 66.0 20.0 50.0 0  S 90.0 28.0 90.0 0 M 90.0 0 100 0" stroke="black" fill="transparent"
  transform="translate(676.333333 113.666667) rotate (-7.061094 0 0) scale (1.111765 1)"/>
  <path
  d=" M 0 0 10.0 0 C 17.0 -28.0 60.0 23.0 50.0 0  S 90.0 29.0 90.0 0 M 90.0 0 100 0" stroke="black" fill="transparent"
  transform="translate(613.000000 135.000000) rotate (-18.615692 0 0) scale (0.668298 1)"/>
  <path
  d=" M 0 0 10.0 0 C 14.0 -29.0 61.0 20.0 50.0 0  S 90.0 20.0 90.0 0 M 90.0 0 100 0" stroke="black" fill="transparent"
  transform="translate(548.666667 135.000000) rotate (0.000000 0 0) scale (0.643333 1)"/>
  <path
  d=" M 0 0 10.0 0 C 19.0 -29.0 66.0 29.0 50.0 0  S 90.0 20.0 90.0 0 M 90.0 0 100 0" stroke="black" fill="transparent"
  transform="translate(395.000000 97.000000) rotate (0.438853 0 0) scale (3.916782 1)"/>
  <path
  d=" M 0 0 10.0 0 C 26.0 -21.0 68.0 28.0 50.0 0  S 90.0 24.0 90.0 0 M 90.0 0 100 0" stroke="black" fill="transparent"
  transform="translate(647.666667 274.666667) rotate (38.719993 0 0) scale (0.495592 1)"/>
  <path
  d=" M 0 0 10.0 0 C 28.0 -22.0 56.0 23.0 50.0 0  S 90.0 24.0 90.0 0 M 90.0 0 100 0" stroke="black" fill="transparent"
  transform="translate(652.000000 188.333333) rotate (-6.473956 0 0) scale (0.473016 1)"/>
  <path
  d=" M 0 0 10.0 0 C 18.0 -28.0 53.0 27.0 50.0 0  S 90.0 20.0 90.0 0 M 90.0 0 100 0" stroke="black" fill="transparent"
  transform="translate(647.666667 274.666667) rotate (-87.126562 0 0) scale (0.864420 1)"/>
  <path
  d=" M 0 0 10.0 0 C 19.0 -22.0 59.0 27.0 50.0 0  S 90.0 20.0 90.0 0 M 90.0 0 100 0" stroke="black" fill="transparent"
  transform="translate(756.666667 696.333333) rotate (50.815627 0 0) scale (0.511751 1)"/>
  <path
  d=" M 0 0 10.0 0 C 24.0 -28.0 64.0 24.0 50.0 0  S 90.0 24.0 90.0 0 M 90.0 0 100 0" stroke="black" fill="transparent"
  transform="translate(655.666667 756.000000) rotate (2.156563 0 0) scale (0.797231 1)"/>
  <path
  d=" M 0 0 10.0 0 C 23.0 -23.0 51.0 28.0 50.0 0  S 90.0 28.0 90.0 0 M 90.0 0 100 0" stroke="black" fill="transparent"
  transform="translate(621.666667 713.666667) rotate (-67.380135 0 0) scale (0.520000 1)"/>
  <path
  d=" M 0 0 10.0 0 C 19.0 -21.0 57.0 23.0 50.0 0  S 90.0 28.0 90.0 0 M 90.0 0 100 0" stroke="black" fill="transparent"
  transform="translate(900.333333 188.000000) rotate (60.154068 0 0) scale (0.468852 1)"/>
  <path
  d=" M 0 0 10.0 0 C 28.0 -20.0 70.0 25.0 50.0 0  S 90.0 20.0 90.0 0 M 90.0 0 100 0" stroke="black" fill="transparent"
  transform="translate(800.000000 186.666667) rotate (-19.093492 0 0) scale (0.550273 1)"/>
  <path
  d=" M 0 0 10.0 0 C 28.0 -27.0 70.0 25.0 50.0 0  S 90.0 23.0 90.0 0 M 90.0 0 100 0" stroke="black" fill="transparent"
  transform="translate(775.000000 313.333333) rotate (45.951670 0 0) scale (0.709562 1)"/>
  <path
  d=" M 0 0 10.0 0 C 22.0 -26.0 60.0 26.0 50.0 0  S 90.0 27.0 90.0 0 M 90.0 0 100 0" stroke="black" fill="transparent"
  transform="translate(824.333333 364.333333) rotate (-17.650124 0 0) scale (0.692604 1)"/>
  <path
  d=" M 0 0 10.0 0 C 20.0 -20.0 62.0 24.0 50.0 0  S 90.0 29.0 90.0 0 M 90.0 0 100 0" stroke="black" fill="transparent"
  transform="translate(780.666667 557.000000) rotate (21.037511 0 0) scale (0.464280 1)"/>
  <path
  d=" M 0 0 10.0 0 C 19.0 -20.0 67.0 22.0 50.0 0  S 90.0 23.0 90.0 0 M 90.0 0 100 0" stroke="black" fill="transparent"
  transform="translate(824.000000 573.666667) rotate (-60.697793 0 0) scale (0.374596 1)"/>
  <path
  d=" M 0 0 10.0 0 C 13.0 -23.0 65.0 22.0 50.0 0  S 90.0 24.0 90.0 0 M 90.0 0 100 0" stroke="black" fill="transparent"
  transform="translate(807.000000 453.333333) rotate (47.254575 0 0) scale (0.599148 1)"/>
  <path
  d=" M 0 0 10.0 0 C 11.0 -29.0 58.0 20.0 50.0 0  S 90.0 22.0 90.0 0 M 90.0 0 100 0" stroke="black" fill="transparent"
  transform="translate(758.333333 480.333333) rotate (-29.021273 0 0) scale (0.556547 1)"/>
  <path
  d=" M 0 0 10.0 0 C 18.0 -21.0 70.0 26.0 50.0 0  S 90.0 28.0 90.0 0 M 90.0 0 100 0" stroke="black" fill="transparent"
  transform="translate(758.333333 480.333333) rotate (73.758929 0 0) scale (0.798533 1)"/>
  <path
  d=" M 0 0 10.0 0 C 21.0 -24.0 69.0 20.0 50.0 0  S 90.0 24.0 90.0 0 M 90.0 0 100 0" stroke="black" fill="transparent"
  transform="translate(254.666667 743.666667) rotate (3.239700 0 0) scale (0.707798 1)"/>
  <path
  d=" M 0 0 10.0 0 C 13.0 -24.0 57.0 22.0 50.0 0  S 90.0 27.0 90.0 0 M 90.0 0 100 0" stroke="black" fill="transparent"
  transform="translate(203.000000 647.333333) rotate (-53.877521 0 0) scale (1.328780 1)"/>
  <path
  d=" M 0 0 10.0 0 C 24.0 -29.0 63.0 20.0 50.0 0  S 90.0 21.0 90.0 0 M 90.0 0 100 0" stroke="black" fill="transparent"
  transform="translate(873.333333 725.666667) rotate (-8.906744 0 0) scale (0.452118 1)"/>
  <path
  d=" M 0 0 10.0 0 C 29.0 -29.0 66.0 23.0 50.0 0  S 90.0 25.0 90.0 0 M 90.0 0 100 0" stroke="black" fill="transparent"
  transform="translate(853.333333 674.000000) rotate (68.838740 0 0) scale (0.554026 1)"/>
  <path
  d=" M 0 0 10.0 0 C 29.0 -21.0 51.0 29.0 50.0 0  S 90.0 20.0 90.0 0 M 90.0 0 100 0" stroke="black" fill="transparent"
  transform="translate(853.333333 674.000000) rotate (-84.610688 0 0) scale (0.532353 1)"/>
  <path
  d=" M 0 0 10.0 0 C 25.0 -29.0 58.0 20.0 50.0 0  S 90.0 20.0 90.0 0 M 90.0 0 100 0" stroke="black" fill="transparent"
  transform="translate(858.333333 621.000000) rotate (-60.697793 0 0) scale (0.374596 1)"/>
  <path
  d=" M 0 0 10.0 0 C 14.0 -27.0 57.0 25.0 50.0 0  S 90.0 23.0 90.0 0 M 90.0 0 100 0" stroke="black" fill="transparent"
  transform="translate(367.666667 900.333333) rotate (45.777723 0 0) scale (0.520950 1)"/>
  <path
  d=" M 0 0 10.0 0 C 14.0 -26.0 52.0 25.0 50.0 0  S 90.0 20.0 90.0 0 M 90.0 0 100 0" stroke="black" fill="transparent"
  transform="translate(175.333333 110.666667) rotate (20.358338 0 0) scale (0.565312 1)"/>
  <path
  d=" M 0 0 10.0 0 C 16.0 -22.0 55.0 21.0 50.0 0  S 90.0 20.0 90.0 0 M 90.0 0 100 0" stroke="black" fill="transparent"
  transform="translate(199.333333 204.000000) rotate (-68.512169 0 0) scale (0.791693 1)"/>
  <path
  d=" M 0 0 10.0 0 C 25.0 -28.0 63.0 29.0 50.0 0  S 90.0 20.0 90.0 0 M 90.0 0 100 0" stroke="black" fill="transparent"
  transform="translate(156.000000 210.666667) rotate (-8.746162 0 0) scale (0.438432 1)"/>
  <path
  d=" M 0 0 10.0 0 C 15.0 -25.0 64.0 29.0 50.0 0  S 90.0 28.0 90.0 0 M 90.0 0 100 0" stroke="black" fill="transparent"
  transform="translate(349.333333 996.333333) rotate (-16.290339 0 0) scale (0.760533 1)"/>
  <path
  d=" M 0 0 10.0 0 C 27.0 -25.0 54.0 20.0 50.0 0  S 90.0 26.0 90.0 0 M 90.0 0 100 0" stroke="black" fill="transparent"
  transform="translate(268.333333 970.666667) rotate (17.581973 0 0) scale (0.849693 1)"/>
  <path
  d=" M 0 0 10.0 0 C 18.0 -24.0 63.0 28.0 50.0 0  S 90.0 24.0 90.0 0 M 90.0 0 100 0" stroke="black" fill="transparent"
  transform="translate(196.333333 87.666667) rotate (20.358338 0 0) scale (0.565312 1)"/>
  <path
  d=" M 0 0 10.0 0 C 11.0 -28.0 56.0 28.0 50.0 0  S 90.0 29.0 90.0 0 M 90.0 0 100 0" stroke="black" fill="transparent"
  transform="translate(228.333333 130.333333) rotate (-47.602562 0 0) scale (0.311448 1)"/>
  <path
  d=" M 0 0 10.0 0 C 18.0 -26.0 63.0 29.0 50.0 0  S 90.0 29.0 90.0 0 M 90.0 0 100 0" stroke="black" fill="transparent"
  transform="translate(520.666667 940.000000) rotate (40.640592 0 0) scale (0.527141 1)"/>
  <path
  d=" M 0 0 10.0 0 C 19.0 -22.0 68.0 22.0 50.0 0  S 90.0 20.0 90.0 0 M 90.0 0 100 0" stroke="black" fill="transparent"
  transform="translate(349.333333 996.333333) rotate (9.232758 0 0) scale (1.641263 1)"/>
  <path
  d=" M 0 0 10.0 0 C 28.0 -22.0 70.0 27.0 50.0 0  S 90.0 20.0 90.0 0 M 90.0 0 100 0" stroke="black" fill="transparent"
  transform="translate(560.666667 974.333333) rotate (24.682304 0 0) scale (0.862097 1)"/>
  <path
  d=" M 0 0 10.0 0 C 13.0 -29.0 66.0 25.0 50.0 0  S 90.0 27.0 90.0 0 M 90.0 0 100 0" stroke="black" fill="transparent"
  transform="translate(712.000000 361.666667) rotate (89.510304 0 0) scale (0.780028 1)"/>
  <path
  d=" M 0 0 10.0 0 C 23.0 -20.0 51.0 24.0 50.0 0  S 90.0 28.0 90.0 0 M 90.0 0 100 0" stroke="black" fill="transparent"
  transform="translate(678.000000 510.333333) rotate (-63.868999 0 0) scale (0.787119 1)"/>
  <path
  d=" M 0 0 10.0 0 C 17.0 -23.0 67.0 28.0 50.0 0  S 90.0 28.0 90.0 0 M 90.0 0 100 0" stroke="black" fill="transparent"
  transform="translate(556.666667 330.333333) rotate (-31.455027 0 0) scale (1.066760 1)"/>
  <path
  d=" M 0 0 10.0 0 C 18.0 -24.0 66.0 25.0 50.0 0  S 90.0 22.0 90.0 0 M 90.0 0 100 0" stroke="black" fill="transparent"
  transform="translate(824.000000 573.666667) rotate (54.044667 0 0) scale (0.584741 1)"/>
  <path
  d=" M 0 0 10.0 0 C 28.0 -27.0 66.0 21.0 50.0 0  S 90.0 25.0 90.0 0 M 90.0 0 100 0" stroke="black" fill="transparent"
  transform="translate(852.000000 962.333333) rotate (8.230975 0 0) scale (0.535516 1)"/>
  <path
  d=" M 0 0 10.0 0 C 25.0 -26.0 51.0 26.0 50.0 0  S 90.0 20.0 90.0 0 M 90.0 0 100 0" stroke="black" fill="transparent"
  transform="translate(794.333333 908.666667) rotate (-85.209869 0 0) scale (0.598758 1)"/>
  <path
  d=" M 0 0 10.0 0 C 21.0 -24.0 65.0 26.0 50.0 0  S 90.0 22.0 90.0 0 M 90.0 0 100 0" stroke="black" fill="transparent"
  transform="translate(853.333333 821.000000) rotate (26.183932 0 0) scale (0.672326 1)"/>
  <path
  d=" M 0 0 10.0 0 C 15.0 -28.0 69.0 28.0 50.0 0  S 90.0 28.0 90.0 0 M 90.0 0 100 0" stroke="black" fill="transparent"
  transform="translate(905.000000 970.000000) rotate (-56.159944 0 0) scale (0.706321 1)"/>
  <path
  d=" M 0 0 10.0 0 C 22.0 -27.0 68.0 28.0 50.0 0  S 90.0 26.0 90.0 0 M 90.0 0 100 0" stroke="black" fill="transparent"
  transform="translate(121.666667 548.666667) rotate (81.674350 0 0) scale (0.690612 1)"/>
  <path
  d=" M 0 0 10.0 0 C 11.0 -26.0 65.0 25.0 50.0 0  S 90.0 20.0 90.0 0 M 90.0 0 100 0" stroke="black" fill="transparent"
  transform="translate(74.666667 758.666667) rotate (-68.865760 0 0) scale (0.850542 1)"/>
  <path
  d=" M 0 0 10.0 0 C 24.0 -25.0 66.0 26.0 50.0 0  S 90.0 20.0 90.0 0 M 90.0 0 100 0" stroke="black" fill="transparent"
  transform="translate(74.666667 758.666667) rotate (-87.397438 0 0) scale (2.495908 1)"/>
  <path
  d=" M 0 0 10.0 0 C 29.0 -20.0 67.0 29.0 50.0 0  S 90.0 29.0 90.0 0 M 90.0 0 100 0" stroke="black" fill="transparent"
  transform="translate(111.000000 414.666667) rotate (-88.663898 0 0) scale (1.143644 1)"/>
  <path
  d=" M 0 0 10.0 0 C 29.0 -26.0 57.0 26.0 50.0 0  S 90.0 23.0 90.0 0 M 90.0 0 100 0" stroke="black" fill="transparent"
  transform="translate(86.000000 509.333333) rotate (-85.982252 0 0) scale (2.806898 1)"/>
  <path
  d=" M 0 0 10.0 0 C 12.0 -20.0 64.0 23.0 50.0 0  S 90.0 26.0 90.0 0 M 90.0 0 100 0" stroke="black" fill="transparent"
  transform="translate(617.000000 827.333333) rotate (41.217355 0 0) scale (0.571645 1)"/>
  <path
  d=" M 0 0 10.0 0 C 12.0 -28.0 68.0 27.0 50.0 0  S 90.0 23.0 90.0 0 M 90.0 0 100 0" stroke="black" fill="transparent"
  transform="translate(660.000000 865.000000) rotate (-33.470964 0 0) scale (0.967034 1)"/>
  <path
  d=" M 0 0 10.0 0 C 18.0 -24.0 55.0 24.0 50.0 0  S 90.0 23.0 90.0 0 M 90.0 0 100 0" stroke="black" fill="transparent"
  transform="translate(786.666667 100.000000) rotate (8.267173 0 0) scale (1.182286 1)"/>
  <path
  d=" M 0 0 10.0 0 C 24.0 -27.0 64.0 28.0 50.0 0  S 90.0 25.0 90.0 0 M 90.0 0 100 0" stroke="black" fill="transparent"
  transform="translate(676.333333 113.666667) rotate (28.300756 0 0) scale (0.738241 1)"/>
  <path
  d=" M 0 0 10.0 0 C 18.0 -28.0 70.0 24.0 50.0 0  S 90.0 23.0 90.0 0 M 90.0 0 100 0" stroke="black" fill="transparent"
  transform="translate(613.000000 135.000000) rotate (53.823862 0 0) scale (0.660715 1)"/>
  <path
  d=" M 0 0 10.0 0 C 29.0 -28.0 60.0 22.0 50.0 0  S 90.0 29.0 90.0 0 M 90.0 0 100 0" stroke="black" fill="transparent"
  transform="translate(145.000000 976.000000) rotate (7.259724 0 0) scale (3.692938 1)"/>
  <path
  d=" M 0 0 10.0 0 C 25.0 -26.0 54.0 23.0 50.0 0  S 90.0 26.0 90.0 0 M 90.0 0 100 0" stroke="black" fill="transparent"
  transform="translate(960.000000 802.000000) rotate (-42.510447 0 0) scale (0.759678 1)"/>
  <path
  d=" M 0 0 10.0 0 C 14.0 -20.0 66.0 28.0 50.0 0  S 90.0 21.0 90.0 0 M 90.0 0 100 0" stroke="black" fill="transparent"
  transform="translate(1006.333333 702.000000) rotate (78.765556 0 0) scale (0.496174 1)"/>
  <path
  d=" M 0 0 10.0 0 C 29.0 -29.0 51.0 24.0 50.0 0  S 90.0 29.0 90.0 0 M 90.0 0 100 0" stroke="black" fill="transparent"
  transform="translate(950.333333 753.333333) rotate (78.765556 0 0) scale (0.496174 1)"/>
  <path
  d=" M 0 0 10.0 0 C 22.0 -25.0 57.0 27.0 50.0 0  S 90.0 27.0 90.0 0 M 90.0 0 100 0" stroke="black" fill="transparent"
  transform="translate(636.666667 930.333333) rotate (-70.346176 0 0) scale (0.693750 1)"/>
  <path
  d=" M 0 0 10.0 0 C 26.0 -24.0 58.0 23.0 50.0 0  S 90.0 25.0 90.0 0 M 90.0 0 100 0" stroke="black" fill="transparent"
  transform="translate(560.666667 974.333333) rotate (-30.068583 0 0) scale (0.878180 1)"/>
  <path
  d=" M 0 0 10.0 0 C 26.0 -20.0 57.0 24.0 50.0 0  S 90.0 25.0 90.0 0 M 90.0 0 100 0" stroke="black" fill="transparent"
  transform="translate(757.666667 599.666667) rotate (-61.672558 0 0) scale (0.484711 1)"/>
  <path
  d=" M 0 0 10.0 0 C 30.0 -21.0 70.0 26.0 50.0 0  S 90.0 21.0 90.0 0 M 90.0 0 100 0" stroke="black" fill="transparent"
  transform="translate(712.666667 439.666667) rotate (41.685414 0 0) scale (0.611492 1)"/>
  <path
  d=" M 0 0 10.0 0 C 16.0 -29.0 52.0 26.0 50.0 0  S 90.0 29.0 90.0 0 M 90.0 0 100 0" stroke="black" fill="transparent"
  transform="translate(104.000000 837.333333) rotate (-72.153974 0 0) scale (0.717875 1)"/>
  <path
  d=" M 0 0 10.0 0 C 20.0 -29.0 69.0 25.0 50.0 0  S 90.0 26.0 90.0 0 M 90.0 0 100 0" stroke="black" fill="transparent"
  transform="translate(104.000000 837.333333) rotate (78.016031 0 0) scale (0.722411 1)"/>
  <path
  d=" M 0 0 10.0 0 C 19.0 -21.0 66.0 25.0 50.0 0  S 90.0 26.0 90.0 0 M 90.0 0 100 0" stroke="black" fill="transparent"
  transform="translate(212.666667 792.000000) rotate (68.735875 0 0) scale (0.726101 1)"/>
  <path
  d=" M 0 0 10.0 0 C 17.0 -23.0 57.0 28.0 50.0 0  S 90.0 22.0 90.0 0 M 90.0 0 100 0" stroke="black" fill="transparent"
  transform="translate(126.000000 769.000000) rotate (-1.487868 0 0) scale (0.256753 1)"/>
  <path
  d=" M 0 0 10.0 0 C 28.0 -24.0 58.0 20.0 50.0 0  S 90.0 29.0 90.0 0 M 90.0 0 100 0" stroke="black" fill="transparent"
  transform="translate(807.000000 453.333333) rotate (-78.979229 0 0) scale (0.906722 1)"/>
  <path
  d=" M 0 0 10.0 0 C 12.0 -25.0 60.0 27.0 50.0 0  S 90.0 29.0 90.0 0 M 90.0 0 100 0" stroke="black" fill="transparent"
  transform="translate(146.666667 454.000000) rotate (-23.821911 0 0) scale (0.965597 1)"/>
  <path
  d=" M 0 0 10.0 0 C 15.0 -21.0 54.0 24.0 50.0 0  S 90.0 22.0 90.0 0 M 90.0 0 100 0" stroke="black" fill="transparent"
  transform="translate(838.666667 1003.333333) rotate (-26.680103 0 0) scale (0.742376 1)"/>
  <path
  d=" M 0 0 10.0 0 C 24.0 -22.0 53.0 26.0 50.0 0  S 90.0 29.0 90.0 0 M 90.0 0 100 0" stroke="black" fill="transparent"
  transform="translate(126.000000 769.000000) rotate (-82.476180 0 0) scale (0.356402 1)"/>
  <path
  d=" M 0 0 10.0 0 C 25.0 -24.0 60.0 27.0 50.0 0  S 90.0 23.0 90.0 0 M 90.0 0 100 0" stroke="black" fill="transparent"
  transform="translate(636.666667 930.333333) rotate (28.720327 0 0) scale (0.554937 1)"/>
  <path
  d=" M 0 0 10.0 0 C 27.0 -23.0 67.0 29.0 50.0 0  S 90.0 26.0 90.0 0 M 90.0 0 100 0" stroke="black" fill="transparent"
  transform="translate(685.333333 957.000000) rotate (57.869175 0 0) scale (0.645540 1)"/>
  <path
  d=" M 0 0 10.0 0 C 13.0 -26.0 67.0 23.0 50.0 0  S 90.0 29.0 90.0 0 M 90.0 0 100 0" stroke="black" fill="transparent"
  transform="translate(74.666667 758.666667) rotate (69.550452 0 0) scale (0.839577 1)"/>
  <path
  d=" M 0 0 10.0 0 C 22.0 -26.0 60.0 23.0 50.0 0  S 90.0 25.0 90.0 0 M 90.0 0 100 0" stroke="black" fill="transparent"
  transform="translate(74.666667 758.666667) rotate (72.067401 0 0) scale (2.284306 1)"/>
  <path
  d=" M 0 0 10.0 0 C 12.0 -20.0 53.0 21.0 50.0 0  S 90.0 28.0 90.0 0 M 90.0 0 100 0" stroke="black" fill="transparent"
  transform="translate(249.333333 107.333333) rotate (17.987335 0 0) scale (0.539712 1)"/>
  <path
  d=" M 0 0 10.0 0 C 20.0 -27.0 55.0 25.0 50.0 0  S 90.0 28.0 90.0 0 M 90.0 0 100 0" stroke="black" fill="transparent"
  transform="translate(196.333333 87.666667) rotate (2.689770 0 0) scale (1.988858 1)"/>
  <path
  d=" M 0 0 10.0 0 C 19.0 -29.0 57.0 28.0 50.0 0  S 90.0 25.0 90.0 0 M 90.0 0 100 0" stroke="black" fill="transparent"
  transform="translate(685.333333 957.000000) rotate (-14.172338 0 0) scale (0.680719 1)"/>
  <path
  d=" M 0 0 10.0 0 C 19.0 -28.0 69.0 22.0 50.0 0  S 90.0 22.0 90.0 0 M 90.0 0 100 0" stroke="black" fill="transparent"
  transform="translate(952.000000 136.333333) rotate (60.154068 0 0) scale (0.468852 1)"/>
  <path
  d=" M 0 0 10.0 0 C 20.0 -21.0 60.0 29.0 50.0 0  S 90.0 29.0 90.0 0 M 90.0 0 100 0" stroke="black" fill="transparent"
  transform="translate(796.000000 669.333333) rotate (4.653352 0 0) scale (0.575229 1)"/>
  <path
  d=" M 0 0 10.0 0 C 21.0 -26.0 68.0 21.0 50.0 0  S 90.0 25.0 90.0 0 M 90.0 0 100 0" stroke="black" fill="transparent"
  transform="translate(987.666667 348.666667) rotate (-76.918598 0 0) scale (0.824736 1)"/>
  <path
  d=" M 0 0 10.0 0 C 20.0 -29.0 64.0 21.0 50.0 0  S 90.0 24.0 90.0 0 M 90.0 0 100 0" stroke="black" fill="transparent"
  transform="translate(199.333333 204.000000) rotate (49.569003 0 0) scale (1.094781 1)"/>
  <path
  d=" M 0 0 10.0 0 C 16.0 -26.0 61.0 21.0 50.0 0  S 90.0 28.0 90.0 0 M 90.0 0 100 0" stroke="black" fill="transparent"
  transform="translate(848.333333 760.666667) rotate (-54.462322 0 0) scale (0.430116 1)"/>
  
  <path id="cat" fill="none" stroke="#000000" stroke-width="1" stroke-miterlimit="10" d="M55.571,141.777l55.54,0.994
        c0.142-7.894-0.396-9.472-13.47-9.706c2.201-6.229,10.96-21.235,15.679-21.15c4.177,0.075,9.152,0.395,8.982,9.915
        c-0.193,10.812,17.689,28.577,22.23,21.538c6.766-10.479-11.173-7.564-10.715-33.132c0.626-34.97,20.944-29.626,21.295-49.276
        c0.176-9.83-2.514-11.206-2.388-18.234c0.167-9.286,8.34-8.601,6.885-16.331c-1.006-5.339-1.79-9.62-2.313-16.064
        c-0.375-4.573-0.436-9.441-5.177-9.33c-5.573,0.13-7.862,9.897-16.535,10.445c-8.652,0.547-15.876-7.642-19.244-6.551
        c-3.333,1.082-2.453,10.097-0.601,16.521c2.912,10.098,9.417,23.274-2.906,25.02c-12.323,1.746-33.492,3.334-49.089,23.213
        c-15.597,19.878-15.46,43.54-21.557,50.747c-20.472,24.196-40.82,13.749-41.186,34.17c-0.164,9.146,15.213,16.005,17.724,13.1
        c2.51-2.905-20.671-12.105,5.628-22.024C46.823,137.176,48.846,135.403,55.571,141.777z"
        transform="translate(320.5 316.5)"
        /><path
  d=" M 0 0 10.0 0 C 11.0 -22.0 57.0 28.0 50.0 0  S 90.0 22.0 90.0 0 M 90.0 0 100 0" stroke="black" fill="transparent"
  transform="translate(339.230000 484.170000) rotate (136.041077 0 0) scale (0.804302 1)"/>
  <path
  d=" M 0 0 10.0 0 C 25.0 -23.0 62.0 24.0 50.0 0  S 90.0 23.0 90.0 0 M 90.0 0 100 0" stroke="black" fill="transparent"
  transform="translate(384.240000 386.150000) rotate (-139.057606 0 0) scale (1.507961 1)"/>
  <path
  d=" M 0 0 10.0 0 C 28.0 -26.0 58.0 29.0 50.0 0  S 90.0 29.0 90.0 0 M 90.0 0 100 0" stroke="black" fill="transparent"
  transform="translate(436.840000 321.390000) rotate (-52.294032 0 0) scale (0.978184 1)"/>
  <path
  d=" M 0 0 10.0 0 C 29.0 -26.0 58.0 22.0 50.0 0  S 90.0 22.0 90.0 0 M 90.0 0 100 0" stroke="black" fill="transparent"
  transform="translate(465.030000 459.870000) rotate (5.582661 0 0) scale (1.041306 1)"/>
  <path
  d=" M 0 0 10.0 0 C 16.0 -27.0 64.0 28.0 50.0 0  S 90.0 27.0 90.0 0 M 90.0 0 100 0" stroke="black" fill="transparent"
  transform="translate(475.610000 377.460000) rotate (-30.173889 0 0) scale (0.937609 1)"/>
  
</svg>
